<svg xmlns="http://www.w3.org/2000/svg" width="24" height="20" viewBox="2 0 24 20"><path fill="#00A2A7" d="M7.6 18.2c-.9 0-1.7-.3-2.4-1s-1-1.5-1-2.4V5.2c0-.9.3-1.7 1-2.4s1.5-1 2.4-1h9.7c.5 0 .9.1 1.4.3.1.1.2.1.2.3s0 .2-.1.3l-.6.6c-.1.1-.2.1-.3.1h-.1c-.2 0-.4-.1-.5-.1H7.6c-.5 0-1 .2-1.3.5-.4.4-.6.9-.6 1.4v9.6c0 .5.2 1 .6 1.3.4.3.8.6 1.3.6h9.7c.5 0 1-.2 1.3-.6.3-.4.5-.8.5-1.3v-3c0-.1 0-.2.1-.3l.8-.7c.1 0 .2-.1.3-.1s.2 0 .3.1c.1.1.1.2.1.3v3.7c0 .9-.3 1.7-1 2.4s-1.5 1-2.4 1H7.6zm-.4-9c0-.2.1-.5.3-.7l1.3-1.3c.2-.1.4-.2.6-.2.3 0 .5.1.7.3l3.1 3 7.6-7.6c.2-.2.4-.3.7-.3.3 0 .5.1.7.3L23.5 4c.2.2.3.4.3.7 0 .3-.1.5-.3.7L14 14.9c-.2.2-.4.3-.7.3s-.5-.1-.7-.3l-5-5c-.3-.1-.4-.4-.4-.7z"/></svg>