<svg xmlns="http://www.w3.org/2000/svg" width="40" height="40" viewBox="45.5 -9.5 40 40"><path fill="#333" d="M73.2 5.1V1.8h-.8v3.3H69V6h3.3v3.3h.8V6h3.3v-.9c.1 0-3.2 0-3.2 0zm-6.7 7.2c-.6-.4-1.6-1.3-1.6-1.9 0-.7.2-1 1.1-1.7 1-.8 1.7-1.9 1.7-3.1 0-1.5-.7-3-1.9-3.4h1.9l1.4-1s-4.5 0-5.9 0c-2.7 0-5.2 2-5.2 4.3 0 2.4 1.8 4.3 4.5 4.3.2 0 .4 0 .6 0-.2.4-.3.7-.3 1.1 0 .7.4 1.2.8 1.7-.4 0-.7 0-1 0-3.3 0-5.8 2.1-5.8 4.3s2.8 3.5 6.1 3.5c3.8 0 5.8-2.1 5.8-4.3-.2-1.6-.7-2.6-2.2-3.8zm-3.2-2.9c-1.5-.1-3-1.7-3.2-3.7s.8-3.6 2.3-3.5c1.5.1 3 1.7 3.2 3.7.3 1.9-.8 3.5-2.3 3.5zm-.6 10.2c-2.3 0-4-1.5-4-3.2s2-3.1 4.3-3.1c.5 0 1 .1 1.5.3 1.3.9 2.1 1.4 2.4 2.3.1.2.1.4.1.6 0 1.7-1.1 3.1-4.3 3.1zm2.8-26.1c-9.4 0-17 7.6-17 17s7.6 17 17 17 17-7.6 17-17-7.6-17-17-17zm0 32.4c-8.5 0-15.4-6.9-15.4-15.4S57-4.9 65.5-4.9 80.9 2 80.9 10.5 74 25.9 65.5 25.9z"/></svg>