<svg xmlns="http://www.w3.org/2000/svg" width="70" height="80" viewBox="-114 111 70 80"><circle fill="#FFF" cx="-79" cy="144.4" r="26.6"/><path fill="#010101" d="M-105.6 144.4c0-7.7 3.3-14.6 8.5-19.5l-3-3c-.3.2-.5.5-.8.7-12.1 12.1-12.3 31.4-.5 43.6l3.3-3.3c-4.7-4.8-7.5-11.3-7.5-18.5zM-52.4 144.4c0 6.3-2.2 12.1-5.8 16.6l3.2 3.2c9.8-11.9 9.5-29.2-1-40.6l-3.1 3.1c4.2 4.7 6.7 10.9 6.7 17.7zM-95.6 123.6c4.5-3.6 10.3-5.8 16.6-5.8 7.2 0 13.7 2.9 18.5 7.5l3.1-3.1c-11.4-11.1-29.2-11.5-41.3-1.6l3.1 3z"/><path fill="#FAAC1A" d="M-59.5 162.6c-4.9 5.2-11.8 8.5-19.5 8.5-6.8 0-13-2.6-17.7-6.7l-3.3 3.2 21 20.9 22-22c.2-.2.5-.5.7-.7l-3.2-3.2z"/><text transform="translate(-97 160)" fill="#20262C" font-family="'Arial-BoldMT'" font-size="10">VILLAS</text></svg>