<svg id="Layer_1" xmlns="http://www.w3.org/2000/svg" viewBox="0 0 26 24"><style>.st0{fill:#9E9E9E;}</style><path class="st0" d="M14.3 14.8c.9-1 1.3-2.3 1.3-3.6 0-3.1-2.5-5.5-5.5-5.5-3.1 0-5.5 2.5-5.5 5.5 0 1.3.5 2.6 1.3 3.6C2.7 15.9 1 18.4 1 21.7v2h18.1v-2c0-3.3-1.8-5.8-4.8-6.9zm3.5 7.6H2.3v-.8c0-1.6.5-2.9 1.4-3.9.8-1 2.1-1.7 3.6-2.1l1.2-.3-1-.8c-1-.8-1.6-2-1.6-3.4 0-2.3 1.9-4.3 4.3-4.3 2.3 0 4.3 1.9 4.3 4.3 0 1.3-.6 2.5-1.6 3.4l-1 .8 1.2.3c1.5.4 2.7 1.1 3.6 2.1.9 1 1.4 2.4 1.4 3.9v.8zm2.4-13c.9-1 1.3-2.3 1.3-3.6C21.5 2.7 19 .3 16 .3c-2.7 0-5 1.9-5.4 4.5l-.1.3 1.3.2.1-.3c.4-2 2.1-3.5 4.2-3.5 2.3 0 4.3 1.9 4.3 4.3 0 1.3-.6 2.5-1.6 3.4l-1 .8 1.2.3c1.5.4 2.7 1.1 3.6 2.1.9 1 1.4 2.4 1.4 3.9v1h-4.8v1.3H25v-2.3c0-3.2-1.7-5.7-4.8-6.9z"/></svg>