<svg xmlns="http://www.w3.org/2000/svg" width="36" height="32" viewBox="14 -6.1 36 32"><path fill="#FFF" d="M47 12.2H21.7V-1.2c0-2.3 1.1-2.5 1.5-2.6 1-.2 1.7.7 1.9 1.3-1 .9-1.3 2.3-.6 3.5.1.2.3.3.6.3.1 0 .2 0 .3-.1l4.1-2.1c.2-.1.2-.2.3-.4.1-.2 0-.3-.1-.5-.5-.9-1.5-1.6-2.7-1.6-.3 0-.6.1-.8.2-.5-1.2-1.7-2.2-3.2-2-1.8.2-2.7 1.6-2.7 3.9v13.5H17c-2.8 0-2.8 3.8 0 3.7.4 0 .6.2.7.8.2 1.5.9 3.5 2.6 5.1.4.4.2.8.2.8l-.6 1.4c-.2.3 0 .7.3.9.1.1.2.1.3.1.2 0 .5-.2.6-.4l.6-1.2s.2-.5.6-.3c.7.3 1.6.4 2.7.4h14c.7 0 1.5-.2 2.1-.3.6-.2.8.5.8.5l.4.9c.1.2.3.4.6.4.1 0 .2 0 .3-.1.3-.2.5-.5.3-.9l-.6-1.2s-.2-.3.2-.7c.2-.2.5-.4.6-.6 1.5-1.5 2.1-3.4 2.4-4.7.1-.5.2-.6.6-.6 2.9-.2 3-4 .3-4zm-3.5 4.1c0 .2-.9 3-3.8 4.6-.2.1-.3.1-.4.1-.2 0-.4-.2-.5-.3-.2-.3-.1-.7.2-.9 2.4-1.3 3.2-3.8 3.2-3.8.1-.3.5-.5.8-.5.4.1.6.5.5.8zM29.7 4.9c-.3.5-.4 1-.3 1.5.2.5.5.9.7 1.3.6.8 1.4 1.6.6 2.6-.2.3.2.7.4.4.4-.5.6-.9.5-1.6-.1-.5-.4-1-.7-1.4s-.6-.9-.9-1.3c-.2-.5-.2-.9.2-1.3.3-.2-.3-.5-.5-.2zm5.2 2.9c.6.8 1.4 1.6.6 2.6-.2.3.2.7.4.4.4-.5.6-.9.5-1.6-.1-.5-.4-1-.7-1.4s-.6-.9-.9-1.3c-.2-.5-.1-1 .2-1.4.2-.3-.3-.6-.5-.3-.3.5-.4 1-.3 1.5.1.6.4 1.1.7 1.5zm-2.3 0c.6.8 1.4 1.6.6 2.6-.2.3.2.7.4.4.4-.5.6-.9.5-1.6-.1-.5-.4-1-.7-1.4s-.6-.9-.9-1.3c-.2-.5-.2-.9.2-1.3.2-.3-.3-.6-.5-.3-.3.5-.4 1-.3 1.5 0 .5.3 1 .7 1.4z"/></svg>