<svg xmlns="http://www.w3.org/2000/svg" width="48" height="48" viewBox="-36.5 26.5 48 48"><path fill="#FFF" d="M-4.7 48.6c0-6.6 2.6-4.9 2.6-9.8-.7 0-1.2-.5-1.2-1.2s.6-1.2 1.2-1.2h4.9c.7 0 1.2.6 1.2 1.2 0 .7-.5 1.2-1.2 1.2 0 4.9 2.5 3.3 2.5 9.8h-10zm-6.5-4.7c-.5-.1-1.2.8-.2 1.4.8.5 2.5 1.6 4.1 3.3H-31c0-4.1 3.3-7.4 7.4-7.4 2.2 0 4.2 1 5.6 2.5-.8-3.1-1.5-6.8-2.3-9.1-1.1-3.2.8-7.5 4.9-6.6 3.2.7 5.7 4.9 6.6 11.5 0 0-3-3.3-4.1-2.5 0 0-.7.6.9 1.5 1.7 1 5.7 4.5 5 8 0 .2-2.4-2.1-4.2-2.6zm-17.2-4.8c-2.3-1.1-2.6-4.9-2.6-4.9s3.1-.8 5 .8 2.5 4.9 2.5 4.9-3.3 0-4.9-.8zM.8 70.6C.5 72-.7 73-2.2 73h-21.5c-1.4 0-2.6-1-2.9-2.4L-31 49.9H5.3L.8 70.6zm-8.5-10.8c-.1-.7-.3-1.1-.8-1.6-.6-.6-1.3-.9-2.1-.9-1.1 0-1.9.7-2.4 1.2-.5-.5-1.3-1.2-2.4-1.2-.7 0-1.4.3-2.1.9-.5.5-.7.9-.8 1.6-.3 2.8 4.1 5.3 4.9 5.8.1.1.2.1.3.1 0 0 0 0 .1 0s.2 0 .2-.1c1-.5 5.5-3 5.1-5.8z"/></svg>