<svg xmlns="http://www.w3.org/2000/svg" width="42" height="42" viewBox="3 -11 42 42"><path fill="#999" d="M38.2-3.8h-4.6v-2.1c0-.6-.5-1.1-1.1-1.1s-1.1.5-1.1 1.1v2.1H25v-2.1c.1-.6-.4-1.1-1-1.1s-1.1.5-1.1 1.1v2.1h-6.4v-2.1c0-.6-.5-1.1-1.1-1.1s-1.1.5-1.1 1.1v2.1H9.8C8.3-3.8 7-2.6 7-1v25.1C7 25.7 8.3 27 9.8 27h28.3c1.6 0 2.8-1.3 2.8-2.8V-1c.1-1.6-1.2-2.8-2.7-2.8zm.7 28c0 .4-.3.7-.7.7H9.8c-.4 0-.7-.3-.7-.7V-1c0-.4.3-.7.7-.7h4.6V.4c0 .6.5 1.1 1.1 1.1S16.6 1 16.6.4v-2.1H23V.4c0 .6.5 1.1 1.1 1.1.5 0 .9-.5.9-1.1v-2.1h6.4V.4c0 .6.5 1.1 1.1 1.1.6 0 1.1-.5 1.1-1.1v-2.1h4.6c.4 0 .7.3.7.7v25.2zM14.4 8.9h4.2V5.8h-4.2v3.1zm0 5.3h4.2V11h-4.2v3.2zm0 5.4h4.2v-3.2h-4.2v3.2zm7.5 0h4.2v-3.2h-4.2s0 3.2 0 3.2zm0-5.4h4.2V11h-4.2c0 .1 0 3.2 0 3.2zm0-5.3h4.2V5.8h-4.2s0 3.1 0 3.1zm7.4 10.7h4.2v-3.2h-4.2v3.2zm0-5.4h4.2V11h-4.2v3.2zm0-5.3h4.2V5.8h-4.2v3.1z"/></svg>