<svg xmlns="http://www.w3.org/2000/svg" width="60" height="52" viewBox="-26.5 24.5 60 52"><path fill="#FFF" d="M24.1 55.3c-3.1 2.9-6.8 4.3-10.3 4.3-1.2.1-2.6.1-4.3 0h-.1s0 0 .1 0c-.2.1-2.3.7-4.2 1.8.4.4.6.6.7.7l.2.2-.2.2L4.2 64l-.2.2-.2-.2c-.3-.3-.6-.6-.9-.9-.2.2-.4.4-.6.6l-.2.2-.1-.2-1.8-1.5L0 62l.2-.2s.1-.1.3-.3c-1.8-1-3.6-1.6-3.9-1.6 0 0 0 0 .1 0h-.1c-1.6.1-3.1.1-4.3 0-3.6 0-7.3-1.5-10.3-4.3-5.5-5.1-6.7-12.9-2.6-17.3 1.7-1.8 4.1-2.9 6.8-3 3.7-.1 7.6 1.4 10.6 4.3 1.9 1.7 3.3 3.9 4.2 6.1.7 1.9 1 3.7.8 5.5.2 1.2.2 2.2.2 2.3 0 1.8.4 3.3 1 4.6.7-1.4 1.2-3 1.2-4.9 0-.1 0-1 .1-2.2-.1-1.7.1-3.6.8-5.5.9-2.3 2.3-4.4 4.2-6.1 5.5-5.1 13.3-5.7 17.4-1.3 1.7 1.8 2.6 4.3 2.5 7-.2 3.6-2 7.4-5.1 10.2zM5.6 62.1zm0 .4zm-7.6-7c.3-.4.6-.8.9-1.2l-.4.4-3.2-3-2.3 2.5 2.9 2.8-.2.2c.8-.4 1.6-.9 2.3-1.7zm-6.2-7l-2.5-2.3-2.3 2.4 2.4 2.3 2.4-2.4zm-1.8 2.9l2.4 2.3 2.4-2.4-2.4-2.3-2.4 2.4zm-1.2-5.7l-2.5-2.3-2.3 2.3 2.5 2.4 2.3-2.4zm.5-.6l2.1-2.1-2.4-2.3-2.1 2.1 2.4 2.3zm.6.5l2.5 2.3 2.1-2.1-2.5-2.3-2.1 2.1zm3 2.9l2.4 2.2 2-2.1-2.3-2.2-2.1 2.1zm-9.5 5.6c2.7 2.5 6 3.9 9.2 3.7.9 0 1.7-.2 2.5-.5l-2.7-2.6-2.4 2.4-.5-.5 2.4-2.4-2.4-2.3-3.7 3.7-.5-.5 3.7-3.7-2.4-2.3-4 4.1c.2.3.5.6.8.9zm-1.4-1.5l3.9-4-2.5-2.4-3.4 3.4c.6 1 1.2 2 2 3zm-2.2-3.8l3.1-3.1-3.5-3.3c-.6 1.9-.4 4.1.4 6.4zm6.6-11.4c-2.2.1-4.1.9-5.4 2.3-.7.7-1.2 1.6-1.5 2.5l.4-.5 3.5 3.4 2.3-2.3-3.9-3.6.5-.6 3.9 3.6 2.1-2.1-2.4-2.3.5-.4zm.2 0l2.3 2.2 1.6-1.6c-1.3-.4-2.6-.6-3.9-.6zm12.6 9.1c-.7-2-2-3.8-3.6-5.4-1.5-1.4-3.2-2.4-4.9-3l.5.5-1.6 1.6 2.4 2.3 2.2-2.3.5.5-2.2 2.3 2.5 2.4 2-2 .5.5-1.9 2 2.3 2.2 1.1-1.2.5.5c-.1-.3-.2-.6-.3-.9zm.3 1l-1.1 1.1L-.1 50c0-.8-.1-1.7-.4-2.5zm-.1 3.1l-1.6-1.5-2 2.1 3.1 2.9c.6-1.2 1-2.6 1-4l-.5.5zM.6 61.8zm0 .3c0 .1 0 .1 0 0zM2 63.4zm2.2.2zM27 46.5l-1.3 1.3.7.7c.2-.7.4-1.4.6-2zm-2.9 5.8c.8-1 1.4-2 1.9-3.1l-.9-.9-2.5 2.5 1.5 1.5zm-6.9-1.1l2 2 2.4-2.4-1.9-2-2.5 2.4zm1.9-2.9l-2.3-2.4-2.5 2.3 2.4 2.4 2.4-2.3zm-2.4 3.4L14.3 54l2.1 2.2 2.3-2.4-2-2.1zm-.6-.5l-2.4-2.4-2.3 2.2 2.4 2.4 2.3-2.2zm-2.9-3l-2.1-2.1-2.3 2.2 2 2.1 2.4-2.2zm.6-.5l2.5-2.3-2.1-2.1-2.5 2.4 2.1 2zm3-2.9l2.5-2.3-2.1-2.1-2.4 2.3 2 2.1zm.6.6l2.3 2.4 2.5-2.4-2.3-2.4-2.5 2.4zm2.8 2.9l1.9 2 2.5-2.5-1.9-1.9-2.5 2.4zm2.5 5.5c.3-.3.6-.6.9-.9l-1.5-1.6-2.4 2.4 1.1 1.1-.5.5-1.1-1.1-2.9 3c2.2-.4 4.5-1.6 6.4-3.4zm-7 3.6l-.3-.3.5-.5-2.1-2.2-2.8 2.7c1.4.5 3 .6 4.7.3zm-7.5-2.1c.7.7 1.5 1.3 2.3 1.6l-.2-.2 2.9-2.8-2.4-2.5-3.2 3-.4-.4c.3.5.6.9 1 1.3zm-1-1.4l3.1-2.9-2-2.1-1.6 1.5-.5-.5c0 1.4.3 2.8 1 4zm-1-4.1l1.5-1.4-1.1-1.1c-.2.8-.3 1.6-.4 2.5zm4.4-9C9 42.4 7.7 44.2 7 46.2c-.1.3-.2.6-.3.9l.5-.5 1.1 1.2 2.3-2.2-1.9-2 .5-.5 2 2 2.5-2.4-2.2-2.3.5-.5 2.2 2.3 2.4-2.3-1.6-1.6.5-.5c-1.7.6-3.4 1.6-4.9 3zm5.1-3l1.5 1.5 2.3-2.2c-1.2 0-2.5.2-3.8.7zm9.5 1.6c-1.4-1.5-3.3-2.2-5.5-2.3l.4.5-2.4 2.3 2.1 2.1 3.9-3.6.5.6-3.9 3.6 2.3 2.3 3.5-3.4.5.5c-.2-1-.7-1.9-1.4-2.6zm-1.9 6l1.9 1.9 1.3-1.3.5.5c.1-.5.1-1 .2-1.4 0-1.1-.1-2-.4-2.9l-3.5 3.2zM-.5 32.8c-.2-.7 0-1.5.7-2.3 0 0 .7-1.1 1.8-1.2.7-.1 1.4.3 2.2 1.1.3.4 2.3 3.3 4.5 3.4-.4 2-1.7 3.6-3.5 4.3-.3-.5-1.3-2.1-3.5-3-.1-.1-1.8-.9-2.2-2.3zm5.4-2.9c-1-1.1-2-1.5-3-1.4-1.5.1-2.4 1.5-2.4 1.6-.8 1-1.1 2-.8 3 .4 1.8 2.5 2.8 2.6 2.8 1.7.7 2.6 2 3 2.5-.4.1-.8.1-1.2.1-3.2 0-5.7-2.6-5.7-5.7 0-3.2 2.6-5.7 5.7-5.7 3.2 0 5.7 2.6 5.7 5.7 0 .1 0 .1 0 .2-1.6-.1-3.3-2.3-3.9-3.1zm-7.4 33.8c.5-.6 1.2-.9 1.9-.9.5 0 .9.1 1.2.4.3.3.5.7.5 1.2 0 .7-.3 1.4-.8 1.9L-6 72.8c-.9 1-2.3 1.2-3.1.4-.7-.7-.6-2.1.3-3.1l6.3-6.4zm9.3-.6c.7 0 1.3.3 1.9.9l6.3 6.5c.9 1 1.1 2.4.3 3.1-.8.7-2.1.5-3.1-.5l-6.3-6.5c-.9-1-1.1-2.4-.3-3.1.3-.3.7-.4 1.2-.4z"/></svg>