<svg xmlns="http://www.w3.org/2000/svg" width="60" height="60" viewBox="20 -20 60 60"><path fill="#00A2A7" d="M50-15C36.2-15 25-3.7 25 10c0 13.8 11.3 25 25 25 13.8 0 25-11.2 25-25-.1-13.8-11.2-25-25-25zm0 47.8c-12.5 0-22.7-10.2-22.7-22.8 0-12.5 10.2-22.8 22.7-22.8S72.7-2.6 72.7 10c0 12.5-10.3 22.8-22.7 22.8zM58.8-2H41.2c-1.6 0-3.1 1.5-3.1 3v17.8c0 1.7 1.3 3 3.1 3h17.7c1.6 0 3.1-1.5 3.1-3V1c-.1-1.6-1.5-3-3.2-3zm-4.4 3.8c0-.6.5-1.1 1-1.1H58c.6 0 1 .5 1 1.1v2.5c0 .6-.5 1.1-1 1.1h-2.6c-.6 0-1-.5-1-1.1V1.8zM50 5.3c2.6 0 4.8 2 4.8 4.6 0 2.5-2.1 4.6-4.8 4.6-2.6 0-4.8-2-4.8-4.6 0-2.5 2.2-4.6 4.8-4.6zm9.2 12.9c0 .5-.4.9-1 .9H41.7c-.5 0-1-.4-1-.9V8.1h2.1c-.2.6-.3 1.3-.3 2 0 4 3.3 7.2 7.4 7.2s7.4-3.3 7.4-7.2c0-.7-.1-1.5-.3-2h2.1l.1 10.1z"/></svg>