<svg xmlns="http://www.w3.org/2000/svg" width="13" height="13" viewBox="2.5 4.9 13 13"><path fill="#08A3A7" d="M5.4 16.9c-.6 0-1-.2-1.3-.7-.4-.4-.5-.9-.5-1.6V8.1c0-.7.2-1.2.6-1.6.4-.4.9-.7 1.3-.7H11c.2 0 .6.1.8.2.1.1.1.1.1.2s0 .1-.1.2l-.3.4c-.1.2-.1.2-.2.2h-.1c-.1 0-.2-.1-.3-.1H5.4c-.3 0-.5.1-.7.4-.3.2-.3.5-.3.8v6.5c0 .4.1.7.3.9.2.2.5.4.7.4h5.5c.3 0 .6-.1.7-.4.2-.2.3-.6.3-.9v-2c0-.1 0-.1.1-.2l.4-.5c.1-.1.1-.1.2-.1s.1 0 .2.1.1.1.1.1v2.5c0 .7-.2 1.2-.5 1.6-.4.4-.8.7-1.3.7l-5.7.1zm-.2-6c0-.1.1-.3.2-.4l.7-.9c.1-.1.2-.1.3-.1.1 0 .3.1.4.2l1.8 2 4.3-5.1c.1-.1.2-.2.4-.2.1 0 .3.1.4.2l.7.9c.1.1.2.2.2.4s-.1.4-.2.4L9 14.7c-.1.1-.2.2-.4.2-.1 0-.2-.1-.4-.2l-2.9-3.4s-.1-.2-.1-.4z"/></svg>