<svg xmlns="http://www.w3.org/2000/svg" width="60" height="60" viewBox="20 -20 60 60"><path fill="#00A2A7" d="M61.3 2.1v-4.9h-1.2v4.9h-4.9v1.2h4.9v4.9h1.2V3.3h4.9V2.1h-4.9zm-9.9 10.6c-.8-.6-2.3-1.9-2.3-2.7 0-.9.3-1.4 1.7-2.5s2.5-2.7 2.5-4.6c0-2.2-1-4.4-2.8-5.1h2.8l2-1.4s-6.6 0-8.7 0c-3.9 0-7.6 3-7.6 6.4 0 3.5 2.7 6.4 6.7 6.4.3 0 .5 0 .8 0-.3.5-.4 1.1-.4 1.6 0 1 .5 1.8 1.2 2.4-.5 0-1 0-1.5 0-4.9 0-8.6 3.1-8.6 6.3s4.1 5.1 9 5.1c5.5 0 8.6-3.1 8.6-6.3-.3-2.4-1-4-3.4-5.6zm-4.6-4.4c-2.3-.1-4.4-2.5-4.8-5.5s1.1-5.2 3.4-5.2c2.3.1 4.4 2.4 4.8 5.4.3 3-1.2 5.4-3.4 5.3zm-.9 15c-3.4 0-5.8-2.1-5.8-4.7 0-2.5 3-4.6 6.4-4.6.8 0 1.5.1 2.2.4 1.8 1.3 3.1 2 3.5 3.4.1.3.1.6.1.9 0 2.6-1.7 4.6-6.4 4.6zM50-15C36.2-15 25-3.8 25 10s11.2 25 25 25 25-11.2 25-25-11.2-25-25-25zm0 47.7c-12.5 0-22.6-10.2-22.6-22.7S37.5-12.7 50-12.7c12.5 0 22.6 10.2 22.6 22.7S62.5 32.7 50 32.7z"/></svg>