<svg xmlns="http://www.w3.org/2000/svg" width="22" height="20" viewBox="10.6 -0.2 22 20"><path fill="#FFF" d="M30.1 8.3c-.2-.1-1.5-1.3-2.8-1.6-.1.5-.3 1.1-.5 1.5 0 0 0 0 .1 0 .7 0 3.1 1.7 3.1 2.3v5.9c-.2-.1-.4-.3-.5-.4-1-.8-2.2-1.7-3.1-1.6s-1.8.8-2.8 1.5c-.6.5-1.7 1.3-2.1 1.2-.4-.1-1-.6-1.6-.9-.9-.7-1.9-1.5-3-1.5-.1 0-.1 0-.2 0s-.1 0-.2 0c-1 0-2 .8-3 1.6-.1.1-.3.3-.5.4v-5.9c.1-.6 2.3-2.4 3-2.4.1 0 .1 0 .1 0-.2-.5-.3-1-.4-1.5-1.2.2-2.6 1.5-2.8 1.6-.6.6-1.5 1.5-1.5 2.3v6.9c0 .6.4.9.6 1 .1.1.3.1.4.1.6 0 1.2-.5 2.1-1.2.6-.4 1.7-1.3 2.1-1.3.1 0 .1 0 .2 0s.1 0 .1 0c.6 0 1.4.6 2.1 1.1.7.5 1.4 1.1 2.2 1.3.1 0 .3.1.4.1 1 0 2-.8 3-1.5.6-.5 1.5-1.1 1.9-1.1.4 0 1.5.9 2.1 1.3 1.1.8 1.8 1.4 2.4 1.1.2-.1.6-.3.6-.9v-6.9c-.1-.9-.6-1.6-1.5-2.5zm-8.7 4.6S26 9 26 5.7c0-2.6-2-4.9-4.6-4.9S16.8 3 16.8 5.7c0 3.3 4.6 7.2 4.6 7.2zm-2.1-7.4c0-1.1 1-2.1 2.1-2.1s2.1.9 2.1 2.1-1 2.1-2.1 2.1-2.1-1-2.1-2.1z"/></svg>