<svg xmlns="http://www.w3.org/2000/svg" width="64" height="60" viewBox="-21 21 64 60"><path fill="#FFF" d="M-4.4 71.8l37.3-21c-1.3-2.2-.5-5 1.8-6.3l-8.5-15.1c-2.2 1.3-5 .5-6.3-1.8v-.1l-37.3 21.1s0 0 0 .1c1.3 2.2.5 5-1.8 6.3h-.1l8.5 15.1s0 0 .1 0c2.3-1.3 5.1-.5 6.3 1.7zm-5.4-4.1l-6.9-12.2c1.5-1.6 2.2-3.9 1.7-6L19.4 30c1.6 1.5 3.8 2.2 5.9 1.7l6.9 12.2c-1.5 1.6-2.1 3.8-1.6 5.9L-3.9 69.2c-1.6-1.4-3.8-2-5.9-1.5zm39.6-18.2c-.3-2 .3-4 1.6-5.6L25 32.6c-2 .3-4.1-.3-5.7-1.6l-33.5 18.9c.3 2-.3 4.2-1.6 5.8L-9.4 67c2-.3 4.1.2 5.7 1.6l33.5-19.1zM18.7 38.3l2.3 2.1 2.8-1.6-1.3 2.9 2.3 2.1-3.1-.3-1.3 2.9-.6-3.1-3.1-.4 2.8-1.6-.8-3zM10 43.2l2.3 2.1 2.8-1.6-1.3 2.9 2.3 2.1-3.1-.4-1.3 2.9-.6-3.1-3.1-.3 2.8-1.6-.8-3zm-8.6 5l2.3 2.1 2.8-1.6-1.3 2.9 2.3 2.1-3.1-.4-1.3 2.9-.6-3.1-3.1-.4 2.8-1.6-.8-2.9zm-7 12.9l-.6-3.1-3.1-.4 2.8-1.5-.6-3.1 2.3 2.1 2.6-1.5-1.3 2.9 2.3 2.1-3.1-.4-1.3 2.9zm42.3-13L33 48c-.1.6 0 1.3.2 1.9H35c.6 2.1 2.3 3.8 4.3 4.4v14c-2.1.6-3.7 2.3-4.3 4.3H-4.6l-.3-.5c-.7-1.3-2.1-2-3.5-2-.3 0-.7 0-1 .1 1.9.6 3.2 2.3 3.2 4.4h42.9c0-2.5 2.1-4.6 4.6-4.6V52.7c-2.5 0-4.6-2.1-4.6-4.6zm-17 10.7l-1.5.8h1.2l.3-.8zm1.7 1h3.2L22 61.6l1 3-2.6-1.9-2.6 2 1-3-1.7-1.2-4.6 2.5.5 1.6-1.5-1.1L-3.4 72h38c.7-1.9 2.2-3.4 4.1-4.1v-13c-1.9-.7-3.4-2.3-4.2-4.2h-1l.2.4-12.9 7.3.6 1.4zm8 0l1-3 1 3h3.2l-2.7 1.8 1 3-2.6-1.9-2.5 2 1-3-2.6-1.9s3.2 0 3.2 0z"/></svg>