<svg id="Layer_1" xmlns="http://www.w3.org/2000/svg" viewBox="0 0 26 24"><style>.st0{fill:#9E9E9E;}</style><path class="st0" d="M23 3.5h-3.8V1.2c0-.3-.3-.6-.6-.6s-.6.3-.6.6v2.4H8V1.2c0-.3-.3-.6-.6-.6s-.6.3-.6.6v2.4H3c-1.1 0-2 .9-2 2v15.9c0 1.1.9 2 2 2h20c1.1 0 2-.9 2-2V5.6c0-1.2-.9-2.1-2-2.1zm.8 18c0 .4-.4.8-.8.8H3c-.4 0-.8-.4-.8-.8V5.6c0-.5.3-.8.8-.8h3.8v1.7c0 .3.3.5.6.5s.6-.2.6-.5V4.7h10v1.7c0 .2.1.3.2.4.1.2.2.2.4.2.3 0 .6-.3.6-.6V4.7H23c.4 0 .8.4.8.8v16zm-6.9-11.4l-5.5 5.5-2.3-2.4c-.2-.2-.6-.2-.8 0-.2.2-.2.6 0 .8l2.7 2.8c.1.1.3.2.4.2.2 0 .3-.1.4-.2l5.9-5.9c.2-.2.2-.6 0-.8-.2-.2-.6-.2-.8 0z"/></svg>