<svg xmlns="http://www.w3.org/2000/svg" width="70" height="48" viewBox="-19.5 27 70 48"><path fill="#FFF" d="M23.6 71.2c4.5-2 8.1-5.6 10.7-10.8.2-.5.5-.9.7-1.4 7.2 1.9 12.3 5.7 12.3 5.7s-10.8 8-23.7 6.5zm-13.2.1c.4-1.3 1-2.9 1.3-4.1 4.5-17.7 17.5-16.3 23.5-16.6-.4 2.2-1.3 5.5-3 8.8-7 14.3-20.4 11.7-21.8 11.9zm12.2-21.4c-3.8 1.6-6.9 3.9-9.2 6.7-2.1-2.8-4.8-5.1-8.3-6.7-.2-3.3.6-6.8 2.3-10.4 2.2-4.6 5.4-8.1 6.8-9.5 2.3 2.2 8.8 9.3 9.3 17.7 0 .6 0 1.3 0 1.9-.3.1-.6.2-.9.3zM12 59c-2.7 4.5-3.4 10.3-3.5 10.6-5.4-1.5-9.7-5.2-12.7-10.9-1.7-3.2-2.6-6.5-3.1-8.6 4.7.1 15 1.2 19.3 8.9zm-18.3.8c3 5.7 7.1 9.5 12.3 11.5-12.5 1.2-23-6.5-23-6.5 4.5-3.4 4.2-3.2 10.6-5.2 0 0 .1.1.1.2z"/></svg>