<svg xmlns="http://www.w3.org/2000/svg" width="34" height="32" viewBox="13 -6.2 34 32"><path fill="#FFF" d="M43.7 7.3c-.3-.2-2.5-2.2-4.4-2.7-.2.9-.5 1.7-.8 2.5h.1c1.1 0 4.9 2.8 4.9 3.9v10c-.3-.2-.6-.5-.8-.7-1.7-1.4-3.4-2.9-5-2.8-1.4.1-2.9 1.2-4.4 2.5-1 .8-2.6 2.1-3.3 2-.7-.2-1.6-.9-2.5-1.6-1.4-1.2-3-2.4-4.9-2.5-.1 0-.2 0-.3 0s-.2 0-.2 0c-1.5 0-3.2 1.4-4.8 2.8-.2.2-.6.5-.8.7v-9.9c.2-1.1 3.7-3.9 4.8-3.9.1 0 .2 0 .2 0-.2-.8-.6-1.6-.7-2.5-1.9.3-4.2 2.4-4.5 2.7-1 1.1-2.3 2.5-2.3 3.9v11.4c0 1.1.6 1.5.9 1.6.2.1.5.2.6.2.9 0 1.9-.8 3.3-2 1-.7 2.6-2.2 3.3-2.2.1 0 .2 0 .2 0s.2 0 .2 0c1 0 2.2 1 3.4 1.9 1.1.9 2.2 1.8 3.4 2.1.2.1.4.1.6.1 1.6 0 3.2-1.2 4.7-2.5 1-.8 2.3-1.9 3-1.9.6 0 2.4 1.5 3.3 2.2 1.7 1.4 2.8 2.3 3.9 1.7.2-.2.9-.6.9-1.6V11.1c.3-1.1-.5-2.3-2-3.8zM29.8 15s7.4-6.4 7.4-12c0-4.4-3.2-8.2-7.4-8.2S22.5-1.5 22.5 3c-.1 5.6 7.3 12 7.3 12zM26.4 2.6c0-1.9 1.5-3.5 3.4-3.5 1.8 0 3.4 1.6 3.4 3.5s-1.5 3.5-3.4 3.5-3.4-1.5-3.4-3.5z"/></svg>