<svg xmlns="http://www.w3.org/2000/svg" width="26" height="18" viewBox="14.6 1.4 26 18"><path fill="#FFF" d="M17.2 9.3h1.6c.1 0 .1-.1.1-.1.1-1 .8-1.7 1.7-1.7.1 0 .3 0 .3 0H25c.1 0 .2 0 .3 0 .9.1 1.7.8 1.7 1.7 0 .1.1.1.1.1h.6c.1 0 .1-.1.1-.1.1-.9.8-1.7 1.7-1.7.1 0 .2 0 .3 0h4.1c.1 0 .2 0 .3 0 .9.1 1.7.8 1.7 1.7 0 .1.1.1.1.1h1.9c.1 0 .1-.1.1-.1V5c0-.1-.1-.2-.1-.2-2.9-1.5-6.4-2.4-10.1-2.4-.1 0-.2 0-.3 0-3.7 0-7.3.9-10.4 2.4-.1 0-.1.1-.1.2v4.2c.1.1.1.1.2.1zm-1.4 5.5h23.7c.1 0 .1-.1.1-.1v-3.4c0-.1 0-.2 0-.3-.1-.4-.4-.8-.8-.8-.1 0-.2 0-.3 0H16.7c-.1 0-.2 0-.3 0-.4.1-.8.4-.8.8 0 .1 0 .2 0 .3v3.3c.1.1.1.2.2.2zm23.7.9H15.8c-.1 0-.1.1-.1.1v.6c0 .1.1.1.1.1h1.6c.1 0 .1.1.1.1v1.6c0 .1.1.1.1.1h1.5c.1 0 .1-.1.1-.1v-1.5c0-.1.1-.1.1-.1h16.3c.1 0 .1.1.1.1v1.5c0 .1.1.1.1.1h1.5c.1 0 .1-.1.1-.1v-1.5c0-.1.1-.1.1-.1h1.6c.1 0 .1-.1.1-.1v-.6c.4-.2.4-.2.3-.2z"/></svg>