<svg xmlns="http://www.w3.org/2000/svg" width="60" height="60" viewBox="35.5 -19.5 60 60"><path fill="#FFF" d="M76.8 2.6v-4.9h-1.2v4.9h-4.9v1.2h4.9v4.9h1.2V3.8h4.9V2.6h-4.9zm-9.9 10.6c-.8-.6-2.3-1.9-2.3-2.7 0-.9.3-1.4 1.7-2.5s2.5-2.7 2.5-4.6c0-2.2-1-4.4-2.8-5.1h2.8l2-1.4s-6.6 0-8.7 0c-3.9 0-7.6 3-7.6 6.4 0 3.5 2.7 6.4 6.7 6.4.3 0 .5 0 .8 0-.3.5-.4 1.1-.4 1.6 0 1 .5 1.8 1.2 2.4-.5 0-1 0-1.5 0-4.9 0-8.6 3.1-8.6 6.3s4.1 5.1 9 5.1c5.5 0 8.6-3.1 8.6-6.3-.3-2.4-1-4-3.4-5.6zm-4.6-4.4c-2.3-.1-4.4-2.5-4.8-5.5s1.1-5.2 3.4-5.2c2.3.1 4.4 2.4 4.8 5.4.3 3-1.2 5.4-3.4 5.3zm-.9 15c-3.4 0-5.8-2.1-5.8-4.7 0-2.5 3-4.6 6.4-4.6.8 0 1.5.1 2.2.4 1.8 1.3 3.1 2 3.5 3.4.1.3.1.6.1.9 0 2.6-1.7 4.6-6.4 4.6zm4.1-38.3c-13.8 0-25 11.2-25 25s11.2 25 25 25 25-11.2 25-25-11.2-25-25-25zm0 47.7C53 33.2 42.9 23 42.9 10.5S53-12.2 65.5-12.2C78-12.2 88.1-2 88.1 10.5S78 33.2 65.5 33.2z"/></svg>