<svg xmlns="http://www.w3.org/2000/svg" width="40" height="40" viewBox="40 -10 40 40"><path fill="#333" d="M60-7C50.6-7 43 .6 43 10s7.6 17 17 17 17-7.6 17-17S69.4-7 60-7zm0 32.4c-8.5 0-15.4-6.9-15.4-15.4S51.5-5.4 60-5.4 75.4 1.5 75.4 10 68.5 25.4 60 25.4zm9.9-22.5c-.8.5-1.6.8-2.6 1-.7-.8-1.8-1.3-2.9-1.3-2.2 0-4.1 1.8-4.1 4.1 0 .3.1.6.1.9-3.3-.2-6.3-1.8-8.4-4.2-.4.6-.6 1.3-.6 2.1 0 1.4.7 2.7 1.8 3.4-.7 0-1.3-.2-1.8-.5v.1c0 2 1.4 3.6 3.2 4-.4.1-.7.2-1.1.2-.3 0-.5 0-.8-.1.5 1.6 2 2.8 3.8 2.8-1.4 1.1-3.1 1.8-5 1.8-.4 0-.7 0-1-.1 1.8 1.2 3.9 1.8 6.2 1.8 7.5 0 11.5-6.2 11.5-11.5 0-.2 0-.4 0-.5.8-.6 1.5-1.3 2-2.1-.7.3-1.5.6-2.3.7 1-.9 1.7-1.7 2-2.6z"/></svg>