<svg xmlns="http://www.w3.org/2000/svg" width="60" height="60" viewBox="-30.7 21.4 60 60"><path fill="#CCC" d="M22 61.2c-3.9-9.1-12.8-15-22.7-15-11.6.1-21.7 8.3-24.2 19.6-.3 1.5 0 3.1 1 4.3s2.4 1.9 4 1.9h38.3c1.6 0 3-.7 4-1.9s1.4-2.8 1-4.3c-.2-1.6-.7-3.1-1.4-4.6zM-.7 65.3c-3.4 0-6.2-2.8-6.2-6.2s2.8-6.2 6.2-6.2 6.2 2.8 6.2 6.2c0 3.5-2.8 6.2-6.2 6.2zm-19.1-18.5c1 0 1.9-.3 2.8-.8 4.9-3.2 10.5-4.9 16.3-4.9s11.5 1.7 16.3 4.9c2.4 1.6 5.6.9 7.1-1.5 1.6-2.4.9-5.6-1.5-7.1-6.5-4.3-14.1-6.6-21.9-6.6s-15.4 2.3-22 6.5c-2.4 1.6-3 4.8-1.5 7.1 1 1.6 2.7 2.4 4.4 2.4z"/></svg>