<svg xmlns="http://www.w3.org/2000/svg" width="48" height="48" viewBox="-30.5 27 48 48"><path fill="#FFF" d="M11.2 52L8 55.1-5.7 41.4c-.1-.1-.1-.1-.2-.1s-.1 0-.2 0-.3.1-.4.2l-7 7c-.4.4-.9.6-1.4.6-.5 0-1-.2-1.4-.6l-.5-.5c-.8-.8-.8-2 0-2.8l9.5-9.5 1-1s.1-.1.1-.1c2.3-2.3 5.3-3.5 8.6-3.5s6.4 1.3 8.7 3.6c2.3 2.3 3.6 5.4 3.6 8.7.1 3.2-1.2 6.3-3.5 8.6zm-28.7-3.3l.5.5c.6.6 1.3.9 2.2.9s1.6-.3 2.2-.9l6.5-6.5L7.7 56.5c.4.4.6.9.6 1.4 0 .5-.2 1-.6 1.4-.4.4-.9.6-1.4.6-.5 0-1-.2-1.4-.6l-7.4-7.4c-.2-.2-.6-.2-.8 0l-.1.1c-.1.1-.2.2-.2.4s.1.3.2.4l8 8c.4.4.6.9.6 1.4 0 .5-.2 1-.6 1.4-.4.4-.9.6-1.4.6-.5 0-1-.2-1.4-.6l-8-8c-.1-.1-.2-.2-.4-.2-.1 0-.3.1-.4.2l-.1.1c-.2.2-.2.6 0 .8l8 8c.8.8.8 2 0 2.8-.4.4-.9.6-1.4.6-.5 0-1-.2-1.4-.6l-.2-.3c.4-1.1.2-2.4-.7-3.3-.6-.6-1.4-.9-2.2-.9 0 0 0 0-.1 0 .8-1.2.6-2.8-.4-3.8-.5-.6-1.3-1-2.1-1-.1 0-.3 0-.4 0 .1-.3.2-.7.2-1 0-.8-.3-1.6-.9-2.2-.7-.5-1.5-.8-2.3-.8-.7 0-1.3.2-1.8.6 0-.8-.3-1.6-.9-2.2-.6-.6-1.4-.9-2.2-.9-.8 0-1.6.3-2.2.9l-3 3-3.4-3.4c-4.8-4.8-4.8-12.6 0-17.4 2.3-2.3 5.4-3.6 8.7-3.6 3.1 0 6 1.1 8.3 3.2l-10 10c-1.2 1.3-1.2 3.3 0 4.5zm-3.1 7.9l3.4-3.4c.4-.4.9-.6 1.4-.6.5 0 1 .2 1.4.6.8.8.8 2 0 2.8l-3.4 3.4c-.1.1-.3.3-.5.3-.3.1-.6.2-.9.2-.5 0-1-.2-1.4-.6-.4-.4-.6-.9-.6-1.4 0-.3.1-.6.2-.9.1-.1.2-.3.4-.4zm3.7 3.7l4.6-4.6c.4-.4.9-.6 1.4-.6.5 0 1 .2 1.4.6.4.4.6.9.6 1.4 0 .5-.2 1-.6 1.4l-4.2 4.2-.4.4c-.1.1-.3.3-.5.3-.3.1-.6.2-.9.2-.5 0-1-.2-1.4-.6-.6-.6-.7-1.5-.3-2.3 0-.1.1-.3.3-.4zm3.6 3.7l.4-.4 2.8-2.8 1.1-1.1c.4-.4.9-.6 1.4-.6.5 0 1 .2 1.4.6.8.8.8 2 0 2.8l-3.9 3.9-.4.4c-.1.1-.3.3-.5.3-.3.1-.6.2-.9.2-.5 0-1-.2-1.4-.6-.6-.6-.7-1.5-.3-2.3.1-.1.2-.3.3-.4zm3.7 3.7l3.2-3.2c.3-.3.7-.5 1.2-.6.1 0 .1 0 .2 0 .5 0 1 .2 1.4.6.4.4.6 1 .6 1.6 0 .4-.2.9-.6 1.2l-2.8 2.8-.4.4c-.1.1-.3.3-.5.3-.3.1-.6.2-.9.2-.5 0-1-.2-1.4-.6-.6-.6-.7-1.5-.3-2.3.1-.1.2-.3.3-.4zm6.2 2.7c-.4.4-.9.6-1.4.6-.3 0-.6-.1-.8-.2l2.6-2.6c.4.7.2 1.6-.4 2.2z"/></svg>