<svg xmlns="http://www.w3.org/2000/svg" width="18" height="18" viewBox="-3.5 1.5 18 18"><path fill="#999" d="M11.8 4.2h-2v-.9c-.1-.3-.3-.5-.6-.5s-.4.2-.4.5v.9H6v-.9c0-.3-.2-.5-.5-.5S5 3 5 3.3v.9H2.2v-.9c0-.3-.2-.5-.4-.5s-.5.2-.5.5v.9h-2c-.7 0-1.3.6-1.3 1.3v11.1c0 .7.6 1.2 1.2 1.2h12.5c.7 0 1.2-.6 1.2-1.2V5.5c.1-.7-.5-1.3-1.1-1.3zm.3 12.4c0 .2-.1.3-.3.3H-.8c-.2 0-.3-.1-.3-.3V5.5c0-.2.1-.3.3-.3h2v.9c0 .3.2.5.5.5s.5-.2.5-.5v-.9H5v.9c0 .3.2.5.5.5s.5-.2.5-.5v-.9h2.8v.9c0 .3.2.5.5.5s.5-.2.5-.5v-.9h2c.2 0 .3.1.3.3v11.1zM1.3 9.8h1.9V8.4H1.3v1.4zm0 2.4h1.9v-1.4H1.3v1.4zm0 2.3h1.9v-1.4H1.3v1.4zm3.3 0h1.9v-1.4H4.6v1.4zm0-2.3h1.9v-1.4H4.6v1.4zm0-2.4h1.9V8.4H4.6v1.4zm3.2 4.7h1.9v-1.4H7.8v1.4zm0-2.3h1.9v-1.4H7.8v1.4zm0-2.4h1.9V8.4H7.8v1.4z"/></svg>