<svg xmlns="http://www.w3.org/2000/svg" width="50" height="60" viewBox="-29.5 21 50 60"><path fill="#FFF" d="M-4 42.7l-6.5 6.5c-.6.6-1.4.9-2.2.9s-1.6-.3-2.2-.9l-.5-.5c-1.2-1.2-1.2-3.1 0-4.3l10-10c-2.3-2.1-5.2-3.2-8.3-3.2-3.2-.1-6.3 1.2-8.6 3.5-4.8 4.8-4.8 12.6 0 17.4l3.4 3.3 3-3c.6-.6 1.4-.9 2.2-.9s1.6.3 2.2.9c.6.6.9 1.4.9 2.2.5-.4 1.2-.6 1.8-.6.8 0 1.6.3 2.2.9.6.6.9 1.4.9 2.2 0 .3-.1.7-.2 1 .1 0 .3 0 .4 0 .8 0 1.6.3 2.2.9 1 1 1.2 2.6.4 3.8 0 0 0 0 .1 0 .8 0 1.6.3 2.2.9.9.9 1.1 2.2.7 3.3l.3.3c.4.4.9.6 1.4.6s1-.2 1.4-.6c.8-.8.8-2 0-2.8l-8-8c-.2-.2-.2-.6 0-.8l.1-.1c.1-.1.2-.2.4-.2.1 0 .3.1.4.2l8 8c.4.4.9.6 1.4.6s1-.2 1.4-.6.6-.9.6-1.4-.2-1-.6-1.4l-8-8c-.1-.1-.2-.2-.2-.4 0-.1.1-.3.2-.4l.1-.1c.2-.2.6-.2.8 0l7.4 7.4c.4.4.9.6 1.4.6s1-.2 1.4-.6.6-.9.6-1.4-.2-1-.6-1.4L-4 42.7zm.6 28c.3.1.5.2.8.2.5 0 1-.2 1.4-.6.6-.6.7-1.5.4-2.2l-2.6 2.6zm-9-17.5c-.4-.4-.9-.6-1.4-.6s-1 .2-1.4.6l-3.4 3.4c-.1.1-.3.3-.3.5-.1.3-.2.6-.2.9 0 .5.2 1 .6 1.4s.9.6 1.4.6c.3 0 .6-.1.9-.2.2-.1.3-.2.5-.3l3.4-3.4c.7-.9.7-2.1-.1-2.9zM-.9 66c.1-.6-.1-1.1-.6-1.6-.4-.4-.9-.6-1.4-.6-.1 0-.1 0-.2 0-.5 0-.9.2-1.2.6l-3.2 3.2c-.1.1-.3.3-.3.5-.4.7-.3 1.7.3 2.3.4.4.9.6 1.4.6.3 0 .6-.1.9-.2.2-.1.3-.2.5-.3l.4-.4 2.8-2.8c.3-.4.5-.8.6-1.3zm-3.2-6.3c-.4-.4-.9-.6-1.4-.6s-1 .2-1.4.6L-8 60.8l-2.8 2.8-.3.4c-.1.1-.3.3-.3.5-.4.7-.3 1.7.3 2.3.4.4.9.6 1.4.6.3 0 .6-.1.9-.2.2-.1.3-.2.5-.3l.4-.4 3.9-3.9c.6-.9.6-2.1-.1-2.9zm-2.8-2.6c0-.5-.2-1-.6-1.4s-.9-.6-1.4-.6-1 .2-1.4.6l-4.6 4.6c-.1.1-.3.3-.3.5-.4.7-.3 1.7.3 2.3.4.4.9.6 1.4.6.3 0 .6-.1.9-.2.2-.1.3-.2.5-.3l.4-.4 4.2-4.2c.4-.5.6-1 .6-1.5zm20.2-22.5C11 32.3 7.9 31 4.6 31c-3.2 0-6.3 1.2-8.6 3.5l-.1.1-1 1-9.5 9.5c-.8.8-.8 2 0 2.8l.5.5c.4.4.8.6 1.4.6.5 0 1-.2 1.4-.6l7-7c.1-.1.3-.2.4-.2s.1 0 .2 0 .2.1.2.1l13.6 13.8 3.2-3.2c2.3-2.3 3.6-5.4 3.6-8.7 0-3.2-1.3-6.3-3.6-8.6z"/></svg>