<svg xmlns="http://www.w3.org/2000/svg" width="60" height="60" viewBox="-33.4 21 60 60"><path fill="#FFF" d="M14.1 58.9c-.6 0-1.2-.5-1.2-1.2 0-.6.5-1.1 1.2-1.1.6 0 1.2.5 1.2 1.1-.1.7-.6 1.2-1.2 1.2zm-2.2-4.6c-1.5 0-2.8-1.3-2.8-2.8s1.3-2.8 2.8-2.8 2.8 1.3 2.8 2.8-1.2 2.8-2.8 2.8zm-3.4 8.3c-3.2 1.6-7.4 1.5-11.9 1.5s-8.7.1-11.9-1.5c-1.7-.9-2.2-1.8-1.5-3.1.5-1 1.1-2 1.7-3 .6-1 1.6-1.6 3.2-1.8 2.8-.2 5.7-.2 8.5-.3 2.9.1 5.8.1 8.5.3 1.6.1 2.7.7 3.2 1.8.6 1 1.2 2 1.7 3 .7 1.3.2 2.3-1.5 3.1zm-27.2-8.3c-1.5 0-2.8-1.3-2.8-2.8s1.3-2.8 2.8-2.8 2.8 1.3 2.8 2.8-1.3 2.8-2.8 2.8zm-2.2 4.6c-.6 0-1.1-.5-1.1-1.2 0-.6.5-1.1 1.1-1.1.6 0 1.2.5 1.2 1.1 0 .7-.5 1.2-1.2 1.2zm5.5-23c.4-.8.6-1 1.5-1.1 3.5-.5 6.7-.7 10.5-.7s7 .2 10.5.7c.9.1 1.1.4 1.5 1.1 1.4 2.7 2.3 5.1 3.5 8-5.3 0-25.7 0-31 0 1.2-2.9 2.1-5.3 3.5-8zm34.5 5.7c-.3-.7-1.3-1.2-2.8-1.2-1.9-.1-2.6 1.9-1.3 2.9 0 .5-.1.9-.5 1.1-.1-.1-.2-.3-.3-.4-.2-.5-.5-1-.7-1.6-1-2.6-2.1-5.1-3.2-7.7-.3-.9-1.2-1.6-2.1-1.8C5 32.2.9 32-3.4 32s-8.4.2-11.6.9c-.9.2-1.8.9-2.1 1.8-1.2 2.7-2.2 5.1-3.2 7.7-.3.6-.5 1.1-.7 1.6-.1.1-.2.3-.3.4-.4-.2-.5-.6-.5-1.1 1.3-1 .6-3-1.3-2.9-1.5.1-2.5.5-2.8 1.2-.1.2-.1.3-.1.5.1 1 1 1.4 2.1 1.6.5.1.6 0 .8.5.3.5.6 1.5.9 2.1-.2.5-.3 1.1-.4 1.6-.3 1.1-.9 2-1.4 2.9-.6 1.2-.8 2.3-.9 3.6-.1 1.5 0 3.1.3 5-.3 3.2-.1 6.2.2 9.1.1.7.4 1.2 1.1 1.5h2.3c.6 0 1.2.1 1.7-.3.9-.7.6-2.3.7-3.3h30.5c0 1-.2 2.5.7 3.3.5.4 1 .3 1.7.3h2.3c.6-.3 1-.8 1.1-1.5.3-2.9.5-5.9.2-9.1.3-1.8.3-3.5.3-5-.1-1.4-.3-2.4-.9-3.6-.5-.9-1-1.8-1.4-2.9-.1-.5-.2-1.1-.4-1.6.3-.6.6-1.6.9-2.1.2-.5.4-.4.8-.5 1.1-.1 2-.5 2.1-1.6-.1-.2-.1-.3-.2-.5z"/></svg>