<svg xmlns="http://www.w3.org/2000/svg" width="24" height="38" viewBox="-37 32 24 38"><path fill="#333" d="M-21.4 51.9V38c0-1.3-.5-2.6-1.5-3.6-.9-.9-2.2-1.4-3.6-1.4-2.8 0-5 2.3-5 5.1v13.6c-2.8 1.7-4.5 4.7-4.5 8 0 5.1 4.2 9.3 9.4 9.3s9.4-4.2 9.4-9.4c-.1-3.1-1.7-6-4.2-7.7zm-5.2 15c-4 0-7.3-3.3-7.3-7.3 0-2.7 1.5-5.2 3.9-6.4l.6-.3V38c0-1.6 1.3-3 2.9-3 .8 0 1.5.3 2.1.9.6.6.9 1.3.9 2.1v15l.5.3c2.2 1.3 3.6 3.7 3.6 6.3 0 4-3.2 7.3-7.2 7.3zm1.1-11.2V42.9c0-.6-.5-1-1-1-.6 0-1 .5-1 1v12.7c-1.9.4-3.3 2.1-3.3 4.1 0 2.3 1.9 4.2 4.2 4.2s4.2-1.9 4.2-4.2c0-1.9-1.3-3.5-3.1-4zm6.7-12.6h3.8c.6 0 1-.5 1-1 0-.6-.5-1-1-1h-3.8c-.6 0-1.1.5-1.1 1 .1.5.5 1 1.1 1zm3.8 1.2h-3.8c-.6 0-1.1.5-1.1 1 0 .6.5 1 1.1 1h3.8c.6 0 1-.5 1-1 .1-.5-.4-1-1-1zm0 3.4h-3.8c-.6 0-1.1.5-1.1 1 0 .6.5 1 1.1 1h3.8c.6 0 1-.5 1-1 .1-.6-.4-1-1-1z"/></svg>