<svg xmlns="http://www.w3.org/2000/svg" width="130" height="150" viewBox="-84 76 130 150"><path fill="#FFF" d="M29.7 143.9c0 13.5-5.5 25.8-14.4 34.7S-5.8 193-19.4 193-45 186.6-54 178.6c-8.9-8.9-14.4-21.1-14.4-34.7 0-13.5 5.5-25.8 14.4-34.7s21.1-14.4 34.7-14.4 26.2 3 34.4 11.9c7.5 6.7 14.6 23.6 14.6 37.2z"/><path fill="none" d="M-20.2 184.8c23.6 0 42.8-19.2 42.8-42.8 0-10.9-4.1-20.8-10.8-28.4L-48.6 174c7.6 6.7 17.5 10.8 28.4 10.8zM-63.1 142c0 10.8 4.1 20.6 10.6 28.2l60.4-60.4C.4 103.2-9.5 99.2-20.2 99.2c-23.6 0-42.9 19.2-42.9 42.8z"/><path fill="#F99F33" d="M16.9 108.6l-5.1 5.1c6.7 7.6 10.8 17.5 10.8 28.4 0 23.6-19.2 42.8-42.8 42.8-10.9 0-20.8-4.1-28.4-10.8l-5.1 5.1c8.8 8 20.6 12.9 33.4 12.9 27.6 0 50-22.4 50-50 0-13-4.9-24.7-12.8-33.5zM-63.1 142c0-23.6 19.3-42.8 42.9-42.8 10.8 0 20.6 4.1 28.2 10.6l5.1-5.1C4.2 96.9-7.5 92-20.2 92c-27.7 0-50.1 22.4-50.1 50 0 12.8 4.9 24.4 12.7 33.3l5.1-5.1c-6.5-7.6-10.6-17.4-10.6-28.2z"/><path fill="#333" d="M16.9 108.6l-5.1 5.1c6.7 7.6 10.8 17.5 10.8 28.4 0 23.6-19.2 42.8-42.8 42.8-10.9 0-20.8-4.1-28.4-10.8l-5.1 5.1c8.8 8 20.6 12.9 33.4 12.9 27.6 0 50-22.4 50-50 0-13-4.9-24.7-12.8-33.5z"/><path fill="#333" d="M10.9 181.1l-15.9 15-15.9 15.9-16-16.3-16.8-16.6 33.4 9.1"/></svg>