<svg xmlns="http://www.w3.org/2000/svg" width="22" height="18" viewBox="-1 2.03 22 18"><path fill="#FFF" d="M.54 8.08H4v.97c0 1.1.89 1.99 1.99 1.99s1.99-.89 1.99-1.99v-.97h11.48c.3 0 .54-.24.54-.54S19.76 7 19.46 7H7.98v-.94c0-1.1-.89-1.99-1.99-1.99S4 4.96 4 6.06v.93H.54c-.3 0-.54.25-.54.54 0 .3.24.55.54.55zm18.92 5.88h-4.52v-.93c0-1.1-.89-1.99-1.99-1.99s-1.99.89-1.99 1.99v.93H.54c-.3 0-.54.24-.54.54s.24.54.54.54h10.42v.97c0 1.1.89 1.99 1.99 1.99s1.99-.89 1.99-1.99v-.97h4.52c.3 0 .54-.24.54-.54s-.24-.54-.54-.54z"/></svg>