<svg xmlns="http://www.w3.org/2000/svg" width="56" height="60" viewBox="-25 21 56 60"><path fill="#FFF" d="M-.7 63.3c-.7 0-1.3.3-1.9.9l-6.3 6.5c-.9 1-1.1 2.3-.3 3.1.8.7 2.1.5 3.1-.4l6.3-6.5c.5-.6.8-1.3.8-1.9 0-.5-.2-.9-.5-1.2-.3-.4-.7-.5-1.2-.5zm27.3-24.8c-4.1-4.4-11.9-3.8-17.4 1.3-1.9 1.7-3.3 3.9-4.2 6.1-.7 1.9-1 3.7-.8 5.5-.1 1.2-.1 2.1-.1 2.2 0 1.9-.5 3.6-1.2 4.9-.6-1.3-1.1-2.9-1-4.6 0-.1 0-1-.1-2.2.1-1.7-.1-3.6-.8-5.5-.8-2.3-2.3-4.4-4.2-6.1-3.1-2.8-6.9-4.4-10.6-4.3-2.7.1-5.1 1.1-6.8 3-4.1 4.4-3 12.2 2.6 17.3 2.9 2.7 6.6 4.3 10.2 4.3 1.2.1 2.7.2 4.4 0h.1c.3.1 2 .7 3.9 1.6-.2.2-.3.3-.3.3l-.4.2.2.2 1.8 1.5.2.2.2-.2c.2-.2.4-.4.6-.6.3.3.6.6.9.9l.2.2.2-.2L6 63l.2-.2-.2-.2s-.3-.2-.7-.7c2-1.1 4-1.8 4.2-1.8 0 0 0 0-.1 0h.1c1.7.1 3.2.1 4.4 0 3.4 0 7.2-1.4 10.2-4.3 3.1-2.9 4.9-6.6 5-10.3 0-2.7-.8-5.2-2.5-7zm-26.8 12l-1.5-1.4L-.6 48c.2.8.4 1.7.4 2.5zm-4.4-8.9C-3 43.1-1.7 45-1 47c.1.3.2.6.3.9l-.4-.5-1.1 1.2-2.3-2.2 1.9-2-.5-.5-2 2-2.5-2.4 2.2-2.3-.5-.5-2.2 2.3-2.4-2.3 1.6-1.6-.5-.5c1.6.6 3.3 1.6 4.8 3zm-6.2 4l-2.5-2.3 2.1-2.1 2.4 2.3-2 2.1zm2.7-1.6l2.5 2.4-2.1 2.1-2.5-2.3 2.1-2.2zm-3.2 2.2l-2.3 2.3-2.5-2.4 2.3-2.3 2.5 2.4zm.5.5l2.5 2.3-2.4 2.4-2.4-2.3 2.3-2.4zm3.1 2.8l2.4 2.2-2.4 2.4-2.4-2.2 2.4-2.4zm.5-.5l2.1-2.1 2.3 2.2-2 2.1-2.4-2.2zm-2.4-10.5l-1.6 1.6-2.3-2.2c1.3 0 2.6.2 3.9.6zm-9.6 1.7c1.3-1.4 3.2-2.2 5.4-2.3 0 0 0 0 .1 0l-.4.4 2.4 2.3-2.1 2.1-3.9-3.6-.5.6 3.9 3.6-2.3 2.3-3.5-3.4-.4.5c.2-.9.7-1.8 1.3-2.5zm-1.5 2.6l3.5 3.3-3.1 3.1c-.9-2.2-1-4.4-.4-6.4zm2.6 10.3c-.8-1-1.5-2-1.9-3.1l3.4-3.4 2.5 2.4-4 4.1zm10.6 5.3c-3.2.1-6.5-1.3-9.2-3.7-.3-.3-.6-.6-.9-.9l4-4.1 2.4 2.3-3.7 3.7.5.5 3.7-3.7 2.4 2.3-2.4 2.4.5.5 2.4-2.4 2.7 2.6c-.7.3-1.5.4-2.4.5zm5.4-2.4c-.7.7-1.5 1.3-2.4 1.7l.2-.2-2.9-2.8 2.4-2.5 3.2 3 .3-.4c-.2.5-.5.9-.8 1.2zm1-1.3l-3.1-2.9 2-2.1 1.6 1.5.5-.5c-.1 1.4-.4 2.8-1 4zm1.5 7.6zm0 .4c.1 0 0 0 0 0zm1.4 1.2zm2.3.2zm1.4-1.5zm0 .3c0 .1 0 .1 0 0zm14.1-25.3c2.1.1 4.1.8 5.5 2.3.7.7 1.2 1.6 1.5 2.5l-.5-.5-3.5 3.4-2.3-2.3 3.9-3.6-.5-.6-3.9 3.7-2.1-2.1 2.4-2.3-.5-.5zm-2.4 8.3l2.5-2.3 2.3 2.3-2.5 2.4-2.3-2.4zm1.8 2.9l-2.4 2.4-2.4-2.4 2.5-2.3 2.3 2.3zm-2.3-3.5l-2.1-2.1 2.4-2.3 2.1 2.1-2.4 2.3zm-.5.6l-2.5 2.3-2.1-2.1 2.5-2.4 2.1 2.2zm-3.1 2.8l-2.4 2.2-2-2.1 2.3-2.2 2.1 2.1zm.5.6l2.4 2.4-2.4 2.3-2.3-2.5 2.3-2.2zm2.9 2.9l2 2.1-2.3 2.4-2-2.2 2.3-2.3zm.6-.5l2.4-2.3 1.9 2-2.4 2.4-1.9-2.1zm3-2.9l2.5-2.4 1.9 1.9-2.5 2.5-1.9-2zm-.7-11.2l-2.3 2.2-1.6-1.6c1.3-.4 2.7-.6 3.9-.6zM6.9 46.7c.7-2 2-3.8 3.6-5.4 1.5-1.4 3.2-2.4 4.9-3l-.5.5 1.6 1.6-2.4 2.3-2.2-2.3-.5.5 2.2 2.3-2.5 2.4-2-2-.5.5 1.9 2-2.3 2.2-1.1-1.2-.5.4c.1-.2.1-.5.3-.8zm-.4 1l1.1 1.1-1.5 1.4c.1-.8.2-1.6.4-2.5zm-.4 2.6l.5.5 1.6-1.5 2 2.1-3.1 2.9c-.7-1.1-1-2.5-1-4zM8 55.8c-.3-.3-.6-.7-.8-1.1l.3.3 3.2-3 2.4 2.5-2.9 2.8.2.2c-.9-.5-1.7-1-2.4-1.7zm7.6 2.1c-1.6.3-3.2.2-4.6-.3l2.7-2.6 2.1 2.2-.5.5.3.2zm7-3.6c-2 1.8-4.2 3-6.5 3.5l3-3 1.1 1.1.5-.5-1.1-1.1 2.4-2.4 1.5 1.6c-.3.2-.6.5-.9.8zm1.4-1.5l-1.5-1.5 2.5-2.5.9.9c-.4 1.1-1.1 2.2-1.9 3.1zm2.3-3.8l-.7-.7 1.3-1.3c-.2.6-.4 1.3-.6 2zm0-2.6L25 47.7l-1.9-1.9 3.5-3.3c.3.9.4 1.9.4 2.9 0 .5-.1 1-.2 1.4l-.5-.4zm-17.8 18c-.5-.6-1.2-.9-1.9-.9-.5 0-.9.1-1.2.4-.8.7-.6 2.1.3 3.1l6.3 6.5c.9 1 2.3 1.2 3.1.5.8-.7.6-2.1-.3-3.1l-6.3-6.5zM2.9 39c.4 0 .8 0 1.2-.1-.3-.5-1.2-1.8-3-2.5-.1 0-2.2-1-2.6-2.8-.2-1 0-2 .8-3 0-.1.9-1.4 2.4-1.6 1-.1 2 .4 2.9 1.3.6.9 2.3 3 3.8 3.1 0-.1 0-.1 0-.2.2-3.1-2.3-5.7-5.5-5.7s-5.7 2.6-5.7 5.7c0 3.2 2.6 5.8 5.7 5.8zm1.2-8.1c-.7-.8-1.5-1.1-2.2-1.1C.8 29.9.1 30.9.1 31c-.6.8-.8 1.6-.7 2.3.4 1.4 2.1 2.2 2.1 2.2 2.2.9 3.2 2.6 3.5 3 1.8-.7 3.2-2.3 3.5-4.3-2.1 0-4.1-2.9-4.4-3.3z"/></svg>