<svg xmlns="http://www.w3.org/2000/svg" width="18" height="18" viewBox="-40 42 18 18"><path fill="#9F9E9E" d="M-31 43.5c1.4 0 2.6.3 3.8 1 1.2.7 2.1 1.6 2.7 2.7.7 1.1 1 2.4 1 3.8s-.3 2.6-1 3.8c-.7 1.1-1.6 2.1-2.7 2.7-1.2.7-2.4 1-3.8 1s-2.6-.3-3.8-1-2.1-1.6-2.7-2.7c-.6-1.1-1-2.4-1-3.8s.3-2.6 1-3.8c.7-1.1 1.6-2.1 2.7-2.7 1.1-.6 2.4-1 3.8-1zm2.7 5.1s-.1 0 0 0c-.1.1-.2.2-.2.2s0 0 0-.1c0 0 0-.1.1-.1 0 0 0 0 .1 0-.1-.1 0-.1.1-.2.1 0 .3-.1.5-.1.2-.1.4 0 .5.1 0 0 0-.1.1-.1.1-.1.1-.1.1-.1h.1c.1 0 .1 0 .2-.1v-.2c-.1 0-.1 0-.2-.1 0-.1-.1-.1-.1-.2 0 0 0 .1-.1.1v-.1h-.1c-.1 0-.1 0-.1 0-.1 0-.1-.1-.1-.1s-.1-.1-.1-.2 0-.1 0-.1 0-.1-.1-.1l-.1-.1-.1-.2s0 0-.1 0c0 0 0 0-.1.1 0 0 0 .1-.1.1 0 0 0 0 0 .1 0 0 0 0-.1 0 0 0 0 0-.1 0h-.1s0 0-.1 0h-.1c.1 0 .1-.1 0-.1s-.1 0-.2 0c.1 0 .1-.1.1-.1s0-.1-.1-.1h.1s0-.1-.1-.1c0 0-.1-.1-.2-.1s-.1 0-.1-.1c-.1 0-.2-.1-.3-.1-.2 0-.3 0-.3 0l-.1.1v.2s0 .1-.1.1l-.1.1s0 .1.1.2.1.1.1.2c0 0-.1.1-.2.2l-.2.1c0 .1 0 .1 0 .2s.1.1.1.2c0 0 0 0 0 .1 0 0 0 0-.1 0 0 0 0 0-.1 0s-.2 0-.2-.1c.5 0 .5-.1.4-.2 0-.2-.1-.3-.2-.3-.2 0-.3 0-.3 0 0-.1-.2-.2-.4-.3-.2-.1-.4-.1-.6 0 0 0 0 0 0-.1.1-.1 0-.1-.1-.1 0 0 0-.1 0-.2s0-.1 0-.1c0-.1.1-.2.1-.2l.2-.2v-.1c.2 0 .4 0 .5-.1 0 0 .1-.1.1-.2l.1-.2c.1 0 .1-.1.1-.1s.1 0 .1.1.1.1.1.1c.1 0 .1 0 .1-.1s0-.1-.1-.2c.1 0 .1-.1 0-.2l-.1-.1c-.1 0-.2 0-.3.1 0 0 0 0 0 .1 0 0 0 0-.1.1l.2.1s-.1 0-.2-.1c0-.1-.1-.1-.1-.1 0-.1-.1 0-.1.1 0-.1 0-.1-.1-.2-.1 0-.2-.1-.2-.1s0-.1-.1-.2c0 0-.1-.1-.2-.1s-.2 0-.3.1v.1s0 .1.1.1c0 0 .1 0 .1.1h.2c.1.1.1.1.1.1s0 0-.1 0h-.1s0 0-.1 0v.1c0 .1 0 .1 0 .1s-.1-.1-.1-.2c-.1.2-.1.1-.1.1 0 .1 0 .1-.2.1h-.1s-.1 0-.2 0-.1 0-.2 0-.1 0-.1-.1c0 0 0-.1 0-.2l-.2-.2c-.3.1-.6.2-.9.4h.1l.1-.1c.1 0 .1 0 .1-.1.2-.1.4-.1.4-.1l.1-.1.2.2s-.1 0-.3 0c-.1 0-.2.1-.2.1 0 .1.1.1 0 .2l-.1.1-.1-.1s-.1 0-.1-.1c-.1 0-.2 0-.2 0-1 .6-1.8 1.3-2.4 2.2l.1.1s0 0 .1.1v.1s0 0 .1 0 .1 0 0 .1c0 0 .2.1.4.3.1.1.2.2.2.2 0 .1 0 .1-.1.2v-.1s-.1-.1-.1 0c0 0 0 .1 0 .2s.1.1.1.1-.1.1-.1.2v.3c0 .1 0 .2 0 .2 0 .1 0 .2.1.3.1.2.1.2.2.2-.1 0 0 .2.2.4l.1.1.1.1.2.1.1.1s0 .1.1.2c0 .1.1.2.1.2s0 .1.1.2.1.2.1.2.1.1.2.1.1.1.1.1v.2s0 0 .1 0c0-.1-.1-.3-.2-.6-.2 0-.3-.1-.3-.1s0-.1-.1-.1c0-.1 0-.1 0-.1h.2l.1.1s0 .1 0 .2.1.1.1.2c.1 0 .1.1.2.2 0-.1.1 0 .1 0s.1.1.1.2 0 .1 0 .1c.1 0 .1 0 .2.1s.1.1.2.2c0 .1.1.2.1.3 0 .1 0 .2 0 .2s0 .1.1.1l.1.1.2.1.1.1.4.2c.1 0 .1 0 .2 0h.2c.1 0 .2 0 .3.1.1.1.1.2.2.2.2.1.4.2.5.1 0 0 0 0 0 .1l.1.2c0 .1.1.1.1.1l.1.1s.1.1.2.1c.1.1.1.1.2.1l.1-.1c0 .1 0 .1.1.2-.1.1 0 .1 0 .1.1 0 .1-.1.1-.3-.2.1-.4 0-.5-.2v-.2s0 0 0-.1v-.1c.1 0 .1 0 .1 0V54c0-.1 0-.1 0-.1s0-.1-.1-.2-.1-.1-.1-.1c0 .1-.1.1-.2.1s-.1 0-.2-.1c0 0 0 0 0 .1 0 0 0 0 0 .1h-.1s0-.1 0-.2 0-.2 0-.2l.2-.4c0-.1 0-.1 0-.1l-.1-.1s-.1 0-.2 0-.2.1-.3.2v.2s0 0-.1.1c0 0-.1 0-.2 0s-.2 0-.2-.1c-.1 0-.2-.1-.2-.2-.1-.1-.1-.3-.1-.3 0-.1 0-.2 0-.3v-.2c0-.1 0-.1-.1-.2 0 0 .1 0 .1-.1l.1-.2s0 0 .1 0c0 0 0 0 .1 0 0 0 .1 0 .3 0 .1 0 .2 0 .3 0 .1.1.2.1.2 0v-.1c0-.1 0-.1 0-.1 0 .2.1.2.3.1 0 0 .1 0 .2.1.1 0 .1 0 .2 0 0 0 0 0 .1 0l.1.1s0 0 .1 0c0 0 .1 0 .1-.1.1.1.1.2.1.2-.3.1-.2.2-.2.3h.1s0 0 .1-.1V51.5c-.1 0-.2-.1-.2-.1 0-.1 0-.1 0-.2 0 0 0-.1.1-.2 0 0 0 0 .1 0 0 0 .1 0 .2-.1l.1-.1c.1-.1.2-.2.1-.3 0 0 .1 0 .1-.1h-.1c.1 0 .1-.1 0-.1l.1-.1c0-.1 0-.1.1-.1.1.1.1.1.2 0 0-.1.1-.1 0-.2 0 0 .1-.1.2-.1s.2-.1.2-.1h.1v-.1c0-.1 0-.1 0-.1l.1-.1c.1 0 .1 0 .1 0l.2-.1c.1 0 .2 0 .3-.1.1-.1 0-.1-.1-.2v-.1s-.1 0-.1-.1h.1c.1 0 .1 0 .1 0 .1-.1.1-.1-.1-.2-.1-.2-.3-.1-.4 0zm-1.6 8.6c1.3-.2 2.5-.9 3.4-1.9h-.1c-.1 0-.1 0-.1 0l-.3-.2V55l-.1-.1-.4-.3s0 0-.1 0h-.2s0 0-.1 0l-.1.1c-.1-.1-.3-.2-.3-.2s-.1 0-.1-.1l-.1-.1s0 0-.1 0-.1 0-.1.1l-.1.1v.1s0-.1 0-.2.1-.1 0-.2h-.1c-.1 0-.1 0-.1 0v.3c-.1 0-.1.1-.1.1s0 0-.1.1c-.1 0-.1.1-.1.1s0 .1-.1.1v.1l-.1-.1c-.1 0-.1 0-.1-.1 0 .1 0 .2 0 .3 0 .2 0 .3.1.4 0 .2 0 .3-.1.5-.2.2-.3.3-.3.4s0 .2.1.2c0 0 0 .1-.1.2s-.1.2-.1.2c.1 0 .1.1.1.2z"/></svg>