<svg xmlns="http://www.w3.org/2000/svg" width="40" height="60" viewBox="-32.8 20.5 40 60"><path fill="#FFF" d="M-28.4 39.1c1.6.8 4.9.8 4.9.8S-24 36.6-26 35c-1.9-1.6-5-.8-5-.8s.3 3.8 2.6 4.9zm33.7 9.5c0-6.6-2.5-4.9-2.5-9.8.7 0 1.2-.6 1.2-1.2 0-.7-.5-1.2-1.2-1.2h-4.9c-.7 0-1.2.6-1.2 1.2 0 .7.6 1.2 1.2 1.2 0 4.9-2.6 3.3-2.6 9.8h10zm-23.4-4.8c-1.4-1.5-3.3-2.5-5.6-2.5-4.1 0-7.4 3.3-7.4 7.4h23.7c-1.6-1.6-3.3-2.8-4.1-3.3-1-.6-.3-1.5.2-1.4 1.8.5 4.1 2.7 4.1 2.7.7-3.5-3.3-7-5-8-1.4-.9-.8-1.6-.8-1.6 1.1-.8 4.1 2.5 4.1 2.5-.8-6.6-3.3-10.7-6.5-11.5-4.1-.9-6 3.4-4.9 6.6.7 2.3 1.5 5.9 2.2 9.1zM-31 49.9l4.4 20.8c.3 1.3 1.5 2.3 2.9 2.3h21.5c1.4 0 2.6-1 2.9-2.4l4.5-20.8H-31v.1zm18.4 15.6c-.1 0-.2.1-.2.1s0 0-.1 0-.2 0-.3-.1c-.8-.4-5.2-2.9-4.9-5.8.1-.7.3-1.1.8-1.6.6-.6 1.3-.9 2.1-.9 1.1 0 1.9.7 2.4 1.2.5-.5 1.3-1.2 2.4-1.2.7 0 1.4.3 2.1.9.5.5.7.9.8 1.6.2 2.9-4.3 5.4-5.1 5.8z"/></svg>