<svg xmlns="http://www.w3.org/2000/svg" width="68" height="52" viewBox="-15 25 68 52"><path fill="#FFF" d="M44.6 74.5H1.7c0-2.1-1.3-3.8-3.2-4.4.3-.1.6-.1 1-.1 1.4 0 2.8.8 3.5 2l.3.5H43c.6-2.1 2.3-3.7 4.3-4.3v-14c-2.1-.6-3.7-2.3-4.3-4.4h-1.8c-.2-.6-.3-1.3-.2-1.9h3.7v.1c0 2.5 2.1 4.6 4.6 4.6v17.3c-2.6 0-4.7 2-4.7 4.6zm-17-15.6l-.3.8h-1.2l1.5-.8zm14.8-8.4c.7 1.9 2.2 3.5 4.2 4.2v13c-1.9.7-3.4 2.2-4.1 4.1h-38l14.9-8.3 1.5 1.1-.5-1.6 4.6-2.6 1.7 1.2-1 3 2.6-1.9 2.6 1.9-1-3 2.6-1.9h-3.2l-.5-1.5 12.9-7.3-.2-.4h.9zm-3.2 9.2l-1-3-1 3H34l2.6 1.9-1 3 2.6-1.9 2.6 1.9-1-3 2.6-1.9s-3.2 0-3.2 0zm1.7-9l-37.3 21c-1.3-2.2-4.1-3-6.3-1.8 0 0 0 0-.1 0l-8.5-15h.1c2.2-1.3 3-4.1 1.8-6.3v-.1l37.3-21v.1c1.3 2.2 4.1 3 6.3 1.8l8.5 15.1c-2.3 1.2-3.1 4-1.8 6.2zm-7.6-19c-2.1.5-4.4-.2-5.9-1.7L-7 49.4c.5 2.2-.1 4.4-1.7 6l6.9 12.2c2.1-.5 4.4.1 6 1.6l34.5-19.4c-.5-2.1.2-4.3 1.6-5.9l-7-12.2zm4.4 17.7l-33.6 19c-1.6-1.3-3.7-1.9-5.7-1.6L-8 55.5c1.3-1.6 1.9-3.7 1.6-5.8l33.6-18.9c1.6 1.3 3.6 1.9 5.7 1.6l6.4 11.4c-1.3 1.6-1.8 3.6-1.6 5.6zm-32 4.1l-2.8 1.6L.6 53l.6 3.1-2.8 1.6 3.1.4.6 3.1 1.3-2.9 3.3.2-2.3-2.1 1.3-2.9zm8.7-4.8l-2.8 1.6-2.3-2.1.6 3.1-2.8 1.6 3.1.4.6 3.1 1.3-2.9 3.1.4-2.2-2.4 1.4-2.8zm8.6-4.9l-2.8 1.6-2.3-2.1.6 3.1-2.8 1.6 3.1.4.6 3.1 1.3-2.9 3.1.4-2.1-2.3 1.3-2.9zm7.3-2l1.3-2.9-2.7 1.6-2.3-2.1.6 3.1-2.8 1.6 3.1.4.6 3.1 1.3-2.9 3.1.4-2.2-2.3z"/></svg>