<svg xmlns="http://www.w3.org/2000/svg" width="36" height="38" viewBox="-31 32 36 38"><path fill="#333" d="M-11.5 38.7c.5-.3.7 0 1 .2.3.3.6.6.2 1-.4.5-.9 1.1-1.4 1.7l3.2.6c.6.1 1.2-.1 1.6-.4 1.4-1.4 4.5-4.5 4.6-4.6 2.7-2.7 6-4.2 6.6-3.6.6.6-1 4-3.6 6.6-.1.1-3.3 3.2-4.6 4.6-.4.4-.6 1-.4 1.6l.6 3.2c.6-.6 1.2-1 1.7-1.4.5-.3.7 0 1 .2.3.3.6.6.2 1-.6.8-1.4 1.7-2.3 2.6l-.1.1c1 5.1 2.3 11.8 2.4 12.1 0 0 .2.9-.5 1.6l-.9.9c-.2.2-.3 0-.3 0l-5.7-11.3s-.1-.3-.2-.5-.3-.4-.3-.4l-2.1-2.1s-.4-.4-.8 0c-4 3.6-6.4 5.4-7.8 6.6-.7.6-.5 1.6-.4 2 .4 2.1 1.1 5.3 1.1 5.6 0 0 .2.6-.4 1.2l-.7.7c-.1.1-.2 0-.2 0l-3.3-6.5c-.7.3-1.3.7-1.4.6s.3-.7.8-1.4l-6.5-3.3c-.1 0-.2-.1 0-.2l.7-.7c.5-.5 1.2-.4 1.2-.4.3.1 3.5.7 5.6 1.1.4.1 1.3.3 2-.4 1.1-1.3 3-3.8 6.6-7.8.4-.4 0-.8 0-.8l-2.3-1.9s-.2-.2-.4-.3c-.2-.1-.5-.2-.5-.2l-11.3-5.8s-.2-.1 0-.3l.9-.9c.7-.7 1.6-.5 1.6-.5.3.1 7 1.4 12.1 2.4l.1-.1c.9-1 1.8-1.8 2.6-2.4z"/></svg>