<svg xmlns="http://www.w3.org/2000/svg" width="18" height="18" viewBox="-3.5 2.2 18 18"><path fill="#FFF" d="M11.3 5.3C10.2 4.1 8.6 3.4 7 3.4c-1.6 0-3.1.6-4.2 1.8C1 7 .5 9.7 1.5 12l-2.8 3c-.4.3-.7 1-.7 1.6 0 .6.3 1.2.7 1.7.5.4 1 .6 1.6.6s1.2-.3 1.6-.7l2.8-2.8c.7.3 1.5.5 2.3.5 1.6 0 3.1-.6 4.3-1.8 2.3-2.4 2.3-6.5 0-8.8zM7 14.1c-1.2 0-2.3-.5-3-1.3-1.7-1.7-1.7-4.7 0-6.4.8-.8 1.9-1.3 3-1.3 1.2 0 2.2.5 3 1.3 1.7 1.7 1.7 4.7 0 6.4-.7.9-1.8 1.3-3 1.3zm-7.2 3c-.1-.1-.2-.3-.2-.5s.1-.4.2-.5l2.5-2.6c.1.3.3.5.5.5.2.2.4.3.5.5L.8 17.1c-.2.3-.6.3-1 0z"/></svg>