<svg id="Layer_1" xmlns="http://www.w3.org/2000/svg" viewBox="0 0 26 23"><style>.st0{fill:#00A2A7;}</style><path class="st0" d="M22.4 3C21 1.6 19.2.9 17.3.9c-1.5 0-3 .5-4.3 1.4C11.8 1.4 10.3.9 8.7.9 6.8.9 5 1.6 3.6 3 2.2 4.4 1.5 6.2 1.5 8.1c0 1.9.8 3.8 2.1 5.1l8.6 8.6c.2.2.5.3.8.3.4 0 .7-.2.8-.3l8.6-8.6c1.4-1.4 2.1-3.2 2.1-5.1 0-1.9-.7-3.7-2.1-5.1zm-1.7 8.6L13 19.3l-7.7-7.7c-.9-.9-1.4-2.2-1.4-3.5 0-1.3.5-2.5 1.4-3.4.9-.9 2.2-1.4 3.4-1.4 1.3 0 2.5.5 3.4 1.4.3.2.6.3.9.3.3 0 .6-.1.8-.3.9-.9 2.2-1.4 3.4-1.4 1.3 0 2.5.5 3.4 1.4.9.9 1.4 2.1 1.4 3.4.1 1.3-.4 2.5-1.3 3.5zM7.8 8.1c0-.7.2-1.2.7-1.7.2-.2.4-.5.4-.8 0-.3-.1-.6-.4-.9-.3-.2-.6-.4-.9-.3-.3 0-.6.1-.8.3-.9.9-1.4 2.1-1.4 3.4 0 1.3.5 2.5 1.4 3.4.2.2.5.3.8.3.3 0 .6-.1.8-.3.2-.2.4-.5.3-.9 0-.3-.1-.6-.4-.8-.3-.4-.5-1-.5-1.7z"/></svg>