<svg xmlns="http://www.w3.org/2000/svg" width="24" height="24" viewBox="10.4 -1.9 24 24"><path fill="#FFF" d="M31.6 11.8H16.1V2.3c0-1.7.6-1.7 1-1.8.6-.1 1 .5 1.2.9-.6.6-.8 1.7-.4 2.4 0 .2.1.3.3.3.1 0 .1 0 .2-.1L21 2.6c.1-.1.2-.1.2-.3 0-.1 0-.2 0-.3-.3-.6-1-1-1.7-1-.2 0-.3 0-.5.1-.3-.8-1.1-1.5-2-1.4-1.2.3-1.7 1.2-1.7 2.8v9.4h-2c-1.8 0-1.7 2.6 0 2.6.3 0 .4.1.4.5.1 1 .6 2.4 1.6 3.6.3.3.1.6.1.6l-.4.6c-.1.2 0 .5.2.6.1 0 .1.1.2.1s.3-.1.4-.3l.4-.8s.1-.3.4-.2c.4.2 1 .3 1.7.3h8.6c.4 0 .9-.1 1.3-.2.3-.1.4.4.4.4l.3.6c.1.1.2.3.4.3.1 0 .1 0 .2-.1.2-.1.3-.3.2-.6l-.4-.9s-.1-.2.1-.5c.1-.1.3-.3.4-.4.9-1 1.3-2.3 1.5-3.3.1-.3.1-.4.4-.5 1.6 0 1.6-2.5-.1-2.5zm-2.1 2.7c0 .1-.6 2.2-2.4 3.2-.1.1-.1.1-.3.1-.1 0-.3-.1-.3-.2-.1-.2-.1-.5.2-.6 1.5-.9 2-2.6 2-2.6.1-.2.3-.3.5-.3s.3.2.3.4zM21 6.6c-.2.3-.3.7-.2 1 .1.4.2.7.4.9.4.6.8 1.2.4 1.8-.1.2.1.5.3.3.3-.3.3-.7.3-1-.1-.3-.3-.7-.4-1-.2-.3-.4-.6-.6-.9-.2-.3-.2-.6 0-.9.2-.2-.1-.4-.2-.2zm3.2 2c.4.6.8 1.2.4 1.8-.1.2.1.5.3.3.3-.3.3-.7.3-1-.1-.3-.3-.7-.4-1-.2-.3-.4-.6-.6-.9-.2-.4-.2-.6 0-.9.2-.3-.1-.5-.3-.3-.2.3-.3.7-.2 1 .1.4.3.7.5 1zm-1.5 0c.4.6.8 1.2.4 1.8-.1.2.1.5.3.3.3-.3.3-.7.3-1-.1-.3-.3-.7-.4-1-.2-.3-.4-.6-.6-.9-.1-.3-.1-.6.1-.9.1-.2-.2-.4-.3-.2-.2.3-.3.7-.2 1 0 .3.2.6.4.9z"/></svg>