<svg xmlns="http://www.w3.org/2000/svg" width="65" height="60" viewBox="-17.3 21.4 65 60"><path fill="#FFF" d="M32.3 60.1c1.6-3.3 2.6-6.6 3-8.8-6 .3-19-1.1-23.5 16.6-.3 1.2-.9 2.9-1.3 4.1 1.3-.2 14.6 2.4 21.8-11.9zm2.7-.4c-.2.5-.4.9-.7 1.4-2.6 5.2-6.2 8.8-10.7 10.8 12.9 1.5 23.7-6.5 23.7-6.5s-5.1-3.7-12.3-5.7zm-21.7-2.3c2.4-2.8 5.4-5.1 9.2-6.7.3-.1.6-.3.9-.4 0-.6 0-1.3 0-1.9-.4-8.4-7-15.5-9.2-17.7-1.4 1.4-4.6 4.9-6.8 9.5-1.7 3.6-2.5 7.1-2.3 10.4 3.4 1.7 6.2 4 8.2 6.8zm-19.6 3.1c0-.1-.1-.2-.2-.3-6.4 2-6.1 1.8-10.6 5.2 0 0 10.5 7.7 23.1 6.5-5.1-1.8-9.3-5.7-12.3-11.4zm-1.1-9.7c.5 2.2 1.4 5.4 3.1 8.6 3 5.7 7.3 9.4 12.7 10.9.1-.3.9-6.2 3.5-10.6C7.7 52-2.6 50.9-7.4 50.8z"/></svg>