<svg xmlns="http://www.w3.org/2000/svg" width="40" height="40" viewBox="40 -10 40 40"><path fill="#333" d="M60-7C50.6-7 43 .6 43 10s7.6 17 17 17 17-7.6 17-17S69.4-7 60-7zm0 32.4c-8.5 0-15.4-6.9-15.4-15.4S51.5-5.4 60-5.4 75.4 1.5 75.4 10 68.5 25.4 60 25.4zm6-23.5H54c-1.2 0-2.1 1-2.1 2.1v12c0 1.2 1 2.1 2.1 2.1h12c1.2 0 2.1-1 2.1-2.1V4c0-1.2-.9-2.1-2.1-2.1zm-3 2.5c0-.4.4-.8.7-.8h1.8c.4 0 .7.4.7.8v1.8c0 .4-.4.8-.7.8h-1.8c-.4 0-.7-.4-.7-.8V4.4zm-3 2.4c1.8 0 3.2 1.4 3.2 3.2s-1.5 3.2-3.2 3.2-3.2-1.4-3.2-3.2 1.4-3.2 3.2-3.2zm6.3 8.8c0 .4-.3.7-.7.7H54.3c-.4 0-.7-.3-.7-.7V8.7h1.5c-.1.5-.1.9-.1 1.5 0 2.7 2.3 4.9 5 4.9 2.8 0 5-2.2 5-4.9 0-.5-.1-1-.2-1.4h1.4l.1 6.8z"/></svg>