<svg xmlns="http://www.w3.org/2000/svg" width="60" height="60" viewBox="-33.1 21 60 60"><path fill="#FFF" d="M-19 73h4.6v-6.9H-19V73zm6.1 0h2.5v-6.9h-2.5V73zm4 0h2.5v-6.9h-2.5V73zm3.9 0h16.7v-6.9H-5V73zm16.2-41c-8.5-4.9-16.6-2.4-18.9-1.5-2 .8-3.9 2.5-4.7 3.3.4.4.5.7.5.8.1.3-.2.7-.5.7-.3.1-.6-.1-.7-.4 0-.1-.4-.6-2-1.2-1.9-.7-4.8 0-7 1.7-1.6 1.2-4.3 4.1-3.8 9.7.7 9.2 9 10.6 9.1 10.6.3.1.6.4.5.7 0 .3-.3.5-.6.5h-.1s-.8-.1-1.9-.5v8.2h30.7v-8.7c-1.8-.1-3.8-.6-6.1-1.4-1.3 1-2.6 1.5-3.9 1.5-2.4 0-4.1-1.8-5-2.7-.1-.1-.2-.3-.3-.4-.2-.2-.2-.6 0-.9.2-.2.6-.2.9 0 .1.1.2.2.4.4.8.9 2.2 2.3 4.1 2.3 1.6 0 3.3-1 5.2-3 .2-.3.6-.3.9 0 .3.2.3.6 0 .9-.4.4-.7.7-1.1 1.1 3.9 1.4 7 1.5 9.2.2 3.1-1.9 3.6-6.3 3.8-7.9v-.1c0-1 .5-8.6-8.7-13.9z"/></svg>