<svg xmlns="http://www.w3.org/2000/svg" width="44" height="38" viewBox="-29.2 31.5 44 38"><path fill="#FFF" d="M7.3 41.5c-1.5 0-2.9.5-4 1.5C3.1 37.4-1.5 33-7 33c-4.3 0-7.9 2.6-9.5 6.3-1.1-.6-2.3-.9-3.6-.9-4.4 0-7.9 3.5-7.9 7.8s3.5 7.8 7.8 7.8H7.3c3.4 0 6.2-2.8 6.2-6.2.1-3.5-2.7-6.3-6.2-6.3zm-32.4 4.7c0 .5-.4.9-.9.9s-.9-.4-.9-.9c0-3.6 2.9-6.6 6.6-6.6.3 0 .6 0 .9.1-3.2.4-5.7 3.2-5.7 6.5zm11.8-2.8c0 .6-.5 1.1-1.1 1.1s-1.1-.5-1.1-1.1c0-4.7 3.8-8.5 8.5-8.5.4 0 .8 0 1.1.1-4.2.5-7.4 4-7.4 8.4zm16.8 4.3c0 .4-.3.7-.7.7-.4 0-.7-.3-.7-.7 0-2.8 2.3-5.2 5.2-5.2.2 0 .5 0 .7.1-2.5.4-4.5 2.5-4.5 5.1zm-3.6 9.6l-1-1-1 1c-.3.3-.4.6-.4 1 0 .8.7 1.5 1.5 1.5s1.5-.7 1.5-1.5c-.1-.4-.3-.8-.6-1zm-6.7 1c0-.4-.2-.8-.4-1l-1-1-1 1c-.3.3-.4.6-.4 1 0 .8.7 1.5 1.5 1.5.6 0 1.3-.7 1.3-1.5zm-7.3 0c0-.4-.2-.8-.4-1l-1-1-1 1c-.3.3-.4.6-.4 1 0 .8.7 1.5 1.5 1.5.7 0 1.3-.7 1.3-1.5zm11.7 3.1zm0 0l-1-1-1 1c-.3.3-.4.6-.4 1 0 .8.7 1.5 1.5 1.5s1.5-.7 1.5-1.5c-.2-.4-.4-.7-.6-1zm-8.3-1l-1 1c-.3.3-.4.6-.4 1 0 .8.7 1.5 1.5 1.5s1.5-.7 1.5-1.5c0-.4-.2-.8-.4-1l-1.2-1zm1 1zm-7.2 0l-1-1-1 1c-.3.3-.4.6-.4 1 0 .8.7 1.5 1.5 1.5s1.5-.7 1.5-1.5c-.1-.4-.3-.7-.6-1zm12.1 4.1l-1-1-1 1c-.3.3-.4.6-.4 1 0 .8.7 1.5 1.5 1.5s1.5-.7 1.5-1.5c-.2-.4-.3-.7-.6-1zm-8.3-1l-1 1c-.3.3-.4.6-.4 1 0 .8.7 1.5 1.5 1.5s1.5-.7 1.5-1.5c0-.4-.2-.8-.4-1l-1.2-1zm-6.1 1l-1-1-1 1c-.3.3-.4.6-.4 1 0 .8.7 1.5 1.5 1.5s1.5-.7 1.5-1.5c-.2-.4-.4-.7-.6-1z"/></svg>