<svg xmlns="http://www.w3.org/2000/svg" width="60" height="60" viewBox="-25 21 60 60"><path fill="#CCC" d="M27.6 46.9c-.5-.3-4.1-3.5-7.2-4.3-.3 1.4-.8 2.7-1.3 4h.2c1.8 0 8 4.5 8 6.2v15.9c-.5-.3-1-.8-1.3-1.1-2.8-2.2-5.6-4.6-8.2-4.5-2.3.2-4.7 1.9-7.2 4-1.6 1.3-4.3 3.3-5.4 3.2-1.1-.3-2.6-1.4-4.1-2.6-2.3-1.9-4.9-3.8-8-4-.2 0-.3 0-.5 0s-.3 0-.3 0c-2.5 0-5.2 2.2-7.9 4.5-.3.3-1 .8-1.3 1.1V53.6c.3-1.8 6.1-6.2 7.9-6.2.2 0 .3 0 .3 0-.3-1.3-1-2.6-1.1-4-3.1.5-6.9 3.8-7.4 4.3-1.6 1.8-3.8 4-3.8 6.2v18.2c0 1.8 1 2.4 1.5 2.6.3.2.8.3 1 .3 1.5 0 3.1-1.3 5.4-3.2 1.6-1.1 4.3-3.5 5.4-3.5.2 0 .3 0 .3 0h.3c1.6 0 3.6 1.6 5.6 3 1.8 1.4 3.6 2.9 5.6 3.3.3.2.7.2 1 .2 2.6 0 5.2-1.9 7.7-4 1.6-1.3 3.8-3 4.9-3 1 0 3.9 2.4 5.4 3.5 2.8 2.2 4.6 3.7 6.4 2.7.3-.3 1.5-1 1.5-2.6V53c.4-1.8-.9-3.7-3.4-6.1zM4.9 59.2S17 49 17 40.1c0-7-5.3-13.1-12.1-13.1s-12 5.9-12 13.1c-.1 8.9 12 19.1 12 19.1zM-.7 39.4c0-3 2.5-5.6 5.6-5.6 2.9 0 5.6 2.6 5.6 5.6S8 45 4.9 45s-5.6-2.4-5.6-5.6z"/></svg>