<svg xmlns="http://www.w3.org/2000/svg" width="40" height="28" viewBox="18 -4.2 40 28"><path fill="#FFF" d="M21.5 8H24c.2 0 .2-.1.2-.2.2-1.4 1.3-2.6 2.8-2.7.2 0 .3 0 .5 0h6.6c.2 0 .3 0 .5 0 1.5.1 2.7 1.3 2.8 2.7-.1.2 0 .2.1.2h1c.2 0 .2-.1.2-.2.2-1.4 1.3-2.6 2.8-2.7.2 0 .3 0 .5 0h6.6c.2 0 .3 0 .5 0 1.5.1 2.6 1.3 2.8 2.7-.1.2 0 .2.2.2h2.5c.2 0 .2-.1.2-.2V1c0-.2-.1-.2-.2-.3-5-2.4-10.5-3.8-16.4-3.8-.2 0-.3 0-.5 0-5.8 0-11.4 1.4-16.4 3.8-.1.1-.2.2-.2.3v6.8c.2.2.2.2.4.2zm-2.2 8.9h37.4c.2 0 .2-.1.2-.2v-5.4c0-.2 0-.3 0-.5-.1-.6-.6-1.2-1.3-1.3-.2 0-.3 0-.5 0H20.8c-.2 0-.3 0-.5 0-.6.2-1.2.6-1.3 1.4 0 .2 0 .3 0 .5v5.4s.1.1.3.1zm37.4 1.5H19.3c-.2 0-.2.1-.2.2v1c0 .2.1.2.2.2h2.5c.2 0 .2.1.2.2v2.5c0 .2.1.2.2.2h2.4c.2 0 .2-.1.2-.2V20c0-.2.1-.2.2-.2h26c.2 0 .2.1.2.2v2.5c0 .2.1.2.2.2h2.4c.2 0 .2-.1.2-.2V20c0-.2.1-.2.2-.2h2.5c.2 0 .2-.1.2-.2v-1c.1-.2 0-.2-.2-.2z"/></svg>