<svg xmlns="http://www.w3.org/2000/svg" width="22" height="22" viewBox="-136 139.5 22 22"><g fill="#00A2A7"><path d="M-124.9 147.1c-.7 0-1.3.6-1.3 1.4s.6 1.4 1.3 1.4c.7 0 1.3-.6 1.3-1.4s-.6-1.4-1.3-1.4zM-128.3 147.1c-.7 0-1.3.6-1.3 1.4s.6 1.4 1.3 1.4 1.3-.6 1.3-1.4-.6-1.4-1.3-1.4zM-121.6 147.1c-.7 0-1.3.6-1.3 1.4s.6 1.4 1.3 1.4c.8 0 1.3-.6 1.3-1.4s-.6-1.4-1.3-1.4z"/><path d="M-119.3 142.4h-11.4c-1.5 0-2.8 1.3-2.8 3v6.7c0 1.6 1.3 3 2.8 3h.4v2.5c0 .3.2.6.5.8.1.1.3.1.4.1.2 0 .4-.1.6-.2l4.2-3.4h5.3c1.5 0 2.8-1.4 2.8-3v-6.5c0-1.6-1.3-3-2.8-3zm-6.2 10.8l-3 2.3v-1.6c0-.5-.4-.9-.9-.9h-1.3c-.5 0-1-.5-1-1.1v-6.5c0-.6.4-1.1 1-1.1h11.3c.5 0 1 .5 1 1.1v6.5c0 .6-.4 1.1-1 1.1h-5.6c-.2.1-.3.1-.5.2z"/></g></svg>