<svg xmlns="http://www.w3.org/2000/svg" width="232.2" height="71" viewBox="0 0 232.2 71"><path fill="#313438" d="M0 3c.6-.3 1.3-.4 2-.4h7.7v33.9c0 .6-.2 1.4-.4 2H13c-.2-.6-.4-1.4-.4-2V2.6h7.7c.7 0 1.4.1 2 .4V0H0v3zm26.4 13.3h-.1V12h-2.9c.2.6.4 1.4.4 2v22.5c0 .6-.2 1.4-.4 2h3.4c-.2-.6-.4-1.4-.4-2V20.7c1.5-4.6 4.3-6.2 7.9-6.2.6 0 1.3.1 1.8.3v-3.1c-.5.2-1.1.3-1.8.3-3 0-6.6 1.5-7.9 4.3zm35.7.2c-.6 0-1.3-.3-2.1-1-2.7-2.5-6.4-4.4-10.1-4.4-7.1 0-13.7 5.8-13.7 14.1s6.5 14.1 13.7 14.1c3.9 0 6.8-1.5 9.1-4.8h.1v3.9H62c-.2-.6-.4-1.4-.4-2V18.5c.1-.6.3-1.4.5-2zm-2.9 14.1c-1.1 3.8-5.5 6.3-9.3 6.3-6.4 0-11.2-5.3-11.2-11.7 0-6.4 4.8-11.7 11.2-11.7 4.2 0 9 3.2 9.3 6.2v10.9zM87.3 12c.2.3.3.6.3.9 0 .3-.1.6-.2.9l-9.9 20.6L68 14c-.2-.5-.3-.8-.3-1 0-.3.1-.6.3-.9h-4.1c.4.5.8 1 1 1.5l12.5 25.8h.1l12.9-25.8c.3-.5.6-1.1 1-1.6h-4.1zm16.8-.9c-7 0-13.2 6.4-13.2 14.1 0 7.7 6.2 14.1 13.2 14.1 1.5 0 3-.2 4.1-.4 1.2-.2 2.1-.4 2.3-.4.4 0 .6 0 .9.1.3.1.6.1.9.2v-3.7c-2.1 1.1-4.8 1.8-7.4 1.8-6.3 0-10.4-4.1-11.7-10.8h24.4c.1-8.4-5.3-15-13.5-15zm.2 2.4c6.4 0 9.9 4.9 11 10.3h-22c1.2-5.4 4.7-10.3 11-10.3zM125.7 0h-2.9c.2.6.4 1.4.4 2v34.5c0 .6-.2 1.4-.4 2h3.4c-.2-.6-.4-1.4-.4-2V0zm11.8 0h-3.8c.2.6.4 1.4.4 2v34.5c0 .6-.2 1.4-.4 2h3.8c-.2-.6-.4-1.4-.4-2V2c0-.6.2-1.4.4-2zm5.6 17.1L155.6 2c.6-.8 1.4-1.4 2-2.1h-5.2c.2.2.3.5.3.9 0 .5-.8 1.3-1.7 2.4L138 19c11.9.6 18.5 9.2 18.5 17.4 0 .6-.2 1.4-.4 2h3.8c-.2-.6-.4-1.4-.4-2-.1-9.4-7.5-17.5-16.4-19.3zm32.3-6c-7 0-13.2 6.4-13.2 14.1 0 7.7 6.2 14.1 13.2 14.1 1.5 0 3-.2 4.1-.4 1.2-.2 2.1-.4 2.3-.4.4 0 .6 0 .9.1.3.1.6.1.9.2v-3.7c-2.1 1.1-4.8 1.8-7.4 1.8-6.3 0-10.4-4.1-11.7-10.8H189c0-8.4-5.4-15-13.6-15zm.2 2.4c6.4 0 9.9 4.9 11 10.3h-22.1c1.3-5.4 4.7-10.3 11.1-10.3zm36.3-.6c0 .3-.2.6-.3.9l-9.3 19.8-9.3-19.9c-.1-.3-.3-.6-.3-.8 0-.3.1-.6.3-.9h-4c.3.4.7 1 .9 1.5l10.6 23.1-5.5 11.6c-.3.6-.8 1.3-1.1 1.9h4.1c-.2-.3-.3-.6-.3-.9 0-.7.2-1 .4-1.5l16.4-33.8c.3-.6.8-1.3 1.2-1.9h-4.2c.3.3.4.6.4.9zm7.5 5.3c0-2.9 1.8-4.7 4.8-4.7 2 0 3.6.7 5.4 1.6v-3.8c-.5.2-1.1.3-1.8.3-.3 0-.9-.1-1.6-.3-.7-.1-1.5-.2-2.2-.2-3.6 0-7 2.7-7 6.8 0 8.5 12.9 7.1 12.8 13.8 0 3.8-3.6 5.3-6.8 5.3-2.2 0-4.9-1.1-6.6-2.3v3.9c.5-.2 1.1-.3 1.8-.3.9 0 2.3 1.1 5.4 1.1 4.8 0 8.6-3.5 8.6-7.6 0-9.6-12.9-7.8-12.8-13.6z"/><g fill="#A3A9AF"><path d="M10.3 51.8c.3-1 .1-1.4-.9-1.4h-.8c-.2 0-.2-.1-.2-.2l.2-.5c0-.1.1-.1.3-.1.2 0 1.2.1 3 .1 1.9 0 2.9-.1 3.1-.1.1 0 .2.1.2.2l-.2.5c0 .1-.1.2-.3.2h-1c-.8 0-1.2.2-1.6 1.5L8.8 63.1c-.2.5.1.6.6.6h.9c1.4 0 4.1 0 4.6-.1.4-.1.6-.2.8-.4.4-.4 1.7-2.4 1.8-2.5 0-.1.1-.1.2 0l.2.1c.1 0 .2.1.1.2-.1.2-.8 2.9-.9 3.5 0 .2-.2.4-.3.4-.1 0-.3-.1-.6-.1-.2-.1-.5-.1-.8-.1-.5 0-3.3-.1-5.1-.1-2.5 0-5.2.1-5.4.1-.1 0-.2 0-.2-.2l.1-.4c0-.1.1-.2.2-.2h.5c1 0 1.4-.2 1.8-1.6l3-10.5zM28.3 55.5c.2 0 .2.1.2.2l-1.7 4.6c-.6 1.7-.9 2.7-.9 2.9 0 .2 0 .2.2.3.3 0 1.5-1.1 1.7-1.4 0-.1.1-.1.2 0l.2.2c.1.1.1.1 0 .2s-2.1 2.2-3.6 2.2c-.3 0-.4-.2-.4-.5s1.1-3 1.4-3.8l-.1-.1c-.9 1.3-3.3 4.3-5.4 4.3-.4 0-.8-.4-.8-.9 0-.7.7-2.1 1.6-4.1.6-1.4 1.1-2.4 1.1-2.8 0-.2-.2-.3-.4-.3-.4 0-1.5 1-1.7 1.3-.1.1-.1.1-.2 0l-.2-.2c-.1 0-.1-.1 0-.2.2-.2 2-2.1 3.4-2.1.4 0 .6.4.6.8 0 .5-.5 1.8-1.4 3.8-.6 1.3-1.2 2.7-1.2 3.2 0 .2.2.4.4.4 1.2 0 3.5-2.9 4.1-3.8.4-.6.8-1.2 1-1.9l.8-2.1c0-.1.2-.2.3-.2h.8zM32.8 57.3c-.1-.3-.2-.4-.4-.4-.4 0-.9.7-1.4 1.7 0 .1-.1.1-.2.1l-.3-.2c-.1 0-.1-.1 0-.2.1-.3 1.5-3 2.6-3 .5 0 .7.2 1 1.2l.7 2.5c1-1.2 1.7-2.3 2.3-2.9.4-.4.9-.9 1.5-.9.4 0 .6.3.6.7 0 .7-.3 1.8-.6 2.6 0 .1-.1.1-.2.1l-.3-.1c-.1 0-.2-.1-.2-.2.4-1.2.4-1.7 0-1.7-.5 0-1.7 1.6-2.9 3.1l1 2.9c.1.4.4.6.6.6.5 0 1.3-1.3 1.4-1.5 0-.1.1-.1.2 0l.3.1c.1 0 .1.1.1.2-.3.5-1.4 2.6-2.7 2.6-.5 0-.8-.3-1-.9l-.9-3c-1.4 1.8-2.9 3.9-3.8 3.9-.6 0-.8-.3-.8-.8s.3-1.8.5-2.3c0-.1.1-.1.2-.1l.3.1c.1 0 .1.1.1.2-.4 1.3-.1 1.6.2 1.6.5 0 2.1-2 3.1-3.3l-1-2.7zM49.5 55.5c.2 0 .2.1.2.2L48 60.3c-.6 1.7-.9 2.7-.9 2.9 0 .2 0 .2.2.3.3 0 1.5-1.1 1.7-1.4 0-.1.1-.1.2 0l.2.2c.1.1.1.1 0 .2s-2.1 2.2-3.6 2.2c-.3 0-.4-.2-.4-.5s1.1-3 1.4-3.8l-.1-.1c-.9 1.3-3.3 4.3-5.4 4.3-.4 0-.8-.4-.8-.9 0-.7.7-2.1 1.6-4.1.6-1.4 1.1-2.4 1.1-2.8 0-.2-.2-.3-.4-.3-.4 0-1.5 1-1.7 1.3-.1.1-.1.1-.2 0l-.2-.2c-.1 0-.1-.1 0-.2.2-.2 2-2.1 3.4-2.1.4 0 .6.4.6.8 0 .5-.5 1.8-1.4 3.8-.6 1.3-1.2 2.7-1.2 3.2 0 .2.2.4.4.4 1.2 0 3.5-2.9 4.1-3.8.4-.6.8-1.2 1-1.9l.8-2.1c0-.1.2-.2.3-.2h.8zM51.3 64.5c-.2 0-.2-.1-.2-.2l1.2-3.6c.4-1.2 1.1-3.5 1.1-3.9 0-.2-.2-.3-.4-.3-.4 0-1.4 1-1.7 1.4 0 .1-.1 0-.2 0l-.2-.2s0-.1 0-.2c.5-.7 1.8-2.2 3.3-2.2.4 0 .6.4.6.8s-.4 1.6-.8 3.1h.1c.6-1.2 2.4-3.9 3.6-3.9.6 0 1 .4 1 1s-.4 1-.9 1c-.2 0-.4 0-.6-.2-.2-.2-.3-.3-.6-.3-.6 0-1.8 1.9-2.7 3.3-.3.4-.5.9-.9 1.9l-.7 2.2c0 .2-.1.2-.3.2h-.7zM59 58.5s-.1-.1 0-.2c.1-.3 1.3-3 2.6-3 .7 0 .9.5 1.1 2.5.2 2.5.4 5.1.4 6.5h.1c.6-1 1.9-3.6 2.2-4.7.1-.4.3-1 .3-1.9 0-.2 0-.6-.1-.8-.1-.2-.2-.5-.2-.8 0-.4.2-.8.9-.8.6 0 .9.5.9 1.1 0 1.4-.8 3.3-1.5 4.7-1 2.1-3.3 6.1-5.2 7.9-.6.6-2 2-3.3 2-.9 0-1.2-.5-1.2-1s.5-.9.9-.9.6.2.8.4c.2.1.4.3.6.3.2 0 .6-.1 1-.5 1.2-.9 2.1-2.2 2.4-3 .2-.4.2-.9.2-1.2 0-.5-.5-6.5-.7-7.6-.1-.4-.2-.6-.4-.6-.4 0-1.1 1.3-1.3 1.8 0 .1-.1.1-.2.1l-.3-.3zM77.7 60.8c-.1.5.2.5.5.1l6.7-9c.6-.8.6-1.4 0-1.4h-.7c-.2 0-.3-.1-.2-.3l.1-.4c0-.1.1-.2.3-.2.3 0 1 .1 2.4.1 1.3 0 1.8-.1 2.1-.1.2 0 .3.1.2.2l-.1.4c0 .2-.1.2-.2.2h-.7c-.8 0-1.5.8-2.3 1.7l-9.5 12.3c-.1.2-.4.4-.6.4-.3 0-.4-.3-.3-.8l1.8-12.5c.1-.7-.1-1.2-1-1.2h-.7c-.2 0-.3 0-.3-.2l.1-.4c0-.2 0-.2.2-.2.3 0 1.2.1 2.8.1 1.6 0 2.5-.1 2.8-.1.2 0 .3.1.2.2l-.1.5c0 .1-.1.2-.2.2h-.7c-.8 0-1.2.3-1.3 1l-1.3 9.4zM93.8 55.3c.1 0 .1.1.1.2-.4.9-1.5 3.9-1.7 4.3-.1.4-1.1 3.1-1.1 3.3s.1.3.2.3c.3 0 1.4-1.1 1.5-1.3.1-.1.1-.1.2 0l.2.2c.1.1.1.1 0 .2-.2.4-2.2 2.3-3.4 2.3-.3 0-.5-.1-.5-.4 0-.3.2-1 1.1-3.3h-.1c-.9 1.4-3.1 3.8-4.7 3.8-.5 0-1.2-.4-1.2-1.4 0-3.2 3.6-8 6.3-8 .9 0 1.3.4 1.6.7l.4-.6c.1-.1.1-.2.2-.2h.9zM91 59.1c.3-.6.5-1.2.5-1.8 0-.6-.2-1.3-1-1.3-2 0-4.4 4.6-4.4 6.7 0 .5.2.8.6.8 1.1 0 3.9-3.6 4.3-4.4zM94.7 62.7c0-3 2.4-7.3 5-7.3 1 0 1.3.8 1.3 1.2 0 .5-.5.9-.9.9-.3 0-.5-.2-.6-.5-.1-.2-.3-.6-.7-.6-.6 0-1.1.5-1.6 1.5-.6 1.3-.9 3.2-.9 3.9 0 1.6.5 1.8.9 1.8.9 0 1.7-.9 1.9-1.2.1-.1.1-.1.2-.1l.2.2c.1 0 .1.1 0 .2-.3.5-1.8 1.9-3.2 1.9-.7.1-1.6-.5-1.6-1.9zM110.2 55.3c.1 0 .1.1.1.2-.4.9-1.5 3.9-1.7 4.3-.1.4-1.1 3.1-1.1 3.3s.1.3.2.3c.3 0 1.4-1.1 1.5-1.3.1-.1.1-.1.2 0l.2.2c.1.1.1.1 0 .2-.2.4-2.2 2.3-3.4 2.3-.3 0-.5-.1-.5-.4 0-.3.2-1 1.1-3.3h-.1c-.9 1.4-3.1 3.8-4.7 3.8-.5 0-1.2-.4-1.2-1.4 0-3.2 3.6-8 6.3-8 .9 0 1.3.4 1.6.7l.4-.6c.1-.1.1-.2.2-.2h.9zm-2.7 3.8c.3-.6.5-1.2.5-1.8 0-.6-.2-1.3-1-1.3-2 0-4.4 4.6-4.4 6.7 0 .5.2.8.6.8 1.1 0 3.9-3.6 4.3-4.4zM114 56.7h-1.5c-.1 0-.2 0-.1-.2l.2-.5c0-.1.1-.2.2-.2h1.6l1.1-2.6c.1-.2.2-.3.4-.3.2-.1.8-.3 1-.4.1-.1.2-.1.3-.1.1 0 .2.1 0 .4l-1.5 2.9h2.2c.1 0 .2.1.1.2l-.2.5c0 .1-.1.1-.2.1h-2.2l-2.1 5c-.3.6-.5 1.2-.5 1.4 0 .2.1.4.3.4.6 0 2.1-1.3 2.2-1.4.1-.1.1-.1.2 0l.2.3c.1.1.1.1 0 .2-.3.4-2.3 2.2-4 2.2-.5 0-.7-.2-.7-.5s.1-.7.2-1l2.8-6.4zM118.5 64.1c0-.5.4-1.5 1.3-4l.6-1.7c.2-.6.4-1 .4-1.3 0-.2-.1-.3-.3-.3-.4 0-1.4 1.2-1.8 1.5-.1.1-.2.1-.2 0l-.2-.2c-.1-.1-.1-.1-.1-.2.1-.1 2.3-2.8 3.7-2.7.3 0 .5.2.5.5 0 .4-.4 1.4-.7 2.4l-1.3 3.3c-.3.8-.4 1.3-.4 1.5 0 .2.1.3.2.4.5-.1 1.7-1.3 1.8-1.5 0-.1.1-.1.2 0l.2.2c.1.1.1.2 0 .3-.1.2-1.9 2.3-3.7 2.3 0 .1-.2-.1-.2-.5zm2.8-12.8c0-.6.5-1.1 1.1-1.1.8 0 1.2.5 1.2 1.1 0 .3-.3 1.1-1.2 1.1-.9 0-1.1-.9-1.1-1.1zM124.1 61.8c0-2.8 2.1-6.5 5-6.5 1.5 0 2.4 1.1 2.4 2.6 0 2.4-1.9 6.8-5.1 6.8-1.2 0-2.3-1.2-2.3-2.9zm6.5-4.3c0-.7-.4-1.2-1.1-1.2-.9 0-2.1.8-3.2 2.6-.7 1.2-1.3 2.5-1.3 3.6 0 .7.5 1.1 1 1.1 2.3 0 4.6-4.6 4.6-6.1zM133.2 64.5c-.2 0-.3 0-.2-.2l1.6-4.1c.5-1.4 1.1-2.9 1.1-3.3 0-.2-.1-.4-.3-.4-.4 0-1.5 1.1-1.8 1.5-.1.1-.1.1-.2 0l-.2-.2c-.1-.1-.1-.1 0-.2.3-.4 2-2.2 3.5-2.2.5 0 .7.4.7.7 0 .7-.9 2.8-1.1 3.3h.1c.7-1.1 3.1-4 5-4 .7 0 1.1.3 1.1.9 0 1-.5 2.1-1.2 3.9-.6 1.5-1.1 2.7-1.1 3 0 .1.1.3.3.3.3 0 1.3-.8 1.6-1.1.1-.1.2 0 .2 0l.2.2c.1.1.1.1 0 .2-.3.4-2 1.9-3.5 1.9-.3 0-.5-.1-.5-.4 0-.4.8-2.2 1.5-4 .3-.9 1.1-2.7 1.1-3.2 0-.3-.2-.5-.6-.5-.9 0-3 2-4 3.6-.4.6-.7 1.2-1.3 2.8l-.6 1.5c0 .1-.1.1-.3.1h-1.1zM153.7 60.8c-.1.5.2.5.5.1l6.7-9c.6-.8.6-1.4 0-1.4h-.7c-.2 0-.3-.1-.2-.3l.1-.4c0-.1.1-.2.3-.2.3 0 1 .1 2.4.1 1.3 0 1.8-.1 2.1-.1.2 0 .3.1.2.2l-.1.4c0 .2-.1.2-.2.2h-.7c-.8 0-1.5.8-2.3 1.7l-9.5 12.3c-.1.2-.4.4-.6.4-.3 0-.4-.3-.3-.8l1.8-12.5c.1-.7-.1-1.2-1-1.2h-.7c-.2 0-.3 0-.3-.2l.1-.4c0-.2 0-.2.2-.2.3 0 1.2.1 2.8.1 1.6 0 2.5-.1 2.8-.1.2 0 .3.1.2.2l-.1.5c0 .1-.1.2-.2.2h-.7c-.8 0-1.2.3-1.3 1l-1.3 9.4zM163.4 64.1c0-.5.4-1.5 1.3-4l.6-1.7c.2-.6.4-1 .4-1.3 0-.2-.1-.3-.3-.3-.4 0-1.4 1.2-1.8 1.5-.1.1-.2.1-.2 0l-.2-.2c-.1-.1-.1-.1-.1-.2.1-.1 2.3-2.8 3.7-2.7.3 0 .5.2.5.5 0 .4-.4 1.4-.7 2.4l-1.3 3.3c-.3.8-.4 1.3-.4 1.5 0 .2.1.3.2.4.5-.1 1.7-1.3 1.8-1.5 0-.1.1-.1.2 0l.2.2c.1.1.1.2 0 .3-.1.2-1.9 2.3-3.7 2.3 0 .1-.2-.1-.2-.5zm2.8-12.8c0-.6.5-1.1 1.1-1.1.8 0 1.2.5 1.2 1.1 0 .3-.3 1.1-1.2 1.1-.9 0-1.1-.9-1.1-1.1zM173.3 51.7c.3-.8.3-1.4-.3-1.4h-.6c-.2 0-.2-.1-.1-.2l.1-.4c0-.1.1-.2.2-.2h2.7c.2 0 .3.1.2.3l-4.6 11.6c-.2.5-.7 1.7-.3 1.7.4 0 1.4-.9 1.6-1.1.1-.1.1-.1.2 0l.2.3s.1.1 0 .2c-.1.2-2.2 2-3.6 2-.3 0-.5-.1-.5-.6 0-.3.5-1.7.8-2.4l4-9.8zM178.6 51.7c.3-.8.3-1.4-.3-1.4h-.6c-.2 0-.2-.1-.1-.2l.1-.4c0-.1.1-.2.2-.2h2.7c.2 0 .3.1.2.3l-4.6 11.6c-.2.5-.7 1.7-.3 1.7.4 0 1.4-.9 1.6-1.1.1-.1.1-.1.2 0l.2.3s.1.1 0 .2c-.1.2-2.2 2-3.6 2-.3 0-.5-.1-.5-.6 0-.3.5-1.7.8-2.4l4-9.8zM188.6 55.3c.1 0 .1.1.1.2-.4.9-1.5 3.9-1.7 4.3-.1.4-1.1 3.1-1.1 3.3s.1.3.2.3c.3 0 1.4-1.1 1.5-1.3.1-.1.1-.1.2 0l.2.2c.1.1.1.1 0 .2-.2.4-2.2 2.3-3.4 2.3-.3 0-.5-.1-.5-.4 0-.3.2-1 1.1-3.3h-.1c-.9 1.4-3.1 3.8-4.7 3.8-.5 0-1.2-.4-1.2-1.4 0-3.2 3.6-8 6.3-8 .9 0 1.3.4 1.6.7l.4-.6c.1-.1.1-.2.2-.2h.9zm-2.8 3.8c.3-.6.5-1.2.5-1.8 0-.6-.2-1.3-1-1.3-2 0-4.4 4.6-4.4 6.7 0 .5.2.8.6.8 1.1 0 3.9-3.6 4.3-4.4zM189 63.4c0-.3.3-.7.7-.7.5 0 .8.3.9.7s.2.6.8.6c.6 0 1.2-.6 1.2-1.3 0-.9-.7-1.8-.9-2.6-.2-.4-.7-1.1-.6-2.2 0-1.3 1.2-2.7 2.8-2.7.7 0 1.6.3 1.6 1.1 0 .4-.4.7-.7.7-.3 0-.6-.2-.7-.5-.1-.3-.1-.6-.6-.6-.4 0-1.1.6-1.1 1.4 0 .8.7 1.7.8 2 .1.3.8 1.3.8 2.5 0 1.7-1.4 2.8-2.9 2.8-1.3.1-2.1-.4-2.1-1.2z"/></g></svg>