<svg xmlns="http://www.w3.org/2000/svg" width="240" height="62.6" viewBox="157.8 -21.6 240 62.6"><g fill="#FFF"><path d="M174.3 23.1c.2-.6.4-1.3.4-2v-33.7h-7.4c-.7 0-1.3.1-2 .4v-3H187v3c-.5-.3-1.3-.4-2-.4h-7.4v33.7c0 .7.2 1.3.4 2h-3.7zM190.7 21.1c0 .7.2 1.3.4 2h-3.3c.2-.6.4-1.3.4-2V-1.3c0-.7-.2-1.3-.4-2h2.8V1h.1c1.3-2.8 4.8-4.3 7.6-4.3.7 0 1.3-.1 1.8-.3v3.1c-.4-.2-1.1-.3-1.8-.3-3.5 0-6.2 1.6-7.7 6.2l.1 15.7zM225.1 21.1c0 .7.2 1.3.4 2h-2.8v-3.9h-.1c-2.3 3.2-5 4.7-8.9 4.7-6.9 0-13.3-5.8-13.3-14s6.4-14 13.3-14c3.6 0 7.1 1.8 9.7 4.4.8.8 1.4 1 2.1 1-.2.6-.4 1.3-.4 2v17.8zm-2.4-16.7c-.3-2.9-5-6.2-9.1-6.2-6.2 0-10.8 5.3-10.8 11.6s4.6 11.6 10.8 11.6c3.8 0 8-2.5 9.1-6.3V4.4zM240.2 19.1l9.6-20.5c.1-.2.2-.6.2-.9 0-.2-.1-.6-.2-.9h3.8c-.3.4-.7 1-1 1.6L240.1 24h-.1L227.8-1.6c-.2-.4-.5-1-1-1.5h3.9c-.1.3-.2.7-.2.9s.1.6.3 1l9.4 20.3zM255.7 10.9c1.3 6.7 5.3 10.7 11.4 10.7 2.5 0 5.1-.7 7.1-1.8v3.7c-.3 0-.5-.1-.9-.1-.2 0-.5 0-.9 0-.2 0-1.1.1-2.3.3-1.1.1-2.5.3-3.9.3-6.8 0-12.8-6.4-12.8-14 0-7.7 6-14 12.8-14 8 0 13.1 6.6 13.3 14.9h-23.8zm21.4-2.5C276 3 272.6-1.8 266.4-1.8S256.9 3 255.7 8.4h21.4zM287.1 21.1c0 .7.2 1.3.4 2h-3.3c.2-.6.4-1.3.4-2v-34.2c0-.7-.2-1.3-.4-2h2.8v36.2zM294.8 23.1c.2-.6.4-1.3.4-2v-34.2c0-.7-.2-1.3-.4-2h3.7c-.2.6-.4 1.3-.4 2v34.2c0 .7.2 1.3.4 2h-3.7zm21.8 0c.2-.6.4-1.3.4-2 0-8.2-6.5-16.7-18.1-17.3L311.6-12c.9-1.1 1.6-1.8 1.6-2.3 0-.3-.1-.7-.2-.9h5c-.7.7-1.3 1.2-2 2l-12.1 15c8.8 1.8 15.9 9.7 15.9 19.2 0 .7.2 1.3.4 2l-3.6.1zM324.7 10.9c1.3 6.7 5.3 10.7 11.4 10.7 2.5 0 5.1-.7 7.1-1.8v3.7c-.3 0-.5-.1-.9-.1-.2 0-.5 0-.9 0-.2 0-1.1.1-2.3.3-1.1.1-2.5.3-3.9.3-6.8 0-12.8-6.4-12.8-14 0-7.7 6-14 12.8-14 8 0 13.1 6.6 13.3 14.9h-23.8zm21.4-2.5C345 3 341.6-1.8 335.4-1.8S325.9 3 324.7 8.4h21.4zM359.6 21.2l-10.4-23c-.2-.4-.5-1.1-.9-1.5h3.9c-.1.3-.2.7-.2.9 0 .2.2.6.3.8l9 19.8 9.1-19.7c.1-.3.3-.7.3-.9 0-.2-.1-.6-.2-.9h4.1c-.4.6-.9 1.2-1.2 1.9l-16 33.7c-.2.4-.4.8-.4 1.5 0 .2.1.6.2.9h-3.9c.3-.7.8-1.3 1.1-1.9l5.2-11.6zM387.8-.1c-1.6-.9-3.3-1.6-5.3-1.6-3 0-4.7 1.8-4.7 4.7-.1 5.7 12.5 3.9 12.5 13.4 0 4.1-3.8 7.6-8.4 7.6-3 0-4.4-1.1-5.3-1.1-.7 0-1.3.1-1.8.3v-3.9c1.8 1.1 4.4 2.2 6.5 2.2 3.1 0 6.6-1.5 6.6-5.3 0-6.7-12.5-5.3-12.5-13.6 0-4 3.3-6.7 6.8-6.7.7 0 1.4.1 2.1.2.7.1 1.2.2 1.5.2.7 0 1.3-.1 1.8-.3v3.8l.2.1z"/></g></svg>