<svg xmlns="http://www.w3.org/2000/svg" width="220" height="230" viewBox="100 -105 220 230"><path fill="#FC6B49" d="M228.2-73.4h65.1l20.3-21-46.9 13.3-22.8-8.7-15.7 16.4z"/><path fill="#FF3000" d="M141.4 86.2V4.9l72.7-78.3h70.1L141.4 86.2z"/><path fill="#FC6B49" d="M117.6 118.4L141.4 88V19l-35 36L128 67.3l-10.4 51.1z"/><path fill="#FFF" d="M168.6 10.6c-.4-.4-.3-1.1.3-1.7.7-.8 2.4-1.8 3.9-2.2L171.7 4c-1.5.4-3.4 1.5-4.6 2.9-2.1 2.4-2.4 5-.6 6.7 3.5 3.2 7.1-3.1 9-1.5.6.6.4 1.3-.3 2.1-1 1-2.9 2.1-4.8 2.2l1.1 2.7c2-.3 4.2-1.5 5.6-3.1 2-2.2 2.5-4.9.6-6.7-3.7-3.3-7.5 2.8-9.1 1.3zm14.8-15.1c-2.2-2-4.8-1.7-7 1L172.5.8l9.9 9 2.2-2.5-2.8-2.5 1.7-1.8c2.3-2.8 2.1-5.4-.1-7.5zm-2.1 5.7l-1.5 1.7-3.2-2.8 1.5-1.7c1-1.1 2.1-1.3 3.1-.4 1.2 1 1.1 2.1.1 3.2zm10.6-6.3l-2-1.8 4.2-4.8-2-1.8-4.2 4.8-2-1.8 4.8-5.3-2-1.8-7 7.8 9.9 9 7.1-8-2-1.8-4.8 5.5zM203-17.7c-1.4 1.5-3.8 1.7-5.5.1-1.7-1.4-1.8-3.8-.4-5.3.8-.8 2.1-1.4 3.5-1.4l-.4-3.1c-2 .1-3.9 1-5.3 2.5-2.7 3.1-2.5 7.3.3 9.8 2.9 2.7 7.1 2.4 9.8-.7 1.3-1.4 2-3.6 1.8-5.7l-2.9.1c.2 1.5-.2 2.9-.9 3.7zm-2.7-12.9l9.9 9 2.2-2.5-9.9-9-2.2 2.5zm7.6-8.4l6.2 13.2 2.4-2.7-1.3-2.4 3.9-4.3 2.5 1 2.4-2.7-13.7-4.6-2.4 2.5zm8.5 2.8l-2.5 2.9-2.4-4.8 4.9 1.9zm12.9-11l-3.8 4.2-7.8-7-2.2 2.5 9.9 9 6-6.7-2.1-2z"/></svg>