<svg xmlns="http://www.w3.org/2000/svg" width="148" height="148" viewBox="24 -24 148 148"><path fill="#4A4949" d="M165.6 53.5c.1 0 .2 0 .3 0h-.3zm5-6.8l-.6 1c-.1-.2-.3-.4-.4-.6-.2-.1-.5-.2-.7-.3-.1 0-.1 0-.2 0 .2.3.5.5.7.8h.6l-1.6 2.8c-.2.3-.2 1 0 1.2l2.1 4c.7 1.4.5 3.3-.5 4.4l-1 1.2c-.1 0-.3-.1-.4-.1-.3.1-.7.2-1 .3.3.1.6.3.9.4l-.9-.4c-.6.2-1.1.3-1.7.5l1.8.9-.5.6c-.2.2-.3.9-.2 1.2l1.4 4.3c.5 1.5-.1 3.3-1.3 4.3l-3.5 2.8c-.3.2-.5.8-.5 1.2l.5 4.5c.2 1.5-.7 3.2-2 4l-1.2.7c-.1 0-.1-.1-.2-.1l-.5-.1s0 .1.1.1h.1l.4.2-2.5 1.4c-.3.2-.6.7-.7 1l-.3 4.5c-.1.9-.5 1.9-1.2 2.5-.1 0-.2 0-.3 0l-1.5-.9c-.3-.2-1.2-.5-1.3.1-.1.6.6 1.2 1.1 1.4-.3-.1-.5-.1-.8 0-.2 0-.4.1-.4.3 0 .2 0 .3.1.4l-.4.1c-.2 0-.3-.1-.5 0-.1 0-.2.1-.2.2l-1.5.5c-.2 0-.3 0-.5 0 0 .1 0 .2.1.2-.1.1-.3.3-.4.4l-1.2-.4c.2.4.3.8.5 1.2l.4-.1-.3 1.1-.2-.4h-.2l.1.3c.1 0 .1.1.2.1l-.4 1.8c-.2-.2-.4-.4-.6-.5-.7-.4-1.5-.9-2.3-.9l.7-2.7c.4-1.4 1.6-2.7 3-3.2l4.3-1.4c.2-.1.5-.4.5-.7l.3-4.5c.1-1.4 1.1-3 2.3-3.7l3.9-2.1c.2-.1.4-.5.4-.7l-.3-2.2h.5l-.6-.7-.2-1.6c0-.3 0-.6 0-.8.2.1.4.2.6.2l-.2-.3c-.1 0-.3 0-.4-.1 0-.2 0-.3.1-.5.1-.4.2-.8.4-1.2.2.3.3.4.2.5.1.2.4.4.7.8l.7.1-1.5-1.5c.3-.5.6-1 1.1-1.3l3.2-2.6c.5 0 1.1 0 1.8 0-.4-.3-.8-.5-1.2-.8h-.1c0-.1 0-.2 0-.3l-1.4-4.3c-.2-.6-.2-1.4-.1-2.1.2.3.5.5.7.8.1 0 .1 0 .2 0s.1-.1.2-.1c-.2-.3-.4-.5-.7-.8-.1-.1-.2-.1-.4-.2.2-.7.5-1.4.9-2l2.2-2.6.1.1h.5c-.2-.1-.3-.2-.4-.3l.5.3 1.4.1-.4-.3c-.4-.1-.9-.2-1.3-.3l.3-.4c.1-.2.2-.6.1-.8l-1.9-3.5 1.8.1v-.1c-.4-.2-.8-.3-1.2-.5-.3-.1-.6-.2-1-.3-.6-1.3-.5-3 .2-4.1l2.2-3.9c.1-.2.1-.7-.1-.8l-2.5-3.1c-.2-.3-.4-.5-.6-.8l-.1-.1c-.7-1.1-.9-2.7-.4-3.9l1.5-4.2c.1-.2 0-.7-.2-.8l-3.4-2.9c-1.1-.9-1.7-2.7-1.5-4.1l.3-1.6.7.1h1.5l-.4-.8c-.6.1-1.2.2-1.7.3l.1-.5 1.5-.3-.3-.7-.4-.1c-.2 0-.4 0-.6 0v-.1h.1s-.1 0-.1 0l.1-.8c0-.2-.2-.6-.4-.8L157 16c-1.2-.7-2.2-2.3-2.2-3.8l-.1-4.5s0 0 0-.1c.3 0 .7 0 1 0-.6-.8-1.2-1.5-1.8-2.2.2.5.4 1.1.6 1.9-.1-.1-.2-.3-.3-.3l-3-1.1v-.1s-.1 0-.1 0l-.4-.1.4-.1-.3-.9c-.5.2-.9.1-1.5-.2.1.2.2.4.3.5.1.1.3.2.4.4-1.4-.5-2.6-1.9-2.9-3.3l-1-4.4c0-.2-.4-.5-.6-.6l-3.9-.6c-.5-.1-1-.2-1.4-.3-1.1-.5-2.1-1.4-2.5-2.4l-1.8-4.1c0-.1-.1-.2-.2-.2l.8.4c.6-.1 1.2-.1 1.8-.2l-.1-.2-1.7-.7c-.7 0-1.3 0-2 0l.9.5c-.1 0-.1 0-.1 0l-4.5.1c-1.4 0-3.1-.8-3.9-2l-2.5-3.7c-.1-.2-.6-.4-.8-.3l-4.4 1c-.4.1-.9.1-1.4 0l-.9-1.2-2.1-1-.5.1-2.3-2.4c-.1-.1-.5-.2-.8-.2l-4.2 1.8c-.3 0-.5 0-.8 0 0 .1 0 .1.1.2-1.2.2-2.6 0-3.5-.7l-.8-.5h1.1l-.2-.7c-.6 0-1.2 0-1.8 0L100-21l2.5-.5-.8-2.2 2.9 2.1c.1.1.4.2.7.2.1.3.2.5.2.8h.1c-.1-.3-.2-.5-.4-.7.2 0 .3 0 .5-.1l2.5-1.1 1.6-.7c1.4-.6 3.3-.2 4.4.9l3.1 3.2c.2.2.9.4 1.2.4l4.4-1c1.2-.3 2.5.1 3.5.9-.4 0-.7 0-1.1 0l.7 1s0 0 .1 0c.5.2 1 .4 1.6.6l1.9 2.9c.2.3.8.6 1.1.6l4.5-.1c1.5 0 3.1 1 3.7 2.4l1.8 4.1c.1.3.7.7 1 .8l4.4.7c.6.1 1.3.4 1.8.8l-.9.7 1.4 1.7c.2 0 .4.1.6.1 0 .1 0 .1.1.2l-.4-.1.3.2h.1c0 .1.1.2.1.3l1 4.4c0 .1 0 .1.1.2L149 1.5c-.2-.1-.4-.2-.6-.3-.5.1-1 .1-1.5.2.7 1.3 1.4 2.7 2.2 4.2l1.3-.2-.1-.3c.1 0 .2 0 .2.1v-.1c.1.1.1.1.2.1.2 0 .4.1.5.1.2-.2.4-.5.6-.8l-1-1L155 5c.6.2 1.1.6 1.6 1.1.1.2.2.5.3.7.1.1.3.3.4.4.2.4.3.9.3 1.4l.1 4.5c0 .3.4.9.6 1.1l3.9 2.3c1.3.8 2.2 2.5 1.9 4l-.7 4.4c0 .3.2 1 .4 1.2l3.4 2.9c1.2 1 1.7 2.9 1.2 4.3l-1.3 3.8-1.3-.5c-.1 0-.3-.1-.4-.1.2.3.3.6.5.9.3.1.7.1 1.1.2-.1.3 0 .9.2 1.2l.5.6-.8-.1c.1.3.3.5.4.8l1.4 1.1.8.5.6.7c1.1 1 1.2 2.9.5 4.3zm-23.4 53.1l.4-.1-.8-.5c.1.3.3.5.4.6zm-.9-1.3c-.1 0-.1 0-.2 0 .1 0 .1.1.2.1v-.1zm.4-.1s-.1 0-.1 0c-.1.1-.1.1-.2.2 0 0 0 .1 0 .1.3.2.6.3.8.5l-.1-.2-.4-.6zm.6-.1c-.1 0-.2.1-.4.1.1.2.2.4.4.6.1.1.2.3.3.4.1.1.2.1.3.2l-.6-1.3zm1.5-.1c-.3 0-.6 0-.9 0-.1 0-.1 0-.2 0 .4.1.8.3 1.1.4v-.4zm6.5-11.2c-.1 0-.2 0-.3.1.1 0 .2.1.3.1.1 0 .1-.1 0-.2zm1.6 0c-.1-.1-.3-.1-.4-.2l.4.3.5.3-.5-.4zm4.6-11.7l-.5-.3s-.1 0-.1 0c.2.3.5.5.8.8-.1-.2-.2-.3-.2-.5zm-.6 2.6c-.2-.1-.5-.2-.7-.2.7.8 1.4 1.6 2.1 2.4l-1.4-2.2zm.6-.9c.1.1.2.3.3.5l.5.4s0 0 .1 0c-.1-.3-.2-.5-.3-.8-.2-.1-.4-.1-.6-.1zm.8-3.5h-.3v.1l.6.1c0-.1-.2-.1-.3-.2zm.4 5l-.1-.1c.1.1.2.3.3.4-.1-.1-.2-.2-.2-.3zm4.1-11.3h.1c-.1-.2-.3-.3-.4-.5h-.2c.2.1.3.3.5.5zm-64.4-87.3c-.6.1-1.2.2-1.8.3h1.9l-.1-.3zm6.4-1.2c-.5.1-1 .2-1.4.3l.5.3 2.3.1c-.4-.2-.9-.5-1.4-.7zm7.2 4.2l-.7.1c.4.2.8.4 1.3.6l-.6-.7zm12.2 3.4l.1.1.2.1h.2l-.5-.2zm10.2 4.8l-1.4.2 1.3.7.5-.1-.4-.8zm9.9 10c-.3-.2-.7-.4-1-.6-.2 0-.5 0-.7.1.1.2.2.4.3.6l1.4-.1zm4.3 4l-1.2.2c1 .3 1.5.6 1.7.9.2 0 .4 0 .4-.2l-.9-.9zm10.8 20.5c-.4 0-.8-.1-1.3-.1 0 0 0 0-.1 0l1.4.5h.3c0-.2-.2-.3-.3-.4zm5.7 31.6l.2.1-.1-.1c-.1-.1-.3-.2-.4-.3.1.1.2.2.3.3zm-2.9-2.8c.4.4.8.8 1.3 1.2l1.4.8-1-1.9c-.5 0-1.1-.1-1.7-.1zm1.5-8.6c.2.2.3.4.5.6l.7-.1-.3-.2-.9-.3zm1-3.5c.1.2.2.4.3.6.3.2.7.3 1.1.5-.4-.4-.9-.8-1.4-1.1zm-67.9-65.6c-1.1-.2-2.2-.4-3.3-.5 1.1-.4 2.4-.1 3.3.5zm-5.7 4.6c-.4.1-.9.2-1.3.3h1l-.4.3c-.3.2-.8.4-1.2.5-1.1.3-2.2.2-3.1-.2l-4.1-2c-.1 0-.3-.1-.5 0-.2 0-.3.1-.3.1L84-18.5l-.3-.8c-.5 0-1 0-1.4 0l.4 1h1.1l-.8.8-1 1c-.1.1-.3.2-.4.4-1 .7-2.6 1.1-3.8.8l-4.3-1.1s-.2 0-.3 0c-.2.1-.4.2-.5.3l-.5.7-.8-.3c-.9-.1-1.8-.2-2.7-.3l1-1.5c.2.1.4.1.7.2l-.5-.5.1-.2s.1-.1.1-.1c.1.1.1.1.2.2H72l-1-.9c.4-.3.9-.5 1.4-.7.7-.2 1.3-.2 1.9 0l4.3 1.1c.1 0 .4 0 .6 0 .3-.1.5-.2.6-.3l.4-.3c.1.2.1.3.2.5l.7.5h.9c-.2-.4-.3-.7-.4-1-.4 0-.9 0-1.3 0l.5-.5h.6c-.1-.2-.1-.3-.2-.4l.4-.3c.1 0 .1 0 .2 0l.3.7h1.5l-.1-.3c-.4-.1-1-.2-1.7-.4l-.1-.2.2-.2c.6.2 1.1.4 1.4.5l-.5-1.5.1-.1c.4-.4 1-.8 1.7-.9.2-.1.4-.1.6-.1 1.1 1 2.3 2 3.6 3.2h.8c-.7-.6-1.1-.9-1.2-.9.2 0 .3 0 .5.1-.8-.8-1.6-1.6-2.3-2.3.2.1.5.1.7.2l.6.3 1.9 1.9c.3 0 .6.1.8.1l.8.7H94c.1-.4.6-.6 1.5-.7 0 0 .3.1.7.3l-.8-1.8c-.2-.2-.3-.4-.5-.5l.9-.6 2.2 2.4-2.9 1.6zM72-18c-.1.2-.6.3-1.7 0 .3.3.7.7 1 1 .2.1.4.1.6.2h.1l-.6-1c.3 0 .5-.1.7-.1L72-18zm8.8.4c-.1 0-.1 0 0 0 .1.3.2.6.3.8l.8-.1c-.4-.2-.8-.5-1.1-.7zm1.5.1c-.1 0-.1 0 0 0-.1-.1-.1-.1-.1-.1l.1.1zm2.8-2.6c0 .1.1.2.1.3h.2l-.3-.3zm5.3 1c-.1-.1-.1-.1-.2-.2-.3 0-.6 0-.9 0 .3.3.6.6 1 .9l.7-.1c-.2-.2-.4-.4-.6-.6zm3.7-.2c-.7 0-1.4 0-2.1 0l.6.5 1.7-.3c-.1-.1-.2-.1-.2-.2zm-3.5-1.1l-.3-.2c2.1.3 2.1.4.3.2zm-19.3 6.2c-2.8.5-5.6 1-8.3 1.5l.4.4c.1 0 .2.1.3.1 1.9-1 1.9-1 .2.1.1 0 .2.1.3.1l1.4.4h.1l-.7-1.1c.5.4.9.8 1.2 1.1h2.9c-.5.3-1 .6-1.6.8-.4.1-.9.2-1.3.1l-.5-.2c.1.1.3.1.4.2l-4.4-.3s-.1 0-.1 0c-.3.1-.5.3-.6.4l-1.9 4.1c-.5 1-1.5 1.9-2.6 2.3l-1.4-1c-.3.1-.6.2-1 .2l.7.4 1.2.5c-.1 0-.2.1-.3.1l-3.2.4c-.5-.2-1-.4-1.5-.6-.7.2-1.3.3-1.9.5l1 1.2.6-.1v.1c-.2 0-.3 0-.5.1l.4.4-.2 1c-.3-.5-.7-.9-1-1.3-.2 0-.3 0-.5.1.5.5.9 1 1.4 1.5l-.6 2.3s0 0 0 .1l-1.9.2c.6 0 1.2 0 1.8.1-.4 1.2-1.5 2.3-2.7 2.8 0-.1-.1-.2-.1-.3-.5-.2-1-.3-1.5-.4.4.3.9.5 1.4.8l-1.9.6-.9-.5c-.2 0-.3 0-.3.2-.1 0-.2 0-.2 0l.3.6h-.1c-.1-.2-.2-.5-.3-.7-1.1 0-1.7-.5-1.8-1.6l-.5-.3c.2-.1.4-.2.5-.2l4.3-1.4c.3-.1.8-.6.8-.9V.6c.7-.1 1.5-.1 2.5-.2H49s.1 0 .1 0c.2 0 .4 0 .6-.1L48.6-.8c-.5-.2-1-.4-1.6-.6v-.1l1.3.5-1.1-1.1s0 0-.1 0l.4-1.6c.4-1.5 1.8-2.8 3.3-3l4.4-.3c.4-.1.9-.5 1-.7l1.9-4.1c.4-.8 1-1.4 1.8-1.8.4.2.8.3 1.3.5-.3-.2-.5-.5-.7-.7.1 0 .2-.1.3-.1.3-.1.6-.1.9-.1l.7.7 3-.5 1.1.1s.1 0 .3 0c.3-.1.6-.3.7-.4l4.5-.8-.7.7zM44.2 2.9H43c.4.2.8.4 1.2.7l2.2.8-2.2-1.5zm4-6.3c-.2.1-.4.1-.6.2.3.3.6.7.9 1l.5-.1c-.3-.4-.5-.8-.8-1.1zm9.3-2.3c0 .1 0 .1 0 0zm4.2-5.6c.1.1.1.2.2.2s.2 0 .3-.1c-.2.1-.3 0-.5-.1zM46.8-1.1l2 1.6c-.6-.3-1.3-.8-2-1.4v-.2zm-5.1 7.9l-.3 4.5c-.1 1-.6 2.1-1.3 2.8l-.9-1.1-2.2-.6.5-.3c.3-.2.6-.7.7-1l.2-3.1.1.1-.1-.2.1-1.2c.1-.8.4-1.6 1-2.3 0 .1.1.1.1.2.7.6 1.5 1.2 2.4 1.8-.2.1-.3.3-.3.4zm-4.1 7.9l1 .4L35 17c-.2.1-.4.5-.4.7l.1 1.2c-.2 0-.3 0-.4 0l.6 1.5.2 1.8c.1.4 0 .8 0 1.2 0 0-.1 0-.1 0l.1.2c0 .1 0 .1 0 .2-.1-.1-.2-.2-.2-.3-.7-.2-1.4-.3-2.1-.5.7.6 1.3 1.1 2 1.7-.1.1-.1.2-.2.3L32 22.8s0-.1 0-.1l-.2-1.8c0-.1 0-.2 0-.2s0 0-.1 0l-.3-2.3c0-.1 0-.3 0-.4h2.3c-.1-.1-.1-.3-.2-.4-.3-.1-.7-.3-1-.4.6-.2-.1-1.1-.3-1.3 0 0-.1-.1-.1-.1.4-.5.8-1 1.4-1.3l1.2-.7.5.2c-.1-.1-.2-.2-.4-.3l1.3-.7 1.2 1.7h.3zM32.1 19l.1.1 2.5 1.3.2.1c-.2-.5-.4-1-.6-1.5-.7 0-1.5 0-2.2 0zm2.5-1.3c-.3-.1-.6-.2-.9-.3l.2.4.7-.1zm-1.9 9.4l-1.3 1c-.5-.4-1.1-.7-1.5-.6-.5.1-.1.9.5 1.4l-.3.3c-.2.1-.3.6-.2.8l.2.8c-.1-.1-.2-.2-.3-.3-.4-.4-1.1-.8-1.7-.7l-.6.2h-.1s0 0 0 .1l-.3-.1c-.2.1-.3.3-.2.5.1.3.3.6.5.8.3.3.6.5 1 .6.1.3.3.7.4 1 .3-.2.6-.5.9-.8-.2-.1-.4-.1-.5-.2l.9-.2c.1 0 .2-.2.2-.3l.9 2.9c.4 1.4.1 3.2-.9 4.3L27.4 42c-.1.2-.2.6-.1.8l2.1 4c.7 1.3.7 3.1-.1 4.4l-2 3.8c-.1.2-.1.7.1.8l2.8 3.5c.9 1.1 1.2 2.9.7 4.3l-1.5 4.2c-.1.2 0 .7.2.8l3.4 2.9c1.1.9 1.7 2.7 1.5 4.1l-.7 4.4c0 .2.2.6.4.8l3.9 2.3c1.1.7 2 2 2.2 3.3-.3-.2-.7-.3-1-.5.2.2.4.5.6.7l.5.2.1 4.4c0 .2.3.6.5.7l4.2 1.5c.1 0 .3.1.4.2 0 .1.1.1.1.2l.2.1v-.1c.1 0 .1.1.2.1h.1c1 .7 1.7 1.7 2 2.8l1 4.4c0 .2.4.5.6.6l4.4.7c1.4.2 2.9 1.4 3.4 2.7l1.8 4.1c.1.2.5.5.7.5l4.5-.1c1.4 0 3.1.8 3.9 2l2.5 3.7c.1.2.6.4.8.3l4.4-1c1.4-.3 3.2.2 4.2 1.3l3.1 3.2c.1.1.5.2.8.2l4.2-1.8c1.3-.6 3.2-.3 4.3.5l3.7 2.6c.1.1.4.1.7.1.1 0 .1 0 .1-.1l3.7-2.5c.3-.2.8-.4 1.2-.5.9-.3 1.9-.2 2.8.1-.7 1.1-1.5 2-2.2 3.1 0 0-.1 0-.1 0l-3.7 2.5c-.3.2-.7.4-1.1.5-1 .3-2.2.1-3.1-.4h.3c-.1-.1-.2-.1-.3-.2h-.3l-3.4-2.4h.6l-.2-.1c-.2 0-.3 0-.5 0l-.1-.1c-.2-.1-.5-.2-.9-.2l-.1-.4-.6-.3c.2.2.4.4.6.7l-.7-.7-.8-.3 1.3 1c-.1 0-.1 0-.1 0l-4.1 1.7c-1.4.6-3.3.2-4.4-.9L78 118c-.2-.2-.9-.4-1.2-.4l-4.4 1c-.1 0-.2 0-.3 0l-1-1.4c-.5 0-1-.1-1.5-.1.4.4.7.8 1.1 1.2.2.1.4.2.7.3-1.2-.1-2.4-.8-3-1.7l-2.5-3.7c-.2-.3-.8-.6-1.1-.6h-.7c.1-.1.1-.3 0-.4-.1-.3-.3-.6-.5-.8-.4-.4-1.1-.8-1.7-.7l-1.1.3c-.2-.3-.5-.6-.7-.8-.3-.2-.6-.4-.9-.4-.2 0-.5 0-.6.1-.1.2-.3.5-.4.7-.3.5.3 1.1.7 1.4.1.1.2.1.2.2.1.1.2.2.3.3-.8-.2-1.5-.6-2.1-1.2l-.1-.3c-.1 0-.2 0-.2-.1-.2-.2-.3-.5-.4-.7l-1.8-4.1c-.1-.3-.7-.7-1-.8l-4.4-.7c-1.5-.2-2.9-1.6-3.2-3.1l-1-4.4c-.1-.3-.5-.8-.8-.9L39.9 95c-1.4-.5-2.6-2.1-2.6-3.6l-.1-4.5c0-.3-.4-.9-.6-1.1l-3.9-2.3c-1.3-.8-2.2-2.5-1.9-4l.7-4.4c0-.3-.2-1-.4-1.2L27.7 71c-1-.9-1.5-2.4-1.3-3.7l.3.3c.5.1 1.1.2 1.6.3-.5-.6-1.1-1.2-1.6-1.8l1.3-3.6c.1-.3 0-1-.2-1.2L25 57.8c-1-1.2-1.1-3.1-.3-4.4l2.2-3.9c.2-.3.2-1 0-1.2l-2.1-4c-.7-1.4-.5-3.3.5-4.4l2.9-3.4c.2-.2.3-.9.2-1.2L27 31c-.5-1.5.1-3.3 1.3-4.3l.4-.3.4.1-.2-.3 2-1.6c.5.8 1 1.7 1.5 2.5h.3zm61.7 93.1c-.4-.1-.8-.2-1.2-.3l.8.6h.7c-.1-.1-.2-.2-.3-.3zm.6 3.2l1.6-.3c-.4 0-.8 0-1.2.1l-.6.1.2.1zm-.7-2.6h.6s0 0-.1-.1c-.2 0-.4 0-.5.1zm-1.6 0H94s-.1 0-.1-.1c-.5 0-.9 0-1.4 0 .1.1.2.1.2.1zm-2.2-.2h.3l-.4-.2c.1.1.1.2.1.2zm-.2-.8c.6.3 1.3.6 2 .8h1.5c-.3-.2-.7-.5-1-.7-.8-.2-1.5-.4-2.3-.6-.1 0-.2 0-.3 0 0 .1 0 .3.1.5zm-.9-.4v-.1c-.1 0-.2 0-.2 0s.1 0 .2.1zm-1.1.8c.2.1.4.2.5.3-.2-.2-.4-.3-.6-.5.1.2.1.2.1.2zm-1.8 0l.3.1-.1-.4-.5-.3c0 .3.1.5.3.6zM69.2 118c.3.1.7.3 1 .5l-1-1.1c-.3 0-.5 0-.8-.1.3.2.5.4.8.7zm-17.8-12.8c.1 0 .3.1.4.1-.1-.2-.3-.3-.4-.5-.1 0-.2 0-.3 0 .1.2.2.3.3.4zM28 48.2h.2l-.5-.9-2.4-2.5c.9 1.1 1.8 2.3 2.7 3.4zm75.4 66c.2-.2.6-.2.7-.4.2-.3-.2-.7.2-.9.7.3.3.8 0 1.2-.3 0-.6.1-.9.1zM142 95.8c-.1.5 0 .6.2.6-.4.4-.8.7-1.2 1.1-.2-.4-.6-.3-.7-.2-.5.3-.4.7-.2 1.1-.4.3-.8.7-1.2 1-.2 0-.4 0-.5.1-.1.1-.2.3-.2.5-6.8 5.6-14.9 9.9-24 12.3-1.6.4-3.1.7-4.7 1 0-.1 0-.1 0-.2 0-.3.2-.5.3-.7 0-.1 0-.4 0-.8 1.3-.3 2.7-.6 4-.9 20.6-5.5 36.1-20.8 42.8-39.5.2.3.6.3.8.6.2.3.2.6.4.7-3.3 8.9-8.6 17-15.4 23.7 0 0-.1-.2-.4-.4zm-11.6 5.1c-.4.3-.9.6-1.3.8-.1-.1-.1-.2 0-.4.1-.3 1.1-.9 1.3-.4zm24.3-70.6c.1.3.2.6.3 1-.1 0-.2 0-.3-.1-.4-.2-.3-.5-.2-.7 0-.1.1-.2.2-.2zm-.6 1.9c-.1.3-1.2.3-.7-.3.2-.2.8-.1.7.3zm-.6-13.9c-.2 0-.3 0-.4 0 0 0-.7.7-1 .5-.1-.1.4-1.4.6-1.7.3.4.5.8.8 1.2zm-6.3-6.7c0 .1 0 .1 0 .2-.3-.4-.5-.7-.8-1 .3-.1.7.3.8.8zm-1.3 2.2c-.1.1-.1.2-.2.3 0 0-.1.6-.3.6-.2 0-.6-.5-.6-.8 0-.2.3-.5.4-.9 0 0 0-.1 0-.1.3.3.5.6.7.9zm.6-5.5c-.3.2 0 .7-.1 1.1 0 .2-.2.4-.4.7-5.8-7.1-13-12.7-21.1-16.7.3-.3.7-1 .7-1.4 7.9 3.9 15.1 9.5 20.9 16.3zm-18.2-9.5c.3-.7.9.5.2.6-.3 0-.3-.4-.2-.6zM126 32.7l.1.4h-.1l-.1-.4h.1zm.5-3.2v.2h-.1v-.2h.1zm.5 2.3v.2h-.1v-.2h.1zm.9-.6h.1v.2h-.1v-.2zm0 6.8h-.1v-.2h.1v.2zm0 .2l-.2.1v-.1l.2-.1v.1zm-.2-.7l.2.2h-.1l-.1-.2zm1.1 1.3l-.4-.2.1-.1.4.2-.1.1zm-.1-1.2h-.1l-.2-.8h.1l.2.8zm-.5-.7l.1.4h-.1l-.1-.4h.1zm.3.9h-.4v-.1h.4v.1zm1.1-1.2l-.1-.2c.1.1.2.2.2.2v.1s-.1.1 0 .1c-.1 0-.1-.1-.1-.2zm.4-34.9c0-.5.6.1.3.3 0-.1-.2-.1-.3-.3 0 .1 0 .1 0 0zm2.5 1.8c-.5-.4-1-.7-1.5-1.1 0 0 0-.1 0-.1.6-.3 1.4.6 1.5 1.2zm-9 31.8h-.1l-.1-.5h.1l.1.5zm-.4-.8l.2.1v.1l-.2-.2zm-.3-.2c0-.1 0-.2.1-.4l.1.5c-.1-.1-.2-.1-.2-.1zm.4 1.3l.1.4h-.1l-.1-.4h.1zm.8 2.5c.1 0 .2 0 .3 0l.1.3c-.1 0-.2 0-.3.1l-.1-.4zm-3.5-.4l.1.3h-.1l-.1-.3h.1zm-.1.6h.1l.1.2h-.1l-.1-.2zm.3.9l.1.2h-.1l-.1-.2h.1zm-1.5-7.5c0 .1 0 .3 0 .4-.1-.3-.2-.4-.2-.4.1 0 .1 0 .2 0zm.2 1.1h-.1l-.2-.6h.1l.2.6zm.7.8h.1l-.1.7h-.1l.1-.7zm1.7-.7h-.1l-.1-.2h.1l.1.2zm7.6-4.7l-4.4 1.2 1.2 4.5.1.1.8-.2c.1 0 .2-.1.3-.2l.1.1c.2 0 .6-.1 1.3-.3.4-.1.6-.3.6-.5 0 0 0 .1 0 .2s0 .2 0 .2l.6 2.3-.6.2c0 .1 0 .3.1.6-.1-.1-.2-.3-.2-.5-.1 0-.3 0-.4.1-.2 0-.3.1-.4.2-.1.1-.1.1-.1.2 0 0 .1.1.1.1s-.1 0-.1 0c-.1 0-.1.1-.1.1s-.1-.1-.1-.2c-.1 0-.1-.1-.2-.1 0 .1-.1.2-.1.3 0-.1-.1-.2-.1-.3-.1 0-.1.1-.1.3 0-.1-.1-.1-.1-.1s-.1 0-.1.1c.1.1.2.1.2.2s-.1.2-.2.3c.1 0 .2.1.3.1 0 .1-.1.2-.1.3-.1.1-.1.2-.1.3 0 0 0 .1 0 .1 0-.1-.1-.2-.2-.3 0 .1 0 .2-.1.3l1 3.8 4.5-1.2c0 .2.1.5.2.9s.2.9.4 1.5l-6.3 1.7c0 .1-.1.1 0 .2 0-.1-.1-.2-.2-.1-.1 0-.1.1 0 .2-.2-.1-.3-.1-.5 0 0 0 0-.1 0-.1 0-.1-.1-.2-.2-.2.1-.1.1-.2 0-.4l-1.9-6.6c-.1.1-.1.3 0 .5-.1 0-.1.1-.3.1 0 0 0-.1 0-.1 0-.1 0-.1 0-.2s0-.2 0-.2c0-.1-.1-.1-.2 0-.1 0-.2 0-.2-.1 0 0 0 0 .1 0s.1-.1.2-.2c-.1 0-.1-.1-.1 0l.1-.2s.1-.1.1-.2c0 .1.1.1.2.2.1-.1.1-.2 0-.3 0-.1-.1-.2-.1-.3 0 0 0 0-.1.2l-.1-.2c.1-.1.2-.3.1-.4 0-.1-.1-.2-.2-.3l-.1.2c-.1-.2-.2-.5-.5-.9.1 0 .2-.1.3-.2 0 0 0 .1.1.3 0 .2.1.3.3.5h.2c.1-.1 0-.3 0-.6 0 0 0-.1-.1-.2 0-.1-.1-.1-.1-.2v-.1c-.1-.2-.1-.3-.2-.3s-.1 0-.2.1c.1-.2 0-.5 0-.8-.1 0-.1 0-.2 0-.2.1-.4.1-.6.2.2.7.4 1.6.7 2.6.4 1.6.6 2.5.7 2.9 0 0 .1.1.2.2l.4 1.9s0 0-.1 0-.1.1-.2.1c0-.2-.1-.4-.1-.6-.1-.2-.1-.4-.2-.5 0 0-.1.1-.1.1s0-.1 0-.3c0 0-.1 0-.2-.1 0 .2 0 .4-.1.7-.1-.2-.2-.3-.2-.3s.1-.3.2-.7c0 .1 0 .2 0 .3 0 0 .1 0 .2.1.1 0 .1-.1.1-.2l-.5-1.9c-.1 0-.1.1-.3.1v-.4l-.1-.1c0 .1-.1.1-.1.1l-.2-.9c.1-.2.2-.3.2-.3s.1 0 .1 0l.1.1c.1-.1.1-.3 0-.5 0 0-.1-.2-.2-.5 0 0-.1 0-.1 0 .1-.3 0-.8-.2-1.6 0-.1-.1-.3-.1-.3-.2.1-.4.2-.6.4-.5.4-.9.7-1.1 1.1 0 .1 0 .1.1.1-.1 0-.1.1-.2.1.1.2.3.4.5.6l.1.3c-.1.1-.1.2 0 .5-.1 0-.1 0-.2 0 0 .1 0 .1 0 .2.1.5.2.7.2.6 0 .2 0 .3 0 .4.1.1.1.2.1.3 0 .2.1.3 0 .5-.1-.2-.1-.5-.2-.8-.1-.4-.2-.7-.2-.8-.2-.7-.4-1.2-.6-1.6-.1.2-.1.3-.1.4 0 .1.1.2.2.3-.1 0-.1 0-.2 0 0 .3 0 .6.1 1 0 .1.2.3.5.5-.1 0-.2 0-.3-.1 0 .4 0 .8.2 1.2.1.5.3 1 .6 1.6 0 .4.1.9.3 1.5l.9 3.3-2.4.7-2.1-8-.2-.1c0 .1-.1.1-.1.2-.1 0-.1-.1-.2-.3 0-.1 0-.2.1-.3.1-.2.1-.3.1-.3-.1 0-.2 0-.3-.1 0 .1 0 .2 0 .2-.1-.1-.2-.1-.3-.1.1 0 .1-.1.1-.1s-.1-.1-.2-.2h.2c0-.1 0-.3.1-.5-.1 0-.2-.1-.3-.1 0-.1.1-.2.1-.4 0 .1.1.1.2.2-.1-.4-.3-.9-.5-1.6-.3-1.3-.5-2.2-.5-2.8-.1-.2-.8-.1-2.1.3l-.1-.3c.1-.1.2-.2.4-.4-.5-.3-.8-.4-1-.4 0 0-.1.1-.3.1l-.4-1.3 7.8-2.1.6 2.4c-.1.1-.6.2-1.4.4-.4.1-.6.2-.6.4-.1-.1-.2-.1-.3-.2-.1.1-.1.2-.2.3l1.2 4.7c.1 0 .1 0 .2.1.2-.2.2-.5.1-1s-.3-1.2-.5-1.9c.1-.1.1-.2.2-.3 0 .1.1.4.2.7v-.1h-.1v.2h.1c.1.3.1.5.2.7l.3.9c.1 0 .1-.1.2-.1 0-.1.3-.3.8-.8.3-.2.6-.5 1-.6 0-.1 0-.2 0-.3 0-.1 0-.1-.1-.1 0-.1-.1-.8-.4-1.9-.2-.7-.3-1.4-.5-2 .2.6.4 1.2.5 1.7.1.4.2.8.3 1.2 0 0 .1 0 .1 0 .1 0 .3-.2.5-.4 0 .2 0 .3 0 .3s-.1 0-.1 0 0 0 0 .1c0 0 0 .1.1.1-.1 0-.2 0-.4 0-.1.2-.1.4 0 .6.1.2.2.4.3.5l-.1.1s0 .1 0 .1c.3-.1.5-.2.8-.3 0-.2-.1-.4-.1-.6-.1-.3-.2-.6-.3-.9.1-.1.1-.2 0-.4 0-.1 0-.2-.1-.3 0-.1-.1-.2-.1-.3-.1-.2-.1-.5-.2-.9s-.2-.7-.2-.9c-.1-.5-.3-1-.5-1.4l7.1-1.9v2.5zM124 40.9h.1l-.1-.3h-.1l.1.3zm-7.7-10.2c-.1.1-.3.2-.5.3v.1l.1.2v.1l.3-.1c0-.2.1-.4.3-.5l-.2-.1zm0 .9l.1.3h-.1c-.1 0-.1.1-.1.1 0 .1 0 .1 0 .2 0 0 .1 0 .2 0 0-.1.1-.3.3-.7l-.4.1zm.9 5.5h-.3v.1h.3v-.1zm.1.7c-.1.1-.1.2-.1.3.1 0 .1 0 .2-.1.1 0 0-.1-.1-.2zm.8-6.4l-.2.1v.1l.2-.1v-.1zm1.6 2.2c0 .1 0 0 0 0zm4.6 7.9c0-.1.1-.1 0 0 .1-.1.1-.1 0 0zm-7.5-5.3zm5-39.1c-.2-.1-.4-.2-.6-.3 0-.2 0-.4 0-.5.3-.8 1 .5.6.8zm-.7 32.1v.2h-.1v-.2h.1zm-.2-.9l.2.8h-.1l-.2-.8h.1zm-.2 5.4h.1l.1.4h-.1l-.1-.4zm.4.6h-.1l-.1-.1.1-.1.1.2zM88.7 21.6l-.2-.2c0 .1.1.2.1.4.3.3.7.7 1 1 0 0 .1-.1.1-.1.1.8.3 1.5.4 2.2 0 0-.1 0-.1 0s0 0 0 .1l.1.2c.1.5.2.9.3 1.3l-.4-.2c-.1-.2-.1-.4-.2-.6l.2.1c-.1-.1-.2-.3-.3-.4-1-2.6-2.2-5.7-3.3-8.6 0 0 .1 0 .1.1 0 0-.1-.1-.1-.1-1.5-4-3-7.7-3.6-9.6v-.1c-.1-.3-.2-.5-.2-.7-.2-.6-.3-1.2-.3-1.7.1 0 .1.1.2.1l-.1-.3-.1-.1s0-.1 0-.1.1 0 .1 0-.1 0-.1-.1c0 0 0 0 .1 0l-.1-.2c0-1.7.4-3.1 1.3-3.3 1.3-.3 2.8 1.7 3.5 4.5.1.3.2.7.2 1.3l-.8-.8c-.1 0-.1 0-.2 0 0 0 0 0 0 .1l.8 1h.1s.1 0 .1 0c0 .1 0 .2.1.3.4 2.2.8 5.7 1.3 9.3l-.3-.1c-.3.1-.6.1-.9.2l.8.5c.2 0 .3-.1.5-.1 0 0 0 .1 0 .1h-.4l.2.2c.1 0 .1 0 .2 0 .1.4.1.8.2 1.2-.1 0-.2 0-.3 0l.3.2c.2 1.4.4 2.7.6 4l-.9-1zM82.5 5.3zm4.5 7.3s0-.1 0 0h.3s-.1.1-.1.1h.1s.1 0 .1 0h.2l-.2-.1s0 0 0-.1c-.1-.1-.2-.1-.3-.2-.2.1-.2.2-.1.3-.1 0-.1 0 0 0zm-.4-4.4s-.1 0-.1 0c.1.1.2.3.3.4l.5-.1c-.2-.1-.5-.2-.7-.3zm0-.7l-.6-.4c0 .1.1.3.1.4h.5zm.7 5l-.4-.2.4.2zm-.4 4.6c0-.1-.1-.1 0 0-.1 0-.1 0-.1 0h.1c-.1 0 0 0 0 0zm-.1 0zm-.7-6.2l.3.3c.2 0 .4.2.5.4l-.3-.6-.2-.1h-.3c-.1-.1-.1-.1 0 0zm-.1-.1c.1 0 .2 0 .3 0l-.3-.2c0 .1 0 .1 0 .2zm0-.9v-.3c-.1 0-.2 0-.3.1.1.1.2.1.3.2zm-.7 1.7zm-.5-4.1h.1l-.3-.1.2.1zm-.9-4.4s0 .1 0 .2c0-.1 0-.1 0-.2zm.8 3.9c-.1 0-.2 0-.2 0 .1 0 .1 0 .2 0zm.4-4.7l-.2-.2c0 .1.1.2.1.4.3.3.7.7 1 1 .1-.1.1-.1.2-.2l-1.1-1zm.6 3.4c0 .2.1.4.1.7l.5.1c-.2-.3-.4-.6-.6-.8zM87 7.3l-.6-.3H86c.2.2.4.3.7.5.1-.1.2-.1.3-.2zm.1.2H87h.1zm-.3.7c-.1 0-.1 0 0 0l.6.3h.2l-.8-.3zm1.1 7.2c0-.1 0-.2.1-.3-.1-.1-.2-.2-.3-.4l-.1-.1c0 .3-.1.5-.3.7.1 0 .1.1.2.1h.4zm.4 2.5s0 .1 0 .1h.3c-.1 0-.2 0-.3-.1zm.2.6s.1.1.1.1.1 0 .1 0c-.1 0-.1-.1-.2-.1zM88.7-8c-.6.1-.6-.9-.4-1.1.6-.8 1.2.9.4 1.1zm-1.5-.7c-.8-1.3 1.1-1.2 0 0zm-50 38.3c.3.1.5.4.8.4-.3 1-.7 2.1-.9 3.1-.3-.2-.6-.4-.8-.7-.1-.2-.3-.3-.5-.5.2-.9.5-1.7.8-2.6.2.1.4.2.6.3zm3.3 50.1c-.2-.3-.3-.6-.5-.9.1-.2.2-.3.3-.4.1-.2.7-.5.9-.8.2.3.3.6.5.9-.1.1-.2.2-.4.2.1.4.6.4.8.6 0 0 0 .1.1.1 0 0 0 .1 0 .1-.3.2-1.2.3-1.7.2zM37.3 54c0-.4-.1-.8-.1-1.3.3.5.2.9.1 1.3zm-.1-6c.2 0 .3-.1.6.1-.1.2-.3.6-.6.7 0-.2 0-.5 0-.8zm1.9 7.2c0-.2.5-.4.6-.2 0 .1 0 .2 0 .3-.1.2-.6.2-.6-.1zm16.6 14l.1.2h-.1l-.1-.2h.1zm.9-.5v.2h-.1v-.2h.1zm1-19.8h.1v.2h-.1v-.2zm.2 20.2h.1l.1.2h-.1l-.1-.2zm.3 1.9H58v-.2h.1v.2zM38.4 57.4c-.2-.5-.6-.1-.5-.1-.1.1-.2.2-.2.2 0-.3-.1-.5-.1-.8.4 0 .8-.1 1.1.2.2.2.1.7.4.9.3.2.5.2 1 0 .1-.3-.4-.2-.5-.5.1-.3.3-.2.5-.3.9 7.8 3.5 15.5 7.7 22.7 4 6.7 9 12.3 14.8 16.7 0 0 0 .1 0 .1 0 .2.1.3.2.3s.1-.1.1-.2c.8.6 1.7 1.2 2.5 1.8 0 0 0 .1 0 .1.1.2.4.2.6.4.5.4 1 1.3.8 1.7 0 .1-.3.1-.4.3-.2.1-.3.5-.4.8-8.1-5-15.1-11.9-20.3-20.7-4.3-7.3-6.9-15.1-8-23.1.2 0 .8-.2.7-.5zm9.8 24.5c-.1 0-.2.1-.4.2.1.5.7.2.4-.2zM44.5 76c.9.3.4-1.4.1-1.5-.3-.1-.5.2-.5.3-.1.3 0 1 .4 1.2zm-1.4-1.6c.3-.2 1.3-.8 1-1.1-.3-.4-1.2.5-1 1.1zm-2.9-9.6c1.5-1.4-1.3-1.6 0 0zm24 40.2c-8.8-5.4-16.3-12.8-21.8-21.9.3-.3.5-.5.6-.5-.1 0 .6-.1.8-.2 5.4 9 12.8 16.3 21.6 21.6 0 .2 0 .3-.1.4 0 .1-.3 0-.5.1-.2 0-.4.3-.6.5zm.9.6c.6-.1 1.5.1 1.7-.4.1-.1-.1-.3-.2-.6.7.4 1.4.8 2 1.1-.1.2-.2.5.1.9.2.2.6.2.7.3.1.2-.1.4-.4.7-1.3-.6-2.7-1.3-3.9-2zm1.5-3.7c.5-.4 1.8-.4 1.9-1 0-.2-.6-.6-.5-1 .8.5 1.6.9 2.5 1.4 0 .1.1.3.4.5.2.2.7 0 .8.1.2.4-.7 1.5-.7 2.3-1.6-.7-3-1.4-4.4-2.3zm8.9-23.7l-.5.1c.1-.1.2-.3.3-.5l.2.4zm1.9-.7h-.1v-.2h.1v.2zm-.2-.6c0-.1-.1-.1-.2-.2-.1.1-.1.1-.2.3l-.1-.2c.2-.2.3-.3.3-.5l.2.6zm-.5-.8h.1v.2h-.1v-.2zm-1.2-3l-.1.2c-.1 0-.3-.1-.5-.3v.2h-.1V73h.1c.3.1.4.1.4.1.1 0 .1 0 .1-.1 0 0 0 0-.1-.1 0 .1.1.2.2.2zm4.5 2h.1v.2H80v-.2zm-3.5 6.7c-.1-.5-.2-1.1-.4-1.9 0-.2-.1-.5-.1-.9l.1.1h.1l-.1-.2H76c0-.3-.1-.6-.2-1 0 0 0 0 0 .1-.1-.1-.2-.5-.3-.9-.1-.3-.1-.7-.2-1.2s-.2-1-.2-1.2c.1.2.2.5.4.9 0 0 0-.1.1-.3 0-.1 0-.2.1-.2 0 0 .1 0 .1 0 .1-.1.1-.2 0-.3 0-.1 0 0 .1.3 0 0-.1.1-.1.2-.1.1-.1.2-.1.2h.1c.1-.1.2-.2.3-.3 0 .1 0 .2-.1.3 0 0 .1 0 .1 0s.1-.1.1-.1c0 .1 0 .2-.1.3-.1 0-.2 0-.3-.1-.1.3-.1.5-.1.6 0 0 0 .1.1.1.2-.1.3 0 .3.1.1.1.1.2.2.4.1-.1.1-.2.1-.2s0-.1-.1-.1c.3.3.5.6.6.8h.1s0 .1-.1.1c.1 0 .1 0 .2 0-.1 0-.2.1-.2.2 0 0-.1-.1-.2-.2l-.1.1c0 .1.1.2.2.4 0 0 0-.1 0-.2l.1.2c.1 0 .2 0 .4 0l.1.5c-.1 0-.1 0-.2-.1-.1 0-.1.1-.1.2 0-.1-.1-.1-.2-.2 0 0 0 .1 0 .2s0 .1-.1.1-.1 0-.1 0l.5.2s.1 0 .1 0 0 .1 0 .1c.4-.4.4-1.4 0-2.7l-.7-2.6s-.1 0-.1 0c-.2-.1-.3-.1-.5-.1l-.2-.1c0-.1-.1-.1-.1 0 .1-.1.3-.2.6-.3 0 0 .1 0 .1 0l-2.3-8.5h.1c.1-.1.3-.1.5-.2.4-.1 1.1-.3 2-.5l2.2 8.2c.2.1.4.1.5.2 0-.1-.1-.2-.1-.4.3.1.5.1.6.1 0 0 .1 0 .1-.1s.1-.1.1-.1c.1 0 .2 0 .4 0 0 0 0 0 0-.1l-.2-.2c.2-.1.3-.2.2-.2.1 0 .1 0 .2.2 0 0 .1-.1.1-.2.1 0 .2 0 .4.2 0-.9 0-1.5-.1-1.9 0 0-.2-.2-.4-.5-.3-.3-.5-.5-.5-.6-.1-.2-.3-.5-.4-.9-.1-.2-.2-.6-.3-1 0 0 .2.4.6 1.2.3.6.6 1.1 1 1.4l-.6-6.4 3.3-.9c0 .1 1.8 3.8 5.2 11.2.1.1.2.1.2.1 0 .1 0 .3.1.5-.1 0-.3.1-.4.3.1.1.2.2.4.3 0 .1 0 .1 0 .2.1.3.2.7.5.9l.1-.1c-.1-.1-.2-.2-.2-.4 0 .1.1.2.3.3 0 0 0 .1 0 .1 0 .2.2.3.4.4.2.5.6 1.3 1.1 2.3l-2.6 1c-.6-1.3-1.1-2.5-1.6-3.5-.9.2-1.7.3-2.4.5-.2.1-.3.2-.3.4 0 .1 0 .2.1.6 0 .1 0 .2 0 .3.1.4.1 1.1.2 1.9 0 .2 0 .4-.1.5h.1l.1.3-2.6.7-.4-4.6c-.1 0-.1-.1-.2-.1.1 0 .1 0 .2-.1v-.4c0-.1-.1-.1-.1-.1s.1 0 .2.1v-.3s-.1-.1-.2-.1c0 0 .1 0 .1 0s.1 0 .1-.1v-.3c-.1 0-.5-.1-1.2-.3-.3-.1-.7-.1-1.1-.2l.4 1.3.2.1c.1-.1.1-.2.1-.2s0 0 .1.1c0 .1 0 .2 0 .4 0-.1 0-.1 0-.1s0-.1-.1-.1c0 .1-.1.1-.1.2.2 1.1.3 1.9.3 2.5 0 1-.3 1.7-.8 2.3-.1.1-.3.2-.4.3-.2.1-.2.3-.2.5 0 0 0 .1 0 .1-.1 0-.2 0-.2 0l-.3.3s0 .1 0 .1 0 .1 0 .1c-.1.2-.2.3-.2.5-.1 0-.3-.1-.4-.2-.4.5-.6.7-.6.7s-.1 0-.2 0-.1 0-.2 0c0-.1-.1-.3-.2-.6-.4-.4-.5-.6-.5-.7zm-.9-6h-.1v.2h.1v-.2zm.6 3.5h-.1l.1.2h.1l-.1-.2zm.3-1v-.2h-.1v.2h.1zm0-1.2l-.1.1v.1l.1-.2zm0 .6c0 .1 0 .2 0 .3 0-.1 0-.1.1-.1 0-.1-.1-.2-.1-.2zm14.1-.8h.1v-.2h-.1v.2zm-1.7-2.7h-.1l.1.2h.1l-.1-.2zm0 .9v-.3h-.1v.3h.1zm-.3-.1h.1l-.1-.3h-.1l.1.3zm-.1-.3h.1l-.2-.4h-.1l.2.4zm-1 .6c.2-.1.3-.1.4.1 0 .1 0 .1 0 .2l.1-.2c-.1-.1-.2-.2-.2-.4 0-.1 0-.1 0-.2 0 0 0 .1-.1.2l-.3-.2c0 .3.1.4.1.5zm-.1-.9h.1l-.1-.4h-.1l.1.4zm-.2-.5s.1-.1.1-.1c.1 0 .1 0 .2 0 0 .1 0 .2 0 .3v.1s0 .1.1.2c0-.2.1-.4.1-.5.2 0 .4.1.4.3 0 0 0 0 0 .1.1-.1.2-.1.1-.1-.1-.1-.2-.1-.3-.2l.1-.1s.1 0 .2.1c0 0 0-.1.1-.1 0 0 .1.1.1.1-.1-.2-.2-.3-.1-.3l.2.1s0 .1 0 .2 0 .2 0 .2c.1 0 .1-.1.2-.1 0-.1-.1-.2-.1-.3 0 0 .1 0 .2.1-.1 0-.3-.1-.6-.3-.3-.1-.5-.2-.5-.2-.1 0-.2.1-.3.2-.2.1-.3.1-.4.2.2 0 .2 0 .2.1zm-.3.2h.1v-.4h-.1v.4zm-1.4.3c0 .1 0 .2.1.2 0 0 .1-.1.1-.1 0-.1-.1-.2-.3-.3l.1.2zm-.1.8V75h-.1v.2h.1zm-.9-1.5l.6-.2v-.1l-.6.2v.1zm-.4-1h.1l-.1-.3H84l.1.3zM84 72c0 .1.1.2.3.3.2.1.3.2.3.2 0 .1-.1.1-.3.1.2 0 .3.1.3.2-.1.1-.2.2-.4.3.1 0 .2-.1.3-.1.2-.1.3-.1.3-.1 0 .1 0 .1 0 .2l.3.1s0 .1-.1.2l.3-.1v-.1c0-.1 0-.3.1-.6.1-.2.1-.4.2-.6l-2.3-5.2.7 5.2zm-.9-9.5l.2-.1v-.1l-.2.1v.1zm-.3 17.8h.1v-.2h-.1v.2zm-3.1-7.5v.1h.2v-.1h-.2zm.4.2c-.1 0-.1.1-.1.3.1-.1.2-.1.3-.2 0-.1-.1-.1-.2-.1zm1-1.1l.1.2.2-.1c0-.1 0-.1 0-.3l-.3.2zm-1.9 1.2l.2.7c.4.1.9.2 1.4.5.2 0 .3-.1.5-.3l-.3-.2.4-.1.1-.1s.1 0 .1 0l.1-.1c0-.1-.3-.2-1-.2v.2s.1.1.1.1c-.1 0-.1 0-.1.1s0 .1 0 .2l-.2.1s-.2-.1-.4-.3c-.2-.1-.4-.2-.4-.3 0-.1 0-.1 0-.2l-.1-.4s-.1 0-.2 0c-.2 0-.2.1-.2.3zm-.1-.6c.1 0 .1 0 .2-.1l-.3-.2.1.3zm5.8-.2c.1 0 .2 0 .4 0 0 .1 0 .1 0 .2-.1 0-.2 0-.4-.2zm3.3 1.6l-.2.1c-.1-.1-.2-.2-.3-.1l.1-.2c.1-.1.3 0 .4.2zm-12.2 5zm13.4-4.3c-.1 0-.1 0 0 0-.1-.1-.1-.1 0 0zM76.9 83l.2.9H77l-.2-.9h.1zm.3 1.8h.1l.2.6h-.1l-.2-.6zm.4.8h-.1v-.2h.1v.2zm-.4 21.2c.2.1.3.2.3.3-.2-.1-.5-.2-.8-.3.3-.1.4-.1.5 0zm-.1 4.2s.3.1.5.3c-.2-.1-.4-.1-.6-.2.1-.1.1-.1.1-.1zm.6-24.2h.1v.2h-.1v-.2zm11.6 22.5c-.2.2-.6.1-.4-.3 0-.3.5.1.4.3zm-1.1.5c.1-.2.3-.1.5.1-.2 0-.3-.1-.5-.1zm-.4-.1c-.1 0-.2 0-.3-.1-.1-.2-.1-.4.1-.6.2.2.2.5.2.7zM81 80s0-.1 0 0c-.1-.1-.1-.1 0-.2-.2-.1-.2-.1-.2-.2.1 0 .1-.1.2-.1v.1c.1.2.1.4.1.5 0 0 0 0-.1-.1zm-.7-4.7c.1-.2.2-.4.1-.5.1.1.2.3.4.5 0-.1 0-.1 0-.1.1 0 .2 0 .2 0-.1.2-.2.5-.3.7-.1-.1-.2-.1-.3-.1 0 0 0 .1 0 .2-.1-.1-.1-.1-.1-.2 0 0 0-.1 0-.2v.1l.2-.1-.1-.1-.1.1c0-.1 0-.1 0-.2.1 0 .1-.1 0-.1zm.1.4zm1 4s-.1-.1-.2-.1h.3c0-.1-.1 0-.1.1zm0 .1c0-.1 0-.1 0 0 0-.1 0-.1 0 0zm-.2-1.8l.2.1h-.1l-.1-.1zm0 1.4v-.1l.2-.1v.1l-.2.1zm.5.2v-.3l.1.2c.1 0 .3 0 .5 0h-.1c-.2.1-.4.1-.5.1zm6.7 28.4c-.7.5-2 1-3 1.3-.6-.1-1.2-.3-1.8-.4 0-.3 0-.6 0-.7-.1-.1-.3-.2-.4-.4-.4-.5-.3-1.5-.8-1.3-.2.1.4 1.5-.5 1.1-.4-.2-.2-.9-.4-1.1-.4-.5-1.3-.2-1.8-.9 0-.1.1-.2.1-.2 3 1 6 1.7 9.1 2.2-.2.1-.3.3-.5.4zm2.7-32.3H91v-.2h.1v.2zm-.2-2.2c0 .1 0 .2 0 .3 0 0-.2-.1-.3-.3.1.1.2 0 .3 0zm-1.4 1.3s0-.1.1-.3c0 0 .1.2.3.6-.2-.1-.3-.3-.4-.3zm20.7-8.7v-.2l.2-.1v.2l-.2.1zm-.4-1.7c0 .1-.1.2-.2.4-.1 0-.2-.1-.2-.3 0-.2 0-.4.1-.6 0 0 .1.1.1.2.2.2.2.2.2.3zm-.7-3.1h-.3v-.1l.3.1zm-.3 3.5l.1.3s-.1 0-.2-.1c0 0 .1-.1.1-.2zm-.7-6.4c.1 0 .2.3.3.7 0-.1-.1-.1-.3 0 0-.1 0-.4 0-.7zm.5 7.3h-.1l-.2-.4h.1l.2.4zm-.4-6h.1l.1.2h-.1l-.1-.2zm.6 9.9s0-.1.1-.3c0 0 .1.2.3.6-.2-.1-.3-.2-.4-.3zm.5-2.3c.1.1.1.1.1.1l-.1.2c0-.1 0-.2 0-.3zm.9 1c0 .1 0 .2 0 .3 0 0-.2-.1-.3-.3.1.1.2.1.3 0zm-5 39.9c-.3.1-.1.4-.4.4-.4 0-.9-.8-1.5.1.2-.3.3-.6.4-.9.7-.1 1.4-.2 2.1-.3-.1.3 0 .5-.1.7-.3.4-.2-.1-.5 0zm-1.9.9c.2-.2.8.3 1.2-.1.4.7.9.9 1.1.7.4-.2.1-.7.3-1 .3-.3 1.4-.5 1.6-.2.1.1 0 .2.1.5.1.5.4.2.3.6 0 0 0 .1-.1.1-1.3.2-2.6.4-4 .5-.2-.2-1-.6-.5-1.1zm5 4.4c-.7.1-1.4.2-2.1.3 0-.1-.1-.3-.3-.5.3-.6.7-.1 1.3-.4.4-.2.5-.6.7-.9.2 0 .3-.1.5-.1.2.1.3.6.6.5-.3.2-.5.7-.7 1.1zm2.5-42h-.1v-.2h.1v.2zm.1-3.5c-.1 0-.1.1-.2.2-.1-.2 0-.4.1-.5l.1.3zm4.1-1.6h-.1l-.1-.3h.1l.1.3zm-.1 2.5l-.2-.1s.1-.1.2-.1v.2zm-.1-1c-.1.1-.2.2-.3.2 0 0 0-.1 0-.1 0-.2 0-.3.1-.4 0 .2.1.2.2.3zm-.6-1.3c.1 0 .2.1.4.4v.5l-.2-.1c.1-.1.1-.2 0-.4 0 0 0 0-.1 0s-.2.2-.2.4c-.1.3-.1.4-.2.5 0-.1.1-.2.1-.4s0-.4 0-.7l.2-.2zm1 4.3h.3c0 .2 0 .3-.2.3 0 0 0-.1-.1-.3zm.5.8c-.2-.1-.3-.2-.4-.3h.3l.1.3zm.3.8c-.1.1-.1.2-.3.2 0 0 .1-.2.2-.6l.1.4zm.2-1.5h.3v.1h-.2l-.1-.1zm5.3-10.8v.2h-.1v-.2h.1zm.4.9c0-.1-.1-.1-.2-.1l.1-.2.1.3zm-.3.9v-.2c0-.1-.1-.2-.2-.4.1 0 .2-.1.3-.1 0 .1.1.2.1.3 0-.1-.1-.1-.2-.1 0 .1 0 .3 0 .5zm-.6-3l.2-.1v.1l-.2.1V59zm.1.5h.1l.1.2h-.1l-.1-.2zm0 .7h.1l.1.6h-.1l-.1-.6zm-.7 2.3s-.1 0-.1.1c0-.1.1-.3.2-.6s.2-.4.3-.5c-.1.2-.2.6-.3 1 0 0 0 0-.1 0zm.2-4.3h.2v.1l-.2-.1zm.2 1.4l-.1-.3h.1l.1.3h-.1zm-.6 3.6h-.1l.1-.3h.1l-.1.3zm0-2.9l.2.6h-.1l-.2-.6h.1zm-8.1-4l-.1-.1.1-.1.1.2h-.1zm-.6-1.2s-.1.1-.1.2l-.2-.8c.1.1.2.3.3.6zm.2.4s.1.1.1.2v.1c0 .1-.1.1-.2.2l-.1-.5c0-.1.1-.1.2 0zm-.2.8c-.1-.1-.1-.2-.1-.2 0-.1 0-.1.1-.1s.2 0 .3 0c-.1.2-.2.3-.3.3zm-2.7-2.6c0 .1.2.3.6.5v.4c-.2-.2-.4-.5-.8-.8 0 0 .1-.1.2-.1zm-.5-.5c0-.1.1-.2.2-.4 0 .1.1.3.1.4v.2l-.3.1v-.3zm-10.1-3.8v.2h-.1v-.2h.1zm.3 8.9l-.1.3-.1-.1.2-.2zm1-.1c.1 0 .2 0 .3-.1-.2.2-.4.3-.5.3 0 0-.1 0-.2 0s-.2 0-.2 0c.2-.1.3-.2.4-.2 0 0 .1 0 .2 0zm-1.3.7c0-.4-.1-1-.1-1.9v.1c.1.4.2 1 .3 1.9.1.8.2 1.4.3 1.8.1.2.1.5.2.7-.1-.3-.3-.7-.5-1.2 0 0-.1-.1-.1-.2 0 0 0-.4-.1-1.2zm-1.6-.3l-.3-.1v-.1l.4.1-.1.1zm-.5 0l-.3-.1v-.1l.3.1v.1zm9.6-26.5l-.1.3-.1-.1.2-.2zm.9 0c.1 0 .2 0 .3-.1-.2.2-.4.3-.5.3 0 0-.1 0-.2 0s-.2 0-.2 0c.2-.1.3-.2.4-.2 0 0 .1 0 .2 0zm-1.2.6c0-.4-.1-1.1-.1-1.9v.1c.1.4.2 1 .3 1.9.1.8.2 1.4.3 1.8.1.2.1.5.2.7-.1-.3-.3-.7-.5-1.2 0 0-.1-.1-.1-.2 0 .1-.1-.4-.1-1.2zm-1.6-.2l-.3-.1v-.1l.4.1-.1.1zm-.6 0l-.3-.1v-.1l.3.1v.1zm-4.4 1.1c0-.1 0-.2 0-.2.1.1.1.1.2.1-.1 0-.2 0-.2.1zm-5-5.7c1.2-1.1 2.9-3.1 4-5.4l.3-.1c0-.1-.1-.2-.1-.3l.2.3 1.1-.2-.9-1c0 .2-.1.4-.2.5 1.1-2.4 1.2-4.9 1.3-5.6.2-1.6.5-2.9 1.1-3 .6-.2 1.5 1.6 1.3 3.7-.1 1-1 4.1-2.8 6.3-.3.4-.6.7-.9 1.1-.1 0-.1-.1-.2-.1 0 0-.1 0-.1 0 .1.1.1.2.2.3-1.7 1.5-3.4 2.7-4.3 3.5zm4.7-4.5c0-.1-.1-.1-.1-.2-.1 0-.1 0-.2 0l.3.2zm-6.9 36.3c0-.1 0-.2 0-.2.1.1.1.1.2.1-.1 0-.2.1-.2.1zM74.9 19.9c.2-.1.5 0 .8.2 0 0 0 .1.1.1.5.4 1 1 1.6 1.8.2.3.7 1.1 1.4 1.9 0 0 0 0-.1 0-.4.1-.7-.1-.8-.5-.3-.1-.5-.2-.7-.3.2.4.4.9.7 1.3 1.1 0 1.6.1 1.4.4 0 0 0 0 0 .1 0-.1.1-.2.1-.3.6.7 1.4 1.3 2.2 1.9 2.3 1.7 5.1 2.7 6.6 2.9-1.7-.1-4.6-.4-7.2-1.6-2.6-1.1-4.8-3.2-5.3-4-1.3-1.8-1.5-3.8-.8-3.9zm6 6.4l.2.1c-.1 0-.2-.1-.2-.1zm.2.1s-.1 0 0 0zm.1.4l-.1-.3c-.1 0-.2-.1-.3-.1 0 .1 0 .1-.1.2.2 0 .3.1.5.2zM78 24.9c.1 0 .1 0 0 0 .2 0 .3-.1.3-.1l-.5-.3c.1.2.2.3.2.4zm-1.6-.9l.3.4c-.1-.2-.2-.5-.3-.7.1.1.1.2 0 .3zm1.1-1.3c-.2-.1-.3-.3-.5-.4-.1 0-.2 0-.3 0 0 .1.1.1.1.2.2 0 .5.1.7.2zm-1.1 1.5c.1.1.3.1.4.2-.1-.1-.3-.3-.4-.4 0 0 0 .1-.1.1.1 0 .1.1.1.1zm-.4-1c.1 0 .3.1.4.2-.2-.3-.3-.6-.4-.9-.1 0-.2-.1-.3-.1.1.2.2.5.3.8zm-.6-1.6s.1 0 .1 0c0-.1-.1-.1-.1-.2 0 0 0-.1 0-.1h-.1c0 .1 0 .2.1.3zm-.2-.3s.1 0 .1 0c-.1-.2-.2-.4-.3-.6 0 0-.1 0-.1-.1.2.3.2.5.3.7zm-.3-.9h.1c0-.1-.1-.2-.1-.3h-.1c0 .1 0 .2.1.3zm5.9 14l.1.2h-.1l-.1-.2h.1zm.2.7l.2.7h-.1l-.2-.7h.1zm.9 9.3v-.2h.1v.2h-.1zm-.7-8.1h.1l.1.4h-.1l-.1-.4zm.4-5.5h-.2v-.1h.2v.1zm4.9 10.3l.1.4h-.1l-.1-.4h.1zm.9 2.1h.1l.1.2h-.1l-.1-.2zm.3.8h-.1l-.1-.2h.1l.1.2zm-.4-.4l.2-.1.1.1-.2.1-.1-.1zm-.3-.4l.1-.5.1.4c0 .1-.1.1-.2.1zm-.3-.7h.1l.1.3h-.1l-.1-.3zM87 38v.2h-.1V38h.1zm.1 14.3H87v-.2h.1v.2zm-.9-2h.1v.2h-.1v-.2zm.3.3c0 .1 0 .2 0 .3 0 .1 0 .2 0 .3-.1-.1-.2-.2-.2-.3 0-.1.1-.3.2-.3zm.3 1.4c0-.1 0-.1 0 0 0-.1 0-.1-.1-.1 0 0 .1 0 .1-.1.1 0 .1.1 0 .2zm-.1-.7v-.2h.1v.2h-.1zm.1-.5v.2h-.1v-.2h.1zm0 1.8l-.2.1v-.1h.2zm-.4-.8c-.2-.2-.3-.3-.3-.3s0-.1 0-.2 0-.2 0-.2.1.1.1.3c0 .1.2.3.4.6l.1.4c-.1-.1-.2-.3-.3-.6zm-.9.7h.1v.2h-.1v-.2zm.1-2.6h.1v.2h-.1v-.2zm-.4-2.5c.1 0 .1 0 .1.1s0 .1 0 .2c-.1.1-.1.1-.2.1l.1-.4zm.4-.1v.3h-.1v-.3h.1zm.2.7c-.1 0-.1.1-.1.2 0-.1-.1-.1-.2-.1l-.2-.1c0-.1 0-.1.1-.3l.3-.1.1.4zm-.2 1.3c0-.1-.1-.2-.2-.3l.2-.1c0-.1 0-.2 0-.4.1.1.3.2.4.4-.1 0-.2-.1-.3-.1 0 .2 0 .4-.1.5.1.1.2.2.3.2l-.3.1c.1-.1.1-.2 0-.3zm.5 2.7H86v-.2h.1v.2zm-.3-2.2c.1 0 .1 0 .2.1 0 .1.1.1.1.1 0 .3 0 .4 0 .6 0-.1-.1-.2-.1-.3-.1-.1-.1-.2-.1-.2l-.1-.3zm-.3 5.8l-2.2.6-7-16.2 2.5-.7 3.9 9.3-1-9.2c.1.6.3 1.2.6 1.7 0 .2-.1.3-.1.2l1 3.7h.1s-.3-1.2-.9-3.4l.1-.2c0 .1 0 0 0-.2v-.1l-.2-.8-.7-2.5c0-.1-.1-.3-.1-.5s-.1-.4-.1-.5c0 .2.1.4.2.7.1.3.2.5.2.7.1 0 .3-.1.6-.1.4-.1.9-.2 1.6-.4l2.7 6c0-.1 0-.2.1-.4 0 .1 0 .1 0 .2l.2.9c.1.1.2.1.3.2-.1 0-.1.1-.1.2.1 0 .1.1.2.1l.1-.2c.1 0 .1 0 .2.1 0 0 0-.1 0-.2 0 0 .1.1.2.2l-1-7.6 2.5-.7 2 17.6-2.3.6-2.1-5-.1-.1s-.1.1-.1.1c.1-.1.1-.1.1-.2 0 0 0-.1-.1-.2 0-.1-.1-.1-.1-.2-.1 0-.2 0-.3 0l.1.4-.2-.1s0 .1 0 .1c0 .1.1.1.1.2-.2-.1-.2-.2-.3-.2 0 0 0-.1.1-.1 0-.3 0-.6 0-1l.2.6h.1l-.2-.6h-.1s-.1 0-.2 0c0 0 0-.1 0-.1 0-.1 0-.2 0-.2-.1-.1-.1-.2-.1-.3 0 0 0-.1 0-.1h.1c-.1-.3-.2-.5-.4-.7-.1.1-.2.2-.4.3 0-.1-.1-.3-.1-.4-.1 0-.1-.1-.2-.1.2 2.9.4 4.7.7 5.7-.1-.1-.2-.5-.4-1.2-.1-.4-.2-.8-.3-1.3-.1 0-.2 0-.3 0 .2.7.4 1.5.6 2.5.1.5.2 1.6.3 3.1zm2.7-8.6h.1v-.2h-.1v.2zm-.4-1c0 .1.1.2.3.3-.1.1-.1.2 0 .4 0 0 0 .1 0 .1 0-.2 0-.5-.1-.9 0 .1 0 .1-.1.2 0 0 0-.1-.1-.1zm-4 .2h-.1l.1.7h.1l-.1-.7zm.2.8h-.1l.1.6h.1L84 47zm.1.8H84l.2.6h.1l-.2-.6zm.2.9v.2h.1v-.2h-.1zm.6-2.5c0 .1 0 .2 0 .4 0-.1 0-.2 0-.4.2.3.3.6.4.8 0-.1.1-.2.1-.4.1 0 .1.1.2.2-.1-.1-.2-.2-.4-.4-.1-.2-.1-.4-.2-.6 0 .2 0 .3-.1.4 0-.1 0-.1-.1-.1.1.1.1.1.1.1zm-.3 2.8h-.1v.2h.1V49zm0 .7l-.1-.7h-.1l.1.7h.1zm2.2-6.8c0 .1 0 .1-.1.2.1-.1.1-.1.1-.2zm-.1 6.8zm-.2-.1c.1 0 .1 0 .2.1-.1.1-.1.1-.2.2 0-.1 0-.2 0-.3zm-.3-1.2zm-7.3 15.7c0-.4-.1-1.1-.1-1.9v.1c.1.4.2 1 .3 1.9.1.8.2 1.4.3 1.8.1.2.1.5.2.7-.1-.3-.3-.7-.5-1.2 0 0-.1-.1-.1-.2 0 0 0-.4-.1-1.2zM74 69.5l.2 1.2h-.1l-.2-1.2h.1zm.5 3.7h-.4v-.1h.4v.1zm-.3-2.2v-.2h.1v.2h-.1zm.3-1c-.1 0-.1 0-.2 0 0 .1 0 .2 0 .4l-.2-.7c.2.1.3.1.4.3zm-1.9-7h.1v.2h-.1V63zm.1.6h.1v.2h-.1v-.2zm.1.9h.1l.1.4h-.1l-.1-.4zm.1.6h.1v.2h-.1v-.2zm-.1-1.8h.1v.2h-.1v-.2zm.2-6l.2.1h-.1l-.1-.1zm.5 9.8h-.1v-.2h.1v.2zm-.4-1.1h.1l.2.8h-.1l-.2-.8zm-2-13.2H71l-.1-.2h.1l.1.2zm-.2-.5l.1.2h-.1v-.2zm1.3-11.5c1.1-.3 2.1-.2 3 .4 1 .6 1.6 1.4 1.9 2.4l2.5 9.5c.3 1 .1 2-.4 3-.6 1-1.4 1.6-2.4 1.8-1.2.3-2.5 0-3.9-.9-.2-.2-.4-.6-.6-1-.3-.7-.6-1.5-.8-2.5-.1 0-.3 0-.6-.1.1 0 .2 0 .3.1.2-.1.2-.2.2-.4 0-.1-.1-.2-.1-.3-.1-.1-.1-.3-.1-.3-1.2-4.2-1.8-6.3-1.8-6.3-.3-1.2-.2-2.2.3-3.2.5-1.2 1.3-1.9 2.5-2.2zm4.2 11c0 .2 0 .4 0 .5l-.2.1.1.4.2-.2c0 .1 0 .3 0 .5 0 .1.1.3.2.5s.2.4.2.5c0-.1.1-.1.1-.3l-.6-2zm0 1.8c0-.1 0-.2-.1-.4v-.1c-.2.2-.2.3-.2.4 0 0 .1.1.3.1zm-.5-.1s-.1 0-.2 0c0 .1-.1.1 0 .2 0 0 .1.1.3.2l-.1-.4zm-.1 1.7s0 .1 0 .2l.3-.1c.1-.1.1-.2.2-.3-.1 0-.2 0-.3 0-.1 0-.2 0-.2-.2 0-.1 0-.1 0-.2-.1.1-.2.2-.2.3.1.2.2.2.2.3zm-4-10.2l2.6 9.5c0 .2.2.4.4.6.2.3.4.4.6.4h.2s0 0 .1 0l-.1-.2c-.1 0-.3 0-.4.1-.1 0-.2-.1-.2-.3 0 0 0-.1 0-.2.1.1.3.1.4.1.1 0 .3-.1.4-.3.2.1.3.2.3.3 0-.1.1-.1.1-.1.1 0 .1 0 .3.1s.2.1.3.1c.1 0 .2-.2.3-.5-.1-.1-.3-.3-.6-.6-.1.1-.2.3-.3.5-.1-.1-.2-.2-.4-.3 0 .2 0 .3 0 .3-.1-.1-.2-.1-.3 0 0 0-.1.1-.2.2s-.1.1-.2.2c-.3.1-.5 0-.5-.3 0-.1 0-.2.1-.5.1 0 .3 0 .5 0 0 .1.1.1.2.3 0-.1.1-.2.2-.3l-.1-.2c-.2-.1-.3-.2-.4-.3 0 .1 0 .2 0 .4-.2 0-.5 0-.8.1 0-.1.1-.3.3-.6-.1 0-.1-.1-.1-.2-.2.1-.2.1-.2.1s-.1 0-.2-.1c.1-.1.3-.4.6-.7.1 0 .2.1.3.2 0 0 0-.1 0-.3 0-.1 0-.2 0-.3 0-.1-.1-.2-.2-.3-.1-.1-.2-.2-.2-.3-.3.1-.4.1-.5.2-.1-.1-.3-.2-.6-.4 0-.1-.1-.3-.1-.5-.1 0-.2-.1-.2-.2s0-.2.1-.5c-.1-.2-.2-.3-.2-.4-.1-.2.1-.4.4-.6.3-.2.4-.5.4-.7 0-.1-.1-.1-.1-.1-.1 0-.1.1-.2.3-.1-.1-.2-.2-.4-.4-.1 0-.2 0-.3-.1l.1-.1c.1 0 .1 0 .2 0 .2-.3.2-.4.2-.5 0 0-.1.1-.2.2 0-.1 0-.2.1-.4s.2-.3.3-.3c.1 0 .3 0 .7.1 0-.1 0-.2 0-.2h.2c.2.1.3.2.3.3-.1.1-.2.2-.4.5.2-.1.2-.2.2-.2.2-.1.3 0 .4.2-.1.2-.2.4-.1.5 0 .1.1.2.2.4s.2.3.2.4c.1.2 0 .5-.1.8l-.2-.6.1.5c.1-.2.2-.3.3-.4.1 0 .1 0 .1 0l.3 1s0 .1-.1.2c0 0 .1 0 .2.1 0 0-.1.1-.1.2l-.2.1.1.5s.1.1.2.3c0-.1.1-.1.3-.1l-1.8-7.1c0-.1-.1-.3-.3-.6-.2-.3-.3-.4-.4-.5-.3-.2-.6-.2-1-.1s-.6.3-.8.7c-.1.2-.2.5-.1.9zm3.8 6.1c-.1 0-.2 0-.4-.1 0 .1 0 .2-.1.3-.1 0-.2 0-.3 0 0 .1.1.2.2.3.1-.1.2-.1.2-.1.1 0 .1 0 .1.2.2-.2.3-.3.3-.6zm-.8 1.6v-.2h-.1v.2h.1zm.1-4.6h-.1v.2h.1v-.2zm-.3-.5s-.1 0-.2 0c0 .1 0 .2 0 .3-.1 0-.1 0-.2 0s-.1.1-.1.3h.3c.2-.4.2-.6.2-.6zm-.6 1.5l-.1-.3h-.1l.1.3h.1zm2.6 5.1c0 .1.1.2.2.3l-.1.2c-.2.1-.3 0-.4-.2 0-.1.1-.3.3-.3zm-1.8-2.5v.2h-.1l.1-.2zm-5.6-4.6h.1l.1.4h-.1l-.1-.4zm.2 3.4h-.1l-.2-.8h.1l.2.8zm0 .3h.1l.1.5h-.1l-.1-.5zm.4 1h-.1v-.4h.1v.4zm.3 1.7l-.4-1.4h.1l.4 1.4h-.1zm0-3.4H70v-.2h.1v.2zm0-.7H70v-.2h.1v.2zm.6 6.5l-.1-.4h.1l.1.4h-.1zm.1-3.4h-.1l-.1-.4h.1l.1.4zm-.5 1.3h.1l.1.6h-.1l-.1-.6zm.5 1.6h-.1l-.3-.8h.1l.3.8zm.3-1.7l.1.3-.2-.1c.1-.1.1-.2.1-.2zm.2 1.1l-.2.4-.1-.1.3-.3zm.6 1.2v-.2h.1v.2h-.1zm.5 1.4c-.1 0-.2 0-.3 0l-.1-.2c.1 0 .1-.1.2-.1.1.1.2.2.2.3zM61 48.5h-.1l-.2-.7h.1l.2.7zm.4 6.7h-.1l-.1-.2h.1l.1.2zm-.2-3.8v-.2h.1v.2h-.1zm.2 1.2h-.1v-.2h.1v.2zm1.1 4.3h-.1l.2-.5h.1l-.2.5zm.1-5.2l-.1.3h-.1l.1-.3h.1zm-.1.4c0 .1-.1.2-.1.3l-.1-.4c0 .1.1.2.2.1zm-.2-.9v.2h-.1v-.2h.1zm-.1 3.8l-.2-.4c0-.1 0-.2.1-.2.1.1.1.4.1.6zm-.2-.7l-.2-.8h.1l.2.8H62zm0-.9h-.1l-.1-.1.1-.1.1.2zm-.4-.7h.1v.3h-.1v-.3zm.1 4h-.1v-.2h.1v.2zm1.6.7h-.1v-.2h.1v.2zm0-2.9h-.1L63 54h.1l.2.5zm-.1 5.1h-.1l-.1-.2h.1l.1.2zm0-1.3h-.1l-.1-.4h.1l.1.4zm-.5-.6l-.1-.2c.1 0 .2-.1.2-.1l.1.4c0-.1-.1-.1-.2-.1zm.1-.9l-.1-.2h.1l.1.2h-.1zm-.1-4.8h.1v.5h-.1V52zm.3 1.3l-.3.1v-.1l.3-.1v.1zm.5 2.8h.1v.2h-.1v-.2zm.1 4.1l-.1-.5h.1l.1.5h-.1zm.2-4.3l.2.1-.1.1-.1-.2zm-.4 24.2h.1v.2h-.1v-.2zm-1.1 4.4c-.1 0-.2 0-.4 0 .1-.1.3-.2.4-.3 0 .1.1.2.2.2-.1 0-.1 0-.2-.1 0 .1 0 .2 0 .2zm1.5-1.8s.1-.1.2-.2.1-.1.1-.2c0 .1 0 .2 0 .3-.2.1-.2.1-.3.1zm.2-.5c.1.1 0 .1 0 .1s0-.1 0-.1zm.5.1c0 .1 0 .1-.2.2.1 0 .1 0 .1 0 0 .1-.1.2-.1.4l-.3.2c0-.2.1-.3.2-.3 0 0 .1 0 .1 0 0-.2 0-.5-.1-.8.2.1.3.2.3.3zm-1.3 3.3l-.1-.3h.1l.1.3h-.1zm-.4-1.6h.1v.2h-.1V84zm-.2.3l.2-.1.1.4c-.1 0-.2-.1-.3-.3zm-.3-2c.3.1.5.2.5.5 0 .1 0 .2 0 .3.1.1.3.2.4.3.1.1.2.1.3.1 0 0 .1 0 .1-.1 0 0 0 0 .1 0 0 0 .1 0 .2.1s.3.1.5.1c.1 0 .2 0 .2 0 .2 0 .4-.2.5-.5.2-.3.2-.5.2-.7.6.1 1 .2 1.1.1 1-.3 1.2-1.2.8-2.9l-.5-1.6-1.5.4-.6-2.1 4-1.1 2.2 8.4-1.2.3c-.3-.3-.5-.7-.6-1 .1 0 .2.1.3.2.1-.1.2-.2.4-.4v-.1c-.1-.3-.2-.5-.3-.7 0-.1 0-.2 0-.4 0 0-.1-.1-.2-.1l-.5.6.1.5s.1 0 .2.1c.1-.1.1-.1.3-.1 0 .2 0 .3-.1.3-.2 0-.4.4-.9 1-.4.7-.8 1-1.2 1.1l-.5.1c-.9.2-1.6.2-2.3-.1-.6-.3-1.1-.8-1.6-1.6 0 .1 0 .3-.1.5 0-.2 0-.4 0-.7 0 0-.1 0-.1 0l-.2-.8zm5.9-3s0 0 .2-.1c0 0-.1-.1-.3-.2-.2-.1-.3-.1-.4-.1.2.3.3.4.5.4zm-3.1 4.3c0-.1 0-.1 0-.2 0 0-.1 0-.1.1 0 0-.1 0-.1 0 .1 0 .1 0 .2.1zm-3.4 1.2v-.3h.1v.3h-.1zm-.3-3.2h-.1v-.2h.1v.2zM59 68.3c.1 0 .2.1.2.2-.1 0-.2.1-.3.2 0 0-.1-.1-.1-.2.2 0 .3-.1.2-.2zm-.1-2h-.1V66h.1v.3zm-.2 1.7c0-.1 0-.1-.1-.3 0-.1-.1-.2-.1-.2v-.1l.3-.1c-.1.3-.1.6-.1.7zm-.2 3.6l.1.4h-.1l-.1-.4h.1zm-.1 10.8h.1v.2h-.1v-.2zm.2-1.7h.1l.1.2h-.1l-.1-.2zm.1 2.8h.1l.1.2h-.1l-.1-.2zm.1-7.4h-.2V76h.2v.1zm0-3v.1h-.2v-.1h.2zm-.3-4.9l.1.2h-.1v-.2zm.3 1.4c0-.1-.2-.5-.4-1.1.2.1.3.1.4.1 0 0-.1.1-.2.2l.1.2c0-.1.1-.1.1-.3.1.1.1.2.1.2 0 .1 0 .2-.1.3.1.2 0 .4 0 .4zm.1 4.8h.1v.2h-.1v-.2zm.2 7.4v-.2h.1v.2h-.1zM59 70.3v-.5h.1v.5H59zm.2-1.3h-.1v-.2h.1v.2zm-.1 9.4c.1.1.2.1.2.1.1 0 .1-.1.1-.2.1.1.1.2.3.3-.1 0-.2 0-.3 0l-.2.1-.1-.3zm.8 6.8h-.1V85h.1v.2zm-.2-5.2s0-.1-.1-.1c.1 0 .2 0 .2.1-.1 0-.1.2-.1.4l.1.6c-.1-.1-.2-.4-.3-.7.2-.2.2-.3.2-.3zm.1-.3c-.1 0-.3-.1-.5-.3.1 0 .1 0 .1-.1 0 0 0-.1-.1-.1l.2-.1c0 .1 0 .2-.1.3.3.1.4.2.4.3zm0-.6V79h.2v.1h-.2zm.2 7.2l.2.1h-.1l-.1-.1zm.2-6.2c0 .1.1.2.1.2l-.3.1c.1 0 .1-.1.2-.3zm-.1-.7l.1-.2.1.1-.2.1zm.2.6c-.1 0-.1.1-.2.1 0-.1-.1-.2-.1-.3 0 0 0 0 0-.1.1.1.2.1.5 0 .1 0 .1-.1.1-.1 0-.1 0-.1.1-.2 0 .1 0 .2-.1.4 0 .1 0 .1.1.2 0 .1.1.2.1.2s-.1.1-.2.1c-.1-.2-.2-.4-.3-.3zm.5.5l.1.2h-.1v-.2zm-.1 4.6c.1 0 .2 0 .4.1 0 0-.1 0-.2 0 0 .1.1.3.1.4-.1-.1-.2-.3-.3-.5zm-1.3-5l-.1-.3c.1 0 .2.1.3.1-.1 0-.1 0-.2 0 0 .2 0 .4.1.6 0 0-.1-.1-.1-.4zm-.1 3.6h-.1l-.1-.2h.1l.1.2zm-.1-1.2l.1.2h-.2l-.1-.1.2-.1zm-.9-9.4v.3h-.1l.1-.3zm0-26.5l-.1.3-.1-.1.2-.2zm.1-.3l.2-.1v.1l-.2.1v-.1zm.1 20.9c.1-.1.1-.2.2-.3-.1.2-.2.3-.2.3zm0 .7c-.1 0-.1.1-.1.1s0-.1 0-.1c0-.1-.1-.1-.1-.2-.1-.1-.1-.1-.1-.2s0-.2.1-.3l-.1-.1.3.1c-.1.1-.1.2-.2.3.1.1.2.2.2.4zm1.2.5v.2h-.1l.1-.2zm-.1.6h-.1l-.2-.4h.1l.2.4zm-.1-19.5c0 .1 0 .1-.1.2-.1 0-.1 0-.2 0 0-.2 0-.3.1-.3.2 0 .2 0 .2.1zm6 18.5c1 .5 1.6 1.4 1.9 2.5l.5 1.7-2.6.7c0-.1 0-.2-.1-.4 0-.2 0-.3-.1-.4-.5-1.7-1.2-2.5-2.1-2.2-.6.2-1 .6-1 1.2 0 .3.1.9.3 1.7l2 7.3c-.1 0-.3-.1-.5-.2 0 0 .1 0 .2 0l-.1-.2s0 0-.1.1c0 0-.1 0-.1 0 0 .1 0 .2 0 .3 0-.1-.1-.2-.1-.2s-.1 0-.3-.1c0 0 0 .1 0 .1-.2-.2-.3-.3-.5-.3 0-.1 0-.2 0-.3l.1.2h.1l.1-.1c0 .1.1.2.2.2s.1 0 .1-.1l-.1-.4-.6-.1c-.1 0-.2.1-.2.2-.1.1-.1.2-.1.3.1.3.2.4.3.4 0 0 .1 0 .2-.1v.1l.2.6s0 .1.1.1c0 0 .1.1.1.1-.1 0-.1.1 0 .2v.1c.1 0 .2.1.4.2.1 0 .2-.1.3-.3-.1 0-.1-.1-.2 0 0 0-.1 0-.1.1 0-.1 0-.2 0-.4 0 0 .1.1.3.3 0 0 .1-.1 0-.1 0 .1.1.2.2.3-.1 0-.2.1-.3.2v.2c.1 0 .2.1.3.3-.4.1-.8.2-1.1.3l-.2-.6c-.1 0-.1 0-.2-.1-.1.1-.2.3-.3.6h-.3l-.5-1.9c-.1-.3-.2-.7-.3-1.3-.1-.3 0-.5.1-.5 0 0 .1 0 .1 0s0 0 .1 0c.2 0 .2-.2.1-.4 0-.1-.1-.2-.3-.2l.1-.2c-.1 0-.1 0-.3 0 0 0 0 .2 0 .3-.1-.2-.2-.5-.3-.9.2 0 .3-.1.4 0 0-.1 0-.1 0-.2s-.1-.2-.1-.3c0 0 0 0-.1 0 0 0-.1 0-.1.1h-.1c.1.1.2.2.3.3 0 0-.1-.1-.2-.1 0 0 0 .1 0 .2l-1.5-5.5c0 .1.1.1.2.1 0-.1 0-.2 0-.3 0-.1-.1-.1-.3 0 0-.1 0-.2 0-.4 0 0 .1.1.2.1.1-.2.2-.5.4-1 .2-.6.5-1 .8-1.3.8-.6 1.4-1 1.8-1.1.9-.2 1.9-.1 2.9.5zm-6.2 2.9c-.1 0-.1.1-.1.1s0 0 0 .1c.1 0 .2 0 .1-.2zm1.2 5v.2h.1v-.2h-.1zm.1-.2s.1 0 .1 0 0 .1 0 .2c0-.1.1-.1.1-.3 0 .1-.1 0-.2.1zm.1.4l.2.2.1-.1-.3-.1zm.6 1.1c0 .1 0 .1 0 .1-.1 0-.1 0-.1 0v.3l.2-.1-.1-.3zm1.9 2.8s0 .1 0 0zm-.2-.7c0 .1 0 .2 0 .2-.1 0-.1-.1-.2-.1.1 0 .1 0 .2-.1zm-.1.3zm-3.7-9.2c0 .1 0 .3 0 .5 0-.3 0-.4 0-.5zm1.5-21.1l-.2.3-.1-.1.3-.2zm-.3-1.1s0-.1-.1-.1-.1-.1-.2-.1c0-.1.1-.2.2-.3l.2.1c-.1.1-.2.2-.1.4zm4.6.3h.1v.2H65v-.2zm.4 0h.1l.1.4h-.1l-.1-.4zm.7 1.8h.1l.1.2h-.1l-.1-.2zm1-4.9h.1v.2h-.1v-.2zm-.3 8.7h.1l.1.2h-.1l-.1-.2zm.3-.2h.1v.3h-.1v-.3zm3.9 2.8h.1l.1.3h.1s0 0 0 .1.1.2.3.2l.6 2.3-.5.1-.1-.2-6.2 1.5-1-3.8s-.1-.1-.2 0c0-.2 0-.2 0-.2L63 52.4s0 .1 0 .1L60.8 44l2.7-.7.9 3.5c0 .1.1.1.2.1l-.1.1c.1.5.2 1 .3 1.4.2.6.3 1.1.5 1.3 0-.1 0-.2 0-.3 0-.1-.1-.3-.2-.4.1.2.2.5.5.9 0 0-.1 0-.1 0-.2 0-.2.2-.1.4 0 .1.1.2.1.2l.1-.2.7 1.2c.5.2.8.6.9 1.1l.1.4s-.1 0-.1 0-.1 0-.2 0-.2 0-.2 0c-.1 0-.2.1-.2.2l-.2-.1s-.1.1-.1.2l.1.3c0-.1.1-.2.2-.3 0 .1 0 .1 0 .2 0 0 0 .1.1.1s.1-.1.2-.1c-.1.2-.1.5 0 1 .1.4.1.7.2 1.1-.1.1-.1.3-.1.4l.5 1.9 3.6-1-.1-.2zm-4.7-3.6c.1-.1.2-.2.2-.2s.1 0 .1 0c0-.1-.1-.2-.2-.2-.1.1-.2.2-.3.2.1 0 .2.1.2.2zm-3.3-.6c0 .1 0 0 0 0zm5-1.2h-.1V51h.1v.3zm-.3.8h.1l.1.4h-.1l-.1-.4zm.5-6.2c0-.1-.2-.2-.5-.3.1-.1.1-.2.2-.2 0 0 .1 0 .1.1 0-.1-.1-.4-.3-1.2 0 0-.1-.1-.2-.2l.2-.4c.3 1 .4 1.7.5 2.2zm-.5-1.2h-.1l-.2-.4h.1l.2.4zm-.3 1.1l.1-.3h.1l-.1.3h-.1zm0 8c-.1-.1-.1-.2-.1-.3l.3-.1c0 .1 0 .3 0 .6-.1 0-.1-.1-.2-.2zm1.4 2.4c-.2.1-.4 0-.5-.2-.1-.2-.2-.3-.3-.3 0-.2-.1-.4-.1-.7.2 0 .2-.1.2-.1-.3-.1-.5-.3-.6-.4 0-.1.1-.2.3-.3 0 .2.2.3.4.4.4.5.7 1.1 1 1.6h-.4zm0-8.4h-.1l-.1-.3h.1l.1.3zm-.2-.5c-.1 0-.2-.1-.2-.1l.1-.1c0-.1 0-.3 0-.5l.1.7zM92.3-8.4c.2.2.1.3 0 .4-.1 0-.2 0-.3 0 0-.2 0-.4.3-.4zm-1.5 37c-.1-.3-.2-.5-.3-.8h.1c.1.3.2.6.2.8zm-.4-1.1l.1.1s0 0-.1-.1zm-.3-.9c.1 0 .1.1.2.1.1.3.1.5.2.7h-.1c-.1-.2-.2-.4-.2-.7h.1l-.2-.1c0 .1 0 .1 0 0zm1.7-36.4c.2.2.5.7.1 1.1-.2.2-1 .3-.9.9-.6.1-1.1.1-1.7.2.7-.5 1.3-.7.7-1.6.5-.3.5.5.9.6-.3-.9.3-1.6.9-1.2zm4.3 23.2c-.1 0-.2-.1-.2-.1 0 .2-.1.4-.2.5.2 0 .3 0 .5 0 0 .1 0 .2 0 .3h-.5c.1.1.3.1.4.2 0 0 .1 0 .1 0 .1.6.1 1.3.2 2-.4-.1-.8-.2-1.1-.3.1.1.2.1.3.2l.8.1c0 .1 0 .2 0 .3h-.1s.1.1.1.1c0 1 0 2-.2 3 0 0-.1.1-.1.1s0 0 .1 0c0 .1 0 .1 0 .2h-.4s0 0-.1 0-.3 0-.4 0c.2.1.3.2.4.4h.3s0 .1 0 .1c-.1 0-.1 0-.2 0 0 .1.1.2.1.3 0 .1 0 .2-.1.3-1 4.1-3.6 6.8-4.8 8.3.3-.5.7-1.2 1-1.9h.2l-.1-.1c.5-1.2.9-2.7 1.2-4.3.1 0 .3 0 .4 0h.2l-.5-.3c0-.2 0-.3 0-.5 0 0 .1 0 .1 0s0 0-.1-.1c0 0 0 0 .1.1 0 0 0-.1 0-.1s0-.1-.1-.1c0-.1 0-.1 0-.2 0 0 0-.1 0-.1s0 0 0-.1c0-.5 0-1.1 0-1.6-.1-1.8-.6-3.3-1.1-4.5h.1s0-.1 0-.1-.1 0-.1 0c-.1-.2-.1-.3-.2-.5-.4-.8-.7-1.4-.8-1.7-.2-.5-.4-1-.5-1.5.1 0 .1.1.2.1l.3-.1c-.2-.1-.3-.2-.5-.2 0 0 0-.1 0-.1l.6.3.3-.1c-.3-.1-.6-.2-.9-.3 0-.1 0-.1 0-.2l1.2.4 1.3-.3c-.7-.2-1.3-.5-1.9-.7-.2 0-.4 0-.6 0 0-.8.2-1.6.6-2.1 0 0 .1-.1.1-.1 0 .1 0 .2-.1.2V9c.2 0 .5-.1.7-.1l-.4-.4c-.1.1-.2.1-.3.1.9-.9 3 .2 4 2.6.3.4.5 1.2.7 2.2zm-3.3 12.7c.1 0 .1 0 0 0 .1 0 .1 0 0 0zm.4-.3c-.1 0-.1 0-.1 0l.2.3s0 0 .1 0c0 0 .1 0 .1-.1l-.3-.2zm-2.1-15.1c-.1 0-.1 0 0 0zm-.1-.2s0 .1 0 .1.1 0 .1.1c.1 0 .1-.1.2-.1-.1 0-.2-.1-.3-.1zm.7-1.2zm.6-.3zm.1.1c-.2 0-.4 0-.6 0h-.2.8zm.3-.4s-.1 0-.1 0 0 .1.1 0c0 .1 0 .1 0 0zm3.3 6.4c0-.1 0-.1 0 0 0-.1 0-.1 0 0 0-.1 0-.1 0 0zm-.2.8l-.3-.1s0 0-.1 0l.4.1zm-.5.1zm-.2-.4s.1 0 .1.1l-.1-.1zm-.1.1zm-.3 7.2l-.1-.1s-.1-.1-.1-.1c.1 0 .1.1.2.2-.1-.1 0 0 0 0zm-.3-.2c.1 0 .2.1.2.1l-.1-.2s0 0-.1-.1c0 .1 0 .2 0 .2zm-.3-2.7c.1 0 .1-.1.2-.1s.2 0 .3 0l-.5-.1s0 .1 0 .2zm-.1-.4c.2 0 .5 0 .7.1-.2-.1-.3-.3-.3-.5l-.5.1c0 .1 0 .2.1.3zm-.3-.6c.1 0 .2 0 .3 0l-.2-.1h-.1s0 .1 0 .1zm0-.2zm-.7-6.6s-.1 0-.1 0 0 0-.1 0c0 0 0 0-.1 0 0 0 0 0-.1 0 0 0 .1 0 .1 0 .2.1.3.1.3 0zm.2 0s-.1 0 0 0zm-.2 5.1c0 .1 0 .2.1.3.1.2.1.3.2.5-.1-.2-.1-.5 0-.7-.1-.1-.2-.1-.3-.1zm1.3-5.5c-.3.1-.6.2-.9.3 0 0 0 0-.1 0 0 0 0 0 .1.1l.6.1c.1-.1.3-.2.4-.2 0 0 .1 0 .1 0 0-.1-.1-.2-.2-.3zm.5 3.8s.1 0 0 0v-.1c.1 0 .2.1.2.1l-.5-.3c.1.1.2.2.3.3zM95 12c-.1 0-.1 0-.2-.1l.1.1c.1 0 .1 0 .1 0zm.1 3.5c0 .1 0 .1 0 0zm0-1s.1.1.2.2.3.1.4.2h.3l-.7-.3-.2-.1zm-16.7 1.3c-.3-2.8 1-4.7 2.3-4.2 1.3.5 2.1 2.2 2.4 4 .1.9-.1 4 1.5 7.3 1.5 3.3 4.8 5.8 6.6 6.5-2.1-.6-5.8-1.8-8.6-4.9-2.9-3.1-4.1-7.4-4.2-8.7zm.4 0s.1.1 0 0l.2.2s.1-.1.1-.1-.1 0-.3-.1zm2.1 1.7s0-.1 0-.1c-.2-.1-.4-.2-.5-.3 0 .1.1.2.1.4h.4c0 .1 0 .1 0 0zm-.1.2zm-.6 1.8c.1 0 .1.1.2.1 0 0 0 0 0-.1v-.1c-.1 0-.3-.1-.4-.1l.2.2zm-.4-.9s.1 0 0 0c.1 0 .1 0 0 0 .1 0 0 0 0 0zm-.3-.9h.2c-.1-.1-.2-.1-.2-.2 0 .1 0 .2 0 .2zm.4-4.1l-.1-.1h-.4l.7.4c-.1-.1-.1-.2-.2-.3zm.2 4.4c-.2 0-.3 0-.5 0 0 .1 0 .1.1.2.1 0 .2 0 .3 0h.1s0 0 .1-.1l-.1-.1zm-.2.8c0-.1 0-.1 0 0s0 .3.1.4l.5.1v-.1c-.3 0-.5-.2-.6-.4zm.8-4.3c-.1-.1-.1-.1-.2-.2l-.3-.1c.1.1.2.1.3.2.1.1.1.1.2.1zm-.3 1.7s0 .1 0 .1c0 .1 0 .2 0 .3l.7.3c.1-.1.1-.2.2-.2l-.9-.5zm1.5-.9s-.1 0-.1 0 0 0 .1 0zm.1.1s-.1 0-.1 0c.1.1.2.1.3.2l-.2-.2zm.7-.6c0 .1 0 .1 0 0zm0 6.5s-.1-.1-.2-.1-.1.1-.2.1l.2.2.3.1-.1-.3zm.4.2c-.1 0-.1 0-.2 0 .1 0 .2 0 .2 0 .1 0 0 0 0 0zm.3 2.4c-.1 0-.1.1-.2.1-.3.1-.5-.1-.6-.3 0-.2 0-.4.2-.5 0-.1 0-.2 0-.3 0 0 0 0-.1 0l-.7-.4c0 .1 0 .3-.1.4.1.2.1.4.2.6.1.1.2.3.2.4l1.9.9c-.1-.2-.2-.3-.2-.5-.2-.1-.4-.2-.6-.4zm1 .4c-.1 0-.2 0-.3 0l.3.5h.1c0-.1 0-.3 0-.4 0 0-.1-.1-.1-.1zm1.7 2.2c.1 0 .1 0 .2 0l-.2-.1s0 0 0 .1zm0-.4c0 .1 0 .1 0 .2.1 0 .2.1.3.1l-.1-.3h-.2zm-1.3-.5c.1 0 .1-.1.2-.1l-.3-.1.1.2zm-.1-.2l-.7-.2c.2.1.5.2.7.4 0-.1 0-.1 0-.2zm-.5.2c.2 0 .3 0 .5 0l-.9-.5s-.1 0-.1 0l.5.5zm-.3-.8h.4c-.6-.3-1.3-.6-1.9-.8 0 .1 0 .1 0 .2l.3.3c.4.1.8.2 1.2.3zm10.4-35.3c.4-.2.8 1.9.9 2.2 0 0 0 .1 0 .1-.4 0-.8 0-1.2.1 0-.1 0-.2 0-.3.1-.4.6-.7.6-1 0 .1-.7-.9-.3-1.1zm25.8 36.4h.1l.1.2h-.1l-.1-.2zm.5 1.5h-.1v-.2h.1v.2zm-.5-32.1c.2-.4.5-.1.4.1 0 .2-.5.2-.4-.1zm-1.7.2c.1 0 .2.3.3.3.4 0 .9-.3 1-.2.3.2.3.4.3.7-.7-.3-1.4-.6-2.1-.8.2 0 .3-.1.5 0zM95.8-8.2c0-.1 0-.1.1-.1.1-.2.4-.2.6-.4.2-.2.4-.6.5-.9l-.3-.3c-.2-.2-.4-.5-.6-.7 8.3-.2 16.5 1.4 24.1 4.5-.1.6-.8 1-1-.2-.5.9-1.5 0-1.9.7-.1.2 0 .7.2 1-6.9-2.6-14.3-3.8-21.7-3.6zM117 38.2c0-.1-.1-.1-.2-.1l.1-.2.1.3zm-1-1.5l-.1-.3h.1l.1.3h-.1zm0-1.3h-.2l.1-.1.1.1zm0 3.2c-.1.2-.2.6-.3 1 0 0-.1 0-.1 0s-.1 0-.1.1c0-.1.1-.3.2-.6 0-.3.1-.4.3-.5zm-.7 1.7h-.1l.1-.3h.1l-.1.3zm0-2.9l.2.6h-.1l-.2-.6h.1zm.7 6.1s0-.1.1-.3c0 0 .1.2.3.6-.2-.2-.4-.3-.4-.3zm.4-5.7h-.1l-.1-.6h.1l.1.6zm-.3-1.7l.2-.1v.1l-.2.1v-.1zm.2.8l-.1-.2h.1l.1.2h-.1zm.3.3v.2h-.1v-.2h.1zm.3 1.5c0-.1-.1-.1-.2-.1 0 .1 0 .3 0 .5v-.2c0-.1-.1-.2-.2-.4.1 0 .2-.1.3-.1 0 .1 0 .2.1.3zm.5 3.5c0 .1 0 .2 0 .3 0 0-.2-.1-.3-.3 0 0 .1 0 .3 0zm-2.1 5.5c-.6-1.3-1.1-2.5-1.6-3.5-.9.2-1.7.3-2.4.5-.2.1-.3.2-.3.4 0 .1 0 .2.1.6 0 .1 0 .2 0 .3.1.4.1 1.1.2 1.9 0 .2 0 .4-.1.5h.1l.1.4-2.6.7-.6-6c-.1 0-.5-.1-1.2-.3-.3-.1-.8-.2-1.5-.3-.4 0-1-.1-1.7-.2l3.9 7.1-2.7.7-3.6-6.6-1.1.3 1.9 7.1-1.2.3L97.6 39c0-.2-.1-.3-.2-.4l3.5 13-1.5.4-.4-2.4c-.1-.1-.2-.1-.2-.1l.1-.3L95 34.7c.2 0 .4-.1.6-.1.2-.1.5-.2.8-.3 0 .1.1.3.2.5 0 0 .1 0 .1 0-.2-.7-.3-1.5-.4-2.3.2.9.5 1.5.6 1.8.2-.1.5-.1.7-.2.6-.1 1.3-.3 2.1-.5 0 0 0-.1 0-.1s0-.1-.1-.1c.1.1.2.1.3.1.1 0 .1-.1.1-.1l.2.1c.1-.1.2-.1.2-.2 0 0 .1 0 .1.1 1.8.1 3.1 1.5 3.8 4.1.3 1 .4 1.8.4 2.5 0 .5-.2 1.1-.4 1.7v.1c0 .1-.1.2-.2.3.4.2.7.2.8.2.7-.2 1.4 0 2.4.5.2 0 .3-.1.5-.3l-.3-.1.4-.1h.1s.1 0 .1 0l.1-.1c0-.1-.3-.2-1-.2v.2s.1.1.1.1c-.1 0-.1 0-.1.1s0 .1 0 .2l-.2.1s-.2-.1-.4-.3c-.2-.1-.4-.2-.4-.3 0-.1 0-.1 0-.2l-.1-.4s-.1 0-.2 0c-.2 0-.2.2-.1.4l-.4.1c.1 0 .2-.1.2-.2-.2-.2-.4-.3-.6-.4.1 0 .1 0 .2 0 .2 0 .4-.1.6-.3l-.3-.2c.3.1.5.1.6.2 0-.1-.1-.2-.1-.4.3.1.5.1.6.1 0 0 .1 0 .1-.1s.1-.1.1-.1c.1 0 .2 0 .4 0 0 0 0 0 0-.1l-.2-.2c.2-.1.3-.2.2-.1.1 0 .1 0 .2.2 0 0 .1-.1.1-.2.1 0 .2 0 .4.2 0-.9 0-1.5-.1-1.9 0 0-.1-.2-.4-.5-.3-.3-.5-.5-.5-.6-.1-.2-.3-.5-.4-.9-.1-.2-.2-.6-.3-1 0 0 .2.4.6 1.2.3.6.6 1.1 1 1.4l-.6-6.4 3.3-.9c0 .1 1.8 3.8 5.2 11.2.1.1.2.1.2.1 0 .1 0 .3.1.5-.1 0-.3.1-.4.3.1.1.2.2.4.3 0 .1 0 .1 0 .2.1.3.2.7.5.9l.1-.1c-.1-.1-.2-.2-.2-.4 0 .1.1.2.3.3 0 0 0 .1 0 .1 0 .2.2.3.4.4.2.5.6 1.3 1.1 2.3l-2.9.8zM96.8 35h-.1l.2.8h.1l-.2-.8zm.2.9h-.1l.1.2h.1l-.1-.2zm4.7 2.5c-.4-1.4-.9-2.1-1.6-2.2 0 .1 0 .2 0 .2 0-.1-.1-.2-.3-.3l-.2.1c0 .1.1.1.1.2s0 .1 0 .2c-.1-.1-.2-.1-.2-.2 0 .2 0 .3-.1.3.1 0 .1 0 .1 0s0 .1 0 .1c.1 0 .1-.1.2-.1s.2 0 .2.1c.1.1.1.2.1.2s0 0-.1 0c0 0 0 0-.1 0 0 0-.1 0-.1-.1 0 .1 0 .1-.1.2l-.1-.1-.1.3c-.1 0-.2-.1-.3-.1 0 .2 0 .6 0 1l-.1.1c0-.1 0-.2 0-.3 0-.1 0-.1-.1-.1 0 0 0 .1 0 .2s0 .1 0 .2l.9 3.4 1.3-.4c.9-.2 1.1-1.2.6-2.9zm4.5 3.1v.1h.2v-.1h-.2zm.4.1c-.1 0-.1.1-.1.3.1-.1.2-.1.3-.2-.1 0-.1 0-.2-.1zm1-1l.1.2.2-.1c0-.1 0-.1 0-.3l-.3.2zm7.7 3.2v-.3h-.1v.3h.1zm-.2-.1h.1l-.1-.3h-.1l.1.3zm-.2-.3h.1l-.2-.4h-.1l.2.4zm-.9.6c.2-.1.3-.1.4.1 0 .1 0 .1 0 .2l.1-.2c-.1-.1-.2-.2-.2-.4 0-.1 0-.1 0-.2 0 0 0 .1-.1.2l-.3-.2c0 .2 0 .4.1.5zm-.2-1h.1l-.1-.4h-.1l.1.4zm-1.9.1c0 .1 0 .2.1.2 0 0 .1-.1.1-.1 0-.1-.1-.2-.3-.3l.1.2zm-.1.8v-.2h-.1v.2h.1zm-.9-1.6l.6-.2V42l-.6.2v.1zm-.3-.9h.1l-.1-.3h-.1l.1.3zm-1.3 7.4h-.1v.2h.1v-.2zm.5-17.8l-.2.1v.1l.2-.1V31zm.1 4.5l.6 5.2c0 .1.1.2.3.3.2.1.3.2.3.2 0 .1-.1.1-.3.1.2 0 .3.1.3.2-.1.1-.2.2-.4.3.1 0 .2-.1.3-.1.1-.1.3-.1.3-.1 0 .1 0 .1 0 .2l.3.1s0 .1-.1.2l.5-.1v-.1c0-.1 0-.3.1-.6.1-.2.1-.4.2-.6l-2.4-5.2zm3.5 6.9h-.1v.4h.1v-.4zm2.1.1c-.1 0-.3-.1-.6-.3-.3-.1-.5-.2-.5-.2-.1 0-.2.1-.3.2-.2.1-.3.1-.4.2 0 .1.1.1.1.2 0 0 .1 0 .1-.1.1 0 .1 0 .2 0 0 .1 0 .2 0 .3v.1s0 .1.1.2c0-.2.1-.4.1-.5.2 0 .4.1.4.3 0 0 0 0 0 .1.1-.1.2-.1.1-.1-.1-.1-.2-.1-.3-.2l.1-.1s.1 0 .2.1c0 0 0-.1.1-.1 0 0 .1.1.1.1-.1-.2-.2-.3-.1-.3l.2.1s0 .1 0 .2 0 .2 0 .2c.1 0 .1-.1.2-.1 0-.1-.1-.2-.1-.3.1 0 .2 0 .3 0zm-.1.4h-.1l.1.2h.1l-.1-.2zm1.6 2.5v.2h.1v-.2h-.1zm-2.9-2.9l.1-.2c.2 0 .3.1.5.3l-.2.1c-.2-.2-.3-.3-.4-.2zm-2.7-1.5c.1 0 .2 0 .4 0 0 .1 0 .1 0 .2-.1 0-.2-.1-.4-.2zm4.4 2.3c0-.1 0-.1 0 0 0-.1 0-.1 0 0zm6.7.9h-.1l-.2-.9h.1l.2.9zm-.3-1h-.1l-.2-.7h.1l.2.7zm-.2-5l-.2-.1.2-.1c0 .1 0 .2 0 .2zm0-.3h-.1l-.2-.9h.1l.2.9zm-.3-1.2h-.1l-.2-.7h.1l.2.7zm-.3-.8h-.1v-.2h.1v.2zm.1 2.4h-.1l-.1-.2.1-.1.1.3zm-.1 1.3c-.1 0-.1.1-.1.1l-.1-.4.2.3zm-.2 1.3l.1-.2h.1l-.2.2zm.5-.6l.1.2h-.1l-.1-.2h.1zm.2 2.1h-.1l-.1-.7h.1l.1.7zm-.7-2.5h.1l.5 1.8h-.1l-.5-1.8zm1.3.3h.1l.1.5h-.1l-.1-.5zm.2 5.2l-.1-.3h.1l.1.3h-.1zm.5-3.1l-.1-.1.1-.1.1.2h-.1zm-.3-.6h.1l.1.2h-.1l-.1-.2zm.3-2.6v.2h-.1v-.2h.1zm.3 4.4l.1.2h-.1l-.1-.2h.1zm1.7-1.8h-.1l-.1-.2h.1l.1.2zm0 7.4h-.1l-.1-.2h.1l.1.2zm-.6-9.1h.1l.1.2h-.1l-.1-.2zm.5 4.3c0-.1-.1-.4-.2-.7-.1-.3-.2-.5-.2-.7l-.1-.5c-.1-.4-.2-.7-.2-.8h.2l.1.3c.1.2.1.6.3 1.2.1.1.1.2.2.4-.2.2-.1.5-.1.8zm.3 6v-.2h.1v.2h-.1zm.1-7.6v.2h-.1v-.2h.1zm-1.4 12c0 .2 0 .3 0 .4-.1-.3-.2-.4-.2-.4.1 0 .1 0 .2 0zm.2 1h-.1l-.2-.6h.1l.2.6zm.7.9h.1l-.1.7h-.1l.1-.7zm.6 0h.1l.1.4h-.1l-.1-.4zm.3.7h-.1l-.1-.1.1-.1.1.2zm-.3-6.1h.1l.3.8h-.1l-.3-.8zm.4 1.1h-.1v-.2h.1v.2zm.7 3.6h-.1l-.1-.2h.1l.1.2zm6.7-53.3c0-.1 0-.3.3-.2.5.2-.4.8-.3.2zm-2.5 53l.1.4h-.1l-.1-.4h.1zm.5-3.2v.2h-.1v-.2h.1zm.5 2.3v.2h-.1v-.2h.1zm.9-.5h.1v.2h-.1v-.2zm1.8-7.9l.1.2h-.1l-.1-.2h.1zm.2 1.3h.1v.2h-.1v-.2zm-2 13.3h-.1v-.2h.1v.2zm0 .3l-.2.1v-.1l.2-.1v.1zm-.3-.8l.2.2h-.1l-.1-.2zm1.2 1.3l-.4-.2.1-.1.4.2-.1.1zm-.2-1.2h-.1l-.2-.8h.1l.2.8zm-.4-.7l.1.4h-.1l-.1-.4h.1zm.2.9h-.4v-.1h.4v.1zm1.2-1.2l-.1-.2c.1.1.2.2.2.2v.1s-.1.1 0 .1c-.1 0-.1-.1-.1-.2zm3.4 4.6h-.1l-.1-.2h.1l.1.2zm-.6-2.1h.1l.1.2h-.1l-.1-.2zm.2-2.6h.1v.2h-.1v-.2zm0 3.3l-.1-.1.1-.1.1.2h-.1zm-.5-1.6l-.1-.5h.1l.1.5h-.1zm-1-8h.1l.1.2h-.1l-.1-.2zm.3 5.5l-.2-.1.3-.1c-.1.1-.1.1-.1.2zm-.2-1.2l.2.9h-.1l-.2-.9h.1zm-.4-1v-.2h.1v.2h-.1zm2.7 5.5c0-.2-.1-.4-.1-.6-.1-.2-.1-.4-.2-.5 0 0-.1.1-.1.1s0-.1 0-.3c0 0-.1 0-.2-.1 0 .2 0 .4-.1.7-.1-.2-.2-.3-.2-.3s.1-.3.2-.7c0 .1 0 .2-.1.3 0 0 .1 0 .2.1.1 0 .1-.1.1-.2l-.5-1.9c-.1 0-.1.1-.3.1v-.4l-.1-.1c0 .1-.1.1-.1.1l-.2-.9c.1-.2.2-.3.2-.3s.1 0 .1 0l.1.1c.1-.1.1-.3 0-.5 0 0-.1-.2-.2-.5 0 0-.1 0-.1 0 .1-.3 0-.8-.2-1.6-.1-.2-.1-.4-.2-.4 0-.1 0-.2 0-.3 0-.1 0-.1-.1-.1 0-.1-.1-.8-.4-1.9-.2-.7-.3-1.4-.5-2 .2.6.4 1.2.5 1.7.1.4.2.8.3 1.2 0 0 .1 0 .1 0 .1 0 .3-.2.5-.4 0 .2 0 .3 0 .3s-.1 0-.1 0 0 0 0 .1c0 0 0 .1.1.1-.1 0-.2 0-.4 0-.1.2-.1.4 0 .6.1.2.2.4.3.5l-.1.1c.2.7.4 1.7.7 2.8.4 1.6.6 2.5.7 2.9 0 0 .1.1.2.2l.4 1.9s0 0-.1 0c0 0 0 0-.1.1zm0-.9h-.1l.1.3h.1l-.1-.3zm.3.9c0-.1 0-.1 0 0 0-.1 0-.1 0 0zm.2 1.3l-.1-.5c-.1-.4-.2-.7-.2-.8h.2l.1.3c.1.2.1.6.3 1.2.1.1.1.2.2.4s.1.4.1.7c0-.1-.1-.4-.2-.7-.2-.1-.3-.4-.4-.6zm.5-1.3h.1l.1.2h-.1l-.1-.2zm-.4-1.3l-.1-.2h.1l.1.2h-.1zm-.3-1.8c-.1 0-.2 0-.3.1v-.3c.1 0 .1 0 .3 0v.2zm-1.2-2.4l-.1-.4h.1l.1.4h-.1zm.3-.8h-.1l-.1-.5h.1l.1.5zm-.3-.8l.2.1-.1.1-.1-.2zm-.4-.1c0-.1 0-.2.1-.4l.1.5c-.1-.1-.1-.1-.2-.1zm4.5-43.6c.2.2.5.2.6.4.1.2-.2.5-.3.8-.3-.4-.7-.8-1-1.1 0-.4-.2-.8-.5-1 .8-.4.9.6 1.2.9zM140.4 9c-.2.4-.3.8-.6 1.2-.2-.2-.3-.3-.5-.5 0 0 0-.1 0-.1-.1-.1-.2-.2-.2-.2-.1-.2-.3-.3-.4-.5.3-.4.4.2.7.2.2 0 .6-.5 1-.1zm-2.6-4.1c.6.6 1.2 1.1 1.8 1.7 0 .3.1.7 0 .9-.1.1-.6 0-.8.1-.2.1-.6.4-.9.6-.3-.2-.5-.5-.8-.7.1-.2.1-.4 0-.6-.3-.6-1.4-1.2-.5-1.6.3-.1.3.1.6.2.4-.2.3-.4.6-.6zm-1.9-1.1c.3-.1.6.3.8.2 0 0 0 0 .1-.1.2.1.3.3.5.4-.3 0-.7-.1-.9.3-.4-.5-.6 0-1 .1-.5-.5-.1-.8.5-.9zm-.5 45.8v.2h-.1v-.2h.1zm-.2-.9l.2.8h-.1l-.2-.8h.1zm5.2 4.4l.1.4h-.1l-.1-.4h.1zm.4-3.2v.2h-.1v-.2h.1zm.6 2.3v.2h-.1v-.2h.1zm.8-.6h.1v.2h-.1v-.2zm.8-40.1c-.2-.2 0-.6.3-.9.2.2.3.4.5.6-.1.3-.5.5-.8.3zm-.8 46.9h-.1v-.2h.1v.2zm.1.2l-.2.1v-.1l.2-.1v.1zm-.3-.7l.2.2h-.1l-.1-.2zm1.2 1.3l-.4-.2.1-.1.4.2-.1.1zM143 58h-.1l-.2-.8h.1l.2.8zm-.5-.8l.1.4h-.1l-.1-.4h.1zm.3 1h-.4v-.1h.4v.1zm1.1-1.2l-.1-.2c.1.1.2.2.2.2v.1s-.1.1 0 .1c0 0-.1-.1-.1-.2zm-4 6.3h-.1v-.2h.1v.2zm-1.3-5.1c-.1 0-.1.1-.3.1 0 0 0-.1 0-.1 0-.1 0-.1 0-.2s0-.2 0-.2c0-.1-.1-.1-.2 0-.1 0-.2 0-.2-.1 0 0 0 0 .1 0s.1-.1.2-.2c-.1 0-.1-.1-.1 0l.1-.2s.1-.1.1-.2c0 .1.1.1.2.2.1-.1.1-.2 0-.3 0-.1-.1-.2-.1-.3 0 0 0 .1-.1.2l-.1-.2c.1-.1.2-.3.1-.4 0-.1-.1-.2-.2-.2l-.1.2c-.1-.2-.2-.5-.5-.9.1 0 .2-.1.3-.2 0 0 0 .1.1.3 0 .2.2.3.3.5h.2c.1-.1 0-.3 0-.6 0 0 0-.1-.1-.2 0-.1-.1-.1-.1-.2v-.1c-.1-.2-.1-.3-.2-.3s-.1 0-.2.1c.1-.4 0-.9-.1-1.5-.1-.3-.2-.6-.3-.9.1-.1.1-.2 0-.4 0-.1 0-.2-.1-.3-.1-.1-.1-.2-.1-.3-.1-.2-.1-.5-.2-.9s-.2-.7-.2-.9c-.1-.5-.3-1-.5-1.4l7.1-1.9.6 2.4-4.4 1.2 1.2 4.5.1.1.8-.2c.1 0 .2-.1.3-.2l.1.1c.2 0 .6-.1 1.3-.3.4-.1.6-.3.6-.5 0 0 0 .1 0 .2s0 .2 0 .2l.6 2.3-.6.2c0 .1 0 .3.1.6-.1-.1-.2-.3-.2-.5-.1 0-.3 0-.4.1-.2 0-.3.1-.4.2-.1.1-.1.1-.1.2 0 0 .1.1.1.1s-.1 0-.1 0c-.1 0-.1 0-.1.1 0 0-.1-.1-.1-.1-.1-.1-.1-.1-.2-.1 0 .1-.1.2-.1.3 0-.1-.1-.2-.1-.3-.1 0-.1.1-.1.3 0-.1-.1-.1-.1-.1s-.1 0-.1.1c.1.1.2.1.2.2s-.1.2-.2.3c.1 0 .2.1.3.1 0 .1-.1.2-.1.3-.1.1-.1.2-.1.3 0 0 0 .1 0 .1 0-.1-.1-.2-.2-.3 0 .1 0 .2-.1.3l1 3.8 4.5-1.2c0 .2.1.5.2.9s.2.9.4 1.5l-6.3 1.7c0 .1-.1.1 0 .2 0-.1-.1-.2-.2-.1-.1 0-.1.1 0 .2-.2-.1-.3-.1-.5 0 0 0 0-.1 0-.1 0-.1-.1-.2-.2-.2.1-.1.1-.2 0-.4l-1.9-6.6c-.4-.2-.4 0-.3.1zm-8.2 7.7h-.1v-.2h.1v.2zm-2-7.7h-.1l-.1-.5h.1l.1.5zm-.4-.8l.2.1-.1.1-.1-.2zm-.4-.2c0-.1 0-.2.1-.4l.1.5c0-.1-.1-.1-.2-.1zm.5 1.3l.1.4h-.1l-.1-.4h.1zm.8 2.5c.1 0 .1 0 .3 0l.1.3c-.1 0-.2 0-.3.1l-.1-.4zm.6 1.9h.1l.1.2h-.1l-.1-.2zm.5 1.5l.1.2h-.1l-.1-.2h.1zm-.5 1.4l-.1-.5c-.1-.4-.2-.7-.2-.8h.2l.1.3c.1.2.1.6.3 1.2.1.1.2.2.2.4.1.2.1.4.1.7 0-.1-.1-.4-.2-.7-.3-.2-.4-.4-.4-.6zm-4.1-5.2l.1.3h-.1l-.1-.3h.1zm-.1.7h.1l.1.2h-.1l-.1-.2zm.3.8l.1.2h-.1l-.1-.2h.1zm1.8 5h-.1l-.2-.9h.1l.2.9zm-.3-.9h-.1l-.2-.7h.1l.2.7zm-.2-5.1l-.2-.1.3-.1c-.1.1-.1.2-.1.2zm0-.3h-.1l-.2-.9h.1l.2.9zm-.3-1.1h-.1l-.2-.7h.1l.2.7zm-.3-.8h-.1v-.2h.1v.2zm.1 2.3h-.1l-.1-.2.1-.1.1.3zm-.1 1.4c-.1 0-.1.1-.1.1l-.1-.4.2.3zm-.3 1.2l.1-.2h.1l-.2.2zm.5-.6l.1.2h-.1l-.1-.2h.1zm.3 2.2h-.1l-.1-.7h.1l.1.7zm-.7-2.5h.1l.5 1.8h-.1l-.5-1.8zm1.3.2h.1l.1.5h-.1l-.1-.5zm.2 5.2l-.1-.3h.1l.1.3h-.1zm.5-3.1l-.1-.1V65l.1.2zm-.3-.6h.1l.1.2h-.1l-.1-.2zm.3-2.6v.2h-.1V62h.1zm.2 4.4h.1l.1.2h-.1l-.1-.2zm.2 34c-.1.1-.2.2-.2.3-.4.3-1.1.6-1.3.8-.1-.6 1.1-1.3 1.5-1.5 0 .2 0 .3 0 .4zm-6.2-39.2c0 .1-.1.1-.1.2-.1 0-.1-.1-.2-.3 0-.1 0-.2.1-.3.1-.2.1-.3.1-.3-.1 0-.2 0-.3-.1 0 .1 0 .2 0 .2-.1-.1-.2-.1-.3-.1.1 0 .1-.1.1-.1s-.1-.1-.2-.2h.2c0-.1 0-.3.1-.5-.1 0-.2-.1-.3-.1 0-.1.1-.2.1-.4 0 .1.1.1.2.2-.1-.4-.3-.9-.5-1.6-.3-1.3-.5-2.2-.5-2.8-.1-.2-.8-.1-2.1.3l-.1-.3c.1-.1.2-.2.4-.4-.5-.3-.8-.4-1-.4 0 0-.1.1-.3.1l-.4-1.3 7.8-2.1.6 2.4c-.1.1-.6.2-1.4.4-.4.1-.6.2-.6.4-.1-.1-.2-.1-.3-.2-.1.1-.1.2-.2.3l1.2 4.7c.1 0 .1 0 .2.1.2-.2.2-.5.1-1-.1-.6-.3-1.2-.5-1.9.1-.1.1-.2.2-.3 0 .1.1.4.2.7v-.1h-.1v.2h.1c.1.3.1.5.2.7l.3.9c.1 0 .1-.1.2-.1 0-.1.3-.3.8-.8.3-.2.6-.5 1-.6 0-.1 0-.2 0-.3 0-.1 0-.1-.1-.1 0-.1-.1-.8-.4-1.9-.2-.7-.3-1.4-.5-2 .2.6.4 1.2.5 1.7.1.4.2.8.3 1.2 0 0 .1 0 .1 0 .1 0 .3-.2.5-.4 0 .2 0 .3 0 .3s-.1 0-.1 0 0 0 0 .1c0 0 0 .1.1.1-.1 0-.2 0-.4 0-.1.2-.1.4 0 .6.1.2.2.4.3.5l-.1.1s0 .1 0 .1c.3-.1.5-.2.8-.3 0-.2-.1-.4-.1-.6-.1-.3-.2-.6-.3-.9.1-.1.1-.2 0-.4 0-.1 0-.2-.1-.3 0-.1-.1-.2-.1-.3-.1-.2-.1-.5-.2-.9s-.2-.7-.2-.9c-.1-.5-.3-1-.5-1.4l7.1-1.9.6 2.4-4.4 1.2 1.2 4.5.1.1.8-.2c.1 0 .2-.1.3-.2l.1.1c.2 0 .6-.1 1.3-.3.4-.1.6-.3.6-.5 0 0 0 .1 0 .2s0 .2 0 .3l.6 2.3-.6.2c0 .1 0 .3.1.6-.1-.1-.2-.3-.2-.5-.1 0-.3 0-.4.1-.2 0-.3.1-.4.2-.1.1-.1.1-.1.2 0 0 .1.1.1.1s-.1 0-.1 0c-.1 0-.1.1-.1.1s-.1-.1-.1-.2c-.1-.1-.1-.1-.2-.1 0 .1-.1.2-.1.3 0-.1-.1-.2-.1-.3-.1 0-.1.1-.1.3 0-.1-.1-.1-.1-.1s-.1 0-.1.1c.1.1.2.1.2.2s-.1.2-.2.3c.1 0 .2.1.3.1 0 .1-.1.2-.1.3-.1.1-.1.2-.1.3 0 0 0 .1 0 .1 0-.1-.1-.2-.2-.3 0 .1 0 .2-.1.3l1 3.8 4.5-1.2c0 .2.1.5.2.9s.2.9.4 1.5l-6.3 1.7c0 .1-.1.1 0 .2 0-.1-.1-.2-.2-.1-.1 0-.1.1 0 .2-.2-.1-.3-.1-.5 0 0 0 0-.1 0-.1 0-.1-.1-.2-.2-.2.1-.1.1-.2 0-.4l-1.9-6.6c-.1.1-.1.3 0 .5-.1 0-.1.1-.3.1 0 0 0-.1 0-.1 0-.1 0-.1 0-.2s0-.2 0-.2c0-.1-.1-.1-.2 0-.1 0-.2 0-.2-.1 0 0 0 0 .1 0s.1-.1.2-.2c-.1 0-.1-.1-.1 0l.1-.2s.1-.1.1-.2c0 .1.1.1.2.2.1-.1.1-.2 0-.3 0-.1-.1-.2-.1-.3 0 0 0 0-.1.2l-.1-.2c.1-.1.2-.3.1-.4 0-.1-.1-.2-.2-.3l-.1.2c-.1-.2-.2-.5-.5-.9.1 0 .2-.1.3-.2 0 0 0 .1.1.3 0 .2.1.3.3.5h.2c.1-.1 0-.3 0-.6 0 0 0-.1-.1-.2 0-.1-.1-.1-.1-.2v-.1c-.1-.2-.1-.3-.2-.3s-.1 0-.2.1c.1-.2 0-.5 0-.8-.1 0-.1 0-.2 0-.2.1-.4.1-.6.2.2.7.4 1.6.7 2.6.4 1.6.6 2.5.7 2.9 0 0 .1.1.2.2l.4 1.9s0 0-.1 0-.1.1-.2.1c0-.2-.1-.4-.1-.6-.1-.2-.1-.4-.2-.5 0 0-.1.1-.1.1s0-.1 0-.3c0 0-.1 0-.2-.1 0 .2 0 .4-.1.7-.1-.2-.2-.3-.2-.3s.1-.3.2-.7c0 .1 0 .2-.1.3 0 0 .1 0 .2.1.1 0 .1-.1.1-.2l-.5-1.9c-.1 0-.1.1-.3.1V61l-.1-.1c0 .1-.1.1-.1.1l-.2-.9c.1-.2.2-.3.2-.3s.1 0 .1 0l.1.1c.1-.1.1-.3 0-.5 0 0-.1-.2-.2-.5 0 0-.1 0-.1 0 .1-.3 0-.8-.2-1.6 0-.1-.1-.2-.1-.3-.2.1-.4.2-.6.4-.5.4-.9.7-1.1 1.1 0 .1 0 .1.1.1-.1 0-.1.1-.2.1.1.2.3.4.5.6l.1.3c-.1.1-.1.2 0 .5-.1 0-.1 0-.2 0 0 .1 0 .1 0 .2.1.5.2.7.2.6 0 .2 0 .3 0 .4.1.1.1.2.1.3 0 .2.1.3 0 .5-.1-.2-.1-.5-.2-.8-.1-.4-.2-.7-.2-.8-.2-.7-.4-1.2-.6-1.6-.1.2-.1.3-.1.4 0 .1.1.2.2.3-.1 0-.1 0-.2 0 0 .3 0 .6.1 1 0 .1.2.3.5.5-.1 0-.2 0-.3-.1 0 .4 0 .8.2 1.2.1.5.3 1 .6 1.6 0 .4.1.9.3 1.5l.9 3.3-2.4.7-2.1-8-.7-.1zm-1.1-7.5c-.1.1-.3.2-.5.3v.1l.1.2v.1l.3-.1c0-.2.1-.4.3-.5l-.2-.1zm0 .8l.1.3h-.1c-.1 0-.1.1-.1.1 0 .1 0 .1 0 .2 0 0 .1 0 .2 0 0-.1.1-.3.3-.7l-.4.1zm.9 5.5h-.3v.1h.3V60zm.1.8c-.1.1-.1.2-.1.3.1 0 .1 0 .2-.1 0-.1 0-.2-.1-.2zm6.7 3h.1l-.1-.3h-.1l.1.3zm-6.1-9.3l.2-.1v-.1l-.2.1v.1zm1.8 2c0 .1 0 .1 0 0zm-2.9 2.7zm7.5 5.2c0-.1 0-.1 0 0 .1-.1 0 0 0 0zm-3.7 36.7c-.1.1-.3.2-.4.3 0 0 0 0-.1 0 .1-.2.3-.3.5-.3zm1.4 1.9c-.6.3-1.2.7-1.8 1 0-.1 0-.2-.2-.3-.3.2-.2.4-.4.6-.7-.8.7-1.1 1.1-1.3.4-.3 1.1-.9 1.3 0zm-6 2.4c-.5.2-.8.5-.9.8-2.8 1.1-5.6 2-8.4 2.7 0-.1-.1-.1-.1-.2-.1 0-.2.1-.3.3-.4.1-.8.2-1.2.3 0-.2-.1-.3-.1-.3-.4-.4-1.1.2-1.7-.6-.1-.1-.2-.7-.3-1.1 1.2-.2 2.5-.5 3.7-.8 0 .1.1.2.1.3.1-.1.2-.3.2-.4 4.1-1.1 8.2-2.6 12.1-4.6-.1.2-.3.6-.2.9-.5.3-1.2.5-1.4.7-.4.4-.4 2-1.3.8-.3.7-1.1 0-1.4.2-.8.3.6 1.1 1.2 1zm-5.7 2.2c1.7-.8-.6-1.5 0 0zm.9-1.7c-.2.1-.2.3-.2.5.2-.1.4-.3.2-.5zm-15.8 3.9s.1-.2.2-.2c.5.4-.7.9-.2.2zm-.1 4c-.2 0-.2-.2-.1-.3.2-.5.6.3.1.3zm-1.1-.4c0 .1-.7.2-.3-.1-.1 0 .4-.2.3.1zm-2-4.7c-.6.2-2.3.6-2.6.4-.1-.1-.3-.7-.5-1 1.2.1 2.5.1 3.7.1-.1.2-.2.4-.6.5zM92.4 78l-.6-2.3c-.1-.1-.2-.1-.2-.1l.1-.3-3.9-14.5c.2 0 .4-.1.6-.1.2-.1.5-.2.8-.3 0 .1.1.3.2.5 0 0 .1 0 .1 0-.2-.7-.3-1.5-.4-2.3.2.9.5 1.5.6 1.8.2-.1.5-.1.7-.2.6-.1 1.3-.3 2.1-.5 0 0 0-.1 0-.1s0-.1-.1-.1c.1.1.2.1.3.1.1 0 .1-.1.1-.1l.2.1c.1-.1.2-.1.2-.2 0 0 .1 0 .1.1 1.8.1 3.1 1.5 3.8 4.1.3 1 .4 1.8.4 2.5 0 .5-.2 1.1-.4 1.7v.1c0 .1-.1.2-.2.3.4.2.7.2.8.2.7-.2 1.4 0 2.4.5.2 0 .3-.1.5-.3l-.3-.1.4-.1h.1s.1 0 .1 0l.1-.1c0-.1-.3-.2-1-.2v.2s.1.1.1.1c-.1 0-.1 0-.1.1s0 .1 0 .2l-.2.1s-.2-.1-.4-.3c-.2-.1-.4-.2-.4-.3 0-.1 0-.1 0-.2l-.1-.4s-.1 0-.2 0c-.2 0-.2.2-.1.4h-.5c.1 0 .2-.1.2-.2-.2-.2-.4-.3-.6-.4.1 0 .1 0 .2 0 .2 0 .4-.1.6-.3l-.3-.1c.3.1.5.1.6.2 0-.1-.1-.2-.1-.4.3.1.5.1.6.1 0 0 .1 0 .1-.1s.1-.1.1-.1c.1 0 .2 0 .4 0 0 0 0 0 0-.1l-.2-.2c.2-.1.3-.2.2-.1.1 0 .1 0 .2.2 0 0 .1-.1.1-.2.1 0 .2 0 .4.2 0-.9 0-1.5-.1-1.9 0 0-.1-.2-.4-.5-.3-.3-.5-.5-.5-.6-.1-.2-.3-.5-.4-.9-.1-.2-.2-.6-.3-1 0 0 .2.4.6 1.2.3.6.6 1.1 1 1.4l-.6-6.4 3.3-.9c0 .1 1.6 3.5 4.8 10.3.3-.2.6-.5 1-.8 0-.1-.1-.3-.3-.6.7.5 1.1.7 1.4.6.1 0 .2-.1.4-.3l-1-3.8c0-.1-.1-.2-.2-.2l-.1-.2h.1l-.1-.2-.6-2.1s.1 0 .1 0 .1-.1 0-.1l-1-3.8 1.7-.5c0-.1 0-.3 0-.4.1.2.2.3.2.3.2 0 .4-.1.7-.2.2.3.6.8 1.1 1.7.4.6.6.8.7.8.1 0 .1-.1.1-.1v.1c0 .1.1.3.2.3 0 .1-.1.1-.1.2 0 0 .1.1.4.1-.1 0-.2 0-.3-.1 0 0 0 .1 0 .1.1.2.2.3.4.2 0 0-.1.1-.2.2l3.7 5.4-2.7-9.9 2.4-.6 4.6 17.1-2.4.6-3.9-5.7-.1.3c-.1-.1-.2-.1-.3-.2 0 0 0 .1 0 .1v.2c-.1.1-.2.4-.3.7-.4-.4-.6-.7-.6-.8 0-.1 0-.3 0-.6.2.2.3.4.3.6 0 0 .1 0 .2.1.1-.1.1-.2.1-.3 0-.1-.1-.3-.3-.5-.2-.2-.3-.3-.4-.3 0 0 0 0 0 .1 0 0 0 0-.1.1 0 0-.1 0-.2 0l1.1 4c0-.1.1-.3.2-.5l.3 1.3c-.1.1-.2.3-.2.5l.1.2h-.1l-.1-.1c0 .2 0 .3 0 .6 0 0 .1.4.3 1.3l-2.5.7c0-.2-.1-.4-.1-.7-.1-.2-.1-.5-.2-.7-.1.1-.2.2-.2.2.1-.3.1-.5.2-.5l-.9-3.5c-.4-.2-.6-.4-.6-.5 0-.1 0-.1.1-.2 0-.1-.1-.1-.2-.1 0 0 0 0-.1.1 0 0 0 0-.1.1 0 0-.1-.1-.3-.1-.1-.1-.2-.1-.3-.1-.1 0-.1.1-.2.1-.1.1-.1.1-.2.1 0 .1.1.2.1.4-.1-.1-.3-.3-.5-.4-.1.1-.3.3-.6.5.1.2.2.5.3.7.1.1.2.1.2.1 0 .1 0 .3.1.5-.1 0-.3.1-.4.3.1.1.2.2.4.3 0 .1 0 .1 0 .2.1.3.2.7.5.9l.1-.1c-.1-.1-.2-.2-.2-.4 0 .1.1.2.3.3 0 0 0 .1 0 .1 0 .2.2.3.4.4.2.5.6 1.3 1.1 2.3l-2.6.7c-.3-.6-.5-1.2-.8-1.8l-.1-.3c-.2-.5-.4-.9-.6-1.4v.1h-.1v-.2h.1c-.9.2-1.7.3-2.4.5-.2.1-.3.2-.3.4 0 .1 0 .2.1.6 0 .1 0 .2 0 .3.1.4.1 1.1.2 1.9 0 .2 0 .4-.1.5h.1l.1.4-2.6.7-.6-6c-.1 0-.5-.1-1.2-.3-.3-.1-.8-.2-1.5-.3-.4 0-1-.1-1.7-.2l3.9 7.1-2.3.8-3.6-6.6-1.1.3 1.9 7.1-1.2.3-3.4-12.6c0-.2-.1-.3-.2-.4l3.5 13-1.5.3zM99 67.7v.1h.2v-.1H99zm.4.1c-.1 0-.1.1-.1.3.1-.1.2-.1.3-.2 0-.1-.1-.1-.2-.1zm1-1.1l.1.2.2-.1c0-.1 0-.1 0-.3l-.3.2zm13.9 3.2s.1-.1.1-.2c-.1-.1-.2-.2-.3-.2 0 .3.1.4.2.4zm-.2-4.8h.1l-.1-.2h-.1l.1.2zm-.8-1c.3.3.5.5.6.5-.3-.4-.4-.7-.5-.7-.2-.3-.4-.5-.6-.6l.1.2s.2.2.4.6zm-.3.4c-.1-.1-.2-.4-.3-.7-.1.2-.1.3-.1.4.1.1.2.2.4.3zm-.6-1.8h.1l-.3-.4-.1.1.3.3zm-.3-.7h.1l-.2-.3h-.1l.2.3zm-2.2 9.7h.1v-.2h-.1v.2zm-3.2-3.1c.1.1.1.1.2.1 0 0 0 .1 0 .1s.1 0 .1-.1-.1-.1-.3-.1zm.2.5c0 .1 0 .1.1.2 0-.1 0-.2 0-.2s-.1 0-.1 0zm1.3-.1h-.1l.1.2h.1l-.1-.2zm0 1v-.3h-.1v.3h.1zm-.3-.1h.1l-.1-.3h-.1l.1.3zm-.1-.3h.1l-.2-.4h-.1l.2.4zm-.3-.5c0 .1 0 .1 0 0 .1 0 .2-.1.2-.1-.1-.1-.2-.1-.3-.2l.1-.1s.1 0 .2.1c0 0 0-.1.1-.1 0 0 .1.1.1.1-.1-.2-.2-.3-.1-.3l.2.1s0 .1 0 .2 0 .2 0 .2c.1 0 .1-.1.2-.1 0-.1-.1-.2-.1-.3 0 0 .1 0 .2.1-.1 0-.3-.1-.6-.3-.2-.1-.4-.2-.5-.2 0 0 0 .1 0 .2.1.1.2.1.3.2l-.2.1s0 0-.1 0c0 .1 0 .1 0 .1.1.1.2.1.3.3zm-.7 1c.2-.1.3-.1.4.1 0 .1 0 .1 0 .2l.1-.2c-.1-.1-.2-.2-.2-.4 0-.1 0-.1 0-.2 0 0 0 .1-.1.2l-.1-.1v.1l-.1-.1c-.1.2 0 .4 0 .4zm-.1-.9h.1v-.1c0-.1 0-.1-.1-.2h-.1l.1.3zm-.4-.3zm-1.5.3c0 .1 0 .2.1.2 0 0 .1-.1.1-.1 0-.1-.1-.2-.3-.3l.1.2zm-.1.8v-.2h-.1v.2h.1zm-1-1.5l.6-.2v-.1l-.6.2v.1zm-.3-1h.1l-.1-.3h-.1l.1.3zm-.1-.6c0 .1.1.2.3.3.2.1.3.2.3.2 0 .1-.1.1-.3.1.2 0 .3.1.3.2-.1.1-.2.2-.4.3.1 0 .2-.1.3-.1.1-.1.3-.1.3-.1 0 .1 0 .1 0 .2l.3.1s0 .1-.1.2l.3-.1v-.1c0-.1 0-.3.1-.6.1-.2.1-.4.2-.6l-2.3-5.2.7 5.2zm-.9-9.6l.2-.1v-.1l-.2.1v.1zm-.3 17.9h.1V75h-.1v.2zm-9.5-7.4l1.3-.4c.9-.2 1.1-1.2.6-2.9-.4-1.4-.9-2.1-1.6-2.2 0 .1 0 .2 0 .2 0-.1-.1-.2-.3-.3l-.2.1c0 .1.1.1.1.2s0 .1 0 .2c-.1-.1-.2-.1-.2-.2 0 .2 0 .3-.1.3.1 0 .1 0 .1 0s0 .1 0 .1c.1 0 .1-.1.2-.1s.2 0 .2.1c.1.1.1.2.1.2s0 0-.1.1c0 0 0 0-.1 0 0 0-.1 0-.1-.1 0 .1 0 .1-.1.2l-.1-.1-.1.3c-.1 0-.2-.1-.3-.1 0 .2 0 .6 0 1l-.1-.1c0-.1 0-.2 0-.3 0-.1 0-.1-.1-.1 0 0 0 .1 0 .2s0 .2 0 .2l.9 3.5zm-3-6.7h-.1l.2.8h.1l-.2-.8zm.2.9h-.1l.1.2h.1l-.1-.2zm15.1 5h-.1v-.3h.1v.3zm-.7.1c.1 0 .2 0 .4 0 0 .1 0 .1 0 .2-.1.1-.2 0-.4-.2zm5.1-5.3l-.1-.1.1-.1v.2zm-.6 7.6c-.1 0-.1 0 0 0-.1 0-.1 0 0 0zM90.6 108c-.4-.1-.8.3-.8-.3 0 0 0-.1.1-.1 1.1.1 2.2.3 3.3.3-.2.2-.3.6-.7.6-.3.1-.4-.3-.8-.5-.2-.1-.4.1-.7.1-.1.2-.3-.1-.4-.1zm1.7 6.2c-.3 0-.7-.1-1-.1.3-.1.6-.3 1-.3.1.2.1.3 0 .4zm-1-5.3c.4-.4.5.7-.1.5-.2-.1 0-.3.1-.5zm-13.9 1.3c-.1-.2.1-.4.3-.6 4.1 1.4 8.4 2.4 12.8 2.9-.7.5-1.4 1-1.4 1.4-3.6-.5-7.2-1.3-10.6-2.4.6-.7-1.1-1.2-1.1-1.3zm-5.5-31.6c0-.1 0-.1-.1-.2 0-.1 0-.1 0-.2-.1-.1-.2-.1-.2-.1 0-.1 0-.2.1-.5s.1-.4.1-.5l-2.9-11 2.6-.7 3.6 13.4.5-.1.5.9.5 2.5c-.5.1-1.1 0-1.9-.3-.8-.3-1.3-.8-1.7-1.3-.3-.5-.5-.9-.7-1.4-.2-.3-.3-.5-.4-.5zm.4 29.5s-.1-.4-.2-.6c0-.1-.1-.1-.1-.2 1.3.6 2.7 1.1 4 1.6-.3.1-.7.2-1.1.4-.2.1-.5.4-.7.4-.5 0-.8-.5-1-.8-.1-.3.1-.6-.1-.8 0 0-.5.3-.8 0zM34.7 36.4c.5-.3 1.1-.7 1.7-.8-.5 2.2-.9 4.5-1.2 6.8-.2 0-.3.1-.1.4 0 0 .1 0 .1 0 0 .4-.1.9-.1 1.3-.1.1-.3.2-.4.3l.3.6c-.5 6.9.1 14.1 2 21.2 1 3.8 2.4 7.4 4 10.8-.4.1-.8.7-1 .8-.2.1-.3 0-.4 0-.2-.3-.3-.6-.5-1 0-.3 0-.5-.3-.6-1.4-3.1-2.5-6.3-3.4-9.7-2.5-9.2-2.8-18.5-1.3-27.3 0-.1 0-.1 0-.1.2-.8.4-1.7.6-2.7zm0 4.7c-.1 0-.6.8-.3 1 .6.4 1.1-1.4.3-1zm-.3 2.5c0-.1 0-.2 0-.3 0 0-.1 0-.1 0l.1.3zm4.3-19.7c.4-1 .9-1.9 1.4-2.9.2 0 .5 0 .7-.1.3-.2.2-.7.5-.9 0 0 .8-.1 1.1-.1-.8 1.5-1.6 3.1-2.3 4.7-.3-.3-.8-.6-1-.7-.1-.1-.3-.1-.4 0zm5.5-9.5c0-.1-.1-.2-.1-.3.1-.2.2-.3.3-.5.5-.2 1.5 0 1.9-.3 0 .8-1.7 2.3-2.1 1.1zM66.7-2.1C72.2-5.4 77.9-7.7 83.8-9c.2.6.7 1.3 1.4.6-.4-.3-.7-.2-.9-.6.8-.2 1.6-.4 2.4-.5.1.2.3.5-.3.7-.3.1-.3-.2-.6-.3-.1.6.2.2.4.5.2.4-.1.9.1 1.2 0 .1.1.1.2.2-.8.2-1.7.4-2.5.6-.1-.2-.4-.1-.5-.2-.3-.3-.3-1-.9-.6-.7.3-.4.8 0 1.3-.6.2-1.3.3-1.9.5-.3-.4-.6-.6-.7-.8-.1.2-.1.6-.1 1-.2.1-.4.1-.6.2 0-.1-.1-.1-.1-.2-.2 0-.2.1-.2.2-3.8 1.3-7.5 3-11 5.1C56.3 6.8 47.9 17.2 43.4 29c-.2-.1-.3-.2-.4-.2-.2-.3 0-1-.5-.9.2 1.1-1.9 1.5-1.3 2.6-.1-.2.7.6.8.6.1.1.3.1.5.1-.2.7-.5 1.4-.7 2.2 0-.1-.1-.2-.3-.3-.1.5.2.5.2.4-.1.4-.3.9-.4 1.3-.1.2-.1.3-.2.4-.2.5-.8.9-.6 1.3.1-.1.2-.1.3-.2-.3 1.3-.6 2.6-.8 3.9-.1-.2-.1-.3-.1-.5-.4.4-1.3 1.2-1.1 1.9 0-.1.7.9.9 1.1-.1.6-.1 1.3-.2 1.9 0 0 0 .1 0 .2-.1 1.1-.2 2.3-.2 3.4-.1-.1-.3-.2-.3-.3-.1-.3.5-1-.2-1.2-.6-.2-.1 1.1-.4 1.2-.4-.5-.7-1.7-1.4-1.2 0-.6.1-1.1.1-1.7.1-.1.3-.2.4-.1.4.2.9 1.1 1.2 1.3.4-.4-.2-.9.3-1.2-.5-.2-.6-.6-1-1.1.6-.1.4-.4.4-.8.1-.3.5-.3.3-.6-.3-.5-.9 0-1.1.6-.3-.7.5-.7.7-1.3.2-.5-.3-1 .4-1.5-.5 0-.3.3-.8.3-.1 0-.3-.1-.4-.2.3-2 .7-4 1.3-6 .3-.1.6-.3.6-.4.1-.3-.2-.4-.4-.6C43.5 19.1 52.8 6.1 66.7-2.1zM84.8-7c-.2-.2-.4-.1-.6-.1.2.2.4.2.6.1zM40.6 32.6c.8-.1-.2-.8 0 0zm4.3-10.7c-.1 0-.1.2-.1.2-.1.6.5-.1.1-.2zm35.9-34.2c2.3-.6 4.7-1.1 7-1.5.2.5.5.9.7 1.5-2.5.4-4.9.8-7.4 1.5-3.6 1-6.9 2.2-10.2 3.7-.1-.2-.2-.3-.3-.3-.5-.2-.9.3-1.1.9-.7.3-1.4.7-2.1 1.1 0-.1-.1-.3-.4-.2 0 .2.1.3.1.3C60.7-1.5 54.8 3.3 49.9 9c-.1-.1-.2-.1-.4-.1 0 .2 0 .4.1.5-.2.2-.4.4-.5.6-.3 0-.8.6-.9.6-.2 0-.8-.4-1-.7.2-.2.4-.5.6-.7.4-.2.7-.4.6-.5 0 0 0 0-.1-.1 3.5-4.2 7.6-8 12.2-11.3.1 0 .2 0 .3-.1 0 0 .1-.1.2-.3.3-.2.6-.4.9-.6.1 0 .1 0 .1 0 .1 0 .1-.1.2-.2.3-.2.6-.4 1-.6.5-.2 1.1-.4 1.2-.4.2 0 .4.1.6 0 .8-.3.9-.7 1.4-.4.3.2.6 0 .4-.5-.6.4-.7 0-.7-.4 1.3-.7 2.6-1.4 4-2.1 0 .2 0 .3 0 .3.3-.2.7-.5 1-.8 3-1.3 6.3-2.5 9.7-3.5zM60-1.9c-.4.2-.5.6-.4 1 .3-.1.7-.5.4-1zm62.6-7.4c0 .4.2.6.7.5.1 0 .1-.1.2-.1.3.2.7.3 1 .5 0 .2.1.6.1.6 0 .3-.4.7-.6.8-.1 0-.1 0-.2 0-1.6-.7-3.2-1.4-4.9-2 0 0 0-.1 0-.1s-.1 0-.1 0c-.7-.3-1.5-.5-2.3-.8.2-.2.4-.5.4-.8-.3.1-.7.4-.8.7-8.5-2.7-17.6-3.5-26.8-2.3.1-.3.1-.7.4-.8.1 0 .4 0 .5 0-.2-.3-.4-.5-.6-.7 8.8-1.1 17.5-.3 25.6 2 0 .4 1.2 1.1 1.4.5 0 0 0-.1 0-.1.7.2 1.3.4 2 .7-.2.4.5 1 .8.6 0-.1 0-.2 0-.3 1 .2 2.1.6 3.2 1.1zm25.5 19.5s-.1 0 0 0c-.1 0-.1-.1-.1-.1 0 .1.1.1.1.1zm.5 3c-.3-.2.1-.9.2-1 .9-.6.4 1.3-.2 1zm3.4 15c-.3-.1-.2-.7-.4-1.1-.2-.3-.6-.5-.9-.6-.9-2.1-2-4.2-3.2-6.2-1.1-1.8-2.2-3.5-3.4-5.2.2-.2.3-.4.6-.4.1 0 .6.4.6.4.2 0 .2-.3.5-.4.3-.2.5-.1.7-.2 1.1 1.5 2.1 3 3 4.6.5.8.9 1.6 1.4 2.4-.3-.1-.6-.1 0 .3.5.3-.2.6-.3.9 0 .2.2.9.4 1 .2.1.2-.3.4-.1.5.8-.5 1.2-.3 1.9 0 .1.4.3.6.6.2.3 0 .6.1.8.2.3.6.1.8.4.2.6-.1 1.1-.6.9zm-2-15.4c.2.3.4.6.6.9-.1.1-.2.2-.3.3-.4-.4-.4-.8-.3-1.2zm1.6 4c-.2.1-.6 0-.8-.2-.1-.1-.3-1.2-.3-1.2.4-.7 2.4.8 1.1 1.4zm2.9 3.8c-.1.5-.9.5-1-.4 0-.3.2-.6.4-1 .1.2.2.4.3.6 0 .1-.1.1-.1.2.1.4.5.4.4.6zm.8 5c.2.1.4.4.3.7-.1-.2-.2-.5-.3-.7zM141 91.4c-.1.3 0 .4.3.5-2.1 2.2-4.3 4.2-6.8 6.1 0 0 0-.1-.1-.1-.2-.1-1 .5-1.3.6-.4 0-.5-.4-1.1-.2-.2.1-.2.4-.5.7-.2.2-.6.1-.7.2-.2.1-.3.3-.4.5-.1-.1-.2-.2-.3-.1 0 .1.1.3.2.3-.1.2-.2.3-.4.3-.3.1-.1-.2-.4-.3-.2-.1-.3-.1-.4-.1.1-.2.1-.7-.1-.2 0 0-.1.1-.1.1 0 .1 0 .1 0 .1s-.1 0-.1 0c-.2-.1-.2-.3-.3-.5 1.3-.8 2.6-1.7 3.8-2.6.4.4.6-.2.5-.5 14-10.7 21.9-26.9 22.7-43.7.1 0 .1 0 .2 0 .3.1.3 1.6 1 1.2.1-.1.2-1.7.1-1.7-.2-.3-.9-.4-1.1-.7-.1-.2.2-.6 0-.9 0-.1-.1-.1-.2-.1 0-.5 0-1 0-1.5.4 0 .6 1.5 1.3.7.5-.5-.5-1.2-.2-1.8.4-.3.2.2.5.4.3.1.5 0 .7-.1.5 15.8-5.2 31.4-16.1 43.2 0-.2-.7.2-.7.2zm-6.4 3.5c-.8.7.5.8 0 0zm.6-.2c.3.3.8.1.6-.3-.2.1-.4.1-.6.3zm5.1-2.8c-.9 0-1.9.7-2.6 1.5.2.2 1.7 0 1.9-.1.1-.1.2-.6.3-.8.2-.3.7-.2.4-.6zm9.1-14.3c1.4-.9-.9-1.2 0 0zm-7.3 11.7c.6.4.9-1.9 0-.8-.3.5-.3.6 0 .8zm16-57.2c-.1.1-.3 0-.5-.1-.1-.2-.1-.4-.2-.6.4-.2.2-.7-.2-1.5 0-.1 1.5 1 1.5 1 .2.3-.3 1-.6 1.2zm-.5-5.1c-.2.4-.5.8-.7 1-.6-.6.3-1.1.5-1.6 0 .2.1.4.2.6zm-.8 2c.3.1.3.6.1.8-.1-.2-.1-.3-.2-.5 0-.1.1-.2.1-.3zm-.9 17.8c-.1.1-.3 0-.3-.2.1-.4.5 0 .3.2zm.2-4.8c.8.5.5 1.3 1.4 2 .1 0 .1.1.2.1.1 1 .2 2 .2 3-.4-.3-.8-1.3-1.4-1.8-.5-.4-.9-1-.1-1.5-.3-.4-.1-1-.5-1.6l.2-.2zm2.4-6.5c-.1-.6-.3-1.2-.4-1.8-.1-.3-.2-.7-.3-1 .1 0 .1-.1.2-.1.7.9.7.2 1.3-.3.1.4.2.7.3 1.1.1.3.1.6.2.8-.7.2-.4 1.1-.8 1.4 0 .1-.3 0-.5-.1zm.3 32.4c0-.1.3-.3.6-.4-.1.3-.2.6-.3 1-.1-.2-.3-.4-.3-.6zm.9-26.4c.1.2.2.3.2.5 0 .1-.1.2-.1.2-.1-.3-.1-.5-.1-.7zm-.8-4.5c.2 0 .4 0 .5.2-.1.2-.3.3-.4.5 0-.3-.1-.5-.1-.7zm1 2.6c.1.2.4.3.4.5 0 .3-.7.7-.7 1.2-.1-1-.3-1.9-.5-2.9.8-.1.7.8.8 1.2zm.7 22.9c-.8.2-.7-.8-1.1-1.3-.1 0-.2.1-.3.2 1.1-5.9 1.3-12 .6-18.1.3-.1.5-.2.7 0 .2.2-.3.7-.1.9.3.3.6-.1 1-.2.5 5.2.4 10.4-.3 15.4-.1-.1-.3-.2-.4-.3-.5-.4-.4-.5-.7 0-.3.5-.5.7.4.7.3.9-.3 1.6.2 2.5.1 0 0 .1 0 .2zM107 119.4h.4l-.2-.1s-.1 0-.1 0c.1-.1.2-.2.2-.4l1.8.8c.1 0 .3.1.5 0 .2 0 .3-.1.3-.1l2.7-2.6s0 .1.1.1l.5-.1-.1-.4c.5-.5 1.2-.9 2-1.1.8-.2 1.6-.2 2.2-.1l4.3 1.1s.2 0 .3 0c.2-.1.4-.2.5-.3l.6-.8c.9.5 1.8 1 2.7 1.5l-.6-.6-2-1.1 1.2-1.7h.3c-.1 0-.2 0-.3 0l.6-.9c.6-.8 1.5-1.5 2.6-1.7.4-.1.9-.2 1.3-.1l4.5.3s.1 0 .1 0c.3-.1.5-.3.6-.4l1.9-4.1c.5-1.1 1.7-2.1 3-2.5.2 0 .3-.1.5-.1l.3.3.6.2h1.1l-.6-.4-.6-.2 1.9-.2c.1 0 .1.1.2.1 0 0-.1-.1-.1-.1l1-.1.5.9c.1 0 .2.1.2.1s-.1 0-.1 0c-.6-.1-.8.3-.6.8.3.6.9 1.1 1.6 1.2 0 0 0 0 .1 0-.2.1-.4.1-.6.1l-2.5.3c-.1 0-.2-.1-.3-.1-.3-.1-.5 0-.6.2l-1 .1c-.1 0-.3.1-.4.2-.3.2-.5.4-.5.6l-1.6 3.5c-.1 0-.1 0-.2 0-.3.1-.5.3-.6.5 0 .1-.1.2-.1.2s0 0-.1.1c0 0-.1 0-.1.1-.4.1-.2.6 0 .9-.5.4-1.1.8-1.7.9-.4.1-.8.1-1.1.1.1-.1.2-.2.2-.3 0-.1.1-.2.1-.2s0 0 .1-.1c0 0 .1 0 .1-.1.6-.2-.1-1.1-.3-1.3-.4-.4-1.1-.8-1.7-.7-.3.1-.5.3-.6.5 0 .1-.1.2-.1.2s0 0-.1.1c0 0-.1 0-.1.1-.4.1-.2.7 0 1-.4.1-.8.1-1.2.2l1.7.3s.1.1.1.1l-2.9-.2s-.1 0-.3 0c-.4.1-.7.4-.8.5l-1.6 2.3-.5-.3c.1.1.3.3.4.4l-1 1.2c-.5.7-1.3 1.3-2.2 1.5-.7.2-1.3.2-1.9 0l-4.3-1.1c-.1 0-.4 0-.6 0-.3.1-.5.2-.6.3l-3.2 3.1c-.1.1-.3.2-.4.3-.2 0-.4 0-.6 0l.3.1c-.3.2-.7.3-1 .4-.9.2-1.9.2-2.7-.2l-2.3-1.1c.4-.4 1-1.2 1.5-1.9zm35.8-14.2l-.9-.6c-.2 0-.5 0-.7 0l1.6.6zm-13.4 7.5l1.4-.4-1.5-.8c-.1 0-.3 0-.4-.1.2.5.3.9.5 1.3zm-2.7 2.3l-.1-.2c-.2-.1-.5-.1-.7-.2.3.1.6.3.8.4zm-.2-.5c-.2-.2-.3-.3-.5-.4-.2 0-.3.1-.5.1l1 .3zm-12.6 3.2h.9c-.2-.1-.4-.3-.6-.4-.1 0-.3.1-.4.1.1.1.1.2.1.3zm-.8 0h.4v-.2c-.2.1-.4.1-.4.2-.1-.1-.1 0 0 0z"/></svg>