<?xml version="1.0" encoding="utf-8"?>
<!-- Generator: Adobe Illustrator 18.1.0, SVG Export Plug-In . SVG Version: 6.00 Build 0)  -->
<svg version="1.1" id="Layer_1" xmlns="http://www.w3.org/2000/svg" xmlns:xlink="http://www.w3.org/1999/xlink" x="0px" y="0px"
	 width="540px" height="50px" viewBox="0 0 540 50" enable-background="new 0 0 540 50" xml:space="preserve">
<g>
	<g>
		<path fill="#FFFFFF" d="M67.8,10.7c0,0.2-0.1,0.4-0.2,0.6c-0.1,0.2-0.2,0.4-0.3,0.5c-0.1,0.2-0.3,0.4-0.5,0.6
			c-0.1,0.1-0.1,0.1-0.2,0.2c-0.1,0.1-0.2,0.3-0.3,0.6c-1,2.6-2,5.3-2.9,8c-0.9,2.7-1.8,5.5-2.7,8.3c0,0.1-0.1,0.3-0.1,0.4
			c0,0.1,0,0.2,0,0.3c0,0.1,0,0.2,0,0.3c0,0.3,0,0.6-0.1,0.9c-0.1,0.3-0.3,0.8-0.5,1.3c0,0.1-0.1,0.1-0.2,0.1c-0.1,0-0.2,0-0.3,0
			c-0.1,0-0.2,0-0.3,0.1c-0.1,0.1-0.1,0.2-0.2,0.3c-0.1,0.2-0.2,0.3-0.3,0.3c-0.1,0-0.2-0.1-0.3-0.2c0-0.1-0.2-0.2-0.3-0.2
			c-0.2,0-0.4-0.1-0.6-0.3c-0.2-0.2-0.4-0.3-0.5-0.3c-0.1,0-0.2-0.1-0.2-0.2c0,0,0-0.2,0.1-0.4c0-0.2,0.1-0.5,0.2-0.8
			c0.1-0.3,0.1-0.6,0.2-0.9c0.1-0.3,0.2-0.5,0.2-0.6c0.1-0.1,0.1-0.2,0.2-0.4c0-0.1,0.1-0.3,0.1-0.5c0.4-1.4,0.7-2.8,1.2-4.1
			c0.4-1.3,0.8-2.6,1.3-3.9c0.4-1.3,0.9-2.6,1.3-3.9c0.5-1.3,0.9-2.6,1.3-4c0.1-0.2,0.2-0.5,0.3-0.6c0.1-0.2,0.2-0.4,0.3-0.6
			c0.1-0.2,0.2-0.5,0.4-0.8c0.1-0.3,0.3-0.8,0.5-1.5c0-0.2,0.2-0.3,0.4-0.4c0.3,0,0.6-0.1,1-0.1c0.2,0,0.4,0,0.6,0.1
			C66.7,9,66.9,9,67.1,9.1c0.2,0.1,0.4,0.2,0.5,0.3s0.2,0.3,0.2,0.4C67.9,10.2,67.9,10.4,67.8,10.7z"/>
		<path fill="#FFFFFF" d="M78.3,10.9c-0.3,0.7-0.5,1.3-0.9,1.9c-0.3,0.6-0.7,1.3-1,1.9c-0.3,0.6-0.6,1.2-0.9,1.8
			c-0.1,0.2-0.2,0.4-0.3,0.6c-0.1,0.2-0.2,0.5-0.3,0.7c-0.1,0.2-0.2,0.4-0.2,0.6c0,0.2-0.1,0.3-0.1,0.3c0,0.1,0,0.1,0.1,0.1
			c0,0,0.2,0,0.3,0s0.4-0.1,0.6-0.1c0.8-0.2,1.6-0.4,2.6-0.8c0.9-0.3,1.7-0.7,2.3-1c0.2-0.1,0.3-0.2,0.4-0.2c0.1,0,0.3,0,0.5,0.1
			c0.2,0.1,0.4,0.1,0.6,0.2c0.2,0.1,0.3,0.2,0.5,0.3s0.2,0.2,0.2,0.3c0,0.2-0.1,0.5-0.3,0.7c-0.2,0.3-0.5,0.5-0.9,0.6
			c-0.5,0.2-0.8,0.3-0.9,0.4c-0.1,0.1-0.4,0.2-0.7,0.3c-0.4,0.2-0.9,0.3-1.5,0.5c-0.6,0.2-1.1,0.3-1.7,0.5s-1,0.3-1.5,0.4
			c-0.4,0.1-0.7,0.2-0.9,0.3c-0.3,0.1-0.5,0.3-0.7,0.5c-0.1,0.3-0.3,0.6-0.4,0.9c-0.1,0.3-0.2,0.6-0.3,0.9c0,0.2-0.1,0.4-0.2,0.6
			c-0.1,0.2-0.2,0.4-0.2,0.6c0,0.3-0.2,0.7-0.3,1.2c-0.2,0.5-0.3,1-0.5,1.6c-0.2,0.6-0.3,1.1-0.5,1.7C71.1,30,71,30.5,71,30.9
			c0,0.2-0.1,0.4-0.3,0.8c-0.2,0.4-0.4,0.6-0.6,0.7c-0.1,0-0.2,0.1-0.3,0.1c-0.1,0-0.2,0-0.3,0c-0.2,0-0.5,0-0.7-0.1
			c-0.3-0.1-0.5-0.2-0.6-0.3c-0.3-0.2-0.4-0.5-0.4-0.9c0-0.1,0-0.3,0-0.5c0-0.2,0.1-0.4,0.1-0.6c0.5-1.3,0.9-2.8,1.3-4.2
			c0.4-1.5,0.9-2.9,1.4-4.3c0-0.1,0.1-0.2,0.1-0.3c0-0.1-0.1-0.1-0.2-0.2c-0.3-0.2-0.6-0.3-0.8-0.5c-0.2-0.2-0.4-0.4-0.5-0.6
			c-0.2-0.2-0.3-0.4-0.5-0.6c-0.1-0.2-0.3-0.4-0.5-0.6c-0.1-0.1-0.1-0.1-0.2-0.2c0-0.1,0-0.1,0-0.2c0-0.1,0-0.2,0.1-0.3
			c0.1-0.1,0.2-0.1,0.3-0.2c0.1,0,0.2-0.1,0.3-0.1c0.1,0,0.2-0.1,0.4-0.1c0.4,0,0.8,0.1,1.2,0.3c0.4,0.2,0.8,0.3,1.1,0.3
			c0.3,0,0.5-0.2,0.6-0.5c0.1-0.4,0.3-1,0.6-1.7c0.4-1.1,0.9-2.3,1.4-3.7c0.5-1.3,1-2.7,1.7-4C75.9,8.3,76,8.2,76,8.2
			c0,0,0.1-0.1,0.2-0.1c0.3,0,0.5,0,0.6-0.1C76.9,8,77,7.9,77.2,7.9c0.2,0,0.4,0,0.6,0.1c0.3,0,0.5,0.1,0.7,0.2
			c0.2,0.1,0.3,0.2,0.3,0.3c0,0,0,0.1,0,0.1c0,0,0,0.1,0,0.3C78.7,9.6,78.6,10.2,78.3,10.9z"/>
		<path fill="#FFFFFF" d="M105.8,16.7c0.2,0.1,0.3,0.2,0.5,0.2c0.1,0,0.3,0,0.5,0.1s0.4,0.2,0.5,0.4c0,0.1,0.1,0.1,0.1,0.2
			c0,0.1,0,0.3-0.1,0.4c-0.4,0.6-0.8,1.1-1.2,1.7c-0.4,0.6-0.8,1.2-1.2,1.9c-0.4,0.6-0.7,1.3-1,2c-0.3,0.7-0.6,1.4-0.7,2
			c-0.1,0.5-0.2,1-0.3,1.6c-0.1,0.5-0.2,1.1-0.2,1.6c0,0.5,0.1,0.9,0.2,1.4c0.1,0.5,0.3,0.9,0.6,1.3c0,0.1,0.1,0.2,0.1,0.2
			c0,0,0,0.1-0.1,0.3c-0.1,0.1-0.3,0.2-0.6,0.3c-0.1,0-0.2,0.1-0.3,0.1c-0.1,0-0.2,0.1-0.3,0.1c-0.3,0-0.6-0.1-0.9-0.2
			c-0.3-0.1-0.5-0.3-0.7-0.5c-0.2-0.5-0.4-1-0.5-1.6c-0.1-0.5-0.1-1-0.1-1.5c0-0.6,0-1,0.1-1.3c0-0.3,0.1-0.5,0.1-0.5
			c0-0.1,0-0.2-0.1-0.2c-0.1,0-0.4,0.2-0.9,0.6L97,29c-0.5,0.4-0.9,0.8-1.3,1.1c-0.4,0.3-0.7,0.6-1.1,0.8c-0.3,0.2-0.7,0.4-1,0.5
			s-0.6,0.2-0.9,0.3c-0.1,0-0.2,0.1-0.3,0.1c-0.1,0-0.2,0-0.3,0c-0.1,0-0.2,0-0.3-0.1c-0.1,0-0.3-0.1-0.4-0.2
			c-0.2-0.1-0.4-0.3-0.7-0.5c-0.3-0.2-0.6-0.5-1.1-0.8c-0.1-0.1-0.3-0.3-0.5-0.6c-0.2-0.3-0.3-0.8-0.3-1.5c0-0.6,0.1-1.3,0.4-2.1
			c0.3-0.8,0.9-1.9,1.7-3.2c1.1-1.6,2.1-2.8,3-3.6c0.9-0.8,1.6-1.4,2.2-1.8c1.8-1.3,3.7-2.2,5.8-2.8c0.2-0.1,0.5-0.1,0.8-0.1
			c0.4,0,0.8,0.1,1.2,0.3s0.7,0.4,1,0.8c0.1,0.1,0.2,0.2,0.3,0.3c0.1,0.1,0.2,0.3,0.2,0.4C105.6,16.4,105.7,16.5,105.8,16.7z
			 M102.8,16.7c-0.2,0.1-0.5,0.1-0.7,0.3c-1.7,0.9-3.2,1.9-4.6,2.9c-1.3,1-2.5,2.1-3.5,3.4c-0.4,0.5-0.7,0.9-1.1,1.4
			c-0.3,0.5-0.6,0.9-0.8,1.4c-0.2,0.4-0.4,0.9-0.6,1.2s-0.2,0.7-0.2,1c0,0.2,0,0.4,0.1,0.6c0.1,0.2,0.3,0.3,0.6,0.3
			c0.1,0,0.4-0.1,0.7-0.3c0.3-0.2,0.7-0.4,1-0.7c0.8-0.8,1.7-1.5,2.6-2.2s1.7-1.4,2.5-2.1c0.8-0.7,1.5-1.4,2.2-2.2
			c0.7-0.7,1.3-1.5,1.7-2.4c0.1-0.2,0.3-0.5,0.5-0.7c0.2-0.2,0.4-0.5,0.6-0.6c0.1-0.1,0.2-0.3,0.2-0.5c0-0.1-0.1-0.3-0.2-0.4
			c-0.1-0.2-0.3-0.3-0.6-0.3C103.2,16.6,103,16.7,102.8,16.7z"/>
		<path fill="#FFFFFF" d="M110.4,32.3c-0.3-0.1-0.7-0.3-1.1-0.5c-0.4-0.2-0.8-0.5-1.1-0.8c-0.4-0.3-0.6-0.8-0.7-1.3
			c-0.1-0.4-0.1-0.8-0.1-1.2c0-0.8,0.2-1.7,0.5-2.5c0.3-0.9,0.7-1.8,1.1-2.8c0.4-1,0.9-2.1,1.4-3.3c0.6-1.2,1.2-2.4,1.9-3.7
			c0.7-1.3,1.4-2.5,2.1-3.8c0.7-1.3,1.4-2.5,2.1-3.7c0.1-0.3,0.3-0.6,0.4-0.9c0.1-0.3,0.3-0.7,0.4-1c0.2-0.3,0.3-0.6,0.6-0.8
			c0.2-0.2,0.5-0.3,0.9-0.3c0.3,0,0.5,0,0.6,0c0.2,0,0.3,0,0.5,0c0.2,0,0.4,0,0.5,0.1c0.2,0.1,0.3,0.2,0.4,0.3
			c0.2,0.3,0.3,0.6,0.3,1c0,0.4-0.1,0.9-0.4,1.3c-0.8,1.3-1.7,2.6-2.5,3.9c-0.9,1.3-1.7,2.6-2.5,3.9c-0.8,1.3-1.6,2.6-2.3,3.9
			c-0.7,1.3-1.3,2.7-1.9,4.1c-0.3,0.7-0.6,1.5-0.9,2.2c-0.3,0.7-0.5,1.5-0.5,2.3c0,0.2,0,0.4,0,0.6c0,0.2,0.1,0.4,0.1,0.7
			c0.1,0.3,0.3,0.4,0.7,0.4c0.2,0,0.4,0,0.6-0.1c0.4-0.2,0.8-0.6,1.2-1c0.4-0.5,0.8-0.9,1.3-1.4c0.4-0.4,0.8-0.8,1.3-1.2
			c0.4-0.3,0.9-0.5,1.3-0.5c0.1,0,0.4,0.1,0.7,0.2c0.3,0.1,0.5,0.3,0.5,0.6c0,0.2-0.1,0.4-0.2,0.5c-0.1,0.1-0.3,0.3-0.5,0.5
			c-0.5,0.5-0.9,1-1.3,1.6s-0.9,1.1-1.4,1.5c-0.5,0.5-1,0.8-1.5,1.1c-0.6,0.3-1.2,0.4-1.9,0.4C111,32.4,110.8,32.4,110.4,32.3z"/>
		<path fill="#FFFFFF" d="M120.8,32.3c-0.3-0.1-0.7-0.3-1.1-0.5c-0.4-0.2-0.8-0.5-1.1-0.8c-0.4-0.3-0.6-0.8-0.7-1.3
			c-0.1-0.4-0.1-0.8-0.1-1.2c0-0.8,0.2-1.7,0.5-2.5c0.3-0.9,0.7-1.8,1.1-2.8c0.4-1,0.9-2.1,1.4-3.3c0.6-1.2,1.2-2.4,1.9-3.7
			c0.7-1.3,1.4-2.5,2.1-3.8c0.7-1.3,1.4-2.5,2.1-3.7c0.1-0.3,0.3-0.6,0.4-0.9c0.1-0.3,0.3-0.7,0.4-1c0.2-0.3,0.3-0.6,0.6-0.8
			c0.2-0.2,0.5-0.3,0.9-0.3c0.3,0,0.5,0,0.6,0c0.2,0,0.3,0,0.5,0c0.2,0,0.4,0,0.5,0.1c0.2,0.1,0.3,0.2,0.4,0.3
			c0.2,0.3,0.3,0.6,0.3,1c0,0.4-0.1,0.9-0.4,1.3c-0.8,1.3-1.7,2.6-2.5,3.9c-0.9,1.3-1.7,2.6-2.5,3.9c-0.8,1.3-1.6,2.6-2.3,3.9
			c-0.7,1.3-1.3,2.7-1.9,4.1c-0.3,0.7-0.6,1.5-0.9,2.2c-0.3,0.7-0.5,1.5-0.5,2.3c0,0.2,0,0.4,0,0.6c0,0.2,0.1,0.4,0.1,0.7
			c0.1,0.3,0.3,0.4,0.7,0.4c0.2,0,0.4,0,0.6-0.1c0.4-0.2,0.8-0.6,1.2-1c0.4-0.5,0.8-0.9,1.3-1.4c0.4-0.4,0.8-0.8,1.3-1.2
			c0.4-0.3,0.9-0.5,1.3-0.5c0.1,0,0.4,0.1,0.7,0.2c0.3,0.1,0.5,0.3,0.5,0.6c0,0.2-0.1,0.4-0.2,0.5c-0.1,0.1-0.3,0.3-0.5,0.5
			c-0.5,0.5-0.9,1-1.3,1.6s-0.9,1.1-1.4,1.5c-0.5,0.5-1,0.8-1.5,1.1c-0.6,0.3-1.2,0.4-1.9,0.4C121.4,32.4,121.1,32.4,120.8,32.3z"/>
		<path fill="#FFFFFF" d="M150.2,16.2c0.1,0.5,0.1,0.9,0.1,1.2c0,0.7-0.1,1.3-0.3,1.8c-0.2,0.5-0.5,0.9-0.7,1.2
			c-0.1,0.2-0.2,0.3-0.3,0.3c0,0-0.1,0.1-0.2,0.1c-0.2,0-0.4,0-0.7-0.1c-0.3-0.1-0.5-0.2-0.6-0.3c-0.4-0.3-0.5-0.7-0.5-1.2
			c0-0.1,0-0.2,0.1-0.3c0.2-0.3,0.3-0.5,0.4-0.8c0.1-0.3,0.2-0.6,0.2-0.9c0-0.1,0-0.3-0.1-0.5c0-0.2-0.1-0.3-0.2-0.5
			c-0.1-0.1-0.2-0.2-0.3-0.3s-0.3-0.2-0.4-0.2c-0.1,0-0.2,0.1-0.4,0.3c-0.2,0.2-0.4,0.5-0.6,0.9s-0.5,0.8-0.7,1.2
			c-0.2,0.4-0.4,0.9-0.4,1.3c0,0.1,0,0.3-0.1,0.4c0,0.1,0,0.3,0,0.5c0,0,0,0.2,0,0.4c0,0.2,0,0.4,0.1,0.7s0,0.5,0.1,0.7
			c0,0.2,0,0.4,0.1,0.5c0.1,0.7,0.2,1.4,0.3,2.2c0.1,0.8,0.3,1.6,0.4,2.4c0.1,0.8,0.2,1.5,0.3,2.1s0.1,1.2,0.1,1.5
			c0,0.2-0.1,0.5-0.3,0.6c-0.3,0.3-0.7,0.6-1,0.9c-0.4,0.3-0.8,0.4-1.3,0.4c-0.4,0-0.7,0-0.9-0.1c-1.2-0.5-2.2-1.2-3.1-2
			c-0.9-0.9-1.6-1.8-2.2-2.8c0-0.1-0.1-0.2-0.1-0.3c0-0.1-0.1-0.2-0.1-0.2c0-0.3,0.1-0.6,0.4-0.9c0.2-0.3,0.6-0.5,0.9-0.5
			c0.4,0,0.6,0,0.8,0.1c0.2,0.1,0.4,0.2,0.5,0.4c0.2,0.3,0.4,0.6,0.6,0.9c0.2,0.3,0.3,0.6,0.5,0.9c0.2,0.3,0.4,0.6,0.6,0.9
			c0.2,0.3,0.4,0.6,0.7,0.8c0.2,0.2,0.3,0.3,0.4,0.3c0.1,0,0.2,0.1,0.3,0.1c0.2,0,0.4-0.1,0.4-0.3c0-0.1,0-0.2,0-0.3
			s-0.1-0.4-0.2-0.8c-0.1-0.6-0.3-1.3-0.4-2.2c-0.1-0.9-0.3-1.8-0.4-2.6c-0.1-0.9-0.2-1.6-0.3-2.3c-0.1-0.7-0.1-1.1-0.1-1.3
			c0-0.2,0-0.5,0.1-0.9c0-0.4,0.1-0.7,0.2-1.2c0.1-0.4,0.2-0.8,0.4-1.2c0.2-0.4,0.4-0.8,0.6-1.1c0.5-0.8,1.1-1.4,1.7-1.8
			c0.6-0.3,1.1-0.5,1.5-0.5c1,0,1.7,0.1,2.2,0.4c0.5,0.2,0.9,0.6,1.3,0.9C149.9,15.4,150.1,15.7,150.2,16.2z"/>
		<path fill="#FFFFFF" d="M161.7,10.9c-0.3,0.7-0.5,1.3-0.9,1.9c-0.3,0.6-0.7,1.3-1,1.9c-0.3,0.6-0.6,1.2-0.9,1.8
			c-0.1,0.2-0.2,0.4-0.3,0.6c-0.1,0.2-0.2,0.5-0.3,0.7c-0.1,0.2-0.2,0.4-0.2,0.6c0,0.2-0.1,0.3-0.1,0.3c0,0.1,0,0.1,0.1,0.1
			c0,0,0.2,0,0.3,0s0.4-0.1,0.6-0.1c0.8-0.2,1.6-0.4,2.6-0.8c0.9-0.3,1.7-0.7,2.3-1c0.2-0.1,0.3-0.2,0.4-0.2c0.1,0,0.3,0,0.5,0.1
			c0.2,0.1,0.4,0.1,0.6,0.2c0.2,0.1,0.3,0.2,0.5,0.3s0.2,0.2,0.2,0.3c0,0.2-0.1,0.5-0.3,0.7c-0.2,0.3-0.5,0.5-0.9,0.6
			c-0.5,0.2-0.8,0.3-0.9,0.4c-0.1,0.1-0.4,0.2-0.7,0.3c-0.4,0.2-0.9,0.3-1.5,0.5c-0.6,0.2-1.1,0.3-1.7,0.5s-1,0.3-1.5,0.4
			c-0.4,0.1-0.7,0.2-0.9,0.3c-0.3,0.1-0.5,0.3-0.7,0.5c-0.1,0.3-0.3,0.6-0.4,0.9c-0.1,0.3-0.2,0.6-0.3,0.9c0,0.2-0.1,0.4-0.2,0.6
			c-0.1,0.2-0.2,0.4-0.2,0.6c0,0.3-0.2,0.7-0.3,1.2c-0.2,0.5-0.3,1-0.5,1.6c-0.2,0.6-0.3,1.1-0.5,1.7c-0.2,0.6-0.3,1.1-0.3,1.5
			c0,0.2-0.1,0.4-0.3,0.8c-0.2,0.4-0.4,0.6-0.6,0.7c-0.1,0-0.2,0.1-0.3,0.1c-0.1,0-0.2,0-0.3,0c-0.2,0-0.5,0-0.7-0.1
			c-0.3-0.1-0.5-0.2-0.6-0.3c-0.3-0.2-0.4-0.5-0.4-0.9c0-0.1,0-0.3,0-0.5c0-0.2,0.1-0.4,0.1-0.6c0.5-1.3,0.9-2.8,1.3-4.2
			c0.4-1.5,0.9-2.9,1.4-4.3c0-0.1,0.1-0.2,0.1-0.3c0-0.1-0.1-0.1-0.2-0.2c-0.3-0.2-0.6-0.3-0.8-0.5c-0.2-0.2-0.4-0.4-0.5-0.6
			c-0.2-0.2-0.3-0.4-0.5-0.6c-0.1-0.2-0.3-0.4-0.5-0.6c-0.1-0.1-0.1-0.1-0.2-0.2c0-0.1,0-0.1,0-0.2c0-0.1,0-0.2,0.1-0.3
			c0.1-0.1,0.2-0.1,0.3-0.2c0.1,0,0.2-0.1,0.3-0.1c0.1,0,0.2-0.1,0.4-0.1c0.4,0,0.8,0.1,1.2,0.3c0.4,0.2,0.8,0.3,1.1,0.3
			c0.3,0,0.5-0.2,0.6-0.5c0.1-0.4,0.3-1,0.6-1.7c0.4-1.1,0.9-2.3,1.4-3.7c0.5-1.3,1-2.7,1.7-4c0.1-0.2,0.2-0.4,0.2-0.4
			c0,0,0.1-0.1,0.2-0.1c0.3,0,0.5,0,0.6-0.1c0.1-0.1,0.2-0.1,0.4-0.1c0.2,0,0.4,0,0.6,0.1c0.3,0,0.5,0.1,0.7,0.2
			c0.2,0.1,0.3,0.2,0.3,0.3c0,0,0,0.1,0,0.1c0,0,0,0.1,0,0.3C162.1,9.6,161.9,10.2,161.7,10.9z"/>
		<path fill="#FFFFFF" d="M179.5,16.7c0.2,0.1,0.3,0.2,0.5,0.2c0.1,0,0.3,0,0.5,0.1s0.4,0.2,0.5,0.4c0,0.1,0.1,0.1,0.1,0.2
			c0,0.1,0,0.3-0.1,0.4c-0.4,0.6-0.8,1.1-1.2,1.7c-0.4,0.6-0.8,1.2-1.2,1.9c-0.4,0.6-0.7,1.3-1,2c-0.3,0.7-0.6,1.4-0.7,2
			c-0.1,0.5-0.2,1-0.3,1.6c-0.1,0.5-0.2,1.1-0.2,1.6c0,0.5,0.1,0.9,0.2,1.4c0.1,0.5,0.3,0.9,0.6,1.3c0,0.1,0.1,0.2,0.1,0.2
			c0,0,0,0.1-0.1,0.3c-0.1,0.1-0.3,0.2-0.6,0.3c-0.1,0-0.2,0.1-0.3,0.1c-0.1,0-0.2,0.1-0.3,0.1c-0.3,0-0.6-0.1-0.9-0.2
			c-0.3-0.1-0.5-0.3-0.7-0.5c-0.2-0.5-0.4-1-0.5-1.6c-0.1-0.5-0.1-1-0.1-1.5c0-0.6,0-1,0.1-1.3c0-0.3,0.1-0.5,0.1-0.5
			c0-0.1,0-0.2-0.1-0.2c-0.1,0-0.4,0.2-0.9,0.6l-1.9,1.8c-0.5,0.4-0.9,0.8-1.3,1.1c-0.4,0.3-0.7,0.6-1.1,0.8c-0.3,0.2-0.7,0.4-1,0.5
			s-0.6,0.2-0.9,0.3c-0.1,0-0.2,0.1-0.3,0.1c-0.1,0-0.2,0-0.3,0c-0.1,0-0.2,0-0.3-0.1c-0.1,0-0.3-0.1-0.4-0.2
			c-0.2-0.1-0.4-0.3-0.7-0.5c-0.3-0.2-0.6-0.5-1.1-0.8c-0.1-0.1-0.3-0.3-0.5-0.6c-0.2-0.3-0.3-0.8-0.3-1.5c0-0.6,0.1-1.3,0.4-2.1
			c0.3-0.8,0.9-1.9,1.7-3.2c1.1-1.6,2.1-2.8,3-3.6c0.9-0.8,1.6-1.4,2.2-1.8c1.8-1.3,3.7-2.2,5.8-2.8c0.2-0.1,0.5-0.1,0.8-0.1
			c0.4,0,0.8,0.1,1.2,0.3s0.7,0.4,1,0.8c0.1,0.1,0.2,0.2,0.3,0.3c0.1,0.1,0.2,0.3,0.2,0.4C179.2,16.4,179.3,16.5,179.5,16.7z
			 M176.4,16.7c-0.2,0.1-0.5,0.1-0.7,0.3c-1.7,0.9-3.2,1.9-4.6,2.9c-1.3,1-2.5,2.1-3.5,3.4c-0.4,0.5-0.7,0.9-1.1,1.4
			c-0.3,0.5-0.6,0.9-0.8,1.4c-0.2,0.4-0.4,0.9-0.6,1.2s-0.2,0.7-0.2,1c0,0.2,0,0.4,0.1,0.6c0.1,0.2,0.3,0.3,0.6,0.3
			c0.1,0,0.4-0.1,0.7-0.3c0.3-0.2,0.7-0.4,1-0.7c0.8-0.8,1.7-1.5,2.6-2.2s1.7-1.4,2.5-2.1c0.8-0.7,1.5-1.4,2.2-2.2
			c0.7-0.7,1.3-1.5,1.7-2.4c0.1-0.2,0.3-0.5,0.5-0.7c0.2-0.2,0.4-0.5,0.6-0.6c0.1-0.1,0.2-0.3,0.2-0.5c0-0.1-0.1-0.3-0.2-0.4
			c-0.1-0.2-0.3-0.3-0.6-0.3C176.8,16.6,176.6,16.7,176.4,16.7z"/>
		<path fill="#FFFFFF" d="M187.3,16.9c0.1,0.3,0.1,0.6,0.1,0.9c0,0.5,0,1-0.2,1.5c0,0.2-0.1,0.4-0.1,0.4c0,0.1,0,0.1,0,0.2
			c0,0.1,0,0.1,0.1,0.1c0.1,0,0.2,0,0.5-0.3c2-1.5,3.7-2.5,5-3c0.1,0,0.3-0.1,0.4-0.1c0.5,0,1,0.1,1.5,0.2c0.5,0.2,0.9,0.4,1.2,0.8
			c0.1,0.1,0.2,0.2,0.2,0.3c0,0.1,0,0.2,0,0.3c0,0.3,0,0.5-0.1,0.7c-0.1,0.2-0.2,0.4-0.4,0.5c-0.1,0.1-0.3,0.2-0.4,0.3
			c-0.1,0.1-0.3,0.1-0.3,0.1c-0.3,0-0.5-0.1-0.8-0.2c-0.3-0.1-0.5-0.2-0.8-0.2c-0.1,0-0.3,0-0.6,0.1c-1,0.5-2,1-2.9,1.7
			s-1.9,1.4-2.7,2.3c-0.8,0.9-1.6,1.9-2.2,3c-0.6,1.1-1.1,2.3-1.4,3.7c-0.1,0.3-0.2,0.6-0.4,0.9s-0.3,0.4-0.4,0.5
			c-0.1,0.1-0.2,0.2-0.3,0.3c-0.1,0-0.2,0.1-0.3,0.1c-0.3,0-0.5-0.1-0.7-0.3c-0.2-0.2-0.3-0.3-0.4-0.5c-0.2-0.2-0.3-0.4-0.5-0.7
			c-0.1-0.3-0.2-0.5-0.2-0.7c0-0.3,0.1-0.6,0.2-0.9c0.2-0.3,0.3-0.6,0.6-0.9c0.2-0.3,0.4-0.6,0.6-1c0.2-0.3,0.4-0.7,0.5-1
			c0.5-1.4,0.9-2.7,1.4-4.1c0.5-1.4,0.8-2.8,1.1-4.2c0-0.2,0-0.3,0.1-0.4c0-0.1,0-0.1,0-0.2c0-0.1,0-0.2-0.1-0.4
			c-0.1-0.1-0.2-0.3-0.2-0.5c0-0.1,0.1-0.3,0.4-0.5c0.3-0.2,0.6-0.3,1-0.3c0.3,0,0.5,0,0.8,0.1c0.2,0.1,0.4,0.2,0.4,0.3
			C187.1,16.3,187.2,16.6,187.3,16.9z"/>
		<path fill="#FFFFFF" d="M205.6,10.9c-0.3,0.7-0.5,1.3-0.9,1.9c-0.3,0.6-0.7,1.3-1,1.9c-0.3,0.6-0.6,1.2-0.9,1.8
			c-0.1,0.2-0.2,0.4-0.3,0.6c-0.1,0.2-0.2,0.5-0.3,0.7c-0.1,0.2-0.2,0.4-0.2,0.6c0,0.2-0.1,0.3-0.1,0.3c0,0.1,0,0.1,0.1,0.1
			c0,0,0.2,0,0.3,0s0.4-0.1,0.6-0.1c0.8-0.2,1.6-0.4,2.6-0.8c0.9-0.3,1.7-0.7,2.3-1c0.2-0.1,0.3-0.2,0.4-0.2c0.1,0,0.3,0,0.5,0.1
			c0.2,0.1,0.4,0.1,0.6,0.2c0.2,0.1,0.3,0.2,0.5,0.3s0.2,0.2,0.2,0.3c0,0.2-0.1,0.5-0.3,0.7c-0.2,0.3-0.5,0.5-0.9,0.6
			c-0.5,0.2-0.8,0.3-0.9,0.4c-0.1,0.1-0.4,0.2-0.7,0.3c-0.4,0.2-0.9,0.3-1.5,0.5c-0.6,0.2-1.1,0.3-1.7,0.5s-1,0.3-1.5,0.4
			c-0.4,0.1-0.7,0.2-0.9,0.3c-0.3,0.1-0.5,0.3-0.7,0.5c-0.1,0.3-0.3,0.6-0.4,0.9c-0.1,0.3-0.2,0.6-0.3,0.9c0,0.2-0.1,0.4-0.2,0.6
			c-0.1,0.2-0.2,0.4-0.2,0.6c0,0.3-0.2,0.7-0.3,1.2c-0.2,0.5-0.3,1-0.5,1.6c-0.2,0.6-0.3,1.1-0.5,1.7c-0.2,0.6-0.3,1.1-0.3,1.5
			c0,0.2-0.1,0.4-0.3,0.8c-0.2,0.4-0.4,0.6-0.6,0.7c-0.1,0-0.2,0.1-0.3,0.1c-0.1,0-0.2,0-0.3,0c-0.2,0-0.5,0-0.7-0.1
			c-0.3-0.1-0.5-0.2-0.6-0.3c-0.3-0.2-0.4-0.5-0.4-0.9c0-0.1,0-0.3,0-0.5c0-0.2,0.1-0.4,0.1-0.6c0.5-1.3,0.9-2.8,1.3-4.2
			c0.4-1.5,0.9-2.9,1.4-4.3c0-0.1,0.1-0.2,0.1-0.3c0-0.1-0.1-0.1-0.2-0.2c-0.3-0.2-0.6-0.3-0.8-0.5c-0.2-0.2-0.4-0.4-0.5-0.6
			c-0.2-0.2-0.3-0.4-0.5-0.6c-0.1-0.2-0.3-0.4-0.5-0.6c-0.1-0.1-0.1-0.1-0.2-0.2c0-0.1,0-0.1,0-0.2c0-0.1,0-0.2,0.1-0.3
			c0.1-0.1,0.2-0.1,0.3-0.2c0.1,0,0.2-0.1,0.3-0.1c0.1,0,0.2-0.1,0.4-0.1c0.4,0,0.8,0.1,1.2,0.3c0.4,0.2,0.8,0.3,1.1,0.3
			c0.3,0,0.5-0.2,0.6-0.5c0.1-0.4,0.3-1,0.6-1.7c0.4-1.1,0.9-2.3,1.4-3.7c0.5-1.3,1-2.7,1.7-4c0.1-0.2,0.2-0.4,0.2-0.4
			c0,0,0.1-0.1,0.2-0.1c0.3,0,0.5,0,0.6-0.1c0.1-0.1,0.2-0.1,0.4-0.1c0.2,0,0.4,0,0.6,0.1c0.3,0,0.5,0.1,0.7,0.2
			c0.2,0.1,0.3,0.2,0.3,0.3c0,0,0,0.1,0,0.1c0,0,0,0.1,0,0.3C206,9.6,205.8,10.2,205.6,10.9z"/>
		<path fill="#FFFFFF" d="M218.7,16.2c0.1,0.5,0.1,0.9,0.1,1.2c0,0.7-0.1,1.3-0.3,1.8c-0.2,0.5-0.5,0.9-0.7,1.2
			c-0.1,0.2-0.2,0.3-0.3,0.3c0,0-0.1,0.1-0.2,0.1c-0.2,0-0.4,0-0.7-0.1c-0.3-0.1-0.5-0.2-0.6-0.3c-0.4-0.3-0.5-0.7-0.5-1.2
			c0-0.1,0-0.2,0.1-0.3c0.2-0.3,0.3-0.5,0.4-0.8c0.1-0.3,0.2-0.6,0.2-0.9c0-0.1,0-0.3-0.1-0.5c0-0.2-0.1-0.3-0.2-0.5
			c-0.1-0.1-0.2-0.2-0.3-0.3s-0.3-0.2-0.4-0.2c-0.1,0-0.2,0.1-0.4,0.3c-0.2,0.2-0.4,0.5-0.6,0.9s-0.5,0.8-0.7,1.2
			c-0.2,0.4-0.4,0.9-0.4,1.3c0,0.1,0,0.3-0.1,0.4c0,0.1,0,0.3,0,0.5c0,0,0,0.2,0,0.4c0,0.2,0,0.4,0.1,0.7s0,0.5,0.1,0.7
			c0,0.2,0,0.4,0.1,0.5c0.1,0.7,0.2,1.4,0.3,2.2c0.1,0.8,0.3,1.6,0.4,2.4c0.1,0.8,0.2,1.5,0.3,2.1s0.1,1.2,0.1,1.5
			c0,0.2-0.1,0.5-0.3,0.6c-0.3,0.3-0.7,0.6-1,0.9c-0.4,0.3-0.8,0.4-1.3,0.4c-0.4,0-0.7,0-0.9-0.1c-1.2-0.5-2.2-1.2-3.1-2
			c-0.9-0.9-1.6-1.8-2.2-2.8c0-0.1-0.1-0.2-0.1-0.3c0-0.1-0.1-0.2-0.1-0.2c0-0.3,0.1-0.6,0.4-0.9c0.2-0.3,0.6-0.5,0.9-0.5
			c0.4,0,0.6,0,0.8,0.1c0.2,0.1,0.4,0.2,0.5,0.4c0.2,0.3,0.4,0.6,0.6,0.9c0.2,0.3,0.3,0.6,0.5,0.9c0.2,0.3,0.4,0.6,0.6,0.9
			c0.2,0.3,0.4,0.6,0.7,0.8c0.2,0.2,0.3,0.3,0.4,0.3c0.1,0,0.2,0.1,0.3,0.1c0.2,0,0.4-0.1,0.4-0.3c0-0.1,0-0.2,0-0.3
			s-0.1-0.4-0.2-0.8c-0.1-0.6-0.3-1.3-0.4-2.2c-0.1-0.9-0.3-1.8-0.4-2.6c-0.1-0.9-0.2-1.6-0.3-2.3c-0.1-0.7-0.1-1.1-0.1-1.3
			c0-0.2,0-0.5,0.1-0.9c0-0.4,0.1-0.7,0.2-1.2c0.1-0.4,0.2-0.8,0.4-1.2c0.2-0.4,0.4-0.8,0.6-1.1c0.5-0.8,1.1-1.4,1.7-1.8
			c0.6-0.3,1.1-0.5,1.5-0.5c1,0,1.7,0.1,2.2,0.4c0.5,0.2,0.9,0.6,1.3,0.9C218.5,15.4,218.6,15.7,218.7,16.2z"/>
		<path fill="#FFFFFF" d="M238,15.5c-0.1,0.1-0.1,0.2-0.2,0.4c-0.1,0.2-0.2,0.4-0.3,0.6c-0.1,0.2-0.1,0.4-0.2,0.5
			c-0.7,1.7-1.4,3.5-1.9,5.2c-0.6,1.7-1.1,3.5-1.7,5.3c-0.1,0.3-0.1,0.5-0.1,0.6c0,0.1,0,0.1,0.1,0.1c0,0,0.1,0,0.1,0
			c0,0,0.1-0.1,0.2-0.2c0.1-0.1,0.2-0.2,0.4-0.4c0.2-0.2,0.4-0.4,0.6-0.7c1.1-1.3,2.1-2.6,3.1-4c0.9-1.4,1.7-2.8,2.3-4.3
			c0.1-0.2,0.2-0.4,0.4-0.4c0.2-0.1,0.3-0.1,0.5-0.1c0.2,0,0.3,0,0.5,0c0.1,0,0.2,0,0.4,0c0.3,0,0.5,0.1,0.8,0.3
			c0.2,0.2,0.4,0.5,0.4,0.7s-0.1,0.6-0.2,0.9c-0.2,0.3-0.5,0.9-1,1.7c-0.3,0.4-0.4,0.8-0.5,1.1c-0.1,0.3-0.2,0.5-0.3,0.7
			c-0.4,0.9-0.7,1.8-1,2.8c-0.2,1-0.4,2-0.4,3c0,0.2,0.1,0.4,0.2,0.5s0.3,0.2,0.3,0.2c0.1,0,0.3-0.1,0.6-0.2s0.6-0.4,0.9-0.8
			c0.5-0.7,1-1.4,1.3-2.2s0.6-1.6,0.8-2.3c0.2-0.7,0.3-1.3,0.4-1.8c0.1-0.5,0.1-0.8,0.1-0.9c0-0.3,0-0.5,0.1-0.7
			c0.1-0.2,0.1-0.4,0.1-0.6c0-0.5-0.1-1-0.4-1.5c-0.2-0.5-0.4-1-0.4-1.4c0-0.1,0-0.3,0.1-0.4c0-0.2,0.2-0.3,0.3-0.4
			c0.1-0.1,0.3-0.1,0.7-0.2c0.4,0,0.6-0.1,0.8-0.1c0.1,0,0.2,0,0.3,0c0.1,0,0.1,0.1,0.2,0.1c0.1,0.1,0.2,0.2,0.3,0.3
			c0.1,0.1,0.3,0.3,0.6,0.4c0.3,0.2,0.7,0.4,1,0.4c0.4,0.1,0.9,0.1,1.7,0.1c0.8,0,1.5-0.1,2.3-0.2c0.8-0.1,1.6-0.2,2.5-0.2
			c0.2,0,0.3,0,0.5,0.1c0.2,0.1,0.3,0.4,0.3,0.9c0,0.5-0.6,0.9-1.7,1.1c-0.6,0.1-1.1,0.3-1.4,0.4c-0.4,0.1-0.7,0.2-1,0.3
			c-0.3,0.1-0.6,0.2-0.8,0.2c-0.2,0-0.5,0.1-0.8,0.1c-0.8,0-1.3,0-1.6-0.1c-0.3-0.1-0.5-0.1-0.7-0.1c-0.2,0-0.3,0.2-0.3,0.5
			c0,0.2,0,0.4,0,0.7s0,0.6,0,0.8c-0.1,1.8-0.5,3.5-1.2,5.2c-0.7,1.7-1.7,3.2-3,4.4c-0.2,0.2-0.4,0.3-0.6,0.4
			c-0.2,0.1-0.5,0.2-1,0.2c-0.5,0-1-0.1-1.5-0.3c-0.5-0.2-1.1-0.4-1.5-0.7c-0.2-0.1-0.4-0.3-0.7-0.6c-0.2-0.3-0.3-0.6-0.3-1
			c0-0.3,0-0.6,0.1-0.8c0-0.2,0.1-0.4,0.1-0.6c0-0.2,0-0.3-0.1-0.3s-0.3,0.2-0.6,0.5c-0.3,0.3-0.5,0.6-0.8,0.9
			c-0.2,0.3-0.5,0.6-0.7,0.9c-0.3,0.3-0.5,0.5-0.8,0.6c-0.3,0.2-0.6,0.3-1,0.3c-0.3,0-0.5-0.1-0.6-0.2c-0.1-0.1-0.4-0.2-0.9-0.4
			c-0.3-0.1-0.5-0.3-0.7-0.4c-0.2-0.1-0.3-0.3-0.4-0.3c0-0.1-0.1-0.2-0.2-0.4c-0.1-0.2-0.1-0.4-0.1-0.6c0-0.2,0-0.4,0-0.5
			c0-0.2,0.1-0.3,0.1-0.4c0.3-1.1,0.6-2.2,1-3.2c0.4-1.1,0.8-2.1,1.2-3.2c0.4-1.1,0.7-2.1,1.1-3.2c0.3-1.1,0.6-2.1,0.7-3.2
			c0-0.1,0.1-0.3,0.3-0.4c0.2-0.1,0.3-0.2,0.4-0.3c0.2,0,0.3-0.1,0.5-0.1c0.1,0,0.3,0,0.4,0c0.2,0,0.4,0,0.5,0c0.1,0,0.3,0,0.5,0
			c0.1,0,0.3,0.1,0.5,0.2c0.2,0.2,0.3,0.4,0.3,0.6C238.1,15.3,238,15.4,238,15.5z"/>
		<path fill="#FFFFFF" d="M259.9,30.6c-0.4,0.3-0.9,0.7-1.5,1.1c-0.6,0.4-1.4,0.6-2.2,0.6c-0.3,0-0.5-0.1-0.8-0.3
			c-0.3-0.2-0.5-0.4-0.8-0.7c-0.3-0.3-0.5-0.6-0.7-0.9c-0.2-0.3-0.3-0.7-0.4-1c-0.1-0.3-0.1-0.5-0.1-0.8c0-0.2,0-0.5,0-0.8
			c0-0.5,0-0.9,0.1-1.3s0.2-1,0.5-1.6c0.1-0.3,0.2-0.7,0.3-1c0.1-0.3,0.2-0.6,0.3-0.8c0.6-1.3,1.1-2.6,1.7-3.9
			c0.6-1.3,1.2-2.7,1.8-4.1c0.2-0.4,0.5-0.6,0.8-0.8c0.3-0.1,0.7-0.2,1-0.2c0.2,0,0.4,0,0.6,0.1c0.2,0,0.4,0.1,0.5,0.2
			c0.1,0.1,0.2,0.1,0.2,0.2c0,0.1,0.1,0.2,0.1,0.4c0,0.5-0.1,0.9-0.3,1.3c-0.2,0.4-0.4,0.7-0.6,1.1c-0.2,0.3-0.5,0.7-0.7,1
			c-0.3,0.4-0.5,0.8-0.7,1.2c-0.1,0.3-0.3,0.7-0.5,1.2c-0.2,0.4-0.4,0.9-0.6,1.4c-0.2,0.5-0.4,0.9-0.6,1.4c-0.2,0.4-0.3,0.8-0.5,1.2
			c-0.3,0.8-0.5,1.5-0.7,2.2c-0.1,0.6-0.2,1.1-0.2,1.4c0,0.2,0,0.4,0.1,0.7c0.1,0.3,0.2,0.4,0.6,0.4c0.2,0,0.4,0,0.5-0.1
			c0.2,0,0.3-0.1,0.5-0.2c0.2-0.1,0.4-0.2,0.6-0.4c0.2-0.2,0.5-0.4,0.9-0.6c0.4-0.3,0.8-0.5,1-0.6c0.2-0.1,0.5-0.2,0.7-0.2
			c0.1,0,0.3,0,0.5,0.1c0.2,0,0.3,0.1,0.4,0.2c0.1,0.1,0.2,0.2,0.2,0.3c0,0.1,0,0.2,0,0.2c0,0.2-0.1,0.4-0.2,0.5s-0.3,0.3-0.4,0.4
			L259.9,30.6z M264.8,7.5c0,0.2,0.1,0.4,0.1,0.6c0,0.1,0,0.2,0,0.3c0,0.1-0.1,0.2-0.1,0.3c-0.3,0.4-0.7,0.8-1.1,1.2
			c-0.4,0.4-0.8,0.6-1.2,0.6c-0.4,0-0.7-0.1-0.9-0.2c-0.3-0.2-0.4-0.3-0.5-0.5c-0.1-0.2-0.2-0.4-0.2-0.6c0-0.2-0.1-0.4-0.1-0.6
			c0-0.3,0-0.5,0.1-0.8c0.1-0.3,0.2-0.5,0.4-0.7c0.2-0.2,0.4-0.4,0.7-0.5c0.3-0.1,0.6-0.1,1-0.1c0.3,0,0.6,0,0.9,0.1
			c0.3,0.1,0.5,0.2,0.6,0.3C264.6,7.1,264.8,7.3,264.8,7.5z"/>
		<path fill="#FFFFFF" d="M273.3,10.9c-0.3,0.7-0.5,1.3-0.9,1.9c-0.3,0.6-0.7,1.3-1,1.9c-0.3,0.6-0.6,1.2-0.9,1.8
			c-0.1,0.2-0.2,0.4-0.3,0.6c-0.1,0.2-0.2,0.5-0.3,0.7c-0.1,0.2-0.2,0.4-0.2,0.6c0,0.2-0.1,0.3-0.1,0.3c0,0.1,0,0.1,0.1,0.1
			c0,0,0.2,0,0.3,0s0.4-0.1,0.6-0.1c0.8-0.2,1.6-0.4,2.6-0.8c0.9-0.3,1.7-0.7,2.3-1c0.2-0.1,0.3-0.2,0.4-0.2c0.1,0,0.3,0,0.5,0.1
			c0.2,0.1,0.4,0.1,0.6,0.2c0.2,0.1,0.3,0.2,0.5,0.3s0.2,0.2,0.2,0.3c0,0.2-0.1,0.5-0.3,0.7c-0.2,0.3-0.5,0.5-0.9,0.6
			c-0.5,0.2-0.8,0.3-0.9,0.4c-0.1,0.1-0.4,0.2-0.7,0.3c-0.4,0.2-0.9,0.3-1.5,0.5c-0.6,0.2-1.1,0.3-1.7,0.5s-1,0.3-1.5,0.4
			c-0.4,0.1-0.7,0.2-0.9,0.3c-0.3,0.1-0.5,0.3-0.7,0.5c-0.1,0.3-0.3,0.6-0.4,0.9c-0.1,0.3-0.2,0.6-0.3,0.9c0,0.2-0.1,0.4-0.2,0.6
			c-0.1,0.2-0.2,0.4-0.2,0.6c0,0.3-0.2,0.7-0.3,1.2c-0.2,0.5-0.3,1-0.5,1.6c-0.2,0.6-0.3,1.1-0.5,1.7c-0.2,0.6-0.3,1.1-0.3,1.5
			c0,0.2-0.1,0.4-0.3,0.8c-0.2,0.4-0.4,0.6-0.6,0.7c-0.1,0-0.2,0.1-0.3,0.1c-0.1,0-0.2,0-0.3,0c-0.2,0-0.5,0-0.7-0.1
			c-0.3-0.1-0.5-0.2-0.6-0.3c-0.3-0.2-0.4-0.5-0.4-0.9c0-0.1,0-0.3,0-0.5c0-0.2,0.1-0.4,0.1-0.6c0.5-1.3,0.9-2.8,1.3-4.2
			c0.4-1.5,0.9-2.9,1.4-4.3c0-0.1,0.1-0.2,0.1-0.3c0-0.1-0.1-0.1-0.2-0.2c-0.3-0.2-0.6-0.3-0.8-0.5c-0.2-0.2-0.4-0.4-0.5-0.6
			c-0.2-0.2-0.3-0.4-0.5-0.6c-0.1-0.2-0.3-0.4-0.5-0.6c-0.1-0.1-0.1-0.1-0.2-0.2c0-0.1,0-0.1,0-0.2c0-0.1,0-0.2,0.1-0.3
			c0.1-0.1,0.2-0.1,0.3-0.2c0.1,0,0.2-0.1,0.3-0.1c0.1,0,0.2-0.1,0.4-0.1c0.4,0,0.8,0.1,1.2,0.3c0.4,0.2,0.8,0.3,1.1,0.3
			c0.3,0,0.5-0.2,0.6-0.5c0.1-0.4,0.3-1,0.6-1.7c0.4-1.1,0.9-2.3,1.4-3.7c0.5-1.3,1-2.7,1.7-4c0.1-0.2,0.2-0.4,0.2-0.4
			c0,0,0.1-0.1,0.2-0.1c0.3,0,0.5,0,0.6-0.1c0.1-0.1,0.2-0.1,0.4-0.1c0.2,0,0.4,0,0.6,0.1c0.3,0,0.5,0.1,0.7,0.2
			c0.2,0.1,0.3,0.2,0.3,0.3c0,0,0,0.1,0,0.1c0,0,0,0.1,0,0.3C273.8,9.6,273.6,10.2,273.3,10.9z"/>
		<path fill="#FFFFFF" d="M286.9,32.9c-0.2,0.1-0.4,0.1-0.6,0.1c-0.1,0-0.3,0-0.4,0c-0.1,0-0.4-0.1-0.6-0.2
			c-0.7-0.3-1.2-0.7-1.5-1.2c-0.3-0.6-0.4-1.3-0.4-2.2c0-1.2,0.2-2.5,0.7-4c0.2-0.8,0.5-1.5,0.7-2.1c0.2-0.6,0.4-1.1,0.6-1.7
			c0.1-0.2,0.1-0.4,0.1-0.4c0,0,0-0.1-0.1-0.1c-0.1,0-0.2,0.1-0.5,0.4c-0.6,0.7-1.2,1.5-1.9,2.3c-0.6,0.8-1.2,1.7-1.8,2.5
			c-0.6,0.9-1.2,1.7-1.7,2.5c-0.6,0.8-1.1,1.5-1.7,2.1c-0.1,0.1-0.2,0.2-0.2,0.2c0,0-0.1,0.1-0.2,0.1c-0.2,0.1-0.4,0.2-0.6,0.3
			c-0.2,0.1-0.5,0.1-0.7,0.1c-0.1,0-0.4-0.1-0.8-0.3c-0.4-0.2-0.8-0.4-1.1-0.7c-0.1-0.1-0.1-0.2-0.1-0.4c0-0.2,0-0.3,0.1-0.4
			c0.1-0.1,0.1-0.3,0.2-0.6c0.3-1.4,0.8-2.8,1.3-4.1c0.5-1.3,1.1-2.6,1.7-3.9c0.6-1.3,1.2-2.6,1.9-3.8c0.6-1.3,1.2-2.5,1.8-3.8
			c0.1-0.3,0.3-0.5,0.3-0.7c0.1-0.1,0.2-0.3,0.3-0.5c0.8-1.5,1.6-2.9,2.4-4.3c0.8-1.4,1.6-3,2.5-4.8c0.1-0.2,0.3-0.4,0.4-0.4
			C287,3,287.2,3,287.4,3c0.2,0,0.3,0,0.5,0c0.1,0,0.2,0,0.3,0c0.2,0,0.3,0.1,0.5,0.2c0.2,0.1,0.3,0.2,0.5,0.4
			c0.1,0.1,0.2,0.2,0.3,0.4c0,0.1,0.1,0.3,0.1,0.5c0,0.5-0.2,0.9-0.5,1.3c-0.3,0.4-0.7,0.8-1.2,1.4c-0.2,0.2-0.3,0.4-0.4,0.5
			c-0.1,0.1-0.2,0.3-0.3,0.5c-0.8,1.1-1.6,2.4-2.4,3.8c-0.8,1.4-1.5,2.9-2.2,4.5c-0.7,1.5-1.4,3.1-2.1,4.7c-0.7,1.6-1.4,3.1-2.1,4.5
			c-0.1,0.3-0.2,0.5-0.3,0.6c0,0.1-0.1,0.1-0.1,0.1c0,0,0,0.1,0.1,0.1c0,0,0,0,0.1-0.1c0,0,0.1-0.1,0.2-0.2c1.5-2,2.9-3.9,4.2-5.5
			s2.7-3.1,4-4.6c0.2-0.3,0.4-0.5,0.5-0.6c0.1-0.1,0.3-0.2,0.5-0.3c0.4-0.1,0.6-0.2,0.8-0.2c0.2,0,0.4,0,0.7,0.1
			c0.3,0.1,0.5,0.1,0.6,0.2c0.1,0,0.2,0.1,0.4,0.3c0.1,0.1,0.2,0.3,0.2,0.4c0,0.6-0.1,1.1-0.3,1.5c-0.2,0.5-0.5,0.9-0.7,1.3
			s-0.4,0.8-0.6,1.2c-0.1,0.3-0.2,0.7-0.4,1c-0.5,1.2-0.9,2.4-1.3,3.8c-0.4,1.4-0.6,2.7-0.6,3.9c0,0.9,0.1,1.4,0.3,1.7
			c0.2,0.3,0.4,0.5,0.6,0.6c0.1,0,0.3,0.1,0.4,0.1c0.2,0,0.3,0.1,0.5,0.1c0.2,0,0.3,0.1,0.3,0.3c0,0.1,0,0.1-0.1,0.2
			c0,0.1-0.1,0.2-0.1,0.3c0,0.1-0.1,0.2-0.3,0.3c-0.1,0.1-0.3,0.1-0.4,0.2C287.3,32.8,287.1,32.8,286.9,32.9z"/>
		<path fill="#FFFFFF" d="M318.8,16.7c0.2,0.1,0.3,0.2,0.5,0.2c0.1,0,0.3,0,0.5,0.1c0.2,0,0.4,0.2,0.5,0.4c0,0.1,0.1,0.1,0.1,0.2
			c0,0.1,0,0.3-0.1,0.4c-0.4,0.6-0.8,1.1-1.2,1.7s-0.8,1.2-1.2,1.9c-0.4,0.6-0.7,1.3-1,2c-0.3,0.7-0.6,1.4-0.7,2
			c-0.1,0.5-0.2,1-0.3,1.6c-0.1,0.5-0.2,1.1-0.2,1.6c0,0.5,0.1,0.9,0.2,1.4c0.1,0.5,0.3,0.9,0.6,1.3c0,0.1,0.1,0.2,0.1,0.2
			c0,0,0,0.1-0.1,0.3c-0.1,0.1-0.3,0.2-0.6,0.3c-0.1,0-0.2,0.1-0.3,0.1c-0.1,0-0.2,0.1-0.3,0.1c-0.3,0-0.6-0.1-0.9-0.2
			c-0.3-0.1-0.5-0.3-0.7-0.5c-0.2-0.5-0.4-1-0.5-1.6c-0.1-0.5-0.1-1-0.1-1.5c0-0.6,0-1,0.1-1.3c0-0.3,0.1-0.5,0.1-0.5
			c0-0.1,0-0.2-0.1-0.2c-0.1,0-0.4,0.2-0.9,0.6L310,29c-0.5,0.4-0.9,0.8-1.3,1.1c-0.4,0.3-0.7,0.6-1.1,0.8c-0.3,0.2-0.7,0.4-1,0.5
			s-0.6,0.2-0.9,0.3c-0.1,0-0.2,0.1-0.3,0.1c-0.1,0-0.2,0-0.3,0c-0.1,0-0.2,0-0.3-0.1c-0.1,0-0.3-0.1-0.4-0.2
			c-0.2-0.1-0.4-0.3-0.7-0.5c-0.3-0.2-0.6-0.5-1.1-0.8c-0.1-0.1-0.3-0.3-0.5-0.6c-0.2-0.3-0.3-0.8-0.3-1.5c0-0.6,0.1-1.3,0.4-2.1
			c0.3-0.8,0.9-1.9,1.7-3.2c1.1-1.6,2.1-2.8,3-3.6c0.9-0.8,1.6-1.4,2.2-1.8c1.8-1.3,3.7-2.2,5.8-2.8c0.2-0.1,0.5-0.1,0.8-0.1
			c0.4,0,0.8,0.1,1.2,0.3c0.4,0.2,0.7,0.4,1,0.8c0.1,0.1,0.2,0.2,0.3,0.3c0.1,0.1,0.2,0.3,0.2,0.4C318.5,16.4,318.7,16.5,318.8,16.7
			z M315.7,16.7c-0.2,0.1-0.5,0.1-0.7,0.3c-1.7,0.9-3.2,1.9-4.6,2.9c-1.3,1-2.5,2.1-3.5,3.4c-0.4,0.5-0.7,0.9-1.1,1.4
			c-0.3,0.5-0.6,0.9-0.8,1.4c-0.2,0.4-0.4,0.9-0.6,1.2s-0.2,0.7-0.2,1c0,0.2,0,0.4,0.1,0.6c0.1,0.2,0.3,0.3,0.6,0.3
			c0.1,0,0.4-0.1,0.7-0.3c0.3-0.2,0.7-0.4,1-0.7c0.8-0.8,1.7-1.5,2.6-2.2s1.7-1.4,2.5-2.1c0.8-0.7,1.5-1.4,2.2-2.2
			c0.7-0.7,1.3-1.5,1.7-2.4c0.1-0.2,0.3-0.5,0.5-0.7s0.4-0.5,0.6-0.6c0.1-0.1,0.2-0.3,0.2-0.5c0-0.1-0.1-0.3-0.2-0.4
			c-0.1-0.2-0.3-0.3-0.6-0.3C316.1,16.6,316,16.7,315.7,16.7z"/>
		<path fill="#FFFFFF" d="M343.1,16.2c0.1,0.5,0.1,0.9,0.1,1.2c0,0.7-0.1,1.3-0.3,1.8c-0.2,0.5-0.5,0.9-0.7,1.2
			c-0.1,0.2-0.2,0.3-0.3,0.3c0,0-0.1,0.1-0.2,0.1c-0.2,0-0.4,0-0.7-0.1c-0.3-0.1-0.5-0.2-0.6-0.3c-0.4-0.3-0.5-0.7-0.5-1.2
			c0-0.1,0-0.2,0.1-0.3c0.2-0.3,0.3-0.5,0.4-0.8c0.1-0.3,0.2-0.6,0.2-0.9c0-0.1,0-0.3-0.1-0.5c0-0.2-0.1-0.3-0.2-0.5
			c-0.1-0.1-0.2-0.2-0.3-0.3s-0.3-0.2-0.4-0.2c-0.1,0-0.2,0.1-0.4,0.3c-0.2,0.2-0.4,0.5-0.6,0.9c-0.2,0.4-0.5,0.8-0.7,1.2
			c-0.2,0.4-0.4,0.9-0.4,1.3c0,0.1,0,0.3-0.1,0.4c0,0.1,0,0.3,0,0.5c0,0,0,0.2,0,0.4c0,0.2,0,0.4,0.1,0.7c0,0.3,0,0.5,0.1,0.7
			c0,0.2,0,0.4,0.1,0.5c0.1,0.7,0.2,1.4,0.3,2.2c0.1,0.8,0.3,1.6,0.4,2.4c0.1,0.8,0.2,1.5,0.3,2.1s0.1,1.2,0.1,1.5
			c0,0.2-0.1,0.5-0.3,0.6c-0.3,0.3-0.7,0.6-1,0.9c-0.4,0.3-0.8,0.4-1.3,0.4c-0.4,0-0.7,0-0.9-0.1c-1.2-0.5-2.2-1.2-3.1-2
			c-0.9-0.9-1.6-1.8-2.2-2.8c0-0.1-0.1-0.2-0.1-0.3s-0.1-0.2-0.1-0.2c0-0.3,0.1-0.6,0.4-0.9c0.2-0.3,0.6-0.5,0.9-0.5
			c0.4,0,0.6,0,0.8,0.1c0.2,0.1,0.4,0.2,0.5,0.4c0.2,0.3,0.4,0.6,0.6,0.9c0.2,0.3,0.3,0.6,0.5,0.9c0.2,0.3,0.4,0.6,0.6,0.9
			c0.2,0.3,0.4,0.6,0.7,0.8c0.2,0.2,0.3,0.3,0.4,0.3c0.1,0,0.2,0.1,0.3,0.1c0.2,0,0.4-0.1,0.4-0.3c0-0.1,0-0.2,0-0.3
			c0-0.1-0.1-0.4-0.2-0.8c-0.1-0.6-0.3-1.3-0.4-2.2c-0.1-0.9-0.3-1.8-0.4-2.6c-0.1-0.9-0.2-1.6-0.3-2.3c-0.1-0.7-0.1-1.1-0.1-1.3
			c0-0.2,0-0.5,0.1-0.9c0-0.4,0.1-0.7,0.2-1.2c0.1-0.4,0.2-0.8,0.4-1.2c0.2-0.4,0.4-0.8,0.6-1.1c0.5-0.8,1.1-1.4,1.7-1.8
			c0.6-0.3,1.1-0.5,1.5-0.5c1,0,1.7,0.1,2.2,0.4c0.5,0.2,0.9,0.6,1.3,0.9C342.8,15.4,343,15.7,343.1,16.2z"/>
		<path fill="#FFFFFF" d="M350.4,30.6c-0.4,0.3-0.9,0.7-1.5,1.1s-1.4,0.6-2.2,0.6c-0.3,0-0.5-0.1-0.8-0.3c-0.3-0.2-0.5-0.4-0.8-0.7
			c-0.3-0.3-0.5-0.6-0.7-0.9c-0.2-0.3-0.3-0.7-0.4-1c-0.1-0.3-0.1-0.5-0.1-0.8c0-0.2,0-0.5,0-0.8c0-0.5,0-0.9,0.1-1.3
			c0.1-0.4,0.2-1,0.4-1.6c0.1-0.3,0.2-0.7,0.3-1c0.1-0.3,0.2-0.6,0.3-0.8c0.6-1.3,1.1-2.6,1.7-3.9c0.6-1.3,1.2-2.7,1.8-4.1
			c0.2-0.4,0.5-0.6,0.8-0.8c0.3-0.1,0.7-0.2,1-0.2c0.2,0,0.4,0,0.6,0.1s0.4,0.1,0.5,0.2c0.1,0.1,0.2,0.1,0.2,0.2
			c0,0.1,0.1,0.2,0.1,0.4c0,0.5-0.1,0.9-0.3,1.3c-0.2,0.4-0.4,0.7-0.6,1.1c-0.2,0.3-0.5,0.7-0.7,1c-0.3,0.4-0.5,0.8-0.7,1.2
			c-0.1,0.3-0.3,0.7-0.5,1.2c-0.2,0.4-0.4,0.9-0.6,1.4c-0.2,0.5-0.4,0.9-0.6,1.4c-0.2,0.4-0.3,0.8-0.5,1.2c-0.3,0.8-0.5,1.5-0.7,2.2
			c-0.1,0.6-0.2,1.1-0.2,1.4c0,0.2,0,0.4,0.1,0.7c0.1,0.3,0.2,0.4,0.6,0.4c0.2,0,0.4,0,0.5-0.1c0.2,0,0.3-0.1,0.5-0.2
			c0.2-0.1,0.4-0.2,0.6-0.4c0.2-0.2,0.5-0.4,0.9-0.6c0.4-0.3,0.7-0.5,1-0.6c0.2-0.1,0.4-0.2,0.7-0.2c0.1,0,0.3,0,0.5,0.1
			c0.2,0,0.3,0.1,0.4,0.2c0.1,0.1,0.2,0.2,0.2,0.3c0,0.1,0,0.2,0,0.2c0,0.2-0.1,0.4-0.2,0.5c-0.1,0.1-0.3,0.3-0.4,0.4L350.4,30.6z
			 M355.4,7.5c0,0.2,0.1,0.4,0.1,0.6c0,0.1,0,0.2,0,0.3c0,0.1-0.1,0.2-0.1,0.3c-0.3,0.4-0.7,0.8-1.1,1.2c-0.4,0.4-0.8,0.6-1.2,0.6
			c-0.4,0-0.7-0.1-0.9-0.2s-0.4-0.3-0.5-0.5c-0.1-0.2-0.2-0.4-0.2-0.6c0-0.2-0.1-0.4-0.1-0.6c0-0.3,0-0.5,0.1-0.8
			c0.1-0.3,0.2-0.5,0.4-0.7c0.2-0.2,0.4-0.4,0.7-0.5c0.3-0.1,0.6-0.1,1-0.1c0.3,0,0.6,0,0.9,0.1s0.5,0.2,0.6,0.3
			C355.2,7.1,355.3,7.3,355.4,7.5z"/>
		<path fill="#FFFFFF" d="M361.7,15.4c0,0.1,0,0.3,0,0.4c0,0.1,0,0.3-0.1,0.5c0,0.2-0.2,0.5-0.4,0.8c-1.3,1.8-2.5,3.8-3.6,5.8
			c-1.1,2-1.9,4.1-2.5,6.2c0,0.1,0,0.2,0.1,0.3s0.1,0.1,0.2,0.1s0.2,0,0.4-0.1c1-0.5,1.9-1.1,2.8-1.8s1.7-1.5,2.5-2.4
			c0.8-0.9,1.4-1.8,2-2.8c0.6-1,1.1-2,1.5-3c0.1-0.4,0.4-0.7,0.8-0.9c0.4-0.3,0.9-0.5,1.4-0.5c0.6,0,1.2,0.2,1.7,0.7
			c0.1,0.1,0.1,0.1,0.1,0.1c0,0,0,0.1,0,0.1c0,0.1,0,0.3-0.1,0.5c-0.2,0.4-0.4,0.9-0.6,1.3c-0.3,0.4-0.5,0.8-0.8,1.2
			c-0.3,0.4-0.6,0.8-0.9,1.2c-0.3,0.4-0.6,0.8-0.8,1.3c-0.6,1.2-1,2.1-1.2,2.8c-0.2,0.7-0.3,1.3-0.3,1.7c0,0.1,0,0.2,0.1,0.4
			c0.1,0.1,0.1,0.2,0.2,0.2c0.3,0,0.6-0.1,1-0.3c0.4-0.2,0.8-0.5,1.1-0.9c0.6-0.7,1.3-1.4,2-2c0.7-0.6,1.4-1.3,2.1-1.9
			c0.7-0.7,1.3-1.4,1.9-2.1c0.6-0.7,1-1.6,1.3-2.5c0-0.1,0.1-0.2,0.2-0.4c0.1-0.2,0.2-0.3,0.3-0.5s0.3-0.3,0.5-0.4
			c0.2-0.1,0.4-0.1,0.7-0.1c0.2,0,0.3,0,0.4,0c0.1,0,0.2,0.1,0.2,0.1s0.1,0.1,0.2,0.1c0.1,0,0.2,0,0.3,0.1c0.4,0,0.7,0.1,0.8,0.2
			c0.1,0.1,0.3,0.3,0.4,0.5c0.1,0.2,0.1,0.3,0.1,0.5c0,0.2,0,0.3-0.1,0.4c-0.1,0.1-0.2,0.2-0.3,0.3c-0.1,0.1-0.3,0.2-0.4,0.3
			c-0.1,0.1-0.3,0.3-0.4,0.5c-0.9,1.5-1.5,2.7-1.9,3.7c-0.4,1-0.6,2-0.6,2.9c0,0.6,0.1,1.2,0.3,1.8s0.5,1.2,0.9,1.8
			c0.1,0.1,0.1,0.2,0.2,0.2c0,0,0.1,0.1,0.1,0.1c0.1,0,0.2,0.1,0.3,0.3c0.1,0.1,0.2,0.3,0.2,0.4s-0.1,0.3-0.2,0.4
			c-0.2,0.1-0.4,0.2-0.6,0.2c-0.3,0-0.5,0-0.7-0.1c-0.2-0.1-0.4-0.1-0.7-0.2c-0.2,0-0.4-0.2-0.7-0.5c-0.3-0.3-0.6-0.8-1-1.6
			c-0.2-0.4-0.4-0.9-0.6-1.5c-0.2-0.6-0.3-1.2-0.3-1.7c0-0.1,0-0.2-0.1-0.2c-0.1,0-0.2,0-0.3,0.1c-0.5,0.3-0.9,0.7-1.3,1.2
			c-0.4,0.5-0.9,0.9-1.4,1.4c-0.5,0.4-1,0.8-1.6,1.1c-0.6,0.3-1.2,0.5-1.9,0.5c-0.6,0-1.3-0.1-1.8-0.4c-0.8-0.4-1.2-0.7-1.4-1
			c-0.2-0.3-0.3-0.5-0.3-0.8c0-0.2,0-0.4,0-0.5c0-0.1,0-0.1-0.1-0.1s-0.1,0.1-0.3,0.2c-0.5,0.5-1.1,1-1.8,1.4s-1.3,0.8-1.9,1.1
			c-0.1,0-0.2,0.1-0.3,0.1c-0.1,0-0.2,0.1-0.3,0.1c-0.5,0-1.1-0.1-1.6-0.3c-0.5-0.2-1-0.4-1.4-0.8c-0.1,0-0.1-0.1-0.2-0.2
			c0-0.1-0.1-0.2-0.1-0.3c-0.1-0.6-0.2-1.2-0.2-1.7c0-0.8,0.1-1.6,0.4-2.4c0.3-0.8,0.6-1.5,1-2.2c0.4-0.7,0.8-1.4,1.2-2.1
			c0.4-0.7,0.8-1.4,1.1-2.1c0.2-0.5,0.5-1,0.6-1.3c0.2-0.3,0.3-0.6,0.5-0.8c0.1-0.2,0.3-0.5,0.4-0.7c0.1-0.2,0.3-0.5,0.4-0.9
			c0.1-0.2,0.3-0.4,0.7-0.7c0.4-0.3,0.9-0.4,1.5-0.4c0.4,0,0.8,0.1,1.1,0.3C361.7,15.2,361.7,15.3,361.7,15.4z"/>
		<path fill="#FFFFFF" d="M385.5,17.3c-0.3,0.9-0.5,1.7-0.8,2.6c0,0,0,0.1,0.1,0.1c0.8-0.9,1.6-1.8,2.5-2.6c0.9-0.8,1.7-1.5,2.5-1.9
			c0.2-0.1,0.3-0.2,0.4-0.2c0.1,0,0.1,0,0.2,0c0.5,0,1,0.1,1.6,0.4c0.5,0.3,1,0.5,1.5,0.8c0.2,0.1,0.3,0.3,0.5,0.5
			c0.2,0.2,0.2,0.5,0.2,1c0,0.6,0,1.1-0.1,1.5c0,0.4-0.1,0.7-0.2,1.1c0,0.1-0.1,0.3,0,0.5c0,0.2,0,0.4-0.1,0.7
			c-0.3,0.8-0.6,1.6-0.9,2.4c-0.3,0.9-0.6,1.7-1,2.5c-0.4,0.8-0.9,1.7-1.4,2.4c-0.5,0.8-1.1,1.5-1.8,2.1c-0.1,0.1-0.3,0.2-0.5,0.2
			s-0.4,0-0.5,0c-0.2,0-0.4,0-0.7-0.1c-0.2-0.1-0.5-0.2-0.7-0.3c-0.2-0.1-0.5-0.2-0.6-0.3c-0.2-0.1-0.3-0.2-0.4-0.3
			c-0.5-0.4-0.8-0.8-1.1-1.3c-0.3-0.4-0.5-0.9-0.8-1.4c0-0.1-0.1-0.2-0.2-0.2s-0.2,0.1-0.2,0.2c-0.6,1.1-1,2.1-1.5,3
			s-0.9,1.9-1.2,2.9c-0.4,1-0.7,2-1,3.1c-0.3,1.1-0.6,2.3-1,3.6c-0.1,0.4-0.1,0.7-0.1,1s-0.1,0.4-0.3,0.5c-0.2,0.1-0.5,0.2-0.7,0.2
			c-0.2,0-0.4,0-0.6,0c-0.2,0-0.4,0-0.6-0.1c-0.2-0.1-0.3-0.2-0.5-0.4c-0.1-0.1-0.2-0.2-0.3-0.3c-0.1-0.1-0.2-0.3-0.2-0.5
			c0-0.1,0-0.2,0-0.3c0-0.1,0.1-0.3,0.1-0.5c0.5-1.7,1.2-3.6,2-5.7c0.8-2.1,1.6-4.2,2.4-6.4c0.8-2.2,1.5-4.3,2.2-6.5
			s1.2-4.2,1.5-6.1c0-0.3,0.1-0.5,0.2-0.6c0.1,0,0.1-0.1,0.3-0.1c0.2-0.1,0.4-0.2,0.6-0.3c0.2-0.1,0.5-0.1,0.7-0.1
			c0.3,0,0.6,0.1,0.8,0.2s0.4,0.3,0.4,0.5C385.9,15.6,385.8,16.4,385.5,17.3z M387.5,20.7c-0.9,1.1-1.7,2.2-2.5,3.3
			c-0.1,0.2-0.2,0.4-0.2,0.5c0,0.1,0,0.3,0,0.6c0,0.2,0.1,0.5,0.2,0.9s0.3,0.9,0.5,1.3c0.2,0.4,0.4,0.8,0.7,1.1
			c0.3,0.3,0.5,0.5,0.7,0.5c0.1,0,0.2,0,0.3-0.1c0.3-0.3,0.6-0.7,0.9-1.2c0.3-0.5,0.6-1.1,0.8-1.6c0.3-0.5,0.5-1,0.6-1.5
			c0.2-0.4,0.3-0.7,0.3-0.8c0.3-1,0.6-1.9,0.8-2.6c0.2-0.7,0.3-1.3,0.4-1.8c0.1-0.5,0.1-0.8,0.2-1c0-0.2,0-0.3,0-0.4
			c0-0.1,0-0.1-0.1-0.1c-0.1,0-0.2,0-0.3,0.1C389.5,18.7,388.4,19.6,387.5,20.7z"/>
		<path fill="#FFFFFF" d="M398.6,32.3c-0.3-0.1-0.7-0.3-1.1-0.5s-0.8-0.5-1.1-0.8c-0.4-0.3-0.6-0.8-0.7-1.3
			c-0.1-0.4-0.1-0.8-0.1-1.2c0-0.8,0.2-1.7,0.5-2.5c0.3-0.9,0.7-1.8,1.1-2.8c0.4-1,0.9-2.1,1.4-3.3c0.6-1.2,1.2-2.4,1.8-3.7
			c0.7-1.3,1.4-2.5,2.1-3.8c0.7-1.3,1.4-2.5,2.1-3.7c0.1-0.3,0.3-0.6,0.4-0.9c0.1-0.3,0.3-0.7,0.4-1c0.2-0.3,0.3-0.6,0.6-0.8
			c0.2-0.2,0.5-0.3,0.9-0.3c0.3,0,0.5,0,0.6,0s0.3,0,0.5,0c0.2,0,0.4,0,0.5,0.1c0.2,0.1,0.3,0.2,0.4,0.3c0.2,0.3,0.3,0.6,0.3,1
			c0,0.4-0.1,0.9-0.4,1.3c-0.8,1.3-1.7,2.6-2.5,3.9c-0.9,1.3-1.7,2.6-2.5,3.9c-0.8,1.3-1.6,2.6-2.3,3.9c-0.7,1.3-1.3,2.7-1.9,4.1
			c-0.3,0.7-0.6,1.5-0.9,2.2c-0.3,0.7-0.5,1.5-0.5,2.3c0,0.2,0,0.4,0,0.6c0,0.2,0.1,0.4,0.1,0.7c0.1,0.3,0.3,0.4,0.7,0.4
			c0.2,0,0.4,0,0.6-0.1c0.4-0.2,0.8-0.6,1.2-1c0.4-0.5,0.8-0.9,1.3-1.4c0.4-0.4,0.8-0.8,1.3-1.2c0.4-0.3,0.9-0.5,1.3-0.5
			c0.1,0,0.4,0.1,0.7,0.2c0.3,0.1,0.5,0.3,0.5,0.6c0,0.2-0.1,0.4-0.2,0.5c-0.1,0.1-0.3,0.3-0.5,0.5c-0.5,0.5-0.9,1-1.3,1.6
			s-0.9,1.1-1.3,1.5c-0.5,0.5-1,0.8-1.5,1.1c-0.6,0.3-1.2,0.4-1.9,0.4C399.1,32.4,398.9,32.4,398.6,32.3z"/>
		<path fill="#FFFFFF" d="M412.7,32.2c-0.1,0-0.3,0-0.6,0c-0.2,0-0.4,0-0.6,0c-0.2,0-0.4-0.1-0.7-0.2c-0.2-0.1-0.4-0.2-0.6-0.3
			c-0.2-0.1-0.5-0.2-0.7-0.3c-0.2-0.1-0.4-0.2-0.6-0.3c-0.2-0.1-0.3-0.1-0.4-0.2c-0.4-0.2-0.7-0.5-1-0.9s-0.6-0.9-0.8-1.5
			c-0.1-0.4-0.2-0.8-0.3-1.4c-0.1-0.6-0.1-1-0.1-1.4c0-0.2,0-0.3,0-0.5c0-0.2,0.1-0.4,0.1-0.7c0.5-1.8,1.3-3.6,2.4-5.2
			c1.1-1.6,2.4-3.1,3.7-4.6c0.3-0.3,0.8-0.7,1.5-1.1c0.7-0.4,1.5-0.6,2.4-0.6c0.5,0,0.9,0,1.2,0.1c0.3,0.1,0.6,0.2,1,0.3
			c0.2,0.1,0.4,0.3,0.7,0.6c0.3,0.3,0.4,0.9,0.4,1.6c0,0.5-0.1,0.9-0.3,1.3s-0.4,0.8-0.6,1.3c-0.2,0.4-0.4,0.7-0.5,0.9
			s-0.4,0.5-0.6,0.8c-0.6,0.7-1.3,1.4-1.9,2.1c-0.7,0.7-1.3,1.4-2,2.1c-0.7,0.7-1.4,1.3-2.1,1.9c-0.7,0.6-1.5,1.1-2.2,1.5
			c-0.1,0.1-0.2,0.2-0.2,0.3c0,0.3,0.1,0.6,0.3,0.9c0.2,0.3,0.4,0.5,0.6,0.6c0.4,0.2,0.7,0.3,1.1,0.3c0.3,0,0.6-0.1,1-0.2
			s0.9-0.4,1.8-0.8c0.6-0.3,1.2-0.7,1.7-1.1c0.5-0.4,1-0.8,1.5-1.2c0.5-0.4,1-0.8,1.4-1.2c0.5-0.4,1-0.8,1.5-1.1
			c0.2-0.1,0.3-0.2,0.5-0.2s0.2,0,0.3,0c0.1,0,0.3,0.1,0.5,0.2c0.2,0.1,0.3,0.3,0.3,0.5c0,0.2,0,0.3,0,0.3c0,0,0,0.1,0,0.1
			c0,0.1,0,0.2,0,0.3c0,0.1-0.1,0.2-0.2,0.3c-0.4,0.4-0.8,0.8-1.2,1.2c-0.4,0.4-0.8,0.9-1.4,1.4s-1.2,1.1-2.1,1.7s-1.9,1.3-3.3,2.1
			C413,32.1,412.8,32.2,412.7,32.2z M416.5,16.7c0.1-0.3,0.2-0.5,0.2-0.9c0-0.1,0-0.3,0-0.3c0-0.1-0.1-0.1-0.2-0.1
			c-0.1,0-0.3,0-0.4,0.1c-0.1,0.1-0.2,0.1-0.4,0.2c-0.2,0.1-0.3,0.2-0.4,0.2c-0.1,0-0.2,0.1-0.3,0.3c-0.6,0.5-1.2,1.1-1.7,1.7
			c-0.6,0.6-1.1,1.3-1.7,2c-0.5,0.7-1,1.4-1.4,2.2c-0.4,0.8-0.7,1.5-0.9,2.3c0,0.1,0,0.2,0.1,0.2s0.1,0,0.3-0.1
			c1.1-0.8,2.1-1.7,3-2.6c0.9-0.9,1.7-1.9,2.6-2.9c0.1-0.2,0.2-0.3,0.3-0.4c0.1-0.1,0.1-0.2,0.2-0.3c0-0.1,0.1-0.2,0.1-0.3
			s0.1-0.3,0.3-0.5C416.3,17.2,416.4,16.9,416.5,16.7z"/>
		<path fill="#FFFFFF" d="M442.9,16.2c0.1,0.5,0.1,0.9,0.1,1.2c0,0.7-0.1,1.3-0.3,1.8c-0.2,0.5-0.5,0.9-0.7,1.2
			c-0.1,0.2-0.2,0.3-0.3,0.3c0,0-0.1,0.1-0.2,0.1c-0.2,0-0.4,0-0.7-0.1c-0.3-0.1-0.5-0.2-0.6-0.3c-0.4-0.3-0.5-0.7-0.5-1.2
			c0-0.1,0-0.2,0.1-0.3c0.2-0.3,0.3-0.5,0.4-0.8c0.1-0.3,0.2-0.6,0.2-0.9c0-0.1,0-0.3-0.1-0.5c0-0.2-0.1-0.3-0.2-0.5
			c-0.1-0.1-0.2-0.2-0.3-0.3s-0.3-0.2-0.4-0.2c-0.1,0-0.2,0.1-0.4,0.3c-0.2,0.2-0.4,0.5-0.6,0.9c-0.2,0.4-0.5,0.8-0.7,1.2
			c-0.2,0.4-0.4,0.9-0.4,1.3c0,0.1,0,0.3-0.1,0.4c0,0.1,0,0.3,0,0.5c0,0,0,0.2,0,0.4c0,0.2,0,0.4,0.1,0.7c0,0.3,0,0.5,0.1,0.7
			c0,0.2,0,0.4,0.1,0.5c0.1,0.7,0.2,1.4,0.3,2.2c0.1,0.8,0.3,1.6,0.4,2.4c0.1,0.8,0.2,1.5,0.3,2.1s0.1,1.2,0.1,1.5
			c0,0.2-0.1,0.5-0.3,0.6c-0.3,0.3-0.7,0.6-1,0.9c-0.4,0.3-0.8,0.4-1.3,0.4c-0.4,0-0.7,0-0.9-0.1c-1.2-0.5-2.2-1.2-3.1-2
			c-0.9-0.9-1.6-1.8-2.2-2.8c0-0.1-0.1-0.2-0.1-0.3s-0.1-0.2-0.1-0.2c0-0.3,0.1-0.6,0.4-0.9c0.2-0.3,0.6-0.5,0.9-0.5
			c0.4,0,0.6,0,0.8,0.1c0.2,0.1,0.4,0.2,0.5,0.4c0.2,0.3,0.4,0.6,0.6,0.9c0.2,0.3,0.3,0.6,0.5,0.9c0.2,0.3,0.4,0.6,0.6,0.9
			c0.2,0.3,0.4,0.6,0.7,0.8c0.2,0.2,0.3,0.3,0.4,0.3c0.1,0,0.2,0.1,0.3,0.1c0.2,0,0.4-0.1,0.4-0.3c0-0.1,0-0.2,0-0.3
			c0-0.1-0.1-0.4-0.2-0.8c-0.1-0.6-0.3-1.3-0.4-2.2c-0.1-0.9-0.3-1.8-0.4-2.6c-0.1-0.9-0.2-1.6-0.3-2.3c-0.1-0.7-0.1-1.1-0.1-1.3
			c0-0.2,0-0.5,0.1-0.9c0-0.4,0.1-0.7,0.2-1.2c0.1-0.4,0.2-0.8,0.4-1.2c0.2-0.4,0.4-0.8,0.6-1.1c0.5-0.8,1.1-1.4,1.7-1.8
			c0.6-0.3,1.1-0.5,1.5-0.5c1,0,1.7,0.1,2.2,0.4c0.5,0.2,0.9,0.6,1.3,0.9C442.7,15.4,442.8,15.7,442.9,16.2z"/>
		<path fill="#FFFFFF" d="M450.1,32.2c-0.1,0-0.3,0-0.6,0c-0.2,0-0.4,0-0.6,0c-0.2,0-0.4-0.1-0.7-0.2c-0.2-0.1-0.4-0.2-0.6-0.3
			c-0.2-0.1-0.5-0.2-0.7-0.3c-0.2-0.1-0.4-0.2-0.6-0.3c-0.2-0.1-0.3-0.1-0.4-0.2c-0.4-0.2-0.7-0.5-1-0.9s-0.6-0.9-0.8-1.5
			c-0.1-0.4-0.2-0.8-0.3-1.4c-0.1-0.6-0.1-1-0.1-1.4c0-0.2,0-0.3,0-0.5c0-0.2,0.1-0.4,0.1-0.7c0.5-1.8,1.3-3.6,2.4-5.2
			c1.1-1.6,2.4-3.1,3.7-4.6c0.3-0.3,0.8-0.7,1.5-1.1c0.7-0.4,1.5-0.6,2.4-0.6c0.5,0,0.9,0,1.2,0.1c0.3,0.1,0.6,0.2,1,0.3
			c0.2,0.1,0.4,0.3,0.7,0.6c0.3,0.3,0.4,0.9,0.4,1.6c0,0.5-0.1,0.9-0.3,1.3s-0.4,0.8-0.6,1.3c-0.2,0.4-0.4,0.7-0.5,0.9
			s-0.4,0.5-0.6,0.8c-0.6,0.7-1.3,1.4-1.9,2.1c-0.7,0.7-1.3,1.4-2,2.1c-0.7,0.7-1.4,1.3-2.1,1.9c-0.7,0.6-1.5,1.1-2.2,1.5
			c-0.1,0.1-0.2,0.2-0.2,0.3c0,0.3,0.1,0.6,0.3,0.9c0.2,0.3,0.4,0.5,0.6,0.6c0.4,0.2,0.7,0.3,1.1,0.3c0.3,0,0.6-0.1,1-0.2
			s0.9-0.4,1.8-0.8c0.6-0.3,1.2-0.7,1.7-1.1c0.5-0.4,1-0.8,1.5-1.2c0.5-0.4,1-0.8,1.4-1.2c0.5-0.4,1-0.8,1.5-1.1
			c0.2-0.1,0.3-0.2,0.5-0.2s0.2,0,0.3,0c0.1,0,0.3,0.1,0.5,0.2c0.2,0.1,0.3,0.3,0.3,0.5c0,0.2,0,0.3,0,0.3c0,0,0,0.1,0,0.1
			c0,0.1,0,0.2,0,0.3c0,0.1-0.1,0.2-0.2,0.3c-0.4,0.4-0.8,0.8-1.2,1.2c-0.4,0.4-0.8,0.9-1.4,1.4s-1.2,1.1-2.1,1.7s-1.9,1.3-3.3,2.1
			C450.5,32.1,450.3,32.2,450.1,32.2z M454,16.7c0.1-0.3,0.2-0.5,0.2-0.9c0-0.1,0-0.3,0-0.3c0-0.1-0.1-0.1-0.2-0.1
			c-0.1,0-0.3,0-0.4,0.1c-0.1,0.1-0.2,0.1-0.4,0.2c-0.2,0.1-0.3,0.2-0.4,0.2c-0.1,0-0.2,0.1-0.3,0.3c-0.6,0.5-1.2,1.1-1.7,1.7
			c-0.6,0.6-1.1,1.3-1.7,2c-0.5,0.7-1,1.4-1.4,2.2c-0.4,0.8-0.7,1.5-0.9,2.3c0,0.1,0,0.2,0.1,0.2s0.1,0,0.3-0.1
			c1.1-0.8,2.1-1.7,3-2.6c0.9-0.9,1.7-1.9,2.6-2.9c0.1-0.2,0.2-0.3,0.3-0.4c0.1-0.1,0.1-0.2,0.2-0.3c0-0.1,0.1-0.2,0.1-0.3
			s0.1-0.3,0.3-0.5C453.7,17.2,453.9,16.9,454,16.7z"/>
		<path fill="#FFFFFF" d="M475.4,16.7c0.2,0.1,0.3,0.2,0.5,0.2c0.1,0,0.3,0,0.5,0.1s0.4,0.2,0.5,0.4c0,0.1,0.1,0.1,0.1,0.2
			c0,0.1,0,0.3-0.1,0.4c-0.4,0.6-0.8,1.1-1.2,1.7s-0.8,1.2-1.2,1.9c-0.4,0.6-0.7,1.3-1,2s-0.6,1.4-0.7,2c-0.1,0.5-0.2,1-0.3,1.6
			c-0.1,0.5-0.2,1.1-0.2,1.6c0,0.5,0.1,0.9,0.2,1.4s0.3,0.9,0.6,1.3c0,0.1,0.1,0.2,0.1,0.2c0,0,0,0.1-0.1,0.3
			c-0.1,0.1-0.3,0.2-0.6,0.3c-0.1,0-0.2,0.1-0.3,0.1c-0.1,0-0.2,0.1-0.3,0.1c-0.3,0-0.6-0.1-0.9-0.2c-0.3-0.1-0.5-0.3-0.7-0.5
			c-0.2-0.5-0.4-1-0.5-1.6c-0.1-0.5-0.1-1-0.1-1.5c0-0.6,0-1,0.1-1.3c0-0.3,0.1-0.5,0.1-0.5c0-0.1,0-0.2-0.1-0.2
			c-0.1,0-0.4,0.2-0.9,0.6l-1.9,1.8c-0.5,0.4-0.9,0.8-1.3,1.1c-0.4,0.3-0.7,0.6-1.1,0.8c-0.3,0.2-0.7,0.4-1,0.5
			c-0.3,0.1-0.6,0.2-0.9,0.3c-0.1,0-0.2,0.1-0.3,0.1c-0.1,0-0.2,0-0.3,0c-0.1,0-0.2,0-0.3-0.1c-0.1,0-0.3-0.1-0.5-0.2
			c-0.2-0.1-0.4-0.3-0.7-0.5c-0.3-0.2-0.6-0.5-1.1-0.8c-0.1-0.1-0.3-0.3-0.5-0.6c-0.2-0.3-0.3-0.8-0.3-1.5c0-0.6,0.1-1.3,0.4-2.1
			c0.3-0.8,0.9-1.9,1.7-3.2c1.1-1.6,2.1-2.8,3-3.6s1.6-1.4,2.2-1.8c1.8-1.3,3.7-2.2,5.8-2.8c0.2-0.1,0.5-0.1,0.8-0.1
			c0.4,0,0.8,0.1,1.2,0.3s0.7,0.4,1,0.8c0.1,0.1,0.2,0.2,0.3,0.3c0.1,0.1,0.2,0.3,0.2,0.4C475.2,16.4,475.3,16.5,475.4,16.7z
			 M472.4,16.7c-0.2,0.1-0.5,0.1-0.7,0.3c-1.7,0.9-3.2,1.9-4.6,2.9c-1.3,1-2.5,2.1-3.5,3.4c-0.4,0.5-0.7,0.9-1.1,1.4
			c-0.3,0.5-0.6,0.9-0.8,1.4c-0.2,0.4-0.4,0.9-0.6,1.2s-0.2,0.7-0.2,1c0,0.2,0,0.4,0.1,0.6c0.1,0.2,0.3,0.3,0.6,0.3
			c0.1,0,0.4-0.1,0.7-0.3c0.3-0.2,0.7-0.4,1-0.7c0.8-0.8,1.7-1.5,2.6-2.2c0.9-0.7,1.7-1.4,2.5-2.1c0.8-0.7,1.5-1.4,2.2-2.2
			c0.7-0.7,1.3-1.5,1.7-2.4c0.1-0.2,0.3-0.5,0.5-0.7c0.2-0.2,0.4-0.5,0.6-0.6c0.1-0.1,0.2-0.3,0.2-0.5c0-0.1-0.1-0.3-0.2-0.4
			c-0.1-0.2-0.3-0.3-0.6-0.3C472.7,16.6,472.6,16.7,472.4,16.7z"/>
		<path fill="#FFFFFF" d="M483.3,16.9c0.1,0.3,0.1,0.6,0.1,0.9c0,0.5,0,1-0.2,1.5c0,0.2-0.1,0.4-0.1,0.4c0,0.1,0,0.1,0,0.2
			c0,0.1,0,0.1,0.1,0.1c0.1,0,0.2,0,0.5-0.3c2-1.5,3.7-2.5,5-3c0.1,0,0.3-0.1,0.4-0.1c0.5,0,1,0.1,1.5,0.2c0.5,0.2,0.9,0.4,1.2,0.8
			c0.1,0.1,0.2,0.2,0.2,0.3c0,0.1,0,0.2,0,0.3c0,0.3,0,0.5-0.1,0.7c-0.1,0.2-0.2,0.4-0.4,0.5c-0.1,0.1-0.3,0.2-0.4,0.3
			c-0.1,0.1-0.3,0.1-0.3,0.1c-0.3,0-0.5-0.1-0.8-0.2c-0.3-0.1-0.5-0.2-0.8-0.2c-0.1,0-0.3,0-0.6,0.1c-1,0.5-2,1-2.9,1.7
			c-1,0.6-1.9,1.4-2.7,2.3c-0.8,0.9-1.6,1.9-2.2,3c-0.6,1.1-1.1,2.3-1.4,3.7c-0.1,0.3-0.2,0.6-0.4,0.9c-0.2,0.3-0.3,0.4-0.4,0.5
			c-0.1,0.1-0.2,0.2-0.3,0.3c-0.1,0-0.2,0.1-0.3,0.1c-0.3,0-0.5-0.1-0.7-0.3c-0.2-0.2-0.3-0.3-0.4-0.5c-0.2-0.2-0.3-0.4-0.5-0.7
			c-0.1-0.3-0.2-0.5-0.2-0.7c0-0.3,0.1-0.6,0.2-0.9c0.2-0.3,0.3-0.6,0.6-0.9c0.2-0.3,0.4-0.6,0.6-1c0.2-0.3,0.4-0.7,0.5-1
			c0.5-1.4,0.9-2.7,1.4-4.1c0.5-1.4,0.8-2.8,1.1-4.2c0-0.2,0-0.3,0.1-0.4c0-0.1,0-0.1,0-0.2c0-0.1,0-0.2-0.1-0.4
			c-0.1-0.1-0.2-0.3-0.2-0.5c0-0.1,0.1-0.3,0.4-0.5c0.3-0.2,0.6-0.3,1-0.3c0.3,0,0.5,0,0.8,0.1c0.2,0.1,0.4,0.2,0.4,0.3
			C483.1,16.3,483.2,16.6,483.3,16.9z"/>
		<path fill="#FFFFFF" d="M499.7,26.5c0.4-0.3,0.8-0.6,1.2-0.8c0.4-0.2,0.7-0.4,1.1-0.6c0.3-0.1,0.6-0.2,0.9-0.2
			c0.1,0,0.3,0,0.4,0.1c0.1,0.1,0.3,0.2,0.4,0.3s0.2,0.2,0.3,0.3c0.1,0.1,0.1,0.2,0.1,0.2c0,0.1,0,0.1-0.1,0.2c0,0-0.1,0.1-0.1,0.2
			c0,0.1,0,0.2-0.1,0.3c0,0.1-0.1,0.1-0.2,0.2c-0.6,0.2-1.2,0.6-1.8,1.1c-0.7,0.5-1.4,1-2.1,1.7c-1,0.8-2,1.5-2.8,1.9
			c-0.9,0.5-1.7,0.7-2.5,0.7c-0.5,0-1-0.1-1.4-0.2s-0.8-0.3-1.1-0.5c-0.3-0.2-0.6-0.4-0.8-0.6c-0.2-0.2-0.3-0.3-0.4-0.4
			c-0.3-0.6-0.4-1.1-0.4-1.7c0-0.4,0.1-0.9,0.2-1.3c0.1-0.5,0.3-0.9,0.4-1.4c0-0.1,0.1-0.3,0.2-0.6c0.1-0.3,0.1-0.5,0.3-0.8
			c0.5-0.9,1-1.9,1.5-2.9c0.6-1,1.2-1.9,1.8-2.8c0.6-0.9,1.3-1.7,2-2.4c0.7-0.7,1.4-1.2,2.2-1.6c0.1,0,0.2-0.1,0.3-0.1
			c0.1,0,0.2,0,0.3,0c0.6,0,1.3,0.1,2,0.4c0.7,0.3,1.3,0.6,1.8,1.1c0.1,0.1,0.1,0.1,0.1,0.2c0,0.1,0,0.2,0,0.3c0,0.2,0,0.3,0,0.4
			c0,0.1,0,0.1,0,0.2c0,0.1,0,0.2,0,0.3c0,0.1-0.1,0.3-0.2,0.5c-0.1,0.2-0.3,0.5-0.4,0.8c-0.1,0.3-0.3,0.7-0.4,1
			c-0.1,0.3-0.2,0.7-0.2,1c0,0.1-0.1,0.3-0.2,0.4c-0.1,0.1-0.3,0.2-0.5,0.2c-0.3,0-0.5-0.1-0.7-0.3l-0.9-0.7
			c-0.3-0.2-0.4-0.5-0.4-0.8c0-0.2,0-0.4,0.1-0.6c0.1-0.2,0.2-0.4,0.3-0.6c0.1-0.2,0.2-0.4,0.3-0.5c0.1-0.2,0.1-0.3,0.1-0.5
			c0-0.1,0-0.1-0.1-0.2c0-0.1-0.1-0.1-0.2-0.1c-0.1,0-0.2,0-0.3,0.1c-0.1,0-0.2,0.1-0.3,0.3c-0.8,0.8-1.5,1.7-2.3,2.7
			c-0.8,1-1.5,2.1-2.1,3.1c-0.6,1.1-1.1,2.2-1.5,3.3s-0.6,1.8-0.6,2.2c0,0.2,0.1,0.4,0.2,0.6c0.1,0.1,0.3,0.2,0.4,0.2
			c0.8,0,1.7-0.2,2.5-0.6c0.8-0.4,1.7-1,2.6-1.6C498.9,27.1,499.3,26.8,499.7,26.5z"/>
		<path fill="#FFFFFF" d="M517,32.9c-0.2,0.1-0.4,0.1-0.6,0.1c-0.1,0-0.3,0-0.4,0c-0.1,0-0.4-0.1-0.6-0.2c-0.7-0.3-1.2-0.7-1.5-1.2
			s-0.5-1.3-0.5-2.2c0-1.2,0.2-2.5,0.7-4c0.2-0.8,0.5-1.5,0.7-2.1c0.2-0.6,0.4-1.1,0.6-1.7c0.1-0.2,0.1-0.4,0.1-0.4
			c0,0,0-0.1-0.1-0.1c-0.1,0-0.2,0.1-0.5,0.4c-0.6,0.7-1.2,1.5-1.9,2.3c-0.6,0.8-1.2,1.7-1.8,2.5c-0.6,0.9-1.2,1.7-1.7,2.5
			c-0.6,0.8-1.1,1.5-1.7,2.1c-0.1,0.1-0.2,0.2-0.2,0.2c0,0-0.1,0.1-0.2,0.1c-0.2,0.1-0.4,0.2-0.6,0.3c-0.2,0.1-0.5,0.1-0.7,0.1
			c-0.1,0-0.4-0.1-0.8-0.3c-0.4-0.2-0.8-0.4-1.1-0.7c-0.1-0.1-0.1-0.2-0.1-0.4c0-0.2,0-0.3,0.1-0.4c0.1-0.1,0.1-0.3,0.2-0.6
			c0.3-1.4,0.8-2.8,1.3-4.1s1.1-2.6,1.7-3.9c0.6-1.3,1.2-2.6,1.9-3.8c0.6-1.3,1.2-2.5,1.8-3.8c0.1-0.3,0.3-0.5,0.3-0.7
			c0.1-0.1,0.2-0.3,0.3-0.5c0.8-1.5,1.6-2.9,2.4-4.3c0.8-1.4,1.6-3,2.5-4.8c0.1-0.2,0.3-0.4,0.4-0.4c0.2-0.1,0.3-0.1,0.5-0.1
			c0.2,0,0.3,0,0.4,0c0.1,0,0.2,0,0.3,0c0.2,0,0.3,0.1,0.5,0.2c0.2,0.1,0.3,0.2,0.5,0.4c0.1,0.1,0.2,0.2,0.3,0.4
			c0,0.1,0.1,0.3,0.1,0.5c0,0.5-0.2,0.9-0.5,1.3c-0.3,0.4-0.7,0.8-1.2,1.4c-0.2,0.2-0.3,0.4-0.4,0.5c-0.1,0.1-0.2,0.3-0.3,0.5
			c-0.8,1.1-1.6,2.4-2.4,3.8c-0.8,1.4-1.5,2.9-2.2,4.5c-0.7,1.5-1.4,3.1-2.1,4.7c-0.7,1.6-1.4,3.1-2.1,4.5c-0.1,0.3-0.2,0.5-0.3,0.6
			c0,0.1-0.1,0.1-0.1,0.1c0,0,0,0.1,0.1,0.1c0,0,0,0,0.1-0.1c0,0,0.1-0.1,0.2-0.2c1.5-2,2.9-3.9,4.2-5.5s2.7-3.1,4-4.6
			c0.2-0.3,0.4-0.5,0.5-0.6s0.3-0.2,0.5-0.3c0.4-0.1,0.6-0.2,0.8-0.2s0.4,0,0.7,0.1c0.3,0.1,0.5,0.1,0.6,0.2c0.1,0,0.2,0.1,0.4,0.3
			c0.1,0.1,0.2,0.3,0.2,0.4c0,0.6-0.1,1.1-0.3,1.5c-0.2,0.5-0.5,0.9-0.7,1.3c-0.3,0.4-0.5,0.8-0.6,1.2c-0.1,0.3-0.2,0.7-0.4,1
			c-0.5,1.2-0.9,2.4-1.3,3.8c-0.4,1.4-0.6,2.7-0.6,3.9c0,0.9,0.1,1.4,0.3,1.7c0.2,0.3,0.4,0.5,0.6,0.6c0.1,0,0.3,0.1,0.4,0.1
			c0.2,0,0.3,0.1,0.5,0.1c0.2,0,0.3,0.1,0.3,0.3c0,0.1,0,0.1-0.1,0.2c0,0.1-0.1,0.2-0.1,0.3c0,0.1-0.1,0.2-0.3,0.3
			c-0.1,0.1-0.3,0.1-0.4,0.2C517.4,32.8,517.2,32.8,517,32.9z"/>
		<path fill="#FFFFFF" d="M526.5,29c0.1,0.1,0.1,0.2,0.1,0.3c0,0.2,0,0.4,0,0.6c0,0.2-0.1,0.5-0.2,0.8c-0.1,0.3-0.3,0.7-0.5,1
			s-0.4,0.4-0.7,0.4c-0.1,0-0.3,0-0.5,0c-0.2,0-0.5,0-0.9,0c-0.1,0-0.3-0.1-0.4-0.3s-0.3-0.4-0.4-0.6c-0.1-0.2-0.2-0.5-0.3-0.7
			c-0.1-0.3-0.1-0.5-0.1-0.6c0-0.2,0-0.4,0.1-0.5s0.1-0.3,0.3-0.5c0.1-0.1,0.1-0.3,0.2-0.5c0-0.2,0.2-0.3,0.6-0.3
			c0.2,0,0.5,0,0.6,0.1c0.2,0.1,0.4,0.2,0.5,0.3c0.2,0.1,0.3,0.2,0.5,0.3c0.2,0.1,0.4,0.1,0.6,0.1C526.3,28.9,526.4,28.9,526.5,29z
			 M531.9,9.6c0.2,0.2,0.3,0.4,0.3,0.5c0,0.7-0.1,1.3-0.4,1.8c-0.3,0.5-0.5,1.1-0.7,1.6c-0.3,1-0.6,2-0.9,2.9
			c-0.3,1-0.5,1.9-0.8,2.8c-0.3,0.9-0.6,1.9-0.9,2.8c-0.3,0.9-0.7,1.8-1.1,2.8c-0.1,0.3-0.3,0.4-0.5,0.4c-0.3,0-0.4,0-0.6-0.1
			c-0.1-0.1-0.2-0.2-0.2-0.3c0-0.2-0.1-0.4-0.2-0.6c-0.1-0.1-0.2-0.3-0.3-0.4c-0.1-0.1-0.2-0.2-0.3-0.3c-0.1-0.1-0.1-0.2-0.1-0.3
			c0-0.1,0-0.2,0-0.3c0-0.1,0-0.2,0.1-0.3c0.1-0.3,0.2-0.6,0.2-0.8c0-0.2,0.1-0.4,0.2-0.8c0.2-0.9,0.4-1.7,0.6-2.5s0.4-1.6,0.6-2.4
			s0.4-1.6,0.6-2.4c0.2-0.8,0.4-1.6,0.5-2.5c0-0.3,0.1-0.6,0.2-0.9c0.1-0.3,0.1-0.6,0.3-0.9s0.3-0.5,0.5-0.7
			c0.2-0.2,0.4-0.3,0.7-0.3c0.1,0,0.3,0,0.4,0.1c0.1,0.1,0.2,0.1,0.4,0.2c0.2,0,0.4,0.1,0.5,0.3c0.1,0.1,0.2,0.2,0.3,0.3
			C531.5,9.3,531.7,9.5,531.9,9.6z"/>
	</g>
	<path id="path-1" fill="#FFFFFF" d="M20.1,16.7c0,0,3.6-2.8,2.2-3.9c-1.4-1.2-1.8,0.3-2.3,0.7c-0.5,0.4-3.7,4.7-8.5,4.9
		c0,0-3.2-0.8-3.6,0c-0.3,0.8,0.6,1.5,1.5,1.5c0.9,0,4.6,0.6,8.1,3.7c0,0,2.9,2.3,3.4,3.3c0,0,1.7,1.8,1.8,0.1c0,0,0.7-0.8-1.5-2.8
		c-2.1-2-5-4.2-6.6-4.8c0,0,1-0.1,2-0.1c0,0,4.6-0.5,7.4-0.4c2.8,0.1,6.1,0,12,3.7c0,0,3.5,2.9,3.8,1.8c0,0,0.7-1.3-1.1-2.6
		C36.9,20.4,31.4,15.3,20.1,16.7z"/>
</g>
<g>
</g>
<g>
</g>
<g>
</g>
<g>
</g>
<g>
</g>
<g>
</g>
</svg>
