<?xml version="1.0" encoding="utf-8"?>
<!-- Generator: Adobe Illustrator 18.1.0, SVG Export Plug-In . SVG Version: 6.00 Build 0)  -->
<svg version="1.1" id="Layer_1" xmlns="http://www.w3.org/2000/svg" xmlns:xlink="http://www.w3.org/1999/xlink" x="0px" y="0px"
	 width="170px" height="90px" viewBox="-41.1 -117.6 170 90" enable-background="new -41.1 -117.6 170 90" xml:space="preserve">
<g>
	<g id="path-1">
		<path fill="#FFFFFF" d="M37.3-38.5c0,0-2.2-2.8-3-1.7c-0.9,1.1,0.2,1.4,0.5,1.8s3.7,2.9,3.8,6.6c0,0-0.6,2.5,0,2.8
			c0.6,0.2,1.2-0.5,1.2-1.2s0.5-3.6,2.9-6.3c0,0,1.8-2.3,2.6-2.7c0,0,1.4-1.3,0.1-1.4c0,0-0.6-0.5-2.2,1.2c-1.6,1.6-3.3,3.9-3.7,5.1
			c0,0-0.1-0.8-0.1-1.6c0,0-0.4-3.6-0.3-5.8s0-4.8,2.9-9.4c0,0,2.3-2.7,1.4-3c0,0-1-0.5-2,0.9C40.2-51.6,36.2-47.3,37.3-38.5z"/>
	</g>
	<g enable-background="new    ">
		<path fill="#FFFFFF" d="M-32.7-110.6c0,0.1-0.1,0.3-0.1,0.4c0,0.1-0.1,0.2-0.2,0.3c-0.1,0.1-0.2,0.2-0.4,0.4c0,0-0.1,0.1-0.1,0.2
			c0,0.1-0.1,0.2-0.2,0.4c-0.7,1.8-1.3,3.5-1.9,5.3c-0.6,1.8-1.2,3.6-1.8,5.5c0,0.1,0,0.2,0,0.2c0,0.1,0,0.1,0,0.2c0,0,0,0.1,0,0.2
			c0,0.2,0,0.4-0.1,0.6c-0.1,0.2-0.2,0.5-0.4,0.8c0,0-0.1,0.1-0.1,0.1s-0.1,0-0.2,0c-0.1,0-0.1,0-0.2,0.1c0,0-0.1,0.1-0.1,0.2
			c-0.1,0.1-0.2,0.2-0.2,0.2c-0.1,0-0.2,0-0.2-0.1c0-0.1-0.1-0.1-0.2-0.1c-0.1,0-0.3-0.1-0.4-0.2s-0.2-0.2-0.3-0.2
			c-0.1,0-0.1,0-0.1-0.1c0,0,0-0.1,0-0.3c0-0.2,0.1-0.3,0.1-0.5s0.1-0.4,0.2-0.6c0.1-0.2,0.1-0.3,0.2-0.4c0-0.1,0.1-0.2,0.1-0.2
			c0-0.1,0.1-0.2,0.1-0.3c0.2-0.9,0.5-1.9,0.8-2.7c0.3-0.9,0.6-1.8,0.8-2.6c0.3-0.9,0.6-1.7,0.9-2.6c0.3-0.9,0.6-1.8,0.9-2.7
			c0-0.2,0.1-0.3,0.2-0.4c0.1-0.1,0.1-0.3,0.2-0.4c0.1-0.1,0.2-0.3,0.3-0.6c0.1-0.2,0.2-0.6,0.3-1c0-0.1,0.1-0.2,0.3-0.2
			s0.4,0,0.7,0c0.1,0,0.2,0,0.4,0.1s0.3,0.1,0.5,0.1c0.1,0.1,0.3,0.1,0.4,0.2c0.1,0.1,0.1,0.2,0.1,0.3
			C-32.6-110.9-32.6-110.8-32.7-110.6z"/>
		<path fill="#FFFFFF" d="M-25.7-110.5c-0.2,0.4-0.4,0.9-0.6,1.3c-0.2,0.4-0.4,0.8-0.7,1.3c-0.2,0.4-0.4,0.8-0.6,1.2
			c-0.1,0.1-0.1,0.3-0.2,0.4s-0.1,0.3-0.2,0.5c-0.1,0.2-0.1,0.3-0.1,0.4c0,0.1,0,0.2,0,0.2c0,0,0,0.1,0.1,0.1c0,0,0.1,0,0.2,0
			c0.1,0,0.2,0,0.4-0.1c0.5-0.1,1.1-0.3,1.7-0.5c0.6-0.2,1.1-0.5,1.5-0.7c0.1-0.1,0.2-0.1,0.3-0.1c0.1,0,0.2,0,0.3,0.1
			c0.1,0,0.3,0.1,0.4,0.1c0.1,0.1,0.2,0.1,0.3,0.2c0.1,0.1,0.1,0.2,0.1,0.2c0,0.2-0.1,0.3-0.2,0.5c-0.1,0.2-0.3,0.3-0.6,0.4
			c-0.3,0.1-0.5,0.2-0.6,0.3c-0.1,0.1-0.2,0.1-0.5,0.2c-0.3,0.1-0.6,0.2-1,0.3c-0.4,0.1-0.8,0.2-1.1,0.3c-0.4,0.1-0.7,0.2-1,0.3
			c-0.3,0.1-0.5,0.1-0.6,0.2c-0.2,0.1-0.4,0.2-0.5,0.4c-0.1,0.2-0.2,0.4-0.2,0.6s-0.1,0.4-0.2,0.6c0,0.1-0.1,0.3-0.1,0.4
			c-0.1,0.1-0.1,0.3-0.1,0.4c0,0.2-0.1,0.5-0.2,0.8c-0.1,0.3-0.2,0.7-0.3,1.1c-0.1,0.4-0.2,0.8-0.3,1.1c-0.1,0.4-0.2,0.7-0.2,1
			c0,0.1-0.1,0.3-0.2,0.5c-0.1,0.2-0.2,0.4-0.4,0.5c0,0-0.1,0.1-0.2,0.1c-0.1,0-0.1,0-0.2,0c-0.1,0-0.3,0-0.5-0.1
			c-0.2,0-0.3-0.1-0.4-0.2c-0.2-0.1-0.3-0.3-0.3-0.6c0-0.1,0-0.2,0-0.3s0-0.3,0.1-0.4c0.3-0.9,0.6-1.8,0.8-2.8s0.6-2,1-2.9
			c0-0.1,0-0.2,0-0.2c0,0,0-0.1-0.1-0.1c-0.2-0.1-0.4-0.2-0.5-0.4c-0.1-0.1-0.3-0.3-0.4-0.4c-0.1-0.1-0.2-0.3-0.3-0.4
			c-0.1-0.1-0.2-0.3-0.4-0.4c-0.1,0-0.1-0.1-0.1-0.2c0-0.1,0-0.1,0-0.1c0-0.1,0-0.1,0.1-0.2c0,0,0.1-0.1,0.2-0.1
			c0.1,0,0.2-0.1,0.2-0.1c0.1,0,0.2,0,0.3,0c0.3,0,0.5,0.1,0.8,0.2s0.5,0.2,0.7,0.2c0.2,0,0.4-0.1,0.4-0.3c0.1-0.3,0.2-0.7,0.4-1.1
			c0.3-0.7,0.6-1.5,0.9-2.4c0.3-0.9,0.7-1.8,1.1-2.7c0.1-0.2,0.1-0.3,0.2-0.3c0,0,0.1,0,0.1,0c0.2,0,0.3,0,0.4-0.1
			c0.1,0,0.2-0.1,0.3-0.1c0.1,0,0.3,0,0.4,0c0.2,0,0.3,0.1,0.5,0.1c0.1,0.1,0.2,0.1,0.2,0.2c0,0,0,0.1,0,0.1s0,0.1,0,0.2
			C-25.4-111.4-25.6-110.9-25.7-110.5z"/>
		<path fill="#FFFFFF" d="M-7.8-106.6c0.1,0.1,0.2,0.1,0.3,0.1c0.1,0,0.2,0,0.3,0s0.3,0.1,0.4,0.3c0,0,0,0.1,0,0.1
			c0,0.1,0,0.2-0.1,0.3c-0.3,0.4-0.5,0.8-0.8,1.1c-0.3,0.4-0.5,0.8-0.8,1.2c-0.2,0.4-0.5,0.9-0.7,1.3c-0.2,0.4-0.4,0.9-0.5,1.4
			c-0.1,0.3-0.2,0.7-0.2,1c-0.1,0.4-0.1,0.7-0.1,1.1c0,0.3,0,0.6,0.1,0.9c0.1,0.3,0.2,0.6,0.4,0.9c0,0.1,0,0.1,0,0.1s0,0.1-0.1,0.2
			c-0.1,0.1-0.2,0.1-0.4,0.2c-0.1,0-0.2,0-0.2,0.1c-0.1,0-0.1,0-0.2,0c-0.2,0-0.4,0-0.6-0.1c-0.2-0.1-0.4-0.2-0.4-0.4
			c-0.2-0.4-0.3-0.7-0.3-1c-0.1-0.3-0.1-0.7-0.1-1c0-0.4,0-0.7,0-0.9s0-0.3,0-0.3c0-0.1,0-0.1-0.1-0.1c-0.1,0-0.3,0.1-0.6,0.4
			l-1.3,1.2c-0.3,0.3-0.6,0.5-0.9,0.7c-0.3,0.2-0.5,0.4-0.7,0.5c-0.2,0.1-0.4,0.2-0.6,0.3c-0.2,0.1-0.4,0.2-0.6,0.2
			c-0.1,0-0.2,0.1-0.2,0.1c-0.1,0-0.1,0-0.2,0c-0.1,0-0.1,0-0.2,0c-0.1,0-0.2-0.1-0.3-0.2c-0.1-0.1-0.3-0.2-0.5-0.3
			c-0.2-0.1-0.4-0.3-0.7-0.6c-0.1,0-0.2-0.2-0.3-0.4c-0.1-0.2-0.2-0.6-0.2-1c0-0.4,0.1-0.9,0.3-1.4c0.2-0.5,0.6-1.3,1.2-2.1
			c0.7-1.1,1.4-1.9,2-2.4s1.1-0.9,1.5-1.2c1.2-0.9,2.5-1.5,3.8-1.9c0.2,0,0.3-0.1,0.5-0.1c0.3,0,0.5,0.1,0.8,0.2
			c0.2,0.1,0.5,0.3,0.7,0.5c0.1,0.1,0.1,0.1,0.2,0.2c0.1,0.1,0.1,0.2,0.2,0.3C-8-106.8-7.9-106.7-7.8-106.6z M-9.9-106.6
			c-0.2,0-0.3,0.1-0.5,0.2c-1.1,0.6-2.1,1.2-3,1.9c-0.9,0.7-1.7,1.4-2.4,2.2c-0.3,0.3-0.5,0.6-0.7,0.9c-0.2,0.3-0.4,0.6-0.6,0.9
			c-0.2,0.3-0.3,0.6-0.4,0.8c-0.1,0.3-0.1,0.5-0.1,0.6c0,0.1,0,0.3,0.1,0.4s0.2,0.2,0.4,0.2c0.1,0,0.3-0.1,0.5-0.2
			c0.2-0.1,0.5-0.3,0.7-0.5c0.6-0.5,1.1-1,1.7-1.5c0.6-0.5,1.1-0.9,1.7-1.4c0.5-0.5,1-1,1.5-1.4c0.5-0.5,0.8-1,1.1-1.6
			c0.1-0.2,0.2-0.3,0.3-0.5c0.1-0.2,0.3-0.3,0.4-0.4c0.1-0.1,0.1-0.2,0.1-0.4c0-0.1,0-0.2-0.1-0.3c-0.1-0.1-0.2-0.2-0.4-0.2
			C-9.6-106.6-9.7-106.6-9.9-106.6z"/>
		<path fill="#FFFFFF" d="M-4.7-96.2c-0.2-0.1-0.5-0.2-0.7-0.3c-0.3-0.1-0.5-0.3-0.8-0.6c-0.2-0.2-0.4-0.5-0.5-0.9
			c0-0.3-0.1-0.5-0.1-0.8c0-0.6,0.1-1.1,0.3-1.7c0.2-0.6,0.4-1.2,0.7-1.9c0.3-0.7,0.6-1.4,1-2.2c0.4-0.8,0.8-1.6,1.2-2.5
			c0.4-0.8,0.9-1.7,1.4-2.5s1-1.7,1.4-2.4c0.1-0.2,0.2-0.4,0.3-0.6c0.1-0.2,0.2-0.5,0.3-0.7c0.1-0.2,0.2-0.4,0.4-0.5
			c0.1-0.1,0.3-0.2,0.6-0.2c0.2,0,0.3,0,0.4,0c0.1,0,0.2,0,0.4,0s0.2,0,0.4,0.1s0.2,0.1,0.3,0.2c0.1,0.2,0.2,0.4,0.2,0.7
			c0,0.3-0.1,0.6-0.2,0.8c-0.5,0.9-1.1,1.8-1.7,2.6c-0.6,0.9-1.1,1.7-1.7,2.6s-1,1.7-1.5,2.6c-0.5,0.9-0.9,1.8-1.2,2.7
			c-0.2,0.5-0.4,1-0.6,1.5s-0.3,1-0.3,1.5c0,0.1,0,0.3,0,0.4s0,0.3,0.1,0.5c0.1,0.2,0.2,0.3,0.5,0.3c0.2,0,0.3,0,0.4-0.1
			c0.3-0.2,0.5-0.4,0.8-0.7s0.6-0.6,0.8-0.9c0.3-0.3,0.6-0.6,0.9-0.8c0.3-0.2,0.6-0.3,0.8-0.3c0.1,0,0.3,0,0.5,0.1
			c0.2,0.1,0.3,0.2,0.3,0.4c0,0.2,0,0.3-0.1,0.4s-0.2,0.2-0.3,0.3c-0.3,0.3-0.6,0.7-0.9,1.1c-0.3,0.4-0.6,0.7-0.9,1
			c-0.3,0.3-0.7,0.6-1,0.8c-0.4,0.2-0.8,0.3-1.2,0.3C-4.3-96.1-4.5-96.1-4.7-96.2z"/>
		<path fill="#FFFFFF" d="M1.9-96.2c-0.2-0.1-0.5-0.2-0.7-0.3c-0.3-0.1-0.5-0.3-0.8-0.6C0.1-97.3,0-97.6-0.1-98
			c0-0.3-0.1-0.5-0.1-0.8c0-0.6,0.1-1.1,0.3-1.7c0.2-0.6,0.4-1.2,0.7-1.9c0.3-0.7,0.6-1.4,1-2.2c0.4-0.8,0.8-1.6,1.2-2.5
			c0.4-0.8,0.9-1.7,1.4-2.5s1-1.7,1.4-2.4c0.1-0.2,0.2-0.4,0.3-0.6c0.1-0.2,0.2-0.5,0.3-0.7c0.1-0.2,0.2-0.4,0.4-0.5
			c0.1-0.1,0.3-0.2,0.6-0.2c0.2,0,0.3,0,0.4,0c0.1,0,0.2,0,0.4,0s0.2,0,0.4,0.1s0.2,0.1,0.3,0.2c0.1,0.2,0.2,0.4,0.2,0.7
			c0,0.3-0.1,0.6-0.2,0.8c-0.5,0.9-1.1,1.8-1.7,2.6c-0.6,0.9-1.1,1.7-1.7,2.6s-1,1.7-1.5,2.6c-0.5,0.9-0.9,1.8-1.2,2.7
			c-0.2,0.5-0.4,1-0.6,1.5s-0.3,1-0.3,1.5c0,0.1,0,0.3,0,0.4s0,0.3,0.1,0.5c0.1,0.2,0.2,0.3,0.5,0.3c0.2,0,0.3,0,0.4-0.1
			c0.3-0.2,0.5-0.4,0.8-0.7s0.6-0.6,0.8-0.9c0.3-0.3,0.6-0.6,0.9-0.8c0.3-0.2,0.6-0.3,0.8-0.3c0.1,0,0.3,0,0.5,0.1
			c0.2,0.1,0.3,0.2,0.3,0.4c0,0.2,0,0.3-0.1,0.4s-0.2,0.2-0.3,0.3c-0.3,0.3-0.6,0.7-0.9,1.1c-0.3,0.4-0.6,0.7-0.9,1
			c-0.3,0.3-0.7,0.6-1,0.8c-0.4,0.2-0.8,0.3-1.2,0.3C2.2-96.1,2.1-96.1,1.9-96.2z"/>
		<path fill="#FFFFFF" d="M21-106.9c0.1,0.3,0.1,0.6,0.1,0.8c0,0.5-0.1,0.9-0.2,1.2c-0.1,0.3-0.3,0.6-0.5,0.8
			c-0.1,0.1-0.2,0.2-0.2,0.2c0,0-0.1,0-0.1,0c-0.1,0-0.3,0-0.5-0.1c-0.2-0.1-0.3-0.1-0.4-0.2c-0.2-0.2-0.4-0.4-0.4-0.8
			c0,0,0-0.1,0.1-0.2c0.1-0.2,0.2-0.4,0.3-0.5c0.1-0.2,0.1-0.4,0.1-0.6c0-0.1,0-0.2,0-0.3c0-0.1-0.1-0.2-0.1-0.3
			c0-0.1-0.1-0.2-0.2-0.2c-0.1-0.1-0.2-0.1-0.3-0.1c0,0-0.1,0.1-0.3,0.2c-0.1,0.2-0.3,0.3-0.4,0.6c-0.2,0.2-0.3,0.5-0.5,0.8
			c-0.1,0.3-0.2,0.6-0.3,0.9c0,0.1,0,0.2,0,0.3c0,0.1,0,0.2,0,0.4c0,0,0,0.1,0,0.3c0,0.1,0,0.3,0,0.5s0,0.3,0,0.5c0,0.2,0,0.3,0,0.3
			c0,0.4,0.1,0.9,0.2,1.5c0.1,0.5,0.2,1.1,0.3,1.6c0.1,0.5,0.2,1,0.2,1.4c0.1,0.4,0.1,0.8,0.1,1c0,0.2-0.1,0.3-0.2,0.4
			c-0.2,0.2-0.5,0.4-0.7,0.6c-0.2,0.2-0.5,0.3-0.8,0.3c-0.2,0-0.4,0-0.6-0.1c-0.8-0.3-1.5-0.8-2.1-1.3c-0.6-0.6-1.1-1.2-1.5-1.9
			c0-0.1-0.1-0.1-0.1-0.2s0-0.1,0-0.2c0-0.2,0.1-0.4,0.2-0.6c0.2-0.2,0.4-0.3,0.6-0.3c0.2,0,0.4,0,0.6,0.1c0.1,0,0.2,0.1,0.4,0.3
			c0.1,0.2,0.3,0.4,0.4,0.6s0.2,0.4,0.3,0.6c0.1,0.2,0.2,0.4,0.4,0.6c0.1,0.2,0.3,0.4,0.5,0.5c0.1,0.1,0.2,0.2,0.3,0.2
			c0.1,0,0.1,0,0.2,0c0.2,0,0.2-0.1,0.2-0.2c0,0,0-0.1,0-0.2c0-0.1,0-0.3-0.1-0.6c-0.1-0.4-0.2-0.9-0.3-1.5
			c-0.1-0.6-0.2-1.2-0.3-1.8c-0.1-0.6-0.1-1.1-0.2-1.5s-0.1-0.7-0.1-0.9c0-0.2,0-0.4,0-0.6c0-0.2,0.1-0.5,0.2-0.8
			c0.1-0.3,0.2-0.5,0.3-0.8c0.1-0.3,0.2-0.5,0.4-0.7c0.4-0.6,0.7-1,1.2-1.2c0.4-0.2,0.7-0.3,1-0.3c0.7,0,1.1,0.1,1.5,0.2
			c0.3,0.2,0.6,0.4,0.9,0.6C20.9-107.5,21-107.3,21-106.9z"/>
		<path fill="#FFFFFF" d="M28.7-110.5c-0.2,0.4-0.4,0.9-0.6,1.3c-0.2,0.4-0.4,0.8-0.7,1.3c-0.2,0.4-0.4,0.8-0.6,1.2
			c-0.1,0.1-0.1,0.3-0.2,0.4s-0.1,0.3-0.2,0.5c-0.1,0.2-0.1,0.3-0.1,0.4c0,0.1,0,0.2,0,0.2c0,0,0,0.1,0.1,0.1c0,0,0.1,0,0.2,0
			c0.1,0,0.2,0,0.4-0.1c0.5-0.1,1.1-0.3,1.7-0.5c0.6-0.2,1.1-0.5,1.5-0.7c0.1-0.1,0.2-0.1,0.3-0.1c0.1,0,0.2,0,0.3,0.1
			c0.1,0,0.3,0.1,0.4,0.1c0.1,0.1,0.2,0.1,0.3,0.2s0.1,0.2,0.1,0.2c0,0.2-0.1,0.3-0.2,0.5s-0.3,0.3-0.6,0.4
			c-0.3,0.1-0.5,0.2-0.6,0.3c-0.1,0.1-0.2,0.1-0.5,0.2c-0.3,0.1-0.6,0.2-1,0.3s-0.8,0.2-1.1,0.3c-0.4,0.1-0.7,0.2-1,0.3
			c-0.3,0.1-0.5,0.1-0.6,0.2c-0.2,0.1-0.4,0.2-0.5,0.4c-0.1,0.2-0.2,0.4-0.2,0.6c-0.1,0.2-0.1,0.4-0.2,0.6c0,0.1-0.1,0.3-0.1,0.4
			c-0.1,0.1-0.1,0.3-0.1,0.4c0,0.2-0.1,0.5-0.2,0.8c-0.1,0.3-0.2,0.7-0.3,1.1s-0.2,0.8-0.3,1.1c-0.1,0.4-0.2,0.7-0.2,1
			c0,0.1-0.1,0.3-0.2,0.5c-0.1,0.2-0.2,0.4-0.4,0.5c0,0-0.1,0.1-0.2,0.1c-0.1,0-0.1,0-0.2,0c-0.1,0-0.3,0-0.5-0.1
			c-0.2,0-0.3-0.1-0.4-0.2c-0.2-0.1-0.3-0.3-0.3-0.6c0-0.1,0-0.2,0-0.3c0-0.1,0-0.3,0.1-0.4c0.3-0.9,0.6-1.8,0.8-2.8
			c0.3-1,0.6-2,1-2.9c0-0.1,0-0.2,0-0.2c0,0,0-0.1-0.1-0.1c-0.2-0.1-0.4-0.2-0.5-0.4c-0.1-0.1-0.3-0.3-0.4-0.4
			c-0.1-0.1-0.2-0.3-0.3-0.4s-0.2-0.3-0.4-0.4c-0.1,0-0.1-0.1-0.1-0.2c0-0.1,0-0.1,0-0.1c0-0.1,0-0.1,0.1-0.2s0.1-0.1,0.2-0.1
			c0.1,0,0.2-0.1,0.2-0.1c0.1,0,0.2,0,0.3,0c0.3,0,0.5,0.1,0.8,0.2c0.3,0.1,0.5,0.2,0.7,0.2c0.2,0,0.4-0.1,0.4-0.3
			c0.1-0.3,0.2-0.7,0.4-1.1c0.3-0.7,0.6-1.5,0.9-2.4c0.3-0.9,0.7-1.8,1.1-2.7c0.1-0.2,0.1-0.3,0.2-0.3c0,0,0.1,0,0.1,0
			c0.2,0,0.3,0,0.4-0.1c0.1,0,0.2-0.1,0.3-0.1c0.1,0,0.3,0,0.4,0c0.2,0,0.3,0.1,0.5,0.1c0.1,0.1,0.2,0.1,0.2,0.2c0,0,0,0.1,0,0.1
			s0,0.1,0,0.2C29-111.4,28.9-110.9,28.7-110.5z"/>
		<path fill="#FFFFFF" d="M39.8-106.6c0.1,0.1,0.2,0.1,0.3,0.1c0.1,0,0.2,0,0.3,0c0.1,0,0.3,0.1,0.4,0.3c0,0,0,0.1,0,0.1
			c0,0.1,0,0.2-0.1,0.3c-0.3,0.4-0.5,0.8-0.8,1.1c-0.3,0.4-0.5,0.8-0.8,1.2c-0.2,0.4-0.5,0.9-0.7,1.3c-0.2,0.4-0.4,0.9-0.5,1.4
			c-0.1,0.3-0.2,0.7-0.2,1c-0.1,0.4-0.1,0.7-0.1,1.1c0,0.3,0,0.6,0.1,0.9c0.1,0.3,0.2,0.6,0.4,0.9c0,0.1,0,0.1,0,0.1s0,0.1-0.1,0.2
			c-0.1,0.1-0.2,0.1-0.4,0.2c-0.1,0-0.2,0-0.2,0.1c-0.1,0-0.1,0-0.2,0c-0.2,0-0.4,0-0.6-0.1c-0.2-0.1-0.4-0.2-0.4-0.4
			c-0.2-0.4-0.3-0.7-0.3-1c-0.1-0.3-0.1-0.7-0.1-1c0-0.4,0-0.7,0-0.9s0-0.3,0-0.3c0-0.1,0-0.1-0.1-0.1c-0.1,0-0.3,0.1-0.6,0.4
			l-1.3,1.2c-0.3,0.3-0.6,0.5-0.9,0.7s-0.5,0.4-0.7,0.5c-0.2,0.1-0.4,0.2-0.6,0.3s-0.4,0.2-0.6,0.2c-0.1,0-0.2,0.1-0.2,0.1
			c-0.1,0-0.1,0-0.2,0c-0.1,0-0.1,0-0.2,0c-0.1,0-0.2-0.1-0.3-0.2c-0.1-0.1-0.3-0.2-0.5-0.3c-0.2-0.1-0.4-0.3-0.7-0.6
			c-0.1,0-0.2-0.2-0.3-0.4c-0.1-0.2-0.2-0.6-0.2-1c0-0.4,0.1-0.9,0.3-1.4c0.2-0.5,0.6-1.3,1.2-2.1c0.7-1.1,1.4-1.9,2-2.4
			c0.6-0.5,1.1-0.9,1.5-1.2c1.2-0.9,2.5-1.5,3.8-1.9c0.2,0,0.3-0.1,0.5-0.1c0.3,0,0.5,0.1,0.8,0.2c0.2,0.1,0.5,0.3,0.7,0.5
			c0.1,0.1,0.1,0.1,0.2,0.2c0.1,0.1,0.1,0.2,0.2,0.3C39.6-106.8,39.7-106.7,39.8-106.6z M37.7-106.6c-0.2,0-0.3,0.1-0.5,0.2
			c-1.1,0.6-2.1,1.2-3,1.9c-0.9,0.7-1.7,1.4-2.4,2.2c-0.3,0.3-0.5,0.6-0.7,0.9c-0.2,0.3-0.4,0.6-0.6,0.9c-0.2,0.3-0.3,0.6-0.4,0.8
			c-0.1,0.3-0.1,0.5-0.1,0.6c0,0.1,0,0.3,0.1,0.4s0.2,0.2,0.4,0.2c0.1,0,0.3-0.1,0.5-0.2c0.2-0.1,0.5-0.3,0.7-0.5
			c0.6-0.5,1.1-1,1.7-1.5c0.6-0.5,1.1-0.9,1.7-1.4c0.5-0.5,1-1,1.5-1.4c0.5-0.5,0.8-1,1.1-1.6c0.1-0.2,0.2-0.3,0.3-0.5
			c0.1-0.2,0.3-0.3,0.4-0.4c0.1-0.1,0.1-0.2,0.1-0.4c0-0.1,0-0.2-0.1-0.3c-0.1-0.1-0.2-0.2-0.4-0.2C38-106.6,37.9-106.6,37.7-106.6z
			"/>
		<path fill="#FFFFFF" d="M45-106.5c0,0.2,0.1,0.4,0.1,0.6c0,0.3,0,0.6-0.1,1c0,0.1-0.1,0.2-0.1,0.3c0,0,0,0.1,0,0.1
			c0,0,0,0.1,0.1,0.1c0,0,0.2,0,0.3-0.2c1.3-1,2.4-1.7,3.3-2c0.1,0,0.2,0,0.3,0c0.3,0,0.7,0.1,1,0.2c0.3,0.1,0.6,0.3,0.8,0.5
			c0.1,0,0.1,0.1,0.1,0.2c0,0.1,0,0.2,0,0.2c0,0.2,0,0.3-0.1,0.5c-0.1,0.1-0.1,0.2-0.2,0.3c-0.1,0.1-0.2,0.2-0.3,0.2
			c-0.1,0-0.2,0.1-0.2,0.1c-0.2,0-0.4,0-0.5-0.1c-0.2-0.1-0.4-0.1-0.5-0.1c-0.1,0-0.2,0-0.4,0.1c-0.7,0.3-1.3,0.7-1.9,1.1
			c-0.6,0.4-1.2,0.9-1.8,1.5c-0.6,0.6-1,1.2-1.5,2c-0.4,0.7-0.7,1.6-0.9,2.5c-0.1,0.2-0.2,0.4-0.3,0.6c-0.1,0.2-0.2,0.3-0.3,0.4
			c-0.1,0.1-0.1,0.1-0.2,0.2s-0.2,0-0.2,0c-0.2,0-0.3-0.1-0.4-0.2c-0.1-0.1-0.2-0.2-0.3-0.3c-0.1-0.1-0.2-0.3-0.3-0.4
			s-0.1-0.3-0.1-0.5c0-0.2,0.1-0.4,0.2-0.6c0.1-0.2,0.2-0.4,0.4-0.6c0.1-0.2,0.3-0.4,0.4-0.6c0.1-0.2,0.3-0.4,0.3-0.7
			c0.3-0.9,0.6-1.8,0.9-2.7c0.3-0.9,0.6-1.8,0.7-2.8c0-0.1,0-0.2,0-0.3c0-0.1,0-0.1,0-0.1c0-0.1,0-0.2-0.1-0.3
			c-0.1-0.1-0.1-0.2-0.1-0.3c0-0.1,0.1-0.2,0.3-0.3s0.4-0.2,0.7-0.2c0.2,0,0.3,0,0.5,0.1c0.2,0.1,0.3,0.1,0.3,0.2
			C44.9-106.8,45-106.6,45-106.5z"/>
		<path fill="#FFFFFF" d="M56.4-110.5c-0.2,0.4-0.4,0.9-0.6,1.3c-0.2,0.4-0.4,0.8-0.7,1.3c-0.2,0.4-0.4,0.8-0.6,1.2
			c-0.1,0.1-0.1,0.3-0.2,0.4s-0.1,0.3-0.2,0.5c-0.1,0.2-0.1,0.3-0.1,0.4c0,0.1,0,0.2,0,0.2c0,0,0,0.1,0.1,0.1c0,0,0.1,0,0.2,0
			c0.1,0,0.2,0,0.4-0.1c0.5-0.1,1.1-0.3,1.7-0.5c0.6-0.2,1.1-0.5,1.5-0.7c0.1-0.1,0.2-0.1,0.3-0.1c0.1,0,0.2,0,0.3,0.1
			c0.1,0,0.3,0.1,0.4,0.1c0.1,0.1,0.2,0.1,0.3,0.2s0.1,0.2,0.1,0.2c0,0.2-0.1,0.3-0.2,0.5s-0.3,0.3-0.6,0.4
			c-0.3,0.1-0.5,0.2-0.6,0.3c-0.1,0.1-0.2,0.1-0.5,0.2c-0.3,0.1-0.6,0.2-1,0.3s-0.8,0.2-1.1,0.3c-0.4,0.1-0.7,0.2-1,0.3
			c-0.3,0.1-0.5,0.1-0.6,0.2c-0.2,0.1-0.4,0.2-0.5,0.4c-0.1,0.2-0.2,0.4-0.2,0.6c-0.1,0.2-0.1,0.4-0.2,0.6c0,0.1-0.1,0.3-0.1,0.4
			c-0.1,0.1-0.1,0.3-0.1,0.4c0,0.2-0.1,0.5-0.2,0.8c-0.1,0.3-0.2,0.7-0.3,1.1s-0.2,0.8-0.3,1.1c-0.1,0.4-0.2,0.7-0.2,1
			c0,0.1-0.1,0.3-0.2,0.5c-0.1,0.2-0.2,0.4-0.4,0.5c0,0-0.1,0.1-0.2,0.1c-0.1,0-0.1,0-0.2,0c-0.1,0-0.3,0-0.5-0.1
			c-0.2,0-0.3-0.1-0.4-0.2c-0.2-0.1-0.3-0.3-0.3-0.6c0-0.1,0-0.2,0-0.3c0-0.1,0-0.3,0.1-0.4c0.3-0.9,0.6-1.8,0.8-2.8
			c0.3-1,0.6-2,1-2.9c0-0.1,0-0.2,0-0.2c0,0,0-0.1-0.1-0.1c-0.2-0.1-0.4-0.2-0.5-0.4c-0.1-0.1-0.3-0.3-0.4-0.4
			c-0.1-0.1-0.2-0.3-0.3-0.4s-0.2-0.3-0.4-0.4c-0.1,0-0.1-0.1-0.1-0.2c0-0.1,0-0.1,0-0.1c0-0.1,0-0.1,0.1-0.2s0.1-0.1,0.2-0.1
			c0.1,0,0.2-0.1,0.2-0.1c0.1,0,0.2,0,0.3,0c0.3,0,0.5,0.1,0.8,0.2c0.3,0.1,0.5,0.2,0.7,0.2c0.2,0,0.4-0.1,0.4-0.3
			c0.1-0.3,0.2-0.7,0.4-1.1c0.3-0.7,0.6-1.5,0.9-2.4c0.3-0.9,0.7-1.8,1.1-2.7c0.1-0.2,0.1-0.3,0.2-0.3c0,0,0.1,0,0.1,0
			c0.2,0,0.3,0,0.4-0.1c0.1,0,0.2-0.1,0.3-0.1c0.1,0,0.3,0,0.4,0c0.2,0,0.3,0.1,0.5,0.1c0.1,0.1,0.2,0.1,0.2,0.2c0,0,0,0.1,0,0.1
			s0,0.1,0,0.2C56.7-111.4,56.6-110.9,56.4-110.5z"/>
		<path fill="#FFFFFF" d="M64.1-106.9c0.1,0.3,0.1,0.6,0.1,0.8c0,0.5-0.1,0.9-0.2,1.2c-0.1,0.3-0.3,0.6-0.5,0.8
			c-0.1,0.1-0.2,0.2-0.2,0.2c0,0-0.1,0-0.1,0c-0.1,0-0.3,0-0.5-0.1c-0.2-0.1-0.3-0.1-0.4-0.2c-0.2-0.2-0.4-0.4-0.4-0.8
			c0,0,0-0.1,0.1-0.2c0.1-0.2,0.2-0.4,0.3-0.5c0.1-0.2,0.1-0.4,0.1-0.6c0-0.1,0-0.2,0-0.3c0-0.1-0.1-0.2-0.1-0.3
			c0-0.1-0.1-0.2-0.2-0.2c-0.1-0.1-0.2-0.1-0.3-0.1c0,0-0.1,0.1-0.3,0.2c-0.1,0.2-0.3,0.3-0.4,0.6c-0.2,0.2-0.3,0.5-0.5,0.8
			c-0.1,0.3-0.2,0.6-0.3,0.9c0,0.1,0,0.2,0,0.3c0,0.1,0,0.2,0,0.4c0,0,0,0.1,0,0.3c0,0.1,0,0.3,0,0.5s0,0.3,0,0.5c0,0.2,0,0.3,0,0.3
			c0,0.4,0.1,0.9,0.2,1.5c0.1,0.5,0.2,1.1,0.3,1.6c0.1,0.5,0.2,1,0.2,1.4c0.1,0.4,0.1,0.8,0.1,1c0,0.2-0.1,0.3-0.2,0.4
			c-0.2,0.2-0.5,0.4-0.7,0.6c-0.2,0.2-0.5,0.3-0.8,0.3c-0.2,0-0.4,0-0.6-0.1c-0.8-0.3-1.5-0.8-2.1-1.3c-0.6-0.6-1.1-1.2-1.5-1.9
			c0-0.1-0.1-0.1-0.1-0.2s0-0.1,0-0.2c0-0.2,0.1-0.4,0.2-0.6c0.2-0.2,0.4-0.3,0.6-0.3c0.2,0,0.4,0,0.6,0.1c0.1,0,0.2,0.1,0.4,0.3
			c0.1,0.2,0.3,0.4,0.4,0.6s0.2,0.4,0.3,0.6c0.1,0.2,0.2,0.4,0.4,0.6c0.1,0.2,0.3,0.4,0.5,0.5c0.1,0.1,0.2,0.2,0.3,0.2
			c0.1,0,0.1,0,0.2,0c0.2,0,0.2-0.1,0.2-0.2c0,0,0-0.1,0-0.2c0-0.1,0-0.3-0.1-0.6c-0.1-0.4-0.2-0.9-0.3-1.5
			c-0.1-0.6-0.2-1.2-0.3-1.8c-0.1-0.6-0.1-1.1-0.2-1.5s-0.1-0.7-0.1-0.9c0-0.2,0-0.4,0-0.6c0-0.2,0.1-0.5,0.2-0.8
			c0.1-0.3,0.2-0.5,0.3-0.8c0.1-0.3,0.2-0.5,0.4-0.7c0.4-0.6,0.7-1,1.2-1.2c0.4-0.2,0.7-0.3,1-0.3c0.7,0,1.1,0.1,1.5,0.2
			c0.3,0.2,0.6,0.4,0.9,0.6C63.9-107.5,64-107.3,64.1-106.9z"/>
		<path fill="#FFFFFF" d="M76.5-107.4c0,0.1-0.1,0.2-0.1,0.2c-0.1,0.1-0.1,0.2-0.2,0.4c0,0.1-0.1,0.3-0.1,0.3
			c-0.5,1.2-0.9,2.3-1.3,3.5s-0.8,2.3-1.2,3.5c-0.1,0.2-0.1,0.3-0.1,0.4c0,0,0,0.1,0.1,0.1c0,0,0,0,0.1,0c0,0,0.1-0.1,0.1-0.1
			c0.1-0.1,0.2-0.1,0.3-0.3c0.1-0.1,0.3-0.3,0.4-0.5c0.7-0.9,1.4-1.8,2-2.7c0.6-0.9,1.1-1.9,1.6-2.9c0.1-0.1,0.2-0.2,0.3-0.3
			c0.1,0,0.2-0.1,0.4-0.1s0.2,0,0.3,0c0.1,0,0.2,0,0.2,0c0.2,0,0.3,0.1,0.5,0.2c0.2,0.2,0.2,0.3,0.2,0.5c0,0.2-0.1,0.4-0.2,0.6
			c-0.1,0.2-0.3,0.6-0.6,1.1c-0.2,0.3-0.3,0.5-0.3,0.7c0,0.2-0.1,0.4-0.2,0.5c-0.3,0.6-0.5,1.2-0.6,1.9c-0.2,0.7-0.2,1.3-0.2,2
			c0,0.2,0,0.3,0.1,0.3c0.1,0.1,0.2,0.1,0.2,0.1c0.1,0,0.2,0,0.4-0.1c0.2-0.1,0.4-0.3,0.6-0.6c0.4-0.4,0.6-0.9,0.9-1.5
			s0.4-1,0.5-1.5c0.1-0.5,0.2-0.9,0.2-1.2s0.1-0.5,0.1-0.6c0-0.2,0-0.3,0.1-0.5c0-0.1,0.1-0.3,0.1-0.4c0-0.3-0.1-0.7-0.2-1
			s-0.2-0.7-0.2-0.9c0-0.1,0-0.2,0-0.3c0-0.1,0.1-0.2,0.2-0.3c0.1,0,0.2-0.1,0.5-0.1c0.2,0,0.4,0,0.5,0c0.1,0,0.2,0,0.2,0
			c0,0,0.1,0,0.1,0.1s0.1,0.1,0.2,0.2s0.2,0.2,0.4,0.3c0.2,0.1,0.5,0.2,0.7,0.3c0.2,0,0.6,0.1,1.1,0.1c0.5,0,1,0,1.5-0.1
			c0.5-0.1,1.1-0.1,1.7-0.1c0.1,0,0.2,0,0.4,0.1c0.1,0.1,0.2,0.3,0.2,0.6c0,0.3-0.4,0.6-1.2,0.7c-0.4,0.1-0.7,0.2-1,0.3
			c-0.3,0.1-0.5,0.1-0.7,0.2s-0.4,0.1-0.5,0.1s-0.3,0-0.5,0c-0.5,0-0.9,0-1.1-0.1s-0.4-0.1-0.5-0.1c-0.1,0-0.2,0.1-0.2,0.3
			c0,0.1,0,0.3,0,0.5s0,0.4,0,0.5c-0.1,1.2-0.3,2.4-0.8,3.5c-0.5,1.1-1.1,2.1-2,3c-0.1,0.1-0.3,0.2-0.4,0.3s-0.4,0.1-0.6,0.1
			c-0.3,0-0.7-0.1-1-0.2c-0.4-0.1-0.7-0.3-1-0.5c-0.1-0.1-0.3-0.2-0.4-0.4c-0.2-0.2-0.2-0.4-0.2-0.7c0-0.2,0-0.4,0-0.5
			c0-0.1,0-0.3,0-0.4c0-0.1,0-0.2-0.1-0.2s-0.2,0.1-0.4,0.3c-0.2,0.2-0.3,0.4-0.5,0.6s-0.3,0.4-0.5,0.6s-0.4,0.3-0.6,0.4
			c-0.2,0.1-0.4,0.2-0.7,0.2c-0.2,0-0.3,0-0.4-0.1c-0.1-0.1-0.3-0.2-0.6-0.3c-0.2-0.1-0.4-0.2-0.5-0.3c-0.1-0.1-0.2-0.2-0.3-0.2
			c0,0-0.1-0.1-0.1-0.3c0-0.1-0.1-0.3-0.1-0.4s0-0.2,0-0.4c0-0.1,0-0.2,0.1-0.3c0.2-0.7,0.4-1.4,0.6-2.2c0.3-0.7,0.5-1.4,0.8-2.1
			s0.5-1.4,0.7-2.1c0.2-0.7,0.4-1.4,0.5-2.1c0-0.1,0.1-0.2,0.2-0.3c0.1-0.1,0.2-0.2,0.3-0.2c0.1,0,0.2-0.1,0.3-0.1
			c0.1,0,0.2,0,0.3,0c0.1,0,0.2,0,0.3,0c0.1,0,0.2,0,0.3,0c0.1,0,0.2,0.1,0.3,0.2c0.2,0.1,0.2,0.2,0.2,0.4
			C76.5-107.5,76.5-107.5,76.5-107.4z"/>
		<path fill="#FFFFFF" d="M90-97.4c-0.3,0.2-0.6,0.5-1,0.7c-0.4,0.3-0.9,0.4-1.5,0.4c-0.2,0-0.4-0.1-0.5-0.2
			c-0.2-0.1-0.4-0.3-0.5-0.4c-0.2-0.2-0.3-0.4-0.4-0.6c-0.1-0.2-0.2-0.4-0.3-0.7c0-0.2-0.1-0.3-0.1-0.5c0-0.2,0-0.3,0-0.5
			c0-0.3,0-0.6,0.1-0.9s0.2-0.6,0.3-1.1c0.1-0.2,0.1-0.4,0.2-0.6c0.1-0.2,0.1-0.4,0.2-0.6c0.4-0.9,0.7-1.8,1.1-2.6
			c0.4-0.9,0.8-1.8,1.2-2.7c0.1-0.3,0.3-0.4,0.5-0.5c0.2-0.1,0.4-0.1,0.7-0.1c0.1,0,0.3,0,0.4,0c0.1,0,0.2,0.1,0.3,0.2
			c0.1,0,0.1,0.1,0.1,0.1c0,0,0,0.1,0,0.2c0,0.3-0.1,0.6-0.2,0.9c-0.1,0.2-0.2,0.5-0.4,0.7s-0.3,0.5-0.5,0.7
			c-0.2,0.2-0.3,0.5-0.5,0.8c-0.1,0.2-0.2,0.5-0.3,0.8c-0.1,0.3-0.3,0.6-0.4,0.9c-0.1,0.3-0.3,0.6-0.4,0.9s-0.2,0.6-0.3,0.8
			c-0.2,0.5-0.4,1-0.4,1.5s-0.1,0.7-0.1,0.9c0,0.1,0,0.3,0.1,0.5s0.2,0.3,0.4,0.3c0.1,0,0.2,0,0.4,0c0.1,0,0.2-0.1,0.4-0.1
			c0.1-0.1,0.3-0.1,0.4-0.2c0.2-0.1,0.4-0.2,0.6-0.4c0.3-0.2,0.5-0.3,0.6-0.4c0.1-0.1,0.3-0.1,0.5-0.1c0.1,0,0.2,0,0.3,0
			c0.1,0,0.2,0.1,0.3,0.1c0.1,0.1,0.1,0.1,0.1,0.2c0,0.1,0,0.1,0,0.2c0,0.1,0,0.3-0.1,0.4c-0.1,0.1-0.2,0.2-0.3,0.3L90-97.4z
			 M93.3-112.7c0,0.1,0,0.3,0,0.4c0,0.1,0,0.2,0,0.2c0,0.1,0,0.1-0.1,0.2c-0.2,0.3-0.5,0.5-0.7,0.8c-0.3,0.3-0.5,0.4-0.8,0.4
			c-0.2,0-0.4-0.1-0.6-0.2s-0.3-0.2-0.3-0.3c-0.1-0.1-0.1-0.3-0.1-0.4c0-0.1,0-0.3,0-0.4c0-0.2,0-0.4,0.1-0.5c0-0.2,0.1-0.3,0.2-0.5
			c0.1-0.1,0.3-0.2,0.5-0.3s0.4-0.1,0.7-0.1c0.2,0,0.4,0,0.6,0.1c0.2,0.1,0.3,0.1,0.4,0.2C93.2-113,93.3-112.9,93.3-112.7z"/>
		<path fill="#FFFFFF" d="M98.8-110.5c-0.2,0.4-0.4,0.9-0.6,1.3c-0.2,0.4-0.4,0.8-0.7,1.3c-0.2,0.4-0.4,0.8-0.6,1.2
			c-0.1,0.1-0.1,0.3-0.2,0.4s-0.1,0.3-0.2,0.5c-0.1,0.2-0.1,0.3-0.1,0.4c0,0.1,0,0.2,0,0.2c0,0,0,0.1,0.1,0.1c0,0,0.1,0,0.2,0
			c0.1,0,0.2,0,0.4-0.1c0.5-0.1,1.1-0.3,1.7-0.5c0.6-0.2,1.1-0.5,1.5-0.7c0.1-0.1,0.2-0.1,0.3-0.1c0.1,0,0.2,0,0.3,0.1
			c0.1,0,0.3,0.1,0.4,0.1c0.1,0.1,0.2,0.1,0.3,0.2s0.1,0.2,0.1,0.2c0,0.2-0.1,0.3-0.2,0.5s-0.3,0.3-0.6,0.4
			c-0.3,0.1-0.5,0.2-0.6,0.3c-0.1,0.1-0.2,0.1-0.5,0.2c-0.3,0.1-0.6,0.2-1,0.3s-0.8,0.2-1.1,0.3c-0.4,0.1-0.7,0.2-1,0.3
			c-0.3,0.1-0.5,0.1-0.6,0.2c-0.2,0.1-0.4,0.2-0.5,0.4c-0.1,0.2-0.2,0.4-0.2,0.6c-0.1,0.2-0.1,0.4-0.2,0.6c0,0.1-0.1,0.3-0.1,0.4
			c-0.1,0.1-0.1,0.3-0.1,0.4c0,0.2-0.1,0.5-0.2,0.8c-0.1,0.3-0.2,0.7-0.3,1.1s-0.2,0.8-0.3,1.1c-0.1,0.4-0.2,0.7-0.2,1
			c0,0.1-0.1,0.3-0.2,0.5c-0.1,0.2-0.2,0.4-0.4,0.5c0,0-0.1,0.1-0.2,0.1c-0.1,0-0.1,0-0.2,0c-0.1,0-0.3,0-0.5-0.1
			c-0.2,0-0.3-0.1-0.4-0.2c-0.2-0.1-0.3-0.3-0.3-0.6c0-0.1,0-0.2,0-0.3c0-0.1,0-0.3,0.1-0.4c0.3-0.9,0.6-1.8,0.8-2.8
			c0.3-1,0.6-2,1-2.9c0-0.1,0-0.2,0-0.2c0,0,0-0.1-0.1-0.1c-0.2-0.1-0.4-0.2-0.5-0.4c-0.1-0.1-0.3-0.3-0.4-0.4
			c-0.1-0.1-0.2-0.3-0.3-0.4s-0.2-0.3-0.4-0.4c-0.1,0-0.1-0.1-0.1-0.2c0-0.1,0-0.1,0-0.1c0-0.1,0-0.1,0.1-0.2s0.1-0.1,0.2-0.1
			c0.1,0,0.2-0.1,0.2-0.1c0.1,0,0.2,0,0.3,0c0.3,0,0.5,0.1,0.8,0.2c0.3,0.1,0.5,0.2,0.7,0.2c0.2,0,0.4-0.1,0.4-0.3
			c0.1-0.3,0.2-0.7,0.4-1.1c0.3-0.7,0.6-1.5,0.9-2.4c0.3-0.9,0.7-1.8,1.1-2.7c0.1-0.2,0.1-0.3,0.2-0.3c0,0,0.1,0,0.1,0
			c0.2,0,0.3,0,0.4-0.1c0.1,0,0.2-0.1,0.3-0.1c0.1,0,0.3,0,0.4,0c0.2,0,0.3,0.1,0.5,0.1c0.1,0.1,0.2,0.1,0.2,0.2c0,0,0,0.1,0,0.1
			s0,0.1,0,0.2C99.1-111.4,99-110.9,98.8-110.5z"/>
		<path fill="#FFFFFF" d="M106.9-95.8c-0.1,0-0.3,0.1-0.4,0.1c-0.1,0-0.2,0-0.3,0c-0.1,0-0.2-0.1-0.4-0.1c-0.5-0.2-0.8-0.5-1-0.8
			c-0.2-0.4-0.3-0.9-0.3-1.5c0-0.8,0.2-1.7,0.5-2.7c0.2-0.5,0.3-1,0.5-1.4c0.1-0.4,0.3-0.8,0.4-1.1c0.1-0.1,0.1-0.2,0.1-0.3
			c0,0,0,0,0,0c0,0-0.2,0.1-0.3,0.3c-0.4,0.5-0.8,1-1.2,1.5c-0.4,0.6-0.8,1.1-1.2,1.7c-0.4,0.6-0.8,1.1-1.2,1.7
			c-0.4,0.5-0.8,1-1.1,1.4c-0.1,0.1-0.1,0.1-0.1,0.2c0,0-0.1,0.1-0.1,0.1c-0.1,0.1-0.3,0.2-0.4,0.2c-0.2,0.1-0.3,0.1-0.5,0.1
			c-0.1,0-0.2-0.1-0.5-0.2c-0.3-0.1-0.5-0.3-0.7-0.5c-0.1-0.1-0.1-0.2-0.1-0.3c0-0.1,0-0.2,0.1-0.3s0.1-0.2,0.1-0.4
			c0.2-0.9,0.5-1.9,0.8-2.7c0.3-0.9,0.7-1.8,1.1-2.6c0.4-0.9,0.8-1.7,1.2-2.6c0.4-0.8,0.8-1.7,1.2-2.5c0.1-0.2,0.2-0.4,0.2-0.5
			c0-0.1,0.1-0.2,0.2-0.3c0.5-1,1.1-2,1.6-2.9c0.5-0.9,1.1-2,1.7-3.2c0.1-0.1,0.2-0.2,0.3-0.3c0.1,0,0.2-0.1,0.3-0.1
			c0.1,0,0.2,0,0.3,0s0.1,0,0.2,0c0.1,0,0.2,0,0.3,0.1s0.2,0.2,0.3,0.3c0.1,0.1,0.1,0.2,0.2,0.2s0,0.2,0,0.4c0,0.3-0.1,0.6-0.3,0.8
			c-0.2,0.2-0.5,0.6-0.8,0.9c-0.1,0.1-0.2,0.2-0.2,0.3c0,0.1-0.1,0.2-0.2,0.3c-0.5,0.8-1.1,1.6-1.6,2.6c-0.5,1-1,1.9-1.5,3
			c-0.5,1-1,2.1-1.4,3.1c-0.5,1.1-0.9,2.1-1.4,3c-0.1,0.2-0.2,0.3-0.2,0.4c0,0,0,0.1,0,0.1c0,0,0,0,0,0c0,0,0,0,0,0
			c0,0,0.1-0.1,0.1-0.2c1-1.4,1.9-2.6,2.8-3.6c0.9-1.1,1.8-2.1,2.7-3c0.2-0.2,0.3-0.3,0.4-0.4s0.2-0.1,0.3-0.2
			c0.2-0.1,0.4-0.1,0.6-0.1c0.1,0,0.3,0,0.5,0.1c0.2,0,0.3,0.1,0.4,0.1c0.1,0,0.2,0.1,0.2,0.2c0.1,0.1,0.1,0.2,0.1,0.3
			c0,0.4-0.1,0.7-0.2,1s-0.3,0.6-0.5,0.9c-0.2,0.3-0.3,0.5-0.4,0.8c-0.1,0.2-0.2,0.5-0.3,0.7c-0.3,0.8-0.6,1.6-0.9,2.5
			c-0.3,0.9-0.4,1.8-0.4,2.6c0,0.6,0.1,1,0.2,1.2c0.1,0.2,0.3,0.3,0.4,0.4c0.1,0,0.2,0.1,0.3,0.1c0.1,0,0.2,0,0.3,0.1
			c0.1,0,0.2,0.1,0.2,0.2c0,0,0,0.1,0,0.1c0,0-0.1,0.1-0.1,0.2c0,0.1-0.1,0.1-0.2,0.2c-0.1,0.1-0.2,0.1-0.3,0.1
			C107.2-95.9,107-95.8,106.9-95.8z"/>
		<path fill="#FFFFFF" d="M127.8-106.6c0.1,0.1,0.2,0.1,0.3,0.1c0.1,0,0.2,0,0.3,0c0.1,0,0.3,0.1,0.4,0.3c0,0,0,0.1,0,0.1
			c0,0.1,0,0.2-0.1,0.3c-0.3,0.4-0.5,0.8-0.8,1.1c-0.3,0.4-0.5,0.8-0.8,1.2c-0.2,0.4-0.5,0.9-0.7,1.3c-0.2,0.4-0.4,0.9-0.5,1.4
			c-0.1,0.3-0.2,0.7-0.2,1c-0.1,0.4-0.1,0.7-0.1,1.1c0,0.3,0,0.6,0.1,0.9c0.1,0.3,0.2,0.6,0.4,0.9c0,0.1,0,0.1,0,0.1s0,0.1-0.1,0.2
			c-0.1,0.1-0.2,0.1-0.4,0.2c-0.1,0-0.2,0-0.2,0.1c-0.1,0-0.1,0-0.2,0c-0.2,0-0.4,0-0.6-0.1c-0.2-0.1-0.4-0.2-0.4-0.4
			c-0.2-0.4-0.3-0.7-0.3-1c-0.1-0.3-0.1-0.7-0.1-1c0-0.4,0-0.7,0-0.9s0-0.3,0-0.3c0-0.1,0-0.1-0.1-0.1c-0.1,0-0.3,0.1-0.6,0.4
			l-1.3,1.2c-0.3,0.3-0.6,0.5-0.9,0.7s-0.5,0.4-0.7,0.5c-0.2,0.1-0.4,0.2-0.6,0.3s-0.4,0.2-0.6,0.2c-0.1,0-0.2,0.1-0.2,0.1
			c-0.1,0-0.1,0-0.2,0c-0.1,0-0.1,0-0.2,0c-0.1,0-0.2-0.1-0.3-0.2c-0.1-0.1-0.3-0.2-0.5-0.3c-0.2-0.1-0.4-0.3-0.7-0.6
			c-0.1,0-0.2-0.2-0.3-0.4c-0.1-0.2-0.2-0.6-0.2-1c0-0.4,0.1-0.9,0.3-1.4c0.2-0.5,0.6-1.3,1.2-2.1c0.7-1.1,1.4-1.9,2-2.4
			c0.6-0.5,1.1-0.9,1.5-1.2c1.2-0.9,2.5-1.5,3.8-1.9c0.2,0,0.3-0.1,0.5-0.1c0.3,0,0.5,0.1,0.8,0.2c0.2,0.1,0.5,0.3,0.7,0.5
			c0.1,0.1,0.1,0.1,0.2,0.2c0.1,0.1,0.1,0.2,0.2,0.3C127.6-106.8,127.7-106.7,127.8-106.6z M125.7-106.6c-0.2,0-0.3,0.1-0.5,0.2
			c-1.1,0.6-2.1,1.2-3,1.9c-0.9,0.7-1.7,1.4-2.4,2.2c-0.3,0.3-0.5,0.6-0.7,0.9c-0.2,0.3-0.4,0.6-0.6,0.9c-0.2,0.3-0.3,0.6-0.4,0.8
			c-0.1,0.3-0.1,0.5-0.1,0.6c0,0.1,0,0.3,0.1,0.4s0.2,0.2,0.4,0.2c0.1,0,0.3-0.1,0.5-0.2c0.2-0.1,0.5-0.3,0.7-0.5
			c0.6-0.5,1.1-1,1.7-1.5c0.6-0.5,1.1-0.9,1.7-1.4c0.5-0.5,1-1,1.5-1.4c0.5-0.5,0.8-1,1.1-1.6c0.1-0.2,0.2-0.3,0.3-0.5
			c0.1-0.2,0.3-0.3,0.4-0.4c0.1-0.1,0.1-0.2,0.1-0.4c0-0.1,0-0.2-0.1-0.3c-0.1-0.1-0.2-0.2-0.4-0.2
			C126-106.6,125.9-106.6,125.7-106.6z"/>
	</g>
	<g enable-background="new    ">
		<path fill="#FFFFFF" d="M-14.1-74.9c0.1,0.3,0.1,0.6,0.1,0.8c0,0.5-0.1,0.9-0.2,1.2c-0.1,0.3-0.3,0.6-0.5,0.8
			c-0.1,0.1-0.2,0.2-0.2,0.2c0,0-0.1,0-0.1,0c-0.1,0-0.3,0-0.5-0.1c-0.2-0.1-0.3-0.1-0.4-0.2c-0.2-0.2-0.4-0.4-0.4-0.8
			c0,0,0-0.1,0.1-0.2c0.1-0.2,0.2-0.4,0.3-0.5c0.1-0.2,0.1-0.4,0.1-0.6c0-0.1,0-0.2,0-0.3c0-0.1-0.1-0.2-0.1-0.3
			c0-0.1-0.1-0.2-0.2-0.2c-0.1-0.1-0.2-0.1-0.3-0.1c0,0-0.1,0.1-0.3,0.2c-0.1,0.2-0.3,0.3-0.4,0.6c-0.2,0.2-0.3,0.5-0.5,0.8
			s-0.2,0.6-0.3,0.9c0,0.1,0,0.2,0,0.3c0,0.1,0,0.2,0,0.4c0,0,0,0.1,0,0.3c0,0.1,0,0.3,0,0.5c0,0.2,0,0.3,0,0.5c0,0.2,0,0.3,0,0.3
			c0,0.4,0.1,0.9,0.2,1.5c0.1,0.5,0.2,1.1,0.3,1.6c0.1,0.5,0.2,1,0.2,1.4c0.1,0.4,0.1,0.8,0.1,1c0,0.2-0.1,0.3-0.2,0.4
			c-0.2,0.2-0.5,0.4-0.7,0.6c-0.2,0.2-0.5,0.3-0.8,0.3c-0.2,0-0.4,0-0.6-0.1c-0.8-0.3-1.5-0.8-2.1-1.3s-1.1-1.2-1.5-1.9
			c0-0.1-0.1-0.1-0.1-0.2c0-0.1,0-0.1,0-0.2c0-0.2,0.1-0.4,0.2-0.6c0.2-0.2,0.4-0.3,0.6-0.3c0.2,0,0.4,0,0.6,0.1
			c0.1,0,0.2,0.1,0.4,0.3c0.1,0.2,0.3,0.4,0.4,0.6s0.2,0.4,0.3,0.6c0.1,0.2,0.2,0.4,0.4,0.6c0.1,0.2,0.3,0.4,0.5,0.5
			c0.1,0.1,0.2,0.2,0.3,0.2c0.1,0,0.1,0,0.2,0c0.2,0,0.2-0.1,0.2-0.2c0,0,0-0.1,0-0.2c0-0.1,0-0.3-0.1-0.6c-0.1-0.4-0.2-0.9-0.3-1.5
			c-0.1-0.6-0.2-1.2-0.3-1.8c-0.1-0.6-0.1-1.1-0.2-1.5c0-0.5-0.1-0.7-0.1-0.9c0-0.2,0-0.4,0-0.6c0-0.2,0.1-0.5,0.2-0.8
			c0.1-0.3,0.2-0.5,0.3-0.8c0.1-0.3,0.2-0.5,0.4-0.7c0.4-0.6,0.7-1,1.2-1.2c0.4-0.2,0.7-0.3,1-0.3c0.7,0,1.1,0.1,1.5,0.2
			c0.3,0.2,0.6,0.4,0.9,0.6C-14.3-75.5-14.2-75.3-14.1-74.9z"/>
		<path fill="#FFFFFF" d="M-9-65.4c-0.3,0.2-0.6,0.5-1,0.7c-0.4,0.3-0.9,0.4-1.5,0.4c-0.2,0-0.4-0.1-0.5-0.2
			c-0.2-0.1-0.4-0.3-0.5-0.4c-0.2-0.2-0.3-0.4-0.4-0.6c-0.1-0.2-0.2-0.4-0.3-0.7c0-0.2-0.1-0.3-0.1-0.5c0-0.2,0-0.3,0-0.5
			c0-0.3,0-0.6,0.1-0.9s0.2-0.6,0.3-1.1c0.1-0.2,0.1-0.4,0.2-0.6c0.1-0.2,0.1-0.4,0.2-0.6c0.4-0.9,0.7-1.8,1.1-2.6s0.8-1.8,1.2-2.7
			c0.1-0.3,0.3-0.4,0.5-0.5s0.4-0.1,0.7-0.1c0.1,0,0.3,0,0.4,0c0.1,0,0.2,0.1,0.3,0.2c0.1,0,0.1,0.1,0.1,0.1c0,0,0,0.1,0,0.2
			c0,0.3-0.1,0.6-0.2,0.9s-0.2,0.5-0.4,0.7c-0.2,0.2-0.3,0.5-0.5,0.7c-0.2,0.2-0.3,0.5-0.5,0.8c-0.1,0.2-0.2,0.5-0.3,0.8
			c-0.1,0.3-0.3,0.6-0.4,0.9c-0.1,0.3-0.3,0.6-0.4,0.9s-0.2,0.6-0.3,0.8c-0.2,0.5-0.4,1-0.4,1.5s-0.1,0.7-0.1,0.9
			c0,0.1,0,0.3,0.1,0.5c0,0.2,0.2,0.3,0.4,0.3c0.1,0,0.2,0,0.4,0c0.1,0,0.2-0.1,0.4-0.1c0.1-0.1,0.3-0.1,0.4-0.2
			c0.2-0.1,0.4-0.2,0.6-0.4c0.3-0.2,0.5-0.3,0.6-0.4c0.1-0.1,0.3-0.1,0.5-0.1c0.1,0,0.2,0,0.3,0c0.1,0,0.2,0.1,0.3,0.1
			c0.1,0.1,0.1,0.1,0.1,0.2c0,0.1,0,0.1,0,0.2c0,0.1,0,0.3-0.1,0.4c-0.1,0.1-0.2,0.2-0.3,0.3L-9-65.4z M-5.7-80.7c0,0.1,0,0.3,0,0.4
			c0,0.1,0,0.2,0,0.2c0,0.1,0,0.1-0.1,0.2c-0.2,0.3-0.5,0.5-0.7,0.8c-0.3,0.3-0.5,0.4-0.8,0.4c-0.2,0-0.4-0.1-0.6-0.2
			s-0.3-0.2-0.3-0.3c-0.1-0.1-0.1-0.3-0.1-0.4c0-0.1,0-0.3,0-0.4c0-0.2,0-0.4,0.1-0.5c0-0.2,0.1-0.3,0.2-0.5
			c0.1-0.1,0.3-0.2,0.5-0.3c0.2-0.1,0.4-0.1,0.7-0.1c0.2,0,0.4,0,0.6,0.1c0.2,0.1,0.3,0.1,0.4,0.2C-5.8-81-5.8-80.9-5.7-80.7z"/>
		<path fill="#FFFFFF" d="M-1.7-75.5c0,0.1,0,0.2,0,0.3c0,0.1,0,0.2,0,0.3s-0.1,0.3-0.2,0.5c-0.9,1.2-1.7,2.5-2.4,3.8
			s-1.3,2.7-1.6,4.1c0,0.1,0,0.1,0.1,0.2c0,0.1,0.1,0.1,0.1,0.1c0,0,0.1,0,0.3-0.1c0.6-0.3,1.3-0.7,1.8-1.2c0.6-0.5,1.1-1,1.6-1.6
			s1-1.2,1.3-1.9s0.7-1.3,1-2c0.1-0.2,0.3-0.4,0.5-0.6c0.3-0.2,0.6-0.3,0.9-0.3c0.4,0,0.8,0.2,1.1,0.5c0,0,0.1,0.1,0.1,0.1
			c0,0,0,0,0,0.1c0,0.1,0,0.2-0.1,0.4c-0.1,0.3-0.3,0.6-0.4,0.8c-0.2,0.3-0.3,0.5-0.5,0.8c-0.2,0.3-0.4,0.5-0.6,0.8
			c-0.2,0.3-0.4,0.6-0.5,0.8c-0.4,0.8-0.7,1.4-0.8,1.9c-0.1,0.5-0.2,0.9-0.2,1.1c0,0.1,0,0.1,0.1,0.2c0,0.1,0.1,0.1,0.2,0.1
			c0.2,0,0.4-0.1,0.7-0.2s0.5-0.3,0.7-0.6c0.4-0.5,0.9-0.9,1.3-1.4c0.5-0.4,0.9-0.9,1.4-1.3C4.5-70,5-70.5,5.3-71
			c0.4-0.5,0.7-1,0.9-1.7c0-0.1,0.1-0.1,0.1-0.3c0.1-0.1,0.1-0.2,0.2-0.3c0.1-0.1,0.2-0.2,0.3-0.2c0.1-0.1,0.3-0.1,0.5-0.1
			c0.1,0,0.2,0,0.3,0c0.1,0,0.1,0,0.1,0.1c0,0,0.1,0,0.1,0.1c0,0,0.1,0,0.2,0c0.3,0,0.4,0.1,0.5,0.1c0.1,0.1,0.2,0.2,0.3,0.3
			C9-72.7,9-72.6,9-72.5s0,0.2-0.1,0.3c-0.1,0.1-0.1,0.1-0.2,0.2c-0.1,0.1-0.2,0.1-0.3,0.2c-0.1,0.1-0.2,0.2-0.3,0.3
			c-0.6,1-1,1.8-1.3,2.5c-0.3,0.7-0.4,1.3-0.4,1.9c0,0.4,0.1,0.8,0.2,1.2c0.1,0.4,0.3,0.8,0.6,1.2c0,0.1,0.1,0.1,0.1,0.2
			c0,0,0.1,0,0.1,0.1c0.1,0,0.2,0.1,0.2,0.2c0.1,0.1,0.1,0.2,0.1,0.3c0,0.1-0.1,0.2-0.2,0.3c-0.1,0.1-0.2,0.1-0.4,0.1
			c-0.2,0-0.3,0-0.5-0.1c-0.1,0-0.3-0.1-0.5-0.1c-0.1,0-0.3-0.1-0.5-0.3c-0.2-0.2-0.4-0.5-0.7-1c-0.1-0.3-0.3-0.6-0.4-1
			c-0.1-0.4-0.2-0.8-0.2-1.1c0-0.1,0-0.1-0.1-0.1c0,0-0.1,0-0.2,0.1c-0.3,0.2-0.6,0.5-0.9,0.8c-0.3,0.3-0.6,0.6-0.9,0.9
			c-0.3,0.3-0.7,0.5-1,0.7c-0.4,0.2-0.8,0.3-1.3,0.3c-0.4,0-0.8-0.1-1.2-0.3c-0.5-0.2-0.8-0.5-0.9-0.6c-0.1-0.2-0.2-0.4-0.2-0.5
			c0-0.2,0-0.3,0-0.3c0,0,0-0.1-0.1-0.1c0,0-0.1,0-0.2,0.1c-0.4,0.4-0.8,0.7-1.2,0.9C-4.1-65-4.6-64.8-5-64.6
			c-0.1,0-0.2,0.1-0.2,0.1c-0.1,0-0.1,0-0.2,0c-0.4,0-0.7-0.1-1.1-0.2c-0.4-0.1-0.7-0.3-1-0.5c0,0-0.1-0.1-0.1-0.1
			c0,0-0.1-0.1-0.1-0.2c-0.1-0.4-0.1-0.8-0.1-1.2c0-0.6,0.1-1.1,0.3-1.6c0.2-0.5,0.4-1,0.6-1.5c0.2-0.5,0.5-1,0.8-1.4
			c0.3-0.5,0.5-0.9,0.8-1.4c0.2-0.4,0.3-0.6,0.4-0.9s0.2-0.4,0.3-0.6c0.1-0.2,0.2-0.3,0.3-0.5S-4.1-74.8-4-75c0-0.1,0.2-0.3,0.4-0.5
			c0.2-0.2,0.6-0.3,1-0.3c0.3,0,0.5,0.1,0.7,0.2C-1.7-75.6-1.7-75.5-1.7-75.5z"/>
		<path fill="#FFFFFF" d="M14.4-74.2c-0.2,0.6-0.4,1.2-0.5,1.7c0,0,0,0,0,0c0.5-0.6,1.1-1.2,1.6-1.7c0.6-0.6,1.1-1,1.7-1.3
			c0.1-0.1,0.2-0.1,0.3-0.1c0,0,0.1,0,0.1,0c0.4,0,0.7,0.1,1,0.3s0.7,0.4,1,0.6c0.1,0.1,0.2,0.2,0.3,0.3c0.1,0.1,0.2,0.3,0.2,0.6
			c0,0.4,0,0.7,0,1c0,0.2-0.1,0.5-0.1,0.7c0,0.1,0,0.2,0,0.3c0,0.1,0,0.3-0.1,0.5c-0.2,0.5-0.4,1.1-0.6,1.6
			c-0.2,0.6-0.4,1.1-0.7,1.7c-0.3,0.6-0.6,1.1-0.9,1.6c-0.4,0.5-0.8,1-1.2,1.4c-0.1,0.1-0.2,0.1-0.3,0.1c-0.1,0-0.2,0-0.4,0
			c-0.1,0-0.3,0-0.5-0.1S15-65,14.9-65.1c-0.2-0.1-0.3-0.1-0.4-0.2s-0.2-0.2-0.3-0.2c-0.3-0.3-0.6-0.6-0.7-0.9
			c-0.2-0.3-0.4-0.6-0.5-0.9c0-0.1-0.1-0.1-0.1-0.1s-0.1,0-0.1,0.1c-0.4,0.7-0.7,1.4-1,2s-0.6,1.3-0.8,1.9c-0.2,0.7-0.5,1.3-0.7,2.1
			c-0.2,0.7-0.4,1.5-0.6,2.4c-0.1,0.3-0.1,0.5-0.1,0.6c0,0.2-0.1,0.3-0.2,0.4c-0.2,0.1-0.3,0.1-0.4,0.1c-0.1,0-0.3,0-0.4,0
			c-0.1,0-0.3,0-0.4-0.1s-0.2-0.1-0.4-0.3c-0.1-0.1-0.2-0.1-0.2-0.2c-0.1-0.1-0.1-0.2-0.1-0.3c0,0,0-0.1,0-0.2s0-0.2,0.1-0.3
			c0.4-1.2,0.8-2.4,1.3-3.8c0.5-1.4,1-2.8,1.6-4.2c0.5-1.4,1-2.9,1.5-4.3c0.4-1.4,0.8-2.8,1-4.1c0-0.2,0.1-0.4,0.1-0.4
			c0,0,0.1-0.1,0.2-0.1c0.1,0,0.3-0.1,0.4-0.2c0.1-0.1,0.3-0.1,0.5-0.1c0.2,0,0.4,0,0.5,0.1s0.3,0.2,0.3,0.3
			C14.7-75.4,14.6-74.8,14.4-74.2z M15.8-72c-0.6,0.7-1.2,1.4-1.6,2.2C14-69.6,14-69.5,14-69.4c0,0.1,0,0.2,0,0.4
			c0,0.1,0,0.3,0.1,0.6c0.1,0.3,0.2,0.6,0.3,0.9c0.1,0.3,0.3,0.5,0.4,0.8c0.2,0.2,0.3,0.3,0.5,0.3c0.1,0,0.1,0,0.2-0.1
			c0.2-0.2,0.4-0.5,0.6-0.8c0.2-0.4,0.4-0.7,0.6-1.1c0.2-0.4,0.3-0.7,0.4-1c0.1-0.3,0.2-0.5,0.2-0.6c0.2-0.7,0.4-1.2,0.5-1.7
			c0.1-0.5,0.2-0.9,0.3-1.2s0.1-0.5,0.1-0.7c0-0.1,0-0.2,0-0.2c0,0,0-0.1-0.1-0.1c0,0-0.1,0-0.2,0C17.1-73.3,16.4-72.7,15.8-72z"/>
		<path fill="#FFFFFF" d="M23.5-64.2c-0.2-0.1-0.5-0.2-0.7-0.3c-0.3-0.1-0.5-0.3-0.8-0.6c-0.2-0.2-0.4-0.5-0.5-0.9
			c0-0.3-0.1-0.5-0.1-0.8c0-0.6,0.1-1.1,0.3-1.7c0.2-0.6,0.4-1.2,0.7-1.9c0.3-0.7,0.6-1.4,1-2.2c0.4-0.8,0.8-1.6,1.2-2.5
			c0.4-0.8,0.9-1.7,1.4-2.5s1-1.7,1.4-2.4c0.1-0.2,0.2-0.4,0.3-0.6c0.1-0.2,0.2-0.5,0.3-0.7c0.1-0.2,0.2-0.4,0.4-0.5
			c0.1-0.1,0.3-0.2,0.6-0.2c0.2,0,0.3,0,0.4,0c0.1,0,0.2,0,0.4,0c0.1,0,0.2,0,0.4,0.1s0.2,0.1,0.3,0.2c0.1,0.2,0.2,0.4,0.2,0.7
			c0,0.3-0.1,0.6-0.2,0.8c-0.5,0.9-1.1,1.8-1.7,2.6c-0.6,0.9-1.1,1.7-1.7,2.6s-1,1.7-1.5,2.6c-0.5,0.9-0.9,1.8-1.2,2.7
			c-0.2,0.5-0.4,1-0.6,1.5s-0.3,1-0.3,1.5c0,0.1,0,0.3,0,0.4s0,0.3,0.1,0.5c0.1,0.2,0.2,0.3,0.5,0.3c0.2,0,0.3,0,0.4-0.1
			c0.3-0.2,0.5-0.4,0.8-0.7s0.6-0.6,0.8-0.9c0.3-0.3,0.6-0.6,0.9-0.8c0.3-0.2,0.6-0.3,0.8-0.3c0.1,0,0.3,0,0.5,0.1
			c0.2,0.1,0.3,0.2,0.3,0.4c0,0.2,0,0.3-0.1,0.4s-0.2,0.2-0.3,0.3c-0.3,0.3-0.6,0.7-0.9,1.1c-0.3,0.4-0.6,0.7-0.9,1
			c-0.3,0.3-0.7,0.6-1,0.8c-0.4,0.2-0.8,0.3-1.2,0.3C23.8-64.1,23.7-64.1,23.5-64.2z"/>
		<path fill="#FFFFFF" d="M32.7-64.2c-0.1,0-0.2,0-0.4,0c-0.1,0-0.3,0-0.4,0c-0.1,0-0.3-0.1-0.5-0.1c-0.1,0-0.3-0.1-0.4-0.2
			c-0.2-0.1-0.3-0.1-0.5-0.2c-0.2-0.1-0.3-0.1-0.4-0.2c-0.1,0-0.2-0.1-0.2-0.1c-0.2-0.1-0.5-0.3-0.7-0.6s-0.4-0.6-0.5-1
			c-0.1-0.2-0.1-0.6-0.2-0.9c-0.1-0.4-0.1-0.7-0.1-0.9c0-0.1,0-0.2,0-0.3s0-0.3,0.1-0.4c0.3-1.2,0.9-2.4,1.6-3.4
			c0.8-1.1,1.6-2.1,2.5-3.1c0.2-0.2,0.5-0.5,1-0.7s1-0.4,1.6-0.4c0.3,0,0.6,0,0.8,0.1s0.4,0.1,0.7,0.2c0.1,0,0.3,0.2,0.5,0.4
			c0.2,0.2,0.3,0.6,0.3,1.1c0,0.3-0.1,0.6-0.2,0.9c-0.1,0.3-0.2,0.6-0.4,0.8c-0.1,0.2-0.2,0.4-0.3,0.6c-0.1,0.2-0.2,0.3-0.4,0.5
			c-0.4,0.5-0.8,0.9-1.3,1.4c-0.4,0.5-0.9,1-1.4,1.4c-0.5,0.4-0.9,0.9-1.4,1.2c-0.5,0.4-1,0.7-1.5,1c-0.1,0.1-0.1,0.1-0.1,0.2
			c0,0.2,0.1,0.4,0.2,0.6c0.1,0.2,0.3,0.3,0.4,0.4c0.2,0.1,0.5,0.2,0.7,0.2c0.2,0,0.4,0,0.7-0.1c0.2-0.1,0.6-0.3,1.2-0.6
			c0.4-0.2,0.8-0.5,1.1-0.7s0.7-0.5,1-0.8s0.6-0.5,0.9-0.8c0.3-0.3,0.7-0.5,1-0.7c0.1-0.1,0.2-0.1,0.3-0.1c0.1,0,0.1,0,0.2,0
			c0.1,0,0.2,0,0.3,0.1c0.1,0.1,0.2,0.2,0.2,0.3c0,0.1,0,0.2,0,0.2s0,0.1,0,0.1c0,0,0,0.1,0,0.2c0,0.1,0,0.1-0.1,0.2
			c-0.3,0.2-0.6,0.5-0.8,0.8c-0.2,0.3-0.6,0.6-0.9,0.9c-0.4,0.3-0.8,0.7-1.4,1.1c-0.6,0.4-1.3,0.9-2.2,1.4
			C32.9-64.3,32.7-64.3,32.7-64.2z M35.2-74.6c0.1-0.2,0.1-0.4,0.1-0.6c0-0.1,0-0.2,0-0.2s-0.1-0.1-0.1-0.1c-0.1,0-0.2,0-0.3,0.1
			c-0.1,0-0.2,0.1-0.2,0.1c-0.1,0.1-0.2,0.1-0.3,0.1c0,0-0.1,0.1-0.2,0.2c-0.4,0.4-0.8,0.7-1.2,1.2c-0.4,0.4-0.8,0.9-1.1,1.3
			c-0.3,0.5-0.6,1-0.9,1.5c-0.3,0.5-0.5,1-0.6,1.6c0,0.1,0,0.1,0,0.1s0.1,0,0.2-0.1c0.7-0.5,1.4-1.1,2-1.8s1.2-1.3,1.7-1.9
			c0.1-0.1,0.2-0.2,0.2-0.3c0-0.1,0.1-0.1,0.1-0.2c0-0.1,0.1-0.1,0.1-0.2s0.1-0.2,0.2-0.3C35-74.3,35.1-74.4,35.2-74.6z"/>
		<path fill="#FFFFFF" d="M52.4-74.9c0.1,0.3,0.1,0.6,0.1,0.8c0,0.5-0.1,0.9-0.2,1.2c-0.1,0.3-0.3,0.6-0.5,0.8
			c-0.1,0.1-0.2,0.2-0.2,0.2c0,0-0.1,0-0.1,0c-0.1,0-0.3,0-0.5-0.1c-0.2-0.1-0.3-0.1-0.4-0.2c-0.2-0.2-0.4-0.4-0.4-0.8
			c0,0,0-0.1,0.1-0.2c0.1-0.2,0.2-0.4,0.3-0.5c0.1-0.2,0.1-0.4,0.1-0.6c0-0.1,0-0.2,0-0.3c0-0.1-0.1-0.2-0.1-0.3
			c0-0.1-0.1-0.2-0.2-0.2c-0.1-0.1-0.2-0.1-0.3-0.1c0,0-0.1,0.1-0.3,0.2c-0.1,0.2-0.3,0.3-0.4,0.6c-0.2,0.2-0.3,0.5-0.5,0.8
			c-0.1,0.3-0.2,0.6-0.3,0.9c0,0.1,0,0.2,0,0.3c0,0.1,0,0.2,0,0.4c0,0,0,0.1,0,0.3c0,0.1,0,0.3,0,0.5s0,0.3,0,0.5c0,0.2,0,0.3,0,0.3
			c0,0.4,0.1,0.9,0.2,1.5c0.1,0.5,0.2,1.1,0.3,1.6c0.1,0.5,0.2,1,0.2,1.4c0.1,0.4,0.1,0.8,0.1,1c0,0.2-0.1,0.3-0.2,0.4
			c-0.2,0.2-0.5,0.4-0.7,0.6c-0.2,0.2-0.5,0.3-0.8,0.3c-0.2,0-0.4,0-0.6-0.1c-0.8-0.3-1.5-0.8-2.1-1.3c-0.6-0.6-1.1-1.2-1.5-1.9
			c0-0.1-0.1-0.1-0.1-0.2s0-0.1,0-0.2c0-0.2,0.1-0.4,0.2-0.6c0.2-0.2,0.4-0.3,0.6-0.3c0.2,0,0.4,0,0.6,0.1c0.1,0,0.2,0.1,0.4,0.3
			c0.1,0.2,0.3,0.4,0.4,0.6s0.2,0.4,0.3,0.6c0.1,0.2,0.2,0.4,0.4,0.6c0.1,0.2,0.3,0.4,0.5,0.5c0.1,0.1,0.2,0.2,0.3,0.2
			c0.1,0,0.1,0,0.2,0c0.2,0,0.2-0.1,0.2-0.2c0,0,0-0.1,0-0.2c0-0.1,0-0.3-0.1-0.6c-0.1-0.4-0.2-0.9-0.3-1.5
			c-0.1-0.6-0.2-1.2-0.3-1.8c-0.1-0.6-0.1-1.1-0.2-1.5s-0.1-0.7-0.1-0.9c0-0.2,0-0.4,0-0.6c0-0.2,0.1-0.5,0.2-0.8
			c0.1-0.3,0.2-0.5,0.3-0.8c0.1-0.3,0.2-0.5,0.4-0.7c0.4-0.6,0.7-1,1.2-1.2c0.4-0.2,0.7-0.3,1-0.3c0.7,0,1.1,0.1,1.5,0.2
			c0.3,0.2,0.6,0.4,0.9,0.6C52.2-75.5,52.3-75.3,52.4-74.9z"/>
		<path fill="#FFFFFF" d="M57.4-64.2c-0.1,0-0.2,0-0.4,0c-0.1,0-0.3,0-0.4,0c-0.1,0-0.3-0.1-0.5-0.1c-0.1,0-0.3-0.1-0.4-0.2
			c-0.2-0.1-0.3-0.1-0.5-0.2c-0.2-0.1-0.3-0.1-0.4-0.2c-0.1,0-0.2-0.1-0.2-0.1c-0.2-0.1-0.5-0.3-0.7-0.6s-0.4-0.6-0.5-1
			c-0.1-0.2-0.1-0.6-0.2-0.9c-0.1-0.4-0.1-0.7-0.1-0.9c0-0.1,0-0.2,0-0.3s0-0.3,0.1-0.4c0.3-1.2,0.9-2.4,1.6-3.4
			c0.8-1.1,1.6-2.1,2.5-3.1c0.2-0.2,0.5-0.5,1-0.7s1-0.4,1.6-0.4c0.3,0,0.6,0,0.8,0.1s0.4,0.1,0.7,0.2c0.1,0,0.3,0.2,0.5,0.4
			c0.2,0.2,0.3,0.6,0.3,1.1c0,0.3-0.1,0.6-0.2,0.9c-0.1,0.3-0.2,0.6-0.4,0.8c-0.1,0.2-0.2,0.4-0.3,0.6c-0.1,0.2-0.2,0.3-0.4,0.5
			c-0.4,0.5-0.8,0.9-1.3,1.4c-0.4,0.5-0.9,1-1.4,1.4c-0.5,0.4-0.9,0.9-1.4,1.2c-0.5,0.4-1,0.7-1.5,1c-0.1,0.1-0.1,0.1-0.1,0.2
			c0,0.2,0.1,0.4,0.2,0.6c0.1,0.2,0.3,0.3,0.4,0.4c0.2,0.1,0.5,0.2,0.7,0.2c0.2,0,0.4,0,0.7-0.1c0.2-0.1,0.6-0.3,1.2-0.6
			c0.4-0.2,0.8-0.5,1.1-0.7s0.7-0.5,1-0.8s0.6-0.5,0.9-0.8c0.3-0.3,0.7-0.5,1-0.7c0.1-0.1,0.2-0.1,0.3-0.1c0.1,0,0.1,0,0.2,0
			c0.1,0,0.2,0,0.3,0.1c0.1,0.1,0.2,0.2,0.2,0.3c0,0.1,0,0.2,0,0.2s0,0.1,0,0.1c0,0,0,0.1,0,0.2c0,0.1,0,0.1-0.1,0.2
			c-0.3,0.2-0.6,0.5-0.8,0.8c-0.2,0.3-0.6,0.6-0.9,0.9c-0.4,0.3-0.8,0.7-1.4,1.1c-0.6,0.4-1.3,0.9-2.2,1.4
			C57.7-64.3,57.5-64.3,57.4-64.2z M60-74.6c0.1-0.2,0.1-0.4,0.1-0.6c0-0.1,0-0.2,0-0.2S60-75.5,60-75.5c-0.1,0-0.2,0-0.3,0.1
			c-0.1,0-0.2,0.1-0.2,0.1c-0.1,0.1-0.2,0.1-0.3,0.1c0,0-0.1,0.1-0.2,0.2c-0.4,0.4-0.8,0.7-1.2,1.2c-0.4,0.4-0.8,0.9-1.1,1.3
			c-0.3,0.5-0.6,1-0.9,1.5c-0.3,0.5-0.5,1-0.6,1.6c0,0.1,0,0.1,0,0.1s0.1,0,0.2-0.1c0.7-0.5,1.4-1.1,2-1.8s1.2-1.3,1.7-1.9
			c0.1-0.1,0.2-0.2,0.2-0.3c0-0.1,0.1-0.1,0.1-0.2c0-0.1,0.1-0.1,0.1-0.2s0.1-0.2,0.2-0.3C59.8-74.3,59.9-74.4,60-74.6z"/>
		<path fill="#FFFFFF" d="M73.6-74.6c0.1,0.1,0.2,0.1,0.3,0.1c0.1,0,0.2,0,0.3,0c0.1,0,0.3,0.1,0.4,0.3c0,0,0,0.1,0,0.1
			c0,0.1,0,0.2-0.1,0.3c-0.3,0.4-0.5,0.8-0.8,1.1c-0.3,0.4-0.5,0.8-0.8,1.2c-0.2,0.4-0.5,0.9-0.7,1.3c-0.2,0.4-0.4,0.9-0.5,1.4
			c-0.1,0.3-0.2,0.7-0.2,1c-0.1,0.4-0.1,0.7-0.1,1.1c0,0.3,0,0.6,0.1,0.9c0.1,0.3,0.2,0.6,0.4,0.9c0,0.1,0,0.1,0,0.1s0,0.1-0.1,0.2
			c-0.1,0.1-0.2,0.1-0.4,0.2c-0.1,0-0.2,0-0.2,0.1c-0.1,0-0.1,0-0.2,0c-0.2,0-0.4,0-0.6-0.1c-0.2-0.1-0.4-0.2-0.4-0.4
			c-0.2-0.4-0.3-0.7-0.3-1c-0.1-0.3-0.1-0.7-0.1-1c0-0.4,0-0.7,0-0.9s0-0.3,0-0.3c0-0.1,0-0.1-0.1-0.1c-0.1,0-0.3,0.1-0.6,0.4
			l-1.3,1.2c-0.3,0.3-0.6,0.5-0.9,0.7s-0.5,0.4-0.7,0.5c-0.2,0.1-0.4,0.2-0.6,0.3s-0.4,0.2-0.6,0.2c-0.1,0-0.2,0.1-0.2,0.1
			c-0.1,0-0.1,0-0.2,0c-0.1,0-0.1,0-0.2,0c-0.1,0-0.2-0.1-0.3-0.2c-0.1-0.1-0.3-0.2-0.5-0.3c-0.2-0.1-0.4-0.3-0.7-0.6
			c-0.1,0-0.2-0.2-0.3-0.4c-0.1-0.2-0.2-0.6-0.2-1c0-0.4,0.1-0.9,0.3-1.4c0.2-0.5,0.6-1.3,1.2-2.1c0.7-1.1,1.4-1.9,2-2.4
			c0.6-0.5,1.1-0.9,1.5-1.2c1.2-0.9,2.5-1.5,3.8-1.9c0.2,0,0.3-0.1,0.5-0.1c0.3,0,0.5,0.1,0.8,0.2c0.2,0.1,0.5,0.3,0.7,0.5
			c0.1,0.1,0.1,0.1,0.2,0.2c0.1,0.1,0.1,0.2,0.2,0.3C73.4-74.8,73.5-74.7,73.6-74.6z M71.6-74.6c-0.2,0-0.3,0.1-0.5,0.2
			c-1.1,0.6-2.1,1.2-3,1.9c-0.9,0.7-1.7,1.4-2.4,2.2c-0.3,0.3-0.5,0.6-0.7,0.9c-0.2,0.3-0.4,0.6-0.6,0.9c-0.2,0.3-0.3,0.6-0.4,0.8
			c-0.1,0.3-0.1,0.5-0.1,0.6c0,0.1,0,0.3,0.1,0.4s0.2,0.2,0.4,0.2c0.1,0,0.3-0.1,0.5-0.2c0.2-0.1,0.5-0.3,0.7-0.5
			c0.6-0.5,1.1-1,1.7-1.5c0.6-0.5,1.1-0.9,1.7-1.4c0.5-0.5,1-1,1.5-1.4c0.5-0.5,0.8-1,1.1-1.6c0.1-0.2,0.2-0.3,0.3-0.5
			c0.1-0.2,0.3-0.3,0.4-0.4c0.1-0.1,0.1-0.2,0.1-0.4c0-0.1,0-0.2-0.1-0.3c-0.1-0.1-0.2-0.2-0.4-0.2C71.8-74.6,71.7-74.6,71.6-74.6z"
			/>
		<path fill="#FFFFFF" d="M78.9-74.5c0,0.2,0.1,0.4,0.1,0.6c0,0.3,0,0.6-0.1,1c0,0.1-0.1,0.2-0.1,0.3c0,0,0,0.1,0,0.1
			c0,0,0,0.1,0.1,0.1c0,0,0.2,0,0.3-0.2c1.3-1,2.4-1.7,3.3-2c0.1,0,0.2,0,0.3,0c0.3,0,0.7,0.1,1,0.2c0.3,0.1,0.6,0.3,0.8,0.5
			c0.1,0,0.1,0.1,0.1,0.2c0,0.1,0,0.2,0,0.2c0,0.2,0,0.3-0.1,0.5c-0.1,0.1-0.1,0.2-0.2,0.3c-0.1,0.1-0.2,0.2-0.3,0.2
			c-0.1,0-0.2,0.1-0.2,0.1c-0.2,0-0.4,0-0.5-0.1c-0.2-0.1-0.4-0.1-0.5-0.1c-0.1,0-0.2,0-0.4,0.1c-0.7,0.3-1.3,0.7-1.9,1.1
			c-0.6,0.4-1.2,0.9-1.8,1.5c-0.6,0.6-1,1.2-1.5,2c-0.4,0.7-0.7,1.6-0.9,2.5c-0.1,0.2-0.2,0.4-0.3,0.6c-0.1,0.2-0.2,0.3-0.3,0.4
			c-0.1,0.1-0.1,0.1-0.2,0.2s-0.2,0-0.2,0c-0.2,0-0.3-0.1-0.4-0.2c-0.1-0.1-0.2-0.2-0.3-0.3c-0.1-0.1-0.2-0.3-0.3-0.4
			s-0.1-0.3-0.1-0.5c0-0.2,0.1-0.4,0.2-0.6c0.1-0.2,0.2-0.4,0.4-0.6c0.1-0.2,0.3-0.4,0.4-0.6c0.1-0.2,0.3-0.4,0.3-0.7
			c0.3-0.9,0.6-1.8,0.9-2.7c0.3-0.9,0.6-1.8,0.7-2.8c0-0.1,0-0.2,0-0.3c0-0.1,0-0.1,0-0.1c0-0.1,0-0.2-0.1-0.3
			c-0.1-0.1-0.1-0.2-0.1-0.3c0-0.1,0.1-0.2,0.3-0.3s0.4-0.2,0.7-0.2c0.2,0,0.3,0,0.5,0.1c0.2,0.1,0.3,0.1,0.3,0.2
			C78.7-74.8,78.8-74.6,78.9-74.5z"/>
		<path fill="#FFFFFF" d="M89.3-68.1c0.3-0.2,0.5-0.4,0.8-0.5c0.3-0.2,0.5-0.3,0.7-0.4c0.2-0.1,0.4-0.1,0.6-0.1c0.1,0,0.2,0,0.3,0.1
			c0.1,0.1,0.2,0.1,0.3,0.2c0.1,0.1,0.1,0.1,0.2,0.2s0.1,0.1,0.1,0.1c0,0,0,0.1,0,0.1c0,0,0,0.1,0,0.1c0,0.1,0,0.1,0,0.2
			c0,0-0.1,0.1-0.2,0.1c-0.4,0.2-0.8,0.4-1.2,0.7c-0.4,0.3-0.9,0.7-1.4,1.1c-0.7,0.5-1.3,1-1.9,1.3c-0.6,0.3-1.1,0.5-1.7,0.5
			c-0.3,0-0.6,0-0.9-0.1c-0.3-0.1-0.5-0.2-0.7-0.3c-0.2-0.1-0.4-0.3-0.5-0.4s-0.2-0.2-0.2-0.3c-0.2-0.4-0.3-0.8-0.3-1.1
			c0-0.3,0-0.6,0.1-0.9c0.1-0.3,0.2-0.6,0.3-0.9c0-0.1,0.1-0.2,0.1-0.4c0-0.2,0.1-0.4,0.2-0.5c0.3-0.6,0.6-1.3,1-1.9
			s0.8-1.3,1.2-1.9c0.4-0.6,0.9-1.1,1.3-1.6s1-0.8,1.5-1.1c0.1,0,0.1-0.1,0.2-0.1c0,0,0.1,0,0.2,0c0.4,0,0.9,0.1,1.3,0.3
			c0.5,0.2,0.9,0.4,1.2,0.7c0,0,0.1,0.1,0.1,0.1c0,0,0,0.1,0,0.2c0,0.1,0,0.2,0,0.3c0,0,0,0.1,0,0.1c0,0,0,0.1,0,0.2
			c0,0.1-0.1,0.2-0.2,0.4c-0.1,0.2-0.2,0.3-0.3,0.6s-0.2,0.4-0.3,0.7c-0.1,0.2-0.1,0.5-0.1,0.7c0,0.1,0,0.2-0.1,0.3
			s-0.2,0.1-0.3,0.1c-0.2,0-0.4-0.1-0.5-0.2L89.3-72c-0.2-0.1-0.3-0.3-0.3-0.5c0-0.1,0-0.2,0.1-0.4c0.1-0.1,0.1-0.3,0.2-0.4
			c0.1-0.1,0.1-0.2,0.2-0.4c0.1-0.1,0.1-0.2,0.1-0.3c0,0,0-0.1,0-0.2s-0.1-0.1-0.1-0.1c-0.1,0-0.1,0-0.2,0c0,0-0.1,0.1-0.2,0.2
			c-0.5,0.5-1,1.1-1.5,1.8c-0.5,0.7-1,1.4-1.4,2.1c-0.4,0.8-0.8,1.5-1,2.2c-0.3,0.7-0.4,1.2-0.4,1.5c0,0.2,0,0.3,0.1,0.4
			C84.9-66,85-66,85.1-66c0.6,0,1.1-0.1,1.7-0.4c0.6-0.3,1.1-0.6,1.7-1.1C88.8-67.7,89-67.9,89.3-68.1z"/>
		<path fill="#FFFFFF" d="M100.3-63.8c-0.1,0-0.3,0.1-0.4,0.1c-0.1,0-0.2,0-0.3,0c-0.1,0-0.2-0.1-0.4-0.1c-0.5-0.2-0.8-0.5-1-0.8
			c-0.2-0.4-0.3-0.9-0.3-1.5c0-0.8,0.2-1.7,0.5-2.7c0.2-0.5,0.3-1,0.5-1.4c0.1-0.4,0.3-0.8,0.4-1.1c0.1-0.1,0.1-0.2,0.1-0.3
			c0,0,0,0,0,0c0,0-0.2,0.1-0.3,0.3c-0.4,0.5-0.8,1-1.2,1.5c-0.4,0.6-0.8,1.1-1.2,1.7c-0.4,0.6-0.8,1.1-1.2,1.7
			c-0.4,0.5-0.8,1-1.1,1.4c-0.1,0.1-0.1,0.1-0.1,0.2c0,0-0.1,0.1-0.1,0.1c-0.1,0.1-0.3,0.2-0.4,0.2c-0.2,0.1-0.3,0.1-0.5,0.1
			c-0.1,0-0.2-0.1-0.5-0.2c-0.3-0.1-0.5-0.3-0.7-0.5c-0.1-0.1-0.1-0.2-0.1-0.3c0-0.1,0-0.2,0.1-0.3s0.1-0.2,0.1-0.4
			c0.2-0.9,0.5-1.9,0.8-2.7c0.3-0.9,0.7-1.8,1.1-2.6c0.4-0.9,0.8-1.7,1.2-2.6c0.4-0.8,0.8-1.7,1.2-2.5c0.1-0.2,0.2-0.4,0.2-0.5
			c0-0.1,0.1-0.2,0.2-0.3c0.5-1,1.1-2,1.6-2.9c0.5-0.9,1.1-2,1.7-3.2c0.1-0.1,0.2-0.2,0.3-0.3c0.1,0,0.2-0.1,0.3-0.1
			c0.1,0,0.2,0,0.3,0s0.1,0,0.2,0c0.1,0,0.2,0,0.3,0.1s0.2,0.2,0.3,0.3c0.1,0.1,0.1,0.2,0.2,0.2s0,0.2,0,0.4c0,0.3-0.1,0.6-0.3,0.8
			c-0.2,0.2-0.5,0.6-0.8,0.9c-0.1,0.1-0.2,0.2-0.2,0.3c0,0.1-0.1,0.2-0.2,0.3c-0.5,0.8-1.1,1.6-1.6,2.6c-0.5,1-1,1.9-1.5,3
			c-0.5,1-1,2.1-1.4,3.1c-0.5,1.1-0.9,2.1-1.4,3c-0.1,0.2-0.2,0.3-0.2,0.4c0,0,0,0.1,0,0.1c0,0,0,0,0,0c0,0,0,0,0,0
			c0,0,0.1-0.1,0.1-0.2c1-1.4,1.9-2.6,2.8-3.6c0.9-1.1,1.8-2.1,2.7-3c0.2-0.2,0.3-0.3,0.4-0.4s0.2-0.1,0.3-0.2
			c0.2-0.1,0.4-0.1,0.6-0.1c0.1,0,0.3,0,0.5,0.1c0.2,0,0.3,0.1,0.4,0.1c0.1,0,0.2,0.1,0.2,0.2c0.1,0.1,0.1,0.2,0.1,0.3
			c0,0.4-0.1,0.7-0.2,1s-0.3,0.6-0.5,0.9c-0.2,0.3-0.3,0.5-0.4,0.8c-0.1,0.2-0.2,0.5-0.3,0.7c-0.3,0.8-0.6,1.6-0.9,2.5
			c-0.3,0.9-0.4,1.8-0.4,2.6c0,0.6,0.1,1,0.2,1.2c0.1,0.2,0.3,0.3,0.4,0.4c0.1,0,0.2,0.1,0.3,0.1c0.1,0,0.2,0,0.3,0.1
			c0.1,0,0.2,0.1,0.2,0.2c0,0,0,0.1,0,0.1c0,0-0.1,0.1-0.1,0.2c0,0.1-0.1,0.1-0.2,0.2c-0.1,0.1-0.2,0.1-0.3,0.1
			C100.6-63.9,100.5-63.8,100.3-63.8z"/>
		<path fill="#FFFFFF" d="M107.4-66.4c0,0.1,0.1,0.1,0.1,0.2c0,0.1,0,0.2,0,0.4c0,0.1-0.1,0.3-0.1,0.5c-0.1,0.2-0.2,0.4-0.3,0.6
			c-0.1,0.2-0.3,0.3-0.5,0.3c-0.1,0-0.2,0-0.3,0s-0.3,0-0.6,0c-0.1,0-0.2-0.1-0.3-0.2c-0.1-0.1-0.2-0.2-0.2-0.4
			c-0.1-0.2-0.1-0.3-0.2-0.5s-0.1-0.3-0.1-0.4c0-0.1,0-0.2,0-0.3s0.1-0.2,0.2-0.3c0-0.1,0.1-0.2,0.1-0.3c0-0.2,0.2-0.2,0.4-0.2
			c0.2,0,0.3,0,0.4,0.1c0.1,0,0.2,0.1,0.4,0.2c0.1,0.1,0.2,0.1,0.3,0.2c0.1,0,0.3,0.1,0.4,0.1C107.2-66.5,107.3-66.4,107.4-66.4z
			 M111-79.3c0.1,0.1,0.2,0.2,0.2,0.3c0,0.4-0.1,0.8-0.3,1.2c-0.2,0.4-0.3,0.7-0.5,1.1c-0.2,0.7-0.4,1.3-0.6,1.9
			c-0.2,0.6-0.4,1.3-0.5,1.9c-0.2,0.6-0.4,1.2-0.6,1.9s-0.4,1.2-0.7,1.8c-0.1,0.2-0.2,0.3-0.3,0.3c-0.2,0-0.3,0-0.4-0.1
			c-0.1-0.1-0.1-0.1-0.1-0.2c0-0.2-0.1-0.3-0.2-0.4c-0.1-0.1-0.1-0.2-0.2-0.2c-0.1-0.1-0.1-0.1-0.2-0.2c-0.1-0.1-0.1-0.1-0.1-0.2
			s0-0.1,0-0.2c0-0.1,0-0.1,0.1-0.2c0.1-0.2,0.1-0.4,0.2-0.5c0-0.1,0.1-0.3,0.1-0.5c0.1-0.6,0.3-1.1,0.4-1.7
			c0.1-0.5,0.3-1.1,0.4-1.6c0.1-0.5,0.3-1,0.4-1.6s0.2-1.1,0.3-1.7c0-0.2,0.1-0.4,0.1-0.6c0-0.2,0.1-0.4,0.2-0.6
			c0.1-0.2,0.2-0.4,0.3-0.5s0.3-0.2,0.4-0.2c0.1,0,0.2,0,0.3,0.1c0.1,0.1,0.2,0.1,0.3,0.1c0.2,0,0.3,0.1,0.3,0.2
			c0,0.1,0.1,0.1,0.2,0.2C110.7-79.5,110.9-79.4,111-79.3z"/>
	</g>
</g>
</svg>
