<?xml version="1.0" encoding="utf-8"?>
<!-- Generator: Adobe Illustrator 18.1.1, SVG Export Plug-In . SVG Version: 6.00 Build 0)  -->
<svg version="1.1" id="Layer_1" xmlns="http://www.w3.org/2000/svg" xmlns:xlink="http://www.w3.org/1999/xlink" x="0px" y="0px"
	 width="232.2px" height="71px" viewBox="0 0 232.2 71" enable-background="new 0 0 232.2 71" xml:space="preserve">
<g>
	<g>
		<path fill="#313438" d="M0,3c0.6-0.3,1.3-0.4,2-0.4h7.7v33.9c0,0.6-0.2,1.4-0.4,2H13c-0.2-0.6-0.4-1.4-0.4-2V2.6h7.7
			c0.7,0,1.4,0.1,2,0.4V0H0V3z M26.4,16.3h-0.1V12h-2.9c0.2,0.6,0.4,1.4,0.4,2v22.5c0,0.6-0.2,1.4-0.4,2h3.4c-0.2-0.6-0.4-1.4-0.4-2
			V20.7c1.5-4.6,4.3-6.2,7.9-6.2c0.6,0,1.3,0.1,1.8,0.3v-3.1c-0.5,0.2-1.1,0.3-1.8,0.3C31.3,12,27.7,13.5,26.4,16.3z M62.1,16.5
			c-0.6,0-1.3-0.3-2.1-1c-2.7-2.5-6.4-4.4-10.1-4.4c-7.1,0-13.7,5.8-13.7,14.1c0,8.3,6.5,14.1,13.7,14.1c3.9,0,6.8-1.5,9.1-4.8h0.1
			v3.9h2.9c-0.2-0.6-0.4-1.4-0.4-2V18.5C61.7,17.9,61.9,17.1,62.1,16.5z M59.2,30.6c-1.1,3.8-5.5,6.3-9.3,6.3
			c-6.4,0-11.2-5.3-11.2-11.7c0-6.4,4.8-11.7,11.2-11.7c4.2,0,9,3.2,9.3,6.2V30.6z M87.3,12c0.2,0.3,0.3,0.6,0.3,0.9
			c0,0.3-0.1,0.6-0.2,0.9l-9.9,20.6l-9.5-20.4c-0.2-0.5-0.3-0.8-0.3-1c0-0.3,0.1-0.6,0.3-0.9h-4.1c0.4,0.5,0.8,1,1,1.5l12.5,25.8
			h0.1l12.9-25.8c0.3-0.5,0.6-1.1,1-1.6H87.3z M104.1,11.1c-7,0-13.2,6.4-13.2,14.1c0,7.7,6.2,14.1,13.2,14.1c1.5,0,3-0.2,4.1-0.4
			c1.2-0.2,2.1-0.4,2.3-0.4c0.4,0,0.6,0,0.9,0.1c0.3,0.1,0.6,0.1,0.9,0.2v-3.7c-2.1,1.1-4.8,1.8-7.4,1.8c-6.3,0-10.4-4.1-11.7-10.8
			h24.4C117.7,17.7,112.3,11.1,104.1,11.1z M104.3,13.5c6.4,0,9.9,4.9,11,10.3H93.3C94.5,18.4,98,13.5,104.3,13.5z M125.7,0h-2.9
			c0.2,0.6,0.4,1.4,0.4,2v34.5c0,0.6-0.2,1.4-0.4,2h3.4c-0.2-0.6-0.4-1.4-0.4-2V0z M137.5,0h-3.8c0.2,0.6,0.4,1.4,0.4,2v34.5
			c0,0.6-0.2,1.4-0.4,2h3.8c-0.2-0.6-0.4-1.4-0.4-2V2C137.1,1.4,137.3,0.6,137.5,0z M143.1,17.1l12.5-15.1c0.6-0.8,1.4-1.4,2-2.1
			h-5.2c0.2,0.2,0.3,0.5,0.3,0.9c0,0.5-0.8,1.3-1.7,2.4l-13,15.8c11.9,0.6,18.5,9.2,18.5,17.4c0,0.6-0.2,1.4-0.4,2h3.8
			c-0.2-0.6-0.4-1.4-0.4-2C159.4,27,152,18.9,143.1,17.1z M175.4,11.1c-7,0-13.2,6.4-13.2,14.1c0,7.7,6.2,14.1,13.2,14.1
			c1.5,0,3-0.2,4.1-0.4c1.2-0.2,2.1-0.4,2.3-0.4c0.4,0,0.6,0,0.9,0.1c0.3,0.1,0.6,0.1,0.9,0.2v-3.7c-2.1,1.1-4.8,1.8-7.4,1.8
			c-6.3,0-10.4-4.1-11.7-10.8H189C189,17.7,183.6,11.1,175.4,11.1z M175.6,13.5c6.4,0,9.9,4.9,11,10.3h-22.1
			C165.8,18.4,169.2,13.5,175.6,13.5z M211.9,12.9c0,0.3-0.2,0.6-0.3,0.9l-9.3,19.8L193,13.7c-0.1-0.3-0.3-0.6-0.3-0.8
			c0-0.3,0.1-0.6,0.3-0.9h-4c0.3,0.4,0.7,1,0.9,1.5l10.6,23.1L195,48.2c-0.3,0.6-0.8,1.3-1.1,1.9h4.1c-0.2-0.3-0.3-0.6-0.3-0.9
			c0-0.7,0.2-1,0.4-1.5l16.4-33.8c0.3-0.6,0.8-1.3,1.2-1.9h-4.2C211.8,12.3,211.9,12.6,211.9,12.9z M219.4,18.2
			c0-2.9,1.8-4.7,4.8-4.7c2,0,3.6,0.7,5.4,1.6v-3.8c-0.5,0.2-1.1,0.3-1.8,0.3c-0.3,0-0.9-0.1-1.6-0.3c-0.7-0.1-1.5-0.2-2.2-0.2
			c-3.6,0-7,2.7-7,6.8c0,8.5,12.9,7.1,12.8,13.8c0,3.8-3.6,5.3-6.8,5.3c-2.2,0-4.9-1.1-6.6-2.3v3.9c0.5-0.2,1.1-0.3,1.8-0.3
			c0.9,0,2.3,1.1,5.4,1.1c4.8,0,8.6-3.5,8.6-7.6C232.2,22.2,219.3,24,219.4,18.2z"/>
	</g>
</g>
<g>
	<path fill="#A3A9AF" d="M10.3,51.8c0.3-1,0.1-1.4-0.9-1.4H8.6c-0.2,0-0.2-0.1-0.2-0.2l0.2-0.5c0-0.1,0.1-0.1,0.3-0.1
		c0.2,0,1.2,0.1,3,0.1c1.9,0,2.9-0.1,3.1-0.1c0.1,0,0.2,0.1,0.2,0.2L15,50.3c0,0.1-0.1,0.2-0.3,0.2h-1c-0.8,0-1.2,0.2-1.6,1.5
		L8.8,63.1c-0.2,0.5,0.1,0.6,0.6,0.6h0.9c1.4,0,4.1,0,4.6-0.1c0.4-0.1,0.6-0.2,0.8-0.4c0.4-0.4,1.7-2.4,1.8-2.5c0-0.1,0.1-0.1,0.2,0
		l0.2,0.1c0.1,0,0.2,0.1,0.1,0.2c-0.1,0.2-0.8,2.9-0.9,3.5c0,0.2-0.2,0.4-0.3,0.4c-0.1,0-0.3-0.1-0.6-0.1c-0.2-0.1-0.5-0.1-0.8-0.1
		c-0.5,0-3.3-0.1-5.1-0.1c-2.5,0-5.2,0.1-5.4,0.1c-0.1,0-0.2,0-0.2-0.2l0.1-0.4c0-0.1,0.1-0.2,0.2-0.2h0.5c1,0,1.4-0.2,1.8-1.6
		L10.3,51.8z"/>
	<path fill="#A3A9AF" d="M28.3,55.5c0.2,0,0.2,0.1,0.2,0.2l-1.7,4.6c-0.6,1.7-0.9,2.7-0.9,2.9c0,0.2,0,0.2,0.2,0.3
		c0.3,0,1.5-1.1,1.7-1.4c0-0.1,0.1-0.1,0.2,0l0.2,0.2c0.1,0.1,0.1,0.1,0,0.2c-0.1,0.1-2.1,2.2-3.6,2.2c-0.3,0-0.4-0.2-0.4-0.5
		s1.1-3,1.4-3.8l-0.1-0.1c-0.9,1.3-3.3,4.3-5.4,4.3c-0.4,0-0.8-0.4-0.8-0.9c0-0.7,0.7-2.1,1.6-4.1c0.6-1.4,1.1-2.4,1.1-2.8
		c0-0.2-0.2-0.3-0.4-0.3c-0.4,0-1.5,1-1.7,1.3c-0.1,0.1-0.1,0.1-0.2,0l-0.2-0.2c-0.1,0-0.1-0.1,0-0.2c0.2-0.2,2-2.1,3.4-2.1
		c0.4,0,0.6,0.4,0.6,0.8c0,0.5-0.5,1.8-1.4,3.8c-0.6,1.3-1.2,2.7-1.2,3.2c0,0.2,0.2,0.4,0.4,0.4c1.2,0,3.5-2.9,4.1-3.8
		c0.4-0.6,0.8-1.2,1-1.9l0.8-2.1c0-0.1,0.2-0.2,0.3-0.2H28.3z"/>
	<path fill="#A3A9AF" d="M32.8,57.3c-0.1-0.3-0.2-0.4-0.4-0.4c-0.4,0-0.9,0.7-1.4,1.7c0,0.1-0.1,0.1-0.2,0.1l-0.3-0.2
		c-0.1,0-0.1-0.1,0-0.2c0.1-0.3,1.5-3,2.6-3c0.5,0,0.7,0.2,1,1.2l0.7,2.5c1-1.2,1.7-2.3,2.3-2.9c0.4-0.4,0.9-0.9,1.5-0.9
		c0.4,0,0.6,0.3,0.6,0.7c0,0.7-0.3,1.8-0.6,2.6c0,0.1-0.1,0.1-0.2,0.1l-0.3-0.1c-0.1,0-0.2-0.1-0.2-0.2c0.4-1.2,0.4-1.7,0-1.7
		c-0.5,0-1.7,1.6-2.9,3.1l1,2.9c0.1,0.4,0.4,0.6,0.6,0.6c0.5,0,1.3-1.3,1.4-1.5c0-0.1,0.1-0.1,0.2,0l0.3,0.1c0.1,0,0.1,0.1,0.1,0.2
		c-0.3,0.5-1.4,2.6-2.7,2.6c-0.5,0-0.8-0.3-1-0.9l-0.9-3c-1.4,1.8-2.9,3.9-3.8,3.9c-0.6,0-0.8-0.3-0.8-0.8c0-0.5,0.3-1.8,0.5-2.3
		c0-0.1,0.1-0.1,0.2-0.1l0.3,0.1c0.1,0,0.1,0.1,0.1,0.2c-0.4,1.3-0.1,1.6,0.2,1.6c0.5,0,2.1-2,3.1-3.3L32.8,57.3z"/>
	<path fill="#A3A9AF" d="M49.5,55.5c0.2,0,0.2,0.1,0.2,0.2L48,60.3c-0.6,1.7-0.9,2.7-0.9,2.9c0,0.2,0,0.2,0.2,0.3
		c0.3,0,1.5-1.1,1.7-1.4c0-0.1,0.1-0.1,0.2,0l0.2,0.2c0.1,0.1,0.1,0.1,0,0.2c-0.1,0.1-2.1,2.2-3.6,2.2c-0.3,0-0.4-0.2-0.4-0.5
		s1.1-3,1.4-3.8l-0.1-0.1c-0.9,1.3-3.3,4.3-5.4,4.3c-0.4,0-0.8-0.4-0.8-0.9c0-0.7,0.7-2.1,1.6-4.1c0.6-1.4,1.1-2.4,1.1-2.8
		c0-0.2-0.2-0.3-0.4-0.3c-0.4,0-1.5,1-1.7,1.3c-0.1,0.1-0.1,0.1-0.2,0l-0.2-0.2c-0.1,0-0.1-0.1,0-0.2c0.2-0.2,2-2.1,3.4-2.1
		c0.4,0,0.6,0.4,0.6,0.8c0,0.5-0.5,1.8-1.4,3.8c-0.6,1.3-1.2,2.7-1.2,3.2c0,0.2,0.2,0.4,0.4,0.4c1.2,0,3.5-2.9,4.1-3.8
		c0.4-0.6,0.8-1.2,1-1.9l0.8-2.1c0-0.1,0.2-0.2,0.3-0.2H49.5z"/>
	<path fill="#A3A9AF" d="M51.3,64.5c-0.2,0-0.2-0.1-0.2-0.2l1.2-3.6c0.4-1.2,1.1-3.5,1.1-3.9c0-0.2-0.2-0.3-0.4-0.3
		c-0.4,0-1.4,1-1.7,1.4c0,0.1-0.1,0-0.2,0l-0.2-0.2c0,0,0-0.1,0-0.2c0.5-0.7,1.8-2.2,3.3-2.2c0.4,0,0.6,0.4,0.6,0.8
		c0,0.4-0.4,1.6-0.8,3.1l0.1,0c0.6-1.2,2.4-3.9,3.6-3.9c0.6,0,1,0.4,1,1c0,0.6-0.4,1-0.9,1c-0.2,0-0.4,0-0.6-0.2
		c-0.2-0.2-0.3-0.3-0.6-0.3c-0.6,0-1.8,1.9-2.7,3.3c-0.3,0.4-0.5,0.9-0.9,1.9l-0.7,2.2c0,0.2-0.1,0.2-0.3,0.2H51.3z"/>
	<path fill="#A3A9AF" d="M59,58.5c0,0-0.1-0.1,0-0.2c0.1-0.3,1.3-3,2.6-3c0.7,0,0.9,0.5,1.1,2.5c0.2,2.5,0.4,5.1,0.4,6.5l0.1,0
		c0.6-1,1.9-3.6,2.2-4.7c0.1-0.4,0.3-1,0.3-1.9c0-0.2,0-0.6-0.1-0.8c-0.1-0.2-0.2-0.5-0.2-0.8c0-0.4,0.2-0.8,0.9-0.8
		c0.6,0,0.9,0.5,0.9,1.1c0,1.4-0.8,3.3-1.5,4.7c-1,2.1-3.3,6.1-5.2,7.9c-0.6,0.6-2,2-3.3,2c-0.9,0-1.2-0.5-1.2-1
		c0-0.5,0.5-0.9,0.9-0.9c0.4,0,0.6,0.2,0.8,0.4c0.2,0.1,0.4,0.3,0.6,0.3c0.2,0,0.6-0.1,1-0.5c1.2-0.9,2.1-2.2,2.4-3
		c0.2-0.4,0.2-0.9,0.2-1.2c0-0.5-0.5-6.5-0.7-7.6c-0.1-0.4-0.2-0.6-0.4-0.6c-0.4,0-1.1,1.3-1.3,1.8c0,0.1-0.1,0.1-0.2,0.1L59,58.5z"
		/>
	<path fill="#A3A9AF" d="M77.7,60.8c-0.1,0.5,0.2,0.5,0.5,0.1l6.7-9c0.6-0.8,0.6-1.4,0-1.4h-0.7c-0.2,0-0.3-0.1-0.2-0.3l0.1-0.4
		c0-0.1,0.1-0.2,0.3-0.2c0.3,0,1,0.1,2.4,0.1c1.3,0,1.8-0.1,2.1-0.1c0.2,0,0.3,0.1,0.2,0.2L89,50.2c0,0.2-0.1,0.2-0.2,0.2h-0.7
		c-0.8,0-1.5,0.8-2.3,1.7l-9.5,12.3c-0.1,0.2-0.4,0.4-0.6,0.4c-0.3,0-0.4-0.3-0.3-0.8l1.8-12.5c0.1-0.7-0.1-1.2-1-1.2h-0.7
		c-0.2,0-0.3,0-0.3-0.2l0.1-0.4c0-0.2,0-0.2,0.2-0.2c0.3,0,1.2,0.1,2.8,0.1c1.6,0,2.5-0.1,2.8-0.1c0.2,0,0.3,0.1,0.2,0.2l-0.1,0.5
		c0,0.1-0.1,0.2-0.2,0.2h-0.7c-0.8,0-1.2,0.3-1.3,1L77.7,60.8z"/>
	<path fill="#A3A9AF" d="M93.8,55.3c0.1,0,0.1,0.1,0.1,0.2c-0.4,0.9-1.5,3.9-1.7,4.3c-0.1,0.4-1.1,3.1-1.1,3.3s0.1,0.3,0.2,0.3
		c0.3,0,1.4-1.1,1.5-1.3c0.1-0.1,0.1-0.1,0.2,0l0.2,0.2c0.1,0.1,0.1,0.1,0,0.2c-0.2,0.4-2.2,2.3-3.4,2.3c-0.3,0-0.5-0.1-0.5-0.4
		c0-0.3,0.2-1,1.1-3.3l-0.1,0c-0.9,1.4-3.1,3.8-4.7,3.8c-0.5,0-1.2-0.4-1.2-1.4c0-3.2,3.6-8,6.3-8c0.9,0,1.3,0.4,1.6,0.7l0.4-0.6
		c0.1-0.1,0.1-0.2,0.2-0.2H93.8z M91,59.1c0.3-0.6,0.5-1.2,0.5-1.8c0-0.6-0.2-1.3-1-1.3c-2,0-4.4,4.6-4.4,6.7c0,0.5,0.2,0.8,0.6,0.8
		C87.8,63.5,90.6,59.9,91,59.1z"/>
	<path fill="#A3A9AF" d="M94.7,62.7c0-3,2.4-7.3,5-7.3c1,0,1.3,0.8,1.3,1.2c0,0.5-0.5,0.9-0.9,0.9c-0.3,0-0.5-0.2-0.6-0.5
		c-0.1-0.2-0.3-0.6-0.7-0.6c-0.6,0-1.1,0.5-1.6,1.5c-0.6,1.3-0.9,3.2-0.9,3.9c0,1.6,0.5,1.8,0.9,1.8c0.9,0,1.7-0.9,1.9-1.2
		c0.1-0.1,0.1-0.1,0.2-0.1l0.2,0.2c0.1,0,0.1,0.1,0,0.2c-0.3,0.5-1.8,1.9-3.2,1.9C95.6,64.7,94.7,64.1,94.7,62.7z"/>
	<path fill="#A3A9AF" d="M110.2,55.3c0.1,0,0.1,0.1,0.1,0.2c-0.4,0.9-1.5,3.9-1.7,4.3c-0.1,0.4-1.1,3.1-1.1,3.3s0.1,0.3,0.2,0.3
		c0.3,0,1.4-1.1,1.5-1.3c0.1-0.1,0.1-0.1,0.2,0l0.2,0.2c0.1,0.1,0.1,0.1,0,0.2c-0.2,0.4-2.2,2.3-3.4,2.3c-0.3,0-0.5-0.1-0.5-0.4
		c0-0.3,0.2-1,1.1-3.3l-0.1,0c-0.9,1.4-3.1,3.8-4.7,3.8c-0.5,0-1.2-0.4-1.2-1.4c0-3.2,3.6-8,6.3-8c0.9,0,1.3,0.4,1.6,0.7l0.4-0.6
		c0.1-0.1,0.1-0.2,0.2-0.2H110.2z M107.5,59.1c0.3-0.6,0.5-1.2,0.5-1.8c0-0.6-0.2-1.3-1-1.3c-2,0-4.4,4.6-4.4,6.7
		c0,0.5,0.2,0.8,0.6,0.8C104.3,63.5,107.1,59.9,107.5,59.1z"/>
	<path fill="#A3A9AF" d="M114,56.7h-1.5c-0.1,0-0.2,0-0.1-0.2l0.2-0.5c0-0.1,0.1-0.2,0.2-0.2h1.6l1.1-2.6c0.1-0.2,0.2-0.3,0.4-0.3
		c0.2-0.1,0.8-0.3,1-0.4c0.1-0.1,0.2-0.1,0.3-0.1c0.1,0,0.2,0.1,0,0.4l-1.5,2.9h2.2c0.1,0,0.2,0.1,0.1,0.2l-0.2,0.5
		c0,0.1-0.1,0.1-0.2,0.1h-2.2l-2.1,5c-0.3,0.6-0.5,1.2-0.5,1.4c0,0.2,0.1,0.4,0.3,0.4c0.6,0,2.1-1.3,2.2-1.4c0.1-0.1,0.1-0.1,0.2,0
		l0.2,0.3c0.1,0.1,0.1,0.1,0,0.2c-0.3,0.4-2.3,2.2-4,2.2c-0.5,0-0.7-0.2-0.7-0.5c0-0.3,0.1-0.7,0.2-1L114,56.7z"/>
	<path fill="#A3A9AF" d="M118.5,64.1c0-0.5,0.4-1.5,1.3-4l0.6-1.7c0.2-0.6,0.4-1,0.4-1.3c0-0.2-0.1-0.3-0.3-0.3
		c-0.4,0-1.4,1.2-1.8,1.5c-0.1,0.1-0.2,0.1-0.2,0l-0.2-0.2c-0.1-0.1-0.1-0.1-0.1-0.2c0.1-0.1,2.3-2.8,3.7-2.7c0.3,0,0.5,0.2,0.5,0.5
		c0,0.4-0.4,1.4-0.7,2.4l-1.3,3.3c-0.3,0.8-0.4,1.3-0.4,1.5c0,0.2,0.1,0.3,0.2,0.4c0.5-0.1,1.7-1.3,1.8-1.5c0-0.1,0.1-0.1,0.2,0
		l0.2,0.2c0.1,0.1,0.1,0.2,0,0.3c-0.1,0.2-1.9,2.3-3.7,2.3C118.7,64.7,118.5,64.5,118.5,64.1z M121.3,51.3c0-0.6,0.5-1.1,1.1-1.1
		c0.8,0,1.2,0.5,1.2,1.1c0,0.3-0.3,1.1-1.2,1.1C121.5,52.4,121.3,51.5,121.3,51.3z"/>
	<path fill="#A3A9AF" d="M124.1,61.8c0-2.8,2.1-6.5,5-6.5c1.5,0,2.4,1.1,2.4,2.6c0,2.4-1.9,6.8-5.1,6.8
		C125.2,64.7,124.1,63.5,124.1,61.8z M130.6,57.5c0-0.7-0.4-1.2-1.1-1.2c-0.9,0-2.1,0.8-3.2,2.6c-0.7,1.2-1.3,2.5-1.3,3.6
		c0,0.7,0.5,1.1,1,1.1C128.3,63.6,130.6,59,130.6,57.5z"/>
	<path fill="#A3A9AF" d="M133.2,64.5c-0.2,0-0.3,0-0.2-0.2l1.6-4.1c0.5-1.4,1.1-2.9,1.1-3.3c0-0.2-0.1-0.4-0.3-0.4
		c-0.4,0-1.5,1.1-1.8,1.5c-0.1,0.1-0.1,0.1-0.2,0l-0.2-0.2c-0.1-0.1-0.1-0.1,0-0.2c0.3-0.4,2-2.2,3.5-2.2c0.5,0,0.7,0.4,0.7,0.7
		c0,0.7-0.9,2.8-1.1,3.3l0.1,0c0.7-1.1,3.1-4,5-4c0.7,0,1.1,0.3,1.1,0.9c0,1-0.5,2.1-1.2,3.9c-0.6,1.5-1.1,2.7-1.1,3
		c0,0.1,0.1,0.3,0.3,0.3c0.3,0,1.3-0.8,1.6-1.1c0.1-0.1,0.2,0,0.2,0l0.2,0.2c0.1,0.1,0.1,0.1,0,0.2c-0.3,0.4-2,1.9-3.5,1.9
		c-0.3,0-0.5-0.1-0.5-0.4c0-0.4,0.8-2.2,1.5-4c0.3-0.9,1.1-2.7,1.1-3.2c0-0.3-0.2-0.5-0.6-0.5c-0.9,0-3,2-4,3.6
		c-0.4,0.6-0.7,1.2-1.3,2.8l-0.6,1.5c0,0.1-0.1,0.1-0.3,0.1H133.2z"/>
	<path fill="#A3A9AF" d="M153.7,60.8c-0.1,0.5,0.2,0.5,0.5,0.1l6.7-9c0.6-0.8,0.6-1.4,0-1.4h-0.7c-0.2,0-0.3-0.1-0.2-0.3l0.1-0.4
		c0-0.1,0.1-0.2,0.3-0.2c0.3,0,1,0.1,2.4,0.1c1.3,0,1.8-0.1,2.1-0.1c0.2,0,0.3,0.1,0.2,0.2l-0.1,0.4c0,0.2-0.1,0.2-0.2,0.2h-0.7
		c-0.8,0-1.5,0.8-2.3,1.7l-9.5,12.3c-0.1,0.2-0.4,0.4-0.6,0.4c-0.3,0-0.4-0.3-0.3-0.8l1.8-12.5c0.1-0.7-0.1-1.2-1-1.2h-0.7
		c-0.2,0-0.3,0-0.3-0.2l0.1-0.4c0-0.2,0-0.2,0.2-0.2c0.3,0,1.2,0.1,2.8,0.1c1.6,0,2.5-0.1,2.8-0.1c0.2,0,0.3,0.1,0.2,0.2l-0.1,0.5
		c0,0.1-0.1,0.2-0.2,0.2h-0.7c-0.8,0-1.2,0.3-1.3,1L153.7,60.8z"/>
	<path fill="#A3A9AF" d="M163.4,64.1c0-0.5,0.4-1.5,1.3-4l0.6-1.7c0.2-0.6,0.4-1,0.4-1.3c0-0.2-0.1-0.3-0.3-0.3
		c-0.4,0-1.4,1.2-1.8,1.5c-0.1,0.1-0.2,0.1-0.2,0l-0.2-0.2c-0.1-0.1-0.1-0.1-0.1-0.2c0.1-0.1,2.3-2.8,3.7-2.7c0.3,0,0.5,0.2,0.5,0.5
		c0,0.4-0.4,1.4-0.7,2.4l-1.3,3.3c-0.3,0.8-0.4,1.3-0.4,1.5c0,0.2,0.1,0.3,0.2,0.4c0.5-0.1,1.7-1.3,1.8-1.5c0-0.1,0.1-0.1,0.2,0
		l0.2,0.2c0.1,0.1,0.1,0.2,0,0.3c-0.1,0.2-1.9,2.3-3.7,2.3C163.6,64.7,163.4,64.5,163.4,64.1z M166.2,51.3c0-0.6,0.5-1.1,1.1-1.1
		c0.8,0,1.2,0.5,1.2,1.1c0,0.3-0.3,1.1-1.2,1.1C166.4,52.4,166.2,51.5,166.2,51.3z"/>
	<path fill="#A3A9AF" d="M173.3,51.7c0.3-0.8,0.3-1.4-0.3-1.4h-0.6c-0.2,0-0.2-0.1-0.1-0.2l0.1-0.4c0-0.1,0.1-0.2,0.2-0.2h2.7
		c0.2,0,0.3,0.1,0.2,0.3l-4.6,11.6c-0.2,0.5-0.7,1.7-0.3,1.7c0.4,0,1.4-0.9,1.6-1.1c0.1-0.1,0.1-0.1,0.2,0l0.2,0.3
		c0,0,0.1,0.1,0,0.2c-0.1,0.2-2.2,2-3.6,2c-0.3,0-0.5-0.1-0.5-0.6c0-0.3,0.5-1.7,0.8-2.4L173.3,51.7z"/>
	<path fill="#A3A9AF" d="M178.6,51.7c0.3-0.8,0.3-1.4-0.3-1.4h-0.6c-0.2,0-0.2-0.1-0.1-0.2l0.1-0.4c0-0.1,0.1-0.2,0.2-0.2h2.7
		c0.2,0,0.3,0.1,0.2,0.3l-4.6,11.6c-0.2,0.5-0.7,1.7-0.3,1.7c0.4,0,1.4-0.9,1.6-1.1c0.1-0.1,0.1-0.1,0.2,0l0.2,0.3
		c0,0,0.1,0.1,0,0.2c-0.1,0.2-2.2,2-3.6,2c-0.3,0-0.5-0.1-0.5-0.6c0-0.3,0.5-1.7,0.8-2.4L178.6,51.7z"/>
	<path fill="#A3A9AF" d="M188.6,55.3c0.1,0,0.1,0.1,0.1,0.2c-0.4,0.9-1.5,3.9-1.7,4.3c-0.1,0.4-1.1,3.1-1.1,3.3s0.1,0.3,0.2,0.3
		c0.3,0,1.4-1.1,1.5-1.3c0.1-0.1,0.1-0.1,0.2,0l0.2,0.2c0.1,0.1,0.1,0.1,0,0.2c-0.2,0.4-2.2,2.3-3.4,2.3c-0.3,0-0.5-0.1-0.5-0.4
		c0-0.3,0.2-1,1.1-3.3l-0.1,0c-0.9,1.4-3.1,3.8-4.7,3.8c-0.5,0-1.2-0.4-1.2-1.4c0-3.2,3.6-8,6.3-8c0.9,0,1.3,0.4,1.6,0.7l0.4-0.6
		c0.1-0.1,0.1-0.2,0.2-0.2H188.6z M185.8,59.1c0.3-0.6,0.5-1.2,0.5-1.8c0-0.6-0.2-1.3-1-1.3c-2,0-4.4,4.6-4.4,6.7
		c0,0.5,0.2,0.8,0.6,0.8C182.6,63.5,185.4,59.9,185.8,59.1z"/>
	<path fill="#A3A9AF" d="M189,63.4c0-0.3,0.3-0.7,0.7-0.7c0.5,0,0.8,0.3,0.9,0.7s0.2,0.6,0.8,0.6c0.6,0,1.2-0.6,1.2-1.3
		c0-0.9-0.7-1.8-0.9-2.6c-0.2-0.4-0.7-1.1-0.6-2.2c0-1.3,1.2-2.7,2.8-2.7c0.7,0,1.6,0.3,1.6,1.1c0,0.4-0.4,0.7-0.7,0.7
		c-0.3,0-0.6-0.2-0.7-0.5c-0.1-0.3-0.1-0.6-0.6-0.6c-0.4,0-1.1,0.6-1.1,1.4c0,0.8,0.7,1.7,0.8,2c0.1,0.3,0.8,1.3,0.8,2.5
		c0,1.7-1.4,2.8-2.9,2.8C189.8,64.7,189,64.2,189,63.4z"/>
</g>
</svg>
