<?xml version="1.0" standalone="no"?>
<!DOCTYPE svg PUBLIC "-//W3C//DTD SVG 1.1//EN" "http://www.w3.org/Graphics/SVG/1.1/DTD/svg11.dtd" >
<svg xmlns="http://www.w3.org/2000/svg">
<metadata>
Created by FontPrep 20130207 at Tue Mar 17 13:52:13 2015
 By Nick Ciolpan
(c) 2000, 2001 Adobe Systems Incorporated. All Rights Reserved.
</metadata>
<defs>
<font id="Caslon" horiz-adv-x='1024' >
  <font-face 
    font-family="ACaslonPro-SemiboldItalic"
    font-weight="600"
    font-style="italic"
    font-stretch="normal"
    units-per-em="2048"
    panose-1="2 0 7 3 0 0 0 0 0 0"
    ascent="1505"
    descent="-543"
    x-height="852"
    cap-height="1378"
    bbox="-420 -614 2126 1556"
    underline-thickness="102"
    underline-position="-102"
    slope="-22"
    unicode-range="U+0020-007E"
  />
<missing-glyph 
 />
    <glyph glyph-name=".notdef" 
 />
    <glyph glyph-name=".null" horiz-adv-x="0" 
 />
    <glyph glyph-name="nonmarkingreturn" horiz-adv-x="681" 
 />
    <glyph glyph-name="space" unicode=" " horiz-adv-x="409" 
 />
    <glyph glyph-name="exclam" unicode="!" horiz-adv-x="548" 
d="M553 1403q57 1 86 -27t29 -66t-33 -102q-6 -20 -170 -404t-174 -403q-6 -16 -34 -16q-29 0 -15 46t94 454l82 409q25 109 135 109zM295 106q0 -46 -34 -86t-81 -40t-83 32t-36 86q0 55 33 95q37 37 87 37t82 -40q32 -38 32 -84z" />
    <glyph glyph-name="quotedbl" unicode="&#x22;" horiz-adv-x="475" 
d="M762 1333q0 -18 -92 -192t-113 -221l-57 16q6 23 38 197t44 208q20 61 100 61t80 -69zM283 920l-58 16q6 23 38 197t44 208q21 61 101 61t79 -69q0 -14 -36 -88q-144 -266 -168 -325z" />
    <glyph glyph-name="numbersign" unicode="#" 
d="M537 788l-86 -266h180l86 266h-180zM258 -31h-102q-12 0 -4 25l131 389h-177q-23 0 -16 20l29 95q8 25 28 24h177l86 266h-181q-31 0 -24 21l28 98q6 20 29 21h184l123 372q6 20 25 21h94q16 0 8 -25l-118 -368h176l118 364q10 29 25 29h94q18 0 8 -29l-118 -364h180
q23 0 16 -21l-33 -98q-8 -20 -32 -21h-168l-86 -266h192q29 0 21 -24l-33 -99q-6 -16 -37 -16h-188l-131 -393q-6 -20 -17 -21h-106q-10 0 -4 21l131 393h-176l-131 -385q-10 -29 -21 -29z" />
    <glyph glyph-name="dollar" unicode="$" 
d="M508 123l102 397q-23 23 -49 44t-29 30h-8l-106 -447q20 -8 90 -24zM725 322q0 74 -61 141l-86 -328q61 13 104 63t43 124zM471 989q0 -74 57 -137l82 324q-139 -33 -139 -187zM659 733l107 422q-37 25 -90 25l-94 -377l19 -18q9 -9 19 -17t20 -17zM315 954q0 98 82 189
q84 90 230 102l41 164q0 18 16 12l41 -4q8 -8 4 -24l-37 -144q76 -10 90 -16l37 164q8 14 21 12l32 -4q14 -2 9 -25l-41 -172q10 -2 40 -19t42 -18q20 0 28 50q6 12 17 12l20 -4q8 0 8 -17l-53 -319q0 -16 -12 -16l-29 4q-12 0 -12 20q0 137 -70 213l-102 -426
q152 -129 151 -295q0 -141 -87 -229t-220 -103l-45 -196q-4 -16 -8 -21q-6 -4 -12 0l-37 13q-14 0 -8 28l45 168q-35 2 -95 13l-53 -209q-6 -12 -16 -13l-41 13q-10 0 -4 24l53 209q-63 29 -107 70q-41 25 -45 24q-23 0 -57 -65q-12 -12 -20 -8l-17 8q-10 4 -4 20l131 365
q6 18 17 12l24 -8q14 -8 12 -21q-49 -199 86 -303l119 459q-164 152 -164 311z" />
    <glyph glyph-name="percent" unicode="%" horiz-adv-x="1511" 
d="M1364 621q0 102 -82 102q-66 0 -139 -109q-74 -114 -117 -242t-43 -194t23 -98q23 -33 55 -33q71 0 143 113t116 249t44 212zM1069 -14q-221 0 -221 252q0 120 53 241q47 125 151 219t222 94q221 1 221 -221q0 -217 -123 -401t-303 -184zM1290 1271q0 -5 -8 -20
l-831 -1265q-18 -28 -37 -9l-45 33q-14 14 0 37l831 1266q8 8 16 8t13 -4l53 -33q8 -8 8 -13zM373 514q-221 0 -221 250q0 116 51 242q51 127 153 223q104 92 230 92q209 1 209 -239q0 -122 -54 -251q-49 -135 -151 -226t-217 -91zM664 1153q0 96 -82 102q-66 0 -140 -110
q-74 -117 -114 -244q-45 -127 -45 -193t22 -102q23 -31 55 -31q102 -1 203 221t101 357z" />
    <glyph glyph-name="ampersand" unicode="&#x26;" horiz-adv-x="1728" 
d="M1058 532q27 0 24 30t20 65q27 33 65 32q115 0 115 -102q0 -45 -35 -82t-115 -37t-151 68q-72 68 -72 188t95 207q92 90 249 90l254 -16q125 0 201 47q74 47 74 133q0 49 -37 92t-78 43q-33 0 -25 -45q10 -29 -14 -65t-74 -37q-100 0 -100 103q0 48 49 83t111 35
q119 0 184 -66q70 -61 70 -151q0 -147 -86 -233t-234 -107q-66 -6 -28 -49q61 -102 61 -246q1 -254 -195 -406t-485 -151q-164 0 -291 37q-129 33 -207 90q-76 51 -127 124q-86 123 -87 281t77 271q80 111 164 147q-86 113 -86 237t88 212t236 88q96 0 156 -51t60 -127
t-37 -115q-38 -39 -69 -39q-12 0 -4 47t-31 86t-105 39t-123 -57q-56 -57 -56 -143t45 -156q100 41 176 8q33 -18 33 -56t-21 -69q-25 -27 -76 -27t-120 49q-18 29 -50 9q-46 -35 -78 -108t-32 -159q0 -190 156 -307q158 -114 426 -114t421 122q152 123 152 283
q0 115 -80 199t-211 84q-78 0 -128 -38t-63 -76q-30 -89 11 -157q25 -37 38 -37z" />
    <glyph glyph-name="quotesingle" unicode="'" horiz-adv-x="290" 
d="M324 920l-58 16q14 61 42 220t36 185q25 61 103 61t77 -69q0 -24 -127 -264q-67 -133 -73 -149z" />
    <glyph glyph-name="parenleft" unicode="(" horiz-adv-x="655" 
d="M158 143q0 414 207 775q211 360 567 618q20 14 41 -16q14 -29 -12 -50q-275 -231 -457 -605t-182 -791q0 -229 32 -484q4 -20 -28 -28q-31 -10 -37 8q-51 92 -91 259t-40 314z" />
    <glyph glyph-name="parenright" unicode=")" horiz-adv-x="655" 
d="M602 954q0 -414 -208 -773t-566 -619q-20 -14 -41 16q-16 29 12 49q275 231 457 605t182 792q0 229 -32 483q-4 19 28 29t37 -8q51 -92 91 -260t40 -314z" />
    <glyph glyph-name="asterisk" unicode="*" horiz-adv-x="614" 
d="M442 1329q0 31 24 52t66 22q70 0 70 -49q0 -34 -70 -164l-36 -78l4 -6q12 8 95 88q83 79 114 82q51 8 69 -49q25 -74 -61 -94q-18 0 -107 -23q-53 -8 -108 -20v-7q180 -33 208 -48q53 -28 34 -71t-48 -55q-30 -18 -58 -3t-146 161l-7 -2q-1 -27 15 -119t12 -108
q-9 -66 -82 -66q-39 0 -57 14q-13 18 -11 38t19 65l49 98q8 20 21 45q12 25 14 31l-6 2q-29 -25 -58 -54t-75 -67q-46 -39 -69 -51t-46 0t-35 39q-27 57 33 90q16 10 64 20t112 24t74 17v9q-94 14 -205 45q-25 7 -37 29t-1 54t39 47t48 10t45 -36q18 -15 58 -63t63 -72l6 2
q-33 190 -33 221z" />
    <glyph glyph-name="plus" unicode="+" 
d="M610 78h-143v352h-328v131h328v344h143v-344h328v-131h-328v-352z" />
    <glyph glyph-name="comma" unicode="," horiz-adv-x="516" 
d="M213 -62q0 52 -12 70q-8 20 -41 53q0 4 -17 17q-43 43 -44 86t27 77t71 33q86 0 129 -74t43 -148q0 -134 -103 -232q-131 -100 -225 -107h-12l-9 4q0 4 -3 24t20 26q57 16 117 67q59 52 59 104z" />
    <glyph glyph-name="hyphen" unicode="-" horiz-adv-x="851" 
d="M803 438h-660q-16 0 -16 17v94q0 20 16 20h662q18 0 18 -16v-94q0 -21 -20 -21z" />
    <glyph glyph-name="period" unicode="." horiz-adv-x="516" 
d="M221 -20q-57 0 -94 36t-37 88t33 95q37 39 101 39t98 -43t34 -91t-37 -88q-41 -36 -98 -36z" />
    <glyph glyph-name="slash" unicode="/" horiz-adv-x="675" 
d="M-45 -23l-59 43q-12 8 4 35l974 1336q12 14 31 8l64 -39q14 -8 -4 -35l-977 -1335q-19 -27 -33 -13z" />
    <glyph glyph-name="zero" unicode="0" 
d="M283 259q0 -95 32 -148q35 -51 95 -52q115 0 225 197q117 195 181 427t65 368q0 170 -131 176q-80 0 -170 -113q-84 -111 -152 -270q-63 -160 -104 -325t-41 -260zM762 1321q144 0 220 -97t75 -268q0 -231 -81 -455t-233 -378q-151 -154 -317 -154t-246 113
q-78 113 -78 280q0 168 50 336q113 377 340 533q126 90 270 90z" />
    <glyph glyph-name="one" unicode="1" 
d="M409 0l-224 -4l-72 -2h-29q-16 0 -6 16l12 49q0 16 25 17h78q68 0 101 15t58 77q66 182 103 311l120 365q51 156 51 188t-32 31l-47 -13q-27 -7 -51 -16l-119 -45q-14 -2 -21 8l-20 37q-6 14 12 21l483 237q68 29 78 29q27 0 27 -21q0 -28 -34 -116t-140 -410l-107 -328
q-39 -152 -86 -274q-20 -47 -4 -74q18 -23 78 -22h111q18 0 12 -21l-8 -45q-6 -16 -21 -16h-8l-50 2z" />
    <glyph glyph-name="two" unicode="2" 
d="M-41 18q0 24 29 48q98 74 141 106q215 160 381 326q260 260 260 458q0 76 -43 143t-141 66q-152 0 -271 -196q-8 -15 -13 -21t-11 -4l-41 21q-4 2 0 24q49 119 166 225t264 107q147 0 231 -88t84 -211t-86 -272q-33 -55 -101 -129t-108 -107q-71 -71 -358 -276
q-20 -14 -42 -28t-31 -22t-11 -8v-16h332q135 0 250 151q12 23 24 17l29 -17q5 -7 -15 -41t-72 -148t-58 -140t-23 -27q-23 0 -41 25q-16 16 -119 16h-438l-143 -6q-25 0 -25 24z" />
    <glyph glyph-name="three" unicode="3" 
d="M324 -31q-154 0 -238 72q-86 68 -86 158q0 33 20 67q25 31 73 31t67 -41q20 -37 15 -83t38 -88t111 -42q143 0 241 115q102 111 103 284q0 80 -43 147t-121 91q-27 8 -37 16q-8 12 -8 25q0 27 41 33q117 12 206 89t89 187q0 53 -39 100q-41 48 -126 48t-151 -52
q-70 -45 -102 -96q-8 -27 -25 -12l-28 20q-14 8 4 33q57 96 157 173q99 77 237 77t208 -64q66 -70 65 -147q0 -115 -82 -209t-204 -156q84 -35 135 -110q45 -78 45 -166q0 -211 -175 -355t-390 -145z" />
    <glyph glyph-name="four" unicode="4" 
d="M262 500h348l176 467q12 27 1 33t-33 -13l-496 -455q-16 -12 -12 -22q0 -10 16 -10zM602 0h-156q-20 0 -10 29l125 331h-500q-45 0 -45 33t50 66l892 807q66 55 99 55q41 0 16 -72l-262 -749h184q9 0 13 -7t0 -14l-37 -94q-8 -25 -35 -25h-174l-121 -337q-10 -23 -39 -23
z" />
    <glyph glyph-name="five" unicode="5" 
d="M302 -31q-265 -1 -265 119q0 62 55 62q54 0 98 -44t138 -43q141 -1 242 107t102 236q0 164 -123 233q-84 49 -201 49q-61 0 -69 8q-14 8 -9 37l193 541q10 16 33 16h405q33 0 59 14t31 21q6 6 11 13q4 6 12 16t15 20t29 -2t25 -18q4 -6 -2 -15l-118 -209q-10 -16 -62 -16
h-401l-90 -246h8q170 -12 266 -57q197 -102 197 -332q-2 -78 -41 -166q-45 -90 -116 -167q-70 -77 -188 -127t-234 -50z" />
    <glyph glyph-name="six" unicode="6" 
d="M586 709q-121 0 -176 -82q-90 -133 -99 -359q0 -221 152 -221q88 0 152 86t98 197q27 118 25 196t-42 129q-38 54 -110 54zM459 -31q-166 -1 -255 101t-89 264q1 162 73 324q130 290 443 507q139 96 270 142q35 14 53 14q29 0 29 -34t-25 -40q-182 -86 -304 -208
t-216 -294l8 -8q98 61 228 61t207 -80q78 -81 77 -204q0 -219 -147 -382t-352 -163z" />
    <glyph glyph-name="seven" unicode="7" 
d="M537 1290h544q29 0 29 -20l-16 -37q-8 -8 -95 -156q-88 -158 -122 -225q-287 -537 -375 -739q-33 -74 -64 -109t-73 -35q-43 0 -65 23q-54 55 28 184q216 308 314 462t284 476h-402q-61 0 -112 -20q-48 -27 -62 -40t-71 -91q-12 -20 -37 -5q-25 23 -17 33l176 348
q10 20 17 21q4 4 20 -1t17 -11q4 -2 1 -21q-4 -19 14 -28t67 -9z" />
    <glyph glyph-name="eight" unicode="8" 
d="M889 1051q0 72 -49 133q-46 63 -144 63t-159 -61q-61 -60 -61 -148t41 -152q42 -64 134 -161q238 127 238 326zM274 262q0 -110 52 -168t129 -59q76 0 133 47q85 73 88 188q0 72 -29 127q-18 47 -53 95q-41 45 -86 90q-104 -53 -168 -127q-66 -83 -66 -193zM745 1321
q147 0 231 -74t85 -178q0 -225 -361 -397q53 -53 86 -92q33 -40 62 -100t29 -118q0 -162 -125 -278t-318 -115q-98 0 -169 31t-103 74q-62 85 -63 165q-2 160 130 253q55 47 107 73q56 36 91 51q34 15 36 15q-2 2 -6 7t-15 15q-10 10 -16 19l-41 49q-12 16 -37 49
q-29 45 -35 57t-22 58q-8 45 -8 63q0 139 123 256q118 117 339 117z" />
    <glyph glyph-name="nine" unicode="9" 
d="M549 565q117 0 184 111q90 152 90 360t-139 207q-66 0 -123 -51q-57 -57 -86 -131q-65 -137 -65 -303q0 -66 34 -131q35 -62 105 -62zM197 791q0 115 57 241q63 123 179 206q115 83 269 83t240 -92q82 -98 82 -258q0 -225 -129 -437t-317 -358q-193 -141 -385 -196
l-46 -11q-10 -1 -19 9t-9 32t20 27q207 98 326 217q125 120 211 270l-8 8q-67 -47 -164 -48q-98 -1 -158 31t-91 82q-30 50 -46 99q-12 49 -12 95z" />
    <glyph glyph-name="colon" unicode=":" horiz-adv-x="516" 
d="M516 722q0 -46 -37 -87q-41 -37 -96 -37t-92 37t-37 86t33 92q37 39 99 39t97 -41q33 -43 33 -89zM174 -20q-55 0 -92 34t-37 87t34 93q35 40 97 40t98 -44q33 -45 33 -91t-37 -83q-41 -36 -96 -36z" />
    <glyph glyph-name="semicolon" unicode=";" horiz-adv-x="516" 
d="M354 598q-55 0 -92 35t-37 86t35 92q34 41 96 41t97 -44q71 -90 -2 -173q-42 -37 -97 -37zM188 -62q0 52 -12 70q-8 20 -41 53q-1 4 -31 32t-30 71t28 77t70 33q80 0 127 -77q45 -78 45 -148t-30 -131t-70 -96q-88 -76 -174 -98q-37 -10 -54 -11h-12l-8 4q0 4 -3 24
t19 26q57 16 117 67q59 52 59 104z" />
    <glyph glyph-name="less" unicode="&#x3c;" 
d="M827 78l-634 377v77l634 373v-147l-450 -254v-8l450 -263v-155z" />
    <glyph glyph-name="equal" unicode="=" 
d="M147 287v131h803v-131h-803zM950 602h-803v131h803v-131z" />
    <glyph glyph-name="greater" unicode="&#x3e;" 
d="M885 528v-77l-635 -373v147l450 254v13l-450 262v151z" />
    <glyph glyph-name="question" unicode="?" horiz-adv-x="872" 
d="M352 217q51 0 85 -34t34 -81q0 -46 -32 -84t-81 -38t-85 32q-35 32 -35 80q0 49 32 87t82 38zM448 311q-79 0 -139 54q-59 55 -59 152t80 188q41 48 145 112q13 8 19 11t72 41t92 55q94 62 113 92q44 72 44 136t-45 120q-49 53 -143 53t-162 -51t-68 -129q0 -45 19 -64
q16 -23 41 -23t30 17q-4 20 -4 51t27 62t75 31q47 0 69 -28t22 -63q0 -70 -55 -112t-127 -43q-72 0 -125 41t-53 133t90 172q90 84 258 84t249 -109q56 -82 58 -159q0 -332 -393 -476q-122 -47 -180 -85t-58 -85q0 -84 131 -83q98 0 172 73q12 6 16 -4l21 -20q4 -4 4 -17
q-35 -45 -96 -86t-140 -41z" />
    <glyph glyph-name="at" unicode="@" horiz-adv-x="1585" 
d="M758 451q45 0 164 131q115 141 139 196q45 84 45 152q0 94 -70 94q-102 0 -217 -193q-115 -199 -114 -315q0 -65 53 -65zM1057 340q-95 0 -95 82q0 44 58 184l-12 4q-213 -270 -361 -270q-49 0 -86 33q-33 35 -33 102q0 115 86 262q88 147 211 250q127 103 219 103
t132 -66l20 29q14 20 33 20h94q20 0 12 -20q-213 -485 -213 -594q0 -37 54 -37q90 0 196 131t106 345t-110 320t-306 107q-196 0 -362 -120t-257 -300t-91 -362q0 -229 137 -359q135 -133 351 -133t336 70l24 8l21 -45q0 -10 -35 -33t-152 -55q-123 -27 -227 -27
q-293 0 -461 150q-166 154 -166 386t126 437t337 336q213 125 457 125t385 -137q137 -140 137 -364t-156 -394q-158 -168 -409 -168z" />
    <glyph glyph-name="A" unicode="A" horiz-adv-x="1331" 
d="M979 688l151 524q6 20 -11 26t-29 -9l-431 -541h320zM901 0l-220 -4h-30l-12 -2q-16 0 -12 22l8 43q4 16 18 17h35q59 0 98 28q35 31 62 134l106 376h-352l-237 -303q-106 -143 -107 -182q0 -53 78 -53h61q16 0 13 -17l-9 -47q-4 -18 -20 -18t-39 2l-240 4h-118l-123 -6
q-18 0 -17 20l9 45q4 16 16 17h29q51 0 122 39q76 47 121 104l957 1133q14 20 64 20t102 10t72 16t28 5q27 0 20 -25l-303 -1132q-20 -80 -20 -109t20 -45q27 -16 54 -16h51q18 0 14 -17l-8 -49q-4 -16 -24 -16t-42 2z" />
    <glyph glyph-name="B" unicode="B" horiz-adv-x="1282" 
d="M709 737q158 0 262 86q106 80 110 254q1 92 -75 161t-183 69q-36 0 -65 -4l-152 -558q31 -8 103 -8zM942 397q0 244 -328 271h-24l-123 -459q-25 -94 20 -119q37 -25 127 -24q152 0 242 98q86 98 86 233zM111 76q87 0 122 121l259 970q12 49 12 76q0 53 -94 53h-58
q-18 0 -14 17l8 47q2 12 27 12h155q18 0 162 4h80q37 2 82 2q229 0 344 -72t115 -212q0 -172 -137 -279q-61 -41 -134 -74q-82 -27 -155 -41q-12 0 -4 -8q303 -76 303 -332q0 -139 -115 -243q-139 -123 -455 -123l-149 2q-68 4 -149 4t-144 -4l-143 -2q-18 0 -17 20l8 45
q0 16 17 17h74z" />
    <glyph glyph-name="C" unicode="C" horiz-adv-x="1359" 
d="M1094 18q0 33 -40 33q-20 0 -64 -20q-44 -21 -132 -41t-162 -21q-227 0 -377 133q-143 133 -143 349q0 399 291 714q219 238 528 238q152 0 271 -78q66 -53 94 -53q41 0 53 53q6 18 21 12l32 -8q19 0 13 -20l-111 -426q-6 -14 -20 -13l-41 4q-12 0 -13 21q29 164 -49 291
q-74 127 -237 127q-106 -1 -196 -55t-173 -179q-105 -153 -153 -325t-48 -292t30 -198t78 -120q87 -76 183 -76q336 0 500 356q12 14 20 12l41 -12q12 -2 13 -16l-148 -443q-6 -10 -20 -8l-41 8q-8 6 -4 17z" />
    <glyph glyph-name="D" unicode="D" horiz-adv-x="1630" 
d="M471 131q0 -55 119 -55q340 0 532 162q102 82 181 243q74 160 73 330q0 98 -37 190t-98 150q-95 94 -195 122t-197 28t-101 -23l-265 -1061q-12 -55 -12 -86zM31 -6q-20 0 -19 20l11 45q4 16 20 17h51q119 -1 160 157l240 961q12 53 -15 78q-29 25 -69 24h-101
q-20 0 -14 19l12 45q4 12 25 12l168 4q57 2 272 2t395 -38t299 -152q88 -90 119 -180q33 -84 33 -212t-41 -243q-35 -113 -102 -201q-70 -86 -124 -132q-120 -102 -302 -167q-184 -59 -492 -59l-133 2q-70 4 -133 4h-144l-88 -4q-18 -2 -28 -2z" />
    <glyph glyph-name="E" unicode="E" horiz-adv-x="1386" 
d="M1151 -6q-16 0 -33 2h-82q-70 4 -508 4h-356q-41 -2 -73 -2t-46 -2h-33q-8 -2 -18 -2q-16 0 -12 16l8 53q2 12 14 13h66q109 0 143 108l314 973q23 76 -11 108t-90 31h-65q-18 0 -13 21l13 45q6 16 24 16l41 -2h78q160 -4 176 -4h148q365 0 409 4h58q13 2 33 2t28 -6
q6 -10 12 -35l62 -274q2 -14 -8 -23l-25 -12q-8 -4 -25 12l-209 242q-16 16 -36 16h-320l-172 -530h176q59 0 91 9t76 49t75 112q6 12 16 12l37 -12q8 0 8 -4q6 -2 -10 -34t-51 -179q-39 -137 -45 -205q-4 -12 -17 -12h-36q-12 4 -13 20q0 104 -50 138t-175 32h-102
l-201 -620h459q117 0 237 137q39 41 77 89t54 65q11 16 25 4l24 -17q8 -6 5 -22l-107 -299q-8 -37 -45 -37z" />
    <glyph glyph-name="F" unicode="F" horiz-adv-x="1294" 
d="M598 76q20 0 16 -17l-12 -49q-6 -16 -23 -16t-38 2l-242 4h-145l-91 -4q-18 -2 -33 -2t-14 20l9 45q4 16 20 17h53q94 0 131 121l320 1022q25 78 -49 77h-62q-14 0 -12 21l8 41q2 20 29 20l8 -2l76 -2q27 -2 295 -2t391 8q61 0 133 11l64 10q20 0 22 -46q5 -118 39 -306
q2 -14 -8 -21l-33 -16q-16 -4 -24 13t-68 113t-76 111q-16 13 -24 21t-13 11q-4 3 -6 5l-55 4q-55 6 -377 6l-168 -542l246 4q100 4 147 52t82 161q2 14 25 8l37 -4q10 -6 8 -21l-123 -512q-2 -14 -21 -12l-36 4q-14 2 -13 21q15 117 -11 165t-112 52l-254 10l-137 -455
q-25 -96 -11 -124t71 -27h61z" />
    <glyph glyph-name="G" unicode="G" horiz-adv-x="1478" 
d="M1442 492h-33q-84 0 -98 -70l-70 -313q-6 -29 -41 -46q-215 -94 -409 -94q-279 0 -445 162t-166 395q0 369 256 621q254 256 604 256q205 0 332 -103q48 -42 78 -10q14 18 29 51q0 14 20 9l29 -9q12 0 12 -16l-119 -410q-6 -14 -20 -12h-41q-18 0 -12 25q20 150 -61 270
t-263 121q-238 0 -410 -244q-176 -240 -176 -571q0 -217 106 -331t240 -114q133 0 199 47q25 15 41 74l45 213q12 57 -7 77t-67 22h-67q-23 0 -19 22l9 43q4 16 20 16l137 -4q39 -2 131 -2t127 2l117 4q20 0 16 -24l-4 -41q-4 -16 -20 -16z" />
    <glyph glyph-name="H" unicode="H" horiz-adv-x="1609" 
d="M938 76q53 0 88 37t68 137l131 397q5 17 -13 17h-639q-20 0 -24 -13l-143 -444q-20 -82 -9 -109q18 -23 70 -22h61q16 0 17 -17l-8 -45q-5 -20 -23 -20t-39 2l-246 4h-131l-123 -6q-23 0 -16 20l8 45q6 16 21 17h49q49 0 79 33t58 116l322 977q14 43 -5 69t-57 25h-74
q-18 0 -12 21l8 45q6 16 22 16t40 -2l246 -4l210 4q24 2 44 2t20 -16l-16 -49q0 -16 -17 -17h-49q-57 0 -82 -22q-25 -16 -45 -80l-143 -440q-6 -12 12 -13h639q14 0 20 13l146 460q12 39 -6 62q-20 20 -58 20h-41q-12 0 -12 21l12 49q0 12 18 12t44 -2l217 -4l192 4
q21 2 35 2q32 0 23 -16l-12 -49q0 -16 -17 -17h-49q-39 0 -66 -21t-45 -81l-319 -979q-18 -55 -8 -100q10 -39 49 -39h74q23 0 16 -21l-12 -45q0 -16 -20 -16t-38 2l-229 4h-139l-140 -6q-16 0 -16 24l8 37q0 20 17 21h57z" />
    <glyph glyph-name="I" unicode="I" horiz-adv-x="765" 
d="M86 76q80 0 108 28t52 117l258 940q37 135 -58 135h-94q-20 0 -20 17l12 53q0 12 22 12t52 -2l250 -4l245 4q25 2 45 2q31 0 25 -24l-12 -41q0 -16 -21 -17h-53q-71 0 -107 -28t-57 -109l-254 -944q-37 -139 90 -139h74q18 0 12 -21l-4 -41q-2 -20 -21 -20t-48 2l-283 4
h-145l-158 -6q-16 0 -16 20l12 45q0 16 16 17h78z" />
    <glyph glyph-name="J" unicode="J" horiz-adv-x="778" 
d="M1000 1378q17 0 16 -20l-8 -45q0 -16 -21 -17h-53q-48 0 -82 -34t-61 -127l-267 -897q-94 -328 -213 -476q-145 -172 -340 -172q-111 0 -161 50q-52 45 -52 99t29 92t76 38t76 -29q37 -46 18 -114q-6 -22 -6 -33q5 -25 69 -25q121 0 226 373l317 1114q39 141 -67 141h-66
q-24 0 -20 17l12 49q0 16 17 16t42 -2l256 -4l226 4q20 2 37 2z" />
    <glyph glyph-name="K" unicode="K" horiz-adv-x="1466" 
d="M893 76q35 0 57 18q20 18 6 39q-2 6 -79 136t-136 234q-59 103 -69 115q-25 37 -70 37l-143 -444q-18 -68 -2 -100q14 -35 59 -35h49q18 0 13 -21l-9 -41q0 -20 -21 -20t-44 2l-230 4h-131l-114 -6q-16 0 -17 29l8 36q10 16 25 17h41q94 0 133 117l318 976
q43 127 -58 127h-49q-27 0 -20 21l16 49q6 12 22 12t35 -2l217 -4q98 0 138 2l88 2q20 2 37 2q12 0 10 -20l-6 -45q0 -16 -25 -17h-45q-88 0 -121 -100l-153 -471q111 0 155 45q410 354 488 461q23 29 14 47q-8 23 -47 22h-25q-18 0 -16 21l8 41q6 16 22 16t35 -2l213 -4
l168 4q16 2 30 2q26 0 22 -20l-7 -41q-6 -20 -20 -21h-61q-74 0 -156 -59q-115 -88 -598 -516q18 -35 178 -280t186 -275t66 -62q45 -29 70 -28h53q20 0 20 -21l-8 -41q-1 -20 -23 -20t-38 2l-230 4q-41 0 -164 -4l-94 -2q-23 0 -16 20l4 41q0 20 16 21h25z" />
    <glyph glyph-name="L" unicode="L" horiz-adv-x="1327" 
d="M1000 1378q17 0 16 -20l-8 -45q-4 -16 -25 -17h-82q-61 0 -91 -26t-54 -107l-322 -1032q-16 -55 49 -55h123q301 0 336 8q39 2 73 33t111 120t95 119q6 19 20 13l29 -13q18 -6 13 -15t-30 -95t-41 -137q-16 -66 -28 -105q-6 -37 -25 -37l-24 4l-29 9q-37 12 -78 12
l-328 6q-90 2 -323 2t-283 -4h-53q-12 -2 -25 -2q-18 0 -16 20l8 45q4 16 21 17h37q63 0 98 28t63 117l293 948q23 70 4 97q-12 31 -73 30h-74q-18 0 -17 21l13 49q4 12 23 12t42 -2l250 -4l270 4q25 2 42 2z" />
    <glyph glyph-name="M" unicode="M" horiz-adv-x="1953" 
d="M1286 76q68 0 107 35q31 35 53 106l283 987q2 18 -9 23q-10 2 -24 -15l-836 -1179q-20 -33 -57 -33q-27 0 -33 45l-131 1085q-4 18 -7 24t-10 1q-7 -4 -12 -16l-274 -815q-82 -248 12 -248h66q16 0 16 -21l-8 -41q0 -20 -25 -20q-14 0 -32 2l-177 4q-49 0 -135 -4l-65 -2
q-12 0 -13 20l9 45q6 16 16 17h41q76 0 118 61t87 195l282 811q20 43 20 98t-89 55h-74q-25 0 -25 21l9 41q6 20 24 20l41 -2l365 -4q20 0 29 -10t12 -35l114 -954q4 -29 18 -31t27 18l693 979q20 33 57 33l303 4q31 2 52 2t22 -20l-8 -45q-6 -16 -21 -17h-53
q-66 0 -107 -145l-262 -950q-14 -61 0 -95q16 -31 54 -30h61q16 0 16 -17l-8 -45q-2 -20 -21 -20t-40 2l-238 4h-135l-131 -6q-20 0 -21 24l5 37q6 20 24 21h45z" />
    <glyph glyph-name="N" unicode="N" horiz-adv-x="1564" 
d="M1610 1372l153 4l19 2h4q31 0 20 -28l-8 -37q0 -16 -16 -17h-53q-74 0 -132 -166l-376 -1077q-14 -43 -41 -53q-36 0 -54 41l-516 1053q-10 16 -20 16q-10 -4 -12 -20l-205 -684q-51 -172 -46 -251t70 -79h78q20 0 21 -21l-9 -43q-16 -16 -28 -17t-35 1l-207 4h-115
l-82 -4q-20 -2 -37 -2t-14 22l6 43q10 16 21 17h45q70 0 115 55q45 61 90 197l250 790q27 88 2 133t-92 45h-78q-23 0 -17 25l8 37q5 20 23 20t43 -2l307 -4q39 0 62 -53l454 -946q8 -12 13 -13q4 -8 8 0q4 0 8 13q6 8 12 28l217 664q74 231 -32 231h-62q-16 0 -20 4t0 17
l4 45q10 16 23 16t34 -2z" />
    <glyph glyph-name="O" unicode="O" horiz-adv-x="1486" 
d="M985 1305q-166 0 -295 -152q-127 -143 -207 -344q-84 -199 -84 -377t84 -273q85 -95 227 -95t269 133q131 125 210 337t83 431q0 158 -77 249t-210 91zM936 1403q250 0 404 -160t153 -438q0 -207 -89 -394t-265 -315q-175 -128 -403 -127q-228 0 -365 135
q-180 174 -181 471q0 215 96 405t267 306q172 117 383 117z" />
    <glyph glyph-name="P" unicode="P" horiz-adv-x="1245" 
d="M1118 1020q0 84 -31 146q-50 101 -174 130q-74 21 -159 9l-172 -646q51 -33 159 -32q180 0 279 121q98 121 98 272zM388 1372l300 4l131 2q172 0 259 -18t159 -78q67 -50 95 -112t28 -166q0 -184 -152 -316q-145 -131 -442 -131q-131 0 -205 25l-94 -361
q-41 -145 65 -145h78q18 0 17 -21l-4 -43q-3 -18 -23 -18t-43 2l-250 4h-135l-135 -6q-16 0 -17 20l5 41q6 20 24 21h37q66 0 98 39t56 118l243 922q41 141 -53 141h-94q-12 0 -12 21l12 43q4 12 52 12z" />
    <glyph glyph-name="Q" unicode="Q" horiz-adv-x="1519" 
d="M1305 948q0 360 -291 361q-121 0 -242 -92q-214 -169 -328 -517q-49 -154 -49 -260t27 -182q34 -78 66 -112t94 -60t133 -25q147 0 280 140q135 129 226 348q84 217 84 399zM1161 -467q31 0 56 27t2 88q-17 24 -17 62t23 65q25 25 71 25t64 -31q23 -29 22 -72
q0 -111 -90 -174t-226 -63t-237 106q-82 82 -170 123q-89 41 -203 41t-134 -21q-39 -61 -80 -61q-40 0 -56 28t-16 58q0 78 426 237l20 9v12q-197 35 -309 184q-117 147 -117 404q0 190 94 368t185 258q70 58 119 94q48 36 154 70t239 33q245 1 395 -147t150 -425
q0 -151 -62 -321t-172 -301q-156 -175 -426 -235t-454 -158l4 -17q94 16 233 17q252 0 369 -156q92 -127 143 -127z" />
    <glyph glyph-name="R" unicode="R" horiz-adv-x="1452" 
d="M1126 1080q0 92 -63 160t-199 69q-53 0 -86 -4l-180 -572h119q84 9 111 17q26 8 50 15q113 32 191 136q57 87 57 179zM1249 0l-157 -4h-23l-8 -2q-22 0 -29 22l-12 19q-2 6 -10 16t-119 248q-111 239 -121 263q-29 66 -82 86q-8 3 -17 7t-48 7h-48l-137 -439
q-45 -147 45 -147h86q23 0 13 -17l-4 -49q-6 -16 -24 -16t-44 2l-248 4h-119l-127 -6q-18 0 -12 20l8 45q0 16 21 17h53q72 0 102 96l328 1022q35 102 -61 102h-70q-23 0 -16 17l8 43q6 16 29 16l364 4h49l60 2h10l119 -2q171 -17 245 -69q47 -27 84 -86q35 -63 35 -140
q0 -147 -140 -260t-343 -133v-8q67 -14 127 -135q31 -55 97 -192q67 -136 81 -158q76 -119 178 -119h53q18 0 13 -21l-4 -41q-6 -20 -20 -20t-25 2z" />
    <glyph glyph-name="S" unicode="S" horiz-adv-x="1040" 
d="M1008 961h-37q-20 0 -21 20q14 84 -26 195q-23 55 -71 94t-128 39q-80 -1 -130 -63t-50 -118t7 -82q7 -25 17 -55q12 -23 33 -53q33 -37 40 -45q8 -7 30 -29t31 -32t17 -17q8 -6 9 -8l70 -68q5 -9 29 -35t34 -43t28 -43q18 -25 26 -42t13 -36t17 -52t12 -117
q0 -185 -116 -293t-278 -108q-163 0 -298 151q-29 29 -53 4q-25 -33 -49 -78q-6 -10 -21 -8l-24 12q-12 2 -8 21l151 446q2 8 21 8l32 -8q12 -6 13 -20q-39 -203 40 -319t182 -116t167 64q61 66 61 152q0 75 -26 113t-40 55q-12 17 -20 27t-51 54q-63 63 -149 162
q-105 133 -123 215q-16 55 -17 137q0 133 100 247t281 114q117 0 242 -94q14 -8 29 -9q18 0 32 70q0 8 21 8l24 -4q17 0 17 -12l-74 -389q-6 -12 -16 -12z" />
    <glyph glyph-name="T" unicode="T" horiz-adv-x="1355" 
d="M276 -6q-20 0 -18 20l4 45q4 16 25 17h53q86 0 123 43q41 43 78 164l315 1011h-53q-266 0 -326 -45q-86 -68 -227 -229q-8 -8 -25 -8l-32 20q-13 6 -1 30t82 178t70 157q6 20 18 20t35 -16q99 -29 353 -29h512q229 0 294 37q14 8 21 8q16 0 16 -16q-26 -332 -20 -414
q0 -14 -17 -18l-32 -6q-20 0 -29 32q-43 178 -82 246q-29 23 -116 38t-171 15h-41l-323 -1044q-30 -94 -12 -134t98 -40h82q14 0 12 -21l-8 -41q-2 -20 -24 -20t-46 2l-258 4h-164l-118 -4q-28 -2 -48 -2z" />
    <glyph glyph-name="U" unicode="U" horiz-adv-x="1474" 
d="M1702 1378q27 0 20 -24l-8 -41q0 -16 -20 -17h-33q-88 1 -139 -161l-176 -562q-92 -301 -240 -450q-147 -154 -412 -154q-209 1 -336 97t-127 278q0 104 41 258l177 567q41 127 -58 127h-74q-18 0 -12 17l8 49q5 16 25 16t43 -2l244 -4l219 4q20 2 35 2q20 0 20 -24
l-8 -41q-4 -16 -21 -17h-57q-88 0 -123 -108l-168 -549q-61 -223 -61 -298t33 -134t90 -86t84 -31q33 -10 71 -10q164 0 267 90q143 125 229 416l147 524q51 186 -49 186h-65q-14 0 -18 6t-1 11l6 45q7 20 27 20t41 -2l195 -4l157 4q12 2 27 2z" />
    <glyph glyph-name="V" unicode="V" horiz-adv-x="1253" 
d="M1167 1376l161 -4q69 0 155 4l61 2q28 0 23 -18l-6 -43q-6 -20 -21 -21h-45q-90 0 -254 -202l-874 -1098q-27 -37 -67 -37t-28 78l162 1149q16 111 -78 110h-65q-14 0 -20 4q-5 4 -1 15l13 43q12 18 20 20q20 0 45 -2l246 -4l217 4q23 2 38 2t23 -4q4 -4 0 -14l-6 -47
q-4 -16 -22 -17h-58q-96 0 -112 -84l-142 -819q-6 -39 9 -45q17 -4 37 25l565 753q90 117 55 158q-10 12 -31 12h-41q-26 0 -22 21l10 45q0 16 25 16h4z" />
    <glyph glyph-name="W" unicode="W" horiz-adv-x="1785" 
d="M1866 1372l155 4h18l21 2h4q4 0 11 -2h6q6 -6 4 -12l-8 -51q-6 -16 -17 -17h-37q-63 0 -106 -55q-45 -66 -377 -618q-40 -63 -190 -285t-214 -300q-64 -79 -94 -79q-43 0 -36 74l59 860q2 12 -2 16q-8 5 -27 -12q-541 -758 -649 -885q-47 -53 -78 -53q-41 0 -28 86
l145 1145q12 106 -45 106h-49q-20 0 -19 19l6 47q5 16 23 16t39 -2l201 -4l190 4q20 2 36 2t23 -4q4 -4 0 -14l-8 -47q0 -16 -20 -17h-33q-47 0 -74 -22q-26 -27 -34 -86l-138 -832q-4 -20 8 -22q10 -4 22 9t218 312q207 299 260 373q74 111 74 190t-53 78h-29q-16 0 -16 15
l8 55q6 12 22 12t33 -2l170 -4q49 0 135 4l62 2q4 0 10 -2h6q4 -8 2 -14l-6 -49q-6 -16 -25 -17h-32q-55 0 -66 -96l-102 -852q-2 -27 4 -31q10 -4 24 15q57 60 246 380t244 478q16 41 6 72q-8 35 -53 34h-33q-23 0 -16 19l8 43q0 20 20 20h4l20 -2z" />
    <glyph glyph-name="X" unicode="X" horiz-adv-x="1286" 
d="M1343 1372l151 4h18l20 2h4q12 0 18 -4t2 -14l-6 -47q-4 -16 -18 -17h-37q-51 0 -160 -71q-7 -5 -239 -229t-240 -230l205 -586q14 -45 53 -74q33 -31 74 -30h43q20 0 16 -17l-6 -49q-4 -16 -19 -16t-34 2l-86 2q-39 2 -137 2l-197 -4h-31l-12 -2q-16 0 -14 24l6 41
q4 16 18 17h35q74 0 53 76q-37 123 -147 458q-348 -348 -414 -442q-14 -18 -20 -43q0 -49 53 -49h37q12 0 12 -19l-4 -47q0 -16 -20 -16t-44 2l-215 4l-157 -4l-37 -2h-14q-20 0 -19 20l6 41q2 20 21 21h45q76 0 156 64q26 22 42 35t19 13q68 56 296 274t232 222l-168 487
q-20 61 -46 93t-68 32h-54q-18 0 -16 21l8 43q4 18 21 18l88 -2q118 -4 194 -4l148 4h20l25 2h4q20 0 16 -16l-4 -49q0 -16 -20 -17h-37q-76 0 -45 -98l114 -358q29 26 181 184t172 188q18 30 4 56q-12 29 -53 28h-37q-20 0 -17 17l9 49q4 16 23 16t40 -2z" />
    <glyph glyph-name="Y" unicode="Y" horiz-adv-x="1191" 
d="M1252 1372l190 4l17 2h7q20 0 21 -20l-8 -41q0 -20 -17 -21h-37q-88 0 -151 -88q-373 -512 -434 -614q-45 -67 -70 -176l-49 -228q-14 -76 0 -96q16 -18 74 -18h45q16 0 16 -17l-8 -45q0 -20 -21 -20l-82 2q-111 4 -180 4h-143l-90 -4q-20 -2 -36 -2t-17 20l8 45
q0 16 20 17h45q68 0 98 28t37 76l66 303q14 49 -4 107l-213 629q-29 78 -127 77h-45q-16 0 -17 17l9 49q6 16 22 16t35 -2l209 -4l233 4q21 2 39 2t19 -16l-4 -49q-6 -16 -21 -17h-53q-82 0 -53 -90l163 -551q12 -53 41 -4q2 8 98 147t167 257t75 133q37 109 -69 108h-45
q-18 0 -13 21l5 45q0 16 24 16h4l26 -2z" />
    <glyph glyph-name="Z" unicode="Z" horiz-adv-x="1396" 
d="M782 0h-645q-31 0 -31 18t17 35l1055 1237h-156q-350 0 -428 -20q-148 -38 -217 -185q-6 -16 -21 -8l-32 13q-8 0 -9 12l86 282q7 25 21 25t32 -11q18 -10 118 -18q102 -8 178 -8h706q27 0 27 -22t-13 -35l-1046 -1233h160q316 0 460 35t242 198q6 16 21 9l28 -17
q14 0 8 -20l-106 -299q-10 -26 -55 -7q-46 19 -400 19z" />
    <glyph glyph-name="bracketleft" unicode="[" horiz-adv-x="647" 
d="M233 -348h254q18 0 13 -17l-13 -45q0 -16 -28 -16h-422q-23 0 -12 29l524 1913q2 20 29 20h405q23 0 16 -16l-16 -50q0 -12 -29 -12h-225q-18 0 -29 -28l-479 -1758q-6 -20 12 -20z" />
    <glyph glyph-name="backslash" unicode="\" horiz-adv-x="655" 
d="M238 1374l81 25q18 6 25 -13l274 -1372q6 -20 -16 -20l-82 -25q-12 0 -16 25l-279 1360q-5 14 13 20z" />
    <glyph glyph-name="bracketright" unicode="]" horiz-adv-x="647" 
d="M205 -426h-406q-23 0 -16 16l12 50q4 12 25 12h233q20 0 25 29l483 1757q6 20 -12 20h-254q-16 0 -16 17l12 45q6 16 24 16h426q23 0 13 -29l-521 -1913q-1 -20 -28 -20z" />
    <glyph glyph-name="asciicircum" unicode="^" 
d="M872 541l-315 643h-8l-311 -643h-144l430 864h66l430 -864h-148z" />
    <glyph glyph-name="underscore" unicode="_" 
d="M0 -256v102h1024v-102h-1024z" />
    <glyph glyph-name="grave" unicode="`" horiz-adv-x="491" 
d="M294 1282q46 0 87 -49l168 -236q8 -10 2 -16l-19 -18q-6 -6 -20 0l-246 172q-51 39 -33 94q15 53 61 53z" />
    <glyph glyph-name="a" unicode="a" horiz-adv-x="956" 
d="M246 184q0 -65 50 -65t173 148q123 147 167 237t44 176q0 31 -29 59q-25 31 -65 31q-80 0 -168 -125q-78 -105 -125 -235t-47 -226zM827 856h111q18 0 12 -20q-27 -59 -82 -213q-53 -133 -64 -175t-50 -161q-41 -141 -41 -152q1 -25 29 -25t122 119q12 12 21 7l24 -19
q6 -6 0 -24q-29 -53 -123 -133t-200 -80q-66 0 -66 53q0 37 86 286l-12 5q-233 -344 -422 -344q-43 0 -86 43q-41 45 -41 104q0 141 81 308t214 294q134 123 252 123t170 -70l33 58q9 16 32 16z" />
    <glyph glyph-name="b" unicode="b" horiz-adv-x="942" 
d="M729 637q0 92 -70 92q-36 0 -116 -69t-162 -185q-53 -82 -96 -188t-43 -156q0 -70 80 -70t204 129q203 221 203 447zM393 1382h312q33 0 16 -34l-332 -742l17 -4q182 250 372 250q70 0 111 -50t41 -132t-58 -219t-188 -267q-96 -100 -205 -152t-266 -52q-72 0 -119 38
q-45 40 -45 94q-1 54 17 103t409 1012q12 35 12 49q0 33 -49 33h-61q-23 0 -17 16l13 41q6 16 20 16z" />
    <glyph glyph-name="c" unicode="c" horiz-adv-x="651" 
d="M276 -20q-84 0 -142 52t-58 170t63 279q68 158 180 264q113 106 234 107q73 0 107 -40t34 -79t-28 -69t-58 -29q-55 0 -69 49q-27 61 -64 61q-63 0 -123 -139q-80 -193 -80 -350t84 -158q40 0 92 30t70 52t25 17l28 -21q12 -6 4 -20q-33 -52 -125 -114q-90 -62 -174 -62z
" />
    <glyph glyph-name="d" unicode="d" horiz-adv-x="983" 
d="M700 656q0 52 -28 87q-31 35 -82 35q-68 0 -150 -118t-129 -254q-53 -139 -53 -230q0 -35 16 -51q12 -18 37 -19q78 0 258 259q51 71 91 155t40 136zM811 1382h299q18 0 29 -10q7 -12 -7 -44t-190 -550t-189 -577t-12 -76q0 -23 25 -23t127 103q12 12 22 2l27 -23
q6 -6 0 -20q-39 -48 -106 -98q-107 -88 -222 -86q-70 0 -69 53q0 59 82 286l-21 9q-90 -141 -196 -246q-109 -102 -209 -102q-66 0 -109 51t-43 116q0 111 71 268t193 279q158 158 305 158q90 0 146 -66l137 445q10 33 -3 55t-50 23h-62q-10 0 -16 6q-2 4 0 6l8 49
q6 12 33 12z" />
    <glyph glyph-name="e" unicode="e" horiz-adv-x="757" 
d="M532 754q-68 0 -139 -105q-70 -106 -90 -203q37 0 99 22t106 56q86 70 86 150t-62 80zM70 206q0 116 65 265q68 145 200 263t296 118q67 0 105 -35t38 -86q0 -160 -188 -264q-150 -76 -299 -86q-21 -49 -21 -131t33 -117t78 -35q131 0 221 123q10 10 16 4l31 -22
q12 -6 6 -19q-45 -74 -145 -140t-210 -64q-226 2 -226 226z" />
    <glyph glyph-name="f" unicode="f" horiz-adv-x="606" 
d="M506 807h209q18 0 12 -21l-10 -53q-4 -16 -23 -16h-205q-2 -6 -17 -68q-30 -122 -140 -492q-227 -765 -580 -765q-78 0 -125 36t-47 85t28 77t70 27q42 0 70 -33q27 -33 29 -73q6 -33 41 -33q145 0 291 547l184 692h-176q-16 0 -15 20l11 49q6 20 24 21h172q2 6 15 37
q12 31 36 102t58 131q39 93 125 183q45 51 133 97t184 46t154 -40t57 -87q0 -47 -27 -80q-33 -27 -67 -27q-96 0 -111 95q-12 59 -73 59q-18 0 -52 -8q-53 -30 -79 -76q-16 -25 -35 -59q-10 -29 -29 -66q-18 -51 -30 -92t-17 -54q-4 -13 -11 -40q-6 -27 -20 -71t-14 -50z
" />
    <glyph glyph-name="g" unicode="g" horiz-adv-x="921" 
d="M57 -322q0 -102 89 -158q90 -56 194 -55q104 0 175 38q71 37 71 101t-33 103q-39 39 -162 113t-131 80q-203 -92 -203 -222zM401 279q86 0 148 129q57 133 57 256t-74 122q-61 0 -112 -79q-56 -90 -74 -158t-18 -156q-1 -114 73 -114zM322 -608q-186 0 -326 76
q-131 82 -131 172t84 160t260 141q-78 59 -78 123t176 151l4 8q-168 63 -168 240q0 131 111 260q115 129 291 129q121 0 200 -88q90 68 173 67q46 -1 68 -29t22 -60t-20 -53t-58 -21q-37 0 -66 28q-14 20 -42 20t-44 -24q33 -102 -16 -237q-27 -72 -107 -148t-188 -92
q-68 -12 -78 -12q-23 -10 -59 -43q-27 -30 -27 -54t41 -55q2 0 24 -14t121 -71q99 -56 138 -79q156 -94 155 -204q0 -137 -147 -218q-127 -73 -313 -73z" />
    <glyph glyph-name="h" unicode="h" horiz-adv-x="995" 
d="M807 852q86 0 125 -55t39 -135q0 -213 -135 -453q-152 -274 -340 -275q-49 0 -84 31t-35 75t24 75q20 33 62 32q66 0 74 -69q8 -55 41 -55q53 0 122 235q78 227 78 367q0 96 -60 96t-148 -81q-201 -186 -267 -374l-106 -250q-6 -16 -25 -16h-131q-27 0 -16 29l438 1142
q27 68 26 97q0 41 -63 41h-61q-18 0 -13 20l8 37q6 16 29 16h324q25 0 24 -20q0 -14 -20 -64l-311 -733l12 -12q201 299 389 299z" />
    <glyph glyph-name="i" unicode="i" horiz-adv-x="598" 
d="M115 37q0 45 114 364l58 160q33 86 33 115t-25 29q-33 0 -156 -140q-12 -12 -24 0l-21 19q-12 8 -8 18l14 16q42 53 82 87q73 80 203 135q43 12 78 12q74 0 74 -66q-1 -45 -62 -213l-115 -311q-36 -100 -36 -130t24 -30q25 2 86 56q59 57 74 75q6 14 18 3l23 -23
q12 -12 4 -20q-16 -25 -37 -41q-10 -14 -70 -70q-125 -104 -272 -102q-59 0 -59 57zM510 1100q-55 0 -84 35q-31 31 -31 77t35 74q29 35 82 35t90 -31q33 -34 33 -70t-35 -81q-35 -39 -90 -39z" />
    <glyph glyph-name="j" unicode="j" horiz-adv-x="561" 
d="M653 1222q0 -44 -40 -83t-89 -39t-90 30q-39 33 -39 79t37 85t98 39t93 -33q30 -34 30 -78zM-199 -471q-92 0 -141 39t-49 86t27 80q28 33 72 33t69 -33q29 -29 28 -66q6 -63 46 -63q64 0 114 86q37 61 69 124t76 208q45 145 56 174l131 401q12 41 12 74t-28 33
q-45 0 -152 -107q-8 -8 -18 2l-23 23q-6 6 0 16q47 59 159 136t226 77q27 0 46 -18t20 -43q0 -76 -80 -304l-137 -381q-18 -53 -37 -98q-88 -194 -175 -306q-52 -67 -136 -120t-175 -53z" />
    <glyph glyph-name="k" unicode="k" horiz-adv-x="933" 
d="M741 680q0 53 -57 53q-47 0 -127 -59t-106 -92q-37 -37 -62 -74l-45 -115q121 -20 259 88t138 199zM797 852q129 0 129 -121q0 -100 -131 -207q-139 -104 -242 -145v-12l139 -220q53 -77 88 -77t88 53q6 10 17 0l24 -25q8 -8 -4 -20q-98 -98 -209 -98q-78 0 -118 26
q-43 33 -74 96l-98 209q-16 39 -82 29l-123 -324q-6 -16 -29 -16h-139q-11 0 -15 9t2 20l467 1194q14 37 -2 61t-63 25h-53q-18 0 -13 20l17 37q6 16 20 16h328q29 0 14 -39l-301 -700l12 -4q60 77 158 145t193 68z" />
    <glyph glyph-name="l" unicode="l" horiz-adv-x="528" 
d="M410 1309h-66q-12 0 -8 16l12 47q4 10 17 10h315q27 0 16 -30l-413 -1119q-45 -123 0 -122q29 -1 77 39t70 67q10 6 21 -4l24 -20q6 -15 -2 -29t-55 -49q-37 -37 -133 -86t-174 -49q-25 0 -50 20q-21 24 -21 48t66 210l340 926q45 125 -36 125z" />
    <glyph glyph-name="m" unicode="m" horiz-adv-x="1540" 
d="M307 721q-19 0 -73 -47t-74 -76q-12 -12 -25 0l-24 20q-8 12 -5 21q178 213 338 213q88 0 88 -74q0 -31 -65 -184l-66 -152l17 -8q250 418 450 418q49 0 81 -29t32 -67q0 -80 -109 -326l17 -8q182 277 250 332q39 37 98 65q53 33 107 33t86 -34q31 -34 30 -75t-22 -103
q-22 -63 -40 -111t-32 -88t-30 -84t-42 -110q-28 -66 -28 -95q10 -29 24 -29q45 0 156 147q6 12 16 6l29 -18q8 -8 4 -29q-18 -30 -93 -105q-146 -146 -276 -144q-33 0 -51 18t-18 43q-1 57 105 323t106 307q0 42 -40 42t-144 -117t-199 -260q-63 -111 -78 -143l-64 -177
q-6 -16 -30 -16h-129q-27 0 -21 20l129 340q104 279 105 308q4 18 -11 28q-12 12 -32 13q-36 0 -140 -110q-192 -204 -282 -406l-68 -177q-6 -16 -31 -16h-129q-26 0 -16 25l141 381q4 13 54 138t50 151q1 26 -26 26z" />
    <glyph glyph-name="n" unicode="n" horiz-adv-x="1085" 
d="M436 852q90 0 90 -76q0 -30 -96 -268l12 -8q57 87 170 209q61 66 133 102q69 41 131 41t95 -34t33 -81q0 -83 -96 -325t-97 -276q1 -34 23 -34t66 37t63 62q14 6 24 -4l21 -17q12 -6 0 -24q-36 -44 -132 -110t-208 -66q-70 0 -70 61q0 31 25 90q22 69 42 117q20 49 28 76
q9 26 17 44t53 146q46 127 46 150q0 49 -46 49q-46 1 -153 -101q-195 -185 -278 -411l-66 -189q-6 -12 -28 -12h-132q-25 0 -16 27l139 379q94 270 95 286q0 33 -37 33t-144 -107q-6 -14 -18 -2l-23 23q-16 8 -3 24t40 44q45 39 81 69t100 52q64 24 116 24z" />
    <glyph glyph-name="o" unicode="o" horiz-adv-x="839" 
d="M299 90q119 0 233 191q56 95 98 207t42 158t-25 71q-21 29 -75 29t-113 -58q-57 -51 -137 -182q-109 -186 -109 -320q-1 -44 25 -70t61 -26zM328 -20q-98 0 -172 74t-74 206q0 272 172 461q119 131 291 131q100 0 176 -66q78 -63 78 -184t-45 -257t-131 -230
q-117 -135 -295 -135z" />
    <glyph glyph-name="p" unicode="p" horiz-adv-x="983" 
d="M549 748l-242 -674q166 27 311 151q143 129 144 301q0 117 -45 170q-43 58 -95 58t-73 -6zM692 1096l-4 -15l-104 -233q41 4 75 4q139 0 222 -78q78 -82 77 -194q0 -246 -249 -428q-182 -127 -430 -152l-140 -401q-29 -80 -13 -110t75 -30h57q20 0 12 -18l-10 -43
q-2 -12 -27 -12l-114 4q-35 2 -125 2t-127 -2l-117 -4q-10 0 -12 4q-6 0 -2 8l10 45q10 16 16 16h50q53 0 90 37q35 39 65 123l383 1086q-61 -15 -132 -69t-103 -99q-12 -12 -25 -2l-24 18q-6 6 0 20q145 178 323 242l64 197q6 23 32 28l183 58q12 4 18 4t6 -6z" />
    <glyph glyph-name="q" unicode="q" horiz-adv-x="962" 
d="M338 53q78 0 155 81t121 188q111 242 111 329q0 47 -25 78q-20 35 -65 35q-70 0 -139 -76q-98 -102 -172 -260t-74 -266q0 -51 24 -80t64 -29zM135 -541h49q49 0 90 21q35 27 58 82l217 516l-17 8q-100 -106 -237 -106q-82 0 -148 52q-65 52 -65 170t48 263t177 272
q121 115 295 115q98 0 172 -74q11 -10 29 0l143 70q18 12 37 12q29 0 12 -41l-471 -1257q-41 -102 33 -103h57q18 0 13 -20l-13 -37q-6 -16 -20 -16l-117 4q-35 2 -115 2t-116 -2l-123 -4q-18 0 -14 16l6 41q6 16 20 16z" />
    <glyph glyph-name="r" unicode="r" horiz-adv-x="765" 
d="M397 852q82 0 82 -78q0 -35 -82 -278l15 -9q57 125 151 246q96 119 182 119q43 0 75 -29t32 -73t-29 -80q-29 -35 -63 -35q-34 1 -60 21q-28 20 -59 20t-104 -92q-126 -173 -189 -363l-69 -209q-7 -12 -25 -12h-135q-6 0 -15 4q-6 6 -2 12l103 332q98 328 98 344t-11 26
t-30 11q-20 0 -68 -41t-75 -78q-6 -12 -21 -4l-24 17q-6 6 0 20q43 73 127 141t196 68z" />
    <glyph glyph-name="s" unicode="s" horiz-adv-x="638" 
d="M258 774q88 78 221 78q66 0 111 -29q49 -25 49 -74t-23 -73t-55 -25q-68 0 -82 70q-18 57 -50 57t-60 -28q-25 -28 -25 -80t21 -82q22 -50 41 -72q19 -23 24 -29q4 -6 6 -8l2 -4q78 -106 78 -225t-86 -195t-225 -75q-101 0 -153 34t-52 76q0 43 23 69t55 25q72 0 98 -82
q23 -53 67 -53q45 0 73 35t28 96q4 25 -8 53q-6 23 -21 46q-12 27 -30 52t-24 37q-7 13 -9 15l-39 68q0 2 -13 19q-24 32 -24 127t82 177z" />
    <glyph glyph-name="t" unicode="t" horiz-adv-x="651" 
d="M158 717q-18 0 -13 20l17 54q6 16 20 16h158l84 217q10 25 63 30t129 52l17 8l16 4q10 0 15 -12q4 -14 -2 -29l-134 -270h211q14 0 9 -21l-17 -59q-4 -10 -20 -10h-213l-181 -451q-37 -100 -36 -119q0 -37 36 -36q29 0 95 45t84 62t28 7l23 -24q10 -4 4 -17
q-39 -53 -158 -129t-235 -75q-45 0 -64 18q-44 31 -2 158l217 561h-151z" />
    <glyph glyph-name="u" unicode="u" horiz-adv-x="1028" 
d="M844 831h139q27 0 21 -24l-144 -418q-82 -231 -82 -257t20 -26t64 41q33 27 72 74q6 10 20 2l25 -18q6 -6 0 -21q-35 -53 -131 -129t-209 -75q-66 0 -66 61q0 27 113 321l-14 9q-274 -391 -479 -391q-35 0 -66 30q-29 33 -29 67q0 33 21 99t32 89t35 79t45 100
q88 190 88 252q0 33 -36 33q-20 0 -70 -37q-47 -40 -65 -60t-25 -20q-8 0 -10 6l-23 21q-6 6 0 16q176 197 340 197q43 0 65 -28t21 -58q0 -66 -106 -318t-107 -291q0 -38 39 -38t151 121t170 211t91 184l61 184q4 12 29 12z" />
    <glyph glyph-name="v" unicode="v" horiz-adv-x="1101" 
d="M324 193q0 253 270 552l-12 13q-32 -30 -90 -46t-103 -16h-102q-109 0 -115 -78q2 -27 57 -61q45 -31 45 -78q0 -78 -86 -78q-39 0 -69 37q-33 33 -33 103q0 111 82 204q8 12 47 50q75 48 191 48q116 1 159 3l86 4q15 2 31 2t26 -9t-3 -32q-9 -10 -33 -53
q-97 -140 -111 -201q-9 -16 -31 -83t-22 -164t35 -146t84 -49q106 0 184 90q131 168 131 352q0 84 -27 119q-55 89 3 145q33 31 82 31q50 0 76 -40t26 -91q0 -209 -135 -438q-78 -131 -197 -217t-250 -86q-82 0 -145 63q-51 45 -51 150z" />
    <glyph glyph-name="w" unicode="w" horiz-adv-x="1552" 
d="M418 684h-164q-30 0 -52 -15t-22 -38q-4 -37 58 -62q45 -31 45 -71t-23 -62q-22 -22 -62 -22t-74 40t-34 124t90 184q63 70 176 69h164l197 13q20 2 26 -10t-10 -31q-57 -70 -139 -236q-76 -168 -76 -280q0 -66 32 -105t85 -43q119 0 201 117q47 70 77 252q7 62 17 142
t18 108q18 70 107 69q31 0 48 -15q17 -14 17 -38t-11 -59t-75 -207q-47 -158 -47 -217t41 -103q37 -45 107 -45q106 -1 184 101t78 252q-1 53 -15 101t-28 62q-93 93 -27 166q29 27 68 27q137 0 137 -209q0 -113 -41 -242t-107 -224t-138 -146q-71 -51 -167 -51t-149 61
q-49 66 -62 139q-55 -74 -143 -135q-87 -65 -183 -65t-151 55t-55 161t92 270q92 165 184 271l-10 13l-27 -15q-49 -25 -96 -43q-45 -8 -61 -8z" />
    <glyph glyph-name="x" unicode="x" horiz-adv-x="952" 
d="M18 57q0 25 15 103q23 88 30 106q6 10 21 8l33 -8q8 0 8 -16q-39 -131 17 -131t278 276l-82 264q-12 45 -39 46q-41 0 -125 -152q-8 -14 -20 -8l-33 14q-17 17 75 155q40 60 95 101q55 37 103 37t71 -29q27 -25 41 -90l49 -198h8q139 199 176 239q78 78 150 78
q33 0 51 -20t18 -54q0 -98 -53 -229q-8 -14 -20 -8l-27 8q-16 6 -16 16q39 143 -8 144q-53 0 -252 -254l88 -291q14 -57 53 -58q20 0 63 56q39 45 60 84q0 14 16 4l29 -12q14 -8 8 -21q-129 -238 -278 -237q-88 -1 -119 110l-62 221h-8q-66 -94 -84 -116q-20 -31 -76 -98
t-94 -89q-37 -29 -78 -28q-82 0 -82 77z" />
    <glyph glyph-name="y" unicode="y" horiz-adv-x="866" 
d="M666 771q0 29 26 55t76 26q102 0 102 -128t-143 -413q-100 -190 -236 -401t-262 -332l-18 -18q-50 -50 -67 -63t-26 -20q-10 -7 -18 -13t-26 -18q-18 -13 -57 -33q-40 -21 -101 -21q-62 0 -92 30q-35 29 -35 74t29 75q30 30 66 32t69 -31t67 -33t86 35q98 70 203 233
q33 53 21 140q-8 123 -38 421t-54 322q-6 10 -27 10t-55 -53t-47 -94q-4 -12 -19 -10l-31 10q-10 0 -4 25q107 274 273 274q60 0 90 -50q31 -50 39 -175q20 -281 26 -578h11q212 403 208 541q0 41 -18 97t-18 84z" />
    <glyph glyph-name="z" unicode="z" horiz-adv-x="987" 
d="M765 31q18 0 40 17t22 40q-1 24 -23 62t-22 75t24 60t58 22q94 0 94 -114q0 -92 -70 -169t-215 -77q-144 0 -267 86q-4 3 -13 9q-10 6 -29 24q-19 19 -49 31q-31 13 -41 14q-53 0 -73 -72t-99 -72q-25 1 -39 19t-14 43q0 59 59 113t113 75l414 393l-8 13
q-111 -16 -201 61l-28 28q-62 62 -109 62t-47 -33q0 -18 24 -36q37 -19 37 -59t-22 -66q-23 -26 -61 -27q-38 0 -70 29q-31 28 -31 90t63 123q68 57 184 57t218 -60q104 -60 147 -59q43 0 64 74q12 33 41 63q28 30 62 31q62 0 65 -57q0 -51 -54 -105q-43 -49 -110 -88
l-434 -409l4 -13q45 2 88 -11t58 -23t71 -52q109 -96 141 -108q20 -4 38 -4z" />
    <glyph glyph-name="braceleft" unicode="{" horiz-adv-x="647" 
d="M305 426q0 78 -24 102q-18 31 -74 37q-25 0 -25 33t35 33t84 20q96 49 102 144q5 57 5 169t8 187q14 156 138 254t275 123q35 8 95 8q32 0 32 -35t-24 -35q-33 0 -66 -4q-231 -39 -266 -307q-6 -31 -16 -154t-17 -149q-18 -117 -131 -193q-14 -10 -41 -22t-44 -27
t-17 -26q0 -12 6 -16t28 -22q83 -63 85 -145q-1 -31 -11 -71t-13 -48t-7 -18t-10 -26l-18 -48q-68 -173 -68 -280q0 -108 43 -176t112 -82q25 -8 72 -8q14 0 14 -35t-14 -35q-106 0 -168 26q-63 26 -119 64q-116 90 -116 272q1 117 96 302q16 37 22 49q22 45 25 69l8 33
q4 29 4 37z" />
    <glyph glyph-name="bar" unicode="|" horiz-adv-x="512" 
d="M287 -512v2052q0 16 12 16h96q14 0 15 -20v-2048q0 -20 -13 -20h-98q-12 0 -12 20z" />
    <glyph glyph-name="braceright" unicode="}" horiz-adv-x="647" 
d="M475 524q0 16 -39 41q-16 14 -26 21q-53 53 -54 123q0 31 10 71t14 48q3 8 7 18t10 26q7 16 19 48q68 173 67 281q0 107 -46 175t-109 82q-25 8 -74 8q-12 0 -12 35t16 35q99 0 184 -33q56 -27 104 -59t85 -103q33 -73 33 -163t-78 -265q-82 -161 -82 -231t24 -100
t74 -37q25 0 25 -33t-39 -33t-68 -16q-109 -53 -114 -148q-6 -65 -6 -177t-7 -179q-14 -156 -138 -254t-275 -123q-35 -8 -95 -8q-33 0 -33 35t25 35l66 4q231 39 266 307q6 31 16 154t17 149q18 117 131 193q14 10 42 23t36 20q8 8 16 14t8 16z" />
    <glyph glyph-name="asciitilde" unicode="~" 
d="M819 655h119q0 -154 -57 -235q-61 -80 -152 -80q-57 0 -172 61l-78 54q-76 41 -127 41q-94 -8 -94 -168h-123q0 150 64 233q67 82 149 82t160 -45l86 -53q76 -57 127 -58q98 0 98 168z" />
  </font>
</defs>
</svg>
