<?xml version="1.0" standalone="no"?>
<!DOCTYPE svg PUBLIC "-//W3C//DTD SVG 1.1//EN" "http://www.w3.org/Graphics/SVG/1.1/DTD/svg11.dtd" >
<svg xmlns="http://www.w3.org/2000/svg">
<metadata>
Created by FontPrep 20130207 at Sun May 17 21:04:47 2015
 By Nick Ciolpan
Copr. H.A. Simon, 1996. Published by FontShop International FontFont release 18
</metadata>
<defs>
<font id="8c32fb701263b898b8adc00d8aa535f8" horiz-adv-x='1024' >
  <font-face 
    font-family="Market-Regular"
    font-weight="500"
    font-stretch="normal"
    units-per-em="2048"
    panose-1="2 0 6 3 0 0 0 0 0 0"
    ascent="1638"
    descent="-410"
    x-height="907"
    cap-height="1307"
    bbox="-291.037 -897 1530 1735"
    underline-thickness="131"
    underline-position="-262"
    unicode-range="U+0020-007E"
  />
<missing-glyph horiz-adv-x="1024" 
 />
    <glyph glyph-name=".notdef" horiz-adv-x="1024" 
 />
    <glyph glyph-name=".null" horiz-adv-x="0" 
 />
    <glyph glyph-name="nonmarkingreturn" horiz-adv-x="681" 
 />
    <glyph glyph-name="space" unicode=" " horiz-adv-x="503" 
 />
    <glyph glyph-name="exclam" unicode="!" horiz-adv-x="655" 
d="M281 211q31 0 61 -18q29 -18 58 -24q30 -5 35 -12t5 -43t-18 -70q-18 -33 -28 -49t-34 -15h-26q-10 -2 -53 -3q-15 -1 -27 17t-16 33q-21 38 -21 64q0 27 2 35q1 8 13 28q12 18 14 39q4 18 35 18zM609 1329q19 0 29 -8t25 -10q14 -3 23 -15q10 -12 26 -16t30 -19t16 -30
q0 -55 -31 -113t-64 -180q-97 -366 -176 -543q-8 -25 -34 -24t-31 18q-6 18 -16 39l-21 21q-2 2 -6 5t-6 6t-7 8t-6 15v17q15 44 38 142t65 247q43 149 54 221q11 71 21 125t40 78q12 16 31 16z" />
    <glyph glyph-name="quotedbl" unicode="&#x22;" horiz-adv-x="716" 
d="M744 754q-20 0 -27 2q-8 2 -33 11t-34 31t-9 25l4 17q0 6 3 17t5 21q3 10 9 33q6 22 8 33l49 197q11 37 25 111q14 75 14 85q0 37 49 37l39 -2q20 -6 35 -20q27 -31 40 -39t1 -80q-12 -41 -17 -61t-31 -95l-73 -289q-1 -14 -19 -24t-38 -10zM440 774l-62 14q-14 0 -32 18
t-18 34t7 26t9 25l72 289q23 103 27 148q3 46 13 54t34 8q22 0 33 -12q11 -14 42 -18t45 -21q8 -25 8 -39t-20 -80q-20 -65 -31 -124l-65 -281q-4 -17 -24 -29q-22 -12 -38 -12z" />
    <glyph glyph-name="numbersign" unicode="#" horiz-adv-x="1331" 
d="M731 709q-18 0 -26 -4q-8 -8 -17 -31l-49 -129q-10 -27 -10 -33q0 -14 16 -14t31 2l49 4l72 4q18 0 26 8t17 31l49 123q2 6 8 18l2 14q0 16 -41 11h-47l-49 -4h-31zM353 -82l-60 10q-41 0 -41 43q0 36 32 101t54 125l43 108q10 27 10 36q-1 9 -37 9q-88 0 -112 -6l-76 -6
q-31 0 -31 31v12q0 1 8 27q0 8 -4 10v4q-2 4 -2 9t2 11l13 21q16 20 22 22t27 7h30q16 2 56 2h125q33 0 42 11t17 32l53 127q4 12 8 20l3 12q0 12 -19 13h-65q-29 0 -41 -4h-33q-10 -3 -50 -3q-41 0 -55 6t-14 21t9 37t13 46t23 36q20 10 49 10t43 -2h39q12 -4 45 -4h78
q27 0 39 8q14 20 20 37l111 281q23 62 31 79q24 41 34 51t24 12t28 3q12 0 24 -6t33 -6q21 1 33 -19t12 -40t-18 -49q-18 -28 -28 -37q-9 -9 -33 -64q-25 -56 -62 -137t-37 -93t6 -12q4 -4 12 -4h25l47 4h47q13 2 31 2t29 6q10 8 18 37l109 273q12 34 32 66t25 61
q2 18 54 18t71 -23l24 -18q14 -8 15 -29t-9 -35q-29 -44 -43 -67l-15 -24q-9 -15 -16 -33q-6 -18 -16 -32q-10 -16 -26 -52t-29 -64l-12 -33q-10 -31 -10 -37t18 -8h27q16 4 47 4q20 5 51 5h104q18 -2 21 -9q8 -24 11 -32t3 -26t-24 -30q-4 -2 -13 -27t-32 -26h-68
q-27 0 -45 -2h-102q-13 -2 -29 -2t-29 -4q-16 -11 -47 -98q-32 -87 -32 -96t18 -9h190l29 -4q20 -4 25 -4l6 -4l4 -2q6 -23 14 -23q8 -1 8 -19t-6 -26t-10 -28q-8 -38 -37 -39l-104 2q-31 4 -68 4h-55q-23 -2 -42 -2q-20 0 -28 -6q-8 -7 -34 -71t-51 -121q-26 -57 -54 -122
q-27 -65 -44 -99t-37 -34q-48 0 -58 7t-33 26q-18 9 -5 59t28 73q15 22 18 30l78 198q10 27 10 36t-19 9h-26q-15 -4 -47 -4t-50 -4h-26q-10 0 -20 -3t-61 -126q-50 -123 -85 -194q-35 -72 -37 -74q-12 -33 -36 -33z" />
    <glyph glyph-name="dollar" unicode="$" horiz-adv-x="946" 
d="M705 170q0 128 -74 301h-4l-4 2q-4 0 -5 -4q-4 -3 -10 -23t-11 -33t-10 -31t-15 -47q-10 -28 -22 -73t-18 -58q-4 -14 -9 -28t-7 -19t-5 -17t-3 -21t24 -19t72 -10q101 0 101 80zM543 1118q0 -40 22 -119t39 -77q2 0 20 65l73 206q1 3 1 10t-19 15t-57 9q-38 0 -61 -35
q-18 -34 -18 -74zM520 -29q-50 17 -50 12q0 -4 -7 -32v-29l-4 -24v-17q0 -47 -53 -65q-20 -4 -23 -4l-76 10q-28 0 -30 36q-1 36 15 82t27 89q0 10 -16 20q-88 47 -139 113q-20 26 -38 40q-51 42 -68 90t-17 105q0 14 16 37q15 29 56 29q7 2 25 2t33 -7t31 -11q16 -5 44 -21
t26 -34q0 -18 -2 -23l-4 -25q-2 -4 -2 -27t14 -42t22 -29q7 -10 15 -18q9 -8 29 -24q20 -15 29 -16q4 0 17 50t45 143q33 94 55 169t24 82t4 12q2 4 2 18t-38 98t-68 166q-35 78 -35 139t9 93q22 78 93 137q18 15 21 18q51 43 139 43q39 0 61 -6t37 -6q14 0 21 22
q29 82 34 106t42 29q8 2 32 6h29q14 0 41 -8q27 -11 27 -29q-1 -18 -11 -38t-10 -36t-11 -33q-11 -16 -15 -28q-29 -29 -29 -43t14 -22q88 -52 133 -108t51 -66q20 -34 -14 -66q-4 -4 -29 -22q-16 -4 -23 -12t-15 -9l-37 10q-27 0 -43 19q-11 19 -27 35l-18 18q-7 17 -9 21
t-8 13t-13 20t-17 12q-12 -1 -25 -47q-15 -46 -21 -68t-16 -52t-14 -46q-14 -28 -27 -71q-14 -44 -23 -71t-9 -41q-1 -14 12 -39l53 -116q8 -16 23 -52t40 -91q25 -56 50 -158q8 -70 8 -121q0 -103 -125 -178q-74 -21 -134 -21q-61 0 -106 8z" />
    <glyph glyph-name="percent" unicode="%" horiz-adv-x="1597" 
d="M1087 174q0 -106 69 -106q24 0 52 14q25 25 33 41q121 233 121 305q0 40 -10 58t-17 20q-18 10 -24 27q-5 17 -27 17t-35 -5q-12 -7 -54 -71t-75 -146t-33 -154zM692 1233q-2 8 -28 8t-54 -31q-137 -187 -137 -313l2 -47q6 -26 15 -46q19 -43 71 -42q25 0 37 12
q18 12 36 44t40 71q23 39 28 57t27 62q31 94 16 155q-6 17 -16 21q-26 8 -29 33q-2 10 -8 16zM1427 600q91 -40 91 -192q0 -151 -117 -330q-69 -105 -213 -105q-125 0 -189 66q-75 91 -75 163q0 129 82 269q66 114 112 143q42 43 116 43t118 -18q12 -9 38 -21t37 -18z
M1001 1139l-91 10q-5 0 -5 -4v-17q0 -90 -33 -192q-65 -166 -180 -252q-44 -31 -118 -31q-155 0 -248 191q-14 35 -14 97t79 226q18 35 45 70q29 31 60 59q113 82 223 52l24 -15q23 -23 56 -28q125 -37 200 -37q212 0 256 61q1 2 7 7t8 10q10 8 20 8l41 -2q25 -8 40 -20
t22 -17q6 -12 6 -47t-8 -48t-27 -30q-34 -24 -104 -129l-574 -907q-2 -2 -53 -82t-68 -103t-63 -24q-10 0 -35 6q-42 20 -47 35q-4 14 -4 55t18 49q30 17 46 44q16 26 24 30q6 8 16 12q8 4 18 18t86 136q116 190 216 350q62 108 164 267t111 171t9 22t-6 9l-74 -10h-43z" />
    <glyph glyph-name="ampersand" unicode="&#x26;" horiz-adv-x="1081" 
d="M823 1126q0 16 -8 33q-11 12 -23 12t-26 -4l-21 -6q-37 -15 -55 -42q-18 -29 -40 -67t-23 -100v-41q4 -18 6 -44q1 -25 9 -25t22 14q114 114 134 192q6 24 16 43q9 19 9 35zM299 195q0 -48 74 -50q18 -1 89 15q70 16 132 44t61 29q4 1 4 9t-4 14l-86 270q-3 19 -12 19
l-16 -8q-2 -2 -44 -42t-82 -94t-54 -69q-13 -16 -16 -22t-10 -16q-36 -57 -36 -99zM812 -29q-22 0 -38 17q-20 10 -24 25t-12 27t-14 32q-7 20 -15 20q-23 -1 -97 -43q-53 -18 -57 -20l-41 -9q-33 -8 -51 -10l-49 -6q-14 -4 -49 -4t-50 4q-23 0 -47 10q-45 14 -65 52
q-29 45 -42 60q-34 39 -34 86t18 91q41 89 93 147t116 121l39 39q58 50 76 68t27 22q10 21 10 31q-23 100 -23 146q-4 33 -4 61t2 37q2 10 8 53q27 129 101 197q74 61 152 61t103 -13q26 -13 30 -21t9 -12q5 -5 8 -9q2 -5 20 -17t34 -40t17 -66q1 -39 -35 -145
q-18 -45 -72 -103q-49 -57 -147 -155q-18 -18 -19 -37t31 -113q33 -93 49 -143t23 -68q0 -8 6 -14v-2q4 -2 12 -2q9 0 39 30t38 36q8 4 20 14q10 10 24 19t34 21t26 14q8 2 24 3q16 0 20 -2q6 -7 8 -17t6 -21t3 -51q0 -76 -58 -102q-8 -4 -18 -12q-9 -8 -15 -11t-23 -17
t-37 -26t-28 -18t-10 -6q-4 -8 -4 -26t25 -68q2 -10 25 -64t-5 -55l-57 13q-6 0 -10 -4t-26 -5z" />
    <glyph glyph-name="quotesingle" unicode="'" horiz-adv-x="475" 
d="M476 770l-66 16q-16 0 -35 21q-19 25 -19 43t8 26t11 29l59 244q27 104 32 164q5 59 13 69t37 10t43 -16q20 -16 46 -22t34 -24t8 -44q1 -28 -23 -96t-38 -139l-49 -234q-4 -18 -27 -31q-18 -16 -34 -16z" />
    <glyph glyph-name="parenleft" unicode="(" horiz-adv-x="675" 
d="M851 1245q-36 0 -50 -6t-49 -49q-99 -121 -224 -377q-90 -190 -125 -358t-34 -291v-62q0 -70 15 -96t29 -44t17 -32q8 -10 8 -34v-27q-10 -40 -27 -52q-36 -27 -71 -1q-14 8 -34 12t-44 53t-31 125q-8 76 -8 150t14 210t89 347q125 371 397 708q10 14 18 17q7 8 13 10
q18 7 37 25q18 18 34 26l29 2q44 0 66 -63l4 -25l-2 -22q-4 -12 -8 -37t-7 -35q-4 -10 -5 -16q-1 -5 -2 -9t-3 -8t-2 -8q-8 -33 -44 -33z" />
    <glyph glyph-name="parenright" unicode=")" horiz-adv-x="675" 
d="M585 1501q30 0 54 -14q29 -25 37 -35t20 -39q27 -105 27 -258q0 -443 -129 -739q-79 -211 -258 -412q-80 -92 -184 -172q-18 -14 -33 -20l-29 -2q-23 0 -43 14t-20 35t-15 35q-14 14 -14 33t24 29t62 48q38 39 54 39q34 0 116 92q28 29 56 73l38 60q140 219 176 424
q31 158 31 273t-2 145l-8 147q-6 30 -9 46q-2 16 -8 24t-11 16q-5 9 -11 15q-31 34 -14 92q4 10 18 14t20 10q6 7 11 9q14 18 44 18z" />
    <glyph glyph-name="asterisk" unicode="*" horiz-adv-x="847" 
d="M560 1083q5 0 5 7q-7 28 -24 69q-4 18 -33 76t-8 82q6 12 27 23q21 10 33 22t34 12q34 0 61 -137l17 -53l8 -29q4 -6 9 -6t20 24q16 24 39 50q22 26 30 41l17 20q10 14 36 49q16 14 35 15h60q57 -14 57 -33q1 -19 -23 -51q-24 -31 -37 -38t-18 -20q-29 -29 -50 -57
q-21 -27 -29 -35t-14 -18q-7 -10 -7 -13q0 -4 4 -4h8q2 0 19 4l41 9q40 8 51 8l67 8q64 0 64 -27q0 -20 3 -20q3 -1 3 -15t-6 -23t-10 -21q-10 -30 -37 -29q-27 0 -35 -2h-19q-46 -1 -100 -11q-55 -10 -70 -11q-16 -1 -16 -6t2 -9l4 -4q2 -6 6 -10q14 -14 29 -47
q16 -34 30 -57q15 -23 28 -31t13 -32t-16 -40q-12 -8 -26 -23q-14 -20 -34 -20t-28 11q-33 39 -70 104q-50 91 -55 92l-8 -5l-20 -36q-17 -32 -31 -50t-22 -40t-21 -39q-29 -23 -44 -27t-39 -4t-48 15q-23 15 -23 29t7 17q11 21 36 57t35 51l30 45q24 38 34 48q2 6 2 9
t-11 3l-45 4q-31 2 -90 2q-80 0 -96 31q-2 8 -2 21l8 57q0 7 7 13t11 12q3 6 6 8t5 4l18 2q14 0 15 -2l10 -4q31 -4 72 -6l94 -7q10 -2 15 -2z" />
    <glyph glyph-name="plus" unicode="+" horiz-adv-x="1208" 
d="M836 836q-2 -8 -8 -26t-9 -28l-16 -49q-4 -14 -12 -43t-19 -59q0 -8 8 -7t23 1h22l47 2q135 20 183 20q49 0 78 -29q8 -8 8 -28t-11 -37q-15 -61 -36 -61l-31 4h-31q-20 0 -28 -4q-43 0 -158 -17l-68 -4q-30 -6 -46 -8t-19 -14q-36 -111 -54 -221t-29 -127t-57 -17
l-36 -12q-35 0 -46 11t-12 17q0 31 4 72q8 41 19 74t14 53q10 25 21 74l14 63q0 12 -10 13h-78l-111 6q-13 3 -38 6q-25 2 -44 8q-35 12 -37 117q1 12 17 26t39 15h12l55 -11l107 -6h94q47 0 49 15q2 4 7 19l9 26q14 43 20 71t16 53t18 59q18 79 39 87q37 10 57 20t57 4
t37 -30z" />
    <glyph glyph-name="comma" unicode="," horiz-adv-x="532" 
d="M299 256q35 0 59 -37t36 -44t12 -25t-7 -27l-266 -406q-9 -14 -27 -27t-22 -14q-25 0 -43 9q-6 0 -14 4l-21 2q-14 0 -22 18q-18 27 -14 38t16 32l139 239l47 88q8 10 18 32t13 26l24 49q13 25 25 34t47 9z" />
    <glyph glyph-name="hyphen" unicode="-" horiz-adv-x="933" 
d="M610 467l-186 8l-76 4q-23 4 -49 4t-45 58l-8 24q-4 19 -4 31q0 39 41 43q25 6 39 6l344 -8l153 8q76 0 76 -37q0 -43 -3 -65q-7 -52 -69 -58q-33 -2 -54 -8t-40 -6q-12 -4 -37 -4h-82z" />
    <glyph glyph-name="period" unicode="." horiz-adv-x="581" 
d="M330 -12q-39 0 -64 16q-27 10 -48 42t-23 40t-2 17t5 23q4 14 20 30t18 47q8 63 47 63q8 4 43 4q36 0 64 -22t40 -41q16 -39 16 -55l-16 -80q-8 -27 -20 -41q-6 -14 -23 -25q-18 -18 -57 -18z" />
    <glyph glyph-name="slash" unicode="/" horiz-adv-x="819" 
d="M1071 1338q0 -24 -4 -34t-30 -38q-26 -27 -46 -41q-15 -7 -53 -65q-188 -288 -313 -514t-187 -331q-183 -339 -237 -407t-64 -68q-59 0 -100 41q-10 13 -10 37t23 66t50 79t33 46l647 1120q20 37 35 53q46 66 62 82t20 21t8 8l2 4q32 26 56 26t36 -10q14 -6 43 -29
q29 -22 29 -46z" />
    <glyph glyph-name="zero" unicode="0" 
d="M825 926q0 33 -10 53q-6 27 -21 47q-40 53 -81 53q-20 0 -43 -22q-109 -125 -191 -256q-90 -137 -147 -295q-16 -40 -20 -62t-14 -70q-11 -48 -16 -68q-5 -18 -6 -68l7 -56q4 -11 6 -27t6 -23t7 -12t8 -12t18 -27t70 -1q92 30 218 232q55 87 109 223q31 63 49 124
q51 131 51 267zM783 1182q12 0 55 -15t71 -41q47 -26 70 -139q10 -66 10 -166t-94 -350q-8 -20 -15 -41t-24 -53q-19 -57 -138 -243q-60 -94 -144 -147q-84 -52 -152 -53q-18 0 -60 16t-71 36q-43 25 -78 59q-35 27 -48 55t-30 76q-12 53 -12 135t31 172q37 152 82 240
q88 199 331 475q13 16 55 16t52 -4t48 -25t48 -9q1 6 13 6z" />
    <glyph glyph-name="one" unicode="1" 
d="M711 66q0 -106 -56 -107q-21 0 -24 -4l-25 -2q-57 0 -92 29q-8 8 -8 32l2 39q2 8 10 44t20 57t81 284q69 262 85 332t17 83q0 13 -5 13t-20 -14q-72 -90 -175 -208t-128 -148q-25 -25 -86 -93q-12 -10 -29 -28q-16 -17 -24 -23t-18 -16t-15 -12q-2 -4 -7 -10t-9 -12
q-4 -7 -19 -7q-10 -4 -32 -4t-31 8q-8 8 -23 15t-24 20q-18 18 -27 35l-4 16q0 18 77 80t88 69t24 17t20 14q4 6 32 33t169 190q142 164 196 230q55 67 80 97t60 85q25 31 43 62q20 27 22 34l12 21q8 4 38 4t67 -13t53 -48q4 -12 4 -20t-6 -26q-96 -242 -162 -509l-129 -529
q-10 -46 -16 -64t-6 -46z" />
    <glyph glyph-name="two" unicode="2" 
d="M417 100q136 0 177 11q47 6 81 40t46 68q5 27 25 55t42 33q22 6 48 6q24 0 31 -6t36 -31q10 -10 10 -29t-6 -43t-16 -62q-10 -40 -27 -74q-20 -61 -63 -76q-20 -10 -66 -21q-53 -8 -104 -8q-43 -4 -156 -4h-106q-70 4 -103 4q-115 12 -150 41q-71 60 -71 125
q0 51 271 309q137 130 253 258q184 219 226 346q25 64 25 100t-15 38q-14 6 -46 6t-71 -23q-64 -27 -141 -106q-25 -31 -25 -37t-22 -33q-25 -18 -35 -43t-25 -31q-12 -10 -37 -10l-47 -8q-14 0 -57 49q-8 20 -8 41v31q7 29 49 83q41 54 86 86q133 95 221 118q50 10 133 10
q27 0 80 -29t101 -92q23 -29 22 -51q0 -174 -136 -378q-62 -93 -138 -169q-61 -70 -195 -198t-213 -226q-18 -18 -18 -31l-2 -4q0 -35 136 -35z" />
    <glyph glyph-name="three" unicode="3" 
d="M264 582q0 14 46 42t58 36q12 6 25 20q12 14 19 18q90 59 145 121q57 57 102 123q47 66 72 122t28 70q3 13 7 17v8q0 6 -14 6t-48 -16q-119 -55 -182 -119q-22 -22 -22 -44t-20 -31t-35 -22q-14 -13 -78 -13q-8 0 -19 10q-39 52 -39 80t15 47q12 27 32 44t41 34
q23 14 37 28q14 15 40 19t43 17q43 33 132 70q88 37 162 17q27 -6 35 -14q24 -12 26 -14t8 -3l18 -6t35 -28t23 -49q0 -49 -22 -82q-8 -20 -10 -31t-9 -19q-66 -116 -131 -196t-102 -115q47 0 100 -22q115 -48 115 -211q0 -99 -76 -260q-33 -68 -63 -115q-29 -53 -75 -97
q-100 -96 -230 -96q-47 0 -118 31t-145 103q-75 73 -112 122q2 4 -5 19q-7 14 -7 16v10q0 13 8 27t41 14h26q8 -2 31 -2l23 4l18 -2q2 -2 6 -5q5 -3 21 -19t36 -32q20 -15 19 -35q0 -20 49 -64q60 -43 96 -43t52 10q117 75 188 235q12 29 18 47t22 62q16 43 15 66
q0 24 -12 58t-37 43q-24 9 -40 9q-29 0 -49 -9t-36 -9t-123 -64q-45 -23 -92 -22l-27 2l-20 8q-18 18 -25 41q-10 19 -10 33z" />
    <glyph glyph-name="four" unicode="4" 
d="M698 1010q0 6 -5 6t-82 -79q-76 -79 -154 -174q-79 -95 -93 -111t-50 -62t-49 -60t-13 -28t10 -19q54 -28 164 -28q23 0 45 4l78 8q8 8 18 67t27 117q37 165 74 260q10 37 20 64zM668 197q-13 -93 -13 -125t-16 -72q-3 -14 -29 -14t-57 18q-21 16 -47 30t-26 34
q0 18 3 49q13 106 29 153q6 31 6 35q0 16 -16 17q-58 2 -148 4t-182 36q-6 2 -26 21t-51 64q-30 45 -29 67l4 31q0 10 2 14t40 45q38 42 94 108q187 218 324 353q137 134 162 152q46 33 49 47q10 16 29 34q46 23 113 -18q25 -14 24 -31q0 -59 -16 -96q-17 -37 -17 -65
t-25 -121q-25 -94 -38 -123q-82 -276 -82 -328v-10q1 -6 17 -6t28 4l33 6q43 6 57 8t60 2t62 -20t26 -48q10 -26 10 -28q0 -37 -47 -37l-57 -2l-58 -8q-111 -15 -151 -27q-14 -33 -23 -67z" />
    <glyph glyph-name="five" unicode="5" 
d="M1066 1094l-132 12h-16q-109 0 -210 -20q-102 -20 -178 -35q-14 -3 -26 -45t-26 -84t-21 -72q-8 -30 -11 -37v-10q0 -6 8 -6t33 12q26 12 78 27q31 6 79 6q141 0 216 -105q43 -65 43 -162q0 -96 -33 -179q-83 -209 -170 -302q-41 -57 -109 -107t-130 -52q-114 -2 -213 59
q-78 46 -126 98t-58 62t-19 20q-10 10 -10 26t12 24q12 7 39 34q18 23 44 23t57 -14q32 -14 42 -34q17 -17 27 -36t14 -26t33 -39t66 -54q57 -24 88 -4q10 6 53 44q81 71 158 261q12 33 18 59t22 77q16 50 17 85q0 92 -39 113q-12 4 -14 5t-31 1t-104 -35q-72 -39 -156 -123
q-12 -12 -25 -20l-14 -2q-47 0 -102 32q-27 9 -27 27q4 16 45 150q40 134 62 211t65 196q4 16 21 25q22 22 67 33t55 1t20 -10t25 4l258 33q9 2 29 4t31 4l92 6q27 -1 69 -23q72 -39 72 -83q0 -23 -18 -39q-23 -16 -40 -16z" />
    <glyph glyph-name="six" unicode="6" 
d="M737 498q0 12 -13 12t-40 -10q-53 -20 -119 -54l-67 -36q-8 -4 -47 -31l-50 -37q-43 -31 -62 -58q-19 -28 -47 -64t-28 -66t26 -56t50 -26t86 34q107 58 205 199q39 52 71 106t31 68q4 7 4 19zM958 1152q0 -36 -43 -36q-18 0 -22 2h-12l-9 4h-18q-10 0 -18 -7t-52 -41
q-100 -77 -227 -238q-117 -167 -156 -269q-4 -12 -6 -16l-4 -16q0 -8 6 -9q10 0 32 16q21 16 33 20q12 5 32 20q18 8 31 18t51 19q37 9 93 34t112 11q55 -15 67 -31t45 -58t33 -59v-8l-4 -12q-49 -170 -160 -303q-111 -125 -236 -211q-50 -35 -129 -35t-111 16
q-32 15 -46 25t-19 15q-6 5 -38 25t-52 43q-21 23 -31 47t-10 56t4 68q8 33 15 49q119 359 287 593q68 94 113 138q47 44 63 58t37 36t67 64q31 25 76 53q45 20 78 20t66 -17t42 -28q8 -4 14 -22t6 -34z" />
    <glyph glyph-name="seven" unicode="7" 
d="M954 580q-60 6 -105 6t-86 -12q-77 -21 -132 -29q-157 -225 -221 -359t-64 -190l-2 -16q-6 -8 -17 -8t-21 -18q-10 -17 -41 -17q-30 0 -66 38q-15 10 -29 31q-14 14 -14 45q0 42 88 185q173 281 182 286q2 2 2 9t-18 7t-41 2q-23 1 -32 3t-37 6t-36 12q-8 9 -15 27t-9 21
t-2 9v23l-5 23q1 16 11 25t20 9t66 -12q18 0 30 -6l54 -6q115 0 125 16q55 80 97 133t66 89q113 173 113 216q0 21 -78 21q-176 0 -255 -35t-79 -115q0 -30 -51 -30t-70 25q-20 24 -22 60t-10 54t-9 30t-1 32q0 22 30 34q60 34 155 43q96 10 126 15q66 4 92 8l105 2
q133 0 172 -19q2 -2 22 -12q33 -27 48 -43t22 -22q14 -20 14 -50t-7 -42q-7 -11 -17 -25t-29 -51q-20 -37 -95 -134q-74 -97 -95 -122q-21 -26 -21 -35q0 -8 22 -8l50 4q82 0 120 -43q19 -19 19 -31q0 -59 -19 -59z" />
    <glyph glyph-name="eight" unicode="8" 
d="M803 1112q-9 0 -19 20t-13 35q-3 14 -7 15q-30 0 -84 -43q-60 -54 -82 -162q-16 -63 -16 -123t4 -63q0 -13 23 -5t73 32t105 48q55 23 95 54q40 32 40 62q0 64 -37 101q-40 37 -55 37t-15 -4q-4 -4 -12 -4zM272 416q-48 -49 -47 -116q0 -67 33 -105q82 -113 123 -113
q25 -2 39 106q4 36 4 100t-6 122l-4 71q0 17 -8 17t-46 -16q-40 -16 -88 -66zM412 784q0 468 256 535h26q35 -1 78 -13t49 -18t16 -20t31 -24q21 -9 62 -40q75 -75 102 -139q25 -42 45 -102l2 -35q0 -35 -18 -68q-14 -31 -57 -53q-294 -153 -420 -205q-4 -12 -4 -47v-29
l10 -198q4 -52 4 -104q0 -168 -37 -242q-14 -33 -45 -37q-8 -2 -22 -7t-37 -6l-60 2q-58 13 -132 77q-74 63 -107 102q-93 110 -93 217q0 66 33 121q70 90 186 146t121 71q13 0 13 24v66q-2 8 -2 26z" />
    <glyph glyph-name="nine" unicode="9" 
d="M895 1130q-7 0 -65 -28t-124 -58q-175 -80 -284 -176q-68 -57 -123 -135l-12 -20q-4 -2 -4 -8t8 -19q9 -8 31 -8t90 24t155 75q88 52 154 112q57 47 115 115q65 90 65 120q0 6 -6 6zM666 637q0 6 -7 6h-4q-4 -2 -7 -3t-8 -4q-107 -64 -165 -69q-10 0 -48 -11t-80 -11
t-58 13q-17 12 -32 20t-27 16q-12 9 -44 53q-8 17 -24 33t-16 50t12 58q74 141 256 259q88 55 148 86t116 63t70 37q12 4 26 8t28 10q41 17 86 17t58 -14q14 -14 33 -21q4 -4 28 -20t51 -41t27 -35q0 -35 -8 -53q-7 -18 -31 -54q-24 -35 -42 -82t-42 -94q-24 -48 -52 -102
t-76 -150q-33 -72 -60 -156t-74 -217q-45 -115 -59 -227q-2 -12 -6 -18q-2 0 -28 -19t-75 0q-6 0 -49 35q-34 23 -24 53q0 1 40 109t58 160t48 134q30 84 41 118q12 34 16 46t4 17z" />
    <glyph glyph-name="colon" unicode=":" horiz-adv-x="593" 
d="M448 2q-32 0 -42 11t-27 33q-15 22 -33 34t-18 25t6 39t10 50t24 53t53 29q32 0 58 -22q26 -27 49 -39q12 -8 25 -43q8 -41 8 -63v-15l-4 -24q-4 -16 -6 -26t-10 -13q-37 -17 -49 -23t-44 -6zM521 860q23 0 39 -4t50 -33q16 -10 29 -28q16 -17 16 -33q0 -112 -53 -154
q-23 -20 -33 -20t-30 6l-33 8q-84 20 -82 80q0 59 15 83q15 23 29 53t22 36t31 6z" />
    <glyph glyph-name="semicolon" unicode=";" horiz-adv-x="573" 
d="M-82 -346q0 10 16 26t86 139q101 180 147 276q47 96 79 138l4 9q6 6 13 8t9 8h2q4 2 19 2t41 -20t39 -23q28 -8 28 -55v-27q0 -37 -16 -45q-16 -16 -23 -24q-30 -45 -90 -149q-61 -103 -86 -145q-24 -42 -34 -60t-72 -111q-10 -14 -25 -23l-28 -2q-15 0 -35 4t-38 6
q-36 4 -36 68zM594 725v-41q-11 -44 -29 -70q-12 -25 -30 -24h-50q-23 -2 -63 -2t-57 22q-21 18 -21 36t13 77q13 58 57 100q12 17 37 17t45 -9q24 -20 36 -34t37 -34t25 -38z" />
    <glyph glyph-name="less" unicode="&#x3c;" horiz-adv-x="1208" 
d="M1110 832q-6 -20 -22 -21q-16 0 -97 -51l-16 -8l-19 -7q-21 0 -76 -32t-101 -57t-60 -34t-71 -40t-74 -42q-18 -12 -40 -26t-36 -22t-14 -12t3 -13q9 -9 62 -37l61 -41q14 -7 93 -57t120 -66t51 -23t40 -7q28 0 48 -16t19 -36l-2 -16q-2 -2 -5 -6t-9 -10t-25 -29t-41 -33
t-42 -10t-58 14q-106 52 -181 99q-39 20 -77 49q-17 8 -51 30t-46 30q-12 7 -60 38t-76 48q-28 18 -35 28t-7 32t21 64l8 4q0 2 2 4l2 4q4 4 9 20t28 34q16 8 37 24q11 6 87 49t161 90t125 72q169 109 184 109q20 12 28 14q9 2 25 8q17 6 27 13t32 7t39 -18q16 -20 17 -37
l18 -51q0 -6 -6 -26z" />
    <glyph glyph-name="equal" unicode="=" horiz-adv-x="1208" 
d="M1034 367q-14 1 -107 -15t-300 -16h-144q-56 0 -80 4q-90 0 -94 8q-12 6 -39 41q-20 35 -20 59t4 29q6 3 11 17t33 14t95 -12q82 -10 201 -11l139 4q65 1 167 15t163 14l35 -2q16 -8 24 -14l17 -17q13 -22 -4 -63q-6 -24 -13 -45q-2 -14 -18 -15l-49 5h-21zM1176 729
q0 -2 -6 -36t-11 -46q-6 -12 -18 -12q-8 -4 -17 -4h-51q-23 -2 -80 -6l-321 -29q-10 -2 -33 -2h-33q-53 0 -82 4l-90 4q-25 4 -65 7t-50 7q-35 10 -34 115q0 10 6 14q11 21 26 29h29q4 0 41 -9q70 -17 195 -17h34q25 0 39 2l160 8l53 4q48 8 76 10t58 5t42 3l54 4l41 -2
q23 -9 37 -32v-21z" />
    <glyph glyph-name="greater" unicode="&#x3e;" horiz-adv-x="1208" 
d="M436 902q0 22 16 52q16 31 23 47q5 17 25 17t26 -11t32 -25t48 -24l25 -24q4 -4 16 -10q11 -6 19 -12t109 -63q101 -58 220 -133t125 -86q6 -10 6 -36t-14 -48t-22 -29t-13 -13l-8 -17q-8 -10 -15 -15t-36 -26q-38 -20 -76 -42t-64 -38q-26 -14 -66 -38t-58 -33
q-18 -10 -56 -33t-64 -38t-68 -42t-76 -47q-51 -31 -123 -31t-76 33q-4 23 -16 37t-1 33q0 8 16 20t28 15q11 3 24 12q24 8 60 26t71 37q35 18 80 45t105 59t87 50q37 19 65 35l62 37q8 4 27 16q12 13 12 19q0 14 -139 94t-172 96t-47 27q-16 8 -32 19t-19 11l-29 15
q-16 6 -27 20q-10 20 -10 42z" />
    <glyph glyph-name="question" unicode="?" horiz-adv-x="737" 
d="M287 60q0 18 2 26l12 48q17 64 71 66q18 0 63 -24q46 -25 67 -49q22 -23 22 -47t-4 -33q0 -14 -20 -34q-45 -46 -94 -47t-78 30q-6 10 -24 28t-17 36zM412 1153q0 94 45 133q70 64 165 64t179 -43q23 -12 67 -54q33 -39 33 -85t-4 -64q0 -48 -90 -146q-31 -33 -120 -121
t-149 -162q-59 -74 -60 -89q-1 -16 26 -29q33 -8 53 -8l72 4q23 0 51 -4q39 -13 49 -25q8 -4 12 -4t14 -8q17 -13 23 -57q3 -27 -33 -35q-8 -2 -26 -7q-19 -5 -77 -5t-118 10q-62 6 -108 24t-60 29q-12 10 -28 42t-17 44l-4 21q0 24 7 30q6 6 10 14t8 13q46 83 108 153
t184 198t121 165q0 21 -32 53l-15 6t-21 8t-30 5q-19 0 -41 -15l-37 -30q-12 -12 -12 -23q-4 -8 -4 -27l4 -47q0 -12 -8 -28q-12 -15 -51 -15t-72 45q-14 21 -14 70z" />
    <glyph glyph-name="at" unicode="@" horiz-adv-x="1433" 
d="M700 473q0 -26 23 -29q21 0 53 25q94 85 146 160q61 74 61 98q0 6 -6 11q-6 4 -6 18t4 18q1 8 25 35t32 47q17 23 17 38q1 14 -15 28t-24 14q-41 0 -78 -35q-41 -31 -81 -81t-60 -89q-23 -35 -32 -63t-27 -59q-18 -32 -25 -64l-7 -31v-41zM1348 881q0 104 -33 180
q-69 133 -205 160q-60 14 -107 14q-187 0 -354 -158q-69 -57 -143 -182t-102 -250t-29 -203q0 -158 90 -254t246 -96q157 0 305 105q23 20 49 20q27 0 57 -12q29 -14 45 -49q2 -6 17 -21q8 -17 8 -33t-8 -24q-4 0 -12 -3t-13 -5l-24 -9q-6 -2 -21 -8q-182 -119 -362 -119
q-77 0 -179 29q-100 37 -139 70q-123 96 -166 196q-47 100 -47 238q0 49 8 143q27 152 73 251q100 216 230 343q213 172 406 172q127 0 221 -34q129 -47 248 -195q23 -27 51 -78q43 -101 43 -204t-19 -192t-81 -190q-21 -37 -65 -95q-75 -98 -187 -99q-59 0 -131 45
q-41 26 -48 56t-12 40q0 8 -5 8q-10 0 -24 -24q-15 -24 -32 -37q-20 -25 -63 -51t-73 -27q-55 0 -77 25q-6 2 -16 9t-13 7q-10 10 -18 14q-39 25 -55 68q-23 39 -23 116t47 179q44 116 107 186q138 152 241 152q44 0 99 -41q43 -26 58 -49t24 -39l2 -19q0 -10 6 -15
q6 -4 25 -16t20 -28v-21q-25 -76 -66 -151q-4 -12 -16 -42t-20 -62t-9 -37l-2 -54q0 -14 9 -31q9 -18 35 -18t69 38t77 97q83 144 83 314z" />
    <glyph glyph-name="A" unicode="A" horiz-adv-x="1044" 
d="M901 74q1 -123 17 -163q16 -41 20 -49t4 -19t-10 -19l-20 -16t-11 -9l-12 -8h-10q-70 0 -105 37q-39 39 -39 260l8 274q0 8 -12 9q-59 -20 -120 -42t-162 -50q-101 -29 -123 -33t-26 -7q-3 -3 -15 -22q-33 -72 -33 -143l2 -86q4 -10 4 -22t-8 -18t-22 -16t-19 -14
q-14 -16 -40 -16t-67 41q-28 28 -28 90q0 61 6 99t6 44l10 41l2 16l2 5q0 8 -20 19t-39 23q-18 12 -18 42t13 66t19 42t25 6t49 -23t43 -7q8 4 40 70t109 194q76 128 121 207q112 182 220 349t116 171q6 8 16 8t61 15q50 15 93 7q42 -8 44 -19t8 -15q7 -4 8 -15l-4 -35
q-8 -41 -14 -73t-7 -53q-6 -29 -6 -45t-11 -89q-11 -72 -23 -225q-17 -202 -17 -244v-8q4 -4 12 -4l37 4q33 4 71 4q94 0 123 -39q19 -22 3 -51t-52 -40t-78 -11q-41 0 -71 -5t-40 -18q-11 -12 -13 -12l-5 -26l-10 -205q0 -16 -2 -27v-102zM379 426q0 -8 12 -8q24 0 77 16
q52 16 73 22t77 27t89 31t36 18l5 15q45 352 47 466q2 115 -3 115t-10 -2q-3 -4 -78 -124q-75 -121 -137 -228q-43 -68 -84 -147l-80 -148q-24 -45 -24 -53z" />
    <glyph glyph-name="B" unicode="B" horiz-adv-x="1175" 
d="M984 651q-20 25 -88 25q-67 0 -154 -49t-114 -69q-26 -20 -72 -41t-74 -21t-27 -4q-7 -3 -25 -76q-18 -72 -22 -94t-14 -65q-10 -45 -11 -65q0 -20 14 -34q129 -129 271 -129q81 0 147 94q48 62 112 192t70 185q7 55 7 91q0 35 -20 60zM979 1254q0 11 -10 12
q-84 0 -155 -29q-70 -29 -108 -57t-47 -33l-28 -62q-17 -33 -37 -93t-50 -141t-48 -137t-3 -58q15 -1 48 24q41 24 70 66q51 74 151 172q61 68 117 146t78 129q22 50 22 61zM744 1346q24 0 46 13t62 21q88 29 195 -4q55 -20 94 -54t39 -66q0 -54 -78 -183q-53 -72 -101 -125
l-40 -49q-27 -31 -35 -47l-27 -35q-4 -8 -10 -14v-2q-1 -6 17 -14q18 -7 54 -7t68 -10q116 -50 156 -137q14 -21 14 -79q0 -110 -61 -230q-21 -44 -74 -128q-54 -83 -70 -108q-97 -156 -329 -156q-75 0 -115 11q-65 6 -92 22q-29 15 -55 25t-56 39q-8 -4 -14 -4h-17
q-35 0 -65 24q-29 29 -47 44q-17 15 -19 19t-2 14q0 11 -17 32t-26 26q-14 20 -28 34t-16 33q-2 18 -12 31q-9 13 -17 25q-4 12 -5 27q0 20 25 26q18 8 64 8t65 -8q8 0 12 5q6 0 27 99q34 159 115 413q55 150 59 157l-22 47l-3 35q1 18 3 22t10 5q47 18 67 57q25 44 47 104
t45 84q24 24 64 3l37 -19q44 -26 68 -26z" />
    <glyph glyph-name="C" unicode="C" horiz-adv-x="966" 
d="M295 303q-6 -18 -6 -70v-20q0 -16 8 -39t18 -33q19 -15 41 -37t53 -22t87 20q142 67 313 238q19 20 33 30t45 11h33q44 0 62 -31q19 -31 19 -40t-6 -15q-9 -3 -135 -129q-199 -213 -397 -213q-133 0 -209 57q-6 4 -53 39q-31 31 -45 48t-19 42l-6 66q-4 20 -4 61t4 62
q0 25 8 65l8 49q2 23 7 27q109 303 239 492q66 103 165 209t220 176q27 16 74 22q49 12 95 12q81 0 118 -37q14 -18 56 -57t42 -79q0 -41 -57 -163q-16 -40 -26 -72q-16 -55 -68 -54q-20 0 -31 4q-37 0 -50 11t-18 13l-20 21q-8 8 -8 35t33 75l24 37q12 18 15 36t13 32
t11 38q0 24 -19 25q-61 0 -139 -55q-6 -6 -18 -14q-11 -8 -19 -16l-24 -23q-16 -16 -25 -23q-29 -33 -39 -43q-10 -11 -42 -55t-110 -148q-77 -104 -136 -243q-57 -123 -86 -214t-29 -108z" />
    <glyph glyph-name="D" unicode="D" horiz-adv-x="1134" 
d="M352 92q24 -12 92 -12q97 0 181 86q145 141 262 336t192 413q16 49 17 84l-6 50q-4 11 -8 29q-14 53 -74 85q-89 32 -172 -2q-83 -33 -119 -41q8 -8 8 -18t-12 -29q-22 -20 -28 -36q-55 -129 -103 -226l-99 -233q-105 -278 -131 -474v-12zM569 -47q-53 -20 -219 18
q-2 -14 -18 -16q-8 -2 -36 -2t-63 22q-37 27 -51 54l-43 18q-57 23 -110 74q-20 27 -21 53q0 35 41 35q20 0 33 -4l43 -2q16 0 31 -10q23 -23 37 -7q87 354 249 748q0 10 -2 12h-6q-8 0 -16 -8q-16 -8 -25 -16q-14 -6 -28 -17q-17 -6 -29 -6t-29 12q-12 12 -12 63t16 69
q36 42 75 69q40 26 78 52t73 40q47 29 106 49q110 47 229 47q53 0 101 -10q51 -6 79 -26t58 -39q132 -82 154 -164q10 -37 10 -97q0 -108 -55 -206q-11 -23 -15 -36t-42 -93t-98 -189q-121 -222 -294 -372q-96 -78 -201 -115z" />
    <glyph glyph-name="E" unicode="E" horiz-adv-x="1040" 
d="M164 94q-4 20 -4 97t45 194q8 25 41 115l43 110q-3 6 -15 22t-12 42v12q0 8 4 12q4 10 15 11q5 4 27 10t36 12l2 2q2 4 15 25t49 113q37 91 49 139q0 10 -9 10q-8 0 -28 -8t-55 -8t-52 28q-12 16 -16 29q-16 25 -16 45t12 22q113 29 224 72q141 55 239 86q290 74 463 74
q27 0 69 -12q25 -12 70 -45q31 -31 31 -55t-7 -34q-8 -8 -24 -8l-51 -12q-13 0 -29 10t-45 10q-226 0 -516 -96q-19 -7 -27 -29t-26 -70q-18 -49 -37 -93t-47 -121q0 -8 8 -8q145 51 147 51q70 29 150 29t157 -41q27 -14 27 -62q0 -14 -13 -21q-37 -20 -63 -20
q-11 -4 -29 -4t-28 4l-33 2q-57 0 -118 -16q-60 -17 -70 -21t-47 -17t-65 -23q-28 -11 -50 -15l-35 -12q-20 -7 -26 -21q-35 -84 -70 -155t-61 -162q-25 -90 -25 -127t18 -57q16 -23 37 -23q75 0 162 39q14 6 42 17t38 18q14 4 37 12l22 10q51 24 124 69t118 61q44 18 76 18
t36 -6t18 -16q13 -10 20 -16q7 -7 16 -13q8 -12 8 -27t-12 -19q-28 -9 -56 -33t-45 -34q-94 -49 -191 -100t-233 -79q-135 -28 -239 -28l-27 4q-15 5 -43 17l-49 24q-51 37 -51 90z" />
    <glyph glyph-name="F" unicode="F" horiz-adv-x="913" 
d="M310 626q30 8 31 12q1 3 159 386q0 10 -11 10t-90 -38q-80 -38 -104 -39t-53 28q-12 17 -18 25t-7 24q0 16 12 27l17 33q2 10 14 14q115 28 225 73t120 47q11 3 19 6t50 13q41 10 84 23l123 30q144 35 211 35q68 0 122 -9t95 -66q8 -24 8 -45t-1 -24t-31 -17t-51 -13
q-22 0 -26 4t-10 12t-27 19q-20 10 -50 10q-31 0 -71 -11t-90 -17t-104 -24q-55 -18 -91 -26t-38 -18q-4 -8 -4 -18v-17q0 -13 -96 -190q-41 -82 -68 -180q0 -10 14 -11q92 25 134 31q41 7 135 25t100 20h16q4 0 17 -4l20 -8q45 -18 70 -37q12 -19 12 -37t-8 -25
q-17 -9 -283 -57q-278 -58 -278 -65q-4 -2 -22 -38t-33 -108q-15 -71 -33 -115q-44 -102 -43 -206l4 -56q0 -28 -33 -28q-63 0 -131 37q-14 9 -14 24q-1 125 73 361q14 46 15 49v10q0 20 -30 20q-30 1 -49 19t-19 32t-7 25q-6 11 -6 21t30 20t50 12t50 10z" />
    <glyph glyph-name="G" unicode="G" horiz-adv-x="1220" 
d="M942 -98q-16 0 -25 7t-32 7t-27 9t-4 30q0 71 23 135q6 33 13 59q7 25 7 31t-4 6t-21 -10q-123 -123 -229 -186q-57 -31 -129 -51q-72 -19 -106 -19q-156 0 -261 170q-20 41 -20 86q0 149 66 336q35 104 115 248t195 268q114 125 230 205q47 37 115 75t101 43q34 5 55 9
h34q43 0 115 -25q170 -59 170 -151q0 -57 -13 -119t-28 -86l-10 -31q-4 -12 -15 -22q-8 -20 -34 -38t-41 -19q-14 -1 -22 7t-40 14q-30 8 -36 22t-14 23q-9 9 -9 21t20 39q8 4 17 19q10 8 16 30t10 25q4 4 10 12q5 8 14 18t9 81q0 51 -71 51t-142 -43q-43 -23 -76 -53
q-33 -25 -69 -62l-115 -112q-74 -70 -127 -148q-131 -174 -188 -344q-68 -164 -68 -250t6 -98t8 -19l4 -4q4 -2 13 -20q2 -10 23 -20t48 -9q27 0 93 25q66 24 136 86t126 110q63 49 86 70q33 25 53 45q14 10 39 35q58 68 72 86t14 30q0 11 -15 11q-15 1 -62 -15t-81 -24
q-18 -8 -47 -8t-41 4q-14 0 -37 16t-33 28t-10 37q0 26 7 37q12 19 68 19t107 19t76 24q58 21 131 23q21 0 68 -44t47 -72t-40 -110q-40 -83 -58 -143t-49 -174q-25 -142 -25 -215q0 -12 -13 -20q-13 -7 -18 -11l-24 -12q-15 -4 -31 -4z" />
    <glyph glyph-name="H" unicode="H" horiz-adv-x="1150" 
d="M228 389l-100 -12q-26 0 -71 8q-33 12 -59 41q-14 33 -14 47q-9 27 -9 40t9 24q12 8 23 8t44 -8q20 -10 47 -11l11 2h18q16 4 49 9l55 8q60 12 60 20q5 1 19 29t30 99t52 155q143 334 253 534q16 25 46 25t45 -11q14 -12 38 -18q44 -12 45 -39v-14q-1 -10 -27 -46
t-67 -116q-58 -127 -114 -268q-55 -141 -79 -186t-25 -53t-1 -23q0 -16 12 -17q161 24 313 68l17 8q20 13 106 254l80 242q2 12 12 20t23 17q8 10 33 10l33 -2q8 -4 31 -4q63 0 65 -47q-1 -71 -63 -205q-62 -133 -93 -221q0 -16 15 -17q20 -1 78 19t92 20q32 0 52 -10
t37 -10q16 0 40 -32t28 -38q4 -4 4 -32t-16 -27q-102 0 -191 -21q-90 -21 -136 -29t-56 -13t-12 -13q-27 -45 -44 -109t-44 -145q-27 -82 -37 -172q-12 -70 -29 -209q-4 -12 -16 -20q-32 -12 -62 -4t-49 14q-18 8 -29 31q-16 53 -16 73v25q0 2 2 8t3 12q1 7 12 43t36 150
t43 170t17 77q0 20 -23 19q-14 -4 -42 -9t-54 -11t-80 -16q-54 -9 -79 -15t-37 -8t-15 -6q-26 0 -60 -160q-3 -14 -9 -38q-6 -23 -9 -45q-4 -22 -11 -38t-7 -47l10 -90q0 -27 -6 -43t-35 -17l-33 2q-23 9 -33 17t-20 12q-14 0 -29 14l-16 17q-4 6 -17 6t-8 41q4 41 8 58
t9 41q4 24 8 40l12 62q4 23 12 59l5 37q0 10 -10 10z" />
    <glyph glyph-name="I" unicode="I" horiz-adv-x="520" 
d="M203 -92q-11 0 -15 10t-18 10t-37 15q-15 16 -27 16t-12 11q0 20 12 69l13 49q12 33 16 40t9 22l8 24q92 348 213 678q33 94 57 170t36 99q12 22 38 79q23 63 26 82q6 25 57 25q52 0 99 -17q20 -10 32 -20t11 -32q0 -33 -12 -71q-15 -26 -62 -73q0 -2 -5 -14l-9 -23
q-68 -172 -167 -469l-153 -459q-4 -16 -4 -20l4 -31q0 -49 -39 -125q-5 -8 -25 -8t-26 -21q-10 -16 -20 -16z" />
    <glyph glyph-name="J" unicode="J" horiz-adv-x="819" 
d="M352 1207q0 13 4 42q8 25 12 38t40 13q38 0 76 8t96 20q58 11 170 37q113 26 221 28q20 1 63 -27q42 -28 51 -43q18 -36 -4 -70q-4 -20 -32 -51q-27 -32 -48 -69q-212 -445 -289 -693q-78 -247 -102 -296q-24 -50 -37 -70q-3 -12 -43 -76t-108 -120t-119 -56t-86 24
t-67 32q-32 9 -64 40q-29 37 -43 70t-31 98q-8 74 -8 148q0 125 49 221q25 37 41 37l64 -9q28 -1 50 -23t22 -50t-15 -45q-15 -16 -21 -40t-14 -49q-8 -12 -8 -18q-8 -8 -8 -72t8 -110q18 -49 28 -67t21 -21q15 -15 52 -8q37 8 75 53q18 18 46 63t32 56q33 47 57 129
q18 40 79 217q60 176 82 230t39 97t33 80q15 37 24 64t49 107q40 81 65 143q0 8 -12 8q-39 -6 -113 -27l-119 -33q-2 -2 -8 -5t-20 -12t-41 -15q-154 -15 -166 30q-2 10 -15 19q0 2 -2 4l-2 4q-4 2 -4 15z" />
    <glyph glyph-name="K" unicode="K" horiz-adv-x="1089" 
d="M1464 1274q25 -10 25 -26t-19 -34q-190 -231 -481 -407q-103 -65 -212 -117q-109 -53 -118 -61q-4 -7 -4 -23q-1 -16 13 -46t19 -50q13 -52 89 -174q118 -190 268 -340l33 -33q6 -3 41 -23q72 -40 72 -75t-31 -43l-20 -4l-9 -4l-8 -4q-2 -2 -30 -2t-67 16q-41 16 -65 35
t-49 39q-31 32 -47 52t-90 100q-73 80 -129 175q-88 133 -141 289q-23 69 -27 70q-8 0 -10 -9q-55 -115 -119 -268q-53 -154 -76 -284l-6 -19q-6 -10 -30 -23q-50 -28 -60 -1q-6 14 -22 19t-30 12q-16 7 -28 14t-12 23t1 28t40 133t207 536q120 263 186 393q68 130 72 135
t16 12t28 27t45 21q30 0 34 -14q3 -9 44 -22q40 -12 40 -56q-1 -9 -41 -69q-115 -170 -201 -377q0 -11 14 -11q7 0 56 15h10q4 4 9 5t13 5t13 6q405 197 651 492q10 10 10 12h10q54 0 107 -39q10 -6 16 -6z" />
    <glyph glyph-name="L" unicode="L" horiz-adv-x="921" 
d="M733 1348q5 -8 29 -14t46 -22q22 -14 21 -26q0 -41 -14 -61q-14 -21 -14 -37t-23 -34q-51 -40 -94 -165q-14 -37 -25 -51q-142 -293 -309 -764q-8 -18 -8 -38t9 -32t22 -12l24 2q10 4 86 23t200 63t187 70q12 4 34 4t59 -16q36 -16 65 -48q4 -8 4 -14t6 -12t6 -23v-14
q-4 -8 -6 -14q-8 -13 -23 -17t-63 -4h-20q-2 0 -54 -12t-167 -57q-114 -45 -216 -68q-183 -41 -239 -10q-18 10 -47 30q-33 33 -38 41t-21 26t-15 34q0 16 8 53q10 25 27 66q2 12 6 18q0 30 21 90q90 262 213 518t239 512q13 23 44 23q32 0 40 -8z" />
    <glyph glyph-name="M" unicode="M" horiz-adv-x="1339" 
d="M811 1346q0 -10 -13 -71t-24 -85q-2 -12 -8 -32q-23 -75 -25 -238v-23q2 -8 2 -50t2 -77v-125q0 -25 13 -24l4 2h2q2 4 52 58t114 110t151 143q35 29 150 139q83 88 109 122t31 39t5 7l15 2q43 0 57 -8t33 -8l10 -6l16 -17q23 -31 23 -48t-10 -34q-82 -121 -144 -254
q-117 -232 -190 -610q-29 -156 -42 -289t-18 -143q0 -8 -10 -8t-19 8t-23 8t-13 -4q-4 -4 -28 -4t-79 51q-4 4 -4 12v5q4 12 6 38t6 46q5 19 18 100q14 82 22 128t14 85l4 37q6 27 10 52t14 56t17 63q8 31 14 49q7 18 25 80t37 111q-1 9 -7 9q-12 1 -94 -93
q-66 -66 -164 -176q-31 -31 -43 -47l-18 -18q-2 -2 -7 -2q-6 0 -22 6t-47 10q-78 10 -100 49q-13 17 -27 69t-16 118v198q0 10 -5 10t-9 -6l-17 -28q-55 -102 -94 -207q-29 -69 -80 -213q-110 -311 -108 -430q-1 -10 -15 -22t-30 -13q-16 0 -23 -10q-6 -10 -18 -11l-76 33
q-8 0 -27 25q-14 28 -14 56t10 50q4 18 20 51l25 43q13 31 35 115q56 210 342 797q88 195 108 246t25 55q2 8 8 8l23 -2q6 -4 56 -12t67 -24q16 -17 16 -27z" />
    <glyph glyph-name="N" unicode="N" horiz-adv-x="1224" 
d="M297 -18q0 -37 -74 -37q-31 0 -41 3t-14 3l-27 18q-30 12 -30 37t16 80q11 61 61 229q49 169 80 276t49 160q19 54 19 62l18 70q45 169 66 257q22 88 29 92t14 5l12 4q4 4 4 17t-16 32q-14 29 -14 78l2 12q44 29 141 29q18 0 29 -29q76 -235 114 -592q35 -365 96 -595
q9 -31 15 -31t8 5t53 116t101 271t88 294q38 135 57 175t25 122q6 83 18 125t16 49q6 6 29 6l84 -12q12 0 23 -10q12 -6 24 -21l21 -20q6 -12 6 -34q1 -22 -17 -51q-18 -28 -19 -37t-21 -67t-48 -147q-28 -88 -68 -214q-207 -648 -257 -704q-53 -53 -84 -53t-38 2
q-7 3 -56 25t-67 49q-40 58 -81 268q-27 166 -56 384t-46 226q1 6 -7 6q-8 -1 -18 -35t-50 -160t-60 -200q-33 -102 -71 -269q-38 -166 -38 -269z" />
    <glyph glyph-name="O" unicode="O" horiz-adv-x="1003" 
d="M346 282q0 -46 24 -108q24 -63 72 -80q26 -6 56 -6t63 23q41 18 64 53q148 228 206 469q40 130 50 270v43q0 58 -26 101t-62 55q-13 4 -13 20q0 28 -30 13t-68 -58q-210 -218 -301 -506l-16 -51q-8 -41 -9 -76l-4 -59l-4 -43q-2 -14 -2 -60zM1063 872v-30q0 -18 -3 -30
t-5 -34t-13 -53q-49 -197 -108 -357t-162 -288q-103 -129 -287 -129q-51 0 -123 18q-24 8 -62 40q-82 70 -103 163q-16 47 -17 129q0 209 66 383q68 168 182 336q55 84 113 143q53 61 109 95t76 34q18 0 62 -22l31 -8q37 -15 53 -15l21 -2q67 -31 118 -136q52 -105 52 -237z
" />
    <glyph glyph-name="P" unicode="P" horiz-adv-x="1003" 
d="M1094 1193q0 21 -7 28q-8 4 -45 4h-14q-38 -13 -127 -31t-158 -59q-39 -18 -75 -56q-45 -125 -89 -233t-65 -215q12 -11 36 -29t32 -27q29 -20 45 -20t37 12q218 143 364 428l31 74q35 103 35 124zM317 602q0 12 -8 19q-37 22 -38 44q-1 21 1 23t12 7t24 15t30 9
q16 0 19 9l9 24t8 26q3 10 8 28t18 48t19 58q5 28 4 30t-11 2t-34 13t-26 26q-4 7 -16 21t-12 30t16 33q8 12 55 45q121 78 177 110t140 71q189 85 343 83q35 0 69 -5t72 -36q37 -31 54 -59t18 -118q1 -89 -82 -235q-82 -145 -174 -247q-88 -102 -197 -189q-19 -13 -84 -36
t-108 -23q-44 0 -61 4q-18 4 -34 15t-24 16q-20 26 -41 29l-8 -5l-34 -109q-28 -92 -41 -144q-14 -52 -20 -76t-22 -98q-16 -75 -16 -88t-19 -25q-19 -13 -41 -13t-28 6t-12 11q-7 6 -13 8t-14 8q-43 15 -43 36q0 7 4 25t9 39q5 23 8 31t9 34l19 79q6 25 8 35l33 100
q0 39 20 90t38 102q18 52 17 64z" />
    <glyph glyph-name="Q" unicode="Q" horiz-adv-x="1134" 
d="M1069 992q0 156 -67 157q-169 0 -363 -186q-196 -213 -258 -398q-37 -102 -37 -217q0 -248 105 -248q96 0 268 172q10 10 10 27l-63 127q-33 66 -41 86t-19 39q-10 20 -16 41l-6 26q-4 10 -4 25q0 37 44 37t63 -12t48 -12t39 -31q20 -69 26 -93t22 -51q15 -27 22 -26
q2 0 10 4q39 39 86 127q82 138 115 262q16 72 16 144zM172 294q-4 38 -4 114t24 152q24 77 27 90q2 13 10 28q137 285 320 444q23 20 33 26t44 26q34 22 91 51q146 55 213 55q25 0 67 -20q41 -20 81 -30q40 -9 79 -44q80 -72 80 -224q0 -153 -78 -323q-86 -177 -180 -301
q-37 -49 -41 -53v-13q6 -12 70 -122q97 -145 172 -228q48 -49 78 -72t30 -28q0 -35 -51 -35t-92 8q-35 14 -60 33q-133 111 -249 285l-13 12q0 2 -6 2q-5 1 -25 -21q-57 -62 -145 -102q-79 -43 -137 -43l-78 2q-19 -1 -42 13l-36 21t-25 17t-21 14t-13 8q-4 3 -9 6
q-48 29 -67 62q-19 32 -31 92t-16 98z" />
    <glyph glyph-name="R" unicode="R" horiz-adv-x="1011" 
d="M485 684q0 -29 64 -29q21 0 29 4q14 0 57 17q21 0 35 7q111 56 207 181q71 123 71 202t-14 93q-14 13 -38 21t-58 8t-86 -13q-53 -13 -64 -30q-71 -124 -110 -213q-40 -88 -93 -248zM1098 -63q0 -39 -67 -39t-156 56t-152 120q-39 41 -105 127q-29 45 -86 139
q-14 31 -81 149l-9 13q-4 2 -8 2q-23 0 -51 -129q-55 -261 -55 -346q0 -37 -84 -37q-18 0 -22 4t-18 10l-16 8q-3 2 -12 6q-8 4 -18 10t-11 27q27 205 89 430t95 312q33 85 37 93t16 25q14 17 24 55t24 66q0 8 -6 8t-20 11q-39 39 -46 57q-10 10 -10 23t15 26q92 67 176 94
q37 15 109 33q173 42 308 -4q35 -12 46 -18q8 -8 30 -23t35 -28q51 -81 51 -170q0 -193 -159 -365q-74 -74 -154 -100q-33 -14 -86 -33q-95 -25 -103 -31t-8 -14q20 -53 64 -115t71 -108q28 -46 91 -109l49 -49q55 -47 84 -62q23 -8 51 -16t34 -14q4 -6 24 -37
q20 -32 20 -57z" />
    <glyph glyph-name="S" unicode="S" horiz-adv-x="884" 
d="M634 1339q182 0 290 -118q57 -60 73 -168l9 -37q4 -25 4 -32t-12 -15t-28 -8q-48 0 -93 38q-40 40 -46 63q-15 59 -32 97q-31 45 -80 45q-9 0 -29 -43t-20 -119l4 -67q3 -82 37 -192t56 -198q21 -88 48 -179q35 -160 39 -200t4 -89t-35 -101q-51 -68 -119 -74
q-12 -1 -53 -1q-135 0 -266 71q-127 76 -225 197q-8 9 -28 29q-63 63 -87 172q-4 20 -4 30v31q0 16 19 44t66 12q48 -15 65 -26t51 -40q20 -25 20 -39t-7 -28q-7 -12 -7 -30t3 -25t5 -13q19 -56 125 -150q133 -102 221 -102q23 0 47 20q23 27 23 69q0 50 -14 165
q-14 114 -117 456q-41 173 -41 195l-8 45l-7 84q0 40 4 56t11 46q4 65 52 110q22 19 82 19z" />
    <glyph glyph-name="T" unicode="T" horiz-adv-x="794" 
d="M356 1233l125 -6q101 1 292 33t260 32t114 -16t82 -47t37 -39q0 -33 -9 -43q-8 -15 -19 -19t-21 -14q-21 -8 -37 -8t-18 8t-30 18q-26 10 -36 17q-10 6 -47 6q-130 0 -285 -31q14 -14 14 -24l-4 -13q-123 -205 -221 -448q-90 -236 -137 -485l-6 -39q-4 -8 -4 -33v-25
q2 -7 2 -29q0 -59 -49 -60t-111 38q-4 2 -19 23q-8 20 -8 33q0 12 2 30q1 18 31 147t110 369t193 471q0 8 -12 8q-100 -10 -168 -10t-96 33q-4 4 -5 12v47q0 37 18 55t32 17q14 0 30 -8z" />
    <glyph glyph-name="U" unicode="U" horiz-adv-x="1228" 
d="M344 194q0 -32 4 -36q0 -6 9 -6t33 10t44 31q225 225 455 507q96 123 147 201q101 140 119 191l10 20q27 53 52 72q20 23 28 22l68 -8q14 0 22 -18l29 -45l12 -29q0 -14 -20 -66t-58 -105q-37 -54 -63 -126q-148 -395 -148 -813q0 -39 3 -45v-17q0 -20 -26 -20t-30 5
t-27 10t-50 25q-27 21 -43 28t-8 35q7 28 11 34t9 31q8 78 17 190t23 174t15 71q0 9 -8 9t-19 -10q-78 -90 -210 -240t-267 -268q-66 -52 -137 -24q-29 8 -42 22t-35 22q-21 8 -27 8q-6 1 -27 9q-29 21 -29 74q-4 27 -4 125t55 275t135 370t111 279t35 89l10 21q28 55 62 55
l57 -24q2 0 22 -10t26 -25q5 -16 7 -23l2 -26q0 -6 -6 -25q-8 -12 -32 -78t-117 -265q-92 -200 -137 -345q-39 -109 -54 -217l-6 -49q-2 -20 -2 -52z" />
    <glyph glyph-name="V" unicode="V" horiz-adv-x="962" 
d="M559 1280l14 -57v-21q1 -14 -19 -150t-54 -319q-64 -393 -64 -479v-21q0 -35 10 -35q44 2 119 113q31 39 84 137t178 321q125 222 151 289q26 66 26 138l-5 47q0 31 45 31h33q9 -2 25 -2t18 -7t21 -26q20 -16 36 -32t0 -92q-15 -76 -40 -135q-25 -60 -61 -118t-118 -207
q-127 -253 -264 -471q-78 -115 -132 -169t-68 -54t-24 6t-34 6q-22 0 -24 -6t-18 -6q-16 1 -48 17q-31 16 -47 32t-19 21q-3 4 -6 6v6q-2 6 -2 18q0 13 -13 31t-13 41l6 35q0 57 40 314q80 514 87 669l2 27q12 28 12 70t8 50q8 16 37 17l68 -4q36 0 53 -31z" />
    <glyph glyph-name="W" unicode="W" horiz-adv-x="1400" 
d="M369 211q0 -10 6 -10q13 -1 79 67t161 201t141 236q18 32 18 49l8 20l6 27q9 42 39 117l11 2q23 0 53 -11q25 -5 51 -35t27 -62q-1 -32 -15 -79t-36 -151q-32 -239 12 -447q4 -18 12 -18t16 8q2 4 9 10q6 6 8 10q214 287 332 803q12 40 12 90v31q2 9 2 25t2 24v37
q0 23 -4 33t-6 16t-5 11t-5 9t-6 10q-3 5 -5 11t-6 16t-4 35t4 50q6 18 23 18l61 -4q32 0 54 -9q48 -20 63 -153l4 -43v-39q0 -127 -42 -319q-99 -449 -345 -797q-14 -23 -38 -45q-24 -23 -50 -23q-25 0 -34 6t-39 9q-30 4 -41 9t-22 16q-11 12 -44 22t-41 31
q-27 61 -36 125t-20 153l-6 33l-8 4q-8 0 -15 -12q-6 -12 -18 -26t-22 -30q-10 -15 -43 -41t-65 -70t-70 -87q-25 -33 -62 -63q-36 -29 -64 -29t-81 47l-19 12l-24 4q-6 4 -20 8t-13 37v47q0 73 24 205v20q5 10 8 32q16 120 101 403q84 285 112 391t40 116q10 10 44 11
q62 0 83 -21l18 -16q4 -8 14 -18l6 -11q0 -14 -6 -20q-98 -229 -157 -467q-96 -340 -126 -534q-1 -6 -1 -17z" />
    <glyph glyph-name="X" unicode="X" horiz-adv-x="987" 
d="M485 694q-57 306 -57 419t3 121t3 11q4 0 4 6q4 5 4 17t-4 18l-2 23q0 31 43 43h31q39 0 49 -4q11 0 23 -18t28 -40q31 -31 8 -82q-8 -49 -8 -118t12 -154q12 -84 18 -96q5 -12 32 -4q12 6 46 40t169 149q136 116 201 176q64 60 98 100t43 49q7 4 25 4t40 -10t48 -17
q28 -8 43 -30t16 -29v-13q-2 -6 -6 -14q-33 -39 -56 -57l-61 -49q-35 -23 -74 -54q-27 -16 -73 -60t-56 -52t-24 -20q-52 -46 -209 -179t-164 -145q-6 -12 -6 -23q20 -129 60 -270q40 -140 54 -204t19 -74q6 -10 13 -19q7 -10 9 -17q27 -34 27 -59l-2 -16q-8 -12 -14 -19
q-4 -4 -21 -10l-26 -2q-53 0 -111 29q-10 2 -16 8l-13 20q-54 110 -71 236l-19 123q-10 76 -20 118q-2 27 -15 27q-2 0 -12 -6l-129 -135q-75 -90 -101 -126t-61 -98t-43 -98q-8 -35 -12 -44t-27 -17t-26 -15q-2 -10 -24 -10t-56 15q-56 37 -68 55v24q0 45 29 80
q30 45 61 107l15 24q74 123 262 296q106 98 149 151z" />
    <glyph glyph-name="Y" unicode="Y" horiz-adv-x="1028" 
d="M250 628q0 42 1 60t2 50t7 53q6 22 6 53t8 41q8 25 20 97t34 169q18 96 53 217q6 18 16 18q39 0 69 -7t60 -11q10 -4 18 -22t9 -36q0 -28 -6 -42q-6 -15 -10 -27l-17 -33q-13 -31 -35 -153q-22 -123 -43 -238q-28 -229 -28 -311q0 -2 8 -14q12 -6 31 -7l28 2
q57 21 162 107q55 41 93 79q105 105 233 347q61 126 137 234q8 10 16 12q8 0 58 -9q88 -26 88 -96q0 -17 -13 -28q-217 -301 -357 -743t-220 -1027q-2 -23 -7 -38t-5 -27t-13 -13l-22 2q-8 4 -41 9t-58 20q-27 12 -28 33l-4 26v35q0 61 22 148t48 231q25 143 70 304
q46 161 116 403l-17 -19q-18 -18 -25 -26t-75 -58q-91 -49 -172 -49q-12 0 -51 21t-60 38q-20 17 -40 33t-50 58q-20 37 -20 51v24q4 17 4 59z" />
    <glyph glyph-name="Z" unicode="Z" horiz-adv-x="1146" 
d="M1147 1151q-1 57 -271 57q-66 0 -145 -24q-82 -29 -115 -92q-8 -15 -45 -15t-57 15q-31 14 -43 43t-25 79v19l9 8q166 107 394 107t392 -93q18 -6 41 -31q24 -26 46 -49t22 -38l-2 -47q-19 -60 -97 -138l-21 -21q-14 -15 -20 -21t-28 -27t-34 -31q-10 -10 -30 -28
t-28 -24q-8 -7 -23 -20t-21 -18q-7 -4 -10 -8v-6q0 -10 19 -11q148 0 200 -69q11 -14 11 -34t-13 -34q-8 -12 -17 -12t-11 2h-45q-14 2 -96 2t-156 -18q-158 -40 -260 -56q-49 -43 -145 -106t-199 -158q-49 -49 -80 -111l-13 -37q0 -2 11 -16l26 -13q44 -22 74 -22t54 -8
t74 -8q119 0 315 67l63 21q37 15 91 35t74 20t34 -6l22 -4q14 -8 21 -22t33 -43q26 -30 26 -50t-14 -20l-35 8q-10 0 -15 -6q0 -6 -14 -12q-127 -57 -275 -93q-272 -65 -485 -8q-102 25 -200 86l-21 21q-65 87 -65 123v30q0 9 14 40t84 98q70 66 132 116t62 57t-16 9t-47 12
t-43 23q-16 24 -16 41l6 53q0 23 18 35t33 12l22 -2q30 -15 82 -26t66 -11t29 4l49 6q23 3 78 19q202 126 296 200q80 57 146 123q76 63 118 134q9 15 9 22z" />
    <glyph glyph-name="bracketleft" unicode="[" horiz-adv-x="667" 
d="M903 1659h76q84 0 126 -6t44 -25q4 -12 9 -15t5 -21t-10 -44q-10 -27 -27 -39q-16 -12 -49 -12l-94 4h-22q-84 0 -112 -13t-44 -58q-55 -133 -123 -324q-196 -592 -260 -800t-110 -337t-48 -145t-2 -34t14 -28t84 -10l175 8q23 0 34 -22q18 -45 7 -74t-19 -37l-16 -16
q-9 -4 -15 -10t-39 -11h-184q-61 4 -119 7q-48 10 -80 55q-40 40 -43 92v31q7 37 15 63q8 24 15 48t13 38l455 1372q39 115 68 187q55 118 90 143q6 2 26 15t76 14q25 4 84 4z" />
    <glyph glyph-name="backslash" unicode="\" horiz-adv-x="765" 
d="M545 1321q0 -6 -8 -43q-10 -20 -11 -66l2 -71q4 -25 23 -179t43 -283q24 -128 47 -282q38 -214 45 -301q8 -88 10 -100l2 -72q0 -63 -12 -63q-12 -1 -22 -11t-34 -10q-57 0 -71 31l-18 43q-10 18 -11 66t-8 116l-157 1059q-7 65 -7 123v51q0 66 37 90q10 6 35 6l31 -4
q41 1 63 -21t21 -79z" />
    <glyph glyph-name="bracketright" unicode="]" horiz-adv-x="667" 
d="M381 1489q-21 0 -33 22q-10 25 -10 33q0 81 59 105q10 6 39 10h187q45 -4 85 -5t72 -24q31 -23 54 -65q22 -43 22 -63t-2 -27l-6 -37q-2 -16 -12 -45l-478 -1440q-68 -202 -116 -285q-16 -25 -37 -45q-9 -3 -39 -15q-43 -18 -152 -18h-75q-167 0 -170 31q-3 12 -9 15
t-6 19t13 46q13 31 26 41q14 10 47 10l94 -4h23q84 0 109 10q28 17 52 71q105 237 239 669q135 433 207 651q73 217 81 261t8 59t-14 18q-11 0 -35 8l-67 2q-45 0 -60 -2l-67 -4q-8 -2 -29 -2z" />
    <glyph glyph-name="asciicircum" unicode="^" horiz-adv-x="1126" 
d="M1221 898q0 -16 -4 -17q-5 6 -21 -15q-16 -20 -24 -24t-18 -4t-32 10q-18 14 -26 33l-178 333l-8 12t-5 7h-4q-7 2 -19 2t-172 -100t-167 -105q-7 -6 -17 -16t-30 -10t-33 16t-23 26t-10 46t5 44t7 12q2 5 3 7t3 8t35 25q40 13 68 33l354 174q25 10 45 10t29 -9
q10 -9 15 -18q5 -10 14 -12q8 -5 16 -25l180 -387l13 -32q4 -8 4 -24z" />
    <glyph glyph-name="underscore" unicode="_" horiz-adv-x="1282" 
d="M-244 -197h1434v-131h-1434v131z" />
    <glyph glyph-name="grave" unicode="`" horiz-adv-x="1044" 
d="M684 1556q-64 29 -82 35t-18 50q0 43 22 69q25 25 49 25l29 -6q6 0 8 -5q6 0 22 -13t24 -18q9 -5 59 -42l209 -144q53 -37 53 -51l-2 -18q-9 -9 -13 -35q0 -34 -28 -35q-25 0 -33 2t-31 16l-209 136q-2 0 -59 34z" />
    <glyph glyph-name="a" unicode="a" horiz-adv-x="958" 
d="M877 864h-7q-20 -4 -57 -20q-301 -160 -461 -357l-61 -79q-92 -148 -92 -204t45 -57q16 0 43 17q29 12 79 62t158 135q108 86 234 217q59 70 87 122t68 93q23 23 0 55q-7 16 -36 16zM684 301q-10 0 -47 -37l-111 -102q-113 -105 -190 -134q-77 -28 -88 -28t-43 16
q-27 20 -36 28t-29 22q-20 16 -32 24t-28 37q-18 25 -18 80t22 125t105 192q125 183 290 299q147 109 328 162q20 6 52 6t59 -16q38 -14 64 -49l12 -14q7 -7 15 -23q17 -37 41 -37q48 0 64 -27q4 -8 4 -16t-30 -48t-70 -97q-41 -57 -84 -149q-44 -91 -59 -153t-23 -96
q-8 -57 -8 -92q0 -87 43 -154l4 -12q0 -6 -10 -16q-12 -12 -54 -17q-4 -4 -19 -4q-15 1 -47 11t-40 30q-35 80 -35 146q0 67 4 104l2 25l2 4q0 10 -10 10z" />
    <glyph glyph-name="b" unicode="b" horiz-adv-x="790" 
d="M1229 762q-78 -11 -165 -44q-166 -62 -251 -63l-59 13q-7 0 -9 -19l5 -43q0 -16 -4 -29t-13 -65q-8 -52 -36 -98t-46 -93q-20 -52 -37 -80t-60 -82q-42 -55 -81 -89q-79 -70 -151 -70h-27q-2 0 -12 3q-9 3 -23 7t-22 10q-21 6 -78 54q-37 46 -37 150t43 220l10 31
q31 84 37 102q5 18 53 133q48 114 185 355q35 67 99 177t150 261q49 88 123 86q99 0 99 -78q0 -34 -45 -71q-23 -23 -38 -36q-15 -14 -45 -62t-69 -105q-20 -35 -102 -158t-127 -228q-45 -107 -70 -153q-177 -330 -143 -534q6 -20 27 -20q53 -1 134 122q81 124 109 221
q33 93 37 114t7 35t3 19q0 6 -3 24t-5 35t-12 38t-20 27t-11 36q0 29 19 62q18 33 42 33t42 -17q18 -16 48 -51q31 -35 47 -45q16 -11 37 -11q125 0 342 65q10 3 13 3l18 4l25 -4q27 0 41 -12q8 -4 14 -19q10 -12 10 -33t-18 -28z" />
    <glyph glyph-name="c" unicode="c" horiz-adv-x="708" 
d="M231 176q0 -52 35 -53q118 0 274 116q88 66 154 109q84 43 103 43q20 0 34 -9t21 -13q22 -22 22 -31l-8 -21q0 -4 -2 -10v-4q-8 -9 -34 -21t-85 -51q-41 -31 -125 -99q-181 -146 -298 -146q-84 0 -142 43q-90 43 -90 153q0 37 15 85t19 67q5 20 9 38t14 44q45 90 89 167
q164 287 337 382q12 4 17 6h16q52 0 112 -23t101 -63q4 -4 8 -13v-16l4 -31q0 -18 -11 -38q-12 -21 -36 -78t-24 -82t-10 -29q-4 -10 -30 -10t-40 14l-53 39q-23 15 -23 37t6 39l33 65q6 12 6 30q-1 18 -15 17q-14 0 -59 -45t-113 -134q-117 -154 -198 -355
q-33 -89 -33 -119z" />
    <glyph glyph-name="d" unicode="d" horiz-adv-x="1015" 
d="M774 756q0 20 -37 20t-61 -10q-66 -33 -148 -94q-86 -74 -138 -133q-124 -140 -191 -316q-6 -21 -6 -33t4 -26q0 -14 11 -14t20 9q10 9 16 10t26 13q143 113 246 236q98 109 166 200t80 101t12 37zM711 102q0 78 23 175q39 165 69 206q6 17 15 35t9 22t-4 3q-4 0 -20 -19
l-123 -143q-144 -165 -264 -268t-170 -113q-10 -2 -30 -2t-36 7t-49 20l-41 20q-14 8 -18 16q-35 59 -35 128t72 208q136 262 432 461q54 39 142 39q36 0 59 -10q22 -9 54 -19t46 -20q14 0 16 2q123 131 252 360l107 185q45 82 85 136t52 60q10 6 25 6t46 -13t45 -28
q13 -14 13 -46q1 -32 -27 -71t-36 -57t-27 -53q-10 -14 -43 -65t-89 -134t-147 -241q-45 -90 -63 -144l-33 -90q-109 -302 -150 -495q-6 -45 -6 -87q0 -43 8 -63t9 -37q0 -5 -37 -47q-9 0 -17 -8l-28 -2q-16 0 -44 15t-30 24q-12 69 -12 147z" />
    <glyph glyph-name="e" unicode="e" horiz-adv-x="749" 
d="M694 934q-10 0 -20 -6l-21 -13q-16 -10 -22 -10l-4 -2q-10 -9 -29 -27q-91 -84 -180 -198q-29 -39 -78 -125q-37 -76 -49 -133q0 -10 4 -10t14 6q91 70 155 137t118 131t57 68q2 6 5 11t4 8t5 11q3 8 19 32t24 46q12 18 13 49v19q-5 6 -15 6zM480 -24q-12 -4 -52 -3
q-40 -1 -84 21t-53 25l-35 16q-12 6 -15 8t-17 8t-48 47q-31 45 -49 106t-18 117t10 91q43 156 134 288t218 267q92 92 219 92q53 0 125 -23q16 -6 41 -36t25 -83t-30 -117t-44 -85q-15 -22 -143 -165q-128 -142 -242 -233q-66 -49 -129 -86q-12 -9 -12 -25t16 -42
q32 -52 91 -51q59 0 139 44q81 44 120 76q35 22 120 97q85 76 134 104l25 12q25 6 41 -10q16 -10 16 -28v-19q-2 -2 -2 -15q1 -13 -17 -28q-18 -14 -63 -59q-37 -43 -78 -80q-97 -97 -258 -186q-74 -41 -85 -45z" />
    <glyph glyph-name="f" unicode="f" horiz-adv-x="548" 
d="M156 743q0 41 36 41q16 0 48 -14q31 -14 49 -14q17 0 33 4t28 32t69 166q57 139 91 201q51 113 80 160q20 45 86 154q12 20 47 32q35 13 67 13t54 -29t22 -47t-6 -28t-13 -18q-7 -9 -9 -16q-16 -24 -24 -34t-13 -43q-6 -33 -37 -72t-75 -94t-72 -102q-28 -45 -36 -73
t-11 -38t-3 -14t-4 -9q-4 -6 -10 -22l-12 -25q-8 -11 -16 -36q-9 -24 -14 -36t-5 -23t10 -11q64 0 191 49q16 6 50 17t50 17q130 28 158 0q16 -16 16 -30t-18 -27l-35 -16l-23 -13q-80 -31 -136 -61t-101 -37q-45 -8 -50 -12l-28 -12q-29 -15 -65 -23q-65 -15 -87 -59
q-18 -61 -80 -231q-119 -325 -143 -615q-8 -38 -57 -60q-2 -2 -16 -6t-26 -10q-14 -6 -26 -6t-24 6q-6 8 -23 19q-14 14 -14 78t27 138t38 118q10 44 11 58t13 48q12 32 31 101q20 69 41 129t32 93l18 53q26 80 26 108q0 29 -43 62q-43 34 -55 70z" />
    <glyph glyph-name="g" unicode="g" horiz-adv-x="864" 
d="M768 827q0 27 -61 27q-27 0 -43 -14q-16 -8 -42 -28t-52 -34q-26 -16 -38 -28l-90 -91q-128 -144 -172 -217q-75 -107 -75 -166q0 -8 10 -10q6 -6 16 -6q26 0 39 10q68 40 127 94t150 144q94 109 122 147q53 64 83 109t30 51zM641 223q0 -12 8 -12q154 128 342 242
q21 10 27 15t31 5t41 -16t16 -36t-16 -34q-156 -119 -247 -194t-200 -179q-88 -92 -139 -168q-53 -72 -90 -158t-53 -122q-15 -35 -25 -60t-18 -43t-27 -65q-18 -47 -26 -59q-9 -13 -17 -32q-34 -80 -74 -98q-17 -14 -64 -14t-85 14q-35 18 -42 42q-16 56 1 90q13 53 65 133
l25 39q24 41 56 86l46 65q14 20 26 36t20 28q9 12 32 40t96 150q37 70 74 143q53 115 96 215q-4 6 -10 7q-12 -12 -35 -34t-65 -64t-94 -65q-91 -40 -150 -11q-35 16 -64 38q-69 62 -69 74q-4 4 -4 52t20 100q18 33 41 84t77 117q54 65 78 96t44 49q132 148 272 219
q80 41 130 41q49 1 107 -21t86 -59t29 -73q0 -36 -2 -47t-14 -40q-94 -172 -131 -239l-78 -156q-47 -109 -47 -121z" />
    <glyph glyph-name="h" unicode="h" horiz-adv-x="856" 
d="M567 150q0 89 35 204t62 179q26 63 26 69t-4 6q-13 0 -133 -153q-246 -354 -275 -386q-30 -32 -32 -36l-4 -2q-4 -4 -31 -17q-27 -14 -43 -14t-53 15q-72 29 -72 65q0 16 6 22t35 128t121 316q91 196 145 302t77 157t56 111t101 182t166 312q12 28 53 28l43 -4q6 0 31 -8
q4 -4 19 -16t20 -25q6 -14 6 -45t-29 -59q-21 -27 -51 -59q-29 -33 -37 -50q-14 -20 -45 -61t-134 -236t-225 -474t-131 -286v-4l-2 -4q0 -4 4 -4t30 41q27 41 222 287q160 183 206 233t52 58q42 24 62 24t47 -4t39 -9t22 -19t11 -21q-1 -49 -17 -82t-38 -71t-40 -76
q-4 -26 -32 -92t-62 -183q-33 -117 -33 -208q1 -91 15 -115t37 -35q21 -4 43 -10q22 -5 22 -19l-2 -12q-14 -26 -25 -32q-12 -7 -25 -10t-38 -13q-25 -9 -45 -5q-95 21 -129 86q-27 45 -27 134z" />
    <glyph glyph-name="i" unicode="i" horiz-adv-x="450" 
d="M630 1210q-36 0 -52 15q-41 20 -41 61q-5 12 -5 53t20 63q39 40 107 40t86 -27q25 -25 25 -52t-1 -33t-3 -8q-2 -3 -5 -12t-65 -67q-30 -33 -66 -33zM256 197q0 -66 37 -66q54 0 108 40t72 51t23 16q25 8 42 8t27 -4q15 0 25 -10t12 -15v-14q0 -23 -33 -56l-84 -77
q-47 -39 -94 -69t-109 -30t-98 54q-73 66 -73 194q0 74 22 138q23 65 29 87t18 52q12 28 44 103t62 147t91 196q25 55 102 55l33 -2q32 -13 39 -23q6 -11 6 -54t-49 -103q-12 -18 -48 -68t-52 -94q-17 -44 -28 -71q-12 -28 -26 -60t-22 -59q-42 -88 -66 -189
q-10 -61 -10 -77z" />
    <glyph glyph-name="j" unicode="j" horiz-adv-x="487" 
d="M721 1372q27 -20 31 -28t4 -28q0 -18 -11 -30q-4 -11 -28 -36q-23 -25 -27 -44q-6 -30 -66 -30t-104 65q-10 16 -10 49l-4 43q0 6 12 23q20 23 47 41q33 14 74 14t82 -39zM468 936q30 0 44 -22t14 -32q0 -18 -18 -44t-45 -101q-25 -44 -59 -132q-34 -87 -56 -145t-22 -68
t4 -11q12 0 26 13q14 14 32 28t26 21t26 23t31 21q23 23 77 57t62 36t20 2t24 -4q11 -4 12 -33t-15 -45q-16 -18 -44 -40q-126 -102 -262 -273q-136 -172 -189 -261l-29 -57q-41 -102 -68 -179t-45 -122l-53 -148q-27 -74 -42 -118t-25 -56q-11 -26 -33 -41q-23 -14 -39 -14
t-22 4t-32 12q-44 14 -59 76v17q-1 19 25 91q26 71 69 150q29 63 95 187q61 124 99 206t62 172l9 25q0 10 12 39t14 37t6 18t44 118t92 239q52 130 80 220t34 96t14 13t16 15q9 8 26 8h24q8 2 38 2z" />
    <glyph glyph-name="k" unicode="k" horiz-adv-x="770" 
d="M59 25q-10 14 -10 44q1 30 11 48t10 24t2 9q102 316 246 642t264 611l16 35q19 57 39 57q14 0 21 -2t47 -6q75 -8 75 -56t-20 -82t-46 -70q-24 -35 -34 -53t-49 -82t-72 -154q-33 -88 -76 -190t-43 -108t7 -6t59 32t158 111q92 74 155 175q10 18 23 27t18 16q27 20 62 20
l24 -2l14 -7q54 -25 54 -46q0 -32 -31 -66q-33 -49 -56 -68q-23 -20 -39 -42t-186 -148l-165 -110q-27 -16 -5 -62q2 -8 8 -25t18 -58t22 -63t43 -92t55 -102q23 -31 37 -51t35 -35q16 -20 62 -39q46 -20 60 -20t13 -6q4 -5 4 -23q1 -18 -17 -28t-30 -26q-12 -18 -57 -18
q-87 0 -149 63q-29 30 -46 43t-27 30q-86 156 -135 297t-55 141q-2 4 -8 4t-9 -8q-91 -219 -104 -299q-22 -136 -51 -185q-13 -16 -29 -16t-25 -4l-26 -2q-41 0 -62 31z" />
    <glyph glyph-name="l" unicode="l" horiz-adv-x="475" 
d="M856 1413q0 -35 -20 -67q-89 -141 -287 -441q-166 -274 -236 -454q-29 -76 -53 -129q-43 -94 -14 -199q8 -25 34 -25t42 8q36 25 64 56t77 80q35 41 72 65q35 29 60 29t52 -12q29 -10 29 -34t-10 -31q-28 -20 -74 -78q-47 -58 -77 -91t-32 -37q-49 -43 -92 -67t-102 -23
q-2 0 -6 1q-5 1 -13 3q-88 21 -147 82q-45 42 -45 128q0 87 26 158q83 221 182 424t153 297q55 95 110 188t71 146q31 103 99 103l67 4q30 0 54 -22q16 -27 16 -62z" />
    <glyph glyph-name="m" unicode="m" horiz-adv-x="1400" 
d="M238 -8q-26 0 -66 16q-39 10 -82 43q-8 4 -8 10q-4 2 -12 36q-25 107 14 214q20 63 48 115t73 135q39 61 67 121q38 82 57 113t23 42t13 28q8 17 13 31t36 42q34 24 78 24t73 -16q10 -2 10 -39l-4 -28q-2 -18 -60 -99t-167 -272q-92 -170 -139 -352q0 -8 6 -16t13 -7
q7 0 22 8q78 37 157 105q66 51 142 135q131 161 187 303q43 108 134 107q53 0 95 -41q8 -8 8 -18t-13 -42q-13 -34 -30 -57q-18 -35 -45 -68q-15 -25 -45 -61t-64 -106q-71 -141 -74 -230q0 -8 7 -21q4 -12 17 -12t52 17q39 24 75 66t89 90t126 119q146 141 177 233
q35 106 101 106q34 0 42 -8q4 0 9 -4t30 -6t33 -11q10 -6 20 -24t11 -39q0 -21 -29 -35q-6 -9 -20 -19q-41 -31 -135 -239q-33 -93 -33 -155t16 -109q10 -45 34 -81t26 -37l6 -3l2 -2q12 -4 18 -17q10 -10 10 -24q0 -13 -14 -23t-36 -10t-39 7t-35 9t-40 25q-21 22 -59 92
q-51 120 -51 183q0 12 -8 12q-22 0 -92 -78q-53 -53 -83 -81q-30 -29 -82 -57q-51 -28 -109 -28t-118 28t-71 50q-16 18 -17 45v25q-4 6 -7 6t-31 -29q-43 -44 -195 -125l-19 -8q-12 -4 -38 -4z" />
    <glyph glyph-name="n" unicode="n" horiz-adv-x="860" 
d="M225 156q16 0 35 26q100 141 191 251t229 247q34 34 50 67l20 40q4 7 10 22t19 22t32 7t29 -11q20 -8 38 -11t32 -24q15 -21 5 -48q-11 -27 -37 -69q-85 -135 -122 -269q0 -4 -2 -10l-3 -9q-1 -4 -2 -11t-4 -11q-4 -33 -8 -52l-6 -92q0 -31 4 -43t7 -25t6 -20
q2 -27 43 -54t49 -40q10 -9 10 -23t-12 -33t-32 -19q-81 -2 -106 21q-26 23 -46 35t-49 50q-30 40 -30 130t19 148v4q0 8 -6 8t-13 -8q-103 -136 -127 -166t-51 -70t-42 -54l-18 -18t-15 -11q-12 -9 -24 -23q-11 -14 -40 -17t-35 -3q-5 0 -29 10t-41 22t-50 35
q-33 22 -37 48q-9 57 0 79l6 29q2 4 4 12q2 9 4 15t6 30t12 54q20 55 29 73q8 32 28 73t29 68q10 27 26 61q15 34 19 44l45 90q23 49 50 90q14 27 61 99l16 24q0 8 17 21q20 20 80 20t73 -31l7 -18q4 -4 4 -33t-45 -82q-3 -5 -56 -64q-53 -58 -133 -237q-76 -161 -87 -196
t-14 -43q-3 -7 -7 -23t-6 -22t-5 -16q-2 -10 -4 -15q-2 -6 -2 -10l-4 -21q0 -20 6 -20z" />
    <glyph glyph-name="o" unicode="o" horiz-adv-x="753" 
d="M595 812q-11 12 -11 24t-9 24q-2 12 -15 12q-12 0 -22 -12t-18 -19t-18 -17q-10 -11 -12 -13t-6 -5q-3 -3 -6 -7t-29 -38t-75 -112q-49 -79 -71 -137q-65 -132 -65 -268v-11q6 -18 24 -53q25 -29 32 -33t20 -4q12 1 18 5t11 7t12 7t14 10l16 25q6 10 62 94q55 83 89 149
q78 152 78 301v21q0 33 -8 37q0 2 -11 13zM1112 782q0 -10 -8 -16l-19 -12q-22 -8 -30 -15q-8 -8 -29 -11q-21 -4 -79 -22t-95 -19t-55 -1t-23 -16q-86 -367 -258 -549q-47 -51 -89 -86t-81 -35t-63 10q-66 31 -99 62q-39 31 -55 67q-31 91 -31 192t50 207t91 172
q42 65 47 71q5 7 10 13t7 9q4 2 10 8l13 16q4 4 22 30t29 40l59 59q66 58 134 59q69 1 124 -54q9 -9 17 -33t29 -61q21 -38 69 -38l100 2q104 14 153 -5q50 -19 50 -44z" />
    <glyph glyph-name="p" unicode="p" 
d="M440 444q-14 -21 -14 -58t26 -100q50 -120 91 -120q30 0 116 170q95 217 119 377q10 49 13 78q0 6 -9 6q-2 0 -14 -4q-113 -74 -186 -160q-78 -86 -142 -189zM-51 -582q-33 0 -55 20q-21 20 -27 26q-6 4 -8 22t1 28q49 163 120 352q287 760 342 1078q4 29 9 34t23 10
t31 12q40 20 86 -5q21 -14 21 -28q0 -66 -25 -140t-43 -147q0 -4 4 -4q82 92 141 147q82 85 153 113q6 2 10 5t40 3t146 -70q4 -2 28 -26q12 -16 12 -77t-9 -99q-9 -39 -7 -48t-11 -46q-77 -218 -108 -277q-71 -161 -182 -260q-14 -14 -58 -14t-79 22q-28 9 -77 53
q-50 43 -89 134q-4 10 -12 10t-13 -10q-99 -191 -135 -287t-80 -228q-39 -147 -51 -193t-6 -67q0 -43 -92 -43z" />
    <glyph glyph-name="q" unicode="q" horiz-adv-x="790" 
d="M750 803q0 14 -20 14t-45 -12t-31 -11t-48 -25q-104 -66 -206 -169q-103 -102 -149 -192q-46 -91 -50 -117q-24 -73 0 -86q10 -8 21 -8t18 4q8 0 19 3q43 12 208 165q85 89 121 145t36 64t-6 10t-6 16t109 129q29 39 29 70zM905 893q15 -28 15 -56t-33 -79l-23 -33
q-10 -19 -10 -31t10 -22q12 -8 12 -18t-2 -11q-218 -290 -353 -598q-136 -307 -230 -643q-8 -25 -8 -79q-1 -54 -25 -91t-43 -37q-37 0 -74 19t-43 30l-4 2v9q0 58 70 276q70 217 80 245t21 69t42 102l25 55q10 25 24 76q0 12 -14 12l-98 -14q-55 0 -97 24l-28 19
q-68 44 -70 153q0 27 5 39q5 11 8 23t6 16q39 100 100 195q149 210 311 307q82 59 183 88q43 16 104 16t98 -28q16 -10 41 -35z" />
    <glyph glyph-name="r" unicode="r" horiz-adv-x="614" 
d="M420 680q0 -20 33 8q164 125 284 168q16 4 43 4q80 0 131 -57q10 -6 11 -17q6 -12 2 -18q6 -35 -27 -68q-29 -22 -46 -22t-43 10t-40 11q-43 3 -205 -103q-74 -49 -153 -129q-78 -90 -127 -179t-74 -202q-19 -60 -47 -82q-18 -18 -41 -16t-31 10t-15 17t-17 19t-21 35
q-19 45 0 91q20 33 33 51l36 55q18 25 29 56l78 233q48 143 66 260q2 6 2 15q1 10 -7 18q-25 29 14 57q40 28 80 13t42 -21q23 -39 28 -90q6 -51 -10 -94q-2 -19 -5 -23t-3 -10z" />
    <glyph glyph-name="s" unicode="s" horiz-adv-x="606" 
d="M54 328q30 0 51 -6t63 -72l29 -53q71 -117 111 -117q32 0 20 31q0 13 -6 37t-9 47q-4 23 -8 47t-8 46t-11 72q-6 50 -10 77q-4 28 -9 74q-5 45 -9 79t-4 48t3 42q3 26 8 51t5 29q2 4 15 47t52 100q38 58 89 88q57 29 84 29q86 0 128 -22q86 -44 103 -113
q29 -141 -51 -242l-16 -20h-4q-4 -2 -16 -2t-34 9q-61 25 -61 83q1 8 21 38t20 66q0 37 -12 56q-12 20 -23 24q-10 10 -20 10t-29 -18q-2 -5 -29 -41q-73 -99 -73 -174q-2 -8 -2 -31l6 -61q4 -12 4 -41l4 -29q0 -6 16 -127q16 -90 25 -133q12 -94 18 -132t7 -74t-74 -89
q-33 -23 -69 -23t-54 9q-170 65 -299 274l-8 17l-4 14q0 24 20 50t50 26z" />
    <glyph glyph-name="t" unicode="t" horiz-adv-x="536" 
d="M739 1319q0 -42 -26 -114t-46 -109t-62 -116t-57 -111t-29 -67q-13 -34 -14 -44t-5 -17v-2q0 -6 8 -6t20 2l31 6q160 37 275 103q16 10 25 10t27 -5q34 -9 52 -25q18 -15 18 -27t-16 -39q-16 -18 -51 -35q-43 -15 -54 -25t-54 -26t-110 -32t-96 -26q-29 -8 -51 -12
q-66 -12 -81 -38q-15 -27 -28 -75q-13 -49 -21 -65t-11 -36q-2 -20 -19 -68q-16 -48 -28 -82q-44 -135 -47 -189q-4 -18 -20 -54t-48 -36q-4 -2 -19 -2q-14 0 -34 5q-58 15 -57 67q0 19 8 61q29 82 67 228t64 208q26 61 26 66q0 6 -22 18t-33 25l-33 33q-30 45 -45 57
q-16 12 -20 20v13q0 10 6 16q2 0 9 5t20 10q14 6 38 6q24 -1 62 -17q37 -16 65 -16t33 29q6 23 43 120t69 185t68 168t42 79q0 5 14 5t24 5t40 5t57 -14q26 -14 26 -17v-8z" />
    <glyph glyph-name="u" unicode="u" horiz-adv-x="860" 
d="M369 944q20 12 57 12t59 -32q4 -12 15 -23q8 -17 8 -25t-8 -32q-25 -25 -38 -34q-36 -25 -54 -95t-48 -160t-60 -191t-40 -155t-10 -55v-17q0 -6 8 -18q14 -10 29 -10t54 35t51 53q13 18 84 101t142 182q70 100 119 227q13 30 36 44q23 13 41 13t32 -8t40 -18t25 -31
l-2 -35q-1 -2 -31 -69q-100 -219 -128 -419q0 -15 -9 -69q-4 -53 -4 -87q1 -34 19 -66t18 -56t-4 -33q0 -20 -28 -20t-44 7t-38 20t-28 15t-12 6l-10 5v4q-6 6 -6 12q-20 50 -20 123l2 82q4 27 4 48t-8 22q-12 0 -29 -25q-35 -41 -109 -115q-57 -51 -96 -71t-50 -21
q-54 0 -117 36q-62 36 -68 73q-7 37 -9 47t-2 54t17 99q5 34 23 92t21 70t5 19l6 28q2 7 5 19t21 64t38 126q21 74 41 118q52 116 90 134z" />
    <glyph glyph-name="v" unicode="v" horiz-adv-x="774" 
d="M469 914q0 -60 -23 -128q-34 -68 -73 -258t-55 -255q-15 -66 -20 -91t-7 -30v-11q0 -12 23 -12t46 27q57 72 113 163q66 119 91 183t28 79q3 16 11 35q9 18 11 48q18 86 -16 118q-2 2 -9 12t-11 13q-8 25 -8 38t14 28q16 15 52 15t60 -8q24 -9 46 -48q39 -64 96 -64
t133 33t125 34q48 1 84 -18t40 -29t3 -21q0 -11 -2 -13q-22 -15 -97 -44t-139 -42q-43 -14 -47 -17l-25 -8q-16 -4 -22 -4l-88 12h-17q-15 -10 -19 -19q-5 -9 -17 -54q-63 -246 -271 -500q-25 -33 -45 -49l-35 -35q-29 -33 -65 -33q-37 0 -46 8q-8 8 -50 37t-66 49
q-14 19 -29 68v24q1 42 11 85q10 44 10 52q0 9 14 68q14 60 19 76l61 246q33 143 45 248q5 34 49 45l47 -4q70 -1 70 -49z" />
    <glyph glyph-name="w" unicode="w" horiz-adv-x="1105" 
d="M490 211q-6 0 -33 -27q-23 -20 -39 -42t-45 -56q-31 -27 -51 -39t-52 -12q-31 0 -41 10q-25 11 -49 21t-41 24q-37 22 -37 69q0 46 9 64q19 92 41 151t66 178t73 218q27 78 41 180q4 12 16 24t22 15q10 2 27 6h52q8 -2 23 -2q14 1 34 -13t20 -30t-5 -25t-14 -25t-12 -24
q-3 -10 -34 -79t-80 -228t-81 -253t-32 -101q0 -8 5 -8t20 10l22 23q92 92 192 241q99 148 152 277q14 28 54 28l47 -4q23 0 43 -19t20 -42t-12 -53q-25 -46 -51 -92t-34 -70t-28 -70q-62 -135 -61 -299q0 -18 12 -31q17 -8 23 -8t30 12t64 60q39 48 59 102t47 142
q20 98 21 104l4 51l10 76q0 45 -20 88q-47 100 2 129q6 4 41 10l45 2q16 0 29 -10l16 -16q4 -4 32 -24t60 -25q32 -6 95 -6q65 0 129 12t114 12t64 -8q15 -8 16 -49q0 -43 -98 -64q-12 -2 -35 -9q-56 -16 -107 -28q-40 -16 -98 -16t-82 8t-41 8q-16 0 -16 -26v-41
q1 -168 -67 -328t-175 -266q-12 -12 -37 -27q-25 -8 -72 -8t-155 57q-14 8 -39 35q-18 25 -19 60l7 80q0 16 -6 16z" />
    <glyph glyph-name="x" unicode="x" horiz-adv-x="684" 
d="M480 612q3 0 14 6q22 22 182 144t168 124q8 3 38 3q30 1 45 -17t29 -35t14 -35t-12 -24q-94 -42 -265 -177t-200 -173q-3 -4 -6 -6q0 -8 -4 -16v-25q1 -119 13 -220t12 -197t-12 -159q-7 -22 -45 -22l-41 4q-10 0 -18 7q-8 8 -24 18q-18 10 -30 20t-12 44q0 33 5 57
t13 38t8 21v16q-9 17 -12 90t-9 111q-5 39 -6 44t-6 5l-8 -4l-2 -4q-6 -6 -18 -25t-45 -52t-49 -62q-19 -25 -23 -38q-12 -34 -39 -50q-29 -23 -53 -23t-50 24q-24 24 -33 38q-9 12 -9 26t1 18q3 11 159 179t161 186q2 4 2 64t-9 119t-9 65q-13 51 -27 79t-20 28t-19 30v16
q0 25 29 35q108 35 156 -55q29 -29 43 -145q4 -33 8 -56l6 -33q6 -6 9 -6z" />
    <glyph glyph-name="y" unicode="y" horiz-adv-x="892" 
d="M498 975q18 -13 18 -48q0 -69 -62 -131q-18 -18 -51 -109t-63 -192t-40 -131q-9 -29 -9 -36l-17 -66l-2 -33q0 -33 11 -32q31 0 110 53q37 28 71 66t54 58t50 54q30 35 48 53t68 76q96 143 120 210q25 68 44 99q18 25 34 25t27 -6q8 -8 34 -8q73 0 73 -74q0 -31 -10 -45
t-37 -60q-6 -6 -15 -22q-12 -14 -24 -39q-70 -105 -125 -264q-2 -7 -10 -27t-23 -65t-37 -98t-30 -81q-9 -28 -14 -39t-14 -42t-9 -36t8 -5h8q4 2 12 2t22 -6t13 -24q0 -16 -12 -44q-101 -132 -159 -280t-76 -238t-23 -126q-4 -34 -19 -67q-24 -75 -98 -86q-16 -4 -25 -4
q-9 -4 -37 -4t-39 8t-24 25q-8 16 -8 70t82 224q82 169 137 263q0 4 2 11q2 6 5 22t11 42t28 94t57 184t40 124q9 20 11 35q2 16 6 20v8q0 21 -24 -3t-74 -66q-75 -55 -127 -88q-27 -14 -35 -15q-127 0 -195 82q-12 12 -12 79t20 169q31 117 56 180l67 179q35 84 68 188
q8 29 35 44t37 15l57 -10q16 0 35 -12z" />
    <glyph glyph-name="z" unicode="z" horiz-adv-x="786" 
d="M348 707q-12 0 -32 16t-29 47q-10 31 -11 45q0 51 41 62q70 16 157 42q154 46 284 9q51 -14 65 -33q10 -10 36 -28t26 -53t-8 -60q-21 -27 -29 -34l-25 -21q-16 -13 -56 -41t-40 -42q0 -6 33 -6t76 -12q47 -8 67 -34t23 -27v-5q2 -4 2 -8q-8 -30 -45 -30q-38 0 -158 -17
q-131 -18 -246 -59q-40 -29 -58 -50q-19 -22 -28 -30t-100 -113q-31 -31 -43 -40t-18 -29t-7 -28q0 -8 4 -13q4 -4 25 -17q36 -16 64 -16t62 12t68 12q58 0 121 40t103 40t62 -8q59 -22 61 -67q0 -6 -3 -13t-120 -49q-82 -40 -179 -62t-155 -22q-58 -1 -118 15
q-62 16 -98 37q-59 34 -61 128v27q12 49 39 80q27 30 45 52t39 42q20 20 25 29q10 10 10 16t-2 10q-4 4 -39 16t-54 46t-19 53q-1 20 15 32t45 13q31 0 61 -14q30 -15 80 -15t91 21q72 45 131 115q29 29 65 48t71 54q26 33 26 44t-10 17l-23 3q-27 0 -41 -10t-69 -13
q-103 -7 -182 -100q-5 -4 -17 -4z" />
    <glyph glyph-name="braceleft" unicode="{" horiz-adv-x="708" 
d="M1063 1501q-161 0 -207 -92q-36 -66 -77 -196t-109 -349q-35 -106 -75 -166t-120 -73q-6 0 -6 -4t6 -5q57 -34 57 -108t-20 -133l-139 -447q-17 -52 -17 -87q0 -34 21 -62q23 -27 86 -27h82q25 0 33 -18q12 -18 12 -46t-14 -44t-19 -20q-6 -4 -10 -18q-4 -16 -68 -16
q-145 0 -233 54q-82 57 -82 153q0 52 20 127l133 422q37 116 37 141q0 55 -70 55t-80 7q-9 6 -9 26q0 4 -11 7q-8 0 -8 16q0 64 41 98q20 8 51 9h25q89 0 132 47t85 182l121 362q68 211 154 285q85 74 223 76h41q47 0 77 -6q33 -2 33 -23q0 -12 8 -14q7 -4 7 -22t-12 -46
q-12 -27 -25 -36q-12 -9 -50 -9h-24z" />
    <glyph glyph-name="bar" unicode="|" horiz-adv-x="552" 
d="M736 1651q46 -1 68 -23t36 -30t14 -36t-10 -53q-27 -39 -41 -47q-18 -18 -25 -32q-80 -175 -134 -347t-119 -368t-100 -311q-35 -116 -67 -214t-70 -214q-37 -116 -70 -205q-32 -88 -50 -132t-41 -45q-42 0 -70 20q-27 20 -42 22q-15 3 -15 24q0 80 37 139q18 37 24 56
l535 1601q33 102 63 152q31 43 77 43z" />
    <glyph glyph-name="braceright" unicode="}" horiz-adv-x="708" 
d="M391 1499q-47 0 -47 55q0 27 12 39l23 45q2 10 39 17l88 2h49q79 0 137 -43q86 -56 84 -158q0 -76 -20 -133l-142 -422q-34 -95 -34 -141q0 -55 82 -55h38q62 0 62 -29q0 -48 -7 -62q-33 -64 -57 -68q-23 -3 -72 -3t-88 -32t-63 -77q-25 -39 -51 -121l-121 -362
q-68 -210 -141 -287q-44 -43 -102 -58t-144 -16h-31q-80 0 -102 9q-29 7 -29 37t13 49q10 8 18 30q13 35 68 35h30q124 0 158 29q31 21 57 106l164 496q33 97 77 163t122 83q6 0 6 4t-6 4q-59 29 -59 101t22 134l143 453q25 73 25 115q0 41 -31 49q-31 12 -86 12h-84z" />
    <glyph glyph-name="asciitilde" unicode="~" horiz-adv-x="1126" 
d="M1159 635q2 -6 2 -18t-13 -23q-13 -10 -75 -62q-141 -102 -210 -102q-32 0 -79 8t-92 49q-16 12 -40 37t-40 39q-16 15 -28 27t-23 16q-16 13 -53 14q-36 2 -60 -14t-63 -44t-52 -34t-54 -6t-43 31q-2 22 -11 31q-8 8 -8 10q-12 0 -12 20t4 27q0 10 16 21q83 49 99 59
t43 23t34 18q73 26 133 26t99 -30t69 -62t70 -68t84 -36q95 0 188 98q40 36 76 2q18 -10 20 -26t7 -15l4 -4q2 0 8 -6v-6z" />
  </font>
</defs>
</svg>
