<?xml version="1.0" encoding="utf-8"?>
<!-- Generator: Adobe Illustrator 18.1.0, SVG Export Plug-In . SVG Version: 6.00 Build 0)  -->
<svg version="1.1" id="Layer_1" xmlns="http://www.w3.org/2000/svg" xmlns:xlink="http://www.w3.org/1999/xlink" x="0px" y="0px"
	 width="70px" height="80px" viewBox="0 0 70 80" enable-background="new 0 0 70 80" xml:space="preserve">
<circle fill="#FFFFFF" cx="35" cy="33.4" r="26.6"/>
<g>
	<path fill="#010101" d="M8.4,33.4c0-7.7,3.3-14.6,8.5-19.5l-3-3c-0.3,0.2-0.5,0.5-0.8,0.7C1,23.7,0.8,43,12.6,55.2l3.3-3.3
		C11.2,47.1,8.4,40.6,8.4,33.4z"/>
	<path fill="#010101" d="M61.6,33.4c0,6.3-2.2,12.1-5.8,16.6l3.2,3.2c9.8-11.9,9.5-29.2-1-40.6l-3.1,3.1
		C59.1,20.4,61.6,26.6,61.6,33.4z"/>
	<path fill="#010101" d="M18.4,12.6C22.9,9,28.7,6.8,35,6.8c7.2,0,13.7,2.9,18.5,7.5l3.1-3.1C45.2,0.1,27.4-0.3,15.3,9.6L18.4,12.6z
		"/>
	<path fill="#FAAC1A" d="M54.5,51.6c-4.9,5.2-11.8,8.5-19.5,8.5c-6.8,0-13-2.6-17.7-6.7L14,56.6l21,20.9l22-22
		c0.2-0.2,0.5-0.5,0.7-0.7L54.5,51.6z"/>
</g>
</svg>
