<svg xmlns="http://www.w3.org/2000/svg" width="100" height="20" viewBox="70 0 100 20"><g fill="#FFF"><path d="M74 15.3c.1-.2.2-.5.2-.8V1.1h-3.3c-.3 0-.6 0-.9.2V0h9.6v1.2c-.2-.1-.6-.2-.9-.2h-3.3v13.5c0 .3.1.5.2.8H74zM81.3 14.5c0 .3.1.5.2.8H80c.1-.2.2-.5.2-.8V5.6c0-.3-.1-.5-.2-.8h1.3v1.7c.6-1.1 2.1-1.7 3.4-1.7.3 0 .6 0 .8-.1V6c-.2-.1-.5-.1-.8-.1-1.6 0-2.8.6-3.4 2.5v6.1zM96.6 14.5c0 .3.1.5.2.8h-1.3v-1.6c-1 1.3-2.2 1.9-3.9 1.9-3.1 0-5.9-2.3-5.9-5.6s2.8-5.6 5.9-5.6c1.6 0 3.2.7 4.3 1.7.3.3.6.4.9.4-.1.2-.2.5-.2.8v7.2zm-1.1-6.6c-.1-1.2-2.2-2.5-4-2.5-2.8 0-4.8 2.1-4.8 4.7s2 4.7 4.8 4.7c1.7 0 3.6-1 4-2.5V7.9zM103.3 13.7l4.3-8.2c0-.1.1-.2.1-.4 0-.1 0-.2-.1-.4h1.7c-.1.2-.3.4-.4.6l-5.6 10.2-5.5-10c-.1-.2-.2-.4-.4-.6h1.8c-.1.1-.2.2-.2.3s0 .2.1.4l4.2 8.1zM110.2 10.5c.6 2.7 2.3 4.3 5.1 4.3 1.1 0 2.3-.3 3.2-.7v1.5c-.1 0-.2 0-.4 0-.1 0-.2 0-.4 0-.1 0-.5 0-1 .1-.5 0-1.1.1-1.8.1-3 0-5.7-2.6-5.7-5.6 0-3.1 2.7-5.6 5.7-5.6 3.6 0 5.8 2.6 5.9 6l-10.6-.1zm9.5-1c-.5-2.1-2-4.1-4.8-4.1s-4.2 1.9-4.8 4.1h9.6zM124.1 14.5c0 .3.1.5.2.8h-1.5c.1-.2.2-.5.2-.8V.9c0-.3-.1-.5-.2-.8h1.3v14.4zM127.5 15.3c.1-.2.2-.5.2-.8V.9c0-.3-.1-.5-.2-.8h1.7c-.1.2-.2.5-.2.8v13.7c0 .3.1.5.2.8l-1.7-.1zm9.7 0c.1-.2.2-.5.2-.8 0-3.3-2.9-6.7-8-6.9l5.6-6.3c.4-.4.7-.7.7-.9 0-.1 0-.3-.1-.4h2.2c-.3.3-.6.5-.9.8l-5.5 6c3.9.7 7.1 3.9 7.1 7.7 0 .3.1.5.2.8h-1.5zM140.8 10.5c.6 2.7 2.3 4.3 5.1 4.3 1.1 0 2.3-.3 3.2-.7v1.5c-.1 0-.2 0-.4 0-.1 0-.2 0-.4 0-.1 0-.5 0-1 .1-.5 0-1.1.1-1.8.1-3 0-5.7-2.6-5.7-5.6 0-3.1 2.7-5.6 5.7-5.6 3.6 0 5.8 2.6 5.9 6l-10.6-.1zm9.6-1c-.5-2.1-2-4.1-4.8-4.1s-4.2 1.9-4.8 4.1h9.6zM156.4 14.6l-4.6-9.2c-.1-.2-.2-.4-.4-.6h1.8c0 .1-.1.3-.1.4 0 .1.1.2.1.3l4 7.9 4-7.9c0-.1.1-.3.1-.4s0-.2-.1-.4h1.8c-.2.2-.4.5-.5.8L155.4 19c-.1.2-.2.3-.2.6 0 .1 0 .2.1.4h-1.8c.1-.3.3-.5.5-.8l2.4-4.6zM168.9 6.1c-.7-.4-1.5-.6-2.3-.6-1.3 0-2.1.7-2.1 1.9 0 2.3 5.6 1.6 5.6 5.4 0 1.7-1.7 3-3.7 3-1.3 0-1.9-.4-2.3-.4-.3 0-.6 0-.8.1v-1.6c.8.4 1.9.9 2.9.9 1.4 0 2.9-.6 2.9-2.1 0-2.7-5.6-2.1-5.6-5.5 0-1.6 1.5-2.7 3-2.7.3 0 .6 0 .9.1.3 0 .5.1.7.1.3 0 .6 0 .8-.1v1.5z"/></g></svg>