<?xml version="1.0" encoding="utf-8"?>
<!-- Generator: Adobe Illustrator 18.1.0, SVG Export Plug-In . SVG Version: 6.00 Build 0)  -->
<svg version="1.1" id="Layer_1" xmlns="http://www.w3.org/2000/svg" xmlns:xlink="http://www.w3.org/1999/xlink" x="0px" y="0px"
	 width="100px" height="20px" viewBox="70 0 100 20" enable-background="new 70 0 100 20" xml:space="preserve">
<g>
	<path fill="#FFFFFF" d="M74,15.3c0.1-0.2,0.2-0.5,0.2-0.8V1.1h-3.3c-0.3,0-0.6,0-0.9,0.2V0h9.6v1.2c-0.2-0.1-0.6-0.2-0.9-0.2h-3.3
		v13.5c0,0.3,0.1,0.5,0.2,0.8H74z"/>
	<path fill="#FFFFFF" d="M81.3,14.5c0,0.3,0.1,0.5,0.2,0.8H80c0.1-0.2,0.2-0.5,0.2-0.8V5.6c0-0.3-0.1-0.5-0.2-0.8h1.3v1.7h0
		c0.6-1.1,2.1-1.7,3.4-1.7c0.3,0,0.6,0,0.8-0.1v1.3c-0.2-0.1-0.5-0.1-0.8-0.1c-1.6,0-2.8,0.6-3.4,2.5V14.5L81.3,14.5z"/>
	<path fill="#FFFFFF" d="M96.6,14.5c0,0.3,0.1,0.5,0.2,0.8h-1.3v-1.6h0c-1,1.3-2.2,1.9-3.9,1.9c-3.1,0-5.9-2.3-5.9-5.6
		s2.8-5.6,5.9-5.6c1.6,0,3.2,0.7,4.3,1.7c0.3,0.3,0.6,0.4,0.9,0.4c-0.1,0.2-0.2,0.5-0.2,0.8L96.6,14.5L96.6,14.5z M95.5,7.9
		c-0.1-1.2-2.2-2.5-4-2.5c-2.8,0-4.8,2.1-4.8,4.7s2,4.7,4.8,4.7c1.7,0,3.6-1,4-2.5V7.9z"/>
	<path fill="#FFFFFF" d="M103.3,13.7l4.3-8.2c0-0.1,0.1-0.2,0.1-0.4c0-0.1,0-0.2-0.1-0.4h1.7c-0.1,0.2-0.3,0.4-0.4,0.6l-5.6,10.2h0
		L97.8,5.5c-0.1-0.2-0.2-0.4-0.4-0.6h1.8C99.1,5,99,5.1,99,5.2s0,0.2,0.1,0.4L103.3,13.7z"/>
	<path fill="#FFFFFF" d="M110.2,10.5c0.6,2.7,2.3,4.3,5.1,4.3c1.1,0,2.3-0.3,3.2-0.7v1.5c-0.1,0-0.2,0-0.4,0c-0.1,0-0.2,0-0.4,0
		c-0.1,0-0.5,0-1,0.1c-0.5,0-1.1,0.1-1.8,0.1c-3,0-5.7-2.6-5.7-5.6c0-3.1,2.7-5.6,5.7-5.6c3.6,0,5.8,2.6,5.9,6L110.2,10.5
		L110.2,10.5z M119.7,9.5c-0.5-2.1-2-4.1-4.8-4.1c-2.8,0-4.2,1.9-4.8,4.1H119.7z"/>
	<path fill="#FFFFFF" d="M124.1,14.5c0,0.3,0.1,0.5,0.2,0.8h-1.5c0.1-0.2,0.2-0.5,0.2-0.8V0.9c0-0.3-0.1-0.5-0.2-0.8h1.3V14.5z"/>
	<path fill="#FFFFFF" d="M127.5,15.3c0.1-0.2,0.2-0.5,0.2-0.8V0.9c0-0.3-0.1-0.5-0.2-0.8h1.7c-0.1,0.2-0.2,0.5-0.2,0.8v13.7
		c0,0.3,0.1,0.5,0.2,0.8L127.5,15.3L127.5,15.3z M137.2,15.3c0.1-0.2,0.2-0.5,0.2-0.8c0-3.3-2.9-6.7-8-6.9l5.6-6.3
		c0.4-0.4,0.7-0.7,0.7-0.9c0-0.1,0-0.3-0.1-0.4h2.2c-0.3,0.3-0.6,0.5-0.9,0.8l-5.5,6c3.9,0.7,7.1,3.9,7.1,7.7c0,0.3,0.1,0.5,0.2,0.8
		H137.2L137.2,15.3z"/>
	<path fill="#FFFFFF" d="M140.8,10.5c0.6,2.7,2.3,4.3,5.1,4.3c1.1,0,2.3-0.3,3.2-0.7v1.5c-0.1,0-0.2,0-0.4,0c-0.1,0-0.2,0-0.4,0
		c-0.1,0-0.5,0-1,0.1c-0.5,0-1.1,0.1-1.8,0.1c-3,0-5.7-2.6-5.7-5.6c0-3.1,2.7-5.6,5.7-5.6c3.6,0,5.8,2.6,5.9,6L140.8,10.5
		L140.8,10.5L140.8,10.5z M150.4,9.5c-0.5-2.1-2-4.1-4.8-4.1c-2.8,0-4.2,1.9-4.8,4.1H150.4z"/>
	<path fill="#FFFFFF" d="M156.4,14.6l-4.6-9.2c-0.1-0.2-0.2-0.4-0.4-0.6h1.8c0,0.1-0.1,0.3-0.1,0.4c0,0.1,0.1,0.2,0.1,0.3l4,7.9
		l4-7.9c0-0.1,0.1-0.3,0.1-0.4s0-0.2-0.1-0.4h1.8c-0.2,0.2-0.4,0.5-0.5,0.8l-7.1,13.5c-0.1,0.2-0.2,0.3-0.2,0.6c0,0.1,0,0.2,0.1,0.4
		h-1.8c0.1-0.3,0.3-0.5,0.5-0.8L156.4,14.6z"/>
	<path fill="#FFFFFF" d="M168.9,6.1c-0.7-0.4-1.5-0.6-2.3-0.6c-1.3,0-2.1,0.7-2.1,1.9c0,2.3,5.6,1.6,5.6,5.4c0,1.7-1.7,3-3.7,3
		c-1.3,0-1.9-0.4-2.3-0.4c-0.3,0-0.6,0-0.8,0.1v-1.6c0.8,0.4,1.9,0.9,2.9,0.9c1.4,0,2.9-0.6,2.9-2.1c0-2.7-5.6-2.1-5.6-5.5
		c0-1.6,1.5-2.7,3-2.7c0.3,0,0.6,0,0.9,0.1c0.3,0,0.5,0.1,0.7,0.1c0.3,0,0.6,0,0.8-0.1L168.9,6.1L168.9,6.1L168.9,6.1z"/>
</g>
</svg>
