<?xml version="1.0" encoding="utf-8"?>
<!-- Generator: Adobe Illustrator 18.1.0, SVG Export Plug-In . SVG Version: 6.00 Build 0)  -->
<svg version="1.1" id="Layer_1" xmlns="http://www.w3.org/2000/svg" xmlns:xlink="http://www.w3.org/1999/xlink" x="0px" y="0px"
	 width="240px" height="62.6px" viewBox="157.8 -21.6 240 62.6" enable-background="new 157.8 -21.6 240 62.6" xml:space="preserve"
	>
<g>
	<path fill="#FFFFFF" d="M174.3,23.1c0.2-0.6,0.4-1.3,0.4-2v-33.7h-7.4c-0.7,0-1.3,0.1-2,0.4v-3H187v3c-0.5-0.3-1.3-0.4-2-0.4h-7.4
		v33.7c0,0.7,0.2,1.3,0.4,2H174.3z"/>
	<path fill="#FFFFFF" d="M190.7,21.1c0,0.7,0.2,1.3,0.4,2h-3.3c0.2-0.6,0.4-1.3,0.4-2V-1.3c0-0.7-0.2-1.3-0.4-2h2.8v4.3h0.1
		c1.3-2.8,4.8-4.3,7.6-4.3c0.7,0,1.3-0.1,1.8-0.3v3.1c-0.4-0.2-1.1-0.3-1.8-0.3c-3.5,0-6.2,1.6-7.7,6.2L190.7,21.1L190.7,21.1z"/>
	<path fill="#FFFFFF" d="M225.1,21.1c0,0.7,0.2,1.3,0.4,2h-2.8v-3.9h-0.1c-2.3,3.2-5,4.7-8.9,4.7c-6.9,0-13.3-5.8-13.3-14
		s6.4-14,13.3-14c3.6,0,7.1,1.8,9.7,4.4c0.8,0.8,1.4,1,2.1,1c-0.2,0.6-0.4,1.3-0.4,2L225.1,21.1L225.1,21.1z M222.7,4.4
		c-0.3-2.9-5-6.2-9.1-6.2c-6.2,0-10.8,5.3-10.8,11.6s4.6,11.6,10.8,11.6c3.8,0,8-2.5,9.1-6.3V4.4z"/>
	<path fill="#FFFFFF" d="M240.2,19.1l9.6-20.5c0.1-0.2,0.2-0.6,0.2-0.9c0-0.2-0.1-0.6-0.2-0.9h3.8c-0.3,0.4-0.7,1-1,1.6L240.1,24
		H240L227.8-1.6c-0.2-0.4-0.5-1-1-1.5h3.9c-0.1,0.3-0.2,0.7-0.2,0.9s0.1,0.6,0.3,1L240.2,19.1z"/>
	<path fill="#FFFFFF" d="M255.7,10.9c1.3,6.7,5.3,10.7,11.4,10.7c2.5,0,5.1-0.7,7.1-1.8v3.7c-0.3,0-0.5-0.1-0.9-0.1
		c-0.2,0-0.5,0-0.9,0c-0.2,0-1.1,0.1-2.3,0.3c-1.1,0.1-2.5,0.3-3.9,0.3c-6.8,0-12.8-6.4-12.8-14c0-7.7,6-14,12.8-14
		c8,0,13.1,6.6,13.3,14.9h-23.8V10.9z M277.1,8.4c-1.1-5.4-4.5-10.2-10.7-10.2s-9.5,4.8-10.7,10.2H277.1z"/>
	<path fill="#FFFFFF" d="M287.1,21.1c0,0.7,0.2,1.3,0.4,2h-3.3c0.2-0.6,0.4-1.3,0.4-2v-34.2c0-0.7-0.2-1.3-0.4-2h2.8V21.1z"/>
	<path fill="#FFFFFF" d="M294.8,23.1c0.2-0.6,0.4-1.3,0.4-2v-34.2c0-0.7-0.2-1.3-0.4-2h3.7c-0.2,0.6-0.4,1.3-0.4,2v34.2
		c0,0.7,0.2,1.3,0.4,2H294.8z M316.6,23.1c0.2-0.6,0.4-1.3,0.4-2c0-8.2-6.5-16.7-18.1-17.3L311.6-12c0.9-1.1,1.6-1.8,1.6-2.3
		c0-0.3-0.1-0.7-0.2-0.9h5c-0.7,0.7-1.3,1.2-2,2L303.9,1.8c8.8,1.8,15.9,9.7,15.9,19.2c0,0.7,0.2,1.3,0.4,2L316.6,23.1L316.6,23.1z"
		/>
	<path fill="#FFFFFF" d="M324.7,10.9c1.3,6.7,5.3,10.7,11.4,10.7c2.5,0,5.1-0.7,7.1-1.8v3.7c-0.3,0-0.5-0.1-0.9-0.1
		c-0.2,0-0.5,0-0.9,0c-0.2,0-1.1,0.1-2.3,0.3c-1.1,0.1-2.5,0.3-3.9,0.3c-6.8,0-12.8-6.4-12.8-14c0-7.7,6-14,12.8-14
		c8,0,13.1,6.6,13.3,14.9h-23.8V10.9z M346.1,8.4c-1.1-5.4-4.5-10.2-10.7-10.2s-9.5,4.8-10.7,10.2H346.1z"/>
	<path fill="#FFFFFF" d="M359.6,21.2L349.2-1.8c-0.2-0.4-0.5-1.1-0.9-1.5h3.9c-0.1,0.3-0.2,0.7-0.2,0.9c0,0.2,0.2,0.6,0.3,0.8
		l9,19.8l9.1-19.7c0.1-0.3,0.3-0.7,0.3-0.9c0-0.2-0.1-0.6-0.2-0.9h4.1c-0.4,0.6-0.9,1.2-1.2,1.9l-16,33.7c-0.2,0.4-0.4,0.8-0.4,1.5
		c0,0.2,0.1,0.6,0.2,0.9h-3.9c0.3-0.7,0.8-1.3,1.1-1.9L359.6,21.2z"/>
	<path fill="#FFFFFF" d="M387.8-0.1c-1.6-0.9-3.3-1.6-5.3-1.6c-3,0-4.7,1.8-4.7,4.7c-0.1,5.7,12.5,3.9,12.5,13.4
		c0,4.1-3.8,7.6-8.4,7.6c-3,0-4.4-1.1-5.3-1.1c-0.7,0-1.3,0.1-1.8,0.3v-3.9c1.8,1.1,4.4,2.2,6.5,2.2c3.1,0,6.6-1.5,6.6-5.3
		c0-6.7-12.5-5.3-12.5-13.6c0-4,3.3-6.7,6.8-6.7c0.7,0,1.4,0.1,2.1,0.2c0.7,0.1,1.2,0.2,1.5,0.2c0.7,0,1.3-0.1,1.8-0.3v3.8
		L387.8-0.1L387.8-0.1z"/>
</g>
</svg>
