<?xml version="1.0" encoding="utf-8"?>
<!-- Generator: Adobe Illustrator 18.1.0, SVG Export Plug-In . SVG Version: 6.00 Build 0)  -->
<svg version="1.1" id="Layer_1" xmlns="http://www.w3.org/2000/svg" xmlns:xlink="http://www.w3.org/1999/xlink" x="0px" y="0px"
	 width="220px" height="230px" viewBox="100 -105 220 230" enable-background="new 100 -105 220 230" xml:space="preserve">
<g>
	<path fill="#FC6B49" d="M228.2-73.4h65.1l20.3-21l-46.9,13.3l-22.8-8.7L228.2-73.4z"/>
	<path fill="#FF3000" d="M141.4,86.2V4.9l72.7-78.3h70.1L141.4,86.2z"/>
	<path fill="#FC6B49" d="M117.6,118.4L141.4,88V19l-35,36L128,67.3L117.6,118.4z"/>
	<g>
		<path fill="#FFFFFF" d="M168.6,10.6c-0.4-0.4-0.3-1.1,0.3-1.7c0.7-0.8,2.4-1.8,3.9-2.2L171.7,4c-1.5,0.4-3.4,1.5-4.6,2.9
			c-2.1,2.4-2.4,5-0.6,6.7c3.5,3.2,7.1-3.1,9-1.5c0.6,0.6,0.4,1.3-0.3,2.1c-1,1-2.9,2.1-4.8,2.2l1.1,2.7c2-0.3,4.2-1.5,5.6-3.1
			c2-2.2,2.5-4.9,0.6-6.7C174,6,170.2,12.1,168.6,10.6z M183.4-4.5c-2.2-2-4.8-1.7-7,1l-3.9,4.3l9.9,9l2.2-2.5l-2.8-2.5l1.7-1.8
			C185.8,0.2,185.6-2.4,183.4-4.5z M181.3,1.2l-1.5,1.7l-3.2-2.8l1.5-1.7c1-1.1,2.1-1.3,3.1-0.4C182.4-1,182.3,0.1,181.3,1.2z
			 M191.9-5.1l-2-1.8l4.2-4.8l-2-1.8l-4.2,4.8l-2-1.8l4.8-5.3l-2-1.8l-7,7.8l9.9,9l7.1-8l-2-1.8L191.9-5.1z M203-17.7
			c-1.4,1.5-3.8,1.7-5.5,0.1c-1.7-1.4-1.8-3.8-0.4-5.3c0.8-0.8,2.1-1.4,3.5-1.4l-0.4-3.1c-2,0.1-3.9,1-5.3,2.5
			c-2.7,3.1-2.5,7.3,0.3,9.8c2.9,2.7,7.1,2.4,9.8-0.7c1.3-1.4,2-3.6,1.8-5.7l-2.9,0.1C204.1-19.9,203.7-18.5,203-17.7z M200.3-30.6
			l9.9,9l2.2-2.5l-9.9-9L200.3-30.6z M207.9-39l6.2,13.2l2.4-2.7l-1.3-2.4l3.9-4.3l2.5,1l2.4-2.7l-13.7-4.6L207.9-39z M216.4-36.2
			l-2.5,2.9l-2.4-4.8L216.4-36.2z M229.3-47.2l-3.8,4.2l-7.8-7l-2.2,2.5l9.9,9l6-6.7L229.3-47.2z"/>
	</g>
</g>
</svg>
