<?xml version="1.0" encoding="utf-8"?>
<!-- Generator: Adobe Illustrator 18.1.0, SVG Export Plug-In . SVG Version: 6.00 Build 0)  -->
<svg version="1.1" id="Layer_1" xmlns="http://www.w3.org/2000/svg" xmlns:xlink="http://www.w3.org/1999/xlink" x="0px" y="0px"
	 width="40px" height="40px" viewBox="10 -10 40 40" enable-background="new 10 -10 40 40" xml:space="preserve">
<g>
	<path fill="#00A2A7" d="M37.7,4.6V1.3h-0.8v3.3h-3.4v0.9h3.3v3.3h0.8V5.5h3.3V4.6C41,4.6,37.7,4.6,37.7,4.6z M31,11.8
		c-0.6-0.4-1.6-1.3-1.6-1.9c0-0.7,0.2-1,1.1-1.7c1-0.8,1.7-1.9,1.7-3.1c0-1.5-0.7-3-1.9-3.4h1.9l1.4-1c0,0-4.5,0-5.9,0
		c-2.7,0-5.2,2-5.2,4.3c0,2.4,1.8,4.3,4.5,4.3c0.2,0,0.4,0,0.6,0c-0.2,0.4-0.3,0.7-0.3,1.1c0,0.7,0.4,1.2,0.8,1.7c-0.4,0-0.7,0-1,0
		c-3.3,0-5.8,2.1-5.8,4.3s2.8,3.5,6.1,3.5c3.8,0,5.8-2.1,5.8-4.3C33,14,32.5,13,31,11.8z M27.8,8.9c-1.5-0.1-3-1.7-3.2-3.7
		s0.8-3.6,2.3-3.5s3,1.7,3.2,3.7C30.4,7.3,29.3,8.9,27.8,8.9z M27.2,19.1c-2.3,0-4-1.5-4-3.2s2-3.1,4.3-3.1c0.5,0,1,0.1,1.5,0.3
		c1.3,0.9,2.1,1.4,2.4,2.3c0.1,0.2,0.1,0.4,0.1,0.6C31.5,17.7,30.4,19.1,27.2,19.1z M30-7c-9.4,0-17,7.6-17,17s7.6,17,17,17
		s17-7.6,17-17S39.4-7,30-7z M30,25.4c-8.5,0-15.4-6.9-15.4-15.4S21.5-5.4,30-5.4S45.4,1.5,45.4,10S38.5,25.4,30,25.4z"/>
</g>
</svg>
