<?xml version="1.0" encoding="utf-8"?>
<!-- Generator: Adobe Illustrator 18.1.0, SVG Export Plug-In . SVG Version: 6.00 Build 0)  -->
<svg version="1.1" id="Layer_1" xmlns="http://www.w3.org/2000/svg" xmlns:xlink="http://www.w3.org/1999/xlink" x="0px" y="0px"
	 width="32px" height="38px" viewBox="-36.5 31.5 32 38" enable-background="new -36.5 31.5 32 38" xml:space="preserve">
<path fill="#FFFFFF" d="M-10.2,37.2c-5.7-5.6-14.8-5.6-20.5,0.1s-5.7,14.9,0,20.5L-20.5,68l10.3-10.3C-4.6,52.1-4.5,42.9-10.2,37.2z
	 M-20,56.1c-0.1,0.1-0.3,0.1-0.4,0.2h-0.1c-0.2,0-0.4-0.1-0.5-0.2l0,0c-1.4-0.7-8.9-5-8.3-9.8c0.1-1.2,0.5-1.9,1.3-2.7
	c1.1-1,2.2-1.6,3.5-1.6c1.8,0,3.2,1.2,4.1,2c0.8-0.9,2.2-2,4.1-2c1.2,0,2.4,0.5,3.5,1.6c0.8,0.8,1.2,1.5,1.3,2.7
	C-11,51.2-18.7,55.5-20,56.1z"/>
</svg>
