<?xml version="1.0" encoding="utf-8"?>
<!-- Generator: Adobe Illustrator 18.1.0, SVG Export Plug-In . SVG Version: 6.00 Build 0)  -->
<svg version="1.1" id="Layer_1" xmlns="http://www.w3.org/2000/svg" xmlns:xlink="http://www.w3.org/1999/xlink" x="0px" y="0px"
	 width="40px" height="40px" viewBox="10 -10 40 40" enable-background="new 10 -10 40 40" xml:space="preserve">
<g>
	<path fill="#00A2A7" d="M30-7c-9.4,0-17,7.6-17,17s7.6,17,17,17s17-7.6,17-17S39.4-7,30-7z M30,25.4c-8.5,0-15.4-6.9-15.4-15.4
		S21.5-5.4,30-5.4S45.4,1.5,45.4,10S38.5,25.4,30,25.4z M36,1.9H24c-1.2,0-2.1,1-2.1,2.1v12c0,1.2,1,2.1,2.1,2.1h12
		c1.2,0,2.1-1,2.1-2.1V4C38.1,2.8,37.2,1.9,36,1.9z M33,4.4c0-0.4,0.4-0.8,0.7-0.8h1.8c0.4,0,0.7,0.4,0.7,0.8v1.8
		c0,0.4-0.4,0.8-0.7,0.8h-1.8C33.3,7,33,6.6,33,6.2V4.4z M30,6.8c1.8,0,3.2,1.4,3.2,3.2s-1.5,3.2-3.2,3.2s-3.2-1.4-3.2-3.2
		S28.2,6.8,30,6.8z M36.3,15.6c0,0.4-0.3,0.7-0.7,0.7H24.3c-0.4,0-0.7-0.3-0.7-0.7V8.7h1.5C25,9.2,25,9.6,25,10.2
		c0,2.7,2.3,4.9,5,4.9c2.8,0,5-2.2,5-4.9c0-0.5-0.1-1-0.2-1.4h1.4L36.3,15.6L36.3,15.6z"/>
</g>
</svg>
