<?xml version="1.0" encoding="utf-8"?>
<!-- Generator: Adobe Illustrator 18.1.0, SVG Export Plug-In . SVG Version: 6.00 Build 0)  -->
<svg version="1.1" id="Layer_1" xmlns="http://www.w3.org/2000/svg" xmlns:xlink="http://www.w3.org/1999/xlink" x="0px" y="0px"
	 width="15px" height="15px" viewBox="1.5 3.5 15 15" enable-background="new 1.5 3.5 15 15" xml:space="preserve">
<g>
	<path fill="#FFFFFF" d="M3.7,11.6c-0.2-0.1-0.2-0.3-0.2-0.5s0.1-0.4,0.2-0.5c0.2-0.2,0.4-0.3,0.6-0.3h8.2l-3.1-3
		C9.2,7.1,9.1,6.9,9.1,6.7s0.1-0.4,0.2-0.5S9.6,6,9.9,6c0.2,0,0.4,0.1,0.6,0.2l5,4.8l-5,4.8c-0.2,0.1-0.3,0.2-0.6,0.2
		c-0.2,0-0.4-0.1-0.6-0.2c-0.2-0.1-0.2-0.3-0.2-0.5s0.1-0.4,0.2-0.5l3.1-3H4.3C4.1,11.9,3.9,11.7,3.7,11.6z"/>
</g>
</svg>
