<?xml version="1.0" encoding="utf-8"?>
<!-- Generator: Adobe Illustrator 18.1.0, SVG Export Plug-In . SVG Version: 6.00 Build 0)  -->
<svg version="1.1" id="Layer_1" xmlns="http://www.w3.org/2000/svg" xmlns:xlink="http://www.w3.org/1999/xlink" x="0px" y="0px"
	 width="22px" height="18px" viewBox="-1 2.03 22 18" enable-background="new -1 2.03 22 18" xml:space="preserve">
<g>
	<path fill="#FFFFFF" d="M0.54,8.08h1.48l0,0H4v0.97c0,1.1,0.89,1.99,1.99,1.99s1.99-0.89,1.99-1.99V8.08h11.48
		c0.3,0,0.54-0.24,0.54-0.54S19.76,7,19.46,7H7.98V6.06c0-1.1-0.89-1.99-1.99-1.99S4,4.96,4,6.06v0.93H2.02l0,0H0.54
		C0.24,6.99,0,7.24,0,7.53C0,7.83,0.24,8.08,0.54,8.08z M19.46,13.96h-2.52l0,0h-2v-0.93c0-1.1-0.89-1.99-1.99-1.99
		s-1.99,0.89-1.99,1.99v0.93H0.54C0.24,13.96,0,14.2,0,14.5s0.24,0.54,0.54,0.54h10.42v0.97c0,1.1,0.89,1.99,1.99,1.99
		s1.99-0.89,1.99-1.99v-0.97h2l0,0h2.52c0.3,0,0.54-0.24,0.54-0.54S19.76,13.96,19.46,13.96z"/>
</g>
</svg>
