<?xml version="1.0" encoding="utf-8"?>
<!-- Generator: Adobe Illustrator 18.1.0, SVG Export Plug-In . SVG Version: 6.00 Build 0)  -->
<svg version="1.1" id="Layer_1" xmlns="http://www.w3.org/2000/svg" xmlns:xlink="http://www.w3.org/1999/xlink" x="0px" y="0px"
	 width="24px" height="38px" viewBox="-39 32 24 38" enable-background="new -39 32 24 38" xml:space="preserve">
<g>
	<path fill="#FFFFFF" d="M-23.4,51.9V38c0-1.3-0.5-2.6-1.5-3.6c-0.9-0.9-2.2-1.4-3.6-1.4c-2.8,0-5,2.3-5,5.1v13.6
		c-2.8,1.7-4.5,4.7-4.5,8c0,5.1,4.2,9.3,9.4,9.3s9.4-4.2,9.4-9.4C-19.3,56.5-20.9,53.6-23.4,51.9z M-28.6,66.9c-4,0-7.3-3.3-7.3-7.3
		c0-2.7,1.5-5.2,3.9-6.4l0.6-0.3V38c0-1.6,1.3-3,2.9-3c0.8,0,1.5,0.3,2.1,0.9c0.6,0.6,0.9,1.3,0.9,2.1v15l0.5,0.3
		c2.2,1.3,3.6,3.7,3.6,6.3C-21.4,63.6-24.6,66.9-28.6,66.9z M-27.5,55.7V42.9c0-0.6-0.5-1-1-1c-0.6,0-1,0.5-1,1v12.7
		c-1.9,0.4-3.3,2.1-3.3,4.1c0,2.3,1.9,4.2,4.2,4.2s4.2-1.9,4.2-4.2C-24.4,57.8-25.7,56.2-27.5,55.7z M-20.8,43.1h3.8
		c0.6,0,1-0.5,1-1c0-0.6-0.5-1-1-1h-3.8c-0.6,0-1.1,0.5-1.1,1C-21.8,42.6-21.4,43.1-20.8,43.1z M-17,44.3h-3.8c-0.6,0-1.1,0.5-1.1,1
		c0,0.6,0.5,1,1.1,1h3.8c0.6,0,1-0.5,1-1C-15.9,44.8-16.4,44.3-17,44.3z M-17,47.7h-3.8c-0.6,0-1.1,0.5-1.1,1c0,0.6,0.5,1,1.1,1h3.8
		c0.6,0,1-0.5,1-1C-15.9,48.1-16.4,47.7-17,47.7z"/>
</g>
</svg>
