<?xml version="1.0" encoding="utf-8"?>
<!-- Generator: Adobe Illustrator 18.1.0, SVG Export Plug-In . SVG Version: 6.00 Build 0)  -->
<svg version="1.1" id="Layer_1" xmlns="http://www.w3.org/2000/svg" xmlns:xlink="http://www.w3.org/1999/xlink" x="0px" y="0px"
	 width="60px" height="60px" viewBox="-33.1 21 60 60" enable-background="new -33.1 21 60 60" xml:space="preserve">
<g>
	<path fill="#FFFFFF" d="M-19,73h4.6v-6.9H-19V73z M-12.9,73h2.5v-6.9h-2.5V73z M-8.9,73h2.5v-6.9h-2.5V73z M-5,73h16.7v-6.9H-5V73z
		 M11.2,32c-8.5-4.9-16.6-2.4-18.9-1.5c-2,0.8-3.9,2.5-4.7,3.3c0.4,0.4,0.5,0.7,0.5,0.8c0.1,0.3-0.2,0.7-0.5,0.7
		c-0.3,0.1-0.6-0.1-0.7-0.4c0-0.1-0.4-0.6-2-1.2c-1.9-0.7-4.8,0-7,1.7c-1.6,1.2-4.3,4.1-3.8,9.7c0.7,9.2,9,10.6,9.1,10.6
		c0.3,0.1,0.6,0.4,0.5,0.7c0,0.3-0.3,0.5-0.6,0.5H-17c0,0-0.8-0.1-1.9-0.5v8.2h30.7v-8.7C10,55.8,8,55.3,5.7,54.5
		c-1.3,1-2.6,1.5-3.9,1.5l0,0c-2.4,0-4.1-1.8-5-2.7c-0.1-0.1-0.2-0.3-0.3-0.4c-0.2-0.2-0.2-0.6,0-0.9c0.2-0.2,0.6-0.2,0.9,0
		c0.1,0.1,0.2,0.2,0.4,0.4c0.8,0.9,2.2,2.3,4.1,2.3l0,0c1.6,0,3.3-1,5.2-3c0.2-0.3,0.6-0.3,0.9,0c0.3,0.2,0.3,0.6,0,0.9
		c-0.4,0.4-0.7,0.7-1.1,1.1c3.9,1.4,7,1.5,9.2,0.2c3.1-1.9,3.6-6.3,3.8-7.9v-0.1C19.9,44.9,20.4,37.3,11.2,32z"/>
</g>
</svg>
