<?xml version="1.0" encoding="utf-8"?>
<!-- Generator: Adobe Illustrator 19.2.1, SVG Export Plug-In . SVG Version: 6.00 Build 0)  -->
<svg version="1.1" id="Layer_1" xmlns="http://www.w3.org/2000/svg" xmlns:xlink="http://www.w3.org/1999/xlink" x="0px" y="0px"
	 viewBox="0 0 24 22" style="enable-background:new 0 0 24 22;" xml:space="preserve">
<style type="text/css">
	.st0{fill:#FFFFFF;stroke:#FFFFFF;stroke-miterlimit:10;}
</style>
<g>
	<g>
		<path class="st0" d="M7.1,1.2v2.6H2.5v17h18.9l0.1-17.1h-4.6V1.2H16v2.6H8V1.2C8,1.2,7.1,1.2,7.1,1.2z M8,6.7v-2h8v1.9h0.9V4.7
			h3.6v15h-17V4.8h3.6v1.9L8,6.7z M16.9,5.7v-1 M15.1,9.3L10.7,14l-1.8-2c-0.2-0.2-0.5-0.2-0.6,0c-0.2,0.2-0.2,0.5,0,0.7l2.1,2.4
			c0.1,0.1,0.2,0.2,0.3,0.2c0.2,0,0.2-0.1,0.3-0.2l4.7-5c0.2-0.2,0.2-0.5,0-0.7C15.6,9.2,15.2,9.2,15.1,9.3z"/>
	</g>
</g>
</svg>
