<?xml version="1.0" encoding="utf-8"?>
<!-- Generator: Adobe Illustrator 18.1.0, SVG Export Plug-In . SVG Version: 6.00 Build 0)  -->
<svg version="1.1" id="Layer_1" xmlns="http://www.w3.org/2000/svg" xmlns:xlink="http://www.w3.org/1999/xlink" x="0px" y="0px"
	 width="22px" height="22px" viewBox="-136 139.5 22 22" enable-background="new -136 139.5 22 22" xml:space="preserve">
<g>
	<path fill="#00A2A7" d="M-124.9,147.1c-0.7,0-1.3,0.6-1.3,1.4s0.6,1.4,1.3,1.4c0.7,0,1.3-0.6,1.3-1.4S-124.2,147.1-124.9,147.1z"/>
	<path fill="#00A2A7" d="M-128.3,147.1c-0.7,0-1.3,0.6-1.3,1.4s0.6,1.4,1.3,1.4s1.3-0.6,1.3-1.4S-127.6,147.1-128.3,147.1z"/>
	<path fill="#00A2A7" d="M-121.6,147.1c-0.7,0-1.3,0.6-1.3,1.4s0.6,1.4,1.3,1.4c0.8,0,1.3-0.6,1.3-1.4S-120.9,147.1-121.6,147.1z"/>
	<path fill="#00A2A7" d="M-119.3,142.4h-11.4c-1.5,0-2.8,1.3-2.8,3v6.7c0,1.6,1.3,3,2.8,3h0.4v2.5c0,0.3,0.2,0.6,0.5,0.8
		c0.1,0.1,0.3,0.1,0.4,0.1c0.2,0,0.4-0.1,0.6-0.2l4.2-3.4h5.3c1.5,0,2.8-1.4,2.8-3v-6.5C-116.5,143.8-117.8,142.4-119.3,142.4z
		 M-125.5,153.2l-3,2.3v-1.6c0-0.5-0.4-0.9-0.9-0.9h-1.3c-0.5,0-1-0.5-1-1.1v-6.5c0-0.6,0.4-1.1,1-1.1h11.3c0.5,0,1,0.5,1,1.1v6.5
		c0,0.6-0.4,1.1-1,1.1h-5.6C-125.2,153.1-125.3,153.1-125.5,153.2z"/>
</g>
</svg>
