<?xml version="1.0" encoding="utf-8"?>
<!-- Generator: Adobe Illustrator 18.1.0, SVG Export Plug-In . SVG Version: 6.00 Build 0)  -->
<svg version="1.1" id="Layer_1" xmlns="http://www.w3.org/2000/svg" xmlns:xlink="http://www.w3.org/1999/xlink" x="0px" y="0px"
	 width="15px" height="15px" viewBox="-36.5 43.5 15 15" enable-background="new -36.5 43.5 15 15" xml:space="preserve">
<path fill="#00A2A7" d="M-22.8,45.7c0,0-0.1-0.1-0.1-0.1c0,0-0.1-0.1-0.1-0.1c0,0,0,0-0.1,0c0,0-0.1,0-0.1,0s0,0-0.1,0l-0.2,0.2
	c-0.1,0.1-0.4,0.3-0.9,0.7c-1.9,1.6-4.2,3.7-6.9,6.3l-3.2-2.8l-1.2,1.2c2.4,2.4,4.1,4.2,5.2,5.6l1.3-2c2.6-3.9,4.8-6.7,6.7-8.4
	C-22.6,46-22.7,45.8-22.8,45.7L-22.8,45.7z"/>
</svg>
