<?xml version="1.0" encoding="utf-8"?>
<!-- Generator: Adobe Illustrator 18.1.0, SVG Export Plug-In . SVG Version: 6.00 Build 0)  -->
<svg version="1.1" id="Layer_1" xmlns="http://www.w3.org/2000/svg" xmlns:xlink="http://www.w3.org/1999/xlink" x="0px" y="0px"
	 width="18px" height="18px" viewBox="0 0 18 18" enable-background="new 0 0 18 18" xml:space="preserve">
<g>
	<path fill="#9F9E9E" d="M9,1.5c1.4,0,2.6,0.3,3.8,1s2.1,1.6,2.7,2.7c0.7,1.1,1,2.4,1,3.8s-0.3,2.6-1,3.8c-0.7,1.1-1.6,2.1-2.7,2.7
		c-1.2,0.7-2.4,1-3.8,1c-1.4,0-2.6-0.3-3.8-1c-1.2-0.7-2.1-1.6-2.7-2.7c-0.6-1.1-1-2.4-1-3.8s0.3-2.6,1-3.8c0.7-1.1,1.6-2.1,2.7-2.7
		S7.6,1.5,9,1.5z M11.7,6.6C11.7,6.6,11.6,6.6,11.7,6.6c-0.1,0.1-0.2,0.2-0.2,0.2c0,0,0,0,0-0.1c0,0,0-0.1,0.1-0.1
		C11.6,6.6,11.6,6.6,11.7,6.6c-0.1-0.1,0-0.1,0.1-0.2c0.1,0,0.3-0.1,0.5-0.1c0.2-0.1,0.4,0,0.5,0.1c0,0,0-0.1,0.1-0.1
		C13,6.2,13,6.2,13,6.2c0,0,0.1,0,0.1,0c0.1,0,0.1,0,0.2-0.1l0-0.2c-0.1,0-0.1,0-0.2-0.1c0-0.1-0.1-0.1-0.1-0.2c0,0,0,0.1-0.1,0.1
		c0,0,0-0.1,0-0.1c0,0-0.1,0-0.1,0c-0.1,0-0.1,0-0.1,0c-0.1,0-0.1-0.1-0.1-0.1c0,0-0.1-0.1-0.1-0.2c0-0.1,0-0.1,0-0.1
		c0,0,0-0.1-0.1-0.1c0,0-0.1-0.1-0.1-0.1l-0.1-0.2c0,0,0,0-0.1,0c0,0,0,0-0.1,0.1c0,0,0,0.1-0.1,0.1c0,0,0,0,0,0.1c0,0,0,0-0.1,0
		c0,0,0,0,0,0c0,0,0,0-0.1,0c0,0-0.1,0-0.1,0c0,0,0,0-0.1,0c0,0-0.1,0-0.1,0c0.1,0,0.1-0.1,0-0.1c-0.1,0-0.1,0-0.2,0
		c0.1,0,0.1-0.1,0.1-0.1c0,0,0-0.1-0.1-0.1h0.1c0,0,0-0.1-0.1-0.1c0,0-0.1-0.1-0.2-0.1c-0.1,0-0.1,0-0.1-0.1c-0.1,0-0.2-0.1-0.3-0.1
		c-0.2,0-0.3,0-0.3,0c0,0-0.1,0.1-0.1,0.1c0,0,0,0.1,0,0.1l0,0.1c0,0,0,0.1-0.1,0.1c0,0-0.1,0.1-0.1,0.1c0,0,0,0.1,0.1,0.2
		c0.1,0.1,0.1,0.1,0.1,0.2c0,0-0.1,0.1-0.2,0.2l-0.2,0.1c0,0.1,0,0.1,0,0.2c0,0.1,0.1,0.1,0.1,0.2c0,0,0,0,0,0c0,0,0,0,0,0.1
		c0,0,0,0-0.1,0c0,0,0,0-0.1,0l0,0c-0.1,0-0.2,0-0.2-0.1C10,6,10,5.9,9.9,5.8c0-0.2-0.1-0.3-0.2-0.3c-0.2,0-0.3,0-0.3,0
		c0-0.1-0.2-0.2-0.4-0.3c-0.2-0.1-0.4-0.1-0.6,0c0,0,0,0,0-0.1C8.5,5,8.4,5,8.3,5c0,0,0-0.1,0-0.2c0-0.1,0-0.1,0-0.1
		c0-0.1,0.1-0.2,0.1-0.2l0.2-0.2c0,0,0-0.1,0-0.1c0.2,0,0.4,0,0.5-0.1c0,0,0.1-0.1,0.1-0.2l0.1-0.2c0.1,0,0.1-0.1,0.1-0.1
		c0,0,0.1,0,0.1,0.1s0.1,0.1,0.1,0.1c0.1,0,0.1,0,0.1-0.1c0-0.1,0-0.1-0.1-0.2c0.1,0,0.1-0.1,0-0.2c0,0-0.1-0.1-0.1-0.1
		c-0.1,0-0.2,0-0.3,0.1c0,0,0,0,0,0.1c0,0,0,0-0.1,0.1L9.3,3.6c0,0-0.1,0-0.2-0.1L9.1,3.5c0-0.1-0.1-0.1-0.1-0.1
		C9,3.3,8.9,3.4,8.9,3.5c0-0.1,0-0.1-0.1-0.2c-0.1,0-0.2-0.1-0.2-0.1C8.6,3.2,8.6,3.1,8.5,3c0,0-0.1-0.1-0.2-0.1S8.1,2.9,8,3L8,3.1
		c0,0,0,0.1,0.1,0.1c0,0,0.1,0,0.1,0.1c0,0,0.1,0,0.1,0c0,0,0.1,0,0.1,0c0.1,0.1,0.1,0.1,0.1,0.1c0,0,0,0-0.1,0c0,0-0.1,0-0.1,0
		c0,0,0,0-0.1,0c0,0,0,0.1,0,0.1c0,0.1,0,0.1,0,0.1c0,0-0.1-0.1-0.1-0.2C8,3.6,8,3.5,8,3.5c0,0.1,0,0.1-0.2,0.1l-0.1,0
		c0,0-0.1,0-0.2,0c-0.1,0-0.1,0-0.2,0c-0.1,0-0.1,0-0.1-0.1c0,0,0-0.1,0-0.2c0,0,0,0,0,0L7,3.1C6.7,3.2,6.4,3.3,6.1,3.5
		c0,0,0.1,0,0.1,0l0.1-0.1c0.1,0,0.1,0,0.1-0.1c0.2-0.1,0.4-0.1,0.4-0.1l0.1-0.1l0.2,0.2c0,0-0.1,0-0.3,0c-0.1,0-0.2,0.1-0.2,0.1
		c0,0.1,0.1,0.1,0,0.2L6.5,3.7c0,0-0.1-0.1-0.1-0.1c0,0-0.1,0-0.1-0.1c-0.1,0-0.2,0-0.2,0C5.1,4.1,4.3,4.8,3.7,5.7
		c0,0,0.1,0.1,0.1,0.1c0,0,0,0,0.1,0.1c0,0,0,0.1,0,0.1c0,0,0,0,0.1,0C4.1,6,4.1,6,4,6.1c0,0,0.2,0.1,0.4,0.3
		c0.1,0.1,0.2,0.2,0.2,0.2c0,0.1,0,0.1-0.1,0.2L4.5,6.7c0,0-0.1-0.1-0.1,0c0,0,0,0.1,0,0.2c0,0.1,0.1,0.1,0.1,0.1
		c0,0-0.1,0.1-0.1,0.2l0,0.3c0,0.1,0,0.2,0,0.2l0,0c0,0.1,0,0.2,0.1,0.3c0.1,0.2,0.1,0.2,0.2,0.2c-0.1,0,0,0.2,0.2,0.4l0.1,0.1
		l0.1,0.1l0.2,0.1c0,0,0.1,0.1,0.1,0.1c0,0,0,0.1,0.1,0.2c0,0.1,0.1,0.2,0.1,0.2c0,0,0,0.1,0.1,0.2c0.1,0.1,0.1,0.2,0.1,0.2
		c0,0,0,0,0,0c0,0,0,0,0,0c0,0,0.1,0.1,0.2,0.1c0.1,0,0.1,0.1,0.1,0.1c0,0,0,0.1,0,0.1c0,0,0,0.1,0,0.1c0,0,0,0,0.1,0
		c0-0.1-0.1-0.3-0.2-0.6C5.8,9.6,5.7,9.5,5.7,9.5c0,0,0-0.1-0.1-0.1c0-0.1,0-0.1,0-0.1h0.1c0,0,0.1,0,0.1,0l0.1,0.1c0,0,0,0.1,0,0.2
		c0,0.1,0.1,0.1,0.1,0.2c0.1,0,0.1,0.1,0.2,0.2C6.2,9.9,6.3,10,6.3,10c0,0,0.1,0.1,0.1,0.2c0,0.1,0,0.1,0,0.1c0.1,0,0.1,0,0.2,0.1
		c0.1,0.1,0.1,0.1,0.2,0.2c0,0.1,0.1,0.2,0.1,0.3c0,0.1,0,0.2,0,0.2c0,0,0,0.1,0.1,0.1c0,0,0.1,0.1,0.1,0.1l0.2,0.1l0.1,0.1l0.4,0.2
		c0.1,0,0.1,0,0.2,0c0,0,0.1,0,0.1,0l0.1,0c0.1,0,0.2,0,0.3,0.1C8.6,11.9,8.6,12,8.7,12c0.2,0.1,0.4,0.2,0.5,0.1c0,0,0,0,0,0.1
		l0.1,0.2c0,0.1,0.1,0.1,0.1,0.1c0,0,0.1,0.1,0.1,0.1c0,0,0.1,0.1,0.2,0.1c0.1,0.1,0.1,0.1,0.2,0.1c0,0,0.1-0.1,0.1-0.1
		c0,0.1,0,0.1,0.1,0.2C10,13,10.1,13,10.1,13c0.1,0,0.1-0.1,0.1-0.3c-0.2,0.1-0.4,0-0.5-0.2l0-0.1c0,0,0-0.1,0-0.1c0,0,0,0,0-0.1
		c0,0,0-0.1,0-0.1c0,0,0,0,0,0c0.1,0,0.1,0,0.1,0c0,0,0-0.1,0-0.1c0-0.1,0-0.1,0-0.1c0,0,0-0.1-0.1-0.2c-0.1-0.1-0.1-0.1-0.1-0.1
		c0,0.1-0.1,0.1-0.2,0.1c-0.1,0-0.1,0-0.2-0.1c0,0,0,0,0,0.1c0,0,0,0,0,0.1H9.1c0,0,0-0.1,0-0.2s0-0.2,0-0.2L9.3,11
		c0-0.1,0-0.1,0-0.1l-0.1-0.1c0,0-0.1,0-0.2,0c-0.1,0-0.2,0.1-0.3,0.2c0,0,0,0.1,0,0.1c0,0,0,0.1,0,0.1c0,0,0,0-0.1,0.1
		c0,0-0.1,0-0.2,0c-0.1,0-0.2,0-0.2-0.1C8.1,11.2,8,11.1,8,11c-0.1-0.1-0.1-0.3-0.1-0.3c0-0.1,0-0.2,0-0.3l0-0.2
		c0-0.1,0-0.1-0.1-0.2c0,0,0.1,0,0.1-0.1L8,9.7c0,0,0,0,0.1,0h0c0,0,0,0,0.1,0c0,0,0,0,0,0c0,0,0,0,0,0l0,0c0,0,0.1,0,0.3,0
		c0.1,0,0.2,0,0.3,0c0.1,0.1,0.2,0.1,0.2,0l0-0.1c0-0.1,0-0.1,0-0.1c0,0.2,0.1,0.2,0.3,0.1c0,0,0.1,0,0.2,0.1c0.1,0,0.1,0,0.2,0
		c0,0,0,0,0.1,0l0.1,0.1c0,0,0,0,0.1,0c0,0,0.1,0,0.1-0.1c0.1,0.1,0.1,0.2,0.1,0.2C9.9,10,10,10.1,10,10.2c0,0,0.1,0,0.1,0
		c0,0,0,0,0.1-0.1c0,0,0-0.1,0-0.1c0,0,0-0.1,0-0.1l0-0.1V9.5c-0.1,0-0.2-0.1-0.2-0.1c0-0.1,0-0.1,0-0.2C10,9.2,10,9.1,10.1,9
		c0,0,0,0,0.1,0c0,0,0.1,0,0.2-0.1l0.1-0.1c0.1-0.1,0.2-0.2,0.1-0.3c0,0,0.1,0,0.1-0.1l0,0c0,0-0.1,0-0.1,0c0,0,0,0,0,0
		c0.1,0,0.1-0.1,0-0.1c0,0,0.1-0.1,0.1-0.1c0-0.1,0-0.1,0.1-0.1c0.1,0.1,0.1,0.1,0.2,0c0-0.1,0.1-0.1,0-0.2c0,0,0.1-0.1,0.2-0.1
		c0.1,0,0.2-0.1,0.2-0.1c0,0,0.1,0,0.1,0c0,0,0-0.1,0-0.1c0-0.1,0-0.1,0-0.1c0,0,0.1-0.1,0.1-0.1c0.1,0,0.1,0,0.1,0l0.2-0.1
		c0,0,0,0,0,0c0.1,0,0.2,0,0.3-0.1c0.1-0.1,0-0.1-0.1-0.2c0,0,0-0.1,0-0.1s-0.1,0-0.1-0.1c0,0,0.1,0,0.1,0c0.1,0,0.1,0,0.1,0
		c0.1-0.1,0.1-0.1-0.1-0.2C12,6.4,11.8,6.5,11.7,6.6z M10.1,15.2c1.3-0.2,2.5-0.9,3.4-1.9c0,0-0.1,0-0.1,0c-0.1,0-0.1,0-0.1,0
		L13,13.1c0,0,0-0.1,0-0.1c0,0-0.1-0.1-0.1-0.1l-0.4-0.3c0,0,0,0-0.1,0l-0.1,0c0,0-0.1,0-0.1,0l0,0c0,0,0,0-0.1,0l-0.1,0.1v0
		c-0.1-0.1-0.3-0.2-0.3-0.2c0,0-0.1,0-0.1-0.1l-0.1-0.1c0,0,0,0-0.1,0c-0.1,0-0.1,0-0.1,0.1c0,0-0.1,0.1-0.1,0.1l0,0.1
		c0,0,0-0.1,0-0.2c0-0.1,0.1-0.1,0-0.2c0,0-0.1,0-0.1,0c-0.1,0-0.1,0-0.1,0L11,12.5c-0.1,0-0.1,0.1-0.1,0.1c0,0,0,0-0.1,0.1
		c-0.1,0-0.1,0.1-0.1,0.1c0,0,0,0.1-0.1,0.1c0,0,0,0.1,0,0.1c0,0-0.1-0.1-0.1-0.1c-0.1,0-0.1,0-0.1-0.1c0,0.1,0,0.2,0,0.3
		c0,0.2,0,0.3,0.1,0.4c0,0.2,0,0.3-0.1,0.5c-0.2,0.2-0.3,0.3-0.3,0.4c0,0.1,0,0.2,0.1,0.2c0,0,0,0.1-0.1,0.2
		c-0.1,0.1-0.1,0.2-0.1,0.2C10.1,15,10.1,15.1,10.1,15.2z"/>
</g>
<g>
</g>
<g>
</g>
<g>
</g>
<g>
</g>
<g>
</g>
<g>
</g>
</svg>
