<?xml version="1.0" encoding="utf-8"?>
<!-- Generator: Adobe Illustrator 18.1.0, SVG Export Plug-In . SVG Version: 6.00 Build 0)  -->
<svg version="1.1" id="Layer_1" xmlns="http://www.w3.org/2000/svg" xmlns:xlink="http://www.w3.org/1999/xlink" x="0px" y="0px"
	 width="15px" height="15px" viewBox="-2 3 15 15" enable-background="new -2 3 15 15" xml:space="preserve">
<g>
	<path fill="#00A2A7" d="M-0.2,11c-0.1-0.1-0.3-0.4-0.3-0.5s0.1-0.4,0.3-0.5c0.1-0.1,0.4-0.2,0.5-0.2h8.3l-3.2-3
		C5.2,6.6,5.2,6.4,5.2,6.2c0-0.2,0.1-0.4,0.3-0.5S5.9,5.5,6,5.5c0.3,0,0.4,0.1,0.5,0.2l5,4.8l-5,4.8c-0.1,0.1-0.4,0.2-0.5,0.2
		s-0.4-0.1-0.5-0.2c-0.1-0.1-0.3-0.4-0.3-0.5c0-0.2,0.1-0.4,0.3-0.5l3.2-3H0.4C0.1,11.2-0.1,11.1-0.2,11z"/>
</g>
</svg>
