<?xml version="1.0" encoding="utf-8"?>
<!-- Generator: Adobe Illustrator 18.1.0, SVG Export Plug-In . SVG Version: 6.00 Build 0)  -->
<svg version="1.1" id="Layer_1" xmlns="http://www.w3.org/2000/svg" xmlns:xlink="http://www.w3.org/1999/xlink" x="0px" y="0px"
	 width="48px" height="48px" viewBox="-30.5 26.5 48 48" enable-background="new -30.5 26.5 48 48" xml:space="preserve">
<path id="path-1" fill="#FFFFFF" d="M9.8,57.4c-0.6,0-1.1-0.5-1.1-1.1s0.5-1.1,1.1-1.1c0.6,0,1.1,0.5,1.1,1.1
	C10.9,56.9,10.4,57.4,9.8,57.4z M7.7,53c-1.5,0-2.6-1.2-2.6-2.6c0-1.5,1.2-2.6,2.6-2.6c1.5,0,2.6,1.2,2.6,2.6
	C10.4,51.8,9.2,53,7.7,53z M4.5,60.9c-3,1.6-7,1.4-11.2,1.4c0,0,0,0,0,0v0c0,0,0,0,0,0c-4.2,0-8.2,0.1-11.2-1.4
	c-1.6-0.8-2.1-1.7-1.4-2.9c0.5-1,1-1.9,1.6-2.8c0.6-1,1.5-1.5,3.1-1.7c2.6-0.2,5.3-0.2,8-0.3v0c2.7,0.1,5.4,0.1,8,0.3
	c1.5,0.1,2.5,0.7,3.1,1.7C5,56,5.5,57,6,57.9C6.6,59.1,6.1,60.1,4.5,60.9z M-21.1,53c-1.5,0-2.6-1.2-2.6-2.6c0-1.5,1.2-2.6,2.6-2.6
	c1.5,0,2.6,1.2,2.6,2.6C-18.5,51.8-19.7,53-21.1,53z M-23.2,57.4c-0.6,0-1.1-0.5-1.1-1.1c0-0.6,0.5-1.1,1.1-1.1
	c0.6,0,1.1,0.5,1.1,1.1C-22.1,56.9-22.6,57.4-23.2,57.4z M-18,35.7c0.4-0.7,0.5-1,1.4-1.1c3.3-0.5,6.3-0.6,9.9-0.7v0
	c3.6,0,6.6,0.2,9.9,0.7c0.9,0.1,1,0.3,1.4,1.1c1.3,2.5,2.2,4.8,3.3,7.5c-5,0-24.2,0-29.2,0C-20.2,40.5-19.3,38.2-18,35.7z
	 M14.5,41.1c-0.3-0.7-1.2-1.1-2.7-1.2c-1.8-0.1-2.4,1.8-1.2,2.8c0,0.5-0.1,0.8-0.5,1c-0.1-0.1-0.2-0.3-0.3-0.4
	c-0.2-0.5-0.4-1-0.6-1.5c-0.9-2.5-1.9-4.8-3-7.3c-0.3-0.8-1.1-1.5-2-1.7C1.2,32.2-2.7,32-6.7,32c0,0,0,0,0,0c0,0,0,0,0,0
	c-4,0-7.9,0.2-10.9,0.8c-0.9,0.2-1.7,0.9-2,1.7c-1.1,2.5-2.1,4.8-3,7.3c-0.2,0.5-0.4,1-0.6,1.5c-0.1,0.1-0.2,0.3-0.3,0.4
	c-0.3-0.2-0.5-0.6-0.5-1c1.2-1,0.6-2.9-1.2-2.8c-1.4,0.1-2.3,0.5-2.7,1.2c-0.1,0.2-0.1,0.2-0.1,0.4c0.1,1,0.9,1.3,2,1.5
	c0.4,0.1,0.5,0,0.8,0.4c0.3,0.5,0.6,1.4,0.9,2c-0.2,0.5-0.3,1-0.4,1.5c-0.3,1-0.8,1.9-1.3,2.7c-0.6,1.1-0.8,2.1-0.9,3.4
	c-0.1,1.4,0,3,0.3,4.7c-0.2,3-0.1,5.9,0.2,8.6c0.1,0.7,0.4,1.2,1,1.4h2.2c0.6,0,1.1,0.1,1.6-0.3c0.8-0.7,0.6-2.1,0.6-3.1H7.7
	c0,1-0.2,2.4,0.6,3.1c0.5,0.4,1,0.3,1.6,0.3H12c0.6-0.2,0.9-0.7,1-1.4c0.3-2.7,0.4-5.6,0.2-8.6c0.2-1.7,0.3-3.3,0.3-4.7
	c-0.1-1.3-0.3-2.3-0.9-3.4c-0.5-0.9-1-1.7-1.3-2.7c-0.1-0.5-0.2-1-0.4-1.5c0.3-0.6,0.6-1.5,0.9-2C12,43,12.2,43,12.6,43
	c1.1-0.1,1.9-0.5,2-1.5C14.6,41.3,14.6,41.2,14.5,41.1z"/>
</svg>
