<?xml version="1.0" encoding="utf-8"?>
<!-- Generator: Adobe Illustrator 18.1.0, SVG Export Plug-In . SVG Version: 6.00 Build 0)  -->
<svg version="1.1" id="Layer_1" xmlns="http://www.w3.org/2000/svg" xmlns:xlink="http://www.w3.org/1999/xlink" x="0px" y="0px"
	 width="56px" height="60px" viewBox="-25 21 56 60" enable-background="new -25 21 56 60" xml:space="preserve">
<g>
	<path fill="#FFFFFF" d="M-0.7,63.3c-0.7,0-1.3,0.3-1.9,0.9l-6.3,6.5c-0.9,1-1.1,2.3-0.3,3.1c0.8,0.7,2.1,0.5,3.1-0.4l6.3-6.5
		C0.7,66.3,1,65.6,1,65c0-0.5-0.2-0.9-0.5-1.2C0.2,63.4-0.2,63.3-0.7,63.3z M26.6,38.5c-4.1-4.4-11.9-3.8-17.4,1.3
		c-1.9,1.7-3.3,3.9-4.2,6.1c-0.7,1.9-1,3.7-0.8,5.5c-0.1,1.2-0.1,2.1-0.1,2.2c0,1.9-0.5,3.6-1.2,4.9c-0.6-1.3-1.1-2.9-1-4.6
		c0-0.1,0-1-0.1-2.2C1.9,50,1.7,48.1,1,46.2c-0.8-2.3-2.3-4.4-4.2-6.1c-3.1-2.8-6.9-4.4-10.6-4.3c-2.7,0.1-5.1,1.1-6.8,3
		c-4.1,4.4-3,12.2,2.6,17.3c2.9,2.7,6.6,4.3,10.2,4.3c1.2,0.1,2.7,0.2,4.4,0l0,0h0.1l0,0c0.3,0.1,2,0.7,3.9,1.6
		c-0.2,0.2-0.3,0.3-0.3,0.3l-0.4,0.2l0.2,0.2l1.8,1.5l0.2,0.2l0.2-0.2c0.2-0.2,0.4-0.4,0.6-0.6c0.3,0.3,0.6,0.6,0.9,0.9L4,64.7
		l0.2-0.2L6,63l0.2-0.2L6,62.6c0,0-0.3-0.2-0.7-0.7c2-1.1,4-1.8,4.2-1.8c0,0,0,0-0.1,0h0.1l0,0c1.7,0.1,3.2,0.1,4.4,0
		c3.4,0,7.2-1.4,10.2-4.3c3.1-2.9,4.9-6.6,5-10.3C29.1,42.8,28.3,40.3,26.6,38.5z M-0.2,50.5l-1.5-1.4l1.1-1.1
		C-0.4,48.8-0.2,49.7-0.2,50.5z M-4.6,41.6C-3,43.1-1.7,45-1,47c0.1,0.3,0.2,0.6,0.3,0.9l-0.4-0.5l-1.1,1.2l-2.3-2.2l1.9-2l-0.5-0.5
		l-2,2l-2.5-2.4l2.2-2.3l-0.5-0.5L-8.1,43l-2.4-2.3l1.6-1.6l-0.5-0.5C-7.8,39.2-6.1,40.2-4.6,41.6z M-10.8,45.6l-2.5-2.3l2.1-2.1
		l2.4,2.3L-10.8,45.6z M-8.1,44l2.5,2.4l-2.1,2.1l-2.5-2.3L-8.1,44z M-11.3,46.2l-2.3,2.3l-2.5-2.4l2.3-2.3L-11.3,46.2z M-10.8,46.7
		l2.5,2.3l-2.4,2.4l-2.4-2.3L-10.8,46.7z M-7.7,49.5l2.4,2.2l-2.4,2.4l-2.4-2.2L-7.7,49.5z M-7.2,49l2.1-2.1l2.3,2.2l-2,2.1L-7.2,49
		z M-9.6,38.5l-1.6,1.6l-2.3-2.2C-12.2,37.9-10.9,38.1-9.6,38.5z M-19.2,40.2c1.3-1.4,3.2-2.2,5.4-2.3c0,0,0,0,0.1,0l-0.4,0.4
		l2.4,2.3l-2.1,2.1l-3.9-3.6l-0.5,0.6l3.9,3.6l-2.3,2.3l-3.5-3.4l-0.4,0.5C-20.3,41.8-19.8,40.9-19.2,40.2z M-20.7,42.8l3.5,3.3
		l-3.1,3.1C-21.2,47-21.3,44.8-20.7,42.8z M-18.1,53.1c-0.8-1-1.5-2-1.9-3.1l3.4-3.4l2.5,2.4L-18.1,53.1z M-7.5,58.4
		c-3.2,0.1-6.5-1.3-9.2-3.7c-0.3-0.3-0.6-0.6-0.9-0.9l4-4.1l2.4,2.3l-3.7,3.7l0.5,0.5l3.7-3.7l2.4,2.3l-2.4,2.4l0.5,0.5l2.4-2.4
		l2.7,2.6C-5.8,58.2-6.6,58.3-7.5,58.4z M-2.1,56c-0.7,0.7-1.5,1.3-2.4,1.7l0.2-0.2l-2.9-2.8l2.4-2.5l3.2,3l0.3-0.4
		C-1.5,55.3-1.8,55.7-2.1,56z M-1.1,54.7l-3.1-2.9l2-2.1l1.6,1.5l0.5-0.5C-0.2,52.1-0.5,53.5-1.1,54.7z M0.4,62.3L0.4,62.3L0.4,62.3
		L0.4,62.3z M0.4,62.7L0.4,62.7L0.4,62.7C0.5,62.7,0.4,62.7,0.4,62.7z M1.8,63.9L1.8,63.9L1.8,63.9L1.8,63.9z M4.1,64.1L4.1,64.1
		L4.1,64.1L4.1,64.1z M5.5,62.6L5.5,62.6L5.5,62.6L5.5,62.6z M5.5,62.9L5.5,62.9C5.5,63,5.5,63,5.5,62.9L5.5,62.9z M19.6,37.6
		c2.1,0.1,4.1,0.8,5.5,2.3c0.7,0.7,1.2,1.6,1.5,2.5l-0.5-0.5l-3.5,3.4L20.3,43l3.9-3.6l-0.5-0.6l-3.9,3.7l-2.1-2.1l2.4-2.3
		L19.6,37.6z M17.2,45.9l2.5-2.3l2.3,2.3l-2.5,2.4L17.2,45.9z M19,48.8l-2.4,2.4l-2.4-2.4l2.5-2.3L19,48.8z M16.7,45.3l-2.1-2.1
		l2.4-2.3l2.1,2.1L16.7,45.3z M16.2,45.9l-2.5,2.3l-2.1-2.1l2.5-2.4L16.2,45.9z M13.1,48.7l-2.4,2.2l-2-2.1l2.3-2.2L13.1,48.7z
		 M13.6,49.3l2.4,2.4L13.6,54l-2.3-2.5L13.6,49.3z M16.5,52.2l2,2.1l-2.3,2.4l-2-2.2L16.5,52.2z M17.1,51.7l2.4-2.3l1.9,2L19,53.8
		L17.1,51.7z M20.1,48.8l2.5-2.4l1.9,1.9L22,50.8L20.1,48.8z M19.4,37.6l-2.3,2.2l-1.6-1.6C16.8,37.8,18.2,37.6,19.4,37.6z
		 M6.9,46.7c0.7-2,2-3.8,3.6-5.4c1.5-1.4,3.2-2.4,4.9-3l-0.5,0.5l1.6,1.6l-2.4,2.3l-2.2-2.3l-0.5,0.5l2.2,2.3l-2.5,2.4l-2-2
		l-0.5,0.5l1.9,2l-2.3,2.2l-1.1-1.2l-0.5,0.4C6.7,47.3,6.7,47,6.9,46.7z M6.5,47.7l1.1,1.1l-1.5,1.4C6.2,49.4,6.3,48.6,6.5,47.7z
		 M6.1,50.3l0.5,0.5l1.6-1.5l2,2.1l-3.1,2.9C6.4,53.2,6.1,51.8,6.1,50.3z M8,55.8c-0.3-0.3-0.6-0.7-0.8-1.1L7.5,55l3.2-3l2.4,2.5
		l-2.9,2.8l0.2,0.2C9.5,57,8.7,56.5,8,55.8z M15.6,57.9c-1.6,0.3-3.2,0.2-4.6-0.3l2.7-2.6l2.1,2.2l-0.5,0.5L15.6,57.9z M22.6,54.3
		c-2,1.8-4.2,3-6.5,3.5l3-3l1.1,1.1l0.5-0.5l-1.1-1.1l2.4-2.4l1.5,1.6C23.2,53.7,22.9,54,22.6,54.3z M24,52.8l-1.5-1.5l2.5-2.5
		l0.9,0.9C25.5,50.8,24.8,51.9,24,52.8z M26.3,49l-0.7-0.7l1.3-1.3C26.7,47.6,26.5,48.3,26.3,49z M26.3,46.4L25,47.7l-1.9-1.9
		l3.5-3.3c0.3,0.9,0.4,1.9,0.4,2.9c0,0.5-0.1,1-0.2,1.4L26.3,46.4z M8.5,64.4c-0.5-0.6-1.2-0.9-1.9-0.9c-0.5,0-0.9,0.1-1.2,0.4
		C4.6,64.6,4.8,66,5.7,67l6.3,6.5c0.9,1,2.3,1.2,3.1,0.5c0.8-0.7,0.6-2.1-0.3-3.1L8.5,64.4z M2.9,39c0.4,0,0.8,0,1.2-0.1
		c-0.3-0.5-1.2-1.8-3-2.5c-0.1,0-2.2-1-2.6-2.8c-0.2-1,0-2,0.8-3l0,0c0-0.1,0.9-1.4,2.4-1.6c1-0.1,2,0.4,2.9,1.3l0,0l0,0
		c0.6,0.9,2.3,3,3.8,3.1c0-0.1,0-0.1,0-0.2c0.2-3.1-2.3-5.7-5.5-5.7s-5.7,2.6-5.7,5.7C-2.8,36.4-0.2,39,2.9,39z M4.1,30.9
		c-0.7-0.8-1.5-1.1-2.2-1.1c-1.1,0.1-1.8,1.1-1.8,1.2l0,0l0,0c-0.6,0.8-0.8,1.6-0.7,2.3c0.4,1.4,2.1,2.2,2.1,2.2
		c2.2,0.9,3.2,2.6,3.5,3c1.8-0.7,3.2-2.3,3.5-4.3C6.4,34.2,4.4,31.3,4.1,30.9z"/>
</g>
</svg>
