<?xml version="1.0" encoding="utf-8"?>
<!-- Generator: Adobe Illustrator 18.1.0, SVG Export Plug-In . SVG Version: 6.00 Build 0)  -->
<svg version="1.1" id="Layer_1" xmlns="http://www.w3.org/2000/svg" xmlns:xlink="http://www.w3.org/1999/xlink" x="0px" y="0px"
	 width="24px" height="24px" viewBox="10.4 -1.9 24 24" enable-background="new 10.4 -1.9 24 24" xml:space="preserve">
<g>
	<path fill="#FFFFFF" d="M31.6,11.8H16.1V2.3c0-1.7,0.6-1.7,1-1.8c0.6-0.1,1,0.5,1.2,0.9c-0.6,0.6-0.8,1.7-0.4,2.4
		C17.9,4,18,4.1,18.2,4.1c0.1,0,0.1,0,0.2-0.1L21,2.6c0.1-0.1,0.2-0.1,0.2-0.3c0-0.1,0-0.2,0-0.3c-0.3-0.6-1-1-1.7-1
		c-0.2,0-0.3,0-0.5,0.1c-0.3-0.8-1.1-1.5-2-1.4c-1.2,0.3-1.7,1.2-1.7,2.8v9.4h-2c-1.8,0-1.7,2.6,0,2.6c0.3,0,0.4,0.1,0.4,0.5
		c0.1,1,0.6,2.4,1.6,3.6c0.3,0.3,0.1,0.6,0.1,0.6L15,19.8c-0.1,0.2,0,0.5,0.2,0.6c0.1,0,0.1,0.1,0.2,0.1c0.1,0,0.3-0.1,0.4-0.3
		l0.4-0.8c0,0,0.1-0.3,0.4-0.2c0.4,0.2,1,0.3,1.7,0.3h8.6c0.4,0,0.9-0.1,1.3-0.2c0.3-0.1,0.4,0.4,0.4,0.4l0.3,0.6
		c0.1,0.1,0.2,0.3,0.4,0.3c0.1,0,0.1,0,0.2-0.1c0.2-0.1,0.3-0.3,0.2-0.6l-0.4-0.9c0,0-0.1-0.2,0.1-0.5c0.1-0.1,0.3-0.3,0.4-0.4
		c0.9-1,1.3-2.3,1.5-3.3c0.1-0.3,0.1-0.4,0.4-0.5C33.3,14.3,33.3,11.8,31.6,11.8z M29.5,14.5c0,0.1-0.6,2.2-2.4,3.2
		c-0.1,0.1-0.1,0.1-0.3,0.1c-0.1,0-0.3-0.1-0.3-0.2c-0.1-0.2-0.1-0.5,0.2-0.6c1.5-0.9,2-2.6,2-2.6c0.1-0.2,0.3-0.3,0.5-0.3
		C29.4,14.1,29.5,14.3,29.5,14.5z M21,6.6c-0.2,0.3-0.3,0.7-0.2,1C20.9,8,21,8.3,21.2,8.5c0.4,0.6,0.8,1.2,0.4,1.8
		c-0.1,0.2,0.1,0.5,0.3,0.3c0.3-0.3,0.3-0.7,0.3-1c-0.1-0.3-0.3-0.7-0.4-1c-0.2-0.3-0.4-0.6-0.6-0.9C21,7.4,21,7.1,21.2,6.8
		C21.4,6.6,21.1,6.4,21,6.6z M24.2,8.6c0.4,0.6,0.8,1.2,0.4,1.8c-0.1,0.2,0.1,0.5,0.3,0.3c0.3-0.3,0.3-0.7,0.3-1
		c-0.1-0.3-0.3-0.7-0.4-1c-0.2-0.3-0.4-0.6-0.6-0.9C24,7.4,24,7.2,24.2,6.9c0.2-0.3-0.1-0.5-0.3-0.3c-0.2,0.3-0.3,0.7-0.2,1
		C23.8,8,24,8.3,24.2,8.6z M22.7,8.6c0.4,0.6,0.8,1.2,0.4,1.8c-0.1,0.2,0.1,0.5,0.3,0.3c0.3-0.3,0.3-0.7,0.3-1
		c-0.1-0.3-0.3-0.7-0.4-1c-0.2-0.3-0.4-0.6-0.6-0.9c-0.1-0.3-0.1-0.6,0.1-0.9c0.1-0.2-0.2-0.4-0.3-0.2c-0.2,0.3-0.3,0.7-0.2,1
		C22.3,8,22.5,8.3,22.7,8.6z"/>
</g>
</svg>
