<?xml version="1.0" encoding="utf-8"?>
<!-- Generator: Adobe Illustrator 18.1.0, SVG Export Plug-In . SVG Version: 6.00 Build 0)  -->
<svg version="1.1" id="Layer_1" xmlns="http://www.w3.org/2000/svg" xmlns:xlink="http://www.w3.org/1999/xlink" x="0px" y="0px"
	 width="13px" height="13px" viewBox="2.5 4.9 13 13" enable-background="new 2.5 4.9 13 13" xml:space="preserve">
<g>
	<path fill="#08A3A7" d="M5.4,16.9c-0.6,0-1-0.2-1.3-0.7c-0.4-0.4-0.5-0.9-0.5-1.6V8.1c0-0.7,0.2-1.2,0.6-1.6
		c0.4-0.4,0.9-0.7,1.3-0.7h5.5c0.2,0,0.6,0.1,0.8,0.2c0.1,0.1,0.1,0.1,0.1,0.2c0,0.1,0,0.1-0.1,0.2l-0.3,0.4C11.4,7,11.4,7,11.3,7
		h-0.1c-0.1,0-0.2-0.1-0.3-0.1H5.4c-0.3,0-0.5,0.1-0.7,0.4C4.4,7.5,4.4,7.8,4.4,8.1v6.5c0,0.4,0.1,0.7,0.3,0.9
		c0.2,0.2,0.5,0.4,0.7,0.4h5.5c0.3,0,0.6-0.1,0.7-0.4c0.2-0.2,0.3-0.6,0.3-0.9v-2c0-0.1,0-0.1,0.1-0.2l0.4-0.5
		c0.1-0.1,0.1-0.1,0.2-0.1c0.1,0,0.1,0,0.2,0.1c0.1,0.1,0.1,0.1,0.1,0.1v2.5c0,0.7-0.2,1.2-0.5,1.6c-0.4,0.4-0.8,0.7-1.3,0.7
		L5.4,16.9L5.4,16.9z M5.2,10.9c0-0.1,0.1-0.3,0.2-0.4l0.7-0.9c0.1-0.1,0.2-0.1,0.3-0.1c0.1,0,0.3,0.1,0.4,0.2l1.8,2l4.3-5.1
		c0.1-0.1,0.2-0.2,0.4-0.2c0.1,0,0.3,0.1,0.4,0.2l0.7,0.9c0.1,0.1,0.2,0.2,0.2,0.4c0,0.2-0.1,0.4-0.2,0.4l-5.4,6.4
		c-0.1,0.1-0.2,0.2-0.4,0.2c-0.1,0-0.2-0.1-0.4-0.2l-2.9-3.4C5.3,11.3,5.2,11.1,5.2,10.9z"/>
</g>
</svg>
