<?xml version="1.0" encoding="utf-8"?>
<!-- Generator: Adobe Illustrator 19.2.1, SVG Export Plug-In . SVG Version: 6.00 Build 0)  -->
<svg version="1.1" id="Layer_1" xmlns="http://www.w3.org/2000/svg" xmlns:xlink="http://www.w3.org/1999/xlink" x="0px" y="0px"
	 viewBox="0 0 26 24" style="enable-background:new 0 0 26 24;" xml:space="preserve">
<style type="text/css">
	.st0{fill:#9E9E9E;}
</style>
<g>
	<g>
		<path class="st0" d="M23,3.5h-3.8V1.2c0-0.3-0.3-0.6-0.6-0.6c-0.3,0-0.6,0.3-0.6,0.6v2.4H8V1.2c0-0.3-0.3-0.6-0.6-0.6
			c-0.3,0-0.6,0.3-0.6,0.6v2.4H3c-1.1,0-2,0.9-2,2v15.9c0,1.1,0.9,2,2,2h20c1.1,0,2-0.9,2-2V5.6C25,4.4,24.1,3.5,23,3.5z M23.8,21.5
			c0,0.4-0.4,0.8-0.8,0.8H3c-0.4,0-0.8-0.4-0.8-0.8V5.6c0-0.5,0.3-0.8,0.8-0.8h3.8v1.7C6.8,6.8,7.1,7,7.4,7C7.7,7,8,6.8,8,6.5V4.7
			h10v1.7c0,0.2,0.1,0.3,0.2,0.4C18.3,7,18.4,7,18.6,7c0.3,0,0.6-0.3,0.6-0.6V4.7H23c0.4,0,0.8,0.4,0.8,0.8V21.5z M16.9,10.1
			l-5.5,5.5l-2.3-2.4c-0.2-0.2-0.6-0.2-0.8,0c-0.2,0.2-0.2,0.6,0,0.8l2.7,2.8c0.1,0.1,0.3,0.2,0.4,0.2c0.2,0,0.3-0.1,0.4-0.2
			l5.9-5.9c0.2-0.2,0.2-0.6,0-0.8C17.5,9.9,17.1,9.9,16.9,10.1z"/>
	</g>
</g>
</svg>
