<?xml version="1.0" encoding="utf-8"?>
<!-- Generator: Adobe Illustrator 18.1.0, SVG Export Plug-In . SVG Version: 6.00 Build 0)  -->
<svg version="1.1" id="Layer_1" xmlns="http://www.w3.org/2000/svg" xmlns:xlink="http://www.w3.org/1999/xlink" x="0px" y="0px"
	 width="40px" height="40px" viewBox="40 -10 40 40" enable-background="new 40 -10 40 40" xml:space="preserve">
<g>
	<path fill="#333333" d="M60-7c-9.4,0-17,7.6-17,17s7.6,17,17,17s17-7.6,17-17S69.4-7,60-7z M60,25.4c-8.5,0-15.4-6.9-15.4-15.4
		S51.5-5.4,60-5.4S75.4,1.5,75.4,10S68.5,25.4,60,25.4z M66,1.9H54c-1.2,0-2.1,1-2.1,2.1v12c0,1.2,1,2.1,2.1,2.1H66
		c1.2,0,2.1-1,2.1-2.1v-12C68.1,2.8,67.2,1.9,66,1.9z M63,4.4c0-0.4,0.4-0.8,0.7-0.8h1.8c0.4,0,0.7,0.4,0.7,0.8v1.8
		c0,0.4-0.4,0.8-0.7,0.8h-1.8c-0.4,0-0.7-0.4-0.7-0.8V4.4z M60,6.8c1.8,0,3.2,1.4,3.2,3.2s-1.5,3.2-3.2,3.2s-3.2-1.4-3.2-3.2
		S58.2,6.8,60,6.8z M66.3,15.6c0,0.4-0.3,0.7-0.7,0.7H54.3c-0.4,0-0.7-0.3-0.7-0.7V8.7h1.5C55,9.2,55,9.6,55,10.2
		c0,2.7,2.3,4.9,5,4.9c2.8,0,5-2.2,5-4.9c0-0.5-0.1-1-0.2-1.4h1.4L66.3,15.6L66.3,15.6z"/>
</g>
</svg>
