<?xml version="1.0" encoding="utf-8"?>
<!-- Generator: Adobe Illustrator 18.1.0, SVG Export Plug-In . SVG Version: 6.00 Build 0)  -->
<svg version="1.1" id="Layer_1" xmlns="http://www.w3.org/2000/svg" xmlns:xlink="http://www.w3.org/1999/xlink" x="0px" y="0px"
	 width="44px" height="38px" viewBox="-29.2 31.5 44 38" enable-background="new -29.2 31.5 44 38" xml:space="preserve">
<g>
	<path fill="#FFFFFF" d="M7.3,41.5c-1.5,0-2.9,0.5-4,1.5C3.1,37.4-1.5,33-7,33c-4.3,0-7.9,2.6-9.5,6.3c-1.1-0.6-2.3-0.9-3.6-0.9
		c-4.4,0-7.9,3.5-7.9,7.8s3.5,7.8,7.8,7.8H7.3c3.4,0,6.2-2.8,6.2-6.2C13.6,44.3,10.8,41.5,7.3,41.5z M-25.1,46.2
		c0,0.5-0.4,0.9-0.9,0.9s-0.9-0.4-0.9-0.9c0-3.6,2.9-6.6,6.6-6.6c0.3,0,0.6,0,0.9,0.1C-22.6,40.1-25.1,42.9-25.1,46.2z M-13.3,43.4
		c0,0.6-0.5,1.1-1.1,1.1s-1.1-0.5-1.1-1.1c0-4.7,3.8-8.5,8.5-8.5c0.4,0,0.8,0,1.1,0.1C-10.1,35.5-13.3,39-13.3,43.4z M3.5,47.7
		c0,0.4-0.3,0.7-0.7,0.7c-0.4,0-0.7-0.3-0.7-0.7c0-2.8,2.3-5.2,5.2-5.2c0.2,0,0.5,0,0.7,0.1C5.5,43,3.5,45.1,3.5,47.7z M-0.1,57.3
		L-0.1,57.3l-1-1l-1,1c-0.3,0.3-0.4,0.6-0.4,1c0,0.8,0.7,1.5,1.5,1.5s1.5-0.7,1.5-1.5C0.4,57.9,0.2,57.5-0.1,57.3L-0.1,57.3z
		 M-6.8,58.3c0-0.4-0.2-0.8-0.4-1l-1-1l-1,1c-0.3,0.3-0.4,0.6-0.4,1c0,0.8,0.7,1.5,1.5,1.5C-7.5,59.8-6.8,59.1-6.8,58.3z
		 M-14.1,58.3c0-0.4-0.2-0.8-0.4-1l0,0l-1-1l-1,1c-0.3,0.3-0.4,0.6-0.4,1c0,0.8,0.7,1.5,1.5,1.5C-14.7,59.8-14.1,59.1-14.1,58.3z
		 M-2.4,61.4L-2.4,61.4L-2.4,61.4L-2.4,61.4z M-2.4,61.4l-1-1l-1,1c-0.3,0.3-0.4,0.6-0.4,1c0,0.8,0.7,1.5,1.5,1.5s1.5-0.7,1.5-1.5
		C-2,62-2.2,61.7-2.4,61.4L-2.4,61.4z M-10.7,60.4l-1,1c-0.3,0.3-0.4,0.6-0.4,1c0,0.8,0.7,1.5,1.5,1.5s1.5-0.7,1.5-1.5
		c0-0.4-0.2-0.8-0.4-1L-10.7,60.4z M-9.7,61.4L-9.7,61.4L-9.7,61.4L-9.7,61.4L-9.7,61.4z M-16.9,61.4L-16.9,61.4l-1-1l-1,1
		c-0.3,0.3-0.4,0.6-0.4,1c0,0.8,0.7,1.5,1.5,1.5s1.5-0.7,1.5-1.5C-16.4,62-16.6,61.7-16.9,61.4L-16.9,61.4z M-4.8,65.5l-1-1l-1,1
		c-0.3,0.3-0.4,0.6-0.4,1c0,0.8,0.7,1.5,1.5,1.5s1.5-0.7,1.5-1.5C-4.4,66.1-4.5,65.8-4.8,65.5L-4.8,65.5z M-13.1,64.5l-1,1
		c-0.3,0.3-0.4,0.6-0.4,1c0,0.8,0.7,1.5,1.5,1.5s1.5-0.7,1.5-1.5c0-0.4-0.2-0.8-0.4-1L-13.1,64.5z M-19.2,65.5L-19.2,65.5l-1-1l-1,1
		c-0.3,0.3-0.4,0.6-0.4,1c0,0.8,0.7,1.5,1.5,1.5c0.8,0,1.5-0.7,1.5-1.5C-18.8,66.1-19,65.8-19.2,65.5L-19.2,65.5z"/>
</g>
</svg>
