<?xml version="1.0" encoding="utf-8"?>
<!-- Generator: Adobe Illustrator 18.1.0, SVG Export Plug-In . SVG Version: 6.00 Build 0)  -->
<svg version="1.1" id="Layer_1" xmlns="http://www.w3.org/2000/svg" xmlns:xlink="http://www.w3.org/1999/xlink" x="0px" y="0px"
	 width="40px" height="28px" viewBox="18 -4.2 40 28" enable-background="new 18 -4.2 40 28" xml:space="preserve">
<g>
	<path fill="#FFFFFF" d="M21.5,8H24c0.2,0,0.2-0.1,0.2-0.2c0.2-1.4,1.3-2.6,2.8-2.7c0.2,0,0.3,0,0.5,0h6.6c0.2,0,0.3,0,0.5,0
		c1.5,0.1,2.7,1.3,2.8,2.7C37.3,8,37.4,8,37.5,8h1c0.2,0,0.2-0.1,0.2-0.2c0.2-1.4,1.3-2.6,2.8-2.7c0.2,0,0.3,0,0.5,0h6.6
		c0.2,0,0.3,0,0.5,0c1.5,0.1,2.6,1.3,2.8,2.7C51.8,8,51.9,8,52.1,8h2.5c0.2,0,0.2-0.1,0.2-0.2V1c0-0.2-0.1-0.2-0.2-0.3
		c-5-2.4-10.5-3.8-16.4-3.8c-0.2,0-0.3,0-0.5,0c-5.8,0-11.4,1.4-16.4,3.8c-0.1,0.1-0.2,0.2-0.2,0.3v6.8C21.3,8,21.3,8,21.5,8z
		 M19.3,16.9h37.4c0.2,0,0.2-0.1,0.2-0.2v-5.4c0-0.2,0-0.3,0-0.5c-0.1-0.6-0.6-1.2-1.3-1.3c-0.2,0-0.3,0-0.5,0H20.8
		c-0.2,0-0.3,0-0.5,0c-0.6,0.2-1.2,0.6-1.3,1.4c0,0.2,0,0.3,0,0.5v5.4C19,16.8,19.1,16.9,19.3,16.9z M56.7,18.4H19.3
		c-0.2,0-0.2,0.1-0.2,0.2v1c0,0.2,0.1,0.2,0.2,0.2h2.5c0.2,0,0.2,0.1,0.2,0.2v2.5c0,0.2,0.1,0.2,0.2,0.2h2.4c0.2,0,0.2-0.1,0.2-0.2
		v-2.5c0-0.2,0.1-0.2,0.2-0.2H51c0.2,0,0.2,0.1,0.2,0.2v2.5c0,0.2,0.1,0.2,0.2,0.2h2.4c0.2,0,0.2-0.1,0.2-0.2v-2.5
		c0-0.2,0.1-0.2,0.2-0.2h2.5c0.2,0,0.2-0.1,0.2-0.2v-1C57,18.4,56.9,18.4,56.7,18.4z"/>
</g>
</svg>
