<?xml version="1.0" encoding="utf-8"?>
<!-- Generator: Adobe Illustrator 18.1.0, SVG Export Plug-In . SVG Version: 6.00 Build 0)  -->
<svg version="1.1" id="Layer_1" xmlns="http://www.w3.org/2000/svg" xmlns:xlink="http://www.w3.org/1999/xlink" x="0px" y="0px"
	 width="28px" height="28px" viewBox="-135 137 28 28" enable-background="new -135 137 28 28" xml:space="preserve">
<g>
	<path fill="#00A2A7" d="M-117.4,146.1c0.3-0.3,0.8-0.1,1.3,0.4s0.6,1,0.3,1.3l-3.6,3.5l3.4,3.6c0.3,0.3,0.1,0.8-0.4,1.3
		c-0.6,0.6-1,0.6-1.3,0.3l-3.4-3.6l-3.6,3.4c-0.3,0.3-0.8,0.1-1.3-0.4s-0.6-1-0.3-1.3l3.6-3.4l-3.5-3.6c-0.3-0.3-0.2-0.7,0.4-1.3
		c0.6-0.6,1-0.6,1.3-0.3l3.5,3.6L-117.4,146.1z"/>
	<circle fill="none" stroke="#00A2A7" stroke-width="2" stroke-miterlimit="10" cx="-121" cy="151.1" r="12.5"/>
</g>
</svg>
