<?xml version="1.0" encoding="utf-8"?>
<!-- Generator: Adobe Illustrator 18.1.0, SVG Export Plug-In . SVG Version: 6.00 Build 0)  -->
<svg version="1.1" id="Layer_1" xmlns="http://www.w3.org/2000/svg" xmlns:xlink="http://www.w3.org/1999/xlink" x="0px" y="0px"
	 width="16px" height="16px" viewBox="-3.1 3.1 16 16" enable-background="new -3.1 3.1 16 16" xml:space="preserve">
<g>
	<path fill="#FFFFFF" d="M-2,11.1c0-1.3,0.3-2.5,1-3.5s1.5-1.8,2.5-2.4c1.1-0.6,2.2-0.9,3.5-0.9c1.3,0,2.5,0.3,3.5,1
		s1.8,1.5,2.4,2.5c0.6,1.1,0.9,2.2,0.9,3.4c0,1.3-0.3,2.5-1,3.5s-1.5,1.8-2.4,2.4C7.2,17.7,6.1,18,4.8,18c-1.3,0-2.5-0.3-3.5-1
		s-1.9-1.5-2.4-2.5C-1.7,13.5-2,12.4-2,11.1z"/>
</g>
</svg>
