<?xml version="1.0" encoding="utf-8"?>
<!-- Generator: Adobe Illustrator 18.1.0, SVG Export Plug-In . SVG Version: 6.00 Build 0)  -->
<svg version="1.1" id="Layer_1" xmlns="http://www.w3.org/2000/svg" xmlns:xlink="http://www.w3.org/1999/xlink" x="0px" y="0px"
	 width="15px" height="10px" viewBox="-42 45.5 15 10" enable-background="new -42 45.5 15 10" xml:space="preserve">
<g>
	<path fill="#00A2A7" d="M-40.2,51c-0.1-0.1-0.3-0.4-0.3-0.5s0.1-0.4,0.3-0.5c0.1-0.1,0.4-0.2,0.5-0.2h8.3l-3.2-3
		c-0.2-0.2-0.2-0.4-0.2-0.6s0.1-0.4,0.3-0.5c0.2-0.1,0.4-0.2,0.5-0.2c0.3,0,0.4,0.1,0.5,0.2l5,4.8l-5,4.8c-0.1,0.1-0.4,0.2-0.5,0.2
		s-0.4-0.1-0.5-0.2c-0.1-0.1-0.3-0.4-0.3-0.5c0-0.2,0.1-0.4,0.3-0.5l3.2-3h-8.3C-39.9,51.2-40.1,51.1-40.2,51z"/>
</g>
</svg>
