<?xml version="1.0" encoding="utf-8"?>
<!-- Generator: Adobe Illustrator 18.1.0, SVG Export Plug-In . SVG Version: 6.00 Build 0)  -->
<svg version="1.1" id="Layer_1" xmlns="http://www.w3.org/2000/svg" xmlns:xlink="http://www.w3.org/1999/xlink" x="0px" y="0px"
	 width="70px" height="80px" viewBox="-114 111 70 80" enable-background="new -114 111 70 80" xml:space="preserve">
<circle fill="#FFFFFF" cx="-79" cy="144.4" r="26.6"/>
<g>
	<path fill="#010101" d="M-105.6,144.4c0-7.7,3.3-14.6,8.5-19.5l-3-3c-0.3,0.2-0.5,0.5-0.8,0.7c-12.1,12.1-12.3,31.4-0.5,43.6
		l3.3-3.3C-102.8,158.1-105.6,151.6-105.6,144.4z"/>
	<path fill="#010101" d="M-52.4,144.4c0,6.3-2.2,12.1-5.8,16.6l3.2,3.2c9.8-11.9,9.5-29.2-1-40.6l-3.1,3.1
		C-54.9,131.4-52.4,137.6-52.4,144.4z"/>
	<path fill="#010101" d="M-95.6,123.6c4.5-3.6,10.3-5.8,16.6-5.8c7.2,0,13.7,2.9,18.5,7.5l3.1-3.1c-11.4-11.1-29.2-11.5-41.3-1.6
		L-95.6,123.6z"/>
	<path fill="#FAAC1A" d="M-59.5,162.6c-4.9,5.2-11.8,8.5-19.5,8.5c-6.8,0-13-2.6-17.7-6.7l-3.3,3.2l21,20.9l22-22
		c0.2-0.2,0.5-0.5,0.7-0.7L-59.5,162.6z"/>
</g>
<text transform="matrix(1 0 0 1 -97 160)" fill="#20262C" font-family="'Arial-BoldMT'" font-size="10">VILLAS</text>
</svg>
