<?xml version="1.0" encoding="utf-8"?>
<!-- Generator: Adobe Illustrator 18.1.0, SVG Export Plug-In . SVG Version: 6.00 Build 0)  -->
<svg version="1.1" id="Layer_1" xmlns="http://www.w3.org/2000/svg" xmlns:xlink="http://www.w3.org/1999/xlink" x="0px" y="0px"
	 width="60px" height="60px" viewBox="20 -20 60 60" enable-background="new 20 -20 60 60" xml:space="preserve">
<g>
	<path fill="#00A2A7" d="M50-15C36.2-15,25-3.7,25,10c0,13.8,11.3,25,25,25c13.8,0,25-11.2,25-25C74.9-3.8,63.7-15,50-15z M50,32.8
		c-12.5,0-22.7-10.2-22.7-22.8c0-12.5,10.1-22.8,22.7-22.8S72.7-2.6,72.7,10C72.6,22.6,62.4,32.8,50,32.8z M64.5-0.4
		c-1.1,0.7-2.5,1.2-3.8,1.5c-1.1-1.1-2.6-2-4.3-2c-3.3,0-5.9,2.6-5.9,6c0,0.5,0.1,0.9,0.2,1.3c-4.9-0.2-9.3-2.6-12.3-6.2
		c-0.5,0.9-0.8,2-0.8,3c0,2,1,3.8,2.6,5c-1,0-2-0.3-2.6-0.7c0,0,0,0,0,0.1c0,2.8,2,5.3,4.8,5.9c-0.5,0.1-1,0.2-1.5,0.2
		c-0.4,0-0.7,0-1.1-0.1c0.7,2.3,3,4.1,5.6,4.1c-2,1.6-4.6,2.5-7.4,2.5c-0.5,0-1,0-1.5-0.1c2.6,1.7,5.7,2.6,9.1,2.6
		c11,0,17-9.1,17-17c0-0.3,0-0.5,0-0.8c1.1-0.8,2.1-2,3-3c-1,0.5-2.3,0.8-3.4,0.9C63.1,2.1,64,1,64.5-0.4z"/>
</g>
</svg>
