<?xml version="1.0" encoding="utf-8"?>
<!-- Generator: Adobe Illustrator 18.1.0, SVG Export Plug-In . SVG Version: 6.00 Build 0)  -->
<svg version="1.1" id="Layer_1" xmlns="http://www.w3.org/2000/svg" xmlns:xlink="http://www.w3.org/1999/xlink" x="0px" y="0px"
	 width="48px" height="48px" viewBox="-36.5 26.5 48 48" enable-background="new -36.5 26.5 48 48" xml:space="preserve">
<path id="path-1" fill="#FFFFFF" d="M-4.7,48.6c0-6.6,2.6-4.9,2.6-9.8c-0.7,0-1.2-0.5-1.2-1.2c0-0.7,0.6-1.2,1.2-1.2h4.9
	c0.7,0,1.2,0.6,1.2,1.2c0,0.7-0.5,1.2-1.2,1.2c0,4.9,2.5,3.3,2.5,9.8H-4.7z M-11.2,43.9c-0.5-0.1-1.2,0.8-0.2,1.4
	c0.8,0.5,2.5,1.6,4.1,3.3h-9c0,0,0,0,0,0H-31c0-4.1,3.3-7.4,7.4-7.4c2.2,0,4.2,1,5.6,2.5c-0.8-3.1-1.5-6.8-2.3-9.1
	c-1.1-3.2,0.8-7.5,4.9-6.6c3.2,0.7,5.7,4.9,6.6,11.5c0,0-3-3.3-4.1-2.5c0,0-0.7,0.6,0.9,1.5c1.7,1,5.7,4.5,5,8
	C-7,46.7-9.4,44.4-11.2,43.9z M-28.4,39.1c-2.3-1.1-2.6-4.9-2.6-4.9s3.1-0.8,5,0.8c1.9,1.6,2.5,4.9,2.5,4.9S-26.8,39.9-28.4,39.1z
	 M0.8,70.6C0.5,72-0.7,73-2.2,73h-21.5c-1.4,0-2.6-1-2.9-2.4L-31,49.9H5.3L0.8,70.6z M-7.7,59.8c-0.1-0.7-0.3-1.1-0.8-1.6
	c-0.6-0.6-1.3-0.9-2.1-0.9c-1.1,0-1.9,0.7-2.4,1.2c-0.5-0.5-1.3-1.2-2.4-1.2c-0.7,0-1.4,0.3-2.1,0.9c-0.5,0.5-0.7,0.9-0.8,1.6
	c-0.3,2.8,4.1,5.3,4.9,5.8c0,0,0,0,0,0c0.1,0.1,0.2,0.1,0.3,0.1c0,0,0,0,0.1,0c0.1,0,0.2,0,0.2-0.1C-11.8,65.1-7.3,62.6-7.7,59.8z"
	/>
</svg>
