<?xml version="1.0" encoding="utf-8"?>
<!-- Generator: Adobe Illustrator 18.1.0, SVG Export Plug-In . SVG Version: 6.00 Build 0)  -->
<svg version="1.1" id="Layer_1" xmlns="http://www.w3.org/2000/svg" xmlns:xlink="http://www.w3.org/1999/xlink" x="0px" y="0px"
	 width="60px" height="60px" viewBox="20 -20 60 60" enable-background="new 20 -20 60 60" xml:space="preserve">
<g>
	<path fill="#00A2A7" d="M61.3,2.1v-4.9h-1.2v4.9h-4.9v1.2h4.9v4.9h1.2V3.3h4.9V2.1H61.3z M51.4,12.7c-0.8-0.6-2.3-1.9-2.3-2.7
		c0-0.9,0.3-1.4,1.7-2.5c1.4-1.1,2.5-2.7,2.5-4.6c0-2.2-1-4.4-2.8-5.1h2.8l2-1.4c0,0-6.6,0-8.7,0c-3.9,0-7.6,3-7.6,6.4
		c0,3.5,2.7,6.4,6.7,6.4c0.3,0,0.5,0,0.8,0c-0.3,0.5-0.4,1.1-0.4,1.6c0,1,0.5,1.8,1.2,2.4c-0.5,0-1,0-1.5,0c-4.9,0-8.6,3.1-8.6,6.3
		s4.1,5.1,9,5.1c5.5,0,8.6-3.1,8.6-6.3C54.5,15.9,53.8,14.3,51.4,12.7z M46.8,8.3c-2.3-0.1-4.4-2.5-4.8-5.5s1.1-5.2,3.4-5.2
		C47.7-2.3,49.8,0,50.2,3C50.5,6,49,8.4,46.8,8.3z M45.9,23.3c-3.4,0-5.8-2.1-5.8-4.7c0-2.5,3-4.6,6.4-4.6c0.8,0,1.5,0.1,2.2,0.4
		c1.8,1.3,3.1,2,3.5,3.4c0.1,0.3,0.1,0.6,0.1,0.9C52.3,21.3,50.6,23.3,45.9,23.3z M50-15C36.2-15,25-3.8,25,10s11.2,25,25,25
		s25-11.2,25-25S63.8-15,50-15z M50,32.7c-12.5,0-22.6-10.2-22.6-22.7S37.5-12.7,50-12.7c12.5,0,22.6,10.2,22.6,22.7
		S62.5,32.7,50,32.7z"/>
</g>
</svg>
