<?xml version="1.0" encoding="utf-8"?>
<!-- Generator: Adobe Illustrator 18.1.0, SVG Export Plug-In . SVG Version: 6.00 Build 0)  -->
<svg version="1.1" id="Layer_1" xmlns="http://www.w3.org/2000/svg" xmlns:xlink="http://www.w3.org/1999/xlink" x="0px" y="0px"
	 width="18px" height="18px" viewBox="-3.5 1.5 18 18" enable-background="new -3.5 1.5 18 18" xml:space="preserve">
<g>
	<path fill="#999999" d="M11.8,4.2h-2V3.3C9.7,3,9.5,2.8,9.2,2.8S8.8,3,8.8,3.3v0.9H6V3.3C6,3,5.8,2.8,5.5,2.8S5,3,5,3.3v0.9H2.2
		V3.3C2.2,3,2,2.8,1.8,2.8S1.3,3,1.3,3.3v0.9h-2C-1.4,4.2-2,4.8-2,5.5v11.1c0,0.7,0.6,1.2,1.2,1.2h12.5c0.7,0,1.2-0.6,1.2-1.2V5.5
		C13,4.8,12.4,4.2,11.8,4.2z M12.1,16.6c0,0.2-0.1,0.3-0.3,0.3H-0.8c-0.2,0-0.3-0.1-0.3-0.3V5.5c0-0.2,0.1-0.3,0.3-0.3h2v0.9
		c0,0.3,0.2,0.5,0.5,0.5s0.5-0.2,0.5-0.5V5.2H5v0.9c0,0.3,0.2,0.5,0.5,0.5S6,6.4,6,6.1V5.2h2.8v0.9c0,0.3,0.2,0.5,0.5,0.5
		s0.5-0.2,0.5-0.5V5.2h2c0.2,0,0.3,0.1,0.3,0.3V16.6z M1.3,9.8h1.9V8.4H1.3V9.8z M1.3,12.2h1.9v-1.4H1.3V12.2z M1.3,14.5h1.9v-1.4
		H1.3V14.5z M4.6,14.5h1.9v-1.4H4.6V14.5z M4.6,12.2h1.9v-1.4H4.6V12.2z M4.6,9.8h1.9V8.4H4.6V9.8z M7.8,14.5h1.9v-1.4H7.8V14.5z
		 M7.8,12.2h1.9v-1.4H7.8V12.2z M7.8,9.8h1.9V8.4H7.8V9.8z"/>
</g>
</svg>
