<?xml version="1.0" encoding="utf-8"?>
<!-- Generator: Adobe Illustrator 18.1.0, SVG Export Plug-In . SVG Version: 6.00 Build 0)  -->
<svg version="1.1" id="Layer_1" xmlns="http://www.w3.org/2000/svg" xmlns:xlink="http://www.w3.org/1999/xlink" x="0px" y="0px"
	 width="64px" height="60px" viewBox="-21 21 64 60" enable-background="new -21 21 64 60" xml:space="preserve">
<g>
	<path fill="#FFFFFF" d="M-4.4,71.8l37.3-21c-1.3-2.2-0.5-5,1.8-6.3l-8.5-15.1c-2.2,1.3-5,0.5-6.3-1.8v-0.1l-37.3,21.1
		c0,0,0,0,0,0.1c1.3,2.2,0.5,5-1.8,6.3h-0.1l8.5,15.1c0,0,0,0,0.1,0C-8.4,68.8-5.6,69.6-4.4,71.8z M-9.8,67.7l-6.9-12.2
		c1.5-1.6,2.2-3.9,1.7-6L19.4,30c1.6,1.5,3.8,2.2,5.9,1.7l6.9,12.2c-1.5,1.6-2.1,3.8-1.6,5.9L-3.9,69.2C-5.5,67.8-7.7,67.2-9.8,67.7
		z M29.8,49.5c-0.3-2,0.3-4,1.6-5.6L25,32.6c-2,0.3-4.1-0.3-5.7-1.6l-33.5,18.9c0.3,2-0.3,4.2-1.6,5.8L-9.4,67
		c2-0.3,4.1,0.2,5.7,1.6L29.8,49.5z M18.7,38.3l2.3,2.1l2.8-1.6l-1.3,2.9l2.3,2.1l-3.1-0.3l-1.3,2.9l-0.6-3.1l-3.1-0.4l2.8-1.6
		L18.7,38.3z M10,43.2l2.3,2.1l2.8-1.6l-1.3,2.9l2.3,2.1L13,48.3l-1.3,2.9l-0.6-3.1L8,47.8l2.8-1.6L10,43.2z M1.4,48.2l2.3,2.1
		l2.8-1.6l-1.3,2.9l2.3,2.1l-3.1-0.4l-1.3,2.9l-0.6-3.1l-3.1-0.4l2.8-1.6L1.4,48.2z M-5.6,61.1L-6.2,58l-3.1-0.4l2.8-1.5L-7.1,53
		l2.3,2.1l2.6-1.5l-1.3,2.9l2.3,2.1l-3.1-0.4L-5.6,61.1z M36.7,48.1L36.7,48.1L33,48c-0.1,0.6,0,1.3,0.2,1.9H35
		c0.6,2.1,2.3,3.8,4.3,4.4v14c-2.1,0.6-3.7,2.3-4.3,4.3H-4.5l0,0h-0.1l-0.3-0.5c-0.7-1.3-2.1-2-3.5-2c-0.3,0-0.7,0-1,0.1
		c1.9,0.6,3.2,2.3,3.2,4.4h42.9c0-2.5,2.1-4.6,4.6-4.6V52.7C38.8,52.7,36.7,50.6,36.7,48.1z M19.7,58.8l-1.5,0.8h1.2L19.7,58.8z
		 M21.4,59.8h3.2L22,61.6l1,3l-2.6-1.9l-2.6,2l1-3l-1.7-1.2L12.5,63l0.5,1.6l-1.5-1.1L-3.4,72h38c0.7-1.9,2.2-3.4,4.1-4.1v-13
		c-1.9-0.7-3.4-2.3-4.2-4.2h-1l0.2,0.4l-12.9,7.3L21.4,59.8z M29.4,59.8l1-3l1,3h3.2l-2.7,1.8l1,3l-2.6-1.9l-2.5,2l1-3l-2.6-1.9
		C26.2,59.8,29.4,59.8,29.4,59.8z"/>
</g>
</svg>
