<?xml version="1.0" encoding="utf-8"?>
<!-- Generator: Adobe Illustrator 19.2.1, SVG Export Plug-In . SVG Version: 6.00 Build 0)  -->
<svg version="1.1" id="Layer_1" xmlns="http://www.w3.org/2000/svg" xmlns:xlink="http://www.w3.org/1999/xlink" x="0px" y="0px"
	 viewBox="0 0 26 23" style="enable-background:new 0 0 26 23;" xml:space="preserve">
<style type="text/css">
	.st0{fill:#00A2A7;}
</style>
<g>
	<g>
		<path class="st0" d="M22.4,3L22.4,3c-1.4-1.4-3.2-2.1-5.1-2.1c-1.5,0-3,0.5-4.3,1.4c-1.2-0.9-2.7-1.4-4.3-1.4C6.8,0.9,5,1.6,3.6,3
			C2.2,4.4,1.5,6.2,1.5,8.1c0,1.9,0.8,3.8,2.1,5.1l8.6,8.6c0.2,0.2,0.5,0.3,0.8,0.3c0.4,0,0.7-0.2,0.8-0.3l8.6-8.6
			c1.4-1.4,2.1-3.2,2.1-5.1C24.5,6.2,23.8,4.4,22.4,3z M20.7,11.6L13,19.3l-7.7-7.7c-0.9-0.9-1.4-2.2-1.4-3.5c0-1.3,0.5-2.5,1.4-3.4
			c0.9-0.9,2.2-1.4,3.4-1.4c1.3,0,2.5,0.5,3.4,1.4C12.4,4.9,12.7,5,13,5c0.3,0,0.6-0.1,0.8-0.3c0.9-0.9,2.2-1.4,3.4-1.4
			c1.3,0,2.5,0.5,3.4,1.4c0.9,0.9,1.4,2.1,1.4,3.4C22.1,9.4,21.6,10.6,20.7,11.6z M7.8,8.1c0-0.7,0.2-1.2,0.7-1.7
			c0.2-0.2,0.4-0.5,0.4-0.8c0-0.3-0.1-0.6-0.4-0.9C8.2,4.5,7.9,4.3,7.6,4.4C7.3,4.4,7,4.5,6.8,4.7C5.9,5.6,5.4,6.8,5.4,8.1
			c0,1.3,0.5,2.5,1.4,3.4c0.2,0.2,0.5,0.3,0.8,0.3c0.3,0,0.6-0.1,0.8-0.3c0.2-0.2,0.4-0.5,0.3-0.9c0-0.3-0.1-0.6-0.4-0.8
			C8,9.4,7.8,8.8,7.8,8.1z"/>
	</g>
</g>
</svg>
