<?xml version="1.0" encoding="utf-8"?>
<!-- Generator: Adobe Illustrator 18.1.0, SVG Export Plug-In . SVG Version: 6.00 Build 0)  -->
<svg version="1.1" id="Layer_1" xmlns="http://www.w3.org/2000/svg" xmlns:xlink="http://www.w3.org/1999/xlink" x="0px" y="0px"
	 width="16px" height="16px" viewBox="8 2 16 16" enable-background="new 8 2 16 16" xml:space="preserve">
<g>
	<path fill="#00A2A7" d="M21.4,9c0.4,0,0.6,0.4,0.6,1s-0.2,1-0.6,1H17v4.3c0,0.4-0.4,0.6-1,0.6c-0.7,0-1-0.2-1-0.6V11h-4.3
		c-0.4,0-0.6-0.4-0.6-1s0.2-1,0.6-1H15V4.6C15,4.2,15.3,4,16,4s1,0.2,1,0.6V9C17,9,21.4,9,21.4,9z"/>
</g>
</svg>
