<?xml version="1.0" encoding="utf-8"?>
<!-- Generator: Adobe Illustrator 18.1.0, SVG Export Plug-In . SVG Version: 6.00 Build 0)  -->
<svg version="1.1" id="Layer_1" xmlns="http://www.w3.org/2000/svg" xmlns:xlink="http://www.w3.org/1999/xlink" x="0px" y="0px"
	 width="40px" height="40px" viewBox="45.5 -9.5 40 40" enable-background="new 45.5 -9.5 40 40" xml:space="preserve">
<g>
	<path fill="#333333" d="M73.2,5.1V1.8h-0.8v3.3H69V6h3.3v3.3h0.8V6h3.3V5.1C76.5,5.1,73.2,5.1,73.2,5.1z M66.5,12.3
		c-0.6-0.4-1.6-1.3-1.6-1.9c0-0.7,0.2-1,1.1-1.7c1-0.8,1.7-1.9,1.7-3.1c0-1.5-0.7-3-1.9-3.4h1.9l1.4-1c0,0-4.5,0-5.9,0
		c-2.7,0-5.2,2-5.2,4.3c0,2.4,1.8,4.3,4.5,4.3c0.2,0,0.4,0,0.6,0c-0.2,0.4-0.3,0.7-0.3,1.1c0,0.7,0.4,1.2,0.8,1.7c-0.4,0-0.7,0-1,0
		c-3.3,0-5.8,2.1-5.8,4.3s2.8,3.5,6.1,3.5c3.8,0,5.8-2.1,5.8-4.3C68.5,14.5,68,13.5,66.5,12.3z M63.3,9.4c-1.5-0.1-3-1.7-3.2-3.7
		s0.8-3.6,2.3-3.5c1.5,0.1,3,1.7,3.2,3.7C65.9,7.8,64.8,9.4,63.3,9.4z M62.7,19.6c-2.3,0-4-1.5-4-3.2s2-3.1,4.3-3.1
		c0.5,0,1,0.1,1.5,0.3c1.3,0.9,2.1,1.4,2.4,2.3c0.1,0.2,0.1,0.4,0.1,0.6C67,18.2,65.9,19.6,62.7,19.6z M65.5-6.5
		c-9.4,0-17,7.6-17,17s7.6,17,17,17s17-7.6,17-17S74.9-6.5,65.5-6.5z M65.5,25.9c-8.5,0-15.4-6.9-15.4-15.4S57-4.9,65.5-4.9
		S80.9,2,80.9,10.5S74,25.9,65.5,25.9z"/>
</g>
</svg>
