<?xml version="1.0" encoding="utf-8"?>
<!-- Generator: Adobe Illustrator 18.1.0, SVG Export Plug-In . SVG Version: 6.00 Build 0)  -->
<svg version="1.1" id="Layer_1" xmlns="http://www.w3.org/2000/svg" xmlns:xlink="http://www.w3.org/1999/xlink" x="0px" y="0px"
	 width="24px" height="20px" viewBox="-287 291 24 20" enable-background="new -287 291 24 20" xml:space="preserve">
<g>
	<path fill="#808080" d="M-277.8,309.2c-0.9,0-1.6-0.3-2.4-1c-0.8-0.7-1-1.5-1-2.4v-9.6c0-0.9,0.3-1.7,1-2.4c0.7-0.8,1.5-1,2.4-1
		h9.6c0.9,0,1.8,0.4,2.4,1c0.7,0.7,1,1.5,1,2.4v9.7c0,0.9-0.3,1.6-1,2.4c-0.7,0.7-1.5,1-2.4,1L-277.8,309.2L-277.8,309.2z
		 M-279.6,305.9c0,0.5,0.2,1,0.6,1.3c0.4,0.3,0.8,0.6,1.3,0.6h9.6c0.5,0,1-0.2,1.3-0.6c0.3-0.4,0.5-0.8,0.5-1.3v-9.7
		c0-0.5-0.2-1-0.5-1.3c-0.3-0.4-0.7-0.7-1.2-0.7h-9.7c-0.2,0-0.4,0-0.7,0.2c-0.1,0-0.6,0.4-0.6,0.4s-0.3,0.4-0.5,0.7
		c-0.1,0.3-0.1,0.5-0.1,0.7V305.9L-279.6,305.9z"/>
</g>
</svg>
