<?xml version="1.0" encoding="utf-8"?>
<!-- Generator: Adobe Illustrator 18.1.0, SVG Export Plug-In . SVG Version: 6.00 Build 0)  -->
<svg version="1.1" id="Layer_1" xmlns="http://www.w3.org/2000/svg" xmlns:xlink="http://www.w3.org/1999/xlink" x="0px" y="0px"
	 width="60px" height="60px" viewBox="-33.4 21 60 60" enable-background="new -33.4 21 60 60" xml:space="preserve">
<path fill="#FFFFFF" d="M14.1,58.9c-0.6,0-1.2-0.5-1.2-1.2c0-0.6,0.5-1.1,1.2-1.1c0.6,0,1.2,0.5,1.2,1.1
	C15.2,58.4,14.7,58.9,14.1,58.9z M11.9,54.3c-1.5,0-2.8-1.3-2.8-2.8s1.3-2.8,2.8-2.8s2.8,1.3,2.8,2.8S13.5,54.3,11.9,54.3z
	 M8.5,62.6c-3.2,1.6-7.4,1.5-11.9,1.5l0,0l0,0l0,0c-4.5,0-8.7,0.1-11.9-1.5c-1.7-0.9-2.2-1.8-1.5-3.1c0.5-1,1.1-2,1.7-3
	c0.6-1,1.6-1.6,3.2-1.8c2.8-0.2,5.7-0.2,8.5-0.3l0,0c2.9,0.1,5.8,0.1,8.5,0.3c1.6,0.1,2.7,0.7,3.2,1.8c0.6,1,1.2,2,1.7,3
	C10.7,60.8,10.2,61.8,8.5,62.6z M-18.7,54.3c-1.5,0-2.8-1.3-2.8-2.8s1.3-2.8,2.8-2.8s2.8,1.3,2.8,2.8S-17.2,54.3-18.7,54.3z
	 M-20.9,58.9c-0.6,0-1.1-0.5-1.1-1.2c0-0.6,0.5-1.1,1.1-1.1c0.6,0,1.2,0.5,1.2,1.1C-19.7,58.4-20.2,58.9-20.9,58.9z M-15.4,35.9
	c0.4-0.8,0.6-1,1.5-1.1c3.5-0.5,6.7-0.7,10.5-0.7l0,0c3.8,0,7,0.2,10.5,0.7c0.9,0.1,1.1,0.4,1.5,1.1c1.4,2.7,2.3,5.1,3.5,8
	c-5.3,0-25.7,0-31,0C-17.7,41-16.8,38.6-15.4,35.9z M19.1,41.6c-0.3-0.7-1.3-1.2-2.8-1.2c-1.9-0.1-2.6,1.9-1.3,2.9
	c0,0.5-0.1,0.9-0.5,1.1c-0.1-0.1-0.2-0.3-0.3-0.4c-0.2-0.5-0.5-1-0.7-1.6c-1-2.6-2.1-5.1-3.2-7.7c-0.3-0.9-1.2-1.6-2.1-1.8
	C5,32.2,0.9,32-3.4,32l0,0l0,0c-4.3,0-8.4,0.2-11.6,0.9c-0.9,0.2-1.8,0.9-2.1,1.8c-1.2,2.7-2.2,5.1-3.2,7.7
	c-0.3,0.6-0.5,1.1-0.7,1.6c-0.1,0.1-0.2,0.3-0.3,0.4c-0.4-0.2-0.5-0.6-0.5-1.1c1.3-1,0.6-3-1.3-2.9c-1.5,0.1-2.5,0.5-2.8,1.2
	c-0.1,0.2-0.1,0.3-0.1,0.5c0.1,1,1,1.4,2.1,1.6c0.5,0.1,0.6,0,0.8,0.5c0.3,0.5,0.6,1.5,0.9,2.1c-0.2,0.5-0.3,1.1-0.4,1.6
	c-0.3,1.1-0.9,2-1.4,2.9c-0.6,1.2-0.8,2.3-0.9,3.6c-0.1,1.5,0,3.1,0.3,5c-0.3,3.2-0.1,6.2,0.2,9.1c0.1,0.7,0.4,1.2,1.1,1.5h2.3
	c0.6,0,1.2,0.1,1.7-0.3c0.9-0.7,0.6-2.3,0.7-3.3h30.5c0,1-0.2,2.5,0.7,3.3c0.5,0.4,1,0.3,1.7,0.3h2.3c0.6-0.3,1-0.8,1.1-1.5
	c0.3-2.9,0.5-5.9,0.2-9.1c0.3-1.8,0.3-3.5,0.3-5c-0.1-1.4-0.3-2.4-0.9-3.6c-0.5-0.9-1-1.8-1.4-2.9c-0.1-0.5-0.2-1.1-0.4-1.6
	c0.3-0.6,0.6-1.6,0.9-2.1c0.2-0.5,0.4-0.4,0.8-0.5c1.1-0.1,2-0.5,2.1-1.6C19.2,41.9,19.2,41.8,19.1,41.6z"/>
</svg>
