<?xml version="1.0" encoding="utf-8"?>
<!-- Generator: Adobe Illustrator 18.1.0, SVG Export Plug-In . SVG Version: 6.00 Build 0)  -->
<svg version="1.1" id="Layer_1" xmlns="http://www.w3.org/2000/svg" xmlns:xlink="http://www.w3.org/1999/xlink" x="0px" y="0px"
	 width="24px" height="24px" viewBox="-37 39 24 24" enable-background="new -37 39 24 24" xml:space="preserve">
<g>
	<path d="M-34.4,52.5c0-0.4,0.1-0.6,0.4-0.9c0.3-0.3,0.6-0.4,1-0.4s0.7,0.1,1,0.4l5.7,4.8V41.8c0-0.4,0.1-0.6,0.4-0.9
		c0.3-0.2,0.6-0.4,1-0.4s0.7,0.1,1,0.4s0.4,0.5,0.4,0.9v14.7l5.6-4.8c0.3-0.2,0.6-0.4,1-0.4s0.7,0.1,1,0.4c0.3,0.2,0.4,0.5,0.4,0.9
		c0,0.4-0.1,0.6-0.4,0.9l-9.1,7.9l-9.1-7.9C-34.3,53.2-34.4,53-34.4,52.5z"/>
</g>
</svg>
