<?xml version="1.0" encoding="utf-8"?>
<!-- Generator: Adobe Illustrator 18.1.0, SVG Export Plug-In . SVG Version: 6.00 Build 0)  -->
<svg version="1.1" id="Layer_1" xmlns="http://www.w3.org/2000/svg" xmlns:xlink="http://www.w3.org/1999/xlink" x="0px" y="0px"
	 width="40px" height="60px" viewBox="-32.8 20.5 40 60" enable-background="new -32.8 20.5 40 60" xml:space="preserve">
<g>
	<g>
		<path fill="#FFFFFF" d="M-28.4,39.1c1.6,0.8,4.9,0.8,4.9,0.8S-24,36.6-26,35c-1.9-1.6-5-0.8-5-0.8S-30.7,38-28.4,39.1z M5.3,48.6
			c0-6.6-2.5-4.9-2.5-9.8c0.7,0,1.2-0.6,1.2-1.2c0-0.7-0.5-1.2-1.2-1.2h-4.9c-0.7,0-1.2,0.6-1.2,1.2c0,0.7,0.6,1.2,1.2,1.2
			c0,4.9-2.6,3.3-2.6,9.8H5.3z M-18.1,43.8c-1.4-1.5-3.3-2.5-5.6-2.5c-4.1,0-7.4,3.3-7.4,7.4h14.7l0,0h9c-1.6-1.6-3.3-2.8-4.1-3.3
			c-1-0.6-0.3-1.5,0.2-1.4c1.8,0.5,4.1,2.7,4.1,2.7c0.7-3.5-3.3-7-5-8c-1.4-0.9-0.8-1.6-0.8-1.6c1.1-0.8,4.1,2.5,4.1,2.5
			c-0.8-6.6-3.3-10.7-6.5-11.5c-4.1-0.9-6,3.4-4.9,6.6C-19.6,37-18.8,40.6-18.1,43.8z M-31,49.9l4.4,20.8c0.3,1.3,1.5,2.3,2.9,2.3
			h21.5c1.4,0,2.6-1,2.9-2.4l4.5-20.8H-31V49.9z M-12.6,65.5c-0.1,0-0.2,0.1-0.2,0.1s0,0-0.1,0s-0.2,0-0.3-0.1l0,0
			c-0.8-0.4-5.2-2.9-4.9-5.8c0.1-0.7,0.3-1.1,0.8-1.6c0.6-0.6,1.3-0.9,2.1-0.9c1.1,0,1.9,0.7,2.4,1.2c0.5-0.5,1.3-1.2,2.4-1.2
			c0.7,0,1.4,0.3,2.1,0.9c0.5,0.5,0.7,0.9,0.8,1.6C-7.3,62.6-11.8,65.1-12.6,65.5z"/>
	</g>
</g>
</svg>
