<?xml version="1.0" encoding="utf-8"?>
<!-- Generator: Adobe Illustrator 18.1.0, SVG Export Plug-In . SVG Version: 6.00 Build 0)  -->
<svg version="1.1" id="Layer_1" xmlns="http://www.w3.org/2000/svg" xmlns:xlink="http://www.w3.org/1999/xlink" x="0px" y="0px"
	 width="17px" height="13px" viewBox="-1 4 17 13" enable-background="new -1 4 17 13" xml:space="preserve">
<g>
	<path fill="#FFFFFF" d="M0.1,11.9c0-0.4,0.1-0.7,0.4-1s0.6-0.4,1-0.4s0.7,0.1,1,0.4l3,2.9l7.1-7c0.3-0.3,0.6-0.4,1-0.4
		s0.7,0.1,1,0.4s0.4,0.6,0.4,0.9s-0.1,0.7-0.4,0.9l-8.1,7.9C6.1,16.9,5.8,17,5.4,17s-0.7-0.1-1-0.4l-3.9-3.8
		C0.2,12.5,0.1,12.2,0.1,11.9z"/>
</g>
</svg>
