<?xml version="1.0" encoding="utf-8"?>
<!-- Generator: Adobe Illustrator 18.1.0, SVG Export Plug-In . SVG Version: 6.00 Build 0)  -->
<svg version="1.1" id="Layer_1" xmlns="http://www.w3.org/2000/svg" xmlns:xlink="http://www.w3.org/1999/xlink" x="0px" y="0px"
	 width="60px" height="60px" viewBox="32 -20 60 60" enable-background="new 32 -20 60 60" xml:space="preserve">
<g>
	<path fill="#FFFFFF" d="M62-15C48.2-15,37-3.7,37,10c0,13.8,11.3,25,25,25c13.8,0,25-11.2,25-25C86.9-3.8,75.8-15,62-15z M62,32.8
		c-12.5,0-22.7-10.2-22.7-22.8c0-12.5,10.2-22.8,22.7-22.8c12.5,0,22.7,10.2,22.7,22.8C84.7,22.5,74.4,32.8,62,32.8z M70.8-2H53.2
		c-1.6,0-3.1,1.5-3.1,3v17.8c0,1.7,1.3,3,3.1,3h17.7c1.6,0,3.1-1.5,3.1-3V1C73.9-0.6,72.5-2,70.8-2z M66.4,1.8c0-0.6,0.5-1.1,1-1.1
		H70c0.6,0,1,0.5,1,1.1v2.5c0,0.6-0.5,1.1-1,1.1h-2.6c-0.6,0-1-0.5-1-1.1V1.8z M62,5.3c2.6,0,4.8,2,4.8,4.6c0,2.5-2.1,4.6-4.8,4.6
		c-2.6,0-4.8-2-4.8-4.6C57.2,7.4,59.4,5.3,62,5.3z M71.2,18.2c0,0.5-0.4,0.9-1,0.9H53.7c-0.5,0-1-0.4-1-0.9V8.1h2.1
		c-0.2,0.6-0.3,1.3-0.3,2c0,4,3.3,7.2,7.4,7.2s7.4-3.3,7.4-7.2c0-0.7-0.1-1.5-0.3-2h2.1L71.2,18.2L71.2,18.2z"/>
</g>
</svg>
