<?xml version="1.0" encoding="utf-8"?>
<!-- Generator: Adobe Illustrator 18.1.0, SVG Export Plug-In . SVG Version: 6.00 Build 0)  -->
<svg version="1.1" id="Layer_1" xmlns="http://www.w3.org/2000/svg" xmlns:xlink="http://www.w3.org/1999/xlink" x="0px" y="0px"
	 width="40px" height="40px" viewBox="42 -10 40 40" enable-background="new 42 -10 40 40" xml:space="preserve">
<g>
	<g>
		<path fill="#333333" d="M63.3,4.7c0-1,0.1-1.5,1.5-1.5h1.9v-3.8h-3c-3.7,0-5,1.9-5,5v2.3h-2.3v3.8h2.3v11h4.6v-11h3l0.4-3.8h-3.5
			V4.7z M62-7c-9.4,0-17,7.6-17,17s7.6,17,17,17s17-7.6,17-17S71.4-7,62-7z M62,25.4c-8.5,0-15.4-6.9-15.4-15.4S53.5-5.4,62-5.4
			S77.4,1.5,77.4,10S70.5,25.4,62,25.4z"/>
	</g>
</g>
</svg>
