<?xml version="1.0" encoding="utf-8"?>
<!-- Generator: Adobe Illustrator 18.1.0, SVG Export Plug-In . SVG Version: 6.00 Build 0)  -->
<svg version="1.1" id="Layer_1" xmlns="http://www.w3.org/2000/svg" xmlns:xlink="http://www.w3.org/1999/xlink" x="0px" y="0px"
	 width="60px" height="60px" viewBox="-30.7 21.4 60 60" enable-background="new -30.7 21.4 60 60" xml:space="preserve">
<g>
	<path fill="#CCCCCC" d="M22,61.2c-3.9-9.1-12.8-15-22.7-15c-11.6,0.1-21.7,8.3-24.2,19.6c-0.3,1.5,0,3.1,1,4.3s2.4,1.9,4,1.9h38.3
		c1.6,0,3-0.7,4-1.9s1.4-2.8,1-4.3C23.2,64.2,22.7,62.7,22,61.2z M-0.7,65.3c-3.4,0-6.2-2.8-6.2-6.2s2.8-6.2,6.2-6.2
		s6.2,2.8,6.2,6.2C5.5,62.6,2.7,65.3-0.7,65.3z M-19.8,46.8c1,0,1.9-0.3,2.8-0.8c4.9-3.2,10.5-4.9,16.3-4.9s11.5,1.7,16.3,4.9
		c2.4,1.6,5.6,0.9,7.1-1.5c1.6-2.4,0.9-5.6-1.5-7.1c-6.5-4.3-14.1-6.6-21.9-6.6s-15.4,2.3-22,6.5c-2.4,1.6-3,4.8-1.5,7.1
		C-23.2,46-21.5,46.8-19.8,46.8z"/>
</g>
</svg>
