<?xml version="1.0" encoding="utf-8"?>
<!-- Generator: Adobe Illustrator 18.1.0, SVG Export Plug-In . SVG Version: 6.00 Build 0)  -->
<svg version="1.1" id="Layer_1" xmlns="http://www.w3.org/2000/svg" xmlns:xlink="http://www.w3.org/1999/xlink" x="0px" y="0px"
	 width="32px" height="38px" viewBox="-33 32 32 38" enable-background="new -33 32 32 38" xml:space="preserve">
<path fill="#333333" d="M-6.7,37.7c-5.7-5.6-14.8-5.6-20.5,0.1s-5.7,14.9,0,20.5L-17,68.5l10.3-10.3C-1.1,52.6-1,43.4-6.7,37.7z
	 M-16.5,56.6c-0.1,0.1-0.3,0.1-0.4,0.2H-17c-0.2,0-0.4-0.1-0.5-0.2l0,0c-1.4-0.7-8.9-5-8.3-9.8c0.1-1.2,0.5-1.9,1.3-2.7
	c1.1-1,2.2-1.6,3.5-1.6c1.8,0,3.2,1.2,4.1,2c0.8-0.9,2.2-2,4.1-2c1.2,0,2.4,0.5,3.5,1.6c0.8,0.8,1.2,1.5,1.3,2.7
	C-7.5,51.7-15.2,56-16.5,56.6z"/>
</svg>
