<?xml version="1.0" encoding="utf-8"?>
<!-- Generator: Adobe Illustrator 18.1.0, SVG Export Plug-In . SVG Version: 6.00 Build 0)  -->
<svg version="1.1" id="Layer_1" xmlns="http://www.w3.org/2000/svg" xmlns:xlink="http://www.w3.org/1999/xlink" x="0px" y="0px"
	 width="18px" height="14px" viewBox="4.5 3.5 18 14" enable-background="new 4.5 3.5 18 14" xml:space="preserve">
<g>
	<path fill="#FFFFFF" d="M8.5,10.4c0-0.3,0.1-0.5,0.2-0.7s0.4-0.3,0.6-0.3s0.5,0.1,0.7,0.3l2,2l4.8-4.9c0.2-0.2,0.4-0.3,0.6-0.3
		s0.5,0.1,0.6,0.3c0.2,0.2,0.4,0.5,0.4,0.7c0,0.3-0.1,0.5-0.2,0.7l-5.5,5.6c-0.2,0.2-0.4,0.3-0.7,0.3c-0.2,0-0.5-0.1-0.6-0.3L8.8,11
		C8.6,10.8,8.5,10.6,8.5,10.4z"/>
</g>
</svg>
