<?xml version="1.0" encoding="utf-8"?>
<!-- Generator: Adobe Illustrator 18.1.0, SVG Export Plug-In . SVG Version: 6.00 Build 0)  -->
<svg version="1.1" id="Layer_1" xmlns="http://www.w3.org/2000/svg" xmlns:xlink="http://www.w3.org/1999/xlink" x="0px" y="0px"
	 width="36px" height="32px" viewBox="14 -6.1 36 32" enable-background="new 14 -6.1 36 32" xml:space="preserve">
<g>
	<path fill="#FFFFFF" d="M47,12.2H21.7V-1.2c0-2.3,1.1-2.5,1.5-2.6c1-0.2,1.7,0.7,1.9,1.3c-1,0.9-1.3,2.3-0.6,3.5
		c0.1,0.2,0.3,0.3,0.6,0.3c0.1,0,0.2,0,0.3-0.1l4.1-2.1c0.2-0.1,0.2-0.2,0.3-0.4c0.1-0.2,0-0.3-0.1-0.5c-0.5-0.9-1.5-1.6-2.7-1.6
		c-0.3,0-0.6,0.1-0.8,0.2c-0.5-1.2-1.7-2.2-3.2-2c-1.8,0.2-2.7,1.6-2.7,3.9v13.5h-3.3c-2.8,0-2.8,3.8,0,3.7c0.4,0,0.6,0.2,0.7,0.8
		c0.2,1.5,0.9,3.5,2.6,5.1c0.4,0.4,0.2,0.8,0.2,0.8L19.9,24c-0.2,0.3,0,0.7,0.3,0.9c0.1,0.1,0.2,0.1,0.3,0.1c0.2,0,0.5-0.2,0.6-0.4
		l0.6-1.2c0,0,0.2-0.5,0.6-0.3c0.7,0.3,1.6,0.4,2.7,0.4h14c0.7,0,1.5-0.2,2.1-0.3c0.6-0.2,0.8,0.5,0.8,0.5l0.4,0.9
		c0.1,0.2,0.3,0.4,0.6,0.4c0.1,0,0.2,0,0.3-0.1c0.3-0.2,0.5-0.5,0.3-0.9l-0.6-1.2c0,0-0.2-0.3,0.2-0.7c0.2-0.2,0.5-0.4,0.6-0.6
		c1.5-1.5,2.1-3.4,2.4-4.7c0.1-0.5,0.2-0.6,0.6-0.6C49.6,16,49.7,12.2,47,12.2z M43.5,16.3c0,0.2-0.9,3-3.8,4.6
		C39.5,21,39.4,21,39.3,21c-0.2,0-0.4-0.2-0.5-0.3c-0.2-0.3-0.1-0.7,0.2-0.9c2.4-1.3,3.2-3.8,3.2-3.8c0.1-0.3,0.5-0.5,0.8-0.5
		C43.4,15.6,43.6,16,43.5,16.3z M29.7,4.9c-0.3,0.5-0.4,1-0.3,1.5c0.2,0.5,0.5,0.9,0.7,1.3c0.6,0.8,1.4,1.6,0.6,2.6
		c-0.2,0.3,0.2,0.7,0.4,0.4c0.4-0.5,0.6-0.9,0.5-1.6c-0.1-0.5-0.4-1-0.7-1.4s-0.6-0.9-0.9-1.3c-0.2-0.5-0.2-0.9,0.2-1.3
		C30.5,4.9,29.9,4.6,29.7,4.9z M34.9,7.8c0.6,0.8,1.4,1.6,0.6,2.6c-0.2,0.3,0.2,0.7,0.4,0.4c0.4-0.5,0.6-0.9,0.5-1.6
		c-0.1-0.5-0.4-1-0.7-1.4s-0.6-0.9-0.9-1.3C34.6,6,34.7,5.5,35,5.1c0.2-0.3-0.3-0.6-0.5-0.3c-0.3,0.5-0.4,1-0.3,1.5
		C34.3,6.9,34.6,7.4,34.9,7.8z M32.6,7.8c0.6,0.8,1.4,1.6,0.6,2.6c-0.2,0.3,0.2,0.7,0.4,0.4c0.4-0.5,0.6-0.9,0.5-1.6
		c-0.1-0.5-0.4-1-0.7-1.4s-0.6-0.9-0.9-1.3c-0.2-0.5-0.2-0.9,0.2-1.3c0.2-0.3-0.3-0.6-0.5-0.3c-0.3,0.5-0.4,1-0.3,1.5
		C31.9,6.9,32.2,7.4,32.6,7.8z"/>
</g>
</svg>
