<?xml version="1.0" encoding="utf-8"?>
<!-- Generator: Adobe Illustrator 18.1.0, SVG Export Plug-In . SVG Version: 6.00 Build 0)  -->
<svg version="1.1" id="Layer_1" xmlns="http://www.w3.org/2000/svg" xmlns:xlink="http://www.w3.org/1999/xlink" x="0px" y="0px"
	 width="24px" height="20px" viewBox="2 0 24 20" enable-background="new 2 0 24 20" xml:space="preserve">
<g>
	<path fill="#00A2A7" d="M7.6,18.2c-0.9,0-1.7-0.3-2.4-1s-1-1.5-1-2.4V5.2c0-0.9,0.3-1.7,1-2.4s1.5-1,2.4-1h9.7
		c0.5,0,0.9,0.1,1.4,0.3c0.1,0.1,0.2,0.1,0.2,0.3s0,0.2-0.1,0.3l-0.6,0.6c-0.1,0.1-0.2,0.1-0.3,0.1h-0.1c-0.2,0-0.4-0.1-0.5-0.1H7.6
		c-0.5,0-1,0.2-1.3,0.5C5.9,4.2,5.7,4.7,5.7,5.2v9.6c0,0.5,0.2,1,0.6,1.3c0.4,0.3,0.8,0.6,1.3,0.6h9.7c0.5,0,1-0.2,1.3-0.6
		c0.3-0.4,0.5-0.8,0.5-1.3v-3c0-0.1,0-0.2,0.1-0.3l0.8-0.7c0.1,0,0.2-0.1,0.3-0.1s0.2,0,0.3,0.1c0.1,0.1,0.1,0.2,0.1,0.3v3.7
		c0,0.9-0.3,1.7-1,2.4s-1.5,1-2.4,1H7.6L7.6,18.2z M7.2,9.2c0-0.2,0.1-0.5,0.3-0.7l1.3-1.3C9,7.1,9.2,7,9.4,7c0.3,0,0.5,0.1,0.7,0.3
		l3.1,3l7.6-7.6c0.2-0.2,0.4-0.3,0.7-0.3c0.3,0,0.5,0.1,0.7,0.3L23.5,4c0.2,0.2,0.3,0.4,0.3,0.7c0,0.3-0.1,0.5-0.3,0.7L14,14.9
		c-0.2,0.2-0.4,0.3-0.7,0.3s-0.5-0.1-0.7-0.3l-5-5C7.3,9.8,7.2,9.5,7.2,9.2z"/>
</g>
</svg>
