<?xml version="1.0" encoding="utf-8"?>
<!-- Generator: Adobe Illustrator 18.1.0, SVG Export Plug-In . SVG Version: 6.00 Build 0)  -->
<svg version="1.1" id="Layer_1" xmlns="http://www.w3.org/2000/svg" xmlns:xlink="http://www.w3.org/1999/xlink" x="0px" y="0px"
	 width="18px" height="18px" viewBox="-40 42 18 18" enable-background="new -40 42 18 18" xml:space="preserve">
<g>
	<path fill="#9F9E9E" d="M-31,43.5c1.4,0,2.6,0.3,3.8,1c1.2,0.7,2.1,1.6,2.7,2.7c0.7,1.1,1,2.4,1,3.8s-0.3,2.6-1,3.8
		c-0.7,1.1-1.6,2.1-2.7,2.7c-1.2,0.7-2.4,1-3.8,1c-1.4,0-2.6-0.3-3.8-1s-2.1-1.6-2.7-2.7c-0.6-1.1-1-2.4-1-3.8s0.3-2.6,1-3.8
		c0.7-1.1,1.6-2.1,2.7-2.7C-33.7,43.9-32.4,43.5-31,43.5z M-28.3,48.6C-28.3,48.6-28.4,48.6-28.3,48.6c-0.1,0.1-0.2,0.2-0.2,0.2
		s0,0,0-0.1c0,0,0-0.1,0.1-0.1C-28.4,48.6-28.4,48.6-28.3,48.6c-0.1-0.1,0-0.1,0.1-0.2c0.1,0,0.3-0.1,0.5-0.1c0.2-0.1,0.4,0,0.5,0.1
		c0,0,0-0.1,0.1-0.1c0.1-0.1,0.1-0.1,0.1-0.1h0.1c0.1,0,0.1,0,0.2-0.1v-0.2c-0.1,0-0.1,0-0.2-0.1c0-0.1-0.1-0.1-0.1-0.2
		c0,0,0,0.1-0.1,0.1v-0.1h-0.1c-0.1,0-0.1,0-0.1,0c-0.1,0-0.1-0.1-0.1-0.1s-0.1-0.1-0.1-0.2c0-0.1,0-0.1,0-0.1s0-0.1-0.1-0.1
		l-0.1-0.1l-0.1-0.2c0,0,0,0-0.1,0c0,0,0,0-0.1,0.1c0,0,0,0.1-0.1,0.1c0,0,0,0,0,0.1c0,0,0,0-0.1,0l0,0c0,0,0,0-0.1,0h-0.1
		c0,0,0,0-0.1,0h-0.1c0.1,0,0.1-0.1,0-0.1s-0.1,0-0.2,0c0.1,0,0.1-0.1,0.1-0.1s0-0.1-0.1-0.1h0.1c0,0,0-0.1-0.1-0.1
		c0,0-0.1-0.1-0.2-0.1s-0.1,0-0.1-0.1c-0.1,0-0.2-0.1-0.3-0.1c-0.2,0-0.3,0-0.3,0l-0.1,0.1v0.1v0.1c0,0,0,0.1-0.1,0.1l-0.1,0.1
		c0,0,0,0.1,0.1,0.2c0.1,0.1,0.1,0.1,0.1,0.2c0,0-0.1,0.1-0.2,0.2l-0.2,0.1c0,0.1,0,0.1,0,0.2c0,0.1,0.1,0.1,0.1,0.2l0,0
		c0,0,0,0,0,0.1c0,0,0,0-0.1,0c0,0,0,0-0.1,0l0,0c-0.1,0-0.2,0-0.2-0.1c0.5,0,0.5-0.1,0.4-0.2c0-0.2-0.1-0.3-0.2-0.3
		c-0.2,0-0.3,0-0.3,0c0-0.1-0.2-0.2-0.4-0.3c-0.2-0.1-0.4-0.1-0.6,0c0,0,0,0,0-0.1c0.1-0.1,0-0.1-0.1-0.1c0,0,0-0.1,0-0.2
		c0-0.1,0-0.1,0-0.1c0-0.1,0.1-0.2,0.1-0.2l0.2-0.2v-0.1c0.2,0,0.4,0,0.5-0.1c0,0,0.1-0.1,0.1-0.2l0.1-0.2c0.1,0,0.1-0.1,0.1-0.1
		s0.1,0,0.1,0.1s0.1,0.1,0.1,0.1c0.1,0,0.1,0,0.1-0.1s0-0.1-0.1-0.2c0.1,0,0.1-0.1,0-0.2l-0.1-0.1c-0.1,0-0.2,0-0.3,0.1
		c0,0,0,0,0,0.1c0,0,0,0-0.1,0.1l0.2,0.1c0,0-0.1,0-0.2-0.1l0,0c0-0.1-0.1-0.1-0.1-0.1c0-0.1-0.1,0-0.1,0.1c0-0.1,0-0.1-0.1-0.2
		c-0.1,0-0.2-0.1-0.2-0.1c0,0,0-0.1-0.1-0.2c0,0-0.1-0.1-0.2-0.1c-0.1,0-0.2,0-0.3,0.1v0.1c0,0,0,0.1,0.1,0.1c0,0,0.1,0,0.1,0.1h0.1
		h0.1c0.1,0.1,0.1,0.1,0.1,0.1s0,0-0.1,0h-0.1c0,0,0,0-0.1,0v0.1c0,0.1,0,0.1,0,0.1s-0.1-0.1-0.1-0.2c-0.1,0.2-0.1,0.1-0.1,0.1
		c0,0.1,0,0.1-0.2,0.1h-0.1c0,0-0.1,0-0.2,0s-0.1,0-0.2,0c-0.1,0-0.1,0-0.1-0.1c0,0,0-0.1,0-0.2l0,0l-0.2-0.2
		c-0.3,0.1-0.6,0.2-0.9,0.4h0.1l0.1-0.1c0.1,0,0.1,0,0.1-0.1c0.2-0.1,0.4-0.1,0.4-0.1l0.1-0.1l0.2,0.2c0,0-0.1,0-0.3,0
		c-0.1,0-0.2,0.1-0.2,0.1c0,0.1,0.1,0.1,0,0.2l-0.1,0.1l-0.1-0.1c0,0-0.1,0-0.1-0.1c-0.1,0-0.2,0-0.2,0c-1,0.6-1.8,1.3-2.4,2.2
		l0.1,0.1c0,0,0,0,0.1,0.1V48c0,0,0,0,0.1,0s0.1,0,0,0.1c0,0,0.2,0.1,0.4,0.3c0.1,0.1,0.2,0.2,0.2,0.2c0,0.1,0,0.1-0.1,0.2v-0.1
		c0,0-0.1-0.1-0.1,0c0,0,0,0.1,0,0.2c0,0.1,0.1,0.1,0.1,0.1s-0.1,0.1-0.1,0.2v0.3c0,0.1,0,0.2,0,0.2l0,0c0,0.1,0,0.2,0.1,0.3
		c0.1,0.2,0.1,0.2,0.2,0.2c-0.1,0,0,0.2,0.2,0.4l0.1,0.1l0.1,0.1l0.2,0.1l0.1,0.1c0,0,0,0.1,0.1,0.2c0,0.1,0.1,0.2,0.1,0.2
		s0,0.1,0.1,0.2c0.1,0.1,0.1,0.2,0.1,0.2l0,0l0,0c0,0,0.1,0.1,0.2,0.1c0.1,0,0.1,0.1,0.1,0.1v0.1v0.1c0,0,0,0,0.1,0
		c0-0.1-0.1-0.3-0.2-0.6c-0.2,0-0.3-0.1-0.3-0.1s0-0.1-0.1-0.1c0-0.1,0-0.1,0-0.1h0.1h0.1l0.1,0.1c0,0,0,0.1,0,0.2
		c0,0.1,0.1,0.1,0.1,0.2c0.1,0,0.1,0.1,0.2,0.2c0-0.1,0.1,0,0.1,0s0.1,0.1,0.1,0.2c0,0.1,0,0.1,0,0.1c0.1,0,0.1,0,0.2,0.1
		c0.1,0.1,0.1,0.1,0.2,0.2c0,0.1,0.1,0.2,0.1,0.3c0,0.1,0,0.2,0,0.2s0,0.1,0.1,0.1l0.1,0.1l0.2,0.1l0.1,0.1l0.4,0.2
		c0.1,0,0.1,0,0.2,0h0.1h0.1c0.1,0,0.2,0,0.3,0.1c0.1,0.1,0.1,0.2,0.2,0.2c0.2,0.1,0.4,0.2,0.5,0.1c0,0,0,0,0,0.1l0.1,0.2
		c0,0.1,0.1,0.1,0.1,0.1l0.1,0.1c0,0,0.1,0.1,0.2,0.1c0.1,0.1,0.1,0.1,0.2,0.1l0.1-0.1c0,0.1,0,0.1,0.1,0.2c-0.1,0.1,0,0.1,0,0.1
		c0.1,0,0.1-0.1,0.1-0.3c-0.2,0.1-0.4,0-0.5-0.2v-0.1v-0.1c0,0,0,0,0-0.1v-0.1l0,0c0.1,0,0.1,0,0.1,0V54c0-0.1,0-0.1,0-0.1
		s0-0.1-0.1-0.2s-0.1-0.1-0.1-0.1c0,0.1-0.1,0.1-0.2,0.1c-0.1,0-0.1,0-0.2-0.1c0,0,0,0,0,0.1c0,0,0,0,0,0.1h-0.1c0,0,0-0.1,0-0.2
		s0-0.2,0-0.2l0.2-0.4c0-0.1,0-0.1,0-0.1l-0.1-0.1c0,0-0.1,0-0.2,0c-0.1,0-0.2,0.1-0.3,0.2v0.1v0.1c0,0,0,0-0.1,0.1c0,0-0.1,0-0.2,0
		s-0.2,0-0.2-0.1c-0.1,0-0.2-0.1-0.2-0.2c-0.1-0.1-0.1-0.3-0.1-0.3c0-0.1,0-0.2,0-0.3v-0.2c0-0.1,0-0.1-0.1-0.2c0,0,0.1,0,0.1-0.1
		l0.1-0.2c0,0,0,0,0.1,0l0,0c0,0,0,0,0.1,0l0,0l0,0l0,0c0,0,0.1,0,0.3,0c0.1,0,0.2,0,0.3,0c0.1,0.1,0.2,0.1,0.2,0v-0.1
		c0-0.1,0-0.1,0-0.1c0,0.2,0.1,0.2,0.3,0.1c0,0,0.1,0,0.2,0.1c0.1,0,0.1,0,0.2,0c0,0,0,0,0.1,0l0.1,0.1c0,0,0,0,0.1,0
		c0,0,0.1,0,0.1-0.1c0.1,0.1,0.1,0.2,0.1,0.2c-0.3,0.1-0.2,0.2-0.2,0.3h0.1c0,0,0,0,0.1-0.1V52v-0.1v-0.1v-0.3
		c-0.1,0-0.2-0.1-0.2-0.1c0-0.1,0-0.1,0-0.2c0,0,0-0.1,0.1-0.2c0,0,0,0,0.1,0c0,0,0.1,0,0.2-0.1l0.1-0.1c0.1-0.1,0.2-0.2,0.1-0.3
		c0,0,0.1,0,0.1-0.1l0,0h-0.1l0,0c0.1,0,0.1-0.1,0-0.1l0.1-0.1c0-0.1,0-0.1,0.1-0.1c0.1,0.1,0.1,0.1,0.2,0c0-0.1,0.1-0.1,0-0.2
		c0,0,0.1-0.1,0.2-0.1c0.1,0,0.2-0.1,0.2-0.1h0.1v-0.1c0-0.1,0-0.1,0-0.1l0.1-0.1c0.1,0,0.1,0,0.1,0l0.2-0.1l0,0
		c0.1,0,0.2,0,0.3-0.1c0.1-0.1,0-0.1-0.1-0.2v-0.1c0,0-0.1,0-0.1-0.1h0.1c0.1,0,0.1,0,0.1,0c0.1-0.1,0.1-0.1-0.1-0.2
		C-28,48.4-28.2,48.5-28.3,48.6z M-29.9,57.2c1.3-0.2,2.5-0.9,3.4-1.9h-0.1c-0.1,0-0.1,0-0.1,0l-0.3-0.2V55l-0.1-0.1l-0.4-0.3
		c0,0,0,0-0.1,0h-0.1h-0.1l0,0c0,0,0,0-0.1,0l-0.1,0.1l0,0c-0.1-0.1-0.3-0.2-0.3-0.2s-0.1,0-0.1-0.1l-0.1-0.1c0,0,0,0-0.1,0
		c-0.1,0-0.1,0-0.1,0.1l-0.1,0.1v0.1c0,0,0-0.1,0-0.2c0-0.1,0.1-0.1,0-0.2h-0.1c-0.1,0-0.1,0-0.1,0l0,0.3c-0.1,0-0.1,0.1-0.1,0.1
		s0,0-0.1,0.1c-0.1,0-0.1,0.1-0.1,0.1s0,0.1-0.1,0.1V55l-0.1-0.1c-0.1,0-0.1,0-0.1-0.1c0,0.1,0,0.2,0,0.3c0,0.2,0,0.3,0.1,0.4
		c0,0.2,0,0.3-0.1,0.5c-0.2,0.2-0.3,0.3-0.3,0.4s0,0.2,0.1,0.2c0,0,0,0.1-0.1,0.2C-30,56.9-30,57-30,57
		C-29.9,57-29.9,57.1-29.9,57.2z"/>
</g>
</svg>
