<?xml version="1.0" encoding="utf-8"?>
<!-- Generator: Adobe Illustrator 18.1.0, SVG Export Plug-In . SVG Version: 6.00 Build 0)  -->
<svg version="1.1" id="Layer_1" xmlns="http://www.w3.org/2000/svg" xmlns:xlink="http://www.w3.org/1999/xlink" x="0px" y="0px"
	 width="60px" height="60px" viewBox="35.5 -19.5 60 60" enable-background="new 35.5 -19.5 60 60" xml:space="preserve">
<g>
	<path fill="#FFFFFF" d="M76.8,2.6v-4.9h-1.2v4.9h-4.9v1.2h4.9v4.9h1.2V3.8h4.9V2.6H76.8z M66.9,13.2c-0.8-0.6-2.3-1.9-2.3-2.7
		c0-0.9,0.3-1.4,1.7-2.5c1.4-1.1,2.5-2.7,2.5-4.6c0-2.2-1-4.4-2.8-5.1h2.8l2-1.4c0,0-6.6,0-8.7,0c-3.9,0-7.6,3-7.6,6.4
		c0,3.5,2.7,6.4,6.7,6.4c0.3,0,0.5,0,0.8,0c-0.3,0.5-0.4,1.1-0.4,1.6c0,1,0.5,1.8,1.2,2.4c-0.5,0-1,0-1.5,0c-4.9,0-8.6,3.1-8.6,6.3
		s4.1,5.1,9,5.1c5.5,0,8.6-3.1,8.6-6.3C70,16.4,69.3,14.8,66.9,13.2z M62.3,8.8c-2.3-0.1-4.4-2.5-4.8-5.5s1.1-5.2,3.4-5.2
		c2.3,0.1,4.4,2.4,4.8,5.4C66,6.5,64.5,8.9,62.3,8.8z M61.4,23.8c-3.4,0-5.8-2.1-5.8-4.7c0-2.5,3-4.6,6.4-4.6c0.8,0,1.5,0.1,2.2,0.4
		c1.8,1.3,3.1,2,3.5,3.4c0.1,0.3,0.1,0.6,0.1,0.9C67.8,21.8,66.1,23.8,61.4,23.8z M65.5-14.5c-13.8,0-25,11.2-25,25s11.2,25,25,25
		s25-11.2,25-25S79.3-14.5,65.5-14.5z M65.5,33.2C53,33.2,42.9,23,42.9,10.5s10.1-22.7,22.6-22.7C78-12.2,88.1-2,88.1,10.5
		S78,33.2,65.5,33.2z"/>
</g>
</svg>
