<?xml version="1.0" encoding="utf-8"?>
<!-- Generator: Adobe Illustrator 18.1.0, SVG Export Plug-In . SVG Version: 6.00 Build 0)  -->
<svg version="1.1" id="Layer_1" xmlns="http://www.w3.org/2000/svg" xmlns:xlink="http://www.w3.org/1999/xlink" x="0px" y="0px"
	 width="24px" height="24px" viewBox="10 -2 24 24" enable-background="new 10 -2 24 24" xml:space="preserve">
<g>
	<path fill="#B6B6B6" d="M12.5,10.9c0-0.4,0.1-0.6,0.4-0.9c0.3-0.3,0.6-0.4,1-0.4c0.4,0,0.7,0.1,1,0.4l5.7,4.8V0.2
		c0-0.4,0.1-0.6,0.4-0.9c0.3-0.2,0.6-0.4,1-0.4s0.7,0.1,1,0.4c0.3,0.3,0.4,0.5,0.4,0.9v14.7l5.6-4.8c0.3-0.2,0.6-0.4,1-0.4
		s0.7,0.1,1,0.4c0.3,0.2,0.4,0.5,0.4,0.9c0,0.4-0.1,0.6-0.4,0.9l-9.1,7.9l-9.1-7.9C12.6,11.5,12.5,11.3,12.5,10.9z"/>
</g>
</svg>
