<?xml version="1.0" encoding="utf-8"?>
<!-- Generator: Adobe Illustrator 18.1.0, SVG Export Plug-In . SVG Version: 6.00 Build 0)  -->
<svg version="1.1" id="Layer_1" xmlns="http://www.w3.org/2000/svg" xmlns:xlink="http://www.w3.org/1999/xlink" x="0px" y="0px"
	 width="60px" height="60px" viewBox="-28.8 20.8 60 60" enable-background="new -28.8 20.8 60 60" xml:space="preserve">
<g>
	<path fill="#CCCCCC" d="M2.3,26.6c-8.6,0-16.2,4.5-20.4,11.3l7.1-2.2l-0.5,7.5C-8.8,38.3-3.6,35,2.3,35C11,35,18,42,18,50.7
		S11,66.4,2.3,66.4c-7.8,0-14.2-5.6-15.5-13h2l-6.5-9.3l-6.3,9.4h2.3C-20.3,65.6-10.1,75,2.3,75c13.4,0,24.2-10.8,24.2-24.2
		S15.7,26.6,2.3,26.6z M-1.4,50.8c0,2,1.7,3.7,3.7,3.7S6,52.8,6,50.8s-1.7-3.7-3.7-3.7S-1.4,48.7-1.4,50.8z M3.4,36.9H1.2V46h2.2
		V36.9z M8.3,60.7l1.8-1.3L6,53.8l-1.8,1.3L8.3,60.7z"/>
</g>
</svg>
