<?xml version="1.0" encoding="utf-8"?>
<!-- Generator: Adobe Illustrator 18.1.0, SVG Export Plug-In . SVG Version: 6.00 Build 0)  -->
<svg version="1.1" id="Layer_1" xmlns="http://www.w3.org/2000/svg" xmlns:xlink="http://www.w3.org/1999/xlink" x="0px" y="0px"
	 width="18px" height="18px" viewBox="-3.5 2.2 18 18" enable-background="new -3.5 2.2 18 18" xml:space="preserve">
<path fill="#FFFFFF" d="M11.3,5.3C10.2,4.1,8.6,3.4,7,3.4c-1.6,0-3.1,0.6-4.2,1.8C1,7,0.5,9.7,1.5,12L-1.3,15C-1.7,15.3-2,16-2,16.6
	c0,0.6,0.3,1.2,0.7,1.7c0.5,0.4,1,0.6,1.6,0.6s1.2-0.3,1.6-0.7l2.8-2.8c0.7,0.3,1.5,0.5,2.3,0.5c1.6,0,3.1-0.6,4.3-1.8
	C13.6,11.7,13.6,7.6,11.3,5.3z M7,14.1c-1.2,0-2.3-0.5-3-1.3c-1.7-1.7-1.7-4.7,0-6.4c0.8-0.8,1.9-1.3,3-1.3c1.2,0,2.2,0.5,3,1.3
	c1.7,1.7,1.7,4.7,0,6.4C9.3,13.7,8.2,14.1,7,14.1z M-0.2,17.1c-0.1-0.1-0.2-0.3-0.2-0.5c0-0.2,0.1-0.4,0.2-0.5l2.5-2.6
	C2.4,13.8,2.6,14,2.8,14c0.2,0.2,0.4,0.3,0.5,0.5l-2.5,2.6C0.6,17.4,0.2,17.4-0.2,17.1z"/>
</svg>
