<?xml version="1.0" encoding="utf-8"?>
<!-- Generator: Adobe Illustrator 18.1.0, SVG Export Plug-In . SVG Version: 6.00 Build 0)  -->
<svg version="1.1" id="Layer_1" xmlns="http://www.w3.org/2000/svg" xmlns:xlink="http://www.w3.org/1999/xlink" x="0px" y="0px"
	 width="48px" height="48px" viewBox="-30.5 27 48 48" enable-background="new -30.5 27 48 48" xml:space="preserve">
<path id="path-1" fill="#FFFFFF" d="M11.2,52L8,55.1L-5.7,41.4c-0.1-0.1-0.1-0.1-0.2-0.1c-0.1,0-0.1,0-0.2,0c-0.1,0-0.3,0.1-0.4,0.2
	l-7,7c-0.4,0.4-0.9,0.6-1.4,0.6c-0.5,0-1-0.2-1.4-0.6l-0.5-0.5c-0.8-0.8-0.8-2,0-2.8l9.5-9.5l1-1c0,0,0.1-0.1,0.1-0.1
	c2.3-2.3,5.3-3.5,8.6-3.5c3.3,0,6.4,1.3,8.7,3.6c2.3,2.3,3.6,5.4,3.6,8.7C14.8,46.6,13.5,49.7,11.2,52z M-17.5,48.7l0.5,0.5
	c0.6,0.6,1.3,0.9,2.2,0.9s1.6-0.3,2.2-0.9l6.5-6.5L7.7,56.5c0.4,0.4,0.6,0.9,0.6,1.4c0,0.5-0.2,1-0.6,1.4c-0.4,0.4-0.9,0.6-1.4,0.6
	c-0.5,0-1-0.2-1.4-0.6l-7.4-7.4c-0.2-0.2-0.6-0.2-0.8,0L-3.4,52c-0.1,0.1-0.2,0.2-0.2,0.4c0,0.2,0.1,0.3,0.2,0.4l8,8
	c0.4,0.4,0.6,0.9,0.6,1.4c0,0.5-0.2,1-0.6,1.4c-0.4,0.4-0.9,0.6-1.4,0.6c-0.5,0-1-0.2-1.4-0.6l-8-8c-0.1-0.1-0.2-0.2-0.4-0.2
	c-0.1,0-0.3,0.1-0.4,0.2l-0.1,0.1c-0.2,0.2-0.2,0.6,0,0.8l8,8c0.8,0.8,0.8,2,0,2.8c-0.4,0.4-0.9,0.6-1.4,0.6c-0.5,0-1-0.2-1.4-0.6
	L-2.1,67c0.4-1.1,0.2-2.4-0.7-3.3c-0.6-0.6-1.4-0.9-2.2-0.9c0,0,0,0-0.1,0c0.8-1.2,0.6-2.8-0.4-3.8C-6,58.4-6.8,58-7.6,58
	c-0.1,0-0.3,0-0.4,0c0.1-0.3,0.2-0.7,0.2-1c0-0.8-0.3-1.6-0.9-2.2C-9.4,54.3-10.2,54-11,54c-0.7,0-1.3,0.2-1.8,0.6
	c0-0.8-0.3-1.6-0.9-2.2c-0.6-0.6-1.4-0.9-2.2-0.9c-0.8,0-1.6,0.3-2.2,0.9l-3,3l-3.4-3.4c-4.8-4.8-4.8-12.6,0-17.4
	c2.3-2.3,5.4-3.6,8.7-3.6c3.1,0,6,1.1,8.3,3.2l-10,10C-18.7,45.5-18.7,47.5-17.5,48.7z M-20.6,56.6l3.4-3.4c0.4-0.4,0.9-0.6,1.4-0.6
	c0.5,0,1,0.2,1.4,0.6c0.8,0.8,0.8,2,0,2.8l-3.4,3.4c-0.1,0.1-0.3,0.3-0.5,0.3c-0.3,0.1-0.6,0.2-0.9,0.2c-0.5,0-1-0.2-1.4-0.6
	c-0.4-0.4-0.6-0.9-0.6-1.4c0-0.3,0.1-0.6,0.2-0.9C-20.9,56.9-20.8,56.7-20.6,56.6z M-16.9,60.3l4.6-4.6c0.4-0.4,0.9-0.6,1.4-0.6
	c0.5,0,1,0.2,1.4,0.6c0.4,0.4,0.6,0.9,0.6,1.4c0,0.5-0.2,1-0.6,1.4l-4.2,4.2l-0.4,0.4c-0.1,0.1-0.3,0.3-0.5,0.3
	c-0.3,0.1-0.6,0.2-0.9,0.2c-0.5,0-1-0.2-1.4-0.6c-0.6-0.6-0.7-1.5-0.3-2.3C-17.2,60.6-17.1,60.4-16.9,60.3z M-13.3,64l0.4-0.4
	l2.8-2.8l1.1-1.1c0.4-0.4,0.9-0.6,1.4-0.6c0.5,0,1,0.2,1.4,0.6c0.8,0.8,0.8,2,0,2.8l-3.9,3.9l-0.4,0.4c-0.1,0.1-0.3,0.3-0.5,0.3
	c-0.3,0.1-0.6,0.2-0.9,0.2c-0.5,0-1-0.2-1.4-0.6c-0.6-0.6-0.7-1.5-0.3-2.3C-13.5,64.3-13.4,64.1-13.3,64z M-9.6,67.7l3.2-3.2
	c0.3-0.3,0.7-0.5,1.2-0.6c0.1,0,0.1,0,0.2,0c0.5,0,1,0.2,1.4,0.6c0.4,0.4,0.6,1,0.6,1.6c0,0.4-0.2,0.9-0.6,1.2l-2.8,2.8l-0.4,0.4
	c-0.1,0.1-0.3,0.3-0.5,0.3C-7.6,70.9-7.9,71-8.2,71c-0.5,0-1-0.2-1.4-0.6c-0.6-0.6-0.7-1.5-0.3-2.3C-9.8,68-9.7,67.8-9.6,67.7z
	 M-3.4,70.4c-0.4,0.4-0.9,0.6-1.4,0.6c-0.3,0-0.6-0.1-0.8-0.2l2.6-2.6C-2.6,68.9-2.8,69.8-3.4,70.4z"/>
</svg>
