<?xml version="1.0" encoding="utf-8"?>
<!-- Generator: Adobe Illustrator 18.1.0, SVG Export Plug-In . SVG Version: 6.00 Build 0)  -->
<svg version="1.1" id="Layer_1" xmlns="http://www.w3.org/2000/svg" xmlns:xlink="http://www.w3.org/1999/xlink" x="0px" y="0px"
	 width="18px" height="18px" viewBox="21 1 18 18" enable-background="new 21 1 18 18" xml:space="preserve">
<path fill="#00A2A7" d="M36.2,10.8L30,17l-6.2-6.2c-1.8-1.8-1.8-4.7,0-6.4c1.7-1.7,4.4-1.7,6.2-0.1c1.8-1.7,4.5-1.6,6.2,0.1
	C37.9,6.1,37.9,9,36.2,10.8z M34.8,5.7C34.3,5.3,33.7,5,33,5c-0.6,0-1.2,0.2-1.7,0.7L30,7l-1.4-1.4C28.2,5.2,27.6,5,27,5
	c-0.6,0-1.3,0.3-1.8,0.7s-0.7,1.1-0.7,1.8c0,0.7,0.3,1.3,0.7,1.8l4.8,4.8l4.8-4.8c0.5-0.5,0.7-1.1,0.7-1.8
	C35.5,6.9,35.3,6.2,34.8,5.7z"/>
</svg>
