<?xml version="1.0" encoding="utf-8"?>
<!-- Generator: Adobe Illustrator 18.1.0, SVG Export Plug-In . SVG Version: 6.00 Build 0)  -->
<svg version="1.1" id="Layer_1" xmlns="http://www.w3.org/2000/svg" xmlns:xlink="http://www.w3.org/1999/xlink" x="0px" y="0px"
	 width="60px" height="52px" viewBox="-26.5 24.5 60 52" enable-background="new -26.5 24.5 60 52" xml:space="preserve">
<path id="path-1" fill="#FFFFFF" d="M24.1,55.3c-3.1,2.9-6.8,4.3-10.3,4.3c-1.2,0.1-2.6,0.1-4.3,0c0,0,0,0,0,0l-0.1,0c0,0,0,0,0.1,0
	c-0.2,0.1-2.3,0.7-4.2,1.8c0.4,0.4,0.6,0.6,0.7,0.7l0.2,0.2l-0.2,0.2L4.2,64L4,64.2L3.8,64c-0.3-0.3-0.6-0.6-0.9-0.9
	c-0.2,0.2-0.4,0.4-0.6,0.6l-0.2,0.2L2,63.7l-1.8-1.5L0,62l0.2-0.2c0,0,0.1-0.1,0.3-0.3c-1.8-1-3.6-1.6-3.9-1.6c0,0,0,0,0.1,0l-0.1,0
	c0,0,0,0,0,0C-5,60-6.5,60-7.7,59.9c-3.6,0-7.3-1.5-10.3-4.3c-5.5-5.1-6.7-12.9-2.6-17.3c1.7-1.8,4.1-2.9,6.8-3
	c3.7-0.1,7.6,1.4,10.6,4.3c1.9,1.7,3.3,3.9,4.2,6.1c0.7,1.9,1,3.7,0.8,5.5C2,52.4,2,53.4,2,53.5c0,1.8,0.4,3.3,1,4.6
	c0.7-1.4,1.2-3,1.2-4.9c0-0.1,0-1,0.1-2.2c-0.1-1.7,0.1-3.6,0.8-5.5c0.9-2.3,2.3-4.4,4.2-6.1c5.5-5.1,13.3-5.7,17.4-1.3
	c1.7,1.8,2.6,4.3,2.5,7C29,48.7,27.2,52.5,24.1,55.3z M5.6,62.1L5.6,62.1C5.6,62.1,5.6,62.1,5.6,62.1L5.6,62.1z M5.6,62.5L5.6,62.5
	L5.6,62.5C5.6,62.5,5.6,62.5,5.6,62.5z M-2,55.5c0.3-0.4,0.6-0.8,0.9-1.2l-0.4,0.4l-3.2-3L-7,54.2l2.9,2.8l-0.2,0.2
	C-3.5,56.8-2.7,56.3-2,55.5z M-8.2,48.5l-2.5-2.3l-2.3,2.4l2.4,2.3L-8.2,48.5z M-10,51.4l2.4,2.3l2.4-2.4L-7.6,49L-10,51.4z
	 M-11.2,45.7l-2.5-2.3l-2.3,2.3l2.5,2.4L-11.2,45.7z M-10.7,45.1l2.1-2.1l-2.4-2.3l-2.1,2.1L-10.7,45.1z M-10.1,45.6l2.5,2.3
	l2.1-2.1L-8,43.5L-10.1,45.6z M-7.1,48.5l2.4,2.2l2-2.1L-5,46.4L-7.1,48.5z M-16.6,54.1c2.7,2.5,6,3.9,9.2,3.7
	c0.9,0,1.7-0.2,2.5-0.5l-2.7-2.6l-2.4,2.4l-0.5-0.5l2.4-2.4l-2.4-2.3l-3.7,3.7l-0.5-0.5l3.7-3.7l-2.4-2.3l-4,4.1
	C-17.2,53.5-16.9,53.8-16.6,54.1z M-18,52.6l3.9-4l-2.5-2.4l-3.4,3.4C-19.4,50.6-18.8,51.6-18,52.6z M-20.2,48.8l3.1-3.1l-3.5-3.3
	C-21.2,44.3-21,46.5-20.2,48.8z M-13.6,37.4c-2.2,0.1-4.1,0.9-5.4,2.3c-0.7,0.7-1.2,1.6-1.5,2.5l0.4-0.5l3.5,3.4l2.3-2.3l-3.9-3.6
	l0.5-0.6l3.9,3.6l2.1-2.1l-2.4-2.3L-13.6,37.4C-13.6,37.4-13.6,37.4-13.6,37.4z M-13.4,37.4l2.3,2.2l1.6-1.6
	C-10.8,37.6-12.1,37.4-13.4,37.4z M-0.8,46.5c-0.7-2-2-3.8-3.6-5.4c-1.5-1.4-3.2-2.4-4.9-3l0.5,0.5l-1.6,1.6l2.4,2.3l2.2-2.3
	l0.5,0.5L-7.5,43l2.5,2.4l2-2l0.5,0.5l-1.9,2l2.3,2.2l1.1-1.2l0.5,0.5C-0.6,47.1-0.7,46.8-0.8,46.5z M-0.5,47.5l-1.1,1.1l1.5,1.4
	C-0.1,49.2-0.2,48.3-0.5,47.5z M-0.6,50.6l-1.6-1.5l-2,2.1l3.1,2.9c0.6-1.2,1-2.6,1-4L-0.6,50.6z M0.6,61.8L0.6,61.8
	C0.6,61.8,0.6,61.8,0.6,61.8L0.6,61.8z M0.6,62.1L0.6,62.1C0.6,62.2,0.6,62.2,0.6,62.1L0.6,62.1z M2,63.4C2,63.4,2,63.4,2,63.4
	L2,63.4L2,63.4z M4.2,63.6L4.2,63.6L4.2,63.6C4.2,63.6,4.2,63.6,4.2,63.6z M27,46.5l-1.3,1.3l0.7,0.7C26.6,47.8,26.8,47.1,27,46.5z
	 M24.1,52.3c0.8-1,1.4-2,1.9-3.1l-0.9-0.9l-2.5,2.5L24.1,52.3z M17.2,51.2l2,2l2.4-2.4l-1.9-2L17.2,51.2z M19.1,48.3l-2.3-2.4
	l-2.5,2.3l2.4,2.4L19.1,48.3z M16.7,51.7L14.3,54l2.1,2.2l2.3-2.4L16.7,51.7z M16.1,51.2l-2.4-2.4L11.4,51l2.4,2.4L16.1,51.2z
	 M13.2,48.2l-2.1-2.1l-2.3,2.2l2,2.1L13.2,48.2z M13.8,47.7l2.5-2.3l-2.1-2.1l-2.5,2.4L13.8,47.7z M16.8,44.8l2.5-2.3l-2.1-2.1
	l-2.4,2.3L16.8,44.8z M17.4,45.4l2.3,2.4l2.5-2.4L19.9,43L17.4,45.4z M20.2,48.3l1.9,2l2.5-2.5l-1.9-1.9L20.2,48.3z M22.7,53.8
	c0.3-0.3,0.6-0.6,0.9-0.9l-1.5-1.6l-2.4,2.4l1.1,1.1l-0.5,0.5l-1.1-1.1l-2.9,3C18.5,56.8,20.8,55.6,22.7,53.8z M15.7,57.4l-0.3-0.3
	l0.5-0.5l-2.1-2.2L11,57.1C12.4,57.6,14,57.7,15.7,57.4z M8.2,55.3c0.7,0.7,1.5,1.3,2.3,1.6l-0.2-0.2l2.9-2.8l-2.4-2.5l-3.2,3
	l-0.4-0.4C7.5,54.5,7.8,54.9,8.2,55.3z M7.2,53.9l3.1-2.9l-2-2.1l-1.6,1.5l-0.5-0.5C6.2,51.3,6.5,52.7,7.2,53.9z M6.2,49.8l1.5-1.4
	l-1.1-1.1C6.4,48.1,6.3,48.9,6.2,49.8z M10.6,40.8C9,42.4,7.7,44.2,7,46.2c-0.1,0.3-0.2,0.6-0.3,0.9l0.5-0.5l1.1,1.2l2.3-2.2l-1.9-2
	l0.5-0.5l2,2l2.5-2.4l-2.2-2.3l0.5-0.5l2.2,2.3l2.4-2.3l-1.6-1.6l0.5-0.5C13.8,38.4,12.1,39.4,10.6,40.8z M15.7,37.8l1.5,1.5
	l2.3-2.2C18.3,37.1,17,37.3,15.7,37.8z M25.2,39.4c-1.4-1.5-3.3-2.2-5.5-2.3l0.4,0.5l-2.4,2.3l2.1,2.1l3.9-3.6l0.5,0.6l-3.9,3.6
	l2.3,2.3l3.5-3.4l0.5,0.5C26.4,41,25.9,40.1,25.2,39.4z M23.3,45.4l1.9,1.9l1.3-1.3l0.5,0.5c0.1-0.5,0.1-1,0.2-1.4
	c0-1.1-0.1-2-0.4-2.9L23.3,45.4z M-0.5,32.8c-0.2-0.7,0-1.5,0.7-2.3l0,0l0,0c0,0,0.7-1.1,1.8-1.2c0.7-0.1,1.4,0.3,2.2,1.1
	c0.3,0.4,2.3,3.3,4.5,3.4c-0.4,2-1.7,3.6-3.5,4.3c-0.3-0.5-1.3-2.1-3.5-3C1.6,35-0.1,34.2-0.5,32.8z M4.9,29.9L4.9,29.9L4.9,29.9
	c-1-1.1-2-1.5-3-1.4c-1.5,0.1-2.4,1.5-2.4,1.6l0,0c-0.8,1-1.1,2-0.8,3c0.4,1.8,2.5,2.8,2.6,2.8c1.7,0.7,2.6,2,3,2.5
	c-0.4,0.1-0.8,0.1-1.2,0.1c-3.2,0-5.7-2.6-5.7-5.7c0-3.2,2.6-5.7,5.7-5.7c3.2,0,5.7,2.6,5.7,5.7c0,0.1,0,0.1,0,0.2
	C7.2,32.9,5.5,30.7,4.9,29.9z M-2.5,63.7c0.5-0.6,1.2-0.9,1.9-0.9c0.5,0,0.9,0.1,1.2,0.4c0.3,0.3,0.5,0.7,0.5,1.2
	c0,0.7-0.3,1.4-0.8,1.9l-6.3,6.5c-0.9,1-2.3,1.2-3.1,0.4c-0.7-0.7-0.6-2.1,0.3-3.1L-2.5,63.7z M6.8,63.1c0.7,0,1.3,0.3,1.9,0.9
	l6.3,6.5c0.9,1,1.1,2.4,0.3,3.1c-0.8,0.7-2.1,0.5-3.1-0.5l-6.3-6.5c-0.9-1-1.1-2.4-0.3-3.1C5.9,63.2,6.3,63.1,6.8,63.1z"/>
</svg>
