<?xml version="1.0" encoding="utf-8"?>
<!-- Generator: Adobe Illustrator 19.2.1, SVG Export Plug-In . SVG Version: 6.00 Build 0)  -->
<svg version="1.1" id="Layer_1" xmlns="http://www.w3.org/2000/svg" xmlns:xlink="http://www.w3.org/1999/xlink" x="0px" y="0px"
	 viewBox="0 0 26 24" style="enable-background:new 0 0 26 24;" xml:space="preserve">
<style type="text/css">
	.st0{fill:#9E9E9E;}
</style>
<g>
	<g>
		<path class="st0" d="M14.3,14.8c0.9-1,1.3-2.3,1.3-3.6c0-3.1-2.5-5.5-5.5-5.5c-3.1,0-5.5,2.5-5.5,5.5c0,1.3,0.5,2.6,1.3,3.6
			C2.7,15.9,1,18.4,1,21.7v2h18.1v-2C19.1,18.4,17.3,15.9,14.3,14.8z M17.8,22.4H2.3v-0.8c0-1.6,0.5-2.9,1.4-3.9
			c0.8-1,2.1-1.7,3.6-2.1l1.2-0.3l-1-0.8c-1-0.8-1.6-2-1.6-3.4c0-2.3,1.9-4.3,4.3-4.3c2.3,0,4.3,1.9,4.3,4.3c0,1.3-0.6,2.5-1.6,3.4
			l-1,0.8l1.2,0.3c1.5,0.4,2.7,1.1,3.6,2.1c0.9,1,1.4,2.4,1.4,3.9V22.4z M20.2,9.4c0.9-1,1.3-2.3,1.3-3.6c0-3.1-2.5-5.5-5.5-5.5
			c-2.7,0-5,1.9-5.4,4.5l-0.1,0.3l1.3,0.2l0.1-0.3c0.4-2,2.1-3.5,4.2-3.5c2.3,0,4.3,1.9,4.3,4.3c0,1.3-0.6,2.5-1.6,3.4l-1,0.8
			l1.2,0.3c1.5,0.4,2.7,1.1,3.6,2.1c0.9,1,1.4,2.4,1.4,3.9v1h-4.8v1.3H25v-2.3C25,13.1,23.3,10.6,20.2,9.4z"/>
	</g>
</g>
</svg>
