<?xml version="1.0" encoding="utf-8"?>
<!-- Generator: Adobe Illustrator 18.1.0, SVG Export Plug-In . SVG Version: 6.00 Build 0)  -->
<svg version="1.1" id="Layer_1" xmlns="http://www.w3.org/2000/svg" xmlns:xlink="http://www.w3.org/1999/xlink" x="0px" y="0px"
	 width="40px" height="40px" viewBox="40 -10 40 40" enable-background="new 40 -10 40 40" xml:space="preserve">
<g>
	<path fill="#333333" d="M60-7c-9.4,0-17,7.6-17,17s7.6,17,17,17s17-7.6,17-17S69.4-7,60-7z M60,25.4c-8.5,0-15.4-6.9-15.4-15.4
		S51.5-5.4,60-5.4S75.4,1.5,75.4,10S68.5,25.4,60,25.4z M69.9,2.9c-0.8,0.5-1.6,0.8-2.6,1c-0.7-0.8-1.8-1.3-2.9-1.3
		c-2.2,0-4.1,1.8-4.1,4.1c0,0.3,0.1,0.6,0.1,0.9c-3.3-0.2-6.3-1.8-8.4-4.2c-0.4,0.6-0.6,1.3-0.6,2.1c0,1.4,0.7,2.7,1.8,3.4
		c-0.7,0-1.3-0.2-1.8-0.5v0.1c0,2,1.4,3.6,3.2,4c-0.4,0.1-0.7,0.2-1.1,0.2c-0.3,0-0.5,0-0.8-0.1c0.5,1.6,2,2.8,3.8,2.8
		c-1.4,1.1-3.1,1.8-5,1.8c-0.4,0-0.7,0-1-0.1c1.8,1.2,3.9,1.8,6.2,1.8c7.5,0,11.5-6.2,11.5-11.5c0-0.2,0-0.4,0-0.5
		c0.8-0.6,1.5-1.3,2-2.1c-0.7,0.3-1.5,0.6-2.3,0.7C68.9,4.6,69.6,3.8,69.9,2.9z"/>
</g>
</svg>
