<svg id="Layer_1" xmlns="http://www.w3.org/2000/svg" viewBox="0 0 26 20"><style>.st0{fill:#D3D3D3;}</style><path d="M487.7 268.8l-.2 2.9h-.6l-.2-2.9h1zM488.7 271.7c.3-1 .8-2.3 1.1-2.9l.7-.1c-.3.7-.6 1.9-.7 2.8l-1.1.2zm1.8 0c.3-1 .8-2.3 1.1-2.9l.7-.1c-.3.7-.6 1.9-.7 2.8l-1.1.2zM494.2 268.8l-.2 2.9h-.6l-.2-2.9h1z"/><g><path class="st0" d="M8.1 13.1l2.9.7c-.3 1.2-1.7 3.7-2.7 4.8-2.7-.3-5.2-1.2-7.1-2.3 1.4-5.2 4-10.9 6.3-14.5.9-.2 3-.5 4.5-.5-1.4 3.4-3.2 8.8-3.9 11.8zm12.9 0l2.9.7c-.3 1.2-1.7 3.7-2.7 4.8-2.7-.3-5.2-1.2-7.1-2.3 1.4-5.2 4-10.9 6.3-14.5.9-.2 3-.5 4.5-.5-1.5 3.4-3.3 8.8-3.9 11.8z"/></g></svg>