<?xml version="1.0" encoding="utf-8"?>
<!-- Generator: Adobe Illustrator 18.1.0, SVG Export Plug-In . SVG Version: 6.00 Build 0)  -->
<svg version="1.1" id="Layer_1" xmlns="http://www.w3.org/2000/svg" xmlns:xlink="http://www.w3.org/1999/xlink" x="0px" y="0px"
	 width="70px" height="48px" viewBox="-19.5 27 70 48" enable-background="new -19.5 27 70 48" xml:space="preserve">
<path id="path-1" fill="#FFFFFF" d="M23.6,71.2c4.5-2,8.1-5.6,10.7-10.8c0.2-0.5,0.5-0.9,0.7-1.4c7.2,1.9,12.3,5.7,12.3,5.7
	S36.5,72.7,23.6,71.2z M10.4,71.3c0.4-1.3,1-2.9,1.3-4.1c4.5-17.7,17.5-16.3,23.5-16.6c-0.4,2.2-1.3,5.5-3,8.8
	C25.2,73.7,11.8,71.1,10.4,71.3z M22.6,49.9c-3.8,1.6-6.9,3.9-9.2,6.7c-2.1-2.8-4.8-5.1-8.3-6.7c-0.2-3.3,0.6-6.8,2.3-10.4
	c2.2-4.6,5.4-8.1,6.8-9.5c2.3,2.2,8.8,9.3,9.3,17.7c0,0.6,0,1.3,0,1.9C23.2,49.7,22.9,49.8,22.6,49.9z M12,59
	c-2.7,4.5-3.4,10.3-3.5,10.6c-5.4-1.5-9.7-5.2-12.7-10.9c-1.7-3.2-2.6-6.5-3.1-8.6C-2.6,50.2,7.7,51.3,12,59z M-6.3,59.8
	c3,5.7,7.1,9.5,12.3,11.5C-6.5,72.5-17,64.8-17,64.8c4.5-3.4,4.2-3.2,10.6-5.2C-6.4,59.6-6.3,59.7-6.3,59.8z"/>
</svg>
