<?xml version="1.0" encoding="utf-8"?>
<!-- Generator: Adobe Illustrator 18.1.0, SVG Export Plug-In . SVG Version: 6.00 Build 0)  -->
<svg version="1.1" id="Layer_1" xmlns="http://www.w3.org/2000/svg" xmlns:xlink="http://www.w3.org/1999/xlink" x="0px" y="0px"
	 width="15px" height="15px" viewBox="-4 3 15 15" enable-background="new -4 3 15 15" xml:space="preserve">
<g>
	<path fill="#00A2A7" d="M8.6,11.3H0.3l3.2,3c0.2,0.1,0.3,0.3,0.3,0.5c0,0.1-0.2,0.4-0.3,0.5S3.1,15.5,3,15.5s-0.4-0.1-0.5-0.2
		l-5-4.8l5-4.8C2.6,5.6,2.7,5.5,3,5.5c0.1,0,0.3,0.1,0.5,0.2S3.8,6,3.8,6.2s0,0.4-0.2,0.6l-3.2,3h8.3c0.1,0,0.4,0.1,0.5,0.2
		c0.2,0.1,0.3,0.4,0.3,0.5S9.3,10.9,9.2,11S8.9,11.2,8.6,11.3z"/>
</g>
</svg>
