<?xml version="1.0" encoding="utf-8"?>
<!-- Generator: Adobe Illustrator 18.1.0, SVG Export Plug-In . SVG Version: 6.00 Build 0)  -->
<svg version="1.1" id="Layer_1" xmlns="http://www.w3.org/2000/svg" xmlns:xlink="http://www.w3.org/1999/xlink" x="0px" y="0px"
	 width="60px" height="60px" viewBox="20 -20 60 60" enable-background="new 20 -20 60 60" xml:space="preserve">
<g>
	<path fill="#00A2A7" d="M51.8,2.2c0-1.4,0.1-2.2,2.3-2.2h2.8v-5.5h-4.5C47-5.5,45-2.8,45,1.8v3.3h-3.3v5.5h3.4v16.2h6.7V10.6h4.5
		l0.6-5.5h-5.1C51.8,5,51.8,2.2,51.8,2.2z M50-15C36.2-15,25-3.8,25,10s11.2,25,25,25s25-11.2,25-25C75.1-3.8,63.8-15,50-15z
		 M50,32.7c-12.5,0-22.7-10.2-22.7-22.7S37.5-12.7,50-12.7S72.7-2.5,72.7,10S62.5,32.7,50,32.7z"/>
</g>
</svg>
