<?xml version="1.0" encoding="utf-8"?>
<!-- Generator: Adobe Illustrator 18.1.0, SVG Export Plug-In . SVG Version: 6.00 Build 0)  -->
<svg version="1.1" id="Layer_1" xmlns="http://www.w3.org/2000/svg" xmlns:xlink="http://www.w3.org/1999/xlink" x="0px" y="0px"
	 width="13px" height="13px" viewBox="2.5 4.9 13 13" enable-background="new 2.5 4.9 13 13" xml:space="preserve">
<g>
	<path fill="#FFFFFF" d="M5.8,16.9c-0.7,0-1.2-0.2-1.6-0.7c-0.4-0.4-0.7-0.9-0.7-1.6V8.1c0-0.7,0.2-1.2,0.7-1.6s1-0.7,1.6-0.7h6.5
		c0.7,0,1.2,0.2,1.6,0.7c0.4,0.4,0.7,0.9,0.7,1.6v6.5c0,0.7-0.2,1.2-0.7,1.6c-0.4,0.4-0.9,0.7-1.6,0.7H5.8z M4.5,14.7
		c0,0.4,0.1,0.7,0.4,0.9c0.2,0.2,0.6,0.4,0.9,0.4h6.5c0.4,0,0.7-0.1,0.9-0.4c0.2-0.2,0.4-0.6,0.4-0.9V8.1c0-0.4-0.1-0.7-0.4-0.9
		c-0.2-0.2-0.5-0.4-0.9-0.4H5.8c-0.4,0-0.7,0.1-0.9,0.4C4.6,7.5,4.5,7.8,4.5,8.1V14.7z"/>
</g>
</svg>
