<?xml version="1.0" encoding="utf-8"?>
<!-- Generator: Adobe Illustrator 18.1.0, SVG Export Plug-In . SVG Version: 6.00 Build 0)  -->
<svg version="1.1" id="Layer_1" xmlns="http://www.w3.org/2000/svg" xmlns:xlink="http://www.w3.org/1999/xlink" x="0px" y="0px"
	 width="42px" height="42px" viewBox="3 -11 42 42" enable-background="new 3 -11 42 42" xml:space="preserve">
<g>
	<g>
		<path fill="#999999" d="M38.2-3.8h-4.6v-2.1c0-0.6-0.5-1.1-1.1-1.1s-1.1,0.5-1.1,1.1v2.1h-6.4v-2.1C25.1-6.5,24.6-7,24-7
			s-1.1,0.5-1.1,1.1v2.1h-6.4v-2.1c0-0.6-0.5-1.1-1.1-1.1s-1.1,0.5-1.1,1.1v2.1H9.8C8.3-3.8,7-2.6,7-1v25.1C7,25.7,8.3,27,9.8,27
			h28.3c1.6,0,2.8-1.3,2.8-2.8V-1C41-2.6,39.7-3.8,38.2-3.8z M38.9,24.2c0,0.4-0.3,0.7-0.7,0.7H9.8c-0.4,0-0.7-0.3-0.7-0.7V-1
			c0-0.4,0.3-0.7,0.7-0.7h4.6v2.1c0,0.6,0.5,1.1,1.1,1.1s1.1-0.5,1.1-1.1v-2.1h6.4v2.1c0,0.6,0.5,1.1,1.1,1.1C24.6,1.5,25,1,25,0.4
			v-2.1h6.4v2.1c0,0.6,0.5,1.1,1.1,1.1c0.6,0,1.1-0.5,1.1-1.1v-2.1h4.6c0.4,0,0.7,0.3,0.7,0.7L38.9,24.2L38.9,24.2z M14.4,8.9h4.2
			V5.8h-4.2V8.9z M14.4,14.2h4.2v-3.2h-4.2V14.2z M14.4,19.6h4.2v-3.2h-4.2V19.6z M21.9,19.6h4.2v-3.2h-4.2
			C21.9,16.4,21.9,19.6,21.9,19.6z M21.9,14.2h4.2v-3.2h-4.2C21.9,11.1,21.9,14.2,21.9,14.2z M21.9,8.9h4.2V5.8h-4.2
			C21.9,5.8,21.9,8.9,21.9,8.9z M29.3,19.6h4.2v-3.2h-4.2V19.6z M29.3,14.2h4.2v-3.2h-4.2V14.2z M29.3,8.9h4.2V5.8h-4.2V8.9z"/>
	</g>
</g>
</svg>
