<?xml version="1.0" encoding="utf-8"?>
<!-- Generator: Adobe Illustrator 18.1.0, SVG Export Plug-In . SVG Version: 6.00 Build 0)  -->
<svg version="1.1" id="Layer_1" xmlns="http://www.w3.org/2000/svg" xmlns:xlink="http://www.w3.org/1999/xlink" x="0px" y="0px"
	 width="24px" height="20px" viewBox="-37 41 24 20" enable-background="new -37 41 24 20" xml:space="preserve">
<g>
	<rect x="-34.6" y="42.8" fill="none" stroke="#DFDFDF" stroke-miterlimit="10" width="16.5" height="16.5"/>
	<path fill="#00A2A7" d="M-15,45.1l-1.3-1.3c-0.2-0.2-0.4-0.3-0.7-0.3c-0.3,0-0.5,0.1-0.7,0.3l-7.6,7.6l-3.1-3
		c-0.2-0.2-0.4-0.3-0.7-0.3c-0.2,0-0.4,0.1-0.6,0.2l-1.3,1.3c-0.2,0.2-0.3,0.5-0.3,0.7c0,0.3,0.1,0.6,0.4,0.7l5,5
		c0.2,0.2,0.4,0.3,0.7,0.3s0.5-0.1,0.7-0.3l9.5-9.5c0.2-0.2,0.3-0.4,0.3-0.7S-14.8,45.3-15,45.1z"/>
</g>
</svg>
