<?xml version="1.0" encoding="utf-8"?>
<!-- Generator: Adobe Illustrator 19.1.0, SVG Export Plug-In . SVG Version: 6.00 Build 0)  -->
<svg version="1.1" id="Layer_1" xmlns="http://www.w3.org/2000/svg" xmlns:xlink="http://www.w3.org/1999/xlink" x="0px" y="0px"
	 viewBox="-294 386 22 22" style="enable-background:new -294 386 22 22;" xml:space="preserve">
<style type="text/css">
	.st0{fill:#00A2A7;}
</style>
<g>
	<path class="st0" d="M-275.6,389.7c-2.1-2-5.3-2-7.4-0.2c-2.1-1.8-5.4-1.8-7.4,0.2c-2.1,2-2.1,5.3,0,7.4l7.4,7l7.4-7.2
		C-273.5,394.9-273.5,391.7-275.6,389.7z M-277.3,395.3l-5.7,5.5l-5.7-5.5c-0.6-0.5-0.9-1.3-0.9-2c0-0.8,0.3-1.5,0.9-2
		c0.6-0.5,1.3-0.9,2.1-0.9c0.7,0,1.5,0.3,2,0.8l1.6,1.6l1.6-1.6c0.6-0.5,1.3-0.8,2-0.8c0.8,0,1.5,0.3,2.1,0.9c0.6,0.6,0.9,1.3,0.9,2
		C-276.4,394-276.7,394.8-277.3,395.3z"/>
</g>
</svg>
