<?xml version="1.0" encoding="utf-8"?>
<!-- Generator: Adobe Illustrator 18.1.0, SVG Export Plug-In . SVG Version: 6.00 Build 0)  -->
<svg version="1.1" id="Layer_1" xmlns="http://www.w3.org/2000/svg" xmlns:xlink="http://www.w3.org/1999/xlink" x="0px" y="0px"
	 width="26px" height="18px" viewBox="14.6 1.4 26 18" enable-background="new 14.6 1.4 26 18" xml:space="preserve">
<g>
	<path fill="#FFFFFF" d="M17.2,9.3h1.6c0.1,0,0.1-0.1,0.1-0.1c0.1-1,0.8-1.7,1.7-1.7c0.1,0,0.3,0,0.3,0h4.1c0.1,0,0.2,0,0.3,0
		c0.9,0.1,1.7,0.8,1.7,1.7c0,0.1,0.1,0.1,0.1,0.1h0.6c0.1,0,0.1-0.1,0.1-0.1c0.1-0.9,0.8-1.7,1.7-1.7c0.1,0,0.2,0,0.3,0h4.1
		c0.1,0,0.2,0,0.3,0c0.9,0.1,1.7,0.8,1.7,1.7c0,0.1,0.1,0.1,0.1,0.1h1.9c0.1,0,0.1-0.1,0.1-0.1V5c0-0.1-0.1-0.2-0.1-0.2
		C35,3.3,31.5,2.4,27.8,2.4c-0.1,0-0.2,0-0.3,0c-3.7,0-7.3,0.9-10.4,2.4c-0.1,0-0.1,0.1-0.1,0.2v4.2C17.1,9.3,17.1,9.3,17.2,9.3z
		 M15.8,14.8h23.7c0.1,0,0.1-0.1,0.1-0.1v-3.4c0-0.1,0-0.2,0-0.3c-0.1-0.4-0.4-0.8-0.8-0.8c-0.1,0-0.2,0-0.3,0H16.7
		c-0.1,0-0.2,0-0.3,0c-0.4,0.1-0.8,0.4-0.8,0.8c0,0.1,0,0.2,0,0.3v3.3C15.7,14.7,15.7,14.8,15.8,14.8z M39.5,15.7H15.8
		c-0.1,0-0.1,0.1-0.1,0.1v0.6c0,0.1,0.1,0.1,0.1,0.1h1.6c0.1,0,0.1,0.1,0.1,0.1v1.6c0,0.1,0.1,0.1,0.1,0.1h1.5
		c0.1,0,0.1-0.1,0.1-0.1v-1.5c0-0.1,0.1-0.1,0.1-0.1h16.3c0.1,0,0.1,0.1,0.1,0.1v1.5c0,0.1,0.1,0.1,0.1,0.1h1.5
		c0.1,0,0.1-0.1,0.1-0.1v-1.5c0-0.1,0.1-0.1,0.1-0.1h1.6c0.1,0,0.1-0.1,0.1-0.1v-0.6C39.6,15.7,39.6,15.7,39.5,15.7z"/>
</g>
</svg>
