<?xml version="1.0" encoding="utf-8"?>
<!-- Generator: Adobe Illustrator 18.1.0, SVG Export Plug-In . SVG Version: 6.00 Build 0)  -->
<svg version="1.1" id="Layer_1" xmlns="http://www.w3.org/2000/svg" xmlns:xlink="http://www.w3.org/1999/xlink" x="0px" y="0px"
	 width="36px" height="38px" viewBox="-31 32 36 38" enable-background="new -31 32 36 38" xml:space="preserve">
<path fill="#333333" d="M-11.5,38.7c0.5-0.3,0.7,0,1,0.2c0.3,0.3,0.6,0.6,0.2,1c-0.4,0.5-0.9,1.1-1.4,1.7l3.2,0.6
	c0.6,0.1,1.2-0.1,1.6-0.4c1.4-1.4,4.5-4.5,4.6-4.6c2.7-2.7,6-4.2,6.6-3.6c0.6,0.6-1,4-3.6,6.6c-0.1,0.1-3.3,3.2-4.6,4.6
	c-0.4,0.4-0.6,1-0.4,1.6l0.6,3.2c0.6-0.6,1.2-1,1.7-1.4c0.5-0.3,0.7,0,1,0.2c0.3,0.3,0.6,0.6,0.2,1c-0.6,0.8-1.4,1.7-2.3,2.6
	l-0.1,0.1c1,5.1,2.3,11.8,2.4,12.1c0,0,0.2,0.9-0.5,1.6l-0.9,0.9c-0.2,0.2-0.3,0-0.3,0l-5.7-11.3c0,0-0.1-0.3-0.2-0.5
	s-0.3-0.4-0.3-0.4l-2.1-2.1c0,0-0.4-0.4-0.8,0c-4,3.6-6.4,5.4-7.8,6.6c-0.7,0.6-0.5,1.6-0.4,2c0.4,2.1,1.1,5.3,1.1,5.6
	c0,0,0.2,0.6-0.4,1.2l-0.7,0.7c-0.1,0.1-0.2,0-0.2,0l-3.3-6.5c-0.7,0.3-1.3,0.7-1.4,0.6s0.3-0.7,0.8-1.4l-6.5-3.3
	c-0.1,0-0.2-0.1,0-0.2l0.7-0.7c0.5-0.5,1.2-0.4,1.2-0.4c0.3,0.1,3.5,0.7,5.6,1.1c0.4,0.1,1.3,0.3,2-0.4c1.1-1.3,3-3.8,6.6-7.8
	c0.4-0.4,0-0.8,0-0.8l-2.3-1.9c0,0-0.2-0.2-0.4-0.3c-0.2-0.1-0.5-0.2-0.5-0.2l-11.3-5.8c0,0-0.2-0.1,0-0.3l0.9-0.9
	c0.7-0.7,1.6-0.5,1.6-0.5c0.3,0.1,7,1.4,12.1,2.4l0.1-0.1C-13.2,40.1-12.3,39.3-11.5,38.7z"/>
</svg>
