<?xml version="1.0" encoding="utf-8"?>
<!-- Generator: Adobe Illustrator 18.1.0, SVG Export Plug-In . SVG Version: 6.00 Build 0)  -->
<svg version="1.1" id="Layer_1" xmlns="http://www.w3.org/2000/svg" xmlns:xlink="http://www.w3.org/1999/xlink" x="0px" y="0px"
	 width="44px" height="38px" viewBox="-27 32 44 38" enable-background="new -27 32 44 38" xml:space="preserve">
<g>
	<path fill="#333333" d="M9.5,42c-1.5,0-2.9,0.5-4,1.5c-0.2-5.6-4.8-10-10.3-10c-4.3,0-7.9,2.6-9.5,6.3c-1.1-0.6-2.3-0.9-3.6-0.9
		c-4.4,0-7.9,3.5-7.9,7.8s3.5,7.8,7.8,7.8H9.5c3.4,0,6.2-2.8,6.2-6.2C15.8,44.8,13,42,9.5,42z M-22.9,46.7c0,0.5-0.4,0.9-0.9,0.9
		s-0.9-0.4-0.9-0.9c0-3.6,2.9-6.6,6.6-6.6c0.3,0,0.6,0,0.9,0.1C-20.4,40.6-22.9,43.4-22.9,46.7z M-11.1,43.9c0,0.6-0.5,1.1-1.1,1.1
		s-1.1-0.5-1.1-1.1c0-4.7,3.8-8.5,8.5-8.5c0.4,0,0.8,0,1.1,0.1C-7.9,36-11.1,39.5-11.1,43.9z M5.7,48.2c0,0.4-0.3,0.7-0.7,0.7
		c-0.4,0-0.7-0.3-0.7-0.7c0-2.8,2.3-5.2,5.2-5.2c0.2,0,0.5,0,0.7,0.1C7.7,43.5,5.7,45.6,5.7,48.2z M2.1,57.8L2.1,57.8l-1-1l-1,1
		c-0.3,0.3-0.4,0.6-0.4,1c0,0.8,0.7,1.5,1.5,1.5s1.5-0.7,1.5-1.5C2.6,58.4,2.4,58,2.1,57.8L2.1,57.8z M-4.6,58.8
		c0-0.4-0.2-0.8-0.4-1l-1-1l-1,1c-0.3,0.3-0.4,0.6-0.4,1c0,0.8,0.7,1.5,1.5,1.5C-5.3,60.3-4.6,59.6-4.6,58.8z M-11.9,58.8
		c0-0.4-0.2-0.8-0.4-1l0,0l-1-1l-1,1c-0.3,0.3-0.4,0.6-0.4,1c0,0.8,0.7,1.5,1.5,1.5C-12.5,60.3-11.9,59.6-11.9,58.8z M-0.2,61.9
		L-0.2,61.9L-0.2,61.9L-0.2,61.9z M-0.2,61.9l-1-1l-1,1c-0.3,0.3-0.4,0.6-0.4,1c0,0.8,0.7,1.5,1.5,1.5s1.5-0.7,1.5-1.5
		C0.2,62.5,0,62.2-0.2,61.9L-0.2,61.9z M-8.5,60.9l-1,1c-0.3,0.3-0.4,0.6-0.4,1c0,0.8,0.7,1.5,1.5,1.5s1.5-0.7,1.5-1.5
		c0-0.4-0.2-0.8-0.4-1L-8.5,60.9z M-7.5,61.9L-7.5,61.9L-7.5,61.9L-7.5,61.9L-7.5,61.9z M-14.7,61.9L-14.7,61.9l-1-1l-1,1
		c-0.3,0.3-0.4,0.6-0.4,1c0,0.8,0.7,1.5,1.5,1.5s1.5-0.7,1.5-1.5C-14.2,62.5-14.4,62.2-14.7,61.9L-14.7,61.9z M-2.6,66l-1-1l-1,1
		C-4.9,66.3-5,66.6-5,67c0,0.8,0.7,1.5,1.5,1.5S-2,67.8-2,67C-2.2,66.6-2.3,66.3-2.6,66L-2.6,66z M-10.9,65l-1,1
		c-0.3,0.3-0.4,0.6-0.4,1c0,0.8,0.7,1.5,1.5,1.5s1.5-0.7,1.5-1.5c0-0.4-0.2-0.8-0.4-1L-10.9,65z M-17,66L-17,66l-1-1l-1,1
		c-0.3,0.3-0.4,0.6-0.4,1c0,0.8,0.7,1.5,1.5,1.5s1.5-0.7,1.5-1.5C-16.6,66.6-16.8,66.3-17,66L-17,66z"/>
</g>
</svg>
