<?xml version="1.0" encoding="utf-8"?>
<!-- Generator: Adobe Illustrator 18.1.0, SVG Export Plug-In . SVG Version: 6.00 Build 0)  -->
<svg version="1.1" id="Layer_1" xmlns="http://www.w3.org/2000/svg" xmlns:xlink="http://www.w3.org/1999/xlink" x="0px" y="0px"
	 width="22px" height="20px" viewBox="10.6 -0.2 22 20" enable-background="new 10.6 -0.2 22 20" xml:space="preserve">
<g>
	<path fill="#FFFFFF" d="M30.1,8.3c-0.2-0.1-1.5-1.3-2.8-1.6c-0.1,0.5-0.3,1.1-0.5,1.5c0,0,0,0,0.1,0l0,0c0.7,0,3.1,1.7,3.1,2.3v5.9
		c-0.2-0.1-0.4-0.3-0.5-0.4c-1-0.8-2.2-1.7-3.1-1.6s-1.8,0.8-2.8,1.5c-0.6,0.5-1.7,1.3-2.1,1.2c-0.4-0.1-1-0.6-1.6-0.9
		c-0.9-0.7-1.9-1.5-3-1.5c-0.1,0-0.1,0-0.2,0s-0.1,0-0.2,0c-1,0-2,0.8-3,1.6c-0.1,0.1-0.3,0.3-0.5,0.4v-5.9c0.1-0.6,2.3-2.4,3-2.4
		l0,0c0.1,0,0.1,0,0.1,0c-0.2-0.5-0.3-1-0.4-1.5c-1.2,0.2-2.6,1.5-2.8,1.6c-0.6,0.6-1.5,1.5-1.5,2.3v6.9c0,0.6,0.4,0.9,0.6,1
		c0.1,0.1,0.3,0.1,0.4,0.1c0.6,0,1.2-0.5,2.1-1.2c0.6-0.4,1.7-1.3,2.1-1.3c0.1,0,0.1,0,0.2,0s0.1,0,0.1,0c0.6,0,1.4,0.6,2.1,1.1
		c0.7,0.5,1.4,1.1,2.2,1.3c0.1,0,0.3,0.1,0.4,0.1c1,0,2-0.8,3-1.5c0.6-0.5,1.5-1.1,1.9-1.1l0,0c0.4,0,1.5,0.9,2.1,1.3
		c1.1,0.8,1.8,1.4,2.4,1.1c0.2-0.1,0.6-0.3,0.6-0.9v-6.9C31.5,9.9,31,9.2,30.1,8.3z M21.4,12.9c0,0,4.6-3.9,4.6-7.2
		c0-2.6-2-4.9-4.6-4.9S16.8,3,16.8,5.7C16.8,9,21.4,12.9,21.4,12.9z M19.3,5.5c0-1.1,1-2.1,2.1-2.1s2.1,0.9,2.1,2.1s-1,2.1-2.1,2.1
		S19.3,6.6,19.3,5.5z"/>
</g>
</svg>
