<?xml version="1.0" encoding="utf-8"?>
<!-- Generator: Adobe Illustrator 18.1.0, SVG Export Plug-In . SVG Version: 6.00 Build 0)  -->
<svg version="1.1" id="Layer_1" xmlns="http://www.w3.org/2000/svg" xmlns:xlink="http://www.w3.org/1999/xlink" x="0px" y="0px"
	 width="34px" height="32px" viewBox="13 -6.2 34 32" enable-background="new 13 -6.2 34 32" xml:space="preserve">
<g>
	<path fill="#FFFFFF" d="M43.7,7.3c-0.3-0.2-2.5-2.2-4.4-2.7c-0.2,0.9-0.5,1.7-0.8,2.5h0.1l0,0c1.1,0,4.9,2.8,4.9,3.9v10
		c-0.3-0.2-0.6-0.5-0.8-0.7c-1.7-1.4-3.4-2.9-5-2.8c-1.4,0.1-2.9,1.2-4.4,2.5c-1,0.8-2.6,2.1-3.3,2c-0.7-0.2-1.6-0.9-2.5-1.6
		c-1.4-1.2-3-2.4-4.9-2.5c-0.1,0-0.2,0-0.3,0s-0.2,0-0.2,0c-1.5,0-3.2,1.4-4.8,2.8c-0.2,0.2-0.6,0.5-0.8,0.7v-9.9
		c0.2-1.1,3.7-3.9,4.8-3.9l0,0c0.1,0,0.2,0,0.2,0c-0.2-0.8-0.6-1.6-0.7-2.5c-1.9,0.3-4.2,2.4-4.5,2.7c-1,1.1-2.3,2.5-2.3,3.9v11.4
		c0,1.1,0.6,1.5,0.9,1.6c0.2,0.1,0.5,0.2,0.6,0.2c0.9,0,1.9-0.8,3.3-2c1-0.7,2.6-2.2,3.3-2.2c0.1,0,0.2,0,0.2,0s0.2,0,0.2,0
		c1,0,2.2,1,3.4,1.9c1.1,0.9,2.2,1.8,3.4,2.1c0.2,0.1,0.4,0.1,0.6,0.1c1.6,0,3.2-1.2,4.7-2.5c1-0.8,2.3-1.9,3-1.9l0,0
		c0.6,0,2.4,1.5,3.3,2.2c1.7,1.4,2.8,2.3,3.9,1.7c0.2-0.2,0.9-0.6,0.9-1.6V11.1C46,10,45.2,8.8,43.7,7.3z M29.8,15
		c0,0,7.4-6.4,7.4-12c0-4.4-3.2-8.2-7.4-8.2S22.5-1.5,22.5,3C22.4,8.6,29.8,15,29.8,15z M26.4,2.6c0-1.9,1.5-3.5,3.4-3.5
		c1.8,0,3.4,1.6,3.4,3.5s-1.5,3.5-3.4,3.5C27.9,6.1,26.4,4.6,26.4,2.6z"/>
</g>
</svg>
