<?xml version="1.0" encoding="utf-8"?>
<!-- Generator: Adobe Illustrator 18.1.0, SVG Export Plug-In . SVG Version: 6.00 Build 0)  -->
<svg version="1.1" id="Layer_1" xmlns="http://www.w3.org/2000/svg" xmlns:xlink="http://www.w3.org/1999/xlink" x="0px" y="0px"
	 width="8px" height="8px" viewBox="-45 47 8 8" enable-background="new -45 47 8 8" xml:space="preserve">
<path fill="#00A2A7" d="M-39,48c0.2-0.2,0.5-0.1,0.8,0.2s0.3,0.5,0.2,0.8l-2,2l1.9,2c0.2,0.2,0.1,0.5-0.2,0.8s-0.5,0.3-0.8,0.2
	l-1.9-2l-2,1.9c-0.2,0.2-0.5,0.1-0.8-0.2s-0.3-0.5-0.2-0.8l2-1.9l-2-2c-0.2-0.2-0.1-0.4,0.2-0.8c0.3-0.3,0.5-0.3,0.8-0.2l2,2L-39,48
	z"/>
</svg>
