<?xml version="1.0" encoding="utf-8"?>
<!-- Generator: Adobe Illustrator 18.1.0, SVG Export Plug-In . SVG Version: 6.00 Build 0)  -->
<svg version="1.1" id="Layer_1" xmlns="http://www.w3.org/2000/svg" xmlns:xlink="http://www.w3.org/1999/xlink" x="0px" y="0px"
	 width="24px" height="20px" viewBox="2 0 24 20" enable-background="new 2 0 24 20" xml:space="preserve">
<g>
	<path fill="#FFFFFF" d="M9.2,18.2c-0.9,0-1.6-0.3-2.4-1s-1-1.5-1-2.4V5.2c0-0.9,0.3-1.7,1-2.4c0.7-0.8,1.5-1,2.4-1h9.6
		c0.9,0,1.8,0.4,2.4,1c0.7,0.7,1,1.5,1,2.4v9.7c0,0.9-0.3,1.6-1,2.4c-0.7,0.7-1.5,1-2.4,1L9.2,18.2L9.2,18.2z M7.4,14.9
		c0,0.5,0.2,1,0.6,1.3c0.4,0.3,0.8,0.6,1.3,0.6h9.6c0.5,0,1-0.2,1.3-0.6s0.5-0.8,0.5-1.3V5.2c0-0.5-0.2-1-0.5-1.3
		c-0.3-0.4-0.7-0.7-1.2-0.7H9.3c-0.2,0-0.4,0-0.7,0.2C8.5,3.4,8,3.8,8,3.8S7.7,4.2,7.5,4.5C7.4,4.8,7.4,5,7.4,5.2V14.9L7.4,14.9z"/>
</g>
</svg>
