<?xml version="1.0" encoding="utf-8"?>
<!-- Generator: Adobe Illustrator 18.1.0, SVG Export Plug-In . SVG Version: 6.00 Build 0)  -->
<svg version="1.1" id="Layer_1" xmlns="http://www.w3.org/2000/svg" xmlns:xlink="http://www.w3.org/1999/xlink" x="0px" y="0px"
	 width="12px" height="14px" viewBox="-45 44 12 14" enable-background="new -45 44 12 14" xml:space="preserve">
<path fill="#D2D2D2" d="M-35.5,51c0-0.3-0.1-0.5-0.3-0.7c0,0,0,0,0,0l-4.9-4.9c-0.4-0.4-1-0.4-1.4,0s-0.4,1,0,1.4l4.2,4.2l-4.2,4.2
	c-0.4,0.4-0.4,1,0,1.4s1,0.4,1.4,0l4.9-4.9c0,0,0,0,0,0C-35.6,51.5-35.5,51.3-35.5,51C-35.5,51-35.5,51-35.5,51z"/>
</svg>
