<?xml version="1.0" encoding="utf-8"?>
<!-- Generator: Adobe Illustrator 18.1.0, SVG Export Plug-In . SVG Version: 6.00 Build 0)  -->
<svg version="1.1" id="Layer_1" xmlns="http://www.w3.org/2000/svg" xmlns:xlink="http://www.w3.org/1999/xlink" x="0px" y="0px"
	 width="65px" height="60px" viewBox="-17.3 21.4 65 60" enable-background="new -17.3 21.4 65 60" xml:space="preserve">
<g>
	<path fill="#FFFFFF" d="M32.3,60.1c1.6-3.3,2.6-6.6,3-8.8c-6,0.3-19-1.1-23.5,16.6c-0.3,1.2-0.9,2.9-1.3,4.1
		C11.8,71.8,25.1,74.4,32.3,60.1z M35,59.7c-0.2,0.5-0.4,0.9-0.7,1.4c-2.6,5.2-6.2,8.8-10.7,10.8c12.9,1.5,23.7-6.5,23.7-6.5
		S42.2,61.7,35,59.7z M13.3,57.4c2.4-2.8,5.4-5.1,9.2-6.7c0.3-0.1,0.6-0.3,0.9-0.4c0-0.6,0-1.3,0-1.9c-0.4-8.4-7-15.5-9.2-17.7
		c-1.4,1.4-4.6,4.9-6.8,9.5c-1.7,3.6-2.5,7.1-2.3,10.4C8.5,52.3,11.3,54.6,13.3,57.4z M-6.3,60.5c0-0.1-0.1-0.2-0.2-0.3
		c-6.4,2-6.1,1.8-10.6,5.2c0,0,10.5,7.7,23.1,6.5C0.9,70.1-3.3,66.2-6.3,60.5z M-7.4,50.8c0.5,2.2,1.4,5.4,3.1,8.6
		c3,5.7,7.3,9.4,12.7,10.9c0.1-0.3,0.9-6.2,3.5-10.6C7.7,52-2.6,50.9-7.4,50.8z"/>
</g>
</svg>
