<?xml version="1.0" encoding="utf-8"?>
<!-- Generator: Adobe Illustrator 18.1.0, SVG Export Plug-In . SVG Version: 6.00 Build 0)  -->
<svg version="1.1" id="Layer_1" xmlns="http://www.w3.org/2000/svg" xmlns:xlink="http://www.w3.org/1999/xlink" x="0px" y="0px"
	 width="28px" height="28px" viewBox="-253 287 28 28" enable-background="new -253 287 28 28" xml:space="preserve">
<g>
	<path fill="#FFFFFF" d="M-235.4,296c0.3-0.3,0.8-0.1,1.3,0.4s0.6,1,0.3,1.3l-3.6,3.5l3.4,3.6c0.3,0.3,0.1,0.8-0.4,1.3
		c-0.6,0.6-1,0.6-1.3,0.3l-3.4-3.6l-3.6,3.4c-0.3,0.3-0.8,0.1-1.3-0.4c-0.5-0.5-0.6-1-0.3-1.3l3.6-3.4l-3.5-3.6
		c-0.3-0.3-0.2-0.7,0.4-1.3c0.6-0.6,1-0.6,1.3-0.3l3.5,3.6L-235.4,296z"/>
	<circle fill="none" stroke="#FFFFFF" stroke-width="2" stroke-miterlimit="10" cx="-239" cy="301" r="12.5"/>
</g>
</svg>
