<?xml version="1.0" encoding="utf-8"?>
<!-- Generator: Adobe Illustrator 18.1.0, SVG Export Plug-In . SVG Version: 6.00 Build 0)  -->
<svg version="1.1" id="Layer_1" xmlns="http://www.w3.org/2000/svg" xmlns:xlink="http://www.w3.org/1999/xlink" x="0px" y="0px"
	 width="130px" height="150px" viewBox="-84 76 130 150" enable-background="new -84 76 130 150" xml:space="preserve">
<path fill="#FFFFFF" d="M29.7,143.9c0,13.5-5.5,25.8-14.4,34.7s-21.1,14.4-34.7,14.4S-45,186.6-54,178.6
	c-8.9-8.9-14.4-21.1-14.4-34.7c0-13.5,5.5-25.8,14.4-34.7s21.1-14.4,34.7-14.4s26.2,3,34.4,11.9C22.6,113.4,29.7,130.3,29.7,143.9z"
	/>
<g>
	<g>
		<path fill="none" d="M-20.2,184.8c23.6,0,42.8-19.2,42.8-42.8c0-10.9-4.1-20.8-10.8-28.4L-48.6,174
			C-41,180.7-31.1,184.8-20.2,184.8z"/>
		<path fill="none" d="M-63.1,142c0,10.8,4.1,20.6,10.6,28.2l60.4-60.4c-7.5-6.6-17.4-10.6-28.1-10.6
			C-43.8,99.2-63.1,118.4-63.1,142z"/>
		<path fill="#F99F33" d="M16.9,108.6l-5.1,5.1c6.7,7.6,10.8,17.5,10.8,28.4c0,23.6-19.2,42.8-42.8,42.8c-10.9,0-20.8-4.1-28.4-10.8
			l-5.1,5.1c8.8,8,20.6,12.9,33.4,12.9c27.6,0,50-22.4,50-50C29.7,129.1,24.8,117.4,16.9,108.6z"/>
		<path fill="#F99F33" d="M-63.1,142c0-23.6,19.3-42.8,42.9-42.8c10.8,0,20.6,4.1,28.2,10.6l5.1-5.1C4.2,96.9-7.5,92-20.2,92
			c-27.7,0-50.1,22.4-50.1,50c0,12.8,4.9,24.4,12.7,33.3l5.1-5.1C-59,162.6-63.1,152.8-63.1,142z"/>
		<path fill="#333333" d="M16.9,108.6l-5.1,5.1l0,0c6.7,7.6,10.8,17.5,10.8,28.4c0,23.6-19.2,42.8-42.8,42.8
			c-10.9,0-20.8-4.1-28.4-10.8l-5.1,5.1c8.8,8,20.6,12.9,33.4,12.9c27.6,0,50-22.4,50-50C29.7,129.1,24.8,117.4,16.9,108.6z"/>
	</g>
	<polygon fill="#333333" points="10.9,181.1 -5,196.1 -20.9,212 -36.9,195.7 -53.7,179.1 -20.3,188.2 	"/>
</g>
</svg>
