<?xml version="1.0" encoding="utf-8"?>
<!-- Generator: Adobe Illustrator 18.1.0, SVG Export Plug-In . SVG Version: 6.00 Build 0)  -->
<svg version="1.1" id="Layer_1" xmlns="http://www.w3.org/2000/svg" xmlns:xlink="http://www.w3.org/1999/xlink" x="0px" y="0px"
	 width="20px" height="20px" viewBox="0 0 20 20" enable-background="new 0 0 20 20" xml:space="preserve">
<path fill="#FFFFFF" d="M16.2,4.7c0,0-0.1-0.1-0.1-0.1c0,0-0.1-0.1-0.1-0.1s0,0-0.1,0c0,0-0.1,0-0.1,0c0,0-0.1,0-0.1,0l-0.2,0.2
	c-0.1,0.1-0.4,0.3-0.9,0.7c-1.9,1.6-4.2,3.7-6.9,6.3L4.6,8.8L3.4,10c2.4,2.4,4.1,4.2,5.2,5.6l1.3-2c2.6-3.9,4.8-6.7,6.7-8.4
	C16.4,5,16.3,4.8,16.2,4.7L16.2,4.7z"/>
</svg>
