<?xml version="1.0" encoding="utf-8"?>
<!-- Generator: Adobe Illustrator 18.1.0, SVG Export Plug-In . SVG Version: 6.00 Build 0)  -->
<svg version="1.1" id="Layer_1" xmlns="http://www.w3.org/2000/svg" xmlns:xlink="http://www.w3.org/1999/xlink" x="0px" y="0px"
	 width="30px" height="30px" viewBox="-39.5 35.5 30 30" enable-background="new -39.5 35.5 30 30" xml:space="preserve">
<path id="path-1" fill="#B3B3B3" d="M-12.4,61.3l-1.4,1.4l-6.9-6.9c-1.7,1.4-3.9,2.2-6.2,2.2c-5.5,0-10-4.5-10-10s4.5-10,10-10
	c5.5,0,10,4.5,10,10c0,2.4-0.9,4.7-2.3,6.4L-12.4,61.3z M-27,39.9c-4.5,0-8.1,3.6-8.1,8.1s3.6,8.1,8.1,8.1s8.1-3.6,8.1-8.1
	S-22.5,39.9-27,39.9z"/>
</svg>
