<?xml version="1.0" encoding="utf-8"?>
<!-- Generator: Adobe Illustrator 18.1.0, SVG Export Plug-In . SVG Version: 6.00 Build 0)  -->
<svg version="1.1" id="Layer_1" xmlns="http://www.w3.org/2000/svg" xmlns:xlink="http://www.w3.org/1999/xlink" x="0px" y="0px"
	 width="60px" height="60px" viewBox="-25 21 60 60" enable-background="new -25 21 60 60" xml:space="preserve">
<g>
	<path fill="#CCCCCC" d="M27.6,46.9c-0.5-0.3-4.1-3.5-7.2-4.3c-0.3,1.4-0.8,2.7-1.3,4h0.2l0,0c1.8,0,8,4.5,8,6.2v15.9
		c-0.5-0.3-1-0.8-1.3-1.1c-2.8-2.2-5.6-4.6-8.2-4.5c-2.3,0.2-4.7,1.9-7.2,4c-1.6,1.3-4.3,3.3-5.4,3.2c-1.1-0.3-2.6-1.4-4.1-2.6
		c-2.3-1.9-4.9-3.8-8-4c-0.2,0-0.3,0-0.5,0s-0.3,0-0.3,0c-2.5,0-5.2,2.2-7.9,4.5c-0.3,0.3-1,0.8-1.3,1.1V53.6
		c0.3-1.8,6.1-6.2,7.9-6.2l0,0c0.2,0,0.3,0,0.3,0c-0.3-1.3-1-2.6-1.1-4c-3.1,0.5-6.9,3.8-7.4,4.3c-1.6,1.8-3.8,4-3.8,6.2v18.2
		c0,1.8,1,2.4,1.5,2.6c0.3,0.2,0.8,0.3,1,0.3c1.5,0,3.1-1.3,5.4-3.2c1.6-1.1,4.3-3.5,5.4-3.5c0.2,0,0.3,0,0.3,0h0.3
		c1.6,0,3.6,1.6,5.6,3c1.8,1.4,3.6,2.9,5.6,3.3c0.3,0.2,0.7,0.2,1,0.2c2.6,0,5.2-1.9,7.7-4c1.6-1.3,3.8-3,4.9-3l0,0
		c1,0,3.9,2.4,5.4,3.5c2.8,2.2,4.6,3.7,6.4,2.7c0.3-0.3,1.5-1,1.5-2.6V53C31.4,51.2,30.1,49.3,27.6,46.9z M4.9,59.2
		C4.9,59.2,17,49,17,40.1c0-7-5.3-13.1-12.1-13.1s-12,5.9-12,13.1C-7.2,49,4.9,59.2,4.9,59.2z M-0.7,39.4c0-3,2.5-5.6,5.6-5.6
		c2.9,0,5.6,2.6,5.6,5.6S8,45,4.9,45S-0.7,42.6-0.7,39.4z"/>
</g>
</svg>
