<?xml version="1.0" encoding="utf-8"?>
<!-- Generator: Adobe Illustrator 18.1.0, SVG Export Plug-In . SVG Version: 6.00 Build 0)  -->
<svg version="1.1" id="Layer_1" xmlns="http://www.w3.org/2000/svg" xmlns:xlink="http://www.w3.org/1999/xlink" x="0px" y="0px"
	 width="24px" height="16px" viewBox="0 3 24 16" enable-background="new 0 3 24 16" xml:space="preserve">
<g>
	<path fill="#00A2A7" d="M20.6,8.2C20.9,8,21,8.2,21,8.4V16c0,0.2-0.1,0.5-0.3,0.6C20.4,16.9,20.2,17,20,17H4
		c-0.2,0-0.4-0.1-0.7-0.3C3.1,16.4,3,16.3,3,16V8.4c0-0.3,0.1-0.3,0.4-0.2l7.7,4.1c0.2,0.1,0.6,0.2,0.9,0.2s0.7-0.1,0.9-0.2
		L20.6,8.2z M3.1,5.3C3.1,5.1,3.3,5,3.6,5h16.9c0.5,0,0.6,0.2,0.4,0.6c-0.1,0.2-0.3,0.3-0.5,0.5c-0.1,0.1-0.8,0.4-1.9,1
		c-1.2,0.6-2.4,1.3-3.6,2c-1.2,0.7-1.8,1.1-1.9,1.1c-0.2,0.1-0.5,0.2-0.9,0.2s-0.7-0.1-0.9-0.2c-0.1-0.1-0.7-0.4-1.9-1.1
		C8,8.4,6.9,7.7,5.7,7.1s-1.8-1-1.9-1C3.2,5.9,3,5.6,3.1,5.3z"/>
</g>
</svg>
