<?xml version="1.0" encoding="utf-8"?>
<!-- Generator: Adobe Illustrator 18.1.0, SVG Export Plug-In . SVG Version: 6.00 Build 0)  -->
<svg version="1.1" id="Layer_1" xmlns="http://www.w3.org/2000/svg" xmlns:xlink="http://www.w3.org/1999/xlink" x="0px" y="0px"
	 width="17px" height="17px" viewBox="-43 42 17 17" enable-background="new -43 42 17 17" xml:space="preserve">
<g>
	<path fill="#FFFFFF" d="M-42.2,51.3c-0.3-0.1-0.3-0.4-0.3-0.7s0.1-0.5,0.3-0.7c0.3-0.3,0.5-0.4,0.8-0.4h10.9l-4.1-4
		c-0.3-0.3-0.4-0.5-0.4-0.8s0.1-0.5,0.3-0.7c0.1-0.1,0.4-0.3,0.8-0.3c0.3,0,0.5,0.1,0.8,0.3l6.7,6.4l-6.7,6.4
		c-0.3,0.1-0.4,0.3-0.8,0.3c-0.3,0-0.5-0.1-0.8-0.3c-0.3-0.1-0.3-0.4-0.3-0.7s0.1-0.5,0.3-0.7l4.1-4h-10.8
		C-41.7,51.7-42,51.4-42.2,51.3z"/>
</g>
</svg>
