<?xml version="1.0" encoding="utf-8"?>
<!-- Generator: Adobe Illustrator 18.1.0, SVG Export Plug-In . SVG Version: 6.00 Build 0)  -->
<svg version="1.1" id="Layer_1" xmlns="http://www.w3.org/2000/svg" xmlns:xlink="http://www.w3.org/1999/xlink" x="0px" y="0px"
	 width="68px" height="52px" viewBox="-15 25 68 52" enable-background="new -15 25 68 52" xml:space="preserve">
<path id="path-1" fill="#FFFFFF" d="M44.6,74.5H1.7c0-2.1-1.3-3.8-3.2-4.4c0.3-0.1,0.6-0.1,1-0.1c1.4,0,2.8,0.8,3.5,2l0.3,0.5h0.1
	l0,0H43c0.6-2.1,2.3-3.7,4.3-4.3v-14c-2.1-0.6-3.7-2.3-4.3-4.4h-1.8c-0.2-0.6-0.3-1.3-0.2-1.9h3.7V48c0,2.5,2.1,4.6,4.6,4.6v17.3
	C46.7,69.9,44.6,71.9,44.6,74.5z M27.6,58.9l-0.3,0.8h-1.2L27.6,58.9z M42.4,50.5c0.7,1.9,2.2,3.5,4.2,4.2v13
	c-1.9,0.7-3.4,2.2-4.1,4.1h-38l14.9-8.3l1.5,1.1L20.4,63l4.6-2.6l1.7,1.2l-1,3l2.6-1.9l2.6,1.9l-1-3l2.6-1.9h-3.2l-0.5-1.5l12.9-7.3
	l-0.2-0.4H42.4z M39.2,59.7l-1-3l-1,3H34l2.6,1.9l-1,3l2.6-1.9l2.6,1.9l-1-3l2.6-1.9C42.4,59.7,39.2,59.7,39.2,59.7z M40.9,50.7
	l-37.3,21c-1.3-2.2-4.1-3-6.3-1.8c0,0,0,0-0.1,0l-8.5-15h0.1c2.2-1.3,3-4.1,1.8-6.3v-0.1l37.3-21v0.1c1.3,2.2,4.1,3,6.3,1.8
	l8.5,15.1C40.4,45.7,39.6,48.5,40.9,50.7z M33.3,31.7c-2.1,0.5-4.4-0.2-5.9-1.7L-7,49.4c0.5,2.2-0.1,4.4-1.7,6l6.9,12.2
	c2.1-0.5,4.4,0.1,6,1.6l34.5-19.4c-0.5-2.1,0.2-4.3,1.6-5.9L33.3,31.7z M37.7,49.4l-33.6,19c-1.6-1.3-3.7-1.9-5.7-1.6L-8,55.5
	c1.3-1.6,1.9-3.7,1.6-5.8l33.6-18.9c1.6,1.3,3.6,1.9,5.7,1.6l6.4,11.4C38,45.4,37.5,47.4,37.7,49.4z M5.7,53.5l-2.8,1.6L0.6,53
	l0.6,3.1l-2.8,1.6l3.1,0.4l0.6,3.1l1.3-2.9l3.3,0.2l-2.3-2.1L5.7,53.5z M14.4,48.7l-2.8,1.6l-2.3-2.1l0.6,3.1l-2.8,1.6l3.1,0.4
	l0.6,3.1l1.3-2.9l3.1,0.4L13,51.5L14.4,48.7z M23,43.8l-2.8,1.6l-2.3-2.1l0.6,3.1L15.7,48l3.1,0.4l0.6,3.1l1.3-2.9l3.1,0.4l-2.1-2.3
	L23,43.8z M30.3,41.8l1.3-2.9l-2.7,1.6l-2.3-2.1l0.6,3.1l-2.8,1.6l3.1,0.4l0.6,3.1l1.3-2.9l3.1,0.4L30.3,41.8z"/>
</svg>
