<?xml version="1.0" encoding="utf-8"?>
<!-- Generator: Adobe Illustrator 18.1.0, SVG Export Plug-In . SVG Version: 6.00 Build 0)  -->
<svg version="1.1" id="Layer_1" xmlns="http://www.w3.org/2000/svg" xmlns:xlink="http://www.w3.org/1999/xlink" x="0px" y="0px"
	 width="50px" height="60px" viewBox="-29.5 21 50 60" enable-background="new -29.5 21 50 60" xml:space="preserve">
<g>
	<path fill="#FFFFFF" d="M-4,42.7l-6.5,6.5c-0.6,0.6-1.4,0.9-2.2,0.9s-1.6-0.3-2.2-0.9l-0.5-0.5c-1.2-1.2-1.2-3.1,0-4.3l10-10
		c-2.3-2.1-5.2-3.2-8.3-3.2c-3.2-0.1-6.3,1.2-8.6,3.5c-4.8,4.8-4.8,12.6,0,17.4l3.4,3.3l3-3c0.6-0.6,1.4-0.9,2.2-0.9
		s1.6,0.3,2.2,0.9c0.6,0.6,0.9,1.4,0.9,2.2c0.5-0.4,1.2-0.6,1.8-0.6c0.8,0,1.6,0.3,2.2,0.9c0.6,0.6,0.9,1.4,0.9,2.2
		c0,0.3-0.1,0.7-0.2,1c0.1,0,0.3,0,0.4,0c0.8,0,1.6,0.3,2.2,0.9c1,1,1.2,2.6,0.4,3.8c0,0,0,0,0.1,0c0.8,0,1.6,0.3,2.2,0.9
		c0.9,0.9,1.1,2.2,0.7,3.3l0.3,0.3c0.4,0.4,0.9,0.6,1.4,0.6s1-0.2,1.4-0.6c0.8-0.8,0.8-2,0-2.8l-8-8c-0.2-0.2-0.2-0.6,0-0.8l0.1-0.1
		c0.1-0.1,0.2-0.2,0.4-0.2c0.1,0,0.3,0.1,0.4,0.2l8,8C4.5,64,5,64.2,5.5,64.2s1-0.2,1.4-0.6s0.6-0.9,0.6-1.4s-0.2-1-0.6-1.4l-8-8
		c-0.1-0.1-0.2-0.2-0.2-0.4c0-0.1,0.1-0.3,0.2-0.4l0.1-0.1c0.2-0.2,0.6-0.2,0.8,0l7.4,7.4c0.4,0.4,0.9,0.6,1.4,0.6s1-0.2,1.4-0.6
		s0.6-0.9,0.6-1.4s-0.2-1-0.6-1.4L-4,42.7z M-3.4,70.7c0.3,0.1,0.5,0.2,0.8,0.2c0.5,0,1-0.2,1.4-0.6c0.6-0.6,0.7-1.5,0.4-2.2
		L-3.4,70.7z M-12.4,53.2c-0.4-0.4-0.9-0.6-1.4-0.6s-1,0.2-1.4,0.6l-3.4,3.4c-0.1,0.1-0.3,0.3-0.3,0.5c-0.1,0.3-0.2,0.6-0.2,0.9
		c0,0.5,0.2,1,0.6,1.4s0.9,0.6,1.4,0.6c0.3,0,0.6-0.1,0.9-0.2c0.2-0.1,0.3-0.2,0.5-0.3l3.4-3.4C-11.6,55.2-11.6,54-12.4,53.2z
		 M-0.9,66c0.1-0.6-0.1-1.1-0.6-1.6c-0.4-0.4-0.9-0.6-1.4-0.6c-0.1,0-0.1,0-0.2,0c-0.5,0-0.9,0.2-1.2,0.6l-3.2,3.2
		c-0.1,0.1-0.3,0.3-0.3,0.5c-0.4,0.7-0.3,1.7,0.3,2.3c0.4,0.4,0.9,0.6,1.4,0.6c0.3,0,0.6-0.1,0.9-0.2c0.2-0.1,0.3-0.2,0.5-0.3
		l0.4-0.4l2.8-2.8C-1.2,66.9-1,66.5-0.9,66z M-4.1,59.7c-0.4-0.4-0.9-0.6-1.4-0.6s-1,0.2-1.4,0.6L-8,60.8l-2.8,2.8l-0.3,0.4
		c-0.1,0.1-0.3,0.3-0.3,0.5c-0.4,0.7-0.3,1.7,0.3,2.3c0.4,0.4,0.9,0.6,1.4,0.6c0.3,0,0.6-0.1,0.9-0.2c0.2-0.1,0.3-0.2,0.5-0.3
		l0.4-0.4l3.9-3.9C-3.4,61.7-3.4,60.5-4.1,59.7z M-6.9,57.1c0-0.5-0.2-1-0.6-1.4s-0.9-0.6-1.4-0.6s-1,0.2-1.4,0.6l-4.6,4.6
		c-0.1,0.1-0.3,0.3-0.3,0.5c-0.4,0.7-0.3,1.7,0.3,2.3c0.4,0.4,0.9,0.6,1.4,0.6c0.3,0,0.6-0.1,0.9-0.2c0.2-0.1,0.3-0.2,0.5-0.3
		l0.4-0.4l4.2-4.2C-7.1,58.1-6.9,57.6-6.9,57.1z M13.3,34.6C11,32.3,7.9,31,4.6,31c-3.2,0-6.3,1.2-8.6,3.5l-0.1,0.1l-1,1l-9.5,9.5
		c-0.8,0.8-0.8,2,0,2.8l0.5,0.5c0.4,0.4,0.8,0.6,1.4,0.6c0.5,0,1-0.2,1.4-0.6l7-7c0.1-0.1,0.3-0.2,0.4-0.2s0.1,0,0.2,0
		s0.2,0.1,0.2,0.1l13.6,13.8l3.2-3.2c2.3-2.3,3.6-5.4,3.6-8.7C16.9,40,15.6,36.9,13.3,34.6z"/>
</g>
</svg>
